%TF.GenerationSoftware,KiCad,Pcbnew,(5.1.8)-1*%
%TF.CreationDate,2021-09-16T00:57:33-04:00*%
%TF.ProjectId,Camera,43616d65-7261-42e6-9b69-6361645f7063,rev?*%
%TF.SameCoordinates,Original*%
%TF.FileFunction,Legend,Top*%
%TF.FilePolarity,Positive*%
%FSLAX46Y46*%
G04 Gerber Fmt 4.6, Leading zero omitted, Abs format (unit mm)*
G04 Created by KiCad (PCBNEW (5.1.8)-1) date 2021-09-16 00:57:33*
%MOMM*%
%LPD*%
G01*
G04 APERTURE LIST*
%ADD10C,0.300000*%
%ADD11C,0.200000*%
%ADD12C,0.120000*%
%ADD13C,0.150000*%
G04 APERTURE END LIST*
D10*
X145830952Y-92664761D02*
X145830952Y-90664761D01*
X148211904Y-92569523D02*
X148402380Y-92664761D01*
X148783333Y-92664761D01*
X148973809Y-92569523D01*
X149069047Y-92379047D01*
X149069047Y-92283809D01*
X148973809Y-92093333D01*
X148783333Y-91998095D01*
X148497619Y-91998095D01*
X148307142Y-91902857D01*
X148211904Y-91712380D01*
X148211904Y-91617142D01*
X148307142Y-91426666D01*
X148497619Y-91331428D01*
X148783333Y-91331428D01*
X148973809Y-91426666D01*
X150688095Y-92569523D02*
X150497619Y-92664761D01*
X150116666Y-92664761D01*
X149926190Y-92569523D01*
X149830952Y-92379047D01*
X149830952Y-91617142D01*
X149926190Y-91426666D01*
X150116666Y-91331428D01*
X150497619Y-91331428D01*
X150688095Y-91426666D01*
X150783333Y-91617142D01*
X150783333Y-91807619D01*
X149830952Y-91998095D01*
X152402380Y-92569523D02*
X152211904Y-92664761D01*
X151830952Y-92664761D01*
X151640476Y-92569523D01*
X151545238Y-92379047D01*
X151545238Y-91617142D01*
X151640476Y-91426666D01*
X151830952Y-91331428D01*
X152211904Y-91331428D01*
X152402380Y-91426666D01*
X152497619Y-91617142D01*
X152497619Y-91807619D01*
X151545238Y-91998095D01*
X154688095Y-91331428D02*
X155164285Y-92664761D01*
X155640476Y-91331428D02*
X155164285Y-92664761D01*
X154973809Y-93140952D01*
X154878571Y-93236190D01*
X154688095Y-93331428D01*
X156688095Y-92664761D02*
X156497619Y-92569523D01*
X156402380Y-92474285D01*
X156307142Y-92283809D01*
X156307142Y-91712380D01*
X156402380Y-91521904D01*
X156497619Y-91426666D01*
X156688095Y-91331428D01*
X156973809Y-91331428D01*
X157164285Y-91426666D01*
X157259523Y-91521904D01*
X157354761Y-91712380D01*
X157354761Y-92283809D01*
X157259523Y-92474285D01*
X157164285Y-92569523D01*
X156973809Y-92664761D01*
X156688095Y-92664761D01*
X159069047Y-91331428D02*
X159069047Y-92664761D01*
X158211904Y-91331428D02*
X158211904Y-92379047D01*
X158307142Y-92569523D01*
X158497619Y-92664761D01*
X158783333Y-92664761D01*
X158973809Y-92569523D01*
X159069047Y-92474285D01*
D11*
%TO.C,J2*%
X148560000Y-83185000D02*
X148560000Y-84400000D01*
X148560000Y-84400000D02*
X155440000Y-84400000D01*
X155440000Y-84400000D02*
X155440000Y-80700000D01*
X155440000Y-80700000D02*
X149460000Y-80700000D01*
%TO.C,J1*%
X148560000Y-96434920D02*
X148560000Y-97649920D01*
X148560000Y-97649920D02*
X155440000Y-97649920D01*
X155440000Y-97649920D02*
X155440000Y-93949920D01*
X155440000Y-93949920D02*
X149460000Y-93949920D01*
D12*
%TO.C,U1*%
X141795000Y-88590000D02*
X141795000Y-87260000D01*
X143125000Y-88590000D02*
X141795000Y-88590000D01*
X144395000Y-88590000D02*
X144395000Y-85930000D01*
X144395000Y-85930000D02*
X162235000Y-85930000D01*
X144395000Y-88590000D02*
X162235000Y-88590000D01*
X162235000Y-88590000D02*
X162235000Y-85930000D01*
%TO.C,C1*%
X146616267Y-94640000D02*
X146323733Y-94640000D01*
X146616267Y-95660000D02*
X146323733Y-95660000D01*
D13*
X146303333Y-94027142D02*
X146255714Y-94074761D01*
X146112857Y-94122380D01*
X146017619Y-94122380D01*
X145874761Y-94074761D01*
X145779523Y-93979523D01*
X145731904Y-93884285D01*
X145684285Y-93693809D01*
X145684285Y-93550952D01*
X145731904Y-93360476D01*
X145779523Y-93265238D01*
X145874761Y-93170000D01*
X146017619Y-93122380D01*
X146112857Y-93122380D01*
X146255714Y-93170000D01*
X146303333Y-93217619D01*
X147255714Y-94122380D02*
X146684285Y-94122380D01*
X146970000Y-94122380D02*
X146970000Y-93122380D01*
X146874761Y-93265238D01*
X146779523Y-93360476D01*
X146684285Y-93408095D01*
%TD*%
M02*
