M48
; DRILL file {KiCad (5.1.8)-1} date 09/16/21 00:57:45
; FORMAT={-:-/ absolute / inch / decimal}
; #@! TF.CreationDate,2021-09-16T00:57:45-04:00
; #@! TF.GenerationSoftware,Kicad,Pcbnew,(5.1.8)-1
; #@! TF.FileFunction,Plated,1,2,PTH
FMAT,2
INCH
T1C0.0157
T2C0.0276
T3C0.0394
%
G90
G05
T1
X5.6787Y-3.7461
X6.0496Y-3.6746
X6.1642Y-3.7102
T2
X5.8843Y-3.225
X5.8843Y-3.275
X5.9343Y-3.225
X5.9343Y-3.275
X5.9843Y-3.225
X5.9843Y-3.275
X6.0343Y-3.225
X6.0343Y-3.275
X6.0843Y-3.225
X6.0843Y-3.275
X5.8843Y-3.7467
X5.8843Y-3.7967
X5.9343Y-3.7467
X5.9343Y-3.7967
X5.9843Y-3.7467
X5.9843Y-3.7967
X6.0343Y-3.7467
X6.0343Y-3.7967
X6.0843Y-3.7467
X6.0843Y-3.7967
T3
X5.6348Y-3.4354
X5.7348Y-3.4354
X5.8348Y-3.4354
X5.9348Y-3.4354
X6.0348Y-3.4354
X6.1348Y-3.4354
X6.2348Y-3.4354
X6.3348Y-3.4354
T0
M30
