%TF.GenerationSoftware,KiCad,Pcbnew,(5.1.8)-1*%
%TF.CreationDate,2021-09-16T00:57:33-04:00*%
%TF.ProjectId,Camera,43616d65-7261-42e6-9b69-6361645f7063,rev?*%
%TF.SameCoordinates,Original*%
%TF.FileFunction,Soldermask,Top*%
%TF.FilePolarity,Negative*%
%FSLAX46Y46*%
G04 Gerber Fmt 4.6, Leading zero omitted, Abs format (unit mm)*
G04 Created by KiCad (PCBNEW (5.1.8)-1) date 2021-09-16 00:57:33*
%MOMM*%
%LPD*%
G01*
G04 APERTURE LIST*
%ADD10C,1.100000*%
%ADD11R,1.100000X1.100000*%
%ADD12O,1.700000X1.700000*%
%ADD13R,1.700000X1.700000*%
G04 APERTURE END LIST*
D10*
%TO.C,J2*%
X154540000Y-81915000D03*
X154540000Y-83185000D03*
X153270000Y-81915000D03*
X153270000Y-83185000D03*
X152000000Y-81915000D03*
X152000000Y-83185000D03*
X150730000Y-81915000D03*
X150730000Y-83185000D03*
X149460000Y-81915000D03*
D11*
X149460000Y-83185000D03*
%TD*%
D10*
%TO.C,J1*%
X154540000Y-95164920D03*
X154540000Y-96434920D03*
X153270000Y-95164920D03*
X153270000Y-96434920D03*
X152000000Y-95164920D03*
X152000000Y-96434920D03*
X150730000Y-95164920D03*
X150730000Y-96434920D03*
X149460000Y-95164920D03*
D11*
X149460000Y-96434920D03*
%TD*%
D12*
%TO.C,U1*%
X160905000Y-87260000D03*
X158365000Y-87260000D03*
X155825000Y-87260000D03*
X153285000Y-87260000D03*
X150745000Y-87260000D03*
X148205000Y-87260000D03*
X145665000Y-87260000D03*
D13*
X143125000Y-87260000D03*
%TD*%
%TO.C,C1*%
G36*
G01*
X146145000Y-94912500D02*
X146145000Y-95387500D01*
G75*
G02*
X145907500Y-95625000I-237500J0D01*
G01*
X145307500Y-95625000D01*
G75*
G02*
X145070000Y-95387500I0J237500D01*
G01*
X145070000Y-94912500D01*
G75*
G02*
X145307500Y-94675000I237500J0D01*
G01*
X145907500Y-94675000D01*
G75*
G02*
X146145000Y-94912500I0J-237500D01*
G01*
G37*
G36*
G01*
X147870000Y-94912500D02*
X147870000Y-95387500D01*
G75*
G02*
X147632500Y-95625000I-237500J0D01*
G01*
X147032500Y-95625000D01*
G75*
G02*
X146795000Y-95387500I0J237500D01*
G01*
X146795000Y-94912500D01*
G75*
G02*
X147032500Y-94675000I237500J0D01*
G01*
X147632500Y-94675000D01*
G75*
G02*
X147870000Y-94912500I0J-237500D01*
G01*
G37*
%TD*%
M02*
