%TF.GenerationSoftware,KiCad,Pcbnew,(5.1.8)-1*%
%TF.CreationDate,2021-11-07T18:09:00-05:00*%
%TF.ProjectId,Control_pad,436f6e74-726f-46c5-9f70-61642e6b6963,rev?*%
%TF.SameCoordinates,Original*%
%TF.FileFunction,Legend,Top*%
%TF.FilePolarity,Positive*%
%FSLAX46Y46*%
G04 Gerber Fmt 4.6, Leading zero omitted, Abs format (unit mm)*
G04 Created by KiCad (PCBNEW (5.1.8)-1) date 2021-11-07 18:09:00*
%MOMM*%
%LPD*%
G01*
G04 APERTURE LIST*
%ADD10C,0.300000*%
%ADD11C,0.120000*%
%ADD12C,0.150000*%
G04 APERTURE END LIST*
D10*
X206981904Y-89494761D02*
X207362857Y-89494761D01*
X207553333Y-89590000D01*
X207743809Y-89780476D01*
X207839047Y-90161428D01*
X207839047Y-90828095D01*
X207743809Y-91209047D01*
X207553333Y-91399523D01*
X207362857Y-91494761D01*
X206981904Y-91494761D01*
X206791428Y-91399523D01*
X206600952Y-91209047D01*
X206505714Y-90828095D01*
X206505714Y-90161428D01*
X206600952Y-89780476D01*
X206791428Y-89590000D01*
X206981904Y-89494761D01*
X208696190Y-91494761D02*
X208696190Y-89494761D01*
X209839047Y-91494761D01*
X209839047Y-89494761D01*
X206015238Y-72374761D02*
X206396190Y-72374761D01*
X206586666Y-72470000D01*
X206777142Y-72660476D01*
X206872380Y-73041428D01*
X206872380Y-73708095D01*
X206777142Y-74089047D01*
X206586666Y-74279523D01*
X206396190Y-74374761D01*
X206015238Y-74374761D01*
X205824761Y-74279523D01*
X205634285Y-74089047D01*
X205539047Y-73708095D01*
X205539047Y-73041428D01*
X205634285Y-72660476D01*
X205824761Y-72470000D01*
X206015238Y-72374761D01*
X208396190Y-73327142D02*
X207729523Y-73327142D01*
X207729523Y-74374761D02*
X207729523Y-72374761D01*
X208681904Y-72374761D01*
X210110476Y-73327142D02*
X209443809Y-73327142D01*
X209443809Y-74374761D02*
X209443809Y-72374761D01*
X210396190Y-72374761D01*
D11*
%TO.C,SW1*%
X204600000Y-75660000D02*
X211400000Y-75660000D01*
X204600000Y-88360000D02*
X204600000Y-75660000D01*
X211400000Y-88360000D02*
X204600000Y-88360000D01*
X211400000Y-75660000D02*
X211400000Y-88360000D01*
%TO.C,S14*%
X183650000Y-127700000D02*
X183650000Y-126430000D01*
X196350000Y-127700000D02*
X183650000Y-127700000D01*
X196350000Y-126430000D02*
X196350000Y-127700000D01*
X196350000Y-115000000D02*
X196350000Y-116270000D01*
X183650000Y-115000000D02*
X196350000Y-115000000D01*
X183650000Y-115000000D02*
X183650000Y-116270000D01*
%TO.C,S13*%
X163650000Y-127700000D02*
X163650000Y-126430000D01*
X176350000Y-127700000D02*
X163650000Y-127700000D01*
X176350000Y-126430000D02*
X176350000Y-127700000D01*
X176350000Y-115000000D02*
X176350000Y-116270000D01*
X163650000Y-115000000D02*
X176350000Y-115000000D01*
X163650000Y-115000000D02*
X163650000Y-116270000D01*
%TO.C,S12*%
X123650000Y-127700000D02*
X123650000Y-126430000D01*
X136350000Y-127700000D02*
X123650000Y-127700000D01*
X136350000Y-126430000D02*
X136350000Y-127700000D01*
X136350000Y-115000000D02*
X136350000Y-116270000D01*
X123650000Y-115000000D02*
X136350000Y-115000000D01*
X123650000Y-115000000D02*
X123650000Y-116270000D01*
%TO.C,S11*%
X103650000Y-127700000D02*
X103650000Y-126430000D01*
X116350000Y-127700000D02*
X103650000Y-127700000D01*
X116350000Y-126430000D02*
X116350000Y-127700000D01*
X116350000Y-115000000D02*
X116350000Y-116270000D01*
X103650000Y-115000000D02*
X116350000Y-115000000D01*
X103650000Y-115000000D02*
X103650000Y-116270000D01*
%TO.C,S10*%
X183650000Y-108700000D02*
X183650000Y-107430000D01*
X196350000Y-108700000D02*
X183650000Y-108700000D01*
X196350000Y-107430000D02*
X196350000Y-108700000D01*
X196350000Y-96000000D02*
X196350000Y-97270000D01*
X183650000Y-96000000D02*
X196350000Y-96000000D01*
X183650000Y-96000000D02*
X183650000Y-97270000D01*
%TO.C,S9*%
X163650000Y-108700000D02*
X163650000Y-107430000D01*
X176350000Y-108700000D02*
X163650000Y-108700000D01*
X176350000Y-107430000D02*
X176350000Y-108700000D01*
X176350000Y-96000000D02*
X176350000Y-97270000D01*
X163650000Y-96000000D02*
X176350000Y-96000000D01*
X163650000Y-96000000D02*
X163650000Y-97270000D01*
%TO.C,S8*%
X143650000Y-108700000D02*
X143650000Y-107430000D01*
X156350000Y-108700000D02*
X143650000Y-108700000D01*
X156350000Y-107430000D02*
X156350000Y-108700000D01*
X156350000Y-96000000D02*
X156350000Y-97270000D01*
X143650000Y-96000000D02*
X156350000Y-96000000D01*
X143650000Y-96000000D02*
X143650000Y-97270000D01*
%TO.C,S7*%
X123650000Y-108700000D02*
X123650000Y-107430000D01*
X136350000Y-108700000D02*
X123650000Y-108700000D01*
X136350000Y-107430000D02*
X136350000Y-108700000D01*
X136350000Y-96000000D02*
X136350000Y-97270000D01*
X123650000Y-96000000D02*
X136350000Y-96000000D01*
X123650000Y-96000000D02*
X123650000Y-97270000D01*
%TO.C,S6*%
X103650000Y-108700000D02*
X103650000Y-107430000D01*
X116350000Y-108700000D02*
X103650000Y-108700000D01*
X116350000Y-107430000D02*
X116350000Y-108700000D01*
X116350000Y-96000000D02*
X116350000Y-97270000D01*
X103650000Y-96000000D02*
X116350000Y-96000000D01*
X103650000Y-96000000D02*
X103650000Y-97270000D01*
%TO.C,S5*%
X183650000Y-89700000D02*
X183650000Y-88430000D01*
X196350000Y-89700000D02*
X183650000Y-89700000D01*
X196350000Y-88430000D02*
X196350000Y-89700000D01*
X196350000Y-77000000D02*
X196350000Y-78270000D01*
X183650000Y-77000000D02*
X196350000Y-77000000D01*
X183650000Y-77000000D02*
X183650000Y-78270000D01*
%TO.C,S4*%
X163650000Y-89700000D02*
X163650000Y-88430000D01*
X176350000Y-89700000D02*
X163650000Y-89700000D01*
X176350000Y-88430000D02*
X176350000Y-89700000D01*
X176350000Y-77000000D02*
X176350000Y-78270000D01*
X163650000Y-77000000D02*
X176350000Y-77000000D01*
X163650000Y-77000000D02*
X163650000Y-78270000D01*
%TO.C,S3*%
X143650000Y-89700000D02*
X143650000Y-88430000D01*
X156350000Y-89700000D02*
X143650000Y-89700000D01*
X156350000Y-88430000D02*
X156350000Y-89700000D01*
X156350000Y-77000000D02*
X156350000Y-78270000D01*
X143650000Y-77000000D02*
X156350000Y-77000000D01*
X143650000Y-77000000D02*
X143650000Y-78270000D01*
%TO.C,S2*%
X123650000Y-89700000D02*
X123650000Y-88430000D01*
X136350000Y-89700000D02*
X123650000Y-89700000D01*
X136350000Y-88430000D02*
X136350000Y-89700000D01*
X136350000Y-77000000D02*
X136350000Y-78270000D01*
X123650000Y-77000000D02*
X136350000Y-77000000D01*
X123650000Y-77000000D02*
X123650000Y-78270000D01*
%TO.C,S1*%
X103650000Y-89700000D02*
X103650000Y-88430000D01*
X116350000Y-89700000D02*
X103650000Y-89700000D01*
X116350000Y-88430000D02*
X116350000Y-89700000D01*
X116350000Y-77000000D02*
X116350000Y-78270000D01*
X103650000Y-77000000D02*
X116350000Y-77000000D01*
X103650000Y-77000000D02*
X103650000Y-78270000D01*
%TO.C,R29*%
X192595000Y-112222936D02*
X192595000Y-112677064D01*
X194065000Y-112222936D02*
X194065000Y-112677064D01*
%TO.C,R28*%
X172565000Y-112222936D02*
X172565000Y-112677064D01*
X174035000Y-112222936D02*
X174035000Y-112677064D01*
%TO.C,R27*%
X132505000Y-112222936D02*
X132505000Y-112677064D01*
X133975000Y-112222936D02*
X133975000Y-112677064D01*
%TO.C,R23*%
X112475000Y-112222936D02*
X112475000Y-112677064D01*
X113945000Y-112222936D02*
X113945000Y-112677064D01*
%TO.C,R22*%
X192595000Y-93252936D02*
X192595000Y-93707064D01*
X194065000Y-93252936D02*
X194065000Y-93707064D01*
%TO.C,R21*%
X172565000Y-93252936D02*
X172565000Y-93707064D01*
X174035000Y-93252936D02*
X174035000Y-93707064D01*
%TO.C,R20*%
X152535000Y-93252936D02*
X152535000Y-93707064D01*
X154005000Y-93252936D02*
X154005000Y-93707064D01*
%TO.C,R15*%
X208227064Y-93705000D02*
X207772936Y-93705000D01*
X208227064Y-95175000D02*
X207772936Y-95175000D01*
%TO.C,R14*%
X132505000Y-93252936D02*
X132505000Y-93707064D01*
X133975000Y-93252936D02*
X133975000Y-93707064D01*
%TO.C,R13*%
X112475000Y-93252936D02*
X112475000Y-93707064D01*
X113945000Y-93252936D02*
X113945000Y-93707064D01*
%TO.C,R12*%
X192595000Y-73692936D02*
X192595000Y-74147064D01*
X194065000Y-73692936D02*
X194065000Y-74147064D01*
%TO.C,R11*%
X172535000Y-73752936D02*
X172535000Y-74207064D01*
X174005000Y-73752936D02*
X174005000Y-74207064D01*
%TO.C,R6*%
X152525000Y-73722936D02*
X152525000Y-74177064D01*
X153995000Y-73722936D02*
X153995000Y-74177064D01*
%TO.C,R5*%
X132535000Y-73752936D02*
X132535000Y-74207064D01*
X134005000Y-73752936D02*
X134005000Y-74207064D01*
%TO.C,R4*%
X112485000Y-73732936D02*
X112485000Y-74187064D01*
X113955000Y-73732936D02*
X113955000Y-74187064D01*
%TO.C,J4*%
X199850000Y-68750000D02*
X199850000Y-67500000D01*
X198600000Y-68750000D02*
X199850000Y-68750000D01*
X187700000Y-63250000D02*
X193250000Y-63250000D01*
X187700000Y-66200000D02*
X187700000Y-63250000D01*
X186950000Y-66200000D02*
X187700000Y-66200000D01*
X198800000Y-63250000D02*
X193250000Y-63250000D01*
X198800000Y-66200000D02*
X198800000Y-63250000D01*
X199550000Y-66200000D02*
X198800000Y-66200000D01*
X186950000Y-68450000D02*
X188750000Y-68450000D01*
X186950000Y-67700000D02*
X186950000Y-68450000D01*
X188750000Y-67700000D02*
X186950000Y-67700000D01*
X188750000Y-68450000D02*
X188750000Y-67700000D01*
X197750000Y-68450000D02*
X199550000Y-68450000D01*
X197750000Y-67700000D02*
X197750000Y-68450000D01*
X199550000Y-67700000D02*
X197750000Y-67700000D01*
X199550000Y-68450000D02*
X199550000Y-67700000D01*
X190250000Y-68450000D02*
X196250000Y-68450000D01*
X190250000Y-67700000D02*
X190250000Y-68450000D01*
X196250000Y-67700000D02*
X190250000Y-67700000D01*
X196250000Y-68450000D02*
X196250000Y-67700000D01*
X186940000Y-68460000D02*
X199560000Y-68460000D01*
X186940000Y-62490000D02*
X186940000Y-68460000D01*
X199560000Y-62490000D02*
X186940000Y-62490000D01*
X199560000Y-68460000D02*
X199560000Y-62490000D01*
%TO.C,J3*%
X184850000Y-68750000D02*
X184850000Y-67500000D01*
X183600000Y-68750000D02*
X184850000Y-68750000D01*
X172700000Y-63250000D02*
X178250000Y-63250000D01*
X172700000Y-66200000D02*
X172700000Y-63250000D01*
X171950000Y-66200000D02*
X172700000Y-66200000D01*
X183800000Y-63250000D02*
X178250000Y-63250000D01*
X183800000Y-66200000D02*
X183800000Y-63250000D01*
X184550000Y-66200000D02*
X183800000Y-66200000D01*
X171950000Y-68450000D02*
X173750000Y-68450000D01*
X171950000Y-67700000D02*
X171950000Y-68450000D01*
X173750000Y-67700000D02*
X171950000Y-67700000D01*
X173750000Y-68450000D02*
X173750000Y-67700000D01*
X182750000Y-68450000D02*
X184550000Y-68450000D01*
X182750000Y-67700000D02*
X182750000Y-68450000D01*
X184550000Y-67700000D02*
X182750000Y-67700000D01*
X184550000Y-68450000D02*
X184550000Y-67700000D01*
X175250000Y-68450000D02*
X181250000Y-68450000D01*
X175250000Y-67700000D02*
X175250000Y-68450000D01*
X181250000Y-67700000D02*
X175250000Y-67700000D01*
X181250000Y-68450000D02*
X181250000Y-67700000D01*
X171940000Y-68460000D02*
X184560000Y-68460000D01*
X171940000Y-62490000D02*
X171940000Y-68460000D01*
X184560000Y-62490000D02*
X171940000Y-62490000D01*
X184560000Y-68460000D02*
X184560000Y-62490000D01*
%TO.C,J2*%
X137850000Y-68750000D02*
X137850000Y-67500000D01*
X136600000Y-68750000D02*
X137850000Y-68750000D01*
X125700000Y-63250000D02*
X131250000Y-63250000D01*
X125700000Y-66200000D02*
X125700000Y-63250000D01*
X124950000Y-66200000D02*
X125700000Y-66200000D01*
X136800000Y-63250000D02*
X131250000Y-63250000D01*
X136800000Y-66200000D02*
X136800000Y-63250000D01*
X137550000Y-66200000D02*
X136800000Y-66200000D01*
X124950000Y-68450000D02*
X126750000Y-68450000D01*
X124950000Y-67700000D02*
X124950000Y-68450000D01*
X126750000Y-67700000D02*
X124950000Y-67700000D01*
X126750000Y-68450000D02*
X126750000Y-67700000D01*
X135750000Y-68450000D02*
X137550000Y-68450000D01*
X135750000Y-67700000D02*
X135750000Y-68450000D01*
X137550000Y-67700000D02*
X135750000Y-67700000D01*
X137550000Y-68450000D02*
X137550000Y-67700000D01*
X128250000Y-68450000D02*
X134250000Y-68450000D01*
X128250000Y-67700000D02*
X128250000Y-68450000D01*
X134250000Y-67700000D02*
X128250000Y-67700000D01*
X134250000Y-68450000D02*
X134250000Y-67700000D01*
X124940000Y-68460000D02*
X137560000Y-68460000D01*
X124940000Y-62490000D02*
X124940000Y-68460000D01*
X137560000Y-62490000D02*
X124940000Y-62490000D01*
X137560000Y-68460000D02*
X137560000Y-62490000D01*
%TO.C,J1*%
X122850000Y-68750000D02*
X122850000Y-67500000D01*
X121600000Y-68750000D02*
X122850000Y-68750000D01*
X110700000Y-63250000D02*
X116250000Y-63250000D01*
X110700000Y-66200000D02*
X110700000Y-63250000D01*
X109950000Y-66200000D02*
X110700000Y-66200000D01*
X121800000Y-63250000D02*
X116250000Y-63250000D01*
X121800000Y-66200000D02*
X121800000Y-63250000D01*
X122550000Y-66200000D02*
X121800000Y-66200000D01*
X109950000Y-68450000D02*
X111750000Y-68450000D01*
X109950000Y-67700000D02*
X109950000Y-68450000D01*
X111750000Y-67700000D02*
X109950000Y-67700000D01*
X111750000Y-68450000D02*
X111750000Y-67700000D01*
X120750000Y-68450000D02*
X122550000Y-68450000D01*
X120750000Y-67700000D02*
X120750000Y-68450000D01*
X122550000Y-67700000D02*
X120750000Y-67700000D01*
X122550000Y-68450000D02*
X122550000Y-67700000D01*
X113250000Y-68450000D02*
X119250000Y-68450000D01*
X113250000Y-67700000D02*
X113250000Y-68450000D01*
X119250000Y-67700000D02*
X113250000Y-67700000D01*
X119250000Y-68450000D02*
X119250000Y-67700000D01*
X109940000Y-68460000D02*
X122560000Y-68460000D01*
X109940000Y-62490000D02*
X109940000Y-68460000D01*
X122560000Y-62490000D02*
X109940000Y-62490000D01*
X122560000Y-68460000D02*
X122560000Y-62490000D01*
%TO.C,D1*%
X210437500Y-95885000D02*
X206377500Y-95885000D01*
X210437500Y-98155000D02*
X210437500Y-95885000D01*
X206377500Y-98155000D02*
X210437500Y-98155000D01*
%TO.C,C14*%
X194665000Y-112158748D02*
X194665000Y-112681252D01*
X196135000Y-112158748D02*
X196135000Y-112681252D01*
%TO.C,C13*%
X174655000Y-112158748D02*
X174655000Y-112681252D01*
X176125000Y-112158748D02*
X176125000Y-112681252D01*
%TO.C,C12*%
X134635000Y-112158748D02*
X134635000Y-112681252D01*
X136105000Y-112158748D02*
X136105000Y-112681252D01*
%TO.C,C11*%
X114625000Y-112188748D02*
X114625000Y-112711252D01*
X116095000Y-112188748D02*
X116095000Y-112711252D01*
%TO.C,C10*%
X194665000Y-93218748D02*
X194665000Y-93741252D01*
X196135000Y-93218748D02*
X196135000Y-93741252D01*
%TO.C,C9*%
X174655000Y-93218748D02*
X174655000Y-93741252D01*
X176125000Y-93218748D02*
X176125000Y-93741252D01*
%TO.C,C8*%
X154645000Y-93218748D02*
X154645000Y-93741252D01*
X156115000Y-93218748D02*
X156115000Y-93741252D01*
%TO.C,C7*%
X134635000Y-93218748D02*
X134635000Y-93741252D01*
X136105000Y-93218748D02*
X136105000Y-93741252D01*
%TO.C,C6*%
X114625000Y-93218748D02*
X114625000Y-93741252D01*
X116095000Y-93218748D02*
X116095000Y-93741252D01*
%TO.C,C5*%
X194665000Y-73728748D02*
X194665000Y-74251252D01*
X196135000Y-73728748D02*
X196135000Y-74251252D01*
%TO.C,C4*%
X174657500Y-73728748D02*
X174657500Y-74251252D01*
X176127500Y-73728748D02*
X176127500Y-74251252D01*
%TO.C,C3*%
X154650000Y-73728748D02*
X154650000Y-74251252D01*
X156120000Y-73728748D02*
X156120000Y-74251252D01*
%TO.C,C2*%
X134642500Y-73728748D02*
X134642500Y-74251252D01*
X136112500Y-73728748D02*
X136112500Y-74251252D01*
%TO.C,C1*%
X114635000Y-73728748D02*
X114635000Y-74251252D01*
X116105000Y-73728748D02*
X116105000Y-74251252D01*
%TO.C,S14*%
D12*
X188761904Y-112864761D02*
X188904761Y-112912380D01*
X189142857Y-112912380D01*
X189238095Y-112864761D01*
X189285714Y-112817142D01*
X189333333Y-112721904D01*
X189333333Y-112626666D01*
X189285714Y-112531428D01*
X189238095Y-112483809D01*
X189142857Y-112436190D01*
X188952380Y-112388571D01*
X188857142Y-112340952D01*
X188809523Y-112293333D01*
X188761904Y-112198095D01*
X188761904Y-112102857D01*
X188809523Y-112007619D01*
X188857142Y-111960000D01*
X188952380Y-111912380D01*
X189190476Y-111912380D01*
X189333333Y-111960000D01*
X190285714Y-112912380D02*
X189714285Y-112912380D01*
X190000000Y-112912380D02*
X190000000Y-111912380D01*
X189904761Y-112055238D01*
X189809523Y-112150476D01*
X189714285Y-112198095D01*
X191142857Y-112245714D02*
X191142857Y-112912380D01*
X190904761Y-111864761D02*
X190666666Y-112579047D01*
X191285714Y-112579047D01*
%TO.C,S13*%
X168761904Y-112864761D02*
X168904761Y-112912380D01*
X169142857Y-112912380D01*
X169238095Y-112864761D01*
X169285714Y-112817142D01*
X169333333Y-112721904D01*
X169333333Y-112626666D01*
X169285714Y-112531428D01*
X169238095Y-112483809D01*
X169142857Y-112436190D01*
X168952380Y-112388571D01*
X168857142Y-112340952D01*
X168809523Y-112293333D01*
X168761904Y-112198095D01*
X168761904Y-112102857D01*
X168809523Y-112007619D01*
X168857142Y-111960000D01*
X168952380Y-111912380D01*
X169190476Y-111912380D01*
X169333333Y-111960000D01*
X170285714Y-112912380D02*
X169714285Y-112912380D01*
X170000000Y-112912380D02*
X170000000Y-111912380D01*
X169904761Y-112055238D01*
X169809523Y-112150476D01*
X169714285Y-112198095D01*
X170619047Y-111912380D02*
X171238095Y-111912380D01*
X170904761Y-112293333D01*
X171047619Y-112293333D01*
X171142857Y-112340952D01*
X171190476Y-112388571D01*
X171238095Y-112483809D01*
X171238095Y-112721904D01*
X171190476Y-112817142D01*
X171142857Y-112864761D01*
X171047619Y-112912380D01*
X170761904Y-112912380D01*
X170666666Y-112864761D01*
X170619047Y-112817142D01*
%TO.C,S12*%
X128761904Y-112864761D02*
X128904761Y-112912380D01*
X129142857Y-112912380D01*
X129238095Y-112864761D01*
X129285714Y-112817142D01*
X129333333Y-112721904D01*
X129333333Y-112626666D01*
X129285714Y-112531428D01*
X129238095Y-112483809D01*
X129142857Y-112436190D01*
X128952380Y-112388571D01*
X128857142Y-112340952D01*
X128809523Y-112293333D01*
X128761904Y-112198095D01*
X128761904Y-112102857D01*
X128809523Y-112007619D01*
X128857142Y-111960000D01*
X128952380Y-111912380D01*
X129190476Y-111912380D01*
X129333333Y-111960000D01*
X130285714Y-112912380D02*
X129714285Y-112912380D01*
X130000000Y-112912380D02*
X130000000Y-111912380D01*
X129904761Y-112055238D01*
X129809523Y-112150476D01*
X129714285Y-112198095D01*
X130666666Y-112007619D02*
X130714285Y-111960000D01*
X130809523Y-111912380D01*
X131047619Y-111912380D01*
X131142857Y-111960000D01*
X131190476Y-112007619D01*
X131238095Y-112102857D01*
X131238095Y-112198095D01*
X131190476Y-112340952D01*
X130619047Y-112912380D01*
X131238095Y-112912380D01*
%TO.C,S11*%
X108761904Y-112864761D02*
X108904761Y-112912380D01*
X109142857Y-112912380D01*
X109238095Y-112864761D01*
X109285714Y-112817142D01*
X109333333Y-112721904D01*
X109333333Y-112626666D01*
X109285714Y-112531428D01*
X109238095Y-112483809D01*
X109142857Y-112436190D01*
X108952380Y-112388571D01*
X108857142Y-112340952D01*
X108809523Y-112293333D01*
X108761904Y-112198095D01*
X108761904Y-112102857D01*
X108809523Y-112007619D01*
X108857142Y-111960000D01*
X108952380Y-111912380D01*
X109190476Y-111912380D01*
X109333333Y-111960000D01*
X110285714Y-112912380D02*
X109714285Y-112912380D01*
X110000000Y-112912380D02*
X110000000Y-111912380D01*
X109904761Y-112055238D01*
X109809523Y-112150476D01*
X109714285Y-112198095D01*
X111238095Y-112912380D02*
X110666666Y-112912380D01*
X110952380Y-112912380D02*
X110952380Y-111912380D01*
X110857142Y-112055238D01*
X110761904Y-112150476D01*
X110666666Y-112198095D01*
%TO.C,S10*%
X188761904Y-93864761D02*
X188904761Y-93912380D01*
X189142857Y-93912380D01*
X189238095Y-93864761D01*
X189285714Y-93817142D01*
X189333333Y-93721904D01*
X189333333Y-93626666D01*
X189285714Y-93531428D01*
X189238095Y-93483809D01*
X189142857Y-93436190D01*
X188952380Y-93388571D01*
X188857142Y-93340952D01*
X188809523Y-93293333D01*
X188761904Y-93198095D01*
X188761904Y-93102857D01*
X188809523Y-93007619D01*
X188857142Y-92960000D01*
X188952380Y-92912380D01*
X189190476Y-92912380D01*
X189333333Y-92960000D01*
X190285714Y-93912380D02*
X189714285Y-93912380D01*
X190000000Y-93912380D02*
X190000000Y-92912380D01*
X189904761Y-93055238D01*
X189809523Y-93150476D01*
X189714285Y-93198095D01*
X190904761Y-92912380D02*
X191000000Y-92912380D01*
X191095238Y-92960000D01*
X191142857Y-93007619D01*
X191190476Y-93102857D01*
X191238095Y-93293333D01*
X191238095Y-93531428D01*
X191190476Y-93721904D01*
X191142857Y-93817142D01*
X191095238Y-93864761D01*
X191000000Y-93912380D01*
X190904761Y-93912380D01*
X190809523Y-93864761D01*
X190761904Y-93817142D01*
X190714285Y-93721904D01*
X190666666Y-93531428D01*
X190666666Y-93293333D01*
X190714285Y-93102857D01*
X190761904Y-93007619D01*
X190809523Y-92960000D01*
X190904761Y-92912380D01*
%TO.C,S9*%
X169818095Y-93854761D02*
X169960952Y-93902380D01*
X170199047Y-93902380D01*
X170294285Y-93854761D01*
X170341904Y-93807142D01*
X170389523Y-93711904D01*
X170389523Y-93616666D01*
X170341904Y-93521428D01*
X170294285Y-93473809D01*
X170199047Y-93426190D01*
X170008571Y-93378571D01*
X169913333Y-93330952D01*
X169865714Y-93283333D01*
X169818095Y-93188095D01*
X169818095Y-93092857D01*
X169865714Y-92997619D01*
X169913333Y-92950000D01*
X170008571Y-92902380D01*
X170246666Y-92902380D01*
X170389523Y-92950000D01*
X170865714Y-93902380D02*
X171056190Y-93902380D01*
X171151428Y-93854761D01*
X171199047Y-93807142D01*
X171294285Y-93664285D01*
X171341904Y-93473809D01*
X171341904Y-93092857D01*
X171294285Y-92997619D01*
X171246666Y-92950000D01*
X171151428Y-92902380D01*
X170960952Y-92902380D01*
X170865714Y-92950000D01*
X170818095Y-92997619D01*
X170770476Y-93092857D01*
X170770476Y-93330952D01*
X170818095Y-93426190D01*
X170865714Y-93473809D01*
X170960952Y-93521428D01*
X171151428Y-93521428D01*
X171246666Y-93473809D01*
X171294285Y-93426190D01*
X171341904Y-93330952D01*
%TO.C,S8*%
X149238095Y-93864761D02*
X149380952Y-93912380D01*
X149619047Y-93912380D01*
X149714285Y-93864761D01*
X149761904Y-93817142D01*
X149809523Y-93721904D01*
X149809523Y-93626666D01*
X149761904Y-93531428D01*
X149714285Y-93483809D01*
X149619047Y-93436190D01*
X149428571Y-93388571D01*
X149333333Y-93340952D01*
X149285714Y-93293333D01*
X149238095Y-93198095D01*
X149238095Y-93102857D01*
X149285714Y-93007619D01*
X149333333Y-92960000D01*
X149428571Y-92912380D01*
X149666666Y-92912380D01*
X149809523Y-92960000D01*
X150380952Y-93340952D02*
X150285714Y-93293333D01*
X150238095Y-93245714D01*
X150190476Y-93150476D01*
X150190476Y-93102857D01*
X150238095Y-93007619D01*
X150285714Y-92960000D01*
X150380952Y-92912380D01*
X150571428Y-92912380D01*
X150666666Y-92960000D01*
X150714285Y-93007619D01*
X150761904Y-93102857D01*
X150761904Y-93150476D01*
X150714285Y-93245714D01*
X150666666Y-93293333D01*
X150571428Y-93340952D01*
X150380952Y-93340952D01*
X150285714Y-93388571D01*
X150238095Y-93436190D01*
X150190476Y-93531428D01*
X150190476Y-93721904D01*
X150238095Y-93817142D01*
X150285714Y-93864761D01*
X150380952Y-93912380D01*
X150571428Y-93912380D01*
X150666666Y-93864761D01*
X150714285Y-93817142D01*
X150761904Y-93721904D01*
X150761904Y-93531428D01*
X150714285Y-93436190D01*
X150666666Y-93388571D01*
X150571428Y-93340952D01*
%TO.C,S7*%
X129238095Y-93864761D02*
X129380952Y-93912380D01*
X129619047Y-93912380D01*
X129714285Y-93864761D01*
X129761904Y-93817142D01*
X129809523Y-93721904D01*
X129809523Y-93626666D01*
X129761904Y-93531428D01*
X129714285Y-93483809D01*
X129619047Y-93436190D01*
X129428571Y-93388571D01*
X129333333Y-93340952D01*
X129285714Y-93293333D01*
X129238095Y-93198095D01*
X129238095Y-93102857D01*
X129285714Y-93007619D01*
X129333333Y-92960000D01*
X129428571Y-92912380D01*
X129666666Y-92912380D01*
X129809523Y-92960000D01*
X130142857Y-92912380D02*
X130809523Y-92912380D01*
X130380952Y-93912380D01*
%TO.C,S6*%
X109238095Y-93864761D02*
X109380952Y-93912380D01*
X109619047Y-93912380D01*
X109714285Y-93864761D01*
X109761904Y-93817142D01*
X109809523Y-93721904D01*
X109809523Y-93626666D01*
X109761904Y-93531428D01*
X109714285Y-93483809D01*
X109619047Y-93436190D01*
X109428571Y-93388571D01*
X109333333Y-93340952D01*
X109285714Y-93293333D01*
X109238095Y-93198095D01*
X109238095Y-93102857D01*
X109285714Y-93007619D01*
X109333333Y-92960000D01*
X109428571Y-92912380D01*
X109666666Y-92912380D01*
X109809523Y-92960000D01*
X110666666Y-92912380D02*
X110476190Y-92912380D01*
X110380952Y-92960000D01*
X110333333Y-93007619D01*
X110238095Y-93150476D01*
X110190476Y-93340952D01*
X110190476Y-93721904D01*
X110238095Y-93817142D01*
X110285714Y-93864761D01*
X110380952Y-93912380D01*
X110571428Y-93912380D01*
X110666666Y-93864761D01*
X110714285Y-93817142D01*
X110761904Y-93721904D01*
X110761904Y-93483809D01*
X110714285Y-93388571D01*
X110666666Y-93340952D01*
X110571428Y-93293333D01*
X110380952Y-93293333D01*
X110285714Y-93340952D01*
X110238095Y-93388571D01*
X110190476Y-93483809D01*
%TO.C,S5*%
X189238095Y-74864761D02*
X189380952Y-74912380D01*
X189619047Y-74912380D01*
X189714285Y-74864761D01*
X189761904Y-74817142D01*
X189809523Y-74721904D01*
X189809523Y-74626666D01*
X189761904Y-74531428D01*
X189714285Y-74483809D01*
X189619047Y-74436190D01*
X189428571Y-74388571D01*
X189333333Y-74340952D01*
X189285714Y-74293333D01*
X189238095Y-74198095D01*
X189238095Y-74102857D01*
X189285714Y-74007619D01*
X189333333Y-73960000D01*
X189428571Y-73912380D01*
X189666666Y-73912380D01*
X189809523Y-73960000D01*
X190714285Y-73912380D02*
X190238095Y-73912380D01*
X190190476Y-74388571D01*
X190238095Y-74340952D01*
X190333333Y-74293333D01*
X190571428Y-74293333D01*
X190666666Y-74340952D01*
X190714285Y-74388571D01*
X190761904Y-74483809D01*
X190761904Y-74721904D01*
X190714285Y-74817142D01*
X190666666Y-74864761D01*
X190571428Y-74912380D01*
X190333333Y-74912380D01*
X190238095Y-74864761D01*
X190190476Y-74817142D01*
%TO.C,S4*%
X169238095Y-74864761D02*
X169380952Y-74912380D01*
X169619047Y-74912380D01*
X169714285Y-74864761D01*
X169761904Y-74817142D01*
X169809523Y-74721904D01*
X169809523Y-74626666D01*
X169761904Y-74531428D01*
X169714285Y-74483809D01*
X169619047Y-74436190D01*
X169428571Y-74388571D01*
X169333333Y-74340952D01*
X169285714Y-74293333D01*
X169238095Y-74198095D01*
X169238095Y-74102857D01*
X169285714Y-74007619D01*
X169333333Y-73960000D01*
X169428571Y-73912380D01*
X169666666Y-73912380D01*
X169809523Y-73960000D01*
X170666666Y-74245714D02*
X170666666Y-74912380D01*
X170428571Y-73864761D02*
X170190476Y-74579047D01*
X170809523Y-74579047D01*
%TO.C,S3*%
X149238095Y-74864761D02*
X149380952Y-74912380D01*
X149619047Y-74912380D01*
X149714285Y-74864761D01*
X149761904Y-74817142D01*
X149809523Y-74721904D01*
X149809523Y-74626666D01*
X149761904Y-74531428D01*
X149714285Y-74483809D01*
X149619047Y-74436190D01*
X149428571Y-74388571D01*
X149333333Y-74340952D01*
X149285714Y-74293333D01*
X149238095Y-74198095D01*
X149238095Y-74102857D01*
X149285714Y-74007619D01*
X149333333Y-73960000D01*
X149428571Y-73912380D01*
X149666666Y-73912380D01*
X149809523Y-73960000D01*
X150142857Y-73912380D02*
X150761904Y-73912380D01*
X150428571Y-74293333D01*
X150571428Y-74293333D01*
X150666666Y-74340952D01*
X150714285Y-74388571D01*
X150761904Y-74483809D01*
X150761904Y-74721904D01*
X150714285Y-74817142D01*
X150666666Y-74864761D01*
X150571428Y-74912380D01*
X150285714Y-74912380D01*
X150190476Y-74864761D01*
X150142857Y-74817142D01*
%TO.C,S2*%
X129238095Y-74864761D02*
X129380952Y-74912380D01*
X129619047Y-74912380D01*
X129714285Y-74864761D01*
X129761904Y-74817142D01*
X129809523Y-74721904D01*
X129809523Y-74626666D01*
X129761904Y-74531428D01*
X129714285Y-74483809D01*
X129619047Y-74436190D01*
X129428571Y-74388571D01*
X129333333Y-74340952D01*
X129285714Y-74293333D01*
X129238095Y-74198095D01*
X129238095Y-74102857D01*
X129285714Y-74007619D01*
X129333333Y-73960000D01*
X129428571Y-73912380D01*
X129666666Y-73912380D01*
X129809523Y-73960000D01*
X130190476Y-74007619D02*
X130238095Y-73960000D01*
X130333333Y-73912380D01*
X130571428Y-73912380D01*
X130666666Y-73960000D01*
X130714285Y-74007619D01*
X130761904Y-74102857D01*
X130761904Y-74198095D01*
X130714285Y-74340952D01*
X130142857Y-74912380D01*
X130761904Y-74912380D01*
%TO.C,S1*%
X109238095Y-74864761D02*
X109380952Y-74912380D01*
X109619047Y-74912380D01*
X109714285Y-74864761D01*
X109761904Y-74817142D01*
X109809523Y-74721904D01*
X109809523Y-74626666D01*
X109761904Y-74531428D01*
X109714285Y-74483809D01*
X109619047Y-74436190D01*
X109428571Y-74388571D01*
X109333333Y-74340952D01*
X109285714Y-74293333D01*
X109238095Y-74198095D01*
X109238095Y-74102857D01*
X109285714Y-74007619D01*
X109333333Y-73960000D01*
X109428571Y-73912380D01*
X109666666Y-73912380D01*
X109809523Y-73960000D01*
X110761904Y-74912380D02*
X110190476Y-74912380D01*
X110476190Y-74912380D02*
X110476190Y-73912380D01*
X110380952Y-74055238D01*
X110285714Y-74150476D01*
X110190476Y-74198095D01*
%TO.C,R29*%
X192167142Y-110182380D02*
X191833809Y-109706190D01*
X191595714Y-110182380D02*
X191595714Y-109182380D01*
X191976666Y-109182380D01*
X192071904Y-109230000D01*
X192119523Y-109277619D01*
X192167142Y-109372857D01*
X192167142Y-109515714D01*
X192119523Y-109610952D01*
X192071904Y-109658571D01*
X191976666Y-109706190D01*
X191595714Y-109706190D01*
X192548095Y-109277619D02*
X192595714Y-109230000D01*
X192690952Y-109182380D01*
X192929047Y-109182380D01*
X193024285Y-109230000D01*
X193071904Y-109277619D01*
X193119523Y-109372857D01*
X193119523Y-109468095D01*
X193071904Y-109610952D01*
X192500476Y-110182380D01*
X193119523Y-110182380D01*
X193595714Y-110182380D02*
X193786190Y-110182380D01*
X193881428Y-110134761D01*
X193929047Y-110087142D01*
X194024285Y-109944285D01*
X194071904Y-109753809D01*
X194071904Y-109372857D01*
X194024285Y-109277619D01*
X193976666Y-109230000D01*
X193881428Y-109182380D01*
X193690952Y-109182380D01*
X193595714Y-109230000D01*
X193548095Y-109277619D01*
X193500476Y-109372857D01*
X193500476Y-109610952D01*
X193548095Y-109706190D01*
X193595714Y-109753809D01*
X193690952Y-109801428D01*
X193881428Y-109801428D01*
X193976666Y-109753809D01*
X194024285Y-109706190D01*
X194071904Y-109610952D01*
%TO.C,R28*%
X172117142Y-110212380D02*
X171783809Y-109736190D01*
X171545714Y-110212380D02*
X171545714Y-109212380D01*
X171926666Y-109212380D01*
X172021904Y-109260000D01*
X172069523Y-109307619D01*
X172117142Y-109402857D01*
X172117142Y-109545714D01*
X172069523Y-109640952D01*
X172021904Y-109688571D01*
X171926666Y-109736190D01*
X171545714Y-109736190D01*
X172498095Y-109307619D02*
X172545714Y-109260000D01*
X172640952Y-109212380D01*
X172879047Y-109212380D01*
X172974285Y-109260000D01*
X173021904Y-109307619D01*
X173069523Y-109402857D01*
X173069523Y-109498095D01*
X173021904Y-109640952D01*
X172450476Y-110212380D01*
X173069523Y-110212380D01*
X173640952Y-109640952D02*
X173545714Y-109593333D01*
X173498095Y-109545714D01*
X173450476Y-109450476D01*
X173450476Y-109402857D01*
X173498095Y-109307619D01*
X173545714Y-109260000D01*
X173640952Y-109212380D01*
X173831428Y-109212380D01*
X173926666Y-109260000D01*
X173974285Y-109307619D01*
X174021904Y-109402857D01*
X174021904Y-109450476D01*
X173974285Y-109545714D01*
X173926666Y-109593333D01*
X173831428Y-109640952D01*
X173640952Y-109640952D01*
X173545714Y-109688571D01*
X173498095Y-109736190D01*
X173450476Y-109831428D01*
X173450476Y-110021904D01*
X173498095Y-110117142D01*
X173545714Y-110164761D01*
X173640952Y-110212380D01*
X173831428Y-110212380D01*
X173926666Y-110164761D01*
X173974285Y-110117142D01*
X174021904Y-110021904D01*
X174021904Y-109831428D01*
X173974285Y-109736190D01*
X173926666Y-109688571D01*
X173831428Y-109640952D01*
%TO.C,R27*%
X132107142Y-110222380D02*
X131773809Y-109746190D01*
X131535714Y-110222380D02*
X131535714Y-109222380D01*
X131916666Y-109222380D01*
X132011904Y-109270000D01*
X132059523Y-109317619D01*
X132107142Y-109412857D01*
X132107142Y-109555714D01*
X132059523Y-109650952D01*
X132011904Y-109698571D01*
X131916666Y-109746190D01*
X131535714Y-109746190D01*
X132488095Y-109317619D02*
X132535714Y-109270000D01*
X132630952Y-109222380D01*
X132869047Y-109222380D01*
X132964285Y-109270000D01*
X133011904Y-109317619D01*
X133059523Y-109412857D01*
X133059523Y-109508095D01*
X133011904Y-109650952D01*
X132440476Y-110222380D01*
X133059523Y-110222380D01*
X133392857Y-109222380D02*
X134059523Y-109222380D01*
X133630952Y-110222380D01*
%TO.C,R23*%
X111857142Y-110192380D02*
X111523809Y-109716190D01*
X111285714Y-110192380D02*
X111285714Y-109192380D01*
X111666666Y-109192380D01*
X111761904Y-109240000D01*
X111809523Y-109287619D01*
X111857142Y-109382857D01*
X111857142Y-109525714D01*
X111809523Y-109620952D01*
X111761904Y-109668571D01*
X111666666Y-109716190D01*
X111285714Y-109716190D01*
X112238095Y-109287619D02*
X112285714Y-109240000D01*
X112380952Y-109192380D01*
X112619047Y-109192380D01*
X112714285Y-109240000D01*
X112761904Y-109287619D01*
X112809523Y-109382857D01*
X112809523Y-109478095D01*
X112761904Y-109620952D01*
X112190476Y-110192380D01*
X112809523Y-110192380D01*
X113142857Y-109192380D02*
X113761904Y-109192380D01*
X113428571Y-109573333D01*
X113571428Y-109573333D01*
X113666666Y-109620952D01*
X113714285Y-109668571D01*
X113761904Y-109763809D01*
X113761904Y-110001904D01*
X113714285Y-110097142D01*
X113666666Y-110144761D01*
X113571428Y-110192380D01*
X113285714Y-110192380D01*
X113190476Y-110144761D01*
X113142857Y-110097142D01*
%TO.C,R22*%
X192237142Y-91332380D02*
X191903809Y-90856190D01*
X191665714Y-91332380D02*
X191665714Y-90332380D01*
X192046666Y-90332380D01*
X192141904Y-90380000D01*
X192189523Y-90427619D01*
X192237142Y-90522857D01*
X192237142Y-90665714D01*
X192189523Y-90760952D01*
X192141904Y-90808571D01*
X192046666Y-90856190D01*
X191665714Y-90856190D01*
X192618095Y-90427619D02*
X192665714Y-90380000D01*
X192760952Y-90332380D01*
X192999047Y-90332380D01*
X193094285Y-90380000D01*
X193141904Y-90427619D01*
X193189523Y-90522857D01*
X193189523Y-90618095D01*
X193141904Y-90760952D01*
X192570476Y-91332380D01*
X193189523Y-91332380D01*
X193570476Y-90427619D02*
X193618095Y-90380000D01*
X193713333Y-90332380D01*
X193951428Y-90332380D01*
X194046666Y-90380000D01*
X194094285Y-90427619D01*
X194141904Y-90522857D01*
X194141904Y-90618095D01*
X194094285Y-90760952D01*
X193522857Y-91332380D01*
X194141904Y-91332380D01*
%TO.C,R21*%
X172257142Y-91362380D02*
X171923809Y-90886190D01*
X171685714Y-91362380D02*
X171685714Y-90362380D01*
X172066666Y-90362380D01*
X172161904Y-90410000D01*
X172209523Y-90457619D01*
X172257142Y-90552857D01*
X172257142Y-90695714D01*
X172209523Y-90790952D01*
X172161904Y-90838571D01*
X172066666Y-90886190D01*
X171685714Y-90886190D01*
X172638095Y-90457619D02*
X172685714Y-90410000D01*
X172780952Y-90362380D01*
X173019047Y-90362380D01*
X173114285Y-90410000D01*
X173161904Y-90457619D01*
X173209523Y-90552857D01*
X173209523Y-90648095D01*
X173161904Y-90790952D01*
X172590476Y-91362380D01*
X173209523Y-91362380D01*
X174161904Y-91362380D02*
X173590476Y-91362380D01*
X173876190Y-91362380D02*
X173876190Y-90362380D01*
X173780952Y-90505238D01*
X173685714Y-90600476D01*
X173590476Y-90648095D01*
%TO.C,R20*%
X152257142Y-91462380D02*
X151923809Y-90986190D01*
X151685714Y-91462380D02*
X151685714Y-90462380D01*
X152066666Y-90462380D01*
X152161904Y-90510000D01*
X152209523Y-90557619D01*
X152257142Y-90652857D01*
X152257142Y-90795714D01*
X152209523Y-90890952D01*
X152161904Y-90938571D01*
X152066666Y-90986190D01*
X151685714Y-90986190D01*
X152638095Y-90557619D02*
X152685714Y-90510000D01*
X152780952Y-90462380D01*
X153019047Y-90462380D01*
X153114285Y-90510000D01*
X153161904Y-90557619D01*
X153209523Y-90652857D01*
X153209523Y-90748095D01*
X153161904Y-90890952D01*
X152590476Y-91462380D01*
X153209523Y-91462380D01*
X153828571Y-90462380D02*
X153923809Y-90462380D01*
X154019047Y-90510000D01*
X154066666Y-90557619D01*
X154114285Y-90652857D01*
X154161904Y-90843333D01*
X154161904Y-91081428D01*
X154114285Y-91271904D01*
X154066666Y-91367142D01*
X154019047Y-91414761D01*
X153923809Y-91462380D01*
X153828571Y-91462380D01*
X153733333Y-91414761D01*
X153685714Y-91367142D01*
X153638095Y-91271904D01*
X153590476Y-91081428D01*
X153590476Y-90843333D01*
X153638095Y-90652857D01*
X153685714Y-90557619D01*
X153733333Y-90510000D01*
X153828571Y-90462380D01*
%TO.C,R15*%
X210807142Y-94892380D02*
X210473809Y-94416190D01*
X210235714Y-94892380D02*
X210235714Y-93892380D01*
X210616666Y-93892380D01*
X210711904Y-93940000D01*
X210759523Y-93987619D01*
X210807142Y-94082857D01*
X210807142Y-94225714D01*
X210759523Y-94320952D01*
X210711904Y-94368571D01*
X210616666Y-94416190D01*
X210235714Y-94416190D01*
X211759523Y-94892380D02*
X211188095Y-94892380D01*
X211473809Y-94892380D02*
X211473809Y-93892380D01*
X211378571Y-94035238D01*
X211283333Y-94130476D01*
X211188095Y-94178095D01*
X212664285Y-93892380D02*
X212188095Y-93892380D01*
X212140476Y-94368571D01*
X212188095Y-94320952D01*
X212283333Y-94273333D01*
X212521428Y-94273333D01*
X212616666Y-94320952D01*
X212664285Y-94368571D01*
X212711904Y-94463809D01*
X212711904Y-94701904D01*
X212664285Y-94797142D01*
X212616666Y-94844761D01*
X212521428Y-94892380D01*
X212283333Y-94892380D01*
X212188095Y-94844761D01*
X212140476Y-94797142D01*
%TO.C,R14*%
X131967142Y-91482380D02*
X131633809Y-91006190D01*
X131395714Y-91482380D02*
X131395714Y-90482380D01*
X131776666Y-90482380D01*
X131871904Y-90530000D01*
X131919523Y-90577619D01*
X131967142Y-90672857D01*
X131967142Y-90815714D01*
X131919523Y-90910952D01*
X131871904Y-90958571D01*
X131776666Y-91006190D01*
X131395714Y-91006190D01*
X132919523Y-91482380D02*
X132348095Y-91482380D01*
X132633809Y-91482380D02*
X132633809Y-90482380D01*
X132538571Y-90625238D01*
X132443333Y-90720476D01*
X132348095Y-90768095D01*
X133776666Y-90815714D02*
X133776666Y-91482380D01*
X133538571Y-90434761D02*
X133300476Y-91149047D01*
X133919523Y-91149047D01*
%TO.C,R13*%
X112057142Y-91352380D02*
X111723809Y-90876190D01*
X111485714Y-91352380D02*
X111485714Y-90352380D01*
X111866666Y-90352380D01*
X111961904Y-90400000D01*
X112009523Y-90447619D01*
X112057142Y-90542857D01*
X112057142Y-90685714D01*
X112009523Y-90780952D01*
X111961904Y-90828571D01*
X111866666Y-90876190D01*
X111485714Y-90876190D01*
X113009523Y-91352380D02*
X112438095Y-91352380D01*
X112723809Y-91352380D02*
X112723809Y-90352380D01*
X112628571Y-90495238D01*
X112533333Y-90590476D01*
X112438095Y-90638095D01*
X113342857Y-90352380D02*
X113961904Y-90352380D01*
X113628571Y-90733333D01*
X113771428Y-90733333D01*
X113866666Y-90780952D01*
X113914285Y-90828571D01*
X113961904Y-90923809D01*
X113961904Y-91161904D01*
X113914285Y-91257142D01*
X113866666Y-91304761D01*
X113771428Y-91352380D01*
X113485714Y-91352380D01*
X113390476Y-91304761D01*
X113342857Y-91257142D01*
%TO.C,R12*%
X191977142Y-71272380D02*
X191643809Y-70796190D01*
X191405714Y-71272380D02*
X191405714Y-70272380D01*
X191786666Y-70272380D01*
X191881904Y-70320000D01*
X191929523Y-70367619D01*
X191977142Y-70462857D01*
X191977142Y-70605714D01*
X191929523Y-70700952D01*
X191881904Y-70748571D01*
X191786666Y-70796190D01*
X191405714Y-70796190D01*
X192929523Y-71272380D02*
X192358095Y-71272380D01*
X192643809Y-71272380D02*
X192643809Y-70272380D01*
X192548571Y-70415238D01*
X192453333Y-70510476D01*
X192358095Y-70558095D01*
X193310476Y-70367619D02*
X193358095Y-70320000D01*
X193453333Y-70272380D01*
X193691428Y-70272380D01*
X193786666Y-70320000D01*
X193834285Y-70367619D01*
X193881904Y-70462857D01*
X193881904Y-70558095D01*
X193834285Y-70700952D01*
X193262857Y-71272380D01*
X193881904Y-71272380D01*
%TO.C,R11*%
X172337142Y-71642380D02*
X172003809Y-71166190D01*
X171765714Y-71642380D02*
X171765714Y-70642380D01*
X172146666Y-70642380D01*
X172241904Y-70690000D01*
X172289523Y-70737619D01*
X172337142Y-70832857D01*
X172337142Y-70975714D01*
X172289523Y-71070952D01*
X172241904Y-71118571D01*
X172146666Y-71166190D01*
X171765714Y-71166190D01*
X173289523Y-71642380D02*
X172718095Y-71642380D01*
X173003809Y-71642380D02*
X173003809Y-70642380D01*
X172908571Y-70785238D01*
X172813333Y-70880476D01*
X172718095Y-70928095D01*
X174241904Y-71642380D02*
X173670476Y-71642380D01*
X173956190Y-71642380D02*
X173956190Y-70642380D01*
X173860952Y-70785238D01*
X173765714Y-70880476D01*
X173670476Y-70928095D01*
%TO.C,R6*%
X153143333Y-71562380D02*
X152810000Y-71086190D01*
X152571904Y-71562380D02*
X152571904Y-70562380D01*
X152952857Y-70562380D01*
X153048095Y-70610000D01*
X153095714Y-70657619D01*
X153143333Y-70752857D01*
X153143333Y-70895714D01*
X153095714Y-70990952D01*
X153048095Y-71038571D01*
X152952857Y-71086190D01*
X152571904Y-71086190D01*
X154000476Y-70562380D02*
X153810000Y-70562380D01*
X153714761Y-70610000D01*
X153667142Y-70657619D01*
X153571904Y-70800476D01*
X153524285Y-70990952D01*
X153524285Y-71371904D01*
X153571904Y-71467142D01*
X153619523Y-71514761D01*
X153714761Y-71562380D01*
X153905238Y-71562380D01*
X154000476Y-71514761D01*
X154048095Y-71467142D01*
X154095714Y-71371904D01*
X154095714Y-71133809D01*
X154048095Y-71038571D01*
X154000476Y-70990952D01*
X153905238Y-70943333D01*
X153714761Y-70943333D01*
X153619523Y-70990952D01*
X153571904Y-71038571D01*
X153524285Y-71133809D01*
%TO.C,R5*%
X133133333Y-71552380D02*
X132800000Y-71076190D01*
X132561904Y-71552380D02*
X132561904Y-70552380D01*
X132942857Y-70552380D01*
X133038095Y-70600000D01*
X133085714Y-70647619D01*
X133133333Y-70742857D01*
X133133333Y-70885714D01*
X133085714Y-70980952D01*
X133038095Y-71028571D01*
X132942857Y-71076190D01*
X132561904Y-71076190D01*
X134038095Y-70552380D02*
X133561904Y-70552380D01*
X133514285Y-71028571D01*
X133561904Y-70980952D01*
X133657142Y-70933333D01*
X133895238Y-70933333D01*
X133990476Y-70980952D01*
X134038095Y-71028571D01*
X134085714Y-71123809D01*
X134085714Y-71361904D01*
X134038095Y-71457142D01*
X133990476Y-71504761D01*
X133895238Y-71552380D01*
X133657142Y-71552380D01*
X133561904Y-71504761D01*
X133514285Y-71457142D01*
%TO.C,R4*%
X113063333Y-71582380D02*
X112730000Y-71106190D01*
X112491904Y-71582380D02*
X112491904Y-70582380D01*
X112872857Y-70582380D01*
X112968095Y-70630000D01*
X113015714Y-70677619D01*
X113063333Y-70772857D01*
X113063333Y-70915714D01*
X113015714Y-71010952D01*
X112968095Y-71058571D01*
X112872857Y-71106190D01*
X112491904Y-71106190D01*
X113920476Y-70915714D02*
X113920476Y-71582380D01*
X113682380Y-70534761D02*
X113444285Y-71249047D01*
X114063333Y-71249047D01*
%TO.C,J4*%
X192916666Y-60852380D02*
X192916666Y-61566666D01*
X192869047Y-61709523D01*
X192773809Y-61804761D01*
X192630952Y-61852380D01*
X192535714Y-61852380D01*
X193821428Y-61185714D02*
X193821428Y-61852380D01*
X193583333Y-60804761D02*
X193345238Y-61519047D01*
X193964285Y-61519047D01*
%TO.C,J3*%
X177766666Y-60852380D02*
X177766666Y-61566666D01*
X177719047Y-61709523D01*
X177623809Y-61804761D01*
X177480952Y-61852380D01*
X177385714Y-61852380D01*
X178147619Y-60852380D02*
X178766666Y-60852380D01*
X178433333Y-61233333D01*
X178576190Y-61233333D01*
X178671428Y-61280952D01*
X178719047Y-61328571D01*
X178766666Y-61423809D01*
X178766666Y-61661904D01*
X178719047Y-61757142D01*
X178671428Y-61804761D01*
X178576190Y-61852380D01*
X178290476Y-61852380D01*
X178195238Y-61804761D01*
X178147619Y-61757142D01*
%TO.C,J2*%
X130916666Y-60852380D02*
X130916666Y-61566666D01*
X130869047Y-61709523D01*
X130773809Y-61804761D01*
X130630952Y-61852380D01*
X130535714Y-61852380D01*
X131345238Y-60947619D02*
X131392857Y-60900000D01*
X131488095Y-60852380D01*
X131726190Y-60852380D01*
X131821428Y-60900000D01*
X131869047Y-60947619D01*
X131916666Y-61042857D01*
X131916666Y-61138095D01*
X131869047Y-61280952D01*
X131297619Y-61852380D01*
X131916666Y-61852380D01*
%TO.C,J1*%
X115696666Y-60832380D02*
X115696666Y-61546666D01*
X115649047Y-61689523D01*
X115553809Y-61784761D01*
X115410952Y-61832380D01*
X115315714Y-61832380D01*
X116696666Y-61832380D02*
X116125238Y-61832380D01*
X116410952Y-61832380D02*
X116410952Y-60832380D01*
X116315714Y-60975238D01*
X116220476Y-61070476D01*
X116125238Y-61118095D01*
%TO.C,D1*%
X210929404Y-97392380D02*
X210929404Y-96392380D01*
X211167500Y-96392380D01*
X211310357Y-96440000D01*
X211405595Y-96535238D01*
X211453214Y-96630476D01*
X211500833Y-96820952D01*
X211500833Y-96963809D01*
X211453214Y-97154285D01*
X211405595Y-97249523D01*
X211310357Y-97344761D01*
X211167500Y-97392380D01*
X210929404Y-97392380D01*
X212453214Y-97392380D02*
X211881785Y-97392380D01*
X212167500Y-97392380D02*
X212167500Y-96392380D01*
X212072261Y-96535238D01*
X211977023Y-96630476D01*
X211881785Y-96678095D01*
%TO.C,C14*%
X195267142Y-110077142D02*
X195219523Y-110124761D01*
X195076666Y-110172380D01*
X194981428Y-110172380D01*
X194838571Y-110124761D01*
X194743333Y-110029523D01*
X194695714Y-109934285D01*
X194648095Y-109743809D01*
X194648095Y-109600952D01*
X194695714Y-109410476D01*
X194743333Y-109315238D01*
X194838571Y-109220000D01*
X194981428Y-109172380D01*
X195076666Y-109172380D01*
X195219523Y-109220000D01*
X195267142Y-109267619D01*
X196219523Y-110172380D02*
X195648095Y-110172380D01*
X195933809Y-110172380D02*
X195933809Y-109172380D01*
X195838571Y-109315238D01*
X195743333Y-109410476D01*
X195648095Y-109458095D01*
X197076666Y-109505714D02*
X197076666Y-110172380D01*
X196838571Y-109124761D02*
X196600476Y-109839047D01*
X197219523Y-109839047D01*
%TO.C,C13*%
X175097142Y-110047142D02*
X175049523Y-110094761D01*
X174906666Y-110142380D01*
X174811428Y-110142380D01*
X174668571Y-110094761D01*
X174573333Y-109999523D01*
X174525714Y-109904285D01*
X174478095Y-109713809D01*
X174478095Y-109570952D01*
X174525714Y-109380476D01*
X174573333Y-109285238D01*
X174668571Y-109190000D01*
X174811428Y-109142380D01*
X174906666Y-109142380D01*
X175049523Y-109190000D01*
X175097142Y-109237619D01*
X176049523Y-110142380D02*
X175478095Y-110142380D01*
X175763809Y-110142380D02*
X175763809Y-109142380D01*
X175668571Y-109285238D01*
X175573333Y-109380476D01*
X175478095Y-109428095D01*
X176382857Y-109142380D02*
X177001904Y-109142380D01*
X176668571Y-109523333D01*
X176811428Y-109523333D01*
X176906666Y-109570952D01*
X176954285Y-109618571D01*
X177001904Y-109713809D01*
X177001904Y-109951904D01*
X176954285Y-110047142D01*
X176906666Y-110094761D01*
X176811428Y-110142380D01*
X176525714Y-110142380D01*
X176430476Y-110094761D01*
X176382857Y-110047142D01*
%TO.C,C12*%
X135077142Y-110037142D02*
X135029523Y-110084761D01*
X134886666Y-110132380D01*
X134791428Y-110132380D01*
X134648571Y-110084761D01*
X134553333Y-109989523D01*
X134505714Y-109894285D01*
X134458095Y-109703809D01*
X134458095Y-109560952D01*
X134505714Y-109370476D01*
X134553333Y-109275238D01*
X134648571Y-109180000D01*
X134791428Y-109132380D01*
X134886666Y-109132380D01*
X135029523Y-109180000D01*
X135077142Y-109227619D01*
X136029523Y-110132380D02*
X135458095Y-110132380D01*
X135743809Y-110132380D02*
X135743809Y-109132380D01*
X135648571Y-109275238D01*
X135553333Y-109370476D01*
X135458095Y-109418095D01*
X136410476Y-109227619D02*
X136458095Y-109180000D01*
X136553333Y-109132380D01*
X136791428Y-109132380D01*
X136886666Y-109180000D01*
X136934285Y-109227619D01*
X136981904Y-109322857D01*
X136981904Y-109418095D01*
X136934285Y-109560952D01*
X136362857Y-110132380D01*
X136981904Y-110132380D01*
%TO.C,C11*%
X115207142Y-110037142D02*
X115159523Y-110084761D01*
X115016666Y-110132380D01*
X114921428Y-110132380D01*
X114778571Y-110084761D01*
X114683333Y-109989523D01*
X114635714Y-109894285D01*
X114588095Y-109703809D01*
X114588095Y-109560952D01*
X114635714Y-109370476D01*
X114683333Y-109275238D01*
X114778571Y-109180000D01*
X114921428Y-109132380D01*
X115016666Y-109132380D01*
X115159523Y-109180000D01*
X115207142Y-109227619D01*
X116159523Y-110132380D02*
X115588095Y-110132380D01*
X115873809Y-110132380D02*
X115873809Y-109132380D01*
X115778571Y-109275238D01*
X115683333Y-109370476D01*
X115588095Y-109418095D01*
X117111904Y-110132380D02*
X116540476Y-110132380D01*
X116826190Y-110132380D02*
X116826190Y-109132380D01*
X116730952Y-109275238D01*
X116635714Y-109370476D01*
X116540476Y-109418095D01*
%TO.C,C10*%
X195167142Y-91147142D02*
X195119523Y-91194761D01*
X194976666Y-91242380D01*
X194881428Y-91242380D01*
X194738571Y-91194761D01*
X194643333Y-91099523D01*
X194595714Y-91004285D01*
X194548095Y-90813809D01*
X194548095Y-90670952D01*
X194595714Y-90480476D01*
X194643333Y-90385238D01*
X194738571Y-90290000D01*
X194881428Y-90242380D01*
X194976666Y-90242380D01*
X195119523Y-90290000D01*
X195167142Y-90337619D01*
X196119523Y-91242380D02*
X195548095Y-91242380D01*
X195833809Y-91242380D02*
X195833809Y-90242380D01*
X195738571Y-90385238D01*
X195643333Y-90480476D01*
X195548095Y-90528095D01*
X196738571Y-90242380D02*
X196833809Y-90242380D01*
X196929047Y-90290000D01*
X196976666Y-90337619D01*
X197024285Y-90432857D01*
X197071904Y-90623333D01*
X197071904Y-90861428D01*
X197024285Y-91051904D01*
X196976666Y-91147142D01*
X196929047Y-91194761D01*
X196833809Y-91242380D01*
X196738571Y-91242380D01*
X196643333Y-91194761D01*
X196595714Y-91147142D01*
X196548095Y-91051904D01*
X196500476Y-90861428D01*
X196500476Y-90623333D01*
X196548095Y-90432857D01*
X196595714Y-90337619D01*
X196643333Y-90290000D01*
X196738571Y-90242380D01*
%TO.C,C9*%
X175223333Y-91217142D02*
X175175714Y-91264761D01*
X175032857Y-91312380D01*
X174937619Y-91312380D01*
X174794761Y-91264761D01*
X174699523Y-91169523D01*
X174651904Y-91074285D01*
X174604285Y-90883809D01*
X174604285Y-90740952D01*
X174651904Y-90550476D01*
X174699523Y-90455238D01*
X174794761Y-90360000D01*
X174937619Y-90312380D01*
X175032857Y-90312380D01*
X175175714Y-90360000D01*
X175223333Y-90407619D01*
X175699523Y-91312380D02*
X175890000Y-91312380D01*
X175985238Y-91264761D01*
X176032857Y-91217142D01*
X176128095Y-91074285D01*
X176175714Y-90883809D01*
X176175714Y-90502857D01*
X176128095Y-90407619D01*
X176080476Y-90360000D01*
X175985238Y-90312380D01*
X175794761Y-90312380D01*
X175699523Y-90360000D01*
X175651904Y-90407619D01*
X175604285Y-90502857D01*
X175604285Y-90740952D01*
X175651904Y-90836190D01*
X175699523Y-90883809D01*
X175794761Y-90931428D01*
X175985238Y-90931428D01*
X176080476Y-90883809D01*
X176128095Y-90836190D01*
X176175714Y-90740952D01*
%TO.C,C8*%
X155283333Y-91317142D02*
X155235714Y-91364761D01*
X155092857Y-91412380D01*
X154997619Y-91412380D01*
X154854761Y-91364761D01*
X154759523Y-91269523D01*
X154711904Y-91174285D01*
X154664285Y-90983809D01*
X154664285Y-90840952D01*
X154711904Y-90650476D01*
X154759523Y-90555238D01*
X154854761Y-90460000D01*
X154997619Y-90412380D01*
X155092857Y-90412380D01*
X155235714Y-90460000D01*
X155283333Y-90507619D01*
X155854761Y-90840952D02*
X155759523Y-90793333D01*
X155711904Y-90745714D01*
X155664285Y-90650476D01*
X155664285Y-90602857D01*
X155711904Y-90507619D01*
X155759523Y-90460000D01*
X155854761Y-90412380D01*
X156045238Y-90412380D01*
X156140476Y-90460000D01*
X156188095Y-90507619D01*
X156235714Y-90602857D01*
X156235714Y-90650476D01*
X156188095Y-90745714D01*
X156140476Y-90793333D01*
X156045238Y-90840952D01*
X155854761Y-90840952D01*
X155759523Y-90888571D01*
X155711904Y-90936190D01*
X155664285Y-91031428D01*
X155664285Y-91221904D01*
X155711904Y-91317142D01*
X155759523Y-91364761D01*
X155854761Y-91412380D01*
X156045238Y-91412380D01*
X156140476Y-91364761D01*
X156188095Y-91317142D01*
X156235714Y-91221904D01*
X156235714Y-91031428D01*
X156188095Y-90936190D01*
X156140476Y-90888571D01*
X156045238Y-90840952D01*
%TO.C,C7*%
X135133333Y-91317142D02*
X135085714Y-91364761D01*
X134942857Y-91412380D01*
X134847619Y-91412380D01*
X134704761Y-91364761D01*
X134609523Y-91269523D01*
X134561904Y-91174285D01*
X134514285Y-90983809D01*
X134514285Y-90840952D01*
X134561904Y-90650476D01*
X134609523Y-90555238D01*
X134704761Y-90460000D01*
X134847619Y-90412380D01*
X134942857Y-90412380D01*
X135085714Y-90460000D01*
X135133333Y-90507619D01*
X135466666Y-90412380D02*
X136133333Y-90412380D01*
X135704761Y-91412380D01*
%TO.C,C6*%
X115133333Y-91187142D02*
X115085714Y-91234761D01*
X114942857Y-91282380D01*
X114847619Y-91282380D01*
X114704761Y-91234761D01*
X114609523Y-91139523D01*
X114561904Y-91044285D01*
X114514285Y-90853809D01*
X114514285Y-90710952D01*
X114561904Y-90520476D01*
X114609523Y-90425238D01*
X114704761Y-90330000D01*
X114847619Y-90282380D01*
X114942857Y-90282380D01*
X115085714Y-90330000D01*
X115133333Y-90377619D01*
X115990476Y-90282380D02*
X115800000Y-90282380D01*
X115704761Y-90330000D01*
X115657142Y-90377619D01*
X115561904Y-90520476D01*
X115514285Y-90710952D01*
X115514285Y-91091904D01*
X115561904Y-91187142D01*
X115609523Y-91234761D01*
X115704761Y-91282380D01*
X115895238Y-91282380D01*
X115990476Y-91234761D01*
X116038095Y-91187142D01*
X116085714Y-91091904D01*
X116085714Y-90853809D01*
X116038095Y-90758571D01*
X115990476Y-90710952D01*
X115895238Y-90663333D01*
X115704761Y-90663333D01*
X115609523Y-90710952D01*
X115561904Y-90758571D01*
X115514285Y-90853809D01*
%TO.C,C5*%
X195443333Y-71227142D02*
X195395714Y-71274761D01*
X195252857Y-71322380D01*
X195157619Y-71322380D01*
X195014761Y-71274761D01*
X194919523Y-71179523D01*
X194871904Y-71084285D01*
X194824285Y-70893809D01*
X194824285Y-70750952D01*
X194871904Y-70560476D01*
X194919523Y-70465238D01*
X195014761Y-70370000D01*
X195157619Y-70322380D01*
X195252857Y-70322380D01*
X195395714Y-70370000D01*
X195443333Y-70417619D01*
X196348095Y-70322380D02*
X195871904Y-70322380D01*
X195824285Y-70798571D01*
X195871904Y-70750952D01*
X195967142Y-70703333D01*
X196205238Y-70703333D01*
X196300476Y-70750952D01*
X196348095Y-70798571D01*
X196395714Y-70893809D01*
X196395714Y-71131904D01*
X196348095Y-71227142D01*
X196300476Y-71274761D01*
X196205238Y-71322380D01*
X195967142Y-71322380D01*
X195871904Y-71274761D01*
X195824285Y-71227142D01*
%TO.C,C4*%
X175513333Y-71527142D02*
X175465714Y-71574761D01*
X175322857Y-71622380D01*
X175227619Y-71622380D01*
X175084761Y-71574761D01*
X174989523Y-71479523D01*
X174941904Y-71384285D01*
X174894285Y-71193809D01*
X174894285Y-71050952D01*
X174941904Y-70860476D01*
X174989523Y-70765238D01*
X175084761Y-70670000D01*
X175227619Y-70622380D01*
X175322857Y-70622380D01*
X175465714Y-70670000D01*
X175513333Y-70717619D01*
X176370476Y-70955714D02*
X176370476Y-71622380D01*
X176132380Y-70574761D02*
X175894285Y-71289047D01*
X176513333Y-71289047D01*
%TO.C,C3*%
X155193333Y-71447142D02*
X155145714Y-71494761D01*
X155002857Y-71542380D01*
X154907619Y-71542380D01*
X154764761Y-71494761D01*
X154669523Y-71399523D01*
X154621904Y-71304285D01*
X154574285Y-71113809D01*
X154574285Y-70970952D01*
X154621904Y-70780476D01*
X154669523Y-70685238D01*
X154764761Y-70590000D01*
X154907619Y-70542380D01*
X155002857Y-70542380D01*
X155145714Y-70590000D01*
X155193333Y-70637619D01*
X155526666Y-70542380D02*
X156145714Y-70542380D01*
X155812380Y-70923333D01*
X155955238Y-70923333D01*
X156050476Y-70970952D01*
X156098095Y-71018571D01*
X156145714Y-71113809D01*
X156145714Y-71351904D01*
X156098095Y-71447142D01*
X156050476Y-71494761D01*
X155955238Y-71542380D01*
X155669523Y-71542380D01*
X155574285Y-71494761D01*
X155526666Y-71447142D01*
%TO.C,C2*%
X135193333Y-71487142D02*
X135145714Y-71534761D01*
X135002857Y-71582380D01*
X134907619Y-71582380D01*
X134764761Y-71534761D01*
X134669523Y-71439523D01*
X134621904Y-71344285D01*
X134574285Y-71153809D01*
X134574285Y-71010952D01*
X134621904Y-70820476D01*
X134669523Y-70725238D01*
X134764761Y-70630000D01*
X134907619Y-70582380D01*
X135002857Y-70582380D01*
X135145714Y-70630000D01*
X135193333Y-70677619D01*
X135574285Y-70677619D02*
X135621904Y-70630000D01*
X135717142Y-70582380D01*
X135955238Y-70582380D01*
X136050476Y-70630000D01*
X136098095Y-70677619D01*
X136145714Y-70772857D01*
X136145714Y-70868095D01*
X136098095Y-71010952D01*
X135526666Y-71582380D01*
X136145714Y-71582380D01*
%TO.C,C1*%
X115273333Y-71427142D02*
X115225714Y-71474761D01*
X115082857Y-71522380D01*
X114987619Y-71522380D01*
X114844761Y-71474761D01*
X114749523Y-71379523D01*
X114701904Y-71284285D01*
X114654285Y-71093809D01*
X114654285Y-70950952D01*
X114701904Y-70760476D01*
X114749523Y-70665238D01*
X114844761Y-70570000D01*
X114987619Y-70522380D01*
X115082857Y-70522380D01*
X115225714Y-70570000D01*
X115273333Y-70617619D01*
X116225714Y-71522380D02*
X115654285Y-71522380D01*
X115940000Y-71522380D02*
X115940000Y-70522380D01*
X115844761Y-70665238D01*
X115749523Y-70760476D01*
X115654285Y-70808095D01*
%TD*%
M02*
