M48
; DRILL file {KiCad (5.1.8)-1} date 11/07/21 18:09:02
; FORMAT={-:-/ absolute / inch / decimal}
; #@! TF.CreationDate,2021-11-07T18:09:02-05:00
; #@! TF.GenerationSoftware,Kicad,Pcbnew,(5.1.8)-1
; #@! TF.FileFunction,Plated,1,2,PTH
FMAT,2
INCH
T1C0.0157
T2C0.0374
T3C0.0551
T4C0.0591
%
G90
G05
T1
X4.5413Y-3.7783
X4.5421Y-3.0193
X4.5421Y-4.5323
X5.3295Y-3.7843
X5.3295Y-4.5374
X5.3299Y-3.0173
X6.1173Y-3.0197
X6.1173Y-3.7823
X6.9043Y-3.0173
X6.9051Y-3.7827
X6.9051Y-4.5323
X7.6925Y-3.0189
X7.6929Y-3.7874
X7.6933Y-4.5354
X8.2472Y-3.8961
T2
X7.4606Y-2.5984
X7.5591Y-2.5984
X7.6575Y-2.5984
X7.7559Y-2.5984
X5.0197Y-2.5984
X5.1181Y-2.5984
X5.2165Y-2.5984
X5.315Y-2.5984
X4.4291Y-2.5984
X4.5276Y-2.5984
X4.626Y-2.5984
X4.7244Y-2.5984
X6.8701Y-2.5984
X6.9685Y-2.5984
X7.0669Y-2.5984
X7.1654Y-2.5984
T3
X8.189Y-3.0437
X8.189Y-3.2287
X8.189Y-3.4138
T4
X7.2303Y-3.1815
X7.2303Y-3.3815
X7.7303Y-3.1815
X7.7303Y-3.3815
X7.2303Y-3.9295
X7.2303Y-4.1295
X7.7303Y-3.9295
X7.7303Y-4.1295
X6.4429Y-3.9295
X6.4429Y-4.1295
X6.9429Y-3.9295
X6.9429Y-4.1295
X4.0807Y-3.1815
X4.0807Y-3.3815
X4.5807Y-3.1815
X4.5807Y-3.3815
X6.4429Y-4.6776
X6.4429Y-4.8776
X6.9429Y-4.6776
X6.9429Y-4.8776
X4.0807Y-3.9295
X4.0807Y-4.1295
X4.5807Y-3.9295
X4.5807Y-4.1295
X4.8681Y-4.6776
X4.8681Y-4.8776
X5.3681Y-4.6776
X5.3681Y-4.8776
X7.2303Y-4.6776
X7.2303Y-4.8776
X7.7303Y-4.6776
X7.7303Y-4.8776
X4.8681Y-3.9295
X4.8681Y-4.1295
X5.3681Y-3.9295
X5.3681Y-4.1295
X4.8681Y-3.1815
X4.8681Y-3.3815
X5.3681Y-3.1815
X5.3681Y-3.3815
X5.6555Y-3.1815
X5.6555Y-3.3815
X6.1555Y-3.1815
X6.1555Y-3.3815
X5.6555Y-3.9295
X5.6555Y-4.1295
X6.1555Y-3.9295
X6.1555Y-4.1295
X6.4429Y-3.1815
X6.4429Y-3.3815
X6.9429Y-3.1815
X6.9429Y-3.3815
X4.0807Y-4.6776
X4.0807Y-4.8776
X4.5807Y-4.6776
X4.5807Y-4.8776
T0
M30
