%TF.GenerationSoftware,KiCad,Pcbnew,(5.1.8)-1*%
%TF.CreationDate,2021-11-07T18:09:00-05:00*%
%TF.ProjectId,Control_pad,436f6e74-726f-46c5-9f70-61642e6b6963,rev?*%
%TF.SameCoordinates,Original*%
%TF.FileFunction,Legend,Bot*%
%TF.FilePolarity,Positive*%
%FSLAX46Y46*%
G04 Gerber Fmt 4.6, Leading zero omitted, Abs format (unit mm)*
G04 Created by KiCad (PCBNEW (5.1.8)-1) date 2021-11-07 18:09:00*
%MOMM*%
%LPD*%
G01*
G04 APERTURE LIST*
%ADD10C,0.120000*%
%ADD11C,0.150000*%
G04 APERTURE END LIST*
D10*
%TO.C,R26*%
X192167064Y-119545000D02*
X191712936Y-119545000D01*
X192167064Y-118075000D02*
X191712936Y-118075000D01*
%TO.C,R25*%
X171997064Y-119545000D02*
X171542936Y-119545000D01*
X171997064Y-118075000D02*
X171542936Y-118075000D01*
%TO.C,R24*%
X131617064Y-119545000D02*
X131162936Y-119545000D01*
X131617064Y-118075000D02*
X131162936Y-118075000D01*
%TO.C,R19*%
X111427064Y-119545000D02*
X110972936Y-119545000D01*
X111427064Y-118075000D02*
X110972936Y-118075000D01*
%TO.C,R18*%
X192187064Y-100545000D02*
X191732936Y-100545000D01*
X192187064Y-99075000D02*
X191732936Y-99075000D01*
%TO.C,R17*%
X171997064Y-100545000D02*
X171542936Y-100545000D01*
X171997064Y-99075000D02*
X171542936Y-99075000D01*
%TO.C,R16*%
X151807064Y-100545000D02*
X151352936Y-100545000D01*
X151807064Y-99075000D02*
X151352936Y-99075000D01*
%TO.C,R10*%
X131617064Y-100545000D02*
X131162936Y-100545000D01*
X131617064Y-99075000D02*
X131162936Y-99075000D01*
%TO.C,R9*%
X111417064Y-100545000D02*
X110962936Y-100545000D01*
X111417064Y-99075000D02*
X110962936Y-99075000D01*
%TO.C,R8*%
X192187064Y-81545000D02*
X191732936Y-81545000D01*
X192187064Y-80075000D02*
X191732936Y-80075000D01*
%TO.C,R7*%
X171997064Y-81545000D02*
X171542936Y-81545000D01*
X171997064Y-80075000D02*
X171542936Y-80075000D01*
%TO.C,R3*%
X151807064Y-81545000D02*
X151352936Y-81545000D01*
X151807064Y-80075000D02*
X151352936Y-80075000D01*
%TO.C,R2*%
X131617064Y-81545000D02*
X131162936Y-81545000D01*
X131617064Y-80075000D02*
X131162936Y-80075000D01*
%TO.C,R1*%
X111427064Y-81545000D02*
X110972936Y-81545000D01*
X111427064Y-80075000D02*
X110972936Y-80075000D01*
%TO.C,R26*%
D11*
X192582857Y-117612380D02*
X192916190Y-117136190D01*
X193154285Y-117612380D02*
X193154285Y-116612380D01*
X192773333Y-116612380D01*
X192678095Y-116660000D01*
X192630476Y-116707619D01*
X192582857Y-116802857D01*
X192582857Y-116945714D01*
X192630476Y-117040952D01*
X192678095Y-117088571D01*
X192773333Y-117136190D01*
X193154285Y-117136190D01*
X192201904Y-116707619D02*
X192154285Y-116660000D01*
X192059047Y-116612380D01*
X191820952Y-116612380D01*
X191725714Y-116660000D01*
X191678095Y-116707619D01*
X191630476Y-116802857D01*
X191630476Y-116898095D01*
X191678095Y-117040952D01*
X192249523Y-117612380D01*
X191630476Y-117612380D01*
X190773333Y-116612380D02*
X190963809Y-116612380D01*
X191059047Y-116660000D01*
X191106666Y-116707619D01*
X191201904Y-116850476D01*
X191249523Y-117040952D01*
X191249523Y-117421904D01*
X191201904Y-117517142D01*
X191154285Y-117564761D01*
X191059047Y-117612380D01*
X190868571Y-117612380D01*
X190773333Y-117564761D01*
X190725714Y-117517142D01*
X190678095Y-117421904D01*
X190678095Y-117183809D01*
X190725714Y-117088571D01*
X190773333Y-117040952D01*
X190868571Y-116993333D01*
X191059047Y-116993333D01*
X191154285Y-117040952D01*
X191201904Y-117088571D01*
X191249523Y-117183809D01*
%TO.C,R25*%
X172412857Y-117612380D02*
X172746190Y-117136190D01*
X172984285Y-117612380D02*
X172984285Y-116612380D01*
X172603333Y-116612380D01*
X172508095Y-116660000D01*
X172460476Y-116707619D01*
X172412857Y-116802857D01*
X172412857Y-116945714D01*
X172460476Y-117040952D01*
X172508095Y-117088571D01*
X172603333Y-117136190D01*
X172984285Y-117136190D01*
X172031904Y-116707619D02*
X171984285Y-116660000D01*
X171889047Y-116612380D01*
X171650952Y-116612380D01*
X171555714Y-116660000D01*
X171508095Y-116707619D01*
X171460476Y-116802857D01*
X171460476Y-116898095D01*
X171508095Y-117040952D01*
X172079523Y-117612380D01*
X171460476Y-117612380D01*
X170555714Y-116612380D02*
X171031904Y-116612380D01*
X171079523Y-117088571D01*
X171031904Y-117040952D01*
X170936666Y-116993333D01*
X170698571Y-116993333D01*
X170603333Y-117040952D01*
X170555714Y-117088571D01*
X170508095Y-117183809D01*
X170508095Y-117421904D01*
X170555714Y-117517142D01*
X170603333Y-117564761D01*
X170698571Y-117612380D01*
X170936666Y-117612380D01*
X171031904Y-117564761D01*
X171079523Y-117517142D01*
%TO.C,R24*%
X132032857Y-117612380D02*
X132366190Y-117136190D01*
X132604285Y-117612380D02*
X132604285Y-116612380D01*
X132223333Y-116612380D01*
X132128095Y-116660000D01*
X132080476Y-116707619D01*
X132032857Y-116802857D01*
X132032857Y-116945714D01*
X132080476Y-117040952D01*
X132128095Y-117088571D01*
X132223333Y-117136190D01*
X132604285Y-117136190D01*
X131651904Y-116707619D02*
X131604285Y-116660000D01*
X131509047Y-116612380D01*
X131270952Y-116612380D01*
X131175714Y-116660000D01*
X131128095Y-116707619D01*
X131080476Y-116802857D01*
X131080476Y-116898095D01*
X131128095Y-117040952D01*
X131699523Y-117612380D01*
X131080476Y-117612380D01*
X130223333Y-116945714D02*
X130223333Y-117612380D01*
X130461428Y-116564761D02*
X130699523Y-117279047D01*
X130080476Y-117279047D01*
%TO.C,R19*%
X111842857Y-117612380D02*
X112176190Y-117136190D01*
X112414285Y-117612380D02*
X112414285Y-116612380D01*
X112033333Y-116612380D01*
X111938095Y-116660000D01*
X111890476Y-116707619D01*
X111842857Y-116802857D01*
X111842857Y-116945714D01*
X111890476Y-117040952D01*
X111938095Y-117088571D01*
X112033333Y-117136190D01*
X112414285Y-117136190D01*
X110890476Y-117612380D02*
X111461904Y-117612380D01*
X111176190Y-117612380D02*
X111176190Y-116612380D01*
X111271428Y-116755238D01*
X111366666Y-116850476D01*
X111461904Y-116898095D01*
X110414285Y-117612380D02*
X110223809Y-117612380D01*
X110128571Y-117564761D01*
X110080952Y-117517142D01*
X109985714Y-117374285D01*
X109938095Y-117183809D01*
X109938095Y-116802857D01*
X109985714Y-116707619D01*
X110033333Y-116660000D01*
X110128571Y-116612380D01*
X110319047Y-116612380D01*
X110414285Y-116660000D01*
X110461904Y-116707619D01*
X110509523Y-116802857D01*
X110509523Y-117040952D01*
X110461904Y-117136190D01*
X110414285Y-117183809D01*
X110319047Y-117231428D01*
X110128571Y-117231428D01*
X110033333Y-117183809D01*
X109985714Y-117136190D01*
X109938095Y-117040952D01*
%TO.C,R18*%
X192602857Y-98612380D02*
X192936190Y-98136190D01*
X193174285Y-98612380D02*
X193174285Y-97612380D01*
X192793333Y-97612380D01*
X192698095Y-97660000D01*
X192650476Y-97707619D01*
X192602857Y-97802857D01*
X192602857Y-97945714D01*
X192650476Y-98040952D01*
X192698095Y-98088571D01*
X192793333Y-98136190D01*
X193174285Y-98136190D01*
X191650476Y-98612380D02*
X192221904Y-98612380D01*
X191936190Y-98612380D02*
X191936190Y-97612380D01*
X192031428Y-97755238D01*
X192126666Y-97850476D01*
X192221904Y-97898095D01*
X191079047Y-98040952D02*
X191174285Y-97993333D01*
X191221904Y-97945714D01*
X191269523Y-97850476D01*
X191269523Y-97802857D01*
X191221904Y-97707619D01*
X191174285Y-97660000D01*
X191079047Y-97612380D01*
X190888571Y-97612380D01*
X190793333Y-97660000D01*
X190745714Y-97707619D01*
X190698095Y-97802857D01*
X190698095Y-97850476D01*
X190745714Y-97945714D01*
X190793333Y-97993333D01*
X190888571Y-98040952D01*
X191079047Y-98040952D01*
X191174285Y-98088571D01*
X191221904Y-98136190D01*
X191269523Y-98231428D01*
X191269523Y-98421904D01*
X191221904Y-98517142D01*
X191174285Y-98564761D01*
X191079047Y-98612380D01*
X190888571Y-98612380D01*
X190793333Y-98564761D01*
X190745714Y-98517142D01*
X190698095Y-98421904D01*
X190698095Y-98231428D01*
X190745714Y-98136190D01*
X190793333Y-98088571D01*
X190888571Y-98040952D01*
%TO.C,R17*%
X172412857Y-98612380D02*
X172746190Y-98136190D01*
X172984285Y-98612380D02*
X172984285Y-97612380D01*
X172603333Y-97612380D01*
X172508095Y-97660000D01*
X172460476Y-97707619D01*
X172412857Y-97802857D01*
X172412857Y-97945714D01*
X172460476Y-98040952D01*
X172508095Y-98088571D01*
X172603333Y-98136190D01*
X172984285Y-98136190D01*
X171460476Y-98612380D02*
X172031904Y-98612380D01*
X171746190Y-98612380D02*
X171746190Y-97612380D01*
X171841428Y-97755238D01*
X171936666Y-97850476D01*
X172031904Y-97898095D01*
X171127142Y-97612380D02*
X170460476Y-97612380D01*
X170889047Y-98612380D01*
%TO.C,R16*%
X152222857Y-98612380D02*
X152556190Y-98136190D01*
X152794285Y-98612380D02*
X152794285Y-97612380D01*
X152413333Y-97612380D01*
X152318095Y-97660000D01*
X152270476Y-97707619D01*
X152222857Y-97802857D01*
X152222857Y-97945714D01*
X152270476Y-98040952D01*
X152318095Y-98088571D01*
X152413333Y-98136190D01*
X152794285Y-98136190D01*
X151270476Y-98612380D02*
X151841904Y-98612380D01*
X151556190Y-98612380D02*
X151556190Y-97612380D01*
X151651428Y-97755238D01*
X151746666Y-97850476D01*
X151841904Y-97898095D01*
X150413333Y-97612380D02*
X150603809Y-97612380D01*
X150699047Y-97660000D01*
X150746666Y-97707619D01*
X150841904Y-97850476D01*
X150889523Y-98040952D01*
X150889523Y-98421904D01*
X150841904Y-98517142D01*
X150794285Y-98564761D01*
X150699047Y-98612380D01*
X150508571Y-98612380D01*
X150413333Y-98564761D01*
X150365714Y-98517142D01*
X150318095Y-98421904D01*
X150318095Y-98183809D01*
X150365714Y-98088571D01*
X150413333Y-98040952D01*
X150508571Y-97993333D01*
X150699047Y-97993333D01*
X150794285Y-98040952D01*
X150841904Y-98088571D01*
X150889523Y-98183809D01*
%TO.C,R10*%
X132032857Y-98612380D02*
X132366190Y-98136190D01*
X132604285Y-98612380D02*
X132604285Y-97612380D01*
X132223333Y-97612380D01*
X132128095Y-97660000D01*
X132080476Y-97707619D01*
X132032857Y-97802857D01*
X132032857Y-97945714D01*
X132080476Y-98040952D01*
X132128095Y-98088571D01*
X132223333Y-98136190D01*
X132604285Y-98136190D01*
X131080476Y-98612380D02*
X131651904Y-98612380D01*
X131366190Y-98612380D02*
X131366190Y-97612380D01*
X131461428Y-97755238D01*
X131556666Y-97850476D01*
X131651904Y-97898095D01*
X130461428Y-97612380D02*
X130366190Y-97612380D01*
X130270952Y-97660000D01*
X130223333Y-97707619D01*
X130175714Y-97802857D01*
X130128095Y-97993333D01*
X130128095Y-98231428D01*
X130175714Y-98421904D01*
X130223333Y-98517142D01*
X130270952Y-98564761D01*
X130366190Y-98612380D01*
X130461428Y-98612380D01*
X130556666Y-98564761D01*
X130604285Y-98517142D01*
X130651904Y-98421904D01*
X130699523Y-98231428D01*
X130699523Y-97993333D01*
X130651904Y-97802857D01*
X130604285Y-97707619D01*
X130556666Y-97660000D01*
X130461428Y-97612380D01*
%TO.C,R9*%
X111356666Y-98612380D02*
X111690000Y-98136190D01*
X111928095Y-98612380D02*
X111928095Y-97612380D01*
X111547142Y-97612380D01*
X111451904Y-97660000D01*
X111404285Y-97707619D01*
X111356666Y-97802857D01*
X111356666Y-97945714D01*
X111404285Y-98040952D01*
X111451904Y-98088571D01*
X111547142Y-98136190D01*
X111928095Y-98136190D01*
X110880476Y-98612380D02*
X110690000Y-98612380D01*
X110594761Y-98564761D01*
X110547142Y-98517142D01*
X110451904Y-98374285D01*
X110404285Y-98183809D01*
X110404285Y-97802857D01*
X110451904Y-97707619D01*
X110499523Y-97660000D01*
X110594761Y-97612380D01*
X110785238Y-97612380D01*
X110880476Y-97660000D01*
X110928095Y-97707619D01*
X110975714Y-97802857D01*
X110975714Y-98040952D01*
X110928095Y-98136190D01*
X110880476Y-98183809D01*
X110785238Y-98231428D01*
X110594761Y-98231428D01*
X110499523Y-98183809D01*
X110451904Y-98136190D01*
X110404285Y-98040952D01*
%TO.C,R8*%
X192126666Y-79612380D02*
X192460000Y-79136190D01*
X192698095Y-79612380D02*
X192698095Y-78612380D01*
X192317142Y-78612380D01*
X192221904Y-78660000D01*
X192174285Y-78707619D01*
X192126666Y-78802857D01*
X192126666Y-78945714D01*
X192174285Y-79040952D01*
X192221904Y-79088571D01*
X192317142Y-79136190D01*
X192698095Y-79136190D01*
X191555238Y-79040952D02*
X191650476Y-78993333D01*
X191698095Y-78945714D01*
X191745714Y-78850476D01*
X191745714Y-78802857D01*
X191698095Y-78707619D01*
X191650476Y-78660000D01*
X191555238Y-78612380D01*
X191364761Y-78612380D01*
X191269523Y-78660000D01*
X191221904Y-78707619D01*
X191174285Y-78802857D01*
X191174285Y-78850476D01*
X191221904Y-78945714D01*
X191269523Y-78993333D01*
X191364761Y-79040952D01*
X191555238Y-79040952D01*
X191650476Y-79088571D01*
X191698095Y-79136190D01*
X191745714Y-79231428D01*
X191745714Y-79421904D01*
X191698095Y-79517142D01*
X191650476Y-79564761D01*
X191555238Y-79612380D01*
X191364761Y-79612380D01*
X191269523Y-79564761D01*
X191221904Y-79517142D01*
X191174285Y-79421904D01*
X191174285Y-79231428D01*
X191221904Y-79136190D01*
X191269523Y-79088571D01*
X191364761Y-79040952D01*
%TO.C,R7*%
X171936666Y-79612380D02*
X172270000Y-79136190D01*
X172508095Y-79612380D02*
X172508095Y-78612380D01*
X172127142Y-78612380D01*
X172031904Y-78660000D01*
X171984285Y-78707619D01*
X171936666Y-78802857D01*
X171936666Y-78945714D01*
X171984285Y-79040952D01*
X172031904Y-79088571D01*
X172127142Y-79136190D01*
X172508095Y-79136190D01*
X171603333Y-78612380D02*
X170936666Y-78612380D01*
X171365238Y-79612380D01*
%TO.C,R3*%
X151746666Y-79612380D02*
X152080000Y-79136190D01*
X152318095Y-79612380D02*
X152318095Y-78612380D01*
X151937142Y-78612380D01*
X151841904Y-78660000D01*
X151794285Y-78707619D01*
X151746666Y-78802857D01*
X151746666Y-78945714D01*
X151794285Y-79040952D01*
X151841904Y-79088571D01*
X151937142Y-79136190D01*
X152318095Y-79136190D01*
X151413333Y-78612380D02*
X150794285Y-78612380D01*
X151127619Y-78993333D01*
X150984761Y-78993333D01*
X150889523Y-79040952D01*
X150841904Y-79088571D01*
X150794285Y-79183809D01*
X150794285Y-79421904D01*
X150841904Y-79517142D01*
X150889523Y-79564761D01*
X150984761Y-79612380D01*
X151270476Y-79612380D01*
X151365714Y-79564761D01*
X151413333Y-79517142D01*
%TO.C,R2*%
X131556666Y-79612380D02*
X131890000Y-79136190D01*
X132128095Y-79612380D02*
X132128095Y-78612380D01*
X131747142Y-78612380D01*
X131651904Y-78660000D01*
X131604285Y-78707619D01*
X131556666Y-78802857D01*
X131556666Y-78945714D01*
X131604285Y-79040952D01*
X131651904Y-79088571D01*
X131747142Y-79136190D01*
X132128095Y-79136190D01*
X131175714Y-78707619D02*
X131128095Y-78660000D01*
X131032857Y-78612380D01*
X130794761Y-78612380D01*
X130699523Y-78660000D01*
X130651904Y-78707619D01*
X130604285Y-78802857D01*
X130604285Y-78898095D01*
X130651904Y-79040952D01*
X131223333Y-79612380D01*
X130604285Y-79612380D01*
%TO.C,R1*%
X111366666Y-79612380D02*
X111700000Y-79136190D01*
X111938095Y-79612380D02*
X111938095Y-78612380D01*
X111557142Y-78612380D01*
X111461904Y-78660000D01*
X111414285Y-78707619D01*
X111366666Y-78802857D01*
X111366666Y-78945714D01*
X111414285Y-79040952D01*
X111461904Y-79088571D01*
X111557142Y-79136190D01*
X111938095Y-79136190D01*
X110414285Y-79612380D02*
X110985714Y-79612380D01*
X110700000Y-79612380D02*
X110700000Y-78612380D01*
X110795238Y-78755238D01*
X110890476Y-78850476D01*
X110985714Y-78898095D01*
%TD*%
M02*
