%TF.GenerationSoftware,KiCad,Pcbnew,(5.1.8)-1*%
%TF.CreationDate,2021-11-07T18:09:00-05:00*%
%TF.ProjectId,Control_pad,436f6e74-726f-46c5-9f70-61642e6b6963,rev?*%
%TF.SameCoordinates,Original*%
%TF.FileFunction,Paste,Bot*%
%TF.FilePolarity,Positive*%
%FSLAX46Y46*%
G04 Gerber Fmt 4.6, Leading zero omitted, Abs format (unit mm)*
G04 Created by KiCad (PCBNEW (5.1.8)-1) date 2021-11-07 18:09:00*
%MOMM*%
%LPD*%
G01*
G04 APERTURE LIST*
G04 APERTURE END LIST*
%TO.C,R26*%
G36*
G01*
X191540000Y-118359999D02*
X191540000Y-119260001D01*
G75*
G02*
X191290001Y-119510000I-249999J0D01*
G01*
X190589999Y-119510000D01*
G75*
G02*
X190340000Y-119260001I0J249999D01*
G01*
X190340000Y-118359999D01*
G75*
G02*
X190589999Y-118110000I249999J0D01*
G01*
X191290001Y-118110000D01*
G75*
G02*
X191540000Y-118359999I0J-249999D01*
G01*
G37*
G36*
G01*
X193540000Y-118359999D02*
X193540000Y-119260001D01*
G75*
G02*
X193290001Y-119510000I-249999J0D01*
G01*
X192589999Y-119510000D01*
G75*
G02*
X192340000Y-119260001I0J249999D01*
G01*
X192340000Y-118359999D01*
G75*
G02*
X192589999Y-118110000I249999J0D01*
G01*
X193290001Y-118110000D01*
G75*
G02*
X193540000Y-118359999I0J-249999D01*
G01*
G37*
%TD*%
%TO.C,R25*%
G36*
G01*
X171370000Y-118359999D02*
X171370000Y-119260001D01*
G75*
G02*
X171120001Y-119510000I-249999J0D01*
G01*
X170419999Y-119510000D01*
G75*
G02*
X170170000Y-119260001I0J249999D01*
G01*
X170170000Y-118359999D01*
G75*
G02*
X170419999Y-118110000I249999J0D01*
G01*
X171120001Y-118110000D01*
G75*
G02*
X171370000Y-118359999I0J-249999D01*
G01*
G37*
G36*
G01*
X173370000Y-118359999D02*
X173370000Y-119260001D01*
G75*
G02*
X173120001Y-119510000I-249999J0D01*
G01*
X172419999Y-119510000D01*
G75*
G02*
X172170000Y-119260001I0J249999D01*
G01*
X172170000Y-118359999D01*
G75*
G02*
X172419999Y-118110000I249999J0D01*
G01*
X173120001Y-118110000D01*
G75*
G02*
X173370000Y-118359999I0J-249999D01*
G01*
G37*
%TD*%
%TO.C,R24*%
G36*
G01*
X130990000Y-118359999D02*
X130990000Y-119260001D01*
G75*
G02*
X130740001Y-119510000I-249999J0D01*
G01*
X130039999Y-119510000D01*
G75*
G02*
X129790000Y-119260001I0J249999D01*
G01*
X129790000Y-118359999D01*
G75*
G02*
X130039999Y-118110000I249999J0D01*
G01*
X130740001Y-118110000D01*
G75*
G02*
X130990000Y-118359999I0J-249999D01*
G01*
G37*
G36*
G01*
X132990000Y-118359999D02*
X132990000Y-119260001D01*
G75*
G02*
X132740001Y-119510000I-249999J0D01*
G01*
X132039999Y-119510000D01*
G75*
G02*
X131790000Y-119260001I0J249999D01*
G01*
X131790000Y-118359999D01*
G75*
G02*
X132039999Y-118110000I249999J0D01*
G01*
X132740001Y-118110000D01*
G75*
G02*
X132990000Y-118359999I0J-249999D01*
G01*
G37*
%TD*%
%TO.C,R19*%
G36*
G01*
X110800000Y-118359999D02*
X110800000Y-119260001D01*
G75*
G02*
X110550001Y-119510000I-249999J0D01*
G01*
X109849999Y-119510000D01*
G75*
G02*
X109600000Y-119260001I0J249999D01*
G01*
X109600000Y-118359999D01*
G75*
G02*
X109849999Y-118110000I249999J0D01*
G01*
X110550001Y-118110000D01*
G75*
G02*
X110800000Y-118359999I0J-249999D01*
G01*
G37*
G36*
G01*
X112800000Y-118359999D02*
X112800000Y-119260001D01*
G75*
G02*
X112550001Y-119510000I-249999J0D01*
G01*
X111849999Y-119510000D01*
G75*
G02*
X111600000Y-119260001I0J249999D01*
G01*
X111600000Y-118359999D01*
G75*
G02*
X111849999Y-118110000I249999J0D01*
G01*
X112550001Y-118110000D01*
G75*
G02*
X112800000Y-118359999I0J-249999D01*
G01*
G37*
%TD*%
%TO.C,R18*%
G36*
G01*
X191560000Y-99359999D02*
X191560000Y-100260001D01*
G75*
G02*
X191310001Y-100510000I-249999J0D01*
G01*
X190609999Y-100510000D01*
G75*
G02*
X190360000Y-100260001I0J249999D01*
G01*
X190360000Y-99359999D01*
G75*
G02*
X190609999Y-99110000I249999J0D01*
G01*
X191310001Y-99110000D01*
G75*
G02*
X191560000Y-99359999I0J-249999D01*
G01*
G37*
G36*
G01*
X193560000Y-99359999D02*
X193560000Y-100260001D01*
G75*
G02*
X193310001Y-100510000I-249999J0D01*
G01*
X192609999Y-100510000D01*
G75*
G02*
X192360000Y-100260001I0J249999D01*
G01*
X192360000Y-99359999D01*
G75*
G02*
X192609999Y-99110000I249999J0D01*
G01*
X193310001Y-99110000D01*
G75*
G02*
X193560000Y-99359999I0J-249999D01*
G01*
G37*
%TD*%
%TO.C,R17*%
G36*
G01*
X171370000Y-99359999D02*
X171370000Y-100260001D01*
G75*
G02*
X171120001Y-100510000I-249999J0D01*
G01*
X170419999Y-100510000D01*
G75*
G02*
X170170000Y-100260001I0J249999D01*
G01*
X170170000Y-99359999D01*
G75*
G02*
X170419999Y-99110000I249999J0D01*
G01*
X171120001Y-99110000D01*
G75*
G02*
X171370000Y-99359999I0J-249999D01*
G01*
G37*
G36*
G01*
X173370000Y-99359999D02*
X173370000Y-100260001D01*
G75*
G02*
X173120001Y-100510000I-249999J0D01*
G01*
X172419999Y-100510000D01*
G75*
G02*
X172170000Y-100260001I0J249999D01*
G01*
X172170000Y-99359999D01*
G75*
G02*
X172419999Y-99110000I249999J0D01*
G01*
X173120001Y-99110000D01*
G75*
G02*
X173370000Y-99359999I0J-249999D01*
G01*
G37*
%TD*%
%TO.C,R16*%
G36*
G01*
X151180000Y-99359999D02*
X151180000Y-100260001D01*
G75*
G02*
X150930001Y-100510000I-249999J0D01*
G01*
X150229999Y-100510000D01*
G75*
G02*
X149980000Y-100260001I0J249999D01*
G01*
X149980000Y-99359999D01*
G75*
G02*
X150229999Y-99110000I249999J0D01*
G01*
X150930001Y-99110000D01*
G75*
G02*
X151180000Y-99359999I0J-249999D01*
G01*
G37*
G36*
G01*
X153180000Y-99359999D02*
X153180000Y-100260001D01*
G75*
G02*
X152930001Y-100510000I-249999J0D01*
G01*
X152229999Y-100510000D01*
G75*
G02*
X151980000Y-100260001I0J249999D01*
G01*
X151980000Y-99359999D01*
G75*
G02*
X152229999Y-99110000I249999J0D01*
G01*
X152930001Y-99110000D01*
G75*
G02*
X153180000Y-99359999I0J-249999D01*
G01*
G37*
%TD*%
%TO.C,R10*%
G36*
G01*
X130990000Y-99359999D02*
X130990000Y-100260001D01*
G75*
G02*
X130740001Y-100510000I-249999J0D01*
G01*
X130039999Y-100510000D01*
G75*
G02*
X129790000Y-100260001I0J249999D01*
G01*
X129790000Y-99359999D01*
G75*
G02*
X130039999Y-99110000I249999J0D01*
G01*
X130740001Y-99110000D01*
G75*
G02*
X130990000Y-99359999I0J-249999D01*
G01*
G37*
G36*
G01*
X132990000Y-99359999D02*
X132990000Y-100260001D01*
G75*
G02*
X132740001Y-100510000I-249999J0D01*
G01*
X132039999Y-100510000D01*
G75*
G02*
X131790000Y-100260001I0J249999D01*
G01*
X131790000Y-99359999D01*
G75*
G02*
X132039999Y-99110000I249999J0D01*
G01*
X132740001Y-99110000D01*
G75*
G02*
X132990000Y-99359999I0J-249999D01*
G01*
G37*
%TD*%
%TO.C,R9*%
G36*
G01*
X110790000Y-99359999D02*
X110790000Y-100260001D01*
G75*
G02*
X110540001Y-100510000I-249999J0D01*
G01*
X109839999Y-100510000D01*
G75*
G02*
X109590000Y-100260001I0J249999D01*
G01*
X109590000Y-99359999D01*
G75*
G02*
X109839999Y-99110000I249999J0D01*
G01*
X110540001Y-99110000D01*
G75*
G02*
X110790000Y-99359999I0J-249999D01*
G01*
G37*
G36*
G01*
X112790000Y-99359999D02*
X112790000Y-100260001D01*
G75*
G02*
X112540001Y-100510000I-249999J0D01*
G01*
X111839999Y-100510000D01*
G75*
G02*
X111590000Y-100260001I0J249999D01*
G01*
X111590000Y-99359999D01*
G75*
G02*
X111839999Y-99110000I249999J0D01*
G01*
X112540001Y-99110000D01*
G75*
G02*
X112790000Y-99359999I0J-249999D01*
G01*
G37*
%TD*%
%TO.C,R8*%
G36*
G01*
X191560000Y-80359999D02*
X191560000Y-81260001D01*
G75*
G02*
X191310001Y-81510000I-249999J0D01*
G01*
X190609999Y-81510000D01*
G75*
G02*
X190360000Y-81260001I0J249999D01*
G01*
X190360000Y-80359999D01*
G75*
G02*
X190609999Y-80110000I249999J0D01*
G01*
X191310001Y-80110000D01*
G75*
G02*
X191560000Y-80359999I0J-249999D01*
G01*
G37*
G36*
G01*
X193560000Y-80359999D02*
X193560000Y-81260001D01*
G75*
G02*
X193310001Y-81510000I-249999J0D01*
G01*
X192609999Y-81510000D01*
G75*
G02*
X192360000Y-81260001I0J249999D01*
G01*
X192360000Y-80359999D01*
G75*
G02*
X192609999Y-80110000I249999J0D01*
G01*
X193310001Y-80110000D01*
G75*
G02*
X193560000Y-80359999I0J-249999D01*
G01*
G37*
%TD*%
%TO.C,R7*%
G36*
G01*
X171370000Y-80359999D02*
X171370000Y-81260001D01*
G75*
G02*
X171120001Y-81510000I-249999J0D01*
G01*
X170419999Y-81510000D01*
G75*
G02*
X170170000Y-81260001I0J249999D01*
G01*
X170170000Y-80359999D01*
G75*
G02*
X170419999Y-80110000I249999J0D01*
G01*
X171120001Y-80110000D01*
G75*
G02*
X171370000Y-80359999I0J-249999D01*
G01*
G37*
G36*
G01*
X173370000Y-80359999D02*
X173370000Y-81260001D01*
G75*
G02*
X173120001Y-81510000I-249999J0D01*
G01*
X172419999Y-81510000D01*
G75*
G02*
X172170000Y-81260001I0J249999D01*
G01*
X172170000Y-80359999D01*
G75*
G02*
X172419999Y-80110000I249999J0D01*
G01*
X173120001Y-80110000D01*
G75*
G02*
X173370000Y-80359999I0J-249999D01*
G01*
G37*
%TD*%
%TO.C,R3*%
G36*
G01*
X151180000Y-80359999D02*
X151180000Y-81260001D01*
G75*
G02*
X150930001Y-81510000I-249999J0D01*
G01*
X150229999Y-81510000D01*
G75*
G02*
X149980000Y-81260001I0J249999D01*
G01*
X149980000Y-80359999D01*
G75*
G02*
X150229999Y-80110000I249999J0D01*
G01*
X150930001Y-80110000D01*
G75*
G02*
X151180000Y-80359999I0J-249999D01*
G01*
G37*
G36*
G01*
X153180000Y-80359999D02*
X153180000Y-81260001D01*
G75*
G02*
X152930001Y-81510000I-249999J0D01*
G01*
X152229999Y-81510000D01*
G75*
G02*
X151980000Y-81260001I0J249999D01*
G01*
X151980000Y-80359999D01*
G75*
G02*
X152229999Y-80110000I249999J0D01*
G01*
X152930001Y-80110000D01*
G75*
G02*
X153180000Y-80359999I0J-249999D01*
G01*
G37*
%TD*%
%TO.C,R2*%
G36*
G01*
X130990000Y-80359999D02*
X130990000Y-81260001D01*
G75*
G02*
X130740001Y-81510000I-249999J0D01*
G01*
X130039999Y-81510000D01*
G75*
G02*
X129790000Y-81260001I0J249999D01*
G01*
X129790000Y-80359999D01*
G75*
G02*
X130039999Y-80110000I249999J0D01*
G01*
X130740001Y-80110000D01*
G75*
G02*
X130990000Y-80359999I0J-249999D01*
G01*
G37*
G36*
G01*
X132990000Y-80359999D02*
X132990000Y-81260001D01*
G75*
G02*
X132740001Y-81510000I-249999J0D01*
G01*
X132039999Y-81510000D01*
G75*
G02*
X131790000Y-81260001I0J249999D01*
G01*
X131790000Y-80359999D01*
G75*
G02*
X132039999Y-80110000I249999J0D01*
G01*
X132740001Y-80110000D01*
G75*
G02*
X132990000Y-80359999I0J-249999D01*
G01*
G37*
%TD*%
%TO.C,R1*%
G36*
G01*
X110800000Y-80359999D02*
X110800000Y-81260001D01*
G75*
G02*
X110550001Y-81510000I-249999J0D01*
G01*
X109849999Y-81510000D01*
G75*
G02*
X109600000Y-81260001I0J249999D01*
G01*
X109600000Y-80359999D01*
G75*
G02*
X109849999Y-80110000I249999J0D01*
G01*
X110550001Y-80110000D01*
G75*
G02*
X110800000Y-80359999I0J-249999D01*
G01*
G37*
G36*
G01*
X112800000Y-80359999D02*
X112800000Y-81260001D01*
G75*
G02*
X112550001Y-81510000I-249999J0D01*
G01*
X111849999Y-81510000D01*
G75*
G02*
X111600000Y-81260001I0J249999D01*
G01*
X111600000Y-80359999D01*
G75*
G02*
X111849999Y-80110000I249999J0D01*
G01*
X112550001Y-80110000D01*
G75*
G02*
X112800000Y-80359999I0J-249999D01*
G01*
G37*
%TD*%
M02*
