%TF.GenerationSoftware,KiCad,Pcbnew,(5.1.8)-1*%
%TF.CreationDate,2021-11-07T18:09:00-05:00*%
%TF.ProjectId,Control_pad,436f6e74-726f-46c5-9f70-61642e6b6963,rev?*%
%TF.SameCoordinates,Original*%
%TF.FileFunction,Copper,L1,Top*%
%TF.FilePolarity,Positive*%
%FSLAX46Y46*%
G04 Gerber Fmt 4.6, Leading zero omitted, Abs format (unit mm)*
G04 Created by KiCad (PCBNEW (5.1.8)-1) date 2021-11-07 18:09:00*
%MOMM*%
%LPD*%
G01*
G04 APERTURE LIST*
%TA.AperFunction,ComponentPad*%
%ADD10C,2.500000*%
%TD*%
%TA.AperFunction,ComponentPad*%
%ADD11R,2.500000X2.500000*%
%TD*%
%TA.AperFunction,ComponentPad*%
%ADD12O,1.700000X1.950000*%
%TD*%
%TA.AperFunction,ViaPad*%
%ADD13C,0.800000*%
%TD*%
%TA.AperFunction,Conductor*%
%ADD14C,0.508000*%
%TD*%
%TA.AperFunction,Conductor*%
%ADD15C,1.500000*%
%TD*%
G04 APERTURE END LIST*
D10*
%TO.P,SW1,3*%
%TO.N,+3V3*%
X208000000Y-86710000D03*
%TO.P,SW1,2*%
%TO.N,Net-(J4-Pad2)*%
X208000000Y-82010000D03*
D11*
%TO.P,SW1,1*%
%TO.N,N/C*%
X208000000Y-77310000D03*
%TD*%
D10*
%TO.P,S14,4*%
%TO.N,GND*%
X196350000Y-123890000D03*
%TO.P,S14,2*%
%TO.N,Net-(R26-Pad1)*%
X196350000Y-118810000D03*
%TO.P,S14,3*%
%TO.N,GND*%
X183650000Y-123890000D03*
%TO.P,S14,1*%
%TO.N,N/C*%
X183650000Y-118810000D03*
%TD*%
%TO.P,S13,4*%
%TO.N,GND*%
X176350000Y-123890000D03*
%TO.P,S13,2*%
%TO.N,Net-(R25-Pad1)*%
X176350000Y-118810000D03*
%TO.P,S13,3*%
%TO.N,GND*%
X163650000Y-123890000D03*
%TO.P,S13,1*%
%TO.N,N/C*%
X163650000Y-118810000D03*
%TD*%
%TO.P,S12,4*%
%TO.N,GND*%
X136350000Y-123890000D03*
%TO.P,S12,2*%
%TO.N,Net-(R24-Pad1)*%
X136350000Y-118810000D03*
%TO.P,S12,3*%
%TO.N,GND*%
X123650000Y-123890000D03*
%TO.P,S12,1*%
%TO.N,N/C*%
X123650000Y-118810000D03*
%TD*%
%TO.P,S11,4*%
%TO.N,GND*%
X116350000Y-123890000D03*
%TO.P,S11,2*%
%TO.N,Net-(R19-Pad1)*%
X116350000Y-118810000D03*
%TO.P,S11,3*%
%TO.N,GND*%
X103650000Y-123890000D03*
%TO.P,S11,1*%
%TO.N,N/C*%
X103650000Y-118810000D03*
%TD*%
%TO.P,S10,4*%
%TO.N,GND*%
X196350000Y-104890000D03*
%TO.P,S10,2*%
%TO.N,Net-(R18-Pad1)*%
X196350000Y-99810000D03*
%TO.P,S10,3*%
%TO.N,GND*%
X183650000Y-104890000D03*
%TO.P,S10,1*%
%TO.N,N/C*%
X183650000Y-99810000D03*
%TD*%
%TO.P,S9,4*%
%TO.N,GND*%
X176350000Y-104890000D03*
%TO.P,S9,2*%
%TO.N,Net-(R17-Pad1)*%
X176350000Y-99810000D03*
%TO.P,S9,3*%
%TO.N,GND*%
X163650000Y-104890000D03*
%TO.P,S9,1*%
%TO.N,N/C*%
X163650000Y-99810000D03*
%TD*%
%TO.P,S8,4*%
%TO.N,GND*%
X156350000Y-104890000D03*
%TO.P,S8,2*%
%TO.N,Net-(R16-Pad1)*%
X156350000Y-99810000D03*
%TO.P,S8,3*%
%TO.N,GND*%
X143650000Y-104890000D03*
%TO.P,S8,1*%
%TO.N,N/C*%
X143650000Y-99810000D03*
%TD*%
%TO.P,S7,4*%
%TO.N,GND*%
X136350000Y-104890000D03*
%TO.P,S7,2*%
%TO.N,Net-(R10-Pad1)*%
X136350000Y-99810000D03*
%TO.P,S7,3*%
%TO.N,GND*%
X123650000Y-104890000D03*
%TO.P,S7,1*%
%TO.N,N/C*%
X123650000Y-99810000D03*
%TD*%
%TO.P,S6,4*%
%TO.N,GND*%
X116350000Y-104890000D03*
%TO.P,S6,2*%
%TO.N,Net-(R13-Pad2)*%
X116350000Y-99810000D03*
%TO.P,S6,3*%
%TO.N,GND*%
X103650000Y-104890000D03*
%TO.P,S6,1*%
%TO.N,N/C*%
X103650000Y-99810000D03*
%TD*%
%TO.P,S5,4*%
%TO.N,GND*%
X196350000Y-85890000D03*
%TO.P,S5,2*%
%TO.N,Net-(R12-Pad2)*%
X196350000Y-80810000D03*
%TO.P,S5,3*%
%TO.N,GND*%
X183650000Y-85890000D03*
%TO.P,S5,1*%
%TO.N,N/C*%
X183650000Y-80810000D03*
%TD*%
%TO.P,S4,4*%
%TO.N,GND*%
X176350000Y-85890000D03*
%TO.P,S4,2*%
%TO.N,Net-(R11-Pad2)*%
X176350000Y-80810000D03*
%TO.P,S4,3*%
%TO.N,GND*%
X163650000Y-85890000D03*
%TO.P,S4,1*%
%TO.N,N/C*%
X163650000Y-80810000D03*
%TD*%
%TO.P,S3,4*%
%TO.N,GND*%
X156350000Y-85890000D03*
%TO.P,S3,2*%
%TO.N,Net-(R3-Pad1)*%
X156350000Y-80810000D03*
%TO.P,S3,3*%
%TO.N,GND*%
X143650000Y-85890000D03*
%TO.P,S3,1*%
%TO.N,N/C*%
X143650000Y-80810000D03*
%TD*%
%TO.P,S2,4*%
%TO.N,GND*%
X136350000Y-85890000D03*
%TO.P,S2,2*%
%TO.N,Net-(R2-Pad1)*%
X136350000Y-80810000D03*
%TO.P,S2,3*%
%TO.N,GND*%
X123650000Y-85890000D03*
%TO.P,S2,1*%
%TO.N,N/C*%
X123650000Y-80810000D03*
%TD*%
%TO.P,S1,4*%
%TO.N,GND*%
X116350000Y-85890000D03*
%TO.P,S1,2*%
%TO.N,Net-(R1-Pad1)*%
X116350000Y-80810000D03*
%TO.P,S1,3*%
%TO.N,GND*%
X103650000Y-85890000D03*
%TO.P,S1,1*%
%TO.N,N/C*%
X103650000Y-80810000D03*
%TD*%
%TO.P,R29,2*%
%TO.N,Net-(R26-Pad1)*%
%TA.AperFunction,SMDPad,CuDef*%
G36*
G01*
X192879999Y-112850000D02*
X193780001Y-112850000D01*
G75*
G02*
X194030000Y-113099999I0J-249999D01*
G01*
X194030000Y-113800001D01*
G75*
G02*
X193780001Y-114050000I-249999J0D01*
G01*
X192879999Y-114050000D01*
G75*
G02*
X192630000Y-113800001I0J249999D01*
G01*
X192630000Y-113099999D01*
G75*
G02*
X192879999Y-112850000I249999J0D01*
G01*
G37*
%TD.AperFunction*%
%TO.P,R29,1*%
%TO.N,/A2*%
%TA.AperFunction,SMDPad,CuDef*%
G36*
G01*
X192879999Y-110850000D02*
X193780001Y-110850000D01*
G75*
G02*
X194030000Y-111099999I0J-249999D01*
G01*
X194030000Y-111800001D01*
G75*
G02*
X193780001Y-112050000I-249999J0D01*
G01*
X192879999Y-112050000D01*
G75*
G02*
X192630000Y-111800001I0J249999D01*
G01*
X192630000Y-111099999D01*
G75*
G02*
X192879999Y-110850000I249999J0D01*
G01*
G37*
%TD.AperFunction*%
%TD*%
%TO.P,R28,2*%
%TO.N,Net-(R25-Pad1)*%
%TA.AperFunction,SMDPad,CuDef*%
G36*
G01*
X172849999Y-112850000D02*
X173750001Y-112850000D01*
G75*
G02*
X174000000Y-113099999I0J-249999D01*
G01*
X174000000Y-113800001D01*
G75*
G02*
X173750001Y-114050000I-249999J0D01*
G01*
X172849999Y-114050000D01*
G75*
G02*
X172600000Y-113800001I0J249999D01*
G01*
X172600000Y-113099999D01*
G75*
G02*
X172849999Y-112850000I249999J0D01*
G01*
G37*
%TD.AperFunction*%
%TO.P,R28,1*%
%TO.N,/A3*%
%TA.AperFunction,SMDPad,CuDef*%
G36*
G01*
X172849999Y-110850000D02*
X173750001Y-110850000D01*
G75*
G02*
X174000000Y-111099999I0J-249999D01*
G01*
X174000000Y-111800001D01*
G75*
G02*
X173750001Y-112050000I-249999J0D01*
G01*
X172849999Y-112050000D01*
G75*
G02*
X172600000Y-111800001I0J249999D01*
G01*
X172600000Y-111099999D01*
G75*
G02*
X172849999Y-110850000I249999J0D01*
G01*
G37*
%TD.AperFunction*%
%TD*%
%TO.P,R27,2*%
%TO.N,Net-(R24-Pad1)*%
%TA.AperFunction,SMDPad,CuDef*%
G36*
G01*
X132789999Y-112850000D02*
X133690001Y-112850000D01*
G75*
G02*
X133940000Y-113099999I0J-249999D01*
G01*
X133940000Y-113800001D01*
G75*
G02*
X133690001Y-114050000I-249999J0D01*
G01*
X132789999Y-114050000D01*
G75*
G02*
X132540000Y-113800001I0J249999D01*
G01*
X132540000Y-113099999D01*
G75*
G02*
X132789999Y-112850000I249999J0D01*
G01*
G37*
%TD.AperFunction*%
%TO.P,R27,1*%
%TO.N,/D10*%
%TA.AperFunction,SMDPad,CuDef*%
G36*
G01*
X132789999Y-110850000D02*
X133690001Y-110850000D01*
G75*
G02*
X133940000Y-111099999I0J-249999D01*
G01*
X133940000Y-111800001D01*
G75*
G02*
X133690001Y-112050000I-249999J0D01*
G01*
X132789999Y-112050000D01*
G75*
G02*
X132540000Y-111800001I0J249999D01*
G01*
X132540000Y-111099999D01*
G75*
G02*
X132789999Y-110850000I249999J0D01*
G01*
G37*
%TD.AperFunction*%
%TD*%
%TO.P,R23,2*%
%TO.N,Net-(R19-Pad1)*%
%TA.AperFunction,SMDPad,CuDef*%
G36*
G01*
X112759999Y-112850000D02*
X113660001Y-112850000D01*
G75*
G02*
X113910000Y-113099999I0J-249999D01*
G01*
X113910000Y-113800001D01*
G75*
G02*
X113660001Y-114050000I-249999J0D01*
G01*
X112759999Y-114050000D01*
G75*
G02*
X112510000Y-113800001I0J249999D01*
G01*
X112510000Y-113099999D01*
G75*
G02*
X112759999Y-112850000I249999J0D01*
G01*
G37*
%TD.AperFunction*%
%TO.P,R23,1*%
%TO.N,/D11*%
%TA.AperFunction,SMDPad,CuDef*%
G36*
G01*
X112759999Y-110850000D02*
X113660001Y-110850000D01*
G75*
G02*
X113910000Y-111099999I0J-249999D01*
G01*
X113910000Y-111800001D01*
G75*
G02*
X113660001Y-112050000I-249999J0D01*
G01*
X112759999Y-112050000D01*
G75*
G02*
X112510000Y-111800001I0J249999D01*
G01*
X112510000Y-111099999D01*
G75*
G02*
X112759999Y-110850000I249999J0D01*
G01*
G37*
%TD.AperFunction*%
%TD*%
%TO.P,R22,2*%
%TO.N,Net-(R18-Pad1)*%
%TA.AperFunction,SMDPad,CuDef*%
G36*
G01*
X192879999Y-93880000D02*
X193780001Y-93880000D01*
G75*
G02*
X194030000Y-94129999I0J-249999D01*
G01*
X194030000Y-94830001D01*
G75*
G02*
X193780001Y-95080000I-249999J0D01*
G01*
X192879999Y-95080000D01*
G75*
G02*
X192630000Y-94830001I0J249999D01*
G01*
X192630000Y-94129999D01*
G75*
G02*
X192879999Y-93880000I249999J0D01*
G01*
G37*
%TD.AperFunction*%
%TO.P,R22,1*%
%TO.N,/A1*%
%TA.AperFunction,SMDPad,CuDef*%
G36*
G01*
X192879999Y-91880000D02*
X193780001Y-91880000D01*
G75*
G02*
X194030000Y-92129999I0J-249999D01*
G01*
X194030000Y-92830001D01*
G75*
G02*
X193780001Y-93080000I-249999J0D01*
G01*
X192879999Y-93080000D01*
G75*
G02*
X192630000Y-92830001I0J249999D01*
G01*
X192630000Y-92129999D01*
G75*
G02*
X192879999Y-91880000I249999J0D01*
G01*
G37*
%TD.AperFunction*%
%TD*%
%TO.P,R21,2*%
%TO.N,Net-(R17-Pad1)*%
%TA.AperFunction,SMDPad,CuDef*%
G36*
G01*
X172849999Y-93880000D02*
X173750001Y-93880000D01*
G75*
G02*
X174000000Y-94129999I0J-249999D01*
G01*
X174000000Y-94830001D01*
G75*
G02*
X173750001Y-95080000I-249999J0D01*
G01*
X172849999Y-95080000D01*
G75*
G02*
X172600000Y-94830001I0J249999D01*
G01*
X172600000Y-94129999D01*
G75*
G02*
X172849999Y-93880000I249999J0D01*
G01*
G37*
%TD.AperFunction*%
%TO.P,R21,1*%
%TO.N,/A4*%
%TA.AperFunction,SMDPad,CuDef*%
G36*
G01*
X172849999Y-91880000D02*
X173750001Y-91880000D01*
G75*
G02*
X174000000Y-92129999I0J-249999D01*
G01*
X174000000Y-92830001D01*
G75*
G02*
X173750001Y-93080000I-249999J0D01*
G01*
X172849999Y-93080000D01*
G75*
G02*
X172600000Y-92830001I0J249999D01*
G01*
X172600000Y-92129999D01*
G75*
G02*
X172849999Y-91880000I249999J0D01*
G01*
G37*
%TD.AperFunction*%
%TD*%
%TO.P,R20,2*%
%TO.N,Net-(R16-Pad1)*%
%TA.AperFunction,SMDPad,CuDef*%
G36*
G01*
X152819999Y-93880000D02*
X153720001Y-93880000D01*
G75*
G02*
X153970000Y-94129999I0J-249999D01*
G01*
X153970000Y-94830001D01*
G75*
G02*
X153720001Y-95080000I-249999J0D01*
G01*
X152819999Y-95080000D01*
G75*
G02*
X152570000Y-94830001I0J249999D01*
G01*
X152570000Y-94129999D01*
G75*
G02*
X152819999Y-93880000I249999J0D01*
G01*
G37*
%TD.AperFunction*%
%TO.P,R20,1*%
%TO.N,/D5*%
%TA.AperFunction,SMDPad,CuDef*%
G36*
G01*
X152819999Y-91880000D02*
X153720001Y-91880000D01*
G75*
G02*
X153970000Y-92129999I0J-249999D01*
G01*
X153970000Y-92830001D01*
G75*
G02*
X153720001Y-93080000I-249999J0D01*
G01*
X152819999Y-93080000D01*
G75*
G02*
X152570000Y-92830001I0J249999D01*
G01*
X152570000Y-92129999D01*
G75*
G02*
X152819999Y-91880000I249999J0D01*
G01*
G37*
%TD.AperFunction*%
%TD*%
%TO.P,R15,2*%
%TO.N,Net-(D1-Pad2)*%
%TA.AperFunction,SMDPad,CuDef*%
G36*
G01*
X207600000Y-93989999D02*
X207600000Y-94890001D01*
G75*
G02*
X207350001Y-95140000I-249999J0D01*
G01*
X206649999Y-95140000D01*
G75*
G02*
X206400000Y-94890001I0J249999D01*
G01*
X206400000Y-93989999D01*
G75*
G02*
X206649999Y-93740000I249999J0D01*
G01*
X207350001Y-93740000D01*
G75*
G02*
X207600000Y-93989999I0J-249999D01*
G01*
G37*
%TD.AperFunction*%
%TO.P,R15,1*%
%TO.N,+3V3*%
%TA.AperFunction,SMDPad,CuDef*%
G36*
G01*
X209600000Y-93989999D02*
X209600000Y-94890001D01*
G75*
G02*
X209350001Y-95140000I-249999J0D01*
G01*
X208649999Y-95140000D01*
G75*
G02*
X208400000Y-94890001I0J249999D01*
G01*
X208400000Y-93989999D01*
G75*
G02*
X208649999Y-93740000I249999J0D01*
G01*
X209350001Y-93740000D01*
G75*
G02*
X209600000Y-93989999I0J-249999D01*
G01*
G37*
%TD.AperFunction*%
%TD*%
%TO.P,R14,2*%
%TO.N,Net-(R10-Pad1)*%
%TA.AperFunction,SMDPad,CuDef*%
G36*
G01*
X132789999Y-93880000D02*
X133690001Y-93880000D01*
G75*
G02*
X133940000Y-94129999I0J-249999D01*
G01*
X133940000Y-94830001D01*
G75*
G02*
X133690001Y-95080000I-249999J0D01*
G01*
X132789999Y-95080000D01*
G75*
G02*
X132540000Y-94830001I0J249999D01*
G01*
X132540000Y-94129999D01*
G75*
G02*
X132789999Y-93880000I249999J0D01*
G01*
G37*
%TD.AperFunction*%
%TO.P,R14,1*%
%TO.N,/D9*%
%TA.AperFunction,SMDPad,CuDef*%
G36*
G01*
X132789999Y-91880000D02*
X133690001Y-91880000D01*
G75*
G02*
X133940000Y-92129999I0J-249999D01*
G01*
X133940000Y-92830001D01*
G75*
G02*
X133690001Y-93080000I-249999J0D01*
G01*
X132789999Y-93080000D01*
G75*
G02*
X132540000Y-92830001I0J249999D01*
G01*
X132540000Y-92129999D01*
G75*
G02*
X132789999Y-91880000I249999J0D01*
G01*
G37*
%TD.AperFunction*%
%TD*%
%TO.P,R13,2*%
%TO.N,Net-(R13-Pad2)*%
%TA.AperFunction,SMDPad,CuDef*%
G36*
G01*
X112759999Y-93880000D02*
X113660001Y-93880000D01*
G75*
G02*
X113910000Y-94129999I0J-249999D01*
G01*
X113910000Y-94830001D01*
G75*
G02*
X113660001Y-95080000I-249999J0D01*
G01*
X112759999Y-95080000D01*
G75*
G02*
X112510000Y-94830001I0J249999D01*
G01*
X112510000Y-94129999D01*
G75*
G02*
X112759999Y-93880000I249999J0D01*
G01*
G37*
%TD.AperFunction*%
%TO.P,R13,1*%
%TO.N,/D12*%
%TA.AperFunction,SMDPad,CuDef*%
G36*
G01*
X112759999Y-91880000D02*
X113660001Y-91880000D01*
G75*
G02*
X113910000Y-92129999I0J-249999D01*
G01*
X113910000Y-92830001D01*
G75*
G02*
X113660001Y-93080000I-249999J0D01*
G01*
X112759999Y-93080000D01*
G75*
G02*
X112510000Y-92830001I0J249999D01*
G01*
X112510000Y-92129999D01*
G75*
G02*
X112759999Y-91880000I249999J0D01*
G01*
G37*
%TD.AperFunction*%
%TD*%
%TO.P,R12,2*%
%TO.N,Net-(R12-Pad2)*%
%TA.AperFunction,SMDPad,CuDef*%
G36*
G01*
X192879999Y-74320000D02*
X193780001Y-74320000D01*
G75*
G02*
X194030000Y-74569999I0J-249999D01*
G01*
X194030000Y-75270001D01*
G75*
G02*
X193780001Y-75520000I-249999J0D01*
G01*
X192879999Y-75520000D01*
G75*
G02*
X192630000Y-75270001I0J249999D01*
G01*
X192630000Y-74569999D01*
G75*
G02*
X192879999Y-74320000I249999J0D01*
G01*
G37*
%TD.AperFunction*%
%TO.P,R12,1*%
%TO.N,/A0*%
%TA.AperFunction,SMDPad,CuDef*%
G36*
G01*
X192879999Y-72320000D02*
X193780001Y-72320000D01*
G75*
G02*
X194030000Y-72569999I0J-249999D01*
G01*
X194030000Y-73270001D01*
G75*
G02*
X193780001Y-73520000I-249999J0D01*
G01*
X192879999Y-73520000D01*
G75*
G02*
X192630000Y-73270001I0J249999D01*
G01*
X192630000Y-72569999D01*
G75*
G02*
X192879999Y-72320000I249999J0D01*
G01*
G37*
%TD.AperFunction*%
%TD*%
%TO.P,R11,2*%
%TO.N,Net-(R11-Pad2)*%
%TA.AperFunction,SMDPad,CuDef*%
G36*
G01*
X172819999Y-74380000D02*
X173720001Y-74380000D01*
G75*
G02*
X173970000Y-74629999I0J-249999D01*
G01*
X173970000Y-75330001D01*
G75*
G02*
X173720001Y-75580000I-249999J0D01*
G01*
X172819999Y-75580000D01*
G75*
G02*
X172570000Y-75330001I0J249999D01*
G01*
X172570000Y-74629999D01*
G75*
G02*
X172819999Y-74380000I249999J0D01*
G01*
G37*
%TD.AperFunction*%
%TO.P,R11,1*%
%TO.N,/A5*%
%TA.AperFunction,SMDPad,CuDef*%
G36*
G01*
X172819999Y-72380000D02*
X173720001Y-72380000D01*
G75*
G02*
X173970000Y-72629999I0J-249999D01*
G01*
X173970000Y-73330001D01*
G75*
G02*
X173720001Y-73580000I-249999J0D01*
G01*
X172819999Y-73580000D01*
G75*
G02*
X172570000Y-73330001I0J249999D01*
G01*
X172570000Y-72629999D01*
G75*
G02*
X172819999Y-72380000I249999J0D01*
G01*
G37*
%TD.AperFunction*%
%TD*%
%TO.P,R6,2*%
%TO.N,Net-(R3-Pad1)*%
%TA.AperFunction,SMDPad,CuDef*%
G36*
G01*
X152809999Y-74350000D02*
X153710001Y-74350000D01*
G75*
G02*
X153960000Y-74599999I0J-249999D01*
G01*
X153960000Y-75300001D01*
G75*
G02*
X153710001Y-75550000I-249999J0D01*
G01*
X152809999Y-75550000D01*
G75*
G02*
X152560000Y-75300001I0J249999D01*
G01*
X152560000Y-74599999D01*
G75*
G02*
X152809999Y-74350000I249999J0D01*
G01*
G37*
%TD.AperFunction*%
%TO.P,R6,1*%
%TO.N,/D2*%
%TA.AperFunction,SMDPad,CuDef*%
G36*
G01*
X152809999Y-72350000D02*
X153710001Y-72350000D01*
G75*
G02*
X153960000Y-72599999I0J-249999D01*
G01*
X153960000Y-73300001D01*
G75*
G02*
X153710001Y-73550000I-249999J0D01*
G01*
X152809999Y-73550000D01*
G75*
G02*
X152560000Y-73300001I0J249999D01*
G01*
X152560000Y-72599999D01*
G75*
G02*
X152809999Y-72350000I249999J0D01*
G01*
G37*
%TD.AperFunction*%
%TD*%
%TO.P,R5,2*%
%TO.N,Net-(R2-Pad1)*%
%TA.AperFunction,SMDPad,CuDef*%
G36*
G01*
X132819999Y-74380000D02*
X133720001Y-74380000D01*
G75*
G02*
X133970000Y-74629999I0J-249999D01*
G01*
X133970000Y-75330001D01*
G75*
G02*
X133720001Y-75580000I-249999J0D01*
G01*
X132819999Y-75580000D01*
G75*
G02*
X132570000Y-75330001I0J249999D01*
G01*
X132570000Y-74629999D01*
G75*
G02*
X132819999Y-74380000I249999J0D01*
G01*
G37*
%TD.AperFunction*%
%TO.P,R5,1*%
%TO.N,/D6*%
%TA.AperFunction,SMDPad,CuDef*%
G36*
G01*
X132819999Y-72380000D02*
X133720001Y-72380000D01*
G75*
G02*
X133970000Y-72629999I0J-249999D01*
G01*
X133970000Y-73330001D01*
G75*
G02*
X133720001Y-73580000I-249999J0D01*
G01*
X132819999Y-73580000D01*
G75*
G02*
X132570000Y-73330001I0J249999D01*
G01*
X132570000Y-72629999D01*
G75*
G02*
X132819999Y-72380000I249999J0D01*
G01*
G37*
%TD.AperFunction*%
%TD*%
%TO.P,R4,2*%
%TO.N,Net-(R1-Pad1)*%
%TA.AperFunction,SMDPad,CuDef*%
G36*
G01*
X112769999Y-74360000D02*
X113670001Y-74360000D01*
G75*
G02*
X113920000Y-74609999I0J-249999D01*
G01*
X113920000Y-75310001D01*
G75*
G02*
X113670001Y-75560000I-249999J0D01*
G01*
X112769999Y-75560000D01*
G75*
G02*
X112520000Y-75310001I0J249999D01*
G01*
X112520000Y-74609999D01*
G75*
G02*
X112769999Y-74360000I249999J0D01*
G01*
G37*
%TD.AperFunction*%
%TO.P,R4,1*%
%TO.N,/D13*%
%TA.AperFunction,SMDPad,CuDef*%
G36*
G01*
X112769999Y-72360000D02*
X113670001Y-72360000D01*
G75*
G02*
X113920000Y-72609999I0J-249999D01*
G01*
X113920000Y-73310001D01*
G75*
G02*
X113670001Y-73560000I-249999J0D01*
G01*
X112769999Y-73560000D01*
G75*
G02*
X112520000Y-73310001I0J249999D01*
G01*
X112520000Y-72609999D01*
G75*
G02*
X112769999Y-72360000I249999J0D01*
G01*
G37*
%TD.AperFunction*%
%TD*%
D12*
%TO.P,J4,4*%
%TO.N,/A1*%
X189500000Y-66000000D03*
%TO.P,J4,3*%
%TO.N,/A0*%
X192000000Y-66000000D03*
%TO.P,J4,2*%
%TO.N,Net-(J4-Pad2)*%
X194500000Y-66000000D03*
%TO.P,J4,1*%
%TO.N,GND*%
%TA.AperFunction,ComponentPad*%
G36*
G01*
X197850000Y-65275000D02*
X197850000Y-66725000D01*
G75*
G02*
X197600000Y-66975000I-250000J0D01*
G01*
X196400000Y-66975000D01*
G75*
G02*
X196150000Y-66725000I0J250000D01*
G01*
X196150000Y-65275000D01*
G75*
G02*
X196400000Y-65025000I250000J0D01*
G01*
X197600000Y-65025000D01*
G75*
G02*
X197850000Y-65275000I0J-250000D01*
G01*
G37*
%TD.AperFunction*%
%TD*%
%TO.P,J3,4*%
%TO.N,/A5*%
X174500000Y-66000000D03*
%TO.P,J3,3*%
%TO.N,/A4*%
X177000000Y-66000000D03*
%TO.P,J3,2*%
%TO.N,/A3*%
X179500000Y-66000000D03*
%TO.P,J3,1*%
%TO.N,/A2*%
%TA.AperFunction,ComponentPad*%
G36*
G01*
X182850000Y-65275000D02*
X182850000Y-66725000D01*
G75*
G02*
X182600000Y-66975000I-250000J0D01*
G01*
X181400000Y-66975000D01*
G75*
G02*
X181150000Y-66725000I0J250000D01*
G01*
X181150000Y-65275000D01*
G75*
G02*
X181400000Y-65025000I250000J0D01*
G01*
X182600000Y-65025000D01*
G75*
G02*
X182850000Y-65275000I0J-250000D01*
G01*
G37*
%TD.AperFunction*%
%TD*%
%TO.P,J2,4*%
%TO.N,/D9*%
X127500000Y-66000000D03*
%TO.P,J2,3*%
%TO.N,/D6*%
X130000000Y-66000000D03*
%TO.P,J2,2*%
%TO.N,/D5*%
X132500000Y-66000000D03*
%TO.P,J2,1*%
%TO.N,/D2*%
%TA.AperFunction,ComponentPad*%
G36*
G01*
X135850000Y-65275000D02*
X135850000Y-66725000D01*
G75*
G02*
X135600000Y-66975000I-250000J0D01*
G01*
X134400000Y-66975000D01*
G75*
G02*
X134150000Y-66725000I0J250000D01*
G01*
X134150000Y-65275000D01*
G75*
G02*
X134400000Y-65025000I250000J0D01*
G01*
X135600000Y-65025000D01*
G75*
G02*
X135850000Y-65275000I0J-250000D01*
G01*
G37*
%TD.AperFunction*%
%TD*%
%TO.P,J1,4*%
%TO.N,/D13*%
X112500000Y-66000000D03*
%TO.P,J1,3*%
%TO.N,/D12*%
X115000000Y-66000000D03*
%TO.P,J1,2*%
%TO.N,/D11*%
X117500000Y-66000000D03*
%TO.P,J1,1*%
%TO.N,/D10*%
%TA.AperFunction,ComponentPad*%
G36*
G01*
X120850000Y-65275000D02*
X120850000Y-66725000D01*
G75*
G02*
X120600000Y-66975000I-250000J0D01*
G01*
X119400000Y-66975000D01*
G75*
G02*
X119150000Y-66725000I0J250000D01*
G01*
X119150000Y-65275000D01*
G75*
G02*
X119400000Y-65025000I250000J0D01*
G01*
X120600000Y-65025000D01*
G75*
G02*
X120850000Y-65275000I0J-250000D01*
G01*
G37*
%TD.AperFunction*%
%TD*%
%TO.P,D1,2*%
%TO.N,Net-(D1-Pad2)*%
%TA.AperFunction,SMDPad,CuDef*%
G36*
G01*
X207202500Y-96395000D02*
X207202500Y-97645000D01*
G75*
G02*
X206952500Y-97895000I-250000J0D01*
G01*
X206027500Y-97895000D01*
G75*
G02*
X205777500Y-97645000I0J250000D01*
G01*
X205777500Y-96395000D01*
G75*
G02*
X206027500Y-96145000I250000J0D01*
G01*
X206952500Y-96145000D01*
G75*
G02*
X207202500Y-96395000I0J-250000D01*
G01*
G37*
%TD.AperFunction*%
%TO.P,D1,1*%
%TO.N,GND*%
%TA.AperFunction,SMDPad,CuDef*%
G36*
G01*
X210177500Y-96395000D02*
X210177500Y-97645000D01*
G75*
G02*
X209927500Y-97895000I-250000J0D01*
G01*
X209002500Y-97895000D01*
G75*
G02*
X208752500Y-97645000I0J250000D01*
G01*
X208752500Y-96395000D01*
G75*
G02*
X209002500Y-96145000I250000J0D01*
G01*
X209927500Y-96145000D01*
G75*
G02*
X210177500Y-96395000I0J-250000D01*
G01*
G37*
%TD.AperFunction*%
%TD*%
%TO.P,C14,2*%
%TO.N,GND*%
%TA.AperFunction,SMDPad,CuDef*%
G36*
G01*
X194925000Y-112870000D02*
X195875000Y-112870000D01*
G75*
G02*
X196125000Y-113120000I0J-250000D01*
G01*
X196125000Y-113795000D01*
G75*
G02*
X195875000Y-114045000I-250000J0D01*
G01*
X194925000Y-114045000D01*
G75*
G02*
X194675000Y-113795000I0J250000D01*
G01*
X194675000Y-113120000D01*
G75*
G02*
X194925000Y-112870000I250000J0D01*
G01*
G37*
%TD.AperFunction*%
%TO.P,C14,1*%
%TO.N,/A2*%
%TA.AperFunction,SMDPad,CuDef*%
G36*
G01*
X194925000Y-110795000D02*
X195875000Y-110795000D01*
G75*
G02*
X196125000Y-111045000I0J-250000D01*
G01*
X196125000Y-111720000D01*
G75*
G02*
X195875000Y-111970000I-250000J0D01*
G01*
X194925000Y-111970000D01*
G75*
G02*
X194675000Y-111720000I0J250000D01*
G01*
X194675000Y-111045000D01*
G75*
G02*
X194925000Y-110795000I250000J0D01*
G01*
G37*
%TD.AperFunction*%
%TD*%
%TO.P,C13,2*%
%TO.N,GND*%
%TA.AperFunction,SMDPad,CuDef*%
G36*
G01*
X174915000Y-112870000D02*
X175865000Y-112870000D01*
G75*
G02*
X176115000Y-113120000I0J-250000D01*
G01*
X176115000Y-113795000D01*
G75*
G02*
X175865000Y-114045000I-250000J0D01*
G01*
X174915000Y-114045000D01*
G75*
G02*
X174665000Y-113795000I0J250000D01*
G01*
X174665000Y-113120000D01*
G75*
G02*
X174915000Y-112870000I250000J0D01*
G01*
G37*
%TD.AperFunction*%
%TO.P,C13,1*%
%TO.N,/A3*%
%TA.AperFunction,SMDPad,CuDef*%
G36*
G01*
X174915000Y-110795000D02*
X175865000Y-110795000D01*
G75*
G02*
X176115000Y-111045000I0J-250000D01*
G01*
X176115000Y-111720000D01*
G75*
G02*
X175865000Y-111970000I-250000J0D01*
G01*
X174915000Y-111970000D01*
G75*
G02*
X174665000Y-111720000I0J250000D01*
G01*
X174665000Y-111045000D01*
G75*
G02*
X174915000Y-110795000I250000J0D01*
G01*
G37*
%TD.AperFunction*%
%TD*%
%TO.P,C12,2*%
%TO.N,GND*%
%TA.AperFunction,SMDPad,CuDef*%
G36*
G01*
X134895000Y-112870000D02*
X135845000Y-112870000D01*
G75*
G02*
X136095000Y-113120000I0J-250000D01*
G01*
X136095000Y-113795000D01*
G75*
G02*
X135845000Y-114045000I-250000J0D01*
G01*
X134895000Y-114045000D01*
G75*
G02*
X134645000Y-113795000I0J250000D01*
G01*
X134645000Y-113120000D01*
G75*
G02*
X134895000Y-112870000I250000J0D01*
G01*
G37*
%TD.AperFunction*%
%TO.P,C12,1*%
%TO.N,/D10*%
%TA.AperFunction,SMDPad,CuDef*%
G36*
G01*
X134895000Y-110795000D02*
X135845000Y-110795000D01*
G75*
G02*
X136095000Y-111045000I0J-250000D01*
G01*
X136095000Y-111720000D01*
G75*
G02*
X135845000Y-111970000I-250000J0D01*
G01*
X134895000Y-111970000D01*
G75*
G02*
X134645000Y-111720000I0J250000D01*
G01*
X134645000Y-111045000D01*
G75*
G02*
X134895000Y-110795000I250000J0D01*
G01*
G37*
%TD.AperFunction*%
%TD*%
%TO.P,C11,2*%
%TO.N,GND*%
%TA.AperFunction,SMDPad,CuDef*%
G36*
G01*
X114885000Y-112900000D02*
X115835000Y-112900000D01*
G75*
G02*
X116085000Y-113150000I0J-250000D01*
G01*
X116085000Y-113825000D01*
G75*
G02*
X115835000Y-114075000I-250000J0D01*
G01*
X114885000Y-114075000D01*
G75*
G02*
X114635000Y-113825000I0J250000D01*
G01*
X114635000Y-113150000D01*
G75*
G02*
X114885000Y-112900000I250000J0D01*
G01*
G37*
%TD.AperFunction*%
%TO.P,C11,1*%
%TO.N,/D11*%
%TA.AperFunction,SMDPad,CuDef*%
G36*
G01*
X114885000Y-110825000D02*
X115835000Y-110825000D01*
G75*
G02*
X116085000Y-111075000I0J-250000D01*
G01*
X116085000Y-111750000D01*
G75*
G02*
X115835000Y-112000000I-250000J0D01*
G01*
X114885000Y-112000000D01*
G75*
G02*
X114635000Y-111750000I0J250000D01*
G01*
X114635000Y-111075000D01*
G75*
G02*
X114885000Y-110825000I250000J0D01*
G01*
G37*
%TD.AperFunction*%
%TD*%
%TO.P,C10,2*%
%TO.N,GND*%
%TA.AperFunction,SMDPad,CuDef*%
G36*
G01*
X194925000Y-93930000D02*
X195875000Y-93930000D01*
G75*
G02*
X196125000Y-94180000I0J-250000D01*
G01*
X196125000Y-94855000D01*
G75*
G02*
X195875000Y-95105000I-250000J0D01*
G01*
X194925000Y-95105000D01*
G75*
G02*
X194675000Y-94855000I0J250000D01*
G01*
X194675000Y-94180000D01*
G75*
G02*
X194925000Y-93930000I250000J0D01*
G01*
G37*
%TD.AperFunction*%
%TO.P,C10,1*%
%TO.N,/A1*%
%TA.AperFunction,SMDPad,CuDef*%
G36*
G01*
X194925000Y-91855000D02*
X195875000Y-91855000D01*
G75*
G02*
X196125000Y-92105000I0J-250000D01*
G01*
X196125000Y-92780000D01*
G75*
G02*
X195875000Y-93030000I-250000J0D01*
G01*
X194925000Y-93030000D01*
G75*
G02*
X194675000Y-92780000I0J250000D01*
G01*
X194675000Y-92105000D01*
G75*
G02*
X194925000Y-91855000I250000J0D01*
G01*
G37*
%TD.AperFunction*%
%TD*%
%TO.P,C9,2*%
%TO.N,GND*%
%TA.AperFunction,SMDPad,CuDef*%
G36*
G01*
X174915000Y-93930000D02*
X175865000Y-93930000D01*
G75*
G02*
X176115000Y-94180000I0J-250000D01*
G01*
X176115000Y-94855000D01*
G75*
G02*
X175865000Y-95105000I-250000J0D01*
G01*
X174915000Y-95105000D01*
G75*
G02*
X174665000Y-94855000I0J250000D01*
G01*
X174665000Y-94180000D01*
G75*
G02*
X174915000Y-93930000I250000J0D01*
G01*
G37*
%TD.AperFunction*%
%TO.P,C9,1*%
%TO.N,/A4*%
%TA.AperFunction,SMDPad,CuDef*%
G36*
G01*
X174915000Y-91855000D02*
X175865000Y-91855000D01*
G75*
G02*
X176115000Y-92105000I0J-250000D01*
G01*
X176115000Y-92780000D01*
G75*
G02*
X175865000Y-93030000I-250000J0D01*
G01*
X174915000Y-93030000D01*
G75*
G02*
X174665000Y-92780000I0J250000D01*
G01*
X174665000Y-92105000D01*
G75*
G02*
X174915000Y-91855000I250000J0D01*
G01*
G37*
%TD.AperFunction*%
%TD*%
%TO.P,C8,2*%
%TO.N,GND*%
%TA.AperFunction,SMDPad,CuDef*%
G36*
G01*
X154905000Y-93930000D02*
X155855000Y-93930000D01*
G75*
G02*
X156105000Y-94180000I0J-250000D01*
G01*
X156105000Y-94855000D01*
G75*
G02*
X155855000Y-95105000I-250000J0D01*
G01*
X154905000Y-95105000D01*
G75*
G02*
X154655000Y-94855000I0J250000D01*
G01*
X154655000Y-94180000D01*
G75*
G02*
X154905000Y-93930000I250000J0D01*
G01*
G37*
%TD.AperFunction*%
%TO.P,C8,1*%
%TO.N,/D5*%
%TA.AperFunction,SMDPad,CuDef*%
G36*
G01*
X154905000Y-91855000D02*
X155855000Y-91855000D01*
G75*
G02*
X156105000Y-92105000I0J-250000D01*
G01*
X156105000Y-92780000D01*
G75*
G02*
X155855000Y-93030000I-250000J0D01*
G01*
X154905000Y-93030000D01*
G75*
G02*
X154655000Y-92780000I0J250000D01*
G01*
X154655000Y-92105000D01*
G75*
G02*
X154905000Y-91855000I250000J0D01*
G01*
G37*
%TD.AperFunction*%
%TD*%
%TO.P,C7,2*%
%TO.N,GND*%
%TA.AperFunction,SMDPad,CuDef*%
G36*
G01*
X134895000Y-93930000D02*
X135845000Y-93930000D01*
G75*
G02*
X136095000Y-94180000I0J-250000D01*
G01*
X136095000Y-94855000D01*
G75*
G02*
X135845000Y-95105000I-250000J0D01*
G01*
X134895000Y-95105000D01*
G75*
G02*
X134645000Y-94855000I0J250000D01*
G01*
X134645000Y-94180000D01*
G75*
G02*
X134895000Y-93930000I250000J0D01*
G01*
G37*
%TD.AperFunction*%
%TO.P,C7,1*%
%TO.N,/D9*%
%TA.AperFunction,SMDPad,CuDef*%
G36*
G01*
X134895000Y-91855000D02*
X135845000Y-91855000D01*
G75*
G02*
X136095000Y-92105000I0J-250000D01*
G01*
X136095000Y-92780000D01*
G75*
G02*
X135845000Y-93030000I-250000J0D01*
G01*
X134895000Y-93030000D01*
G75*
G02*
X134645000Y-92780000I0J250000D01*
G01*
X134645000Y-92105000D01*
G75*
G02*
X134895000Y-91855000I250000J0D01*
G01*
G37*
%TD.AperFunction*%
%TD*%
%TO.P,C6,2*%
%TO.N,GND*%
%TA.AperFunction,SMDPad,CuDef*%
G36*
G01*
X114885000Y-93930000D02*
X115835000Y-93930000D01*
G75*
G02*
X116085000Y-94180000I0J-250000D01*
G01*
X116085000Y-94855000D01*
G75*
G02*
X115835000Y-95105000I-250000J0D01*
G01*
X114885000Y-95105000D01*
G75*
G02*
X114635000Y-94855000I0J250000D01*
G01*
X114635000Y-94180000D01*
G75*
G02*
X114885000Y-93930000I250000J0D01*
G01*
G37*
%TD.AperFunction*%
%TO.P,C6,1*%
%TO.N,/D12*%
%TA.AperFunction,SMDPad,CuDef*%
G36*
G01*
X114885000Y-91855000D02*
X115835000Y-91855000D01*
G75*
G02*
X116085000Y-92105000I0J-250000D01*
G01*
X116085000Y-92780000D01*
G75*
G02*
X115835000Y-93030000I-250000J0D01*
G01*
X114885000Y-93030000D01*
G75*
G02*
X114635000Y-92780000I0J250000D01*
G01*
X114635000Y-92105000D01*
G75*
G02*
X114885000Y-91855000I250000J0D01*
G01*
G37*
%TD.AperFunction*%
%TD*%
%TO.P,C5,2*%
%TO.N,GND*%
%TA.AperFunction,SMDPad,CuDef*%
G36*
G01*
X194925000Y-74440000D02*
X195875000Y-74440000D01*
G75*
G02*
X196125000Y-74690000I0J-250000D01*
G01*
X196125000Y-75365000D01*
G75*
G02*
X195875000Y-75615000I-250000J0D01*
G01*
X194925000Y-75615000D01*
G75*
G02*
X194675000Y-75365000I0J250000D01*
G01*
X194675000Y-74690000D01*
G75*
G02*
X194925000Y-74440000I250000J0D01*
G01*
G37*
%TD.AperFunction*%
%TO.P,C5,1*%
%TO.N,/A0*%
%TA.AperFunction,SMDPad,CuDef*%
G36*
G01*
X194925000Y-72365000D02*
X195875000Y-72365000D01*
G75*
G02*
X196125000Y-72615000I0J-250000D01*
G01*
X196125000Y-73290000D01*
G75*
G02*
X195875000Y-73540000I-250000J0D01*
G01*
X194925000Y-73540000D01*
G75*
G02*
X194675000Y-73290000I0J250000D01*
G01*
X194675000Y-72615000D01*
G75*
G02*
X194925000Y-72365000I250000J0D01*
G01*
G37*
%TD.AperFunction*%
%TD*%
%TO.P,C4,2*%
%TO.N,GND*%
%TA.AperFunction,SMDPad,CuDef*%
G36*
G01*
X174917500Y-74440000D02*
X175867500Y-74440000D01*
G75*
G02*
X176117500Y-74690000I0J-250000D01*
G01*
X176117500Y-75365000D01*
G75*
G02*
X175867500Y-75615000I-250000J0D01*
G01*
X174917500Y-75615000D01*
G75*
G02*
X174667500Y-75365000I0J250000D01*
G01*
X174667500Y-74690000D01*
G75*
G02*
X174917500Y-74440000I250000J0D01*
G01*
G37*
%TD.AperFunction*%
%TO.P,C4,1*%
%TO.N,/A5*%
%TA.AperFunction,SMDPad,CuDef*%
G36*
G01*
X174917500Y-72365000D02*
X175867500Y-72365000D01*
G75*
G02*
X176117500Y-72615000I0J-250000D01*
G01*
X176117500Y-73290000D01*
G75*
G02*
X175867500Y-73540000I-250000J0D01*
G01*
X174917500Y-73540000D01*
G75*
G02*
X174667500Y-73290000I0J250000D01*
G01*
X174667500Y-72615000D01*
G75*
G02*
X174917500Y-72365000I250000J0D01*
G01*
G37*
%TD.AperFunction*%
%TD*%
%TO.P,C3,2*%
%TO.N,GND*%
%TA.AperFunction,SMDPad,CuDef*%
G36*
G01*
X154910000Y-74440000D02*
X155860000Y-74440000D01*
G75*
G02*
X156110000Y-74690000I0J-250000D01*
G01*
X156110000Y-75365000D01*
G75*
G02*
X155860000Y-75615000I-250000J0D01*
G01*
X154910000Y-75615000D01*
G75*
G02*
X154660000Y-75365000I0J250000D01*
G01*
X154660000Y-74690000D01*
G75*
G02*
X154910000Y-74440000I250000J0D01*
G01*
G37*
%TD.AperFunction*%
%TO.P,C3,1*%
%TO.N,/D2*%
%TA.AperFunction,SMDPad,CuDef*%
G36*
G01*
X154910000Y-72365000D02*
X155860000Y-72365000D01*
G75*
G02*
X156110000Y-72615000I0J-250000D01*
G01*
X156110000Y-73290000D01*
G75*
G02*
X155860000Y-73540000I-250000J0D01*
G01*
X154910000Y-73540000D01*
G75*
G02*
X154660000Y-73290000I0J250000D01*
G01*
X154660000Y-72615000D01*
G75*
G02*
X154910000Y-72365000I250000J0D01*
G01*
G37*
%TD.AperFunction*%
%TD*%
%TO.P,C2,2*%
%TO.N,GND*%
%TA.AperFunction,SMDPad,CuDef*%
G36*
G01*
X134902500Y-74440000D02*
X135852500Y-74440000D01*
G75*
G02*
X136102500Y-74690000I0J-250000D01*
G01*
X136102500Y-75365000D01*
G75*
G02*
X135852500Y-75615000I-250000J0D01*
G01*
X134902500Y-75615000D01*
G75*
G02*
X134652500Y-75365000I0J250000D01*
G01*
X134652500Y-74690000D01*
G75*
G02*
X134902500Y-74440000I250000J0D01*
G01*
G37*
%TD.AperFunction*%
%TO.P,C2,1*%
%TO.N,/D6*%
%TA.AperFunction,SMDPad,CuDef*%
G36*
G01*
X134902500Y-72365000D02*
X135852500Y-72365000D01*
G75*
G02*
X136102500Y-72615000I0J-250000D01*
G01*
X136102500Y-73290000D01*
G75*
G02*
X135852500Y-73540000I-250000J0D01*
G01*
X134902500Y-73540000D01*
G75*
G02*
X134652500Y-73290000I0J250000D01*
G01*
X134652500Y-72615000D01*
G75*
G02*
X134902500Y-72365000I250000J0D01*
G01*
G37*
%TD.AperFunction*%
%TD*%
%TO.P,C1,2*%
%TO.N,GND*%
%TA.AperFunction,SMDPad,CuDef*%
G36*
G01*
X114895000Y-74440000D02*
X115845000Y-74440000D01*
G75*
G02*
X116095000Y-74690000I0J-250000D01*
G01*
X116095000Y-75365000D01*
G75*
G02*
X115845000Y-75615000I-250000J0D01*
G01*
X114895000Y-75615000D01*
G75*
G02*
X114645000Y-75365000I0J250000D01*
G01*
X114645000Y-74690000D01*
G75*
G02*
X114895000Y-74440000I250000J0D01*
G01*
G37*
%TD.AperFunction*%
%TO.P,C1,1*%
%TO.N,/D13*%
%TA.AperFunction,SMDPad,CuDef*%
G36*
G01*
X114895000Y-72365000D02*
X115845000Y-72365000D01*
G75*
G02*
X116095000Y-72615000I0J-250000D01*
G01*
X116095000Y-73290000D01*
G75*
G02*
X115845000Y-73540000I-250000J0D01*
G01*
X114895000Y-73540000D01*
G75*
G02*
X114645000Y-73290000I0J250000D01*
G01*
X114645000Y-72615000D01*
G75*
G02*
X114895000Y-72365000I250000J0D01*
G01*
G37*
%TD.AperFunction*%
%TD*%
D13*
%TO.N,GND*%
X115370000Y-76690000D03*
X135380000Y-76640000D03*
X155380000Y-76700000D03*
X175370000Y-76640000D03*
X195390000Y-76680000D03*
X115350000Y-95970000D03*
X135370000Y-96120000D03*
X155380000Y-96070000D03*
X175390000Y-96080000D03*
X195400000Y-96200000D03*
X115370000Y-115120000D03*
X135370000Y-115250000D03*
X175390000Y-115120000D03*
X195410000Y-115200000D03*
X209480000Y-98960000D03*
%TD*%
D14*
%TO.N,GND*%
X115370000Y-75027500D02*
X115370000Y-76690000D01*
X135377500Y-76637500D02*
X135380000Y-76640000D01*
X135377500Y-75027500D02*
X135377500Y-76637500D01*
X155385000Y-76695000D02*
X155380000Y-76700000D01*
X155385000Y-75027500D02*
X155385000Y-76695000D01*
X175392500Y-76617500D02*
X175370000Y-76640000D01*
X175392500Y-75027500D02*
X175392500Y-76617500D01*
X195400000Y-76670000D02*
X195390000Y-76680000D01*
X195400000Y-75027500D02*
X195400000Y-76670000D01*
X115360000Y-95960000D02*
X115350000Y-95970000D01*
X115360000Y-94517500D02*
X115360000Y-95960000D01*
X135370000Y-94517500D02*
X135370000Y-96120000D01*
X155380000Y-94517500D02*
X155380000Y-96070000D01*
X175390000Y-94517500D02*
X175390000Y-96080000D01*
X195400000Y-94517500D02*
X195400000Y-96200000D01*
X115360000Y-115110000D02*
X115370000Y-115120000D01*
X115360000Y-113487500D02*
X115360000Y-115110000D01*
X135370000Y-113457500D02*
X135370000Y-115250000D01*
X175390000Y-113457500D02*
X175390000Y-115120000D01*
X195400000Y-115190000D02*
X195410000Y-115200000D01*
X195400000Y-113457500D02*
X195400000Y-115190000D01*
X209465000Y-98945000D02*
X209480000Y-98960000D01*
X209465000Y-97020000D02*
X209465000Y-98945000D01*
%TO.N,/D13*%
X113227500Y-72952500D02*
X113220000Y-72960000D01*
X115370000Y-72952500D02*
X113227500Y-72952500D01*
X112500000Y-72240000D02*
X113220000Y-72960000D01*
X112500000Y-66000000D02*
X112500000Y-72240000D01*
%TO.N,Net-(D1-Pad2)*%
X207000000Y-96510000D02*
X206490000Y-97020000D01*
X207000000Y-94440000D02*
X207000000Y-96510000D01*
%TO.N,/D12*%
X115322500Y-92480000D02*
X115360000Y-92442500D01*
X113210000Y-92480000D02*
X115322500Y-92480000D01*
X115000000Y-66000000D02*
X115000000Y-69150000D01*
X115000000Y-69150000D02*
X118410000Y-72560000D01*
X118410000Y-72560000D02*
X118410000Y-91370000D01*
X117337500Y-92442500D02*
X115360000Y-92442500D01*
X118410000Y-91370000D02*
X117337500Y-92442500D01*
%TO.N,/D11*%
X115322500Y-111450000D02*
X115360000Y-111412500D01*
X113210000Y-111450000D02*
X115322500Y-111450000D01*
X119172010Y-72122010D02*
X119172010Y-109367990D01*
X117500000Y-70450000D02*
X119172010Y-72122010D01*
X117500000Y-66000000D02*
X117500000Y-70450000D01*
X117127500Y-111412500D02*
X115360000Y-111412500D01*
X119172010Y-109367990D02*
X117127500Y-111412500D01*
%TO.N,/D10*%
X133307500Y-111382500D02*
X133240000Y-111450000D01*
X135370000Y-111382500D02*
X133307500Y-111382500D01*
X120000000Y-66000000D02*
X120000000Y-107810000D01*
X123640000Y-111450000D02*
X133240000Y-111450000D01*
X120000000Y-107810000D02*
X123640000Y-111450000D01*
%TO.N,/D9*%
X133277500Y-92442500D02*
X133240000Y-92480000D01*
X135370000Y-92442500D02*
X133277500Y-92442500D01*
X127500000Y-66000000D02*
X127500000Y-88900000D01*
X131080000Y-92480000D02*
X133240000Y-92480000D01*
X127500000Y-88900000D02*
X131080000Y-92480000D01*
%TO.N,/D6*%
X133297500Y-72952500D02*
X133270000Y-72980000D01*
X135377500Y-72952500D02*
X133297500Y-72952500D01*
X133270000Y-72980000D02*
X131970000Y-72980000D01*
X130000000Y-71010000D02*
X130000000Y-66000000D01*
X131970000Y-72980000D02*
X130000000Y-71010000D01*
%TO.N,/D5*%
X153307500Y-92442500D02*
X153270000Y-92480000D01*
X155380000Y-92442500D02*
X153307500Y-92442500D01*
X132500000Y-66000000D02*
X132500000Y-67520000D01*
X132500000Y-67520000D02*
X140330000Y-75350000D01*
X140330000Y-75350000D02*
X140330000Y-88720000D01*
X144090000Y-92480000D02*
X153270000Y-92480000D01*
X140330000Y-88720000D02*
X144090000Y-92480000D01*
%TO.N,/D2*%
X153262500Y-72952500D02*
X153260000Y-72950000D01*
X155385000Y-72952500D02*
X153262500Y-72952500D01*
X141950000Y-72950000D02*
X135000000Y-66000000D01*
X153260000Y-72950000D02*
X141950000Y-72950000D01*
%TO.N,/A5*%
X175365000Y-72980000D02*
X175392500Y-72952500D01*
X173270000Y-72980000D02*
X175365000Y-72980000D01*
X174500000Y-72060000D02*
X175392500Y-72952500D01*
X174500000Y-66000000D02*
X174500000Y-72060000D01*
%TO.N,/A4*%
X177000000Y-66000000D02*
X177000000Y-77470000D01*
X177000000Y-77470000D02*
X178790000Y-79260000D01*
X178790000Y-79260000D02*
X178790000Y-90900000D01*
X177247500Y-92442500D02*
X175390000Y-92442500D01*
X178790000Y-90900000D02*
X177247500Y-92442500D01*
X175352500Y-92480000D02*
X175390000Y-92442500D01*
X173300000Y-92480000D02*
X175352500Y-92480000D01*
%TO.N,/A3*%
X175322500Y-111450000D02*
X175390000Y-111382500D01*
X173300000Y-111450000D02*
X175322500Y-111450000D01*
X175390000Y-111382500D02*
X176917500Y-111382500D01*
X176917500Y-111382500D02*
X179870000Y-108430000D01*
X179870000Y-66370000D02*
X179500000Y-66000000D01*
X179870000Y-108430000D02*
X179870000Y-66370000D01*
%TO.N,/A2*%
X193397500Y-111382500D02*
X193330000Y-111450000D01*
X195400000Y-111382500D02*
X193397500Y-111382500D01*
X182000000Y-66000000D02*
X182000000Y-78040000D01*
X182000000Y-78040000D02*
X180990000Y-79050000D01*
X180990000Y-79050000D02*
X180990000Y-108680000D01*
X183760000Y-111450000D02*
X193330000Y-111450000D01*
X180990000Y-108680000D02*
X183760000Y-111450000D01*
%TO.N,/A1*%
X189500000Y-66000000D02*
X189500000Y-90200000D01*
X191780000Y-92480000D02*
X193330000Y-92480000D01*
X189500000Y-90200000D02*
X191780000Y-92480000D01*
X193367500Y-92442500D02*
X193330000Y-92480000D01*
X195400000Y-92442500D02*
X193367500Y-92442500D01*
%TO.N,/A0*%
X192000000Y-71590000D02*
X193330000Y-72920000D01*
X192000000Y-66000000D02*
X192000000Y-71590000D01*
X193362500Y-72952500D02*
X193330000Y-72920000D01*
X195400000Y-72952500D02*
X193362500Y-72952500D01*
D15*
%TO.N,Net-(J4-Pad2)*%
X194500000Y-66000000D02*
X194500000Y-64220000D01*
X212870000Y-80120000D02*
X210980000Y-82010000D01*
X210980000Y-82010000D02*
X208000000Y-82010000D01*
X212870000Y-74280000D02*
X212870000Y-80120000D01*
X210140000Y-71550000D02*
X212870000Y-74280000D01*
X206330000Y-71550000D02*
X210140000Y-71550000D01*
X203560000Y-68780000D02*
X206330000Y-71550000D01*
X203560000Y-64870000D02*
X203560000Y-68780000D01*
X201260000Y-62570000D02*
X203560000Y-64870000D01*
X196150000Y-62570000D02*
X201260000Y-62570000D01*
X194500000Y-64220000D02*
X196150000Y-62570000D01*
D14*
%TO.N,+3V3*%
X208000000Y-93440000D02*
X209000000Y-94440000D01*
X208000000Y-86710000D02*
X208000000Y-93440000D01*
%TO.N,Net-(R1-Pad1)*%
X113220000Y-77680000D02*
X116350000Y-80810000D01*
X113220000Y-74960000D02*
X113220000Y-77680000D01*
%TO.N,Net-(R2-Pad1)*%
X133270000Y-77730000D02*
X136350000Y-80810000D01*
X133270000Y-74980000D02*
X133270000Y-77730000D01*
%TO.N,Net-(R3-Pad1)*%
X153260000Y-77720000D02*
X156350000Y-80810000D01*
X153260000Y-74950000D02*
X153260000Y-77720000D01*
%TO.N,Net-(R11-Pad2)*%
X173270000Y-77730000D02*
X176350000Y-80810000D01*
X173270000Y-74980000D02*
X173270000Y-77730000D01*
%TO.N,Net-(R12-Pad2)*%
X193330000Y-77790000D02*
X196350000Y-80810000D01*
X193330000Y-74920000D02*
X193330000Y-77790000D01*
%TO.N,Net-(R13-Pad2)*%
X113210000Y-96670000D02*
X116350000Y-99810000D01*
X113210000Y-94480000D02*
X113210000Y-96670000D01*
%TO.N,Net-(R10-Pad1)*%
X133240000Y-96700000D02*
X136350000Y-99810000D01*
X133240000Y-94480000D02*
X133240000Y-96700000D01*
%TO.N,Net-(R16-Pad1)*%
X153270000Y-96730000D02*
X156350000Y-99810000D01*
X153270000Y-94480000D02*
X153270000Y-96730000D01*
%TO.N,Net-(R17-Pad1)*%
X173300000Y-96760000D02*
X176350000Y-99810000D01*
X173300000Y-94480000D02*
X173300000Y-96760000D01*
%TO.N,Net-(R18-Pad1)*%
X193330000Y-96790000D02*
X196350000Y-99810000D01*
X193330000Y-94480000D02*
X193330000Y-96790000D01*
%TO.N,Net-(R19-Pad1)*%
X113210000Y-115670000D02*
X116350000Y-118810000D01*
X113210000Y-113450000D02*
X113210000Y-115670000D01*
%TO.N,Net-(R24-Pad1)*%
X133240000Y-115700000D02*
X136350000Y-118810000D01*
X133240000Y-113450000D02*
X133240000Y-115700000D01*
%TO.N,Net-(R25-Pad1)*%
X173300000Y-115760000D02*
X176350000Y-118810000D01*
X173300000Y-113450000D02*
X173300000Y-115760000D01*
%TO.N,Net-(R26-Pad1)*%
X193330000Y-115790000D02*
X196350000Y-118810000D01*
X193330000Y-113450000D02*
X193330000Y-115790000D01*
%TD*%
M02*
