%TF.GenerationSoftware,KiCad,Pcbnew,(5.1.8)-1*%
%TF.CreationDate,2021-11-17T13:18:44-05:00*%
%TF.ProjectId,impedance_measurement,696d7065-6461-46e6-9365-5f6d65617375,rev?*%
%TF.SameCoordinates,Original*%
%TF.FileFunction,Soldermask,Bot*%
%TF.FilePolarity,Negative*%
%FSLAX46Y46*%
G04 Gerber Fmt 4.6, Leading zero omitted, Abs format (unit mm)*
G04 Created by KiCad (PCBNEW (5.1.8)-1) date 2021-11-17 13:18:44*
%MOMM*%
%LPD*%
G01*
G04 APERTURE LIST*
%ADD10O,1.000000X1.000000*%
%ADD11R,1.000000X1.000000*%
G04 APERTURE END LIST*
%TO.C,R10*%
G36*
G01*
X122060000Y-115680000D02*
X122060000Y-116000000D01*
G75*
G02*
X121900000Y-116160000I-160000J0D01*
G01*
X121505000Y-116160000D01*
G75*
G02*
X121345000Y-116000000I0J160000D01*
G01*
X121345000Y-115680000D01*
G75*
G02*
X121505000Y-115520000I160000J0D01*
G01*
X121900000Y-115520000D01*
G75*
G02*
X122060000Y-115680000I0J-160000D01*
G01*
G37*
G36*
G01*
X123255000Y-115680000D02*
X123255000Y-116000000D01*
G75*
G02*
X123095000Y-116160000I-160000J0D01*
G01*
X122700000Y-116160000D01*
G75*
G02*
X122540000Y-116000000I0J160000D01*
G01*
X122540000Y-115680000D01*
G75*
G02*
X122700000Y-115520000I160000J0D01*
G01*
X123095000Y-115520000D01*
G75*
G02*
X123255000Y-115680000I0J-160000D01*
G01*
G37*
%TD*%
%TO.C,R9*%
G36*
G01*
X128320000Y-118010000D02*
X128320000Y-117690000D01*
G75*
G02*
X128480000Y-117530000I160000J0D01*
G01*
X128875000Y-117530000D01*
G75*
G02*
X129035000Y-117690000I0J-160000D01*
G01*
X129035000Y-118010000D01*
G75*
G02*
X128875000Y-118170000I-160000J0D01*
G01*
X128480000Y-118170000D01*
G75*
G02*
X128320000Y-118010000I0J160000D01*
G01*
G37*
G36*
G01*
X127125000Y-118010000D02*
X127125000Y-117690000D01*
G75*
G02*
X127285000Y-117530000I160000J0D01*
G01*
X127680000Y-117530000D01*
G75*
G02*
X127840000Y-117690000I0J-160000D01*
G01*
X127840000Y-118010000D01*
G75*
G02*
X127680000Y-118170000I-160000J0D01*
G01*
X127285000Y-118170000D01*
G75*
G02*
X127125000Y-118010000I0J160000D01*
G01*
G37*
%TD*%
%TO.C,R7*%
G36*
G01*
X125797158Y-115116568D02*
X126023432Y-115342842D01*
G75*
G02*
X126023432Y-115569116I-113137J-113137D01*
G01*
X125744124Y-115848424D01*
G75*
G02*
X125517850Y-115848424I-113137J113137D01*
G01*
X125291576Y-115622150D01*
G75*
G02*
X125291576Y-115395876I113137J113137D01*
G01*
X125570884Y-115116568D01*
G75*
G02*
X125797158Y-115116568I113137J-113137D01*
G01*
G37*
G36*
G01*
X126642150Y-114271576D02*
X126868424Y-114497850D01*
G75*
G02*
X126868424Y-114724124I-113137J-113137D01*
G01*
X126589116Y-115003432D01*
G75*
G02*
X126362842Y-115003432I-113137J113137D01*
G01*
X126136568Y-114777158D01*
G75*
G02*
X126136568Y-114550884I113137J113137D01*
G01*
X126415876Y-114271576D01*
G75*
G02*
X126642150Y-114271576I113137J-113137D01*
G01*
G37*
%TD*%
D10*
%TO.C,J4*%
X134540000Y-122440000D03*
X134540000Y-121170000D03*
X133270000Y-122440000D03*
X133270000Y-121170000D03*
X132000000Y-122440000D03*
X132000000Y-121170000D03*
X130730000Y-122440000D03*
X130730000Y-121170000D03*
X129460000Y-122440000D03*
D11*
X129460000Y-121170000D03*
%TD*%
D10*
%TO.C,J3*%
X135810000Y-109820000D03*
X135810000Y-108550000D03*
X134540000Y-109820000D03*
X134540000Y-108550000D03*
X133270000Y-109820000D03*
X133270000Y-108550000D03*
X132000000Y-109820000D03*
X132000000Y-108550000D03*
X130730000Y-109820000D03*
X130730000Y-108550000D03*
X129460000Y-109820000D03*
X129460000Y-108550000D03*
X128190000Y-109820000D03*
D11*
X128190000Y-108550000D03*
%TD*%
%TO.C,C6*%
G36*
G01*
X127525000Y-105252500D02*
X127525000Y-105727500D01*
G75*
G02*
X127287500Y-105965000I-237500J0D01*
G01*
X126687500Y-105965000D01*
G75*
G02*
X126450000Y-105727500I0J237500D01*
G01*
X126450000Y-105252500D01*
G75*
G02*
X126687500Y-105015000I237500J0D01*
G01*
X127287500Y-105015000D01*
G75*
G02*
X127525000Y-105252500I0J-237500D01*
G01*
G37*
G36*
G01*
X129250000Y-105252500D02*
X129250000Y-105727500D01*
G75*
G02*
X129012500Y-105965000I-237500J0D01*
G01*
X128412500Y-105965000D01*
G75*
G02*
X128175000Y-105727500I0J237500D01*
G01*
X128175000Y-105252500D01*
G75*
G02*
X128412500Y-105015000I237500J0D01*
G01*
X129012500Y-105015000D01*
G75*
G02*
X129250000Y-105252500I0J-237500D01*
G01*
G37*
%TD*%
M02*
