M48
; DRILL file {KiCad (5.1.8)-1} date 11/17/21 13:18:46
; FORMAT={-:-/ absolute / inch / decimal}
; #@! TF.CreationDate,2021-11-17T13:18:46-05:00
; #@! TF.GenerationSoftware,Kicad,Pcbnew,(5.1.8)-1
; #@! TF.FileFunction,Plated,1,2,PTH
FMAT,2
INCH
T1C0.0110
T2C0.0130
T3C0.0256
%
G90
G05
T1
X4.7709Y-4.4157
X4.7744Y-4.2855
X4.7874Y-4.5984
X4.8303Y-4.1547
X4.8307Y-4.5984
X4.839Y-4.3535
X4.8764Y-4.0969
X4.878Y-4.5748
X4.9016Y-4.5984
X4.9055Y-4.685
X4.9059Y-4.3819
X4.9366Y-4.2047
X4.9374Y-4.2319
X5.0232Y-4.4835
X5.0386Y-4.2157
X5.1398Y-4.0134
X5.1398Y-4.0496
X5.1398Y-4.0764
X5.1402Y-3.987
X5.1681Y-4.1602
X5.178Y-3.987
X5.1783Y-4.0134
X5.1783Y-4.0496
X5.1783Y-4.0764
X5.2233Y-4.4174
X5.2839Y-4.2169
X5.298Y-4.1098
X5.335Y-4.5803
X5.4894Y-4.6185
X5.5028Y-4.0134
X5.5028Y-4.0496
X5.5028Y-4.0764
X5.5035Y-3.987
X5.5201Y-4.3299
X5.5327Y-4.6551
X5.5409Y-3.987
X5.5413Y-4.0134
X5.5413Y-4.0496
X5.5413Y-4.0764
X5.5638Y-4.2618
T2
X4.952Y-4.1531
T3
X5.0969Y-4.7705
X5.0969Y-4.8205
X5.1469Y-4.7705
X5.1469Y-4.8205
X5.1969Y-4.7705
X5.1969Y-4.8205
X5.2469Y-4.7705
X5.2469Y-4.8205
X5.2969Y-4.7705
X5.2969Y-4.8205
X5.0469Y-4.2736
X5.0469Y-4.3236
X5.0969Y-4.2736
X5.0969Y-4.3236
X5.1469Y-4.2736
X5.1469Y-4.3236
X5.1969Y-4.2736
X5.1969Y-4.3236
X5.2469Y-4.2736
X5.2469Y-4.3236
X5.2969Y-4.2736
X5.2969Y-4.3236
X5.3469Y-4.2736
X5.3469Y-4.3236
T0
M30
