%TF.GenerationSoftware,KiCad,Pcbnew,(5.1.8)-1*%
%TF.CreationDate,2021-11-17T13:18:44-05:00*%
%TF.ProjectId,impedance_measurement,696d7065-6461-46e6-9365-5f6d65617375,rev?*%
%TF.SameCoordinates,Original*%
%TF.FileFunction,Copper,L1,Top*%
%TF.FilePolarity,Positive*%
%FSLAX46Y46*%
G04 Gerber Fmt 4.6, Leading zero omitted, Abs format (unit mm)*
G04 Created by KiCad (PCBNEW (5.1.8)-1) date 2021-11-17 13:18:44*
%MOMM*%
%LPD*%
G01*
G04 APERTURE LIST*
%TA.AperFunction,SMDPad,CuDef*%
%ADD10R,1.000000X0.400000*%
%TD*%
%TA.AperFunction,SMDPad,CuDef*%
%ADD11R,0.650000X1.220000*%
%TD*%
%TA.AperFunction,SMDPad,CuDef*%
%ADD12R,1.970000X0.600000*%
%TD*%
%TA.AperFunction,ComponentPad*%
%ADD13O,1.000000X1.000000*%
%TD*%
%TA.AperFunction,ComponentPad*%
%ADD14R,1.000000X1.000000*%
%TD*%
%TA.AperFunction,SMDPad,CuDef*%
%ADD15R,1.200000X1.000000*%
%TD*%
%TA.AperFunction,SMDPad,CuDef*%
%ADD16R,1.500000X1.200000*%
%TD*%
%TA.AperFunction,SMDPad,CuDef*%
%ADD17R,1.900000X0.480000*%
%TD*%
%TA.AperFunction,ViaPad*%
%ADD18C,0.508000*%
%TD*%
%TA.AperFunction,ViaPad*%
%ADD19C,0.635000*%
%TD*%
%TA.AperFunction,Conductor*%
%ADD20C,0.508000*%
%TD*%
%TA.AperFunction,Conductor*%
%ADD21C,0.152400*%
%TD*%
%TA.AperFunction,Conductor*%
%ADD22C,0.381000*%
%TD*%
%TA.AperFunction,Conductor*%
%ADD23C,0.254000*%
%TD*%
%TA.AperFunction,Conductor*%
%ADD24C,0.304800*%
%TD*%
%TA.AperFunction,Conductor*%
%ADD25C,0.076200*%
%TD*%
%TA.AperFunction,Conductor*%
%ADD26C,0.100000*%
%TD*%
G04 APERTURE END LIST*
%TO.P,C9,2*%
%TO.N,VDD*%
%TA.AperFunction,SMDPad,CuDef*%
G36*
G01*
X132455000Y-105927500D02*
X132455000Y-105452500D01*
G75*
G02*
X132692500Y-105215000I237500J0D01*
G01*
X133292500Y-105215000D01*
G75*
G02*
X133530000Y-105452500I0J-237500D01*
G01*
X133530000Y-105927500D01*
G75*
G02*
X133292500Y-106165000I-237500J0D01*
G01*
X132692500Y-106165000D01*
G75*
G02*
X132455000Y-105927500I0J237500D01*
G01*
G37*
%TD.AperFunction*%
%TO.P,C9,1*%
%TO.N,GND*%
%TA.AperFunction,SMDPad,CuDef*%
G36*
G01*
X130730000Y-105927500D02*
X130730000Y-105452500D01*
G75*
G02*
X130967500Y-105215000I237500J0D01*
G01*
X131567500Y-105215000D01*
G75*
G02*
X131805000Y-105452500I0J-237500D01*
G01*
X131805000Y-105927500D01*
G75*
G02*
X131567500Y-106165000I-237500J0D01*
G01*
X130967500Y-106165000D01*
G75*
G02*
X130730000Y-105927500I0J237500D01*
G01*
G37*
%TD.AperFunction*%
%TD*%
D10*
%TO.P,S1,6*%
%TO.N,/SIG_OUT_probe*%
X136470000Y-105040000D03*
%TO.P,S1,5*%
%TO.N,/SIG_OUT*%
X136470000Y-105690000D03*
%TO.P,S1,4*%
%TO.N,Net-(R11-Pad1)*%
X136470000Y-106340000D03*
%TO.P,S1,3*%
%TO.N,GND*%
X134570000Y-106340000D03*
%TO.P,S1,2*%
%TO.N,VDD*%
X134570000Y-105690000D03*
%TO.P,S1,1*%
%TO.N,/Cali_switch*%
X134570000Y-105040000D03*
%TD*%
%TO.P,R11,2*%
%TO.N,/SIG_IN*%
%TA.AperFunction,SMDPad,CuDef*%
G36*
G01*
X139500000Y-106790001D02*
X139500000Y-105889999D01*
G75*
G02*
X139749999Y-105640000I249999J0D01*
G01*
X140450001Y-105640000D01*
G75*
G02*
X140700000Y-105889999I0J-249999D01*
G01*
X140700000Y-106790001D01*
G75*
G02*
X140450001Y-107040000I-249999J0D01*
G01*
X139749999Y-107040000D01*
G75*
G02*
X139500000Y-106790001I0J249999D01*
G01*
G37*
%TD.AperFunction*%
%TO.P,R11,1*%
%TO.N,Net-(R11-Pad1)*%
%TA.AperFunction,SMDPad,CuDef*%
G36*
G01*
X137500000Y-106790001D02*
X137500000Y-105889999D01*
G75*
G02*
X137749999Y-105640000I249999J0D01*
G01*
X138450001Y-105640000D01*
G75*
G02*
X138700000Y-105889999I0J-249999D01*
G01*
X138700000Y-106790001D01*
G75*
G02*
X138450001Y-107040000I-249999J0D01*
G01*
X137749999Y-107040000D01*
G75*
G02*
X137500000Y-106790001I0J249999D01*
G01*
G37*
%TD.AperFunction*%
%TD*%
%TO.P,C3,2*%
%TO.N,+3V0*%
%TA.AperFunction,SMDPad,CuDef*%
G36*
G01*
X141082500Y-109445000D02*
X141557500Y-109445000D01*
G75*
G02*
X141795000Y-109682500I0J-237500D01*
G01*
X141795000Y-110282500D01*
G75*
G02*
X141557500Y-110520000I-237500J0D01*
G01*
X141082500Y-110520000D01*
G75*
G02*
X140845000Y-110282500I0J237500D01*
G01*
X140845000Y-109682500D01*
G75*
G02*
X141082500Y-109445000I237500J0D01*
G01*
G37*
%TD.AperFunction*%
%TO.P,C3,1*%
%TO.N,GND*%
%TA.AperFunction,SMDPad,CuDef*%
G36*
G01*
X141082500Y-107720000D02*
X141557500Y-107720000D01*
G75*
G02*
X141795000Y-107957500I0J-237500D01*
G01*
X141795000Y-108557500D01*
G75*
G02*
X141557500Y-108795000I-237500J0D01*
G01*
X141082500Y-108795000D01*
G75*
G02*
X140845000Y-108557500I0J237500D01*
G01*
X140845000Y-107957500D01*
G75*
G02*
X141082500Y-107720000I237500J0D01*
G01*
G37*
%TD.AperFunction*%
%TD*%
%TO.P,R6,2*%
%TO.N,/VIN*%
%TA.AperFunction,SMDPad,CuDef*%
G36*
G01*
X132430000Y-116190000D02*
X132110000Y-116190000D01*
G75*
G02*
X131950000Y-116030000I0J160000D01*
G01*
X131950000Y-115635000D01*
G75*
G02*
X132110000Y-115475000I160000J0D01*
G01*
X132430000Y-115475000D01*
G75*
G02*
X132590000Y-115635000I0J-160000D01*
G01*
X132590000Y-116030000D01*
G75*
G02*
X132430000Y-116190000I-160000J0D01*
G01*
G37*
%TD.AperFunction*%
%TO.P,R6,1*%
%TO.N,Net-(R6-Pad1)*%
%TA.AperFunction,SMDPad,CuDef*%
G36*
G01*
X132430000Y-117385000D02*
X132110000Y-117385000D01*
G75*
G02*
X131950000Y-117225000I0J160000D01*
G01*
X131950000Y-116830000D01*
G75*
G02*
X132110000Y-116670000I160000J0D01*
G01*
X132430000Y-116670000D01*
G75*
G02*
X132590000Y-116830000I0J-160000D01*
G01*
X132590000Y-117225000D01*
G75*
G02*
X132430000Y-117385000I-160000J0D01*
G01*
G37*
%TD.AperFunction*%
%TD*%
%TO.P,R5,2*%
%TO.N,/VIN*%
%TA.AperFunction,SMDPad,CuDef*%
G36*
G01*
X131220000Y-116190000D02*
X130900000Y-116190000D01*
G75*
G02*
X130740000Y-116030000I0J160000D01*
G01*
X130740000Y-115635000D01*
G75*
G02*
X130900000Y-115475000I160000J0D01*
G01*
X131220000Y-115475000D01*
G75*
G02*
X131380000Y-115635000I0J-160000D01*
G01*
X131380000Y-116030000D01*
G75*
G02*
X131220000Y-116190000I-160000J0D01*
G01*
G37*
%TD.AperFunction*%
%TO.P,R5,1*%
%TO.N,Net-(R5-Pad1)*%
%TA.AperFunction,SMDPad,CuDef*%
G36*
G01*
X131220000Y-117385000D02*
X130900000Y-117385000D01*
G75*
G02*
X130740000Y-117225000I0J160000D01*
G01*
X130740000Y-116830000D01*
G75*
G02*
X130900000Y-116670000I160000J0D01*
G01*
X131220000Y-116670000D01*
G75*
G02*
X131380000Y-116830000I0J-160000D01*
G01*
X131380000Y-117225000D01*
G75*
G02*
X131220000Y-117385000I-160000J0D01*
G01*
G37*
%TD.AperFunction*%
%TD*%
%TO.P,R4,2*%
%TO.N,Net-(C5-Pad1)*%
%TA.AperFunction,SMDPad,CuDef*%
G36*
G01*
X133770000Y-115410000D02*
X133770000Y-115730000D01*
G75*
G02*
X133610000Y-115890000I-160000J0D01*
G01*
X133215000Y-115890000D01*
G75*
G02*
X133055000Y-115730000I0J160000D01*
G01*
X133055000Y-115410000D01*
G75*
G02*
X133215000Y-115250000I160000J0D01*
G01*
X133610000Y-115250000D01*
G75*
G02*
X133770000Y-115410000I0J-160000D01*
G01*
G37*
%TD.AperFunction*%
%TO.P,R4,1*%
%TO.N,GND*%
%TA.AperFunction,SMDPad,CuDef*%
G36*
G01*
X134965000Y-115410000D02*
X134965000Y-115730000D01*
G75*
G02*
X134805000Y-115890000I-160000J0D01*
G01*
X134410000Y-115890000D01*
G75*
G02*
X134250000Y-115730000I0J160000D01*
G01*
X134250000Y-115410000D01*
G75*
G02*
X134410000Y-115250000I160000J0D01*
G01*
X134805000Y-115250000D01*
G75*
G02*
X134965000Y-115410000I0J-160000D01*
G01*
G37*
%TD.AperFunction*%
%TD*%
%TO.P,R3,2*%
%TO.N,+3V0*%
%TA.AperFunction,SMDPad,CuDef*%
G36*
G01*
X131820000Y-113250000D02*
X131820000Y-113570000D01*
G75*
G02*
X131660000Y-113730000I-160000J0D01*
G01*
X131265000Y-113730000D01*
G75*
G02*
X131105000Y-113570000I0J160000D01*
G01*
X131105000Y-113250000D01*
G75*
G02*
X131265000Y-113090000I160000J0D01*
G01*
X131660000Y-113090000D01*
G75*
G02*
X131820000Y-113250000I0J-160000D01*
G01*
G37*
%TD.AperFunction*%
%TO.P,R3,1*%
%TO.N,Net-(C5-Pad1)*%
%TA.AperFunction,SMDPad,CuDef*%
G36*
G01*
X133015000Y-113250000D02*
X133015000Y-113570000D01*
G75*
G02*
X132855000Y-113730000I-160000J0D01*
G01*
X132460000Y-113730000D01*
G75*
G02*
X132300000Y-113570000I0J160000D01*
G01*
X132300000Y-113250000D01*
G75*
G02*
X132460000Y-113090000I160000J0D01*
G01*
X132855000Y-113090000D01*
G75*
G02*
X133015000Y-113250000I0J-160000D01*
G01*
G37*
%TD.AperFunction*%
%TD*%
%TO.P,R2,2*%
%TO.N,/INB_P*%
%TA.AperFunction,SMDPad,CuDef*%
G36*
G01*
X140680000Y-117400000D02*
X140360000Y-117400000D01*
G75*
G02*
X140200000Y-117240000I0J160000D01*
G01*
X140200000Y-116845000D01*
G75*
G02*
X140360000Y-116685000I160000J0D01*
G01*
X140680000Y-116685000D01*
G75*
G02*
X140840000Y-116845000I0J-160000D01*
G01*
X140840000Y-117240000D01*
G75*
G02*
X140680000Y-117400000I-160000J0D01*
G01*
G37*
%TD.AperFunction*%
%TO.P,R2,1*%
%TO.N,GND*%
%TA.AperFunction,SMDPad,CuDef*%
G36*
G01*
X140680000Y-118595000D02*
X140360000Y-118595000D01*
G75*
G02*
X140200000Y-118435000I0J160000D01*
G01*
X140200000Y-118040000D01*
G75*
G02*
X140360000Y-117880000I160000J0D01*
G01*
X140680000Y-117880000D01*
G75*
G02*
X140840000Y-118040000I0J-160000D01*
G01*
X140840000Y-118435000D01*
G75*
G02*
X140680000Y-118595000I-160000J0D01*
G01*
G37*
%TD.AperFunction*%
%TD*%
%TO.P,R1,2*%
%TO.N,+3V0*%
%TA.AperFunction,SMDPad,CuDef*%
G36*
G01*
X141660000Y-117880000D02*
X141980000Y-117880000D01*
G75*
G02*
X142140000Y-118040000I0J-160000D01*
G01*
X142140000Y-118435000D01*
G75*
G02*
X141980000Y-118595000I-160000J0D01*
G01*
X141660000Y-118595000D01*
G75*
G02*
X141500000Y-118435000I0J160000D01*
G01*
X141500000Y-118040000D01*
G75*
G02*
X141660000Y-117880000I160000J0D01*
G01*
G37*
%TD.AperFunction*%
%TO.P,R1,1*%
%TO.N,/INB_P*%
%TA.AperFunction,SMDPad,CuDef*%
G36*
G01*
X141660000Y-116685000D02*
X141980000Y-116685000D01*
G75*
G02*
X142140000Y-116845000I0J-160000D01*
G01*
X142140000Y-117240000D01*
G75*
G02*
X141980000Y-117400000I-160000J0D01*
G01*
X141660000Y-117400000D01*
G75*
G02*
X141500000Y-117240000I0J160000D01*
G01*
X141500000Y-116845000D01*
G75*
G02*
X141660000Y-116685000I160000J0D01*
G01*
G37*
%TD.AperFunction*%
%TD*%
%TO.P,C5,2*%
%TO.N,Net-(C5-Pad2)*%
%TA.AperFunction,SMDPad,CuDef*%
G36*
G01*
X131890000Y-114425000D02*
X131890000Y-114735000D01*
G75*
G02*
X131735000Y-114890000I-155000J0D01*
G01*
X131310000Y-114890000D01*
G75*
G02*
X131155000Y-114735000I0J155000D01*
G01*
X131155000Y-114425000D01*
G75*
G02*
X131310000Y-114270000I155000J0D01*
G01*
X131735000Y-114270000D01*
G75*
G02*
X131890000Y-114425000I0J-155000D01*
G01*
G37*
%TD.AperFunction*%
%TO.P,C5,1*%
%TO.N,Net-(C5-Pad1)*%
%TA.AperFunction,SMDPad,CuDef*%
G36*
G01*
X133025000Y-114425000D02*
X133025000Y-114735000D01*
G75*
G02*
X132870000Y-114890000I-155000J0D01*
G01*
X132445000Y-114890000D01*
G75*
G02*
X132290000Y-114735000I0J155000D01*
G01*
X132290000Y-114425000D01*
G75*
G02*
X132445000Y-114270000I155000J0D01*
G01*
X132870000Y-114270000D01*
G75*
G02*
X133025000Y-114425000I0J-155000D01*
G01*
G37*
%TD.AperFunction*%
%TD*%
D11*
%TO.P,U3,5*%
%TO.N,+3V0*%
X126330000Y-109760000D03*
%TO.P,U3,4*%
%TO.N,N/C*%
X124430000Y-109760000D03*
%TO.P,U3,3*%
%TO.N,+3V3*%
X124430000Y-107140000D03*
%TO.P,U3,2*%
%TO.N,GND*%
X125380000Y-107140000D03*
%TO.P,U3,1*%
%TO.N,+3V3*%
X126330000Y-107140000D03*
%TD*%
D12*
%TO.P,U1,8*%
%TO.N,+3V0*%
X141315000Y-111755000D03*
%TO.P,U1,7*%
%TO.N,Net-(R6-Pad1)*%
X141315000Y-113025000D03*
%TO.P,U1,6*%
%TO.N,/SIG_IN*%
X141315000Y-114295000D03*
%TO.P,U1,5*%
%TO.N,/INB_P*%
X141315000Y-115565000D03*
%TO.P,U1,4*%
%TO.N,GND*%
X136365000Y-115565000D03*
%TO.P,U1,3*%
%TO.N,Net-(C5-Pad1)*%
X136365000Y-114295000D03*
%TO.P,U1,2*%
%TO.N,/SIG_OUT*%
X136365000Y-113025000D03*
%TO.P,U1,1*%
X136365000Y-111755000D03*
%TD*%
%TO.P,R8,2*%
%TO.N,Net-(R6-Pad1)*%
%TA.AperFunction,SMDPad,CuDef*%
G36*
G01*
X134315000Y-117852500D02*
X134315000Y-118327500D01*
G75*
G02*
X134077500Y-118565000I-237500J0D01*
G01*
X133577500Y-118565000D01*
G75*
G02*
X133340000Y-118327500I0J237500D01*
G01*
X133340000Y-117852500D01*
G75*
G02*
X133577500Y-117615000I237500J0D01*
G01*
X134077500Y-117615000D01*
G75*
G02*
X134315000Y-117852500I0J-237500D01*
G01*
G37*
%TD.AperFunction*%
%TO.P,R8,1*%
%TO.N,/SIG_IN*%
%TA.AperFunction,SMDPad,CuDef*%
G36*
G01*
X136140000Y-117852500D02*
X136140000Y-118327500D01*
G75*
G02*
X135902500Y-118565000I-237500J0D01*
G01*
X135402500Y-118565000D01*
G75*
G02*
X135165000Y-118327500I0J237500D01*
G01*
X135165000Y-117852500D01*
G75*
G02*
X135402500Y-117615000I237500J0D01*
G01*
X135902500Y-117615000D01*
G75*
G02*
X136140000Y-117852500I0J-237500D01*
G01*
G37*
%TD.AperFunction*%
%TD*%
D13*
%TO.P,J4,10*%
%TO.N,N/C*%
X134540000Y-122440000D03*
%TO.P,J4,9*%
X134540000Y-121170000D03*
%TO.P,J4,8*%
X133270000Y-122440000D03*
%TO.P,J4,7*%
X133270000Y-121170000D03*
%TO.P,J4,6*%
X132000000Y-122440000D03*
%TO.P,J4,5*%
X132000000Y-121170000D03*
%TO.P,J4,4*%
%TO.N,/SDA*%
X130730000Y-122440000D03*
%TO.P,J4,3*%
%TO.N,N/C*%
X130730000Y-121170000D03*
%TO.P,J4,2*%
%TO.N,/SCL*%
X129460000Y-122440000D03*
D14*
%TO.P,J4,1*%
%TO.N,N/C*%
X129460000Y-121170000D03*
%TD*%
D13*
%TO.P,J3,14*%
%TO.N,N/C*%
X135810000Y-109820000D03*
%TO.P,J3,13*%
X135810000Y-108550000D03*
%TO.P,J3,12*%
X134540000Y-109820000D03*
%TO.P,J3,11*%
X134540000Y-108550000D03*
%TO.P,J3,10*%
%TO.N,/Cali_switch*%
X133270000Y-109820000D03*
%TO.P,J3,9*%
%TO.N,N/C*%
X133270000Y-108550000D03*
%TO.P,J3,8*%
X132000000Y-109820000D03*
%TO.P,J3,7*%
X132000000Y-108550000D03*
%TO.P,J3,6*%
X130730000Y-109820000D03*
%TO.P,J3,5*%
X130730000Y-108550000D03*
%TO.P,J3,4*%
X129460000Y-109820000D03*
%TO.P,J3,3*%
X129460000Y-108550000D03*
%TO.P,J3,2*%
%TO.N,+3V3*%
X128190000Y-109820000D03*
D14*
%TO.P,J3,1*%
%TO.N,GND*%
X128190000Y-108550000D03*
%TD*%
D15*
%TO.P,J2,1*%
%TO.N,/SIG_IN*%
X138670000Y-102400000D03*
D16*
%TO.P,J2,2*%
%TO.N,GND*%
X140260000Y-103200000D03*
X140260000Y-101600000D03*
%TD*%
D15*
%TO.P,J1,1*%
%TO.N,/SIG_OUT_probe*%
X132630000Y-102400000D03*
D16*
%TO.P,J1,2*%
%TO.N,GND*%
X131040000Y-101600000D03*
X131040000Y-103200000D03*
%TD*%
%TO.P,FB1,2*%
%TO.N,+3V3*%
%TA.AperFunction,SMDPad,CuDef*%
G36*
G01*
X123087500Y-107675000D02*
X122612500Y-107675000D01*
G75*
G02*
X122375000Y-107437500I0J237500D01*
G01*
X122375000Y-106837500D01*
G75*
G02*
X122612500Y-106600000I237500J0D01*
G01*
X123087500Y-106600000D01*
G75*
G02*
X123325000Y-106837500I0J-237500D01*
G01*
X123325000Y-107437500D01*
G75*
G02*
X123087500Y-107675000I-237500J0D01*
G01*
G37*
%TD.AperFunction*%
%TO.P,FB1,1*%
%TO.N,VDD*%
%TA.AperFunction,SMDPad,CuDef*%
G36*
G01*
X123087500Y-109400000D02*
X122612500Y-109400000D01*
G75*
G02*
X122375000Y-109162500I0J237500D01*
G01*
X122375000Y-108562500D01*
G75*
G02*
X122612500Y-108325000I237500J0D01*
G01*
X123087500Y-108325000D01*
G75*
G02*
X123325000Y-108562500I0J-237500D01*
G01*
X123325000Y-109162500D01*
G75*
G02*
X123087500Y-109400000I-237500J0D01*
G01*
G37*
%TD.AperFunction*%
%TD*%
%TO.P,C8,2*%
%TO.N,+3V0*%
%TA.AperFunction,SMDPad,CuDef*%
G36*
G01*
X125785000Y-111527500D02*
X125785000Y-111052500D01*
G75*
G02*
X126022500Y-110815000I237500J0D01*
G01*
X126622500Y-110815000D01*
G75*
G02*
X126860000Y-111052500I0J-237500D01*
G01*
X126860000Y-111527500D01*
G75*
G02*
X126622500Y-111765000I-237500J0D01*
G01*
X126022500Y-111765000D01*
G75*
G02*
X125785000Y-111527500I0J237500D01*
G01*
G37*
%TD.AperFunction*%
%TO.P,C8,1*%
%TO.N,GND*%
%TA.AperFunction,SMDPad,CuDef*%
G36*
G01*
X124060000Y-111527500D02*
X124060000Y-111052500D01*
G75*
G02*
X124297500Y-110815000I237500J0D01*
G01*
X124897500Y-110815000D01*
G75*
G02*
X125135000Y-111052500I0J-237500D01*
G01*
X125135000Y-111527500D01*
G75*
G02*
X124897500Y-111765000I-237500J0D01*
G01*
X124297500Y-111765000D01*
G75*
G02*
X124060000Y-111527500I0J237500D01*
G01*
G37*
%TD.AperFunction*%
%TD*%
%TO.P,C7,2*%
%TO.N,+3V3*%
%TA.AperFunction,SMDPad,CuDef*%
G36*
G01*
X123855000Y-105767500D02*
X123855000Y-105292500D01*
G75*
G02*
X124092500Y-105055000I237500J0D01*
G01*
X124692500Y-105055000D01*
G75*
G02*
X124930000Y-105292500I0J-237500D01*
G01*
X124930000Y-105767500D01*
G75*
G02*
X124692500Y-106005000I-237500J0D01*
G01*
X124092500Y-106005000D01*
G75*
G02*
X123855000Y-105767500I0J237500D01*
G01*
G37*
%TD.AperFunction*%
%TO.P,C7,1*%
%TO.N,GND*%
%TA.AperFunction,SMDPad,CuDef*%
G36*
G01*
X122130000Y-105767500D02*
X122130000Y-105292500D01*
G75*
G02*
X122367500Y-105055000I237500J0D01*
G01*
X122967500Y-105055000D01*
G75*
G02*
X123205000Y-105292500I0J-237500D01*
G01*
X123205000Y-105767500D01*
G75*
G02*
X122967500Y-106005000I-237500J0D01*
G01*
X122367500Y-106005000D01*
G75*
G02*
X122130000Y-105767500I0J237500D01*
G01*
G37*
%TD.AperFunction*%
%TD*%
%TO.P,C4,2*%
%TO.N,+3V0*%
%TA.AperFunction,SMDPad,CuDef*%
G36*
G01*
X122365000Y-112397500D02*
X122365000Y-111922500D01*
G75*
G02*
X122602500Y-111685000I237500J0D01*
G01*
X123202500Y-111685000D01*
G75*
G02*
X123440000Y-111922500I0J-237500D01*
G01*
X123440000Y-112397500D01*
G75*
G02*
X123202500Y-112635000I-237500J0D01*
G01*
X122602500Y-112635000D01*
G75*
G02*
X122365000Y-112397500I0J237500D01*
G01*
G37*
%TD.AperFunction*%
%TO.P,C4,1*%
%TO.N,GND*%
%TA.AperFunction,SMDPad,CuDef*%
G36*
G01*
X120640000Y-112397500D02*
X120640000Y-111922500D01*
G75*
G02*
X120877500Y-111685000I237500J0D01*
G01*
X121477500Y-111685000D01*
G75*
G02*
X121715000Y-111922500I0J-237500D01*
G01*
X121715000Y-112397500D01*
G75*
G02*
X121477500Y-112635000I-237500J0D01*
G01*
X120877500Y-112635000D01*
G75*
G02*
X120640000Y-112397500I0J237500D01*
G01*
G37*
%TD.AperFunction*%
%TD*%
%TO.P,C2,2*%
%TO.N,VDD*%
%TA.AperFunction,SMDPad,CuDef*%
G36*
G01*
X121022500Y-108305000D02*
X121497500Y-108305000D01*
G75*
G02*
X121735000Y-108542500I0J-237500D01*
G01*
X121735000Y-109142500D01*
G75*
G02*
X121497500Y-109380000I-237500J0D01*
G01*
X121022500Y-109380000D01*
G75*
G02*
X120785000Y-109142500I0J237500D01*
G01*
X120785000Y-108542500D01*
G75*
G02*
X121022500Y-108305000I237500J0D01*
G01*
G37*
%TD.AperFunction*%
%TO.P,C2,1*%
%TO.N,GND*%
%TA.AperFunction,SMDPad,CuDef*%
G36*
G01*
X121022500Y-106580000D02*
X121497500Y-106580000D01*
G75*
G02*
X121735000Y-106817500I0J-237500D01*
G01*
X121735000Y-107417500D01*
G75*
G02*
X121497500Y-107655000I-237500J0D01*
G01*
X121022500Y-107655000D01*
G75*
G02*
X120785000Y-107417500I0J237500D01*
G01*
X120785000Y-106817500D01*
G75*
G02*
X121022500Y-106580000I237500J0D01*
G01*
G37*
%TD.AperFunction*%
%TD*%
%TO.P,C1,2*%
%TO.N,VDD*%
%TA.AperFunction,SMDPad,CuDef*%
G36*
G01*
X121715000Y-110312500D02*
X121715000Y-110787500D01*
G75*
G02*
X121477500Y-111025000I-237500J0D01*
G01*
X120877500Y-111025000D01*
G75*
G02*
X120640000Y-110787500I0J237500D01*
G01*
X120640000Y-110312500D01*
G75*
G02*
X120877500Y-110075000I237500J0D01*
G01*
X121477500Y-110075000D01*
G75*
G02*
X121715000Y-110312500I0J-237500D01*
G01*
G37*
%TD.AperFunction*%
%TO.P,C1,1*%
%TO.N,GND*%
%TA.AperFunction,SMDPad,CuDef*%
G36*
G01*
X123440000Y-110312500D02*
X123440000Y-110787500D01*
G75*
G02*
X123202500Y-111025000I-237500J0D01*
G01*
X122602500Y-111025000D01*
G75*
G02*
X122365000Y-110787500I0J237500D01*
G01*
X122365000Y-110312500D01*
G75*
G02*
X122602500Y-110075000I237500J0D01*
G01*
X123202500Y-110075000D01*
G75*
G02*
X123440000Y-110312500I0J-237500D01*
G01*
G37*
%TD.AperFunction*%
%TD*%
D17*
%TO.P,U2,1*%
%TO.N,N/C*%
X129115000Y-118435000D03*
%TO.P,U2,2*%
X129115000Y-117785000D03*
%TO.P,U2,3*%
X129115000Y-117135000D03*
%TO.P,U2,4*%
%TO.N,Net-(R5-Pad1)*%
X129115000Y-116485000D03*
%TO.P,U2,5*%
%TO.N,/VIN*%
X129115000Y-115835000D03*
%TO.P,U2,6*%
%TO.N,Net-(C5-Pad2)*%
X129115000Y-115185000D03*
%TO.P,U2,7*%
%TO.N,N/C*%
X129115000Y-114535000D03*
%TO.P,U2,8*%
%TO.N,Net-(R7-Pad1)*%
X129115000Y-113885000D03*
%TO.P,U2,9*%
%TO.N,VDD*%
X122105000Y-113885000D03*
%TO.P,U2,10*%
%TO.N,+3V0*%
X122105000Y-114535000D03*
%TO.P,U2,11*%
X122105000Y-115185000D03*
%TO.P,U2,12*%
%TO.N,GNDREF*%
X122105000Y-115835000D03*
%TO.P,U2,13*%
%TO.N,GND*%
X122105000Y-116485000D03*
%TO.P,U2,14*%
X122105000Y-117135000D03*
%TO.P,U2,15*%
%TO.N,/SDA*%
X122105000Y-117785000D03*
%TO.P,U2,16*%
%TO.N,/SCL*%
X122105000Y-118435000D03*
%TD*%
D18*
%TO.N,GND*%
X140530000Y-118240000D03*
X141320000Y-108250000D03*
X121180000Y-112160000D03*
X124610000Y-111300000D03*
X122910000Y-110580000D03*
X122690000Y-105530000D03*
X125410000Y-107490000D03*
X125390000Y-106800000D03*
X131270000Y-105670000D03*
X130550000Y-103540000D03*
X131530000Y-103540000D03*
X131530000Y-102860000D03*
X130550000Y-102860000D03*
X130550000Y-101940000D03*
X131530000Y-101940000D03*
X131520000Y-101270000D03*
X130560000Y-101270000D03*
X139770000Y-103540000D03*
X140750000Y-103540000D03*
X140750000Y-102860000D03*
X139770000Y-102860000D03*
X139770000Y-101940000D03*
X140750000Y-101940000D03*
X140740000Y-101270000D03*
X139790000Y-101270000D03*
%TO.N,/Cali_switch*%
X134570000Y-104390000D03*
X127980000Y-107080000D03*
%TO.N,VDD*%
X121268750Y-108851250D03*
X123860000Y-104060000D03*
%TO.N,GND*%
X134210000Y-107110000D03*
X135510000Y-116340000D03*
X122700000Y-116800000D03*
X121600000Y-116800000D03*
%TO.N,+3V0*%
X139430000Y-117310000D03*
X132671250Y-112201250D03*
X140210000Y-109980000D03*
D19*
%TO.N,+3V3*%
X125780000Y-105490000D03*
D18*
%TO.N,GNDREF*%
X123900000Y-116200000D03*
X124500000Y-116800000D03*
%TO.N,/SDA*%
X124600000Y-119000000D03*
%TO.N,Net-(R7-Pad1)*%
X127590000Y-113880000D03*
%TD*%
D20*
%TO.N,GND*%
X121260000Y-107117500D02*
X121260000Y-106960000D01*
X121260000Y-106960000D02*
X122690000Y-105530000D01*
D21*
%TO.N,/Cali_switch*%
X127120000Y-110190000D02*
X127120000Y-107940000D01*
X127120000Y-107940000D02*
X127980000Y-107080000D01*
X127730000Y-110800000D02*
X127120000Y-110190000D01*
X132290000Y-110800000D02*
X127730000Y-110800000D01*
X133270000Y-109820000D02*
X132290000Y-110800000D01*
X134570000Y-105040000D02*
X134570000Y-104390000D01*
D22*
%TO.N,VDD*%
X121280000Y-108862500D02*
X121268750Y-108851250D01*
X122850000Y-108862500D02*
X121280000Y-108862500D01*
X121260000Y-110467500D02*
X121177500Y-110550000D01*
X121260000Y-108842500D02*
X121260000Y-110467500D01*
D23*
X134570000Y-105690000D02*
X132992500Y-105690000D01*
D22*
X121268750Y-108851250D02*
X121260000Y-108842500D01*
D24*
X127020000Y-103970000D02*
X123950000Y-103970000D01*
X123950000Y-103970000D02*
X123860000Y-104060000D01*
X129840000Y-106790000D02*
X127020000Y-103970000D01*
X132680000Y-106790000D02*
X129840000Y-106790000D01*
X132992500Y-106477500D02*
X132680000Y-106790000D01*
X132992500Y-105690000D02*
X132992500Y-106477500D01*
X121177500Y-110550000D02*
X122040000Y-111412500D01*
X122040000Y-111412500D02*
X122040000Y-113820000D01*
X122040000Y-113820000D02*
X122105000Y-113885000D01*
%TO.N,GND*%
X134570000Y-106340000D02*
X134570000Y-106750000D01*
X134570000Y-106750000D02*
X134210000Y-107110000D01*
X134607500Y-115570000D02*
X134740000Y-115570000D01*
X134740000Y-115570000D02*
X135510000Y-116340000D01*
X136285000Y-115565000D02*
X135510000Y-116340000D01*
X136365000Y-115565000D02*
X136285000Y-115565000D01*
D22*
%TO.N,+3V0*%
X126330000Y-111282500D02*
X126322500Y-111290000D01*
X126330000Y-109760000D02*
X126330000Y-111282500D01*
X125452500Y-112160000D02*
X126322500Y-111290000D01*
X122902500Y-112160000D02*
X125452500Y-112160000D01*
X122105000Y-114535000D02*
X122105000Y-115185000D01*
X122105000Y-114535000D02*
X123495000Y-114535000D01*
X123930000Y-114100000D02*
X123930000Y-113187500D01*
X123930000Y-113187500D02*
X122902500Y-112160000D01*
X123495000Y-114535000D02*
X123930000Y-114100000D01*
D23*
X141820000Y-118237500D02*
X141820000Y-118960000D01*
X141330000Y-119450000D02*
X140200000Y-119450000D01*
X139430000Y-117310000D02*
X139430000Y-118680000D01*
X139430000Y-118680000D02*
X140200000Y-119450000D01*
X141820000Y-118960000D02*
X141330000Y-119450000D01*
X131462500Y-113410000D02*
X132671250Y-112201250D01*
X141325000Y-111755000D02*
X141325000Y-109987500D01*
X140210000Y-109980000D02*
X141317500Y-109980000D01*
X141317500Y-109980000D02*
X141320000Y-109982500D01*
D22*
X129342500Y-111290000D02*
X131462500Y-113410000D01*
X126322500Y-111290000D02*
X129342500Y-111290000D01*
D21*
%TO.N,Net-(C5-Pad2)*%
X130917500Y-115185000D02*
X131522500Y-114580000D01*
X129115000Y-115185000D02*
X130917500Y-115185000D01*
%TO.N,Net-(C5-Pad1)*%
X132657500Y-114580000D02*
X132657500Y-113410000D01*
X132657500Y-114815000D02*
X133412500Y-115570000D01*
X132657500Y-114580000D02*
X132657500Y-114815000D01*
X134687500Y-114295000D02*
X133412500Y-115570000D01*
X136365000Y-114295000D02*
X134687500Y-114295000D01*
%TO.N,+3V3*%
X125777500Y-105492500D02*
X125780000Y-105490000D01*
D22*
X124430000Y-105492500D02*
X125777500Y-105492500D01*
X124430000Y-105492500D02*
X124430000Y-107140000D01*
X124430000Y-107140000D02*
X124430000Y-107940000D01*
X126030000Y-108230000D02*
X126330000Y-107930000D01*
X126330000Y-107930000D02*
X126330000Y-107140000D01*
X124720000Y-108230000D02*
X126030000Y-108230000D01*
X124430000Y-107940000D02*
X124720000Y-108230000D01*
D21*
X124427500Y-107137500D02*
X124430000Y-107140000D01*
D20*
X122850000Y-107137500D02*
X124427500Y-107137500D01*
D21*
%TO.N,/SIG_OUT*%
X136365000Y-111755000D02*
X136365000Y-113025000D01*
X136470000Y-105690000D02*
X135790000Y-105690000D01*
X135790000Y-105690000D02*
X135530000Y-105950000D01*
X135530000Y-105950000D02*
X135530000Y-106900000D01*
X135530000Y-106900000D02*
X136070000Y-107440000D01*
X136070000Y-107440000D02*
X136700000Y-107440000D01*
X136700000Y-107440000D02*
X137300000Y-108040000D01*
X137300000Y-110820000D02*
X136365000Y-111755000D01*
X137300000Y-108040000D02*
X137300000Y-110820000D01*
%TO.N,/SIG_IN*%
X141315000Y-114295000D02*
X139575000Y-114295000D01*
X139575000Y-114295000D02*
X138370000Y-115500000D01*
X138370000Y-115500000D02*
X138370000Y-117080000D01*
X137360000Y-118090000D02*
X135652500Y-118090000D01*
X138370000Y-117080000D02*
X137360000Y-118090000D01*
X138670000Y-104910000D02*
X140100000Y-106340000D01*
X138670000Y-102400000D02*
X138670000Y-104910000D01*
X141315000Y-114295000D02*
X142725000Y-114295000D01*
X142725000Y-114295000D02*
X143090000Y-113930000D01*
X143090000Y-113930000D02*
X143090000Y-107480000D01*
X141950000Y-106340000D02*
X140100000Y-106340000D01*
X143090000Y-107480000D02*
X141950000Y-106340000D01*
D22*
%TO.N,GNDREF*%
X123900000Y-116200000D02*
X124500000Y-116800000D01*
X122105000Y-115835000D02*
X123535000Y-115835000D01*
X123535000Y-115835000D02*
X123900000Y-116200000D01*
D21*
%TO.N,/SCL*%
X122105000Y-118435000D02*
X122105000Y-119825000D01*
X124720000Y-122440000D02*
X129460000Y-122440000D01*
X122105000Y-119825000D02*
X124720000Y-122440000D01*
%TO.N,/SDA*%
X123385000Y-117785000D02*
X122105000Y-117785000D01*
X124600000Y-119000000D02*
X123385000Y-117785000D01*
%TO.N,/INB_P*%
X140520000Y-117042500D02*
X141820000Y-117042500D01*
X141820000Y-116070000D02*
X141315000Y-115565000D01*
X141820000Y-117042500D02*
X141820000Y-116070000D01*
%TO.N,/VIN*%
X131057500Y-115835000D02*
X131060000Y-115832500D01*
X129115000Y-115835000D02*
X131057500Y-115835000D01*
X131060000Y-115832500D02*
X132270000Y-115832500D01*
%TO.N,Net-(R5-Pad1)*%
X130517500Y-116485000D02*
X131060000Y-117027500D01*
X129115000Y-116485000D02*
X130517500Y-116485000D01*
%TO.N,Net-(R6-Pad1)*%
X132765000Y-117027500D02*
X133827500Y-118090000D01*
X132270000Y-117027500D02*
X132765000Y-117027500D01*
X141315000Y-113025000D02*
X139185000Y-113025000D01*
X139185000Y-113025000D02*
X137810000Y-114400000D01*
X137810000Y-114400000D02*
X137810000Y-116150000D01*
X137810000Y-116150000D02*
X137020000Y-116940000D01*
X134977500Y-116940000D02*
X133827500Y-118090000D01*
X137020000Y-116940000D02*
X134977500Y-116940000D01*
%TO.N,Net-(R7-Pad1)*%
X127595000Y-113885000D02*
X127590000Y-113880000D01*
X129115000Y-113885000D02*
X127595000Y-113885000D01*
%TO.N,/SIG_OUT_probe*%
X136470000Y-105040000D02*
X136470000Y-103780000D01*
X135090000Y-102400000D02*
X132630000Y-102400000D01*
X136470000Y-103780000D02*
X135090000Y-102400000D01*
%TO.N,Net-(R11-Pad1)*%
X136470000Y-106340000D02*
X138100000Y-106340000D01*
%TD*%
D25*
%TO.N,GND*%
X122961900Y-117261900D02*
X121238100Y-117261900D01*
X121238100Y-116338100D01*
X122961900Y-116338100D01*
X122961900Y-117261900D01*
%TA.AperFunction,Conductor*%
D26*
G36*
X122961900Y-117261900D02*
G01*
X121238100Y-117261900D01*
X121238100Y-116338100D01*
X122961900Y-116338100D01*
X122961900Y-117261900D01*
G37*
%TD.AperFunction*%
%TD*%
M02*
