%TF.GenerationSoftware,KiCad,Pcbnew,(5.1.8)-1*%
%TF.CreationDate,2021-09-09T14:13:13-04:00*%
%TF.ProjectId,IR_TEMP_V1,49525f54-454d-4505-9f56-312e6b696361,rev?*%
%TF.SameCoordinates,Original*%
%TF.FileFunction,Copper,L2,Bot*%
%TF.FilePolarity,Positive*%
%FSLAX46Y46*%
G04 Gerber Fmt 4.6, Leading zero omitted, Abs format (unit mm)*
G04 Created by KiCad (PCBNEW (5.1.8)-1) date 2021-09-09 14:13:13*
%MOMM*%
%LPD*%
G01*
G04 APERTURE LIST*
%TA.AperFunction,ComponentPad*%
%ADD10C,1.100000*%
%TD*%
%TA.AperFunction,ComponentPad*%
%ADD11R,1.100000X1.100000*%
%TD*%
%TA.AperFunction,ViaPad*%
%ADD12C,0.508000*%
%TD*%
%TA.AperFunction,Conductor*%
%ADD13C,0.152400*%
%TD*%
%TA.AperFunction,Conductor*%
%ADD14C,0.076200*%
%TD*%
%TA.AperFunction,Conductor*%
%ADD15C,0.100000*%
%TD*%
G04 APERTURE END LIST*
%TO.P,R3,2*%
%TO.N,/A0*%
%TA.AperFunction,SMDPad,CuDef*%
G36*
G01*
X182432500Y-56915000D02*
X182907500Y-56915000D01*
G75*
G02*
X183145000Y-57152500I0J-237500D01*
G01*
X183145000Y-57652500D01*
G75*
G02*
X182907500Y-57890000I-237500J0D01*
G01*
X182432500Y-57890000D01*
G75*
G02*
X182195000Y-57652500I0J237500D01*
G01*
X182195000Y-57152500D01*
G75*
G02*
X182432500Y-56915000I237500J0D01*
G01*
G37*
%TD.AperFunction*%
%TO.P,R3,1*%
%TO.N,/A1*%
%TA.AperFunction,SMDPad,CuDef*%
G36*
G01*
X182432500Y-55090000D02*
X182907500Y-55090000D01*
G75*
G02*
X183145000Y-55327500I0J-237500D01*
G01*
X183145000Y-55827500D01*
G75*
G02*
X182907500Y-56065000I-237500J0D01*
G01*
X182432500Y-56065000D01*
G75*
G02*
X182195000Y-55827500I0J237500D01*
G01*
X182195000Y-55327500D01*
G75*
G02*
X182432500Y-55090000I237500J0D01*
G01*
G37*
%TD.AperFunction*%
%TD*%
%TO.P,C6,2*%
%TO.N,/CMOUT*%
%TA.AperFunction,SMDPad,CuDef*%
G36*
G01*
X183972500Y-56815000D02*
X184447500Y-56815000D01*
G75*
G02*
X184685000Y-57052500I0J-237500D01*
G01*
X184685000Y-57652500D01*
G75*
G02*
X184447500Y-57890000I-237500J0D01*
G01*
X183972500Y-57890000D01*
G75*
G02*
X183735000Y-57652500I0J237500D01*
G01*
X183735000Y-57052500D01*
G75*
G02*
X183972500Y-56815000I237500J0D01*
G01*
G37*
%TD.AperFunction*%
%TO.P,C6,1*%
%TO.N,/A1*%
%TA.AperFunction,SMDPad,CuDef*%
G36*
G01*
X183972500Y-55090000D02*
X184447500Y-55090000D01*
G75*
G02*
X184685000Y-55327500I0J-237500D01*
G01*
X184685000Y-55927500D01*
G75*
G02*
X184447500Y-56165000I-237500J0D01*
G01*
X183972500Y-56165000D01*
G75*
G02*
X183735000Y-55927500I0J237500D01*
G01*
X183735000Y-55327500D01*
G75*
G02*
X183972500Y-55090000I237500J0D01*
G01*
G37*
%TD.AperFunction*%
%TD*%
D10*
%TO.P,U1,4*%
%TO.N,/CMOUT*%
X183648022Y-60731978D03*
%TO.P,U1,3*%
%TO.N,/Thermistor*%
X181851978Y-60731978D03*
%TO.P,U1,2*%
%TO.N,Net-(C3-Pad2)*%
X181851978Y-62528022D03*
D11*
%TO.P,U1,1*%
%TO.N,GND*%
X183648022Y-62528022D03*
%TD*%
D10*
%TO.P,J1,10*%
%TO.N,N/C*%
X180490000Y-52800000D03*
%TO.P,J1,9*%
%TO.N,+3V3*%
X180490000Y-51530000D03*
%TO.P,J1,8*%
%TO.N,N/C*%
X181760000Y-52800000D03*
%TO.P,J1,7*%
%TO.N,/Temp_A*%
X181760000Y-51530000D03*
%TO.P,J1,6*%
%TO.N,/SCLK*%
X183030000Y-52800000D03*
%TO.P,J1,5*%
%TO.N,/SPICS*%
X183030000Y-51530000D03*
%TO.P,J1,4*%
%TO.N,/MOSI*%
X184300000Y-52800000D03*
%TO.P,J1,3*%
%TO.N,N/C*%
X184300000Y-51530000D03*
%TO.P,J1,2*%
X185570000Y-52800000D03*
D11*
%TO.P,J1,1*%
%TO.N,GND*%
X185570000Y-51530000D03*
%TD*%
D12*
%TO.N,+3V3*%
X178690000Y-55270000D03*
X178110000Y-59332500D03*
%TO.N,GND*%
X183650000Y-53840000D03*
X183660000Y-54600000D03*
X187360000Y-50920000D03*
X187340000Y-53520000D03*
X180670000Y-61560000D03*
X185720000Y-62810000D03*
X178080000Y-50570000D03*
X187920000Y-61170000D03*
%TO.N,Net-(C3-Pad2)*%
X187960000Y-59830000D03*
%TO.N,/CMOUT*%
X185070000Y-57370000D03*
%TO.N,/Temp_A*%
X178480000Y-58500000D03*
%TO.N,/A1*%
X185220000Y-55880000D03*
%TO.N,/SPICS*%
X178980000Y-51960000D03*
X180572000Y-56460000D03*
%TO.N,/A0*%
X185300000Y-56720000D03*
%TD*%
D13*
%TO.N,+3V3*%
X178690000Y-57030000D02*
X178690000Y-55270000D01*
X178690000Y-57030000D02*
X178690000Y-57390000D01*
X177997399Y-58731649D02*
X177997399Y-58082601D01*
X177997399Y-58082601D02*
X178690000Y-57390000D01*
X178110000Y-58844250D02*
X177997399Y-58731649D01*
X178110000Y-59332500D02*
X178110000Y-58844250D01*
%TO.N,Net-(C3-Pad2)*%
X186230000Y-61560000D02*
X187960000Y-59830000D01*
X182820000Y-61560000D02*
X186230000Y-61560000D01*
X181851978Y-62528022D02*
X182820000Y-61560000D01*
%TO.N,/CMOUT*%
X184227500Y-57370000D02*
X184210000Y-57352500D01*
X185070000Y-57370000D02*
X184227500Y-57370000D01*
X184210000Y-60170000D02*
X183648022Y-60731978D01*
X184210000Y-57352500D02*
X184210000Y-60170000D01*
%TO.N,/Temp_A*%
X181760000Y-51530000D02*
X181760000Y-51220000D01*
X181760000Y-51220000D02*
X181210000Y-50670000D01*
X178480000Y-58500000D02*
X179030000Y-58500000D01*
X179030000Y-58500000D02*
X179240000Y-58290000D01*
X179240000Y-58290000D02*
X179240000Y-54530000D01*
X179240000Y-54530000D02*
X178200000Y-53490000D01*
X178200000Y-53490000D02*
X178200000Y-51450000D01*
X178980000Y-50670000D02*
X181210000Y-50670000D01*
X178200000Y-51450000D02*
X178980000Y-50670000D01*
%TO.N,/A1*%
X184160000Y-55577500D02*
X184210000Y-55627500D01*
X182670000Y-55577500D02*
X184160000Y-55577500D01*
X184967500Y-55627500D02*
X185220000Y-55880000D01*
X184210000Y-55627500D02*
X184967500Y-55627500D01*
%TO.N,/SPICS*%
X178980000Y-52980000D02*
X178980000Y-51960000D01*
X180572000Y-54572000D02*
X178980000Y-52980000D01*
X180572000Y-56460000D02*
X180572000Y-54572000D01*
%TO.N,/A0*%
X182670000Y-57402500D02*
X183572500Y-56500000D01*
X185080000Y-56500000D02*
X185300000Y-56720000D01*
X183572500Y-56500000D02*
X185080000Y-56500000D01*
%TD*%
D14*
%TO.N,GND*%
X188284501Y-59525883D02*
X188243352Y-59484734D01*
X188170550Y-59436089D01*
X188089656Y-59402582D01*
X188003779Y-59385500D01*
X187916221Y-59385500D01*
X187830344Y-59402582D01*
X187749450Y-59436089D01*
X187676648Y-59484734D01*
X187614734Y-59546648D01*
X187566089Y-59619450D01*
X187532582Y-59700344D01*
X187515500Y-59786221D01*
X187515500Y-59873779D01*
X187519407Y-59893422D01*
X186119530Y-61293300D01*
X184133925Y-61293300D01*
X184223206Y-61204019D01*
X184304245Y-61082736D01*
X184360065Y-60947974D01*
X184388522Y-60804911D01*
X184388522Y-60659045D01*
X184360065Y-60515982D01*
X184325247Y-60431924D01*
X184389321Y-60367850D01*
X184399498Y-60359498D01*
X184432826Y-60318887D01*
X184457590Y-60272555D01*
X184472841Y-60222282D01*
X184476700Y-60183098D01*
X184476700Y-60183096D01*
X184477990Y-60170000D01*
X184476700Y-60156904D01*
X184476700Y-58078545D01*
X184531178Y-58073179D01*
X184611641Y-58048771D01*
X184685796Y-58009135D01*
X184750793Y-57955793D01*
X184804135Y-57890796D01*
X184843771Y-57816641D01*
X184859731Y-57764027D01*
X184940344Y-57797418D01*
X185026221Y-57814500D01*
X185113779Y-57814500D01*
X185199656Y-57797418D01*
X185280550Y-57763911D01*
X185353352Y-57715266D01*
X185415266Y-57653352D01*
X185463911Y-57580550D01*
X185497418Y-57499656D01*
X185514500Y-57413779D01*
X185514500Y-57326221D01*
X185497418Y-57240344D01*
X185463911Y-57159450D01*
X185450189Y-57138913D01*
X185510550Y-57113911D01*
X185583352Y-57065266D01*
X185645266Y-57003352D01*
X185693911Y-56930550D01*
X185727418Y-56849656D01*
X185744500Y-56763779D01*
X185744500Y-56676221D01*
X185727418Y-56590344D01*
X185693911Y-56509450D01*
X185645266Y-56436648D01*
X185583352Y-56374734D01*
X185510550Y-56326089D01*
X185429656Y-56292582D01*
X185399808Y-56286645D01*
X185430550Y-56273911D01*
X185503352Y-56225266D01*
X185565266Y-56163352D01*
X185613911Y-56090550D01*
X185647418Y-56009656D01*
X185664500Y-55923779D01*
X185664500Y-55836221D01*
X185647418Y-55750344D01*
X185613911Y-55669450D01*
X185565266Y-55596648D01*
X185503352Y-55534734D01*
X185430550Y-55486089D01*
X185349656Y-55452582D01*
X185263779Y-55435500D01*
X185176221Y-55435500D01*
X185157930Y-55439138D01*
X185156998Y-55438002D01*
X185116387Y-55404674D01*
X185070055Y-55379910D01*
X185019782Y-55364659D01*
X184980598Y-55360800D01*
X184980596Y-55360800D01*
X184967500Y-55359510D01*
X184954404Y-55360800D01*
X184876421Y-55360800D01*
X184876421Y-55327500D01*
X184868179Y-55243822D01*
X184843771Y-55163359D01*
X184804135Y-55089204D01*
X184750793Y-55024207D01*
X184685796Y-54970865D01*
X184611641Y-54931229D01*
X184531178Y-54906821D01*
X184447500Y-54898579D01*
X183972500Y-54898579D01*
X183888822Y-54906821D01*
X183808359Y-54931229D01*
X183734204Y-54970865D01*
X183669207Y-55024207D01*
X183615865Y-55089204D01*
X183576229Y-55163359D01*
X183551821Y-55243822D01*
X183545224Y-55310800D01*
X183334776Y-55310800D01*
X183328179Y-55243822D01*
X183303771Y-55163359D01*
X183264135Y-55089204D01*
X183210793Y-55024207D01*
X183145796Y-54970865D01*
X183071641Y-54931229D01*
X182991178Y-54906821D01*
X182907500Y-54898579D01*
X182432500Y-54898579D01*
X182348822Y-54906821D01*
X182268359Y-54931229D01*
X182194204Y-54970865D01*
X182129207Y-55024207D01*
X182075865Y-55089204D01*
X182036229Y-55163359D01*
X182011821Y-55243822D01*
X182003579Y-55327500D01*
X182003579Y-55827500D01*
X182011821Y-55911178D01*
X182036229Y-55991641D01*
X182075865Y-56065796D01*
X182129207Y-56130793D01*
X182194204Y-56184135D01*
X182268359Y-56223771D01*
X182348822Y-56248179D01*
X182432500Y-56256421D01*
X182907500Y-56256421D01*
X182991178Y-56248179D01*
X183071641Y-56223771D01*
X183145796Y-56184135D01*
X183210793Y-56130793D01*
X183264135Y-56065796D01*
X183303771Y-55991641D01*
X183328179Y-55911178D01*
X183334776Y-55844200D01*
X183543579Y-55844200D01*
X183543579Y-55927500D01*
X183551821Y-56011178D01*
X183576229Y-56091641D01*
X183615865Y-56165796D01*
X183669207Y-56230793D01*
X183672262Y-56233300D01*
X183585596Y-56233300D01*
X183572500Y-56232010D01*
X183559404Y-56233300D01*
X183559402Y-56233300D01*
X183520218Y-56237159D01*
X183485195Y-56247784D01*
X183469944Y-56252410D01*
X183445180Y-56265647D01*
X183423613Y-56277174D01*
X183383002Y-56310502D01*
X183374650Y-56320679D01*
X182965989Y-56729340D01*
X182907500Y-56723579D01*
X182432500Y-56723579D01*
X182348822Y-56731821D01*
X182268359Y-56756229D01*
X182194204Y-56795865D01*
X182129207Y-56849207D01*
X182075865Y-56914204D01*
X182036229Y-56988359D01*
X182011821Y-57068822D01*
X182003579Y-57152500D01*
X182003579Y-57652500D01*
X182011821Y-57736178D01*
X182036229Y-57816641D01*
X182075865Y-57890796D01*
X182129207Y-57955793D01*
X182194204Y-58009135D01*
X182268359Y-58048771D01*
X182348822Y-58073179D01*
X182432500Y-58081421D01*
X182907500Y-58081421D01*
X182991178Y-58073179D01*
X183071641Y-58048771D01*
X183145796Y-58009135D01*
X183210793Y-57955793D01*
X183264135Y-57890796D01*
X183303771Y-57816641D01*
X183328179Y-57736178D01*
X183336421Y-57652500D01*
X183336421Y-57152500D01*
X183332902Y-57116769D01*
X183593357Y-56856313D01*
X183576229Y-56888359D01*
X183551821Y-56968822D01*
X183543579Y-57052500D01*
X183543579Y-57652500D01*
X183551821Y-57736178D01*
X183576229Y-57816641D01*
X183615865Y-57890796D01*
X183669207Y-57955793D01*
X183734204Y-58009135D01*
X183808359Y-58048771D01*
X183888822Y-58073179D01*
X183943300Y-58078545D01*
X183943301Y-60052775D01*
X183864018Y-60019935D01*
X183720955Y-59991478D01*
X183575089Y-59991478D01*
X183432026Y-60019935D01*
X183297264Y-60075755D01*
X183175981Y-60156794D01*
X183072838Y-60259937D01*
X182991799Y-60381220D01*
X182935979Y-60515982D01*
X182907522Y-60659045D01*
X182907522Y-60804911D01*
X182935979Y-60947974D01*
X182991799Y-61082736D01*
X183072838Y-61204019D01*
X183162119Y-61293300D01*
X182833096Y-61293300D01*
X182820000Y-61292010D01*
X182806904Y-61293300D01*
X182806902Y-61293300D01*
X182767718Y-61297159D01*
X182732695Y-61307784D01*
X182717444Y-61312410D01*
X182692680Y-61325647D01*
X182671113Y-61337174D01*
X182630502Y-61370502D01*
X182622152Y-61380677D01*
X182152032Y-61850797D01*
X182067974Y-61815979D01*
X181924911Y-61787522D01*
X181779045Y-61787522D01*
X181635982Y-61815979D01*
X181501220Y-61871799D01*
X181379937Y-61952838D01*
X181276794Y-62055981D01*
X181195755Y-62177264D01*
X181139935Y-62312026D01*
X181111478Y-62455089D01*
X181111478Y-62600955D01*
X181139935Y-62744018D01*
X181195755Y-62878780D01*
X181276794Y-63000063D01*
X181379937Y-63103206D01*
X181501220Y-63184245D01*
X181635982Y-63240065D01*
X181779045Y-63268522D01*
X181924911Y-63268522D01*
X182067974Y-63240065D01*
X182202736Y-63184245D01*
X182324019Y-63103206D01*
X182349203Y-63078022D01*
X182804509Y-63078022D01*
X182810149Y-63135284D01*
X182826851Y-63190345D01*
X182853975Y-63241089D01*
X182890477Y-63285567D01*
X182934955Y-63322069D01*
X182985699Y-63349193D01*
X183040760Y-63365895D01*
X183098022Y-63371535D01*
X183486097Y-63370122D01*
X183559122Y-63297097D01*
X183559122Y-62616922D01*
X183736922Y-62616922D01*
X183736922Y-63297097D01*
X183809947Y-63370122D01*
X184198022Y-63371535D01*
X184255284Y-63365895D01*
X184310345Y-63349193D01*
X184361089Y-63322069D01*
X184405567Y-63285567D01*
X184442069Y-63241089D01*
X184469193Y-63190345D01*
X184485895Y-63135284D01*
X184491535Y-63078022D01*
X184490122Y-62689947D01*
X184417097Y-62616922D01*
X183736922Y-62616922D01*
X183559122Y-62616922D01*
X182878947Y-62616922D01*
X182805922Y-62689947D01*
X182804509Y-63078022D01*
X182349203Y-63078022D01*
X182427162Y-63000063D01*
X182508201Y-62878780D01*
X182564021Y-62744018D01*
X182592478Y-62600955D01*
X182592478Y-62455089D01*
X182564021Y-62312026D01*
X182529203Y-62227968D01*
X182807280Y-61949891D01*
X182804509Y-61978022D01*
X182805922Y-62366097D01*
X182878947Y-62439122D01*
X183559122Y-62439122D01*
X183559122Y-62419122D01*
X183736922Y-62419122D01*
X183736922Y-62439122D01*
X184417097Y-62439122D01*
X184490122Y-62366097D01*
X184491535Y-61978022D01*
X184485895Y-61920760D01*
X184469193Y-61865699D01*
X184448347Y-61826700D01*
X186216904Y-61826700D01*
X186230000Y-61827990D01*
X186243096Y-61826700D01*
X186243098Y-61826700D01*
X186282282Y-61822841D01*
X186332555Y-61807590D01*
X186378887Y-61782826D01*
X186419498Y-61749498D01*
X186427854Y-61739316D01*
X187896578Y-60270593D01*
X187916221Y-60274500D01*
X188003779Y-60274500D01*
X188089656Y-60257418D01*
X188170550Y-60223911D01*
X188243352Y-60175266D01*
X188284501Y-60134117D01*
X188284501Y-61584501D01*
X186989419Y-61584501D01*
X186957753Y-61587620D01*
X186917131Y-61599942D01*
X186879694Y-61619953D01*
X186846880Y-61646883D01*
X186819950Y-61679697D01*
X186799939Y-61717134D01*
X186797100Y-61726493D01*
X186490832Y-62449630D01*
X186055373Y-63091494D01*
X185503542Y-63636547D01*
X184856349Y-64064039D01*
X184138446Y-64357682D01*
X183377178Y-64506291D01*
X182601549Y-64504206D01*
X181841093Y-64351505D01*
X181124785Y-64054008D01*
X180479900Y-63623045D01*
X179931005Y-63075030D01*
X179498843Y-62430595D01*
X179202981Y-61726764D01*
X179200059Y-61717133D01*
X179180048Y-61679696D01*
X179153118Y-61646882D01*
X179120304Y-61619952D01*
X179082867Y-61599941D01*
X179042245Y-61587619D01*
X179010579Y-61584500D01*
X179000010Y-61584500D01*
X179000000Y-61584499D01*
X178999990Y-61584500D01*
X177715500Y-61584500D01*
X177715500Y-60659045D01*
X181111478Y-60659045D01*
X181111478Y-60804911D01*
X181139935Y-60947974D01*
X181195755Y-61082736D01*
X181276794Y-61204019D01*
X181379937Y-61307162D01*
X181501220Y-61388201D01*
X181635982Y-61444021D01*
X181779045Y-61472478D01*
X181924911Y-61472478D01*
X182067974Y-61444021D01*
X182202736Y-61388201D01*
X182324019Y-61307162D01*
X182427162Y-61204019D01*
X182508201Y-61082736D01*
X182564021Y-60947974D01*
X182592478Y-60804911D01*
X182592478Y-60659045D01*
X182564021Y-60515982D01*
X182508201Y-60381220D01*
X182427162Y-60259937D01*
X182324019Y-60156794D01*
X182202736Y-60075755D01*
X182067974Y-60019935D01*
X181924911Y-59991478D01*
X181779045Y-59991478D01*
X181635982Y-60019935D01*
X181501220Y-60075755D01*
X181379937Y-60156794D01*
X181276794Y-60259937D01*
X181195755Y-60381220D01*
X181139935Y-60515982D01*
X181111478Y-60659045D01*
X177715500Y-60659045D01*
X177715500Y-59541628D01*
X177716089Y-59543050D01*
X177764734Y-59615852D01*
X177826648Y-59677766D01*
X177899450Y-59726411D01*
X177980344Y-59759918D01*
X178066221Y-59777000D01*
X178153779Y-59777000D01*
X178239656Y-59759918D01*
X178320550Y-59726411D01*
X178393352Y-59677766D01*
X178455266Y-59615852D01*
X178503911Y-59543050D01*
X178537418Y-59462156D01*
X178554500Y-59376279D01*
X178554500Y-59288721D01*
X178537418Y-59202844D01*
X178503911Y-59121950D01*
X178455266Y-59049148D01*
X178393352Y-58987234D01*
X178376700Y-58976107D01*
X178376700Y-58932661D01*
X178436221Y-58944500D01*
X178523779Y-58944500D01*
X178609656Y-58927418D01*
X178690550Y-58893911D01*
X178763352Y-58845266D01*
X178825266Y-58783352D01*
X178836393Y-58766700D01*
X179016904Y-58766700D01*
X179030000Y-58767990D01*
X179043096Y-58766700D01*
X179043098Y-58766700D01*
X179082282Y-58762841D01*
X179132555Y-58747590D01*
X179178887Y-58722826D01*
X179219498Y-58689498D01*
X179227854Y-58679316D01*
X179419321Y-58487850D01*
X179429498Y-58479498D01*
X179462826Y-58438887D01*
X179474353Y-58417320D01*
X179487590Y-58392556D01*
X179494328Y-58370344D01*
X179502841Y-58342282D01*
X179506700Y-58303098D01*
X179506700Y-58303096D01*
X179507990Y-58290000D01*
X179506700Y-58276904D01*
X179506700Y-54543095D01*
X179507990Y-54529999D01*
X179506700Y-54516902D01*
X179502841Y-54477718D01*
X179487590Y-54427445D01*
X179462826Y-54381113D01*
X179429498Y-54340502D01*
X179419316Y-54332146D01*
X178466700Y-53379530D01*
X178466700Y-51916221D01*
X178535500Y-51916221D01*
X178535500Y-52003779D01*
X178552582Y-52089656D01*
X178586089Y-52170550D01*
X178634734Y-52243352D01*
X178696648Y-52305266D01*
X178713301Y-52316393D01*
X178713300Y-52966904D01*
X178712010Y-52980000D01*
X178713300Y-52993096D01*
X178713300Y-52993097D01*
X178717159Y-53032281D01*
X178732410Y-53082554D01*
X178757174Y-53128887D01*
X178790502Y-53169498D01*
X178800684Y-53177854D01*
X180305301Y-54682472D01*
X180305300Y-56103607D01*
X180288648Y-56114734D01*
X180226734Y-56176648D01*
X180178089Y-56249450D01*
X180144582Y-56330344D01*
X180127500Y-56416221D01*
X180127500Y-56503779D01*
X180144582Y-56589656D01*
X180178089Y-56670550D01*
X180226734Y-56743352D01*
X180288648Y-56805266D01*
X180361450Y-56853911D01*
X180442344Y-56887418D01*
X180528221Y-56904500D01*
X180615779Y-56904500D01*
X180701656Y-56887418D01*
X180782550Y-56853911D01*
X180855352Y-56805266D01*
X180917266Y-56743352D01*
X180965911Y-56670550D01*
X180999418Y-56589656D01*
X181016500Y-56503779D01*
X181016500Y-56416221D01*
X180999418Y-56330344D01*
X180965911Y-56249450D01*
X180917266Y-56176648D01*
X180855352Y-56114734D01*
X180838700Y-56103607D01*
X180838700Y-54585096D01*
X180839990Y-54572000D01*
X180838700Y-54558902D01*
X180834841Y-54519718D01*
X180819590Y-54469445D01*
X180794826Y-54423113D01*
X180761498Y-54382502D01*
X180751321Y-54374150D01*
X179246700Y-52869530D01*
X179246700Y-52316393D01*
X179263352Y-52305266D01*
X179325266Y-52243352D01*
X179373911Y-52170550D01*
X179407418Y-52089656D01*
X179424500Y-52003779D01*
X179424500Y-51916221D01*
X179407418Y-51830344D01*
X179373911Y-51749450D01*
X179325266Y-51676648D01*
X179263352Y-51614734D01*
X179190550Y-51566089D01*
X179109656Y-51532582D01*
X179023779Y-51515500D01*
X178936221Y-51515500D01*
X178850344Y-51532582D01*
X178769450Y-51566089D01*
X178696648Y-51614734D01*
X178634734Y-51676648D01*
X178586089Y-51749450D01*
X178552582Y-51830344D01*
X178535500Y-51916221D01*
X178466700Y-51916221D01*
X178466700Y-51560470D01*
X179090471Y-50936700D01*
X180045071Y-50936700D01*
X180017959Y-50954816D01*
X179914816Y-51057959D01*
X179833777Y-51179242D01*
X179777957Y-51314004D01*
X179749500Y-51457067D01*
X179749500Y-51602933D01*
X179777957Y-51745996D01*
X179833777Y-51880758D01*
X179914816Y-52002041D01*
X180017959Y-52105184D01*
X180107480Y-52165000D01*
X180017959Y-52224816D01*
X179914816Y-52327959D01*
X179833777Y-52449242D01*
X179777957Y-52584004D01*
X179749500Y-52727067D01*
X179749500Y-52872933D01*
X179777957Y-53015996D01*
X179833777Y-53150758D01*
X179914816Y-53272041D01*
X180017959Y-53375184D01*
X180139242Y-53456223D01*
X180274004Y-53512043D01*
X180417067Y-53540500D01*
X180562933Y-53540500D01*
X180705996Y-53512043D01*
X180840758Y-53456223D01*
X180962041Y-53375184D01*
X181065184Y-53272041D01*
X181125000Y-53182520D01*
X181184816Y-53272041D01*
X181287959Y-53375184D01*
X181409242Y-53456223D01*
X181544004Y-53512043D01*
X181687067Y-53540500D01*
X181832933Y-53540500D01*
X181975996Y-53512043D01*
X182110758Y-53456223D01*
X182232041Y-53375184D01*
X182335184Y-53272041D01*
X182395000Y-53182520D01*
X182454816Y-53272041D01*
X182557959Y-53375184D01*
X182679242Y-53456223D01*
X182814004Y-53512043D01*
X182957067Y-53540500D01*
X183102933Y-53540500D01*
X183245996Y-53512043D01*
X183380758Y-53456223D01*
X183502041Y-53375184D01*
X183605184Y-53272041D01*
X183665000Y-53182520D01*
X183724816Y-53272041D01*
X183827959Y-53375184D01*
X183949242Y-53456223D01*
X184084004Y-53512043D01*
X184227067Y-53540500D01*
X184372933Y-53540500D01*
X184515996Y-53512043D01*
X184650758Y-53456223D01*
X184772041Y-53375184D01*
X184875184Y-53272041D01*
X184935000Y-53182520D01*
X184994816Y-53272041D01*
X185097959Y-53375184D01*
X185219242Y-53456223D01*
X185354004Y-53512043D01*
X185497067Y-53540500D01*
X185642933Y-53540500D01*
X185785996Y-53512043D01*
X185920758Y-53456223D01*
X186042041Y-53375184D01*
X186145184Y-53272041D01*
X186226223Y-53150758D01*
X186282043Y-53015996D01*
X186310500Y-52872933D01*
X186310500Y-52727067D01*
X186282043Y-52584004D01*
X186226223Y-52449242D01*
X186172188Y-52368373D01*
X186177262Y-52367873D01*
X186232323Y-52351171D01*
X186283067Y-52324047D01*
X186327545Y-52287545D01*
X186364047Y-52243067D01*
X186391171Y-52192323D01*
X186407873Y-52137262D01*
X186413513Y-52080000D01*
X186412100Y-51691925D01*
X186339075Y-51618900D01*
X185658900Y-51618900D01*
X185658900Y-51638900D01*
X185481100Y-51638900D01*
X185481100Y-51618900D01*
X185461100Y-51618900D01*
X185461100Y-51441100D01*
X185481100Y-51441100D01*
X185481100Y-50760925D01*
X185658900Y-50760925D01*
X185658900Y-51441100D01*
X186339075Y-51441100D01*
X186412100Y-51368075D01*
X186413513Y-50980000D01*
X186407873Y-50922738D01*
X186391171Y-50867677D01*
X186364047Y-50816933D01*
X186327545Y-50772455D01*
X186283067Y-50735953D01*
X186232323Y-50708829D01*
X186177262Y-50692127D01*
X186120000Y-50686487D01*
X185731925Y-50687900D01*
X185658900Y-50760925D01*
X185481100Y-50760925D01*
X185408075Y-50687900D01*
X185020000Y-50686487D01*
X184962738Y-50692127D01*
X184907677Y-50708829D01*
X184856933Y-50735953D01*
X184812455Y-50772455D01*
X184775953Y-50816933D01*
X184748829Y-50867677D01*
X184732127Y-50922738D01*
X184731627Y-50927812D01*
X184650758Y-50873777D01*
X184515996Y-50817957D01*
X184372933Y-50789500D01*
X184227067Y-50789500D01*
X184084004Y-50817957D01*
X183949242Y-50873777D01*
X183827959Y-50954816D01*
X183724816Y-51057959D01*
X183665000Y-51147480D01*
X183605184Y-51057959D01*
X183502041Y-50954816D01*
X183380758Y-50873777D01*
X183245996Y-50817957D01*
X183102933Y-50789500D01*
X182957067Y-50789500D01*
X182814004Y-50817957D01*
X182679242Y-50873777D01*
X182557959Y-50954816D01*
X182454816Y-51057959D01*
X182395000Y-51147480D01*
X182335184Y-51057959D01*
X182232041Y-50954816D01*
X182110758Y-50873777D01*
X181975996Y-50817957D01*
X181832933Y-50789500D01*
X181706671Y-50789500D01*
X181407854Y-50490684D01*
X181399498Y-50480502D01*
X181358887Y-50447174D01*
X181312555Y-50422410D01*
X181262282Y-50407159D01*
X181223098Y-50403300D01*
X181223096Y-50403300D01*
X181210000Y-50402010D01*
X181196904Y-50403300D01*
X178993099Y-50403300D01*
X178980000Y-50402010D01*
X178927717Y-50407159D01*
X178877445Y-50422410D01*
X178831113Y-50447174D01*
X178790502Y-50480502D01*
X178782150Y-50490679D01*
X178020679Y-51252151D01*
X178010503Y-51260502D01*
X178002153Y-51270677D01*
X177977175Y-51301113D01*
X177952411Y-51347445D01*
X177937160Y-51397718D01*
X177932010Y-51450000D01*
X177933301Y-51463106D01*
X177933300Y-53476904D01*
X177932010Y-53490000D01*
X177933300Y-53503096D01*
X177933300Y-53503097D01*
X177937159Y-53542281D01*
X177952410Y-53592554D01*
X177977174Y-53638887D01*
X178010502Y-53679498D01*
X178020684Y-53687854D01*
X178973301Y-54640471D01*
X178973301Y-54924700D01*
X178900550Y-54876089D01*
X178819656Y-54842582D01*
X178733779Y-54825500D01*
X178646221Y-54825500D01*
X178560344Y-54842582D01*
X178479450Y-54876089D01*
X178406648Y-54924734D01*
X178344734Y-54986648D01*
X178296089Y-55059450D01*
X178262582Y-55140344D01*
X178245500Y-55226221D01*
X178245500Y-55313779D01*
X178262582Y-55399656D01*
X178296089Y-55480550D01*
X178344734Y-55553352D01*
X178406648Y-55615266D01*
X178423301Y-55626393D01*
X178423300Y-57016902D01*
X178423300Y-57279529D01*
X177818078Y-57884752D01*
X177807902Y-57893103D01*
X177799552Y-57903278D01*
X177774574Y-57933714D01*
X177749810Y-57980046D01*
X177734559Y-58030319D01*
X177729409Y-58082601D01*
X177730700Y-58095707D01*
X177730699Y-58718553D01*
X177729409Y-58731649D01*
X177730699Y-58744745D01*
X177730699Y-58744746D01*
X177734558Y-58783930D01*
X177749809Y-58834203D01*
X177774573Y-58880536D01*
X177807901Y-58921147D01*
X177818083Y-58929503D01*
X177843301Y-58954721D01*
X177843301Y-58976107D01*
X177826648Y-58987234D01*
X177764734Y-59049148D01*
X177716089Y-59121950D01*
X177715500Y-59123372D01*
X177715500Y-50215500D01*
X188284500Y-50215500D01*
X188284501Y-59525883D01*
%TA.AperFunction,Conductor*%
D15*
G36*
X188284501Y-59525883D02*
G01*
X188243352Y-59484734D01*
X188170550Y-59436089D01*
X188089656Y-59402582D01*
X188003779Y-59385500D01*
X187916221Y-59385500D01*
X187830344Y-59402582D01*
X187749450Y-59436089D01*
X187676648Y-59484734D01*
X187614734Y-59546648D01*
X187566089Y-59619450D01*
X187532582Y-59700344D01*
X187515500Y-59786221D01*
X187515500Y-59873779D01*
X187519407Y-59893422D01*
X186119530Y-61293300D01*
X184133925Y-61293300D01*
X184223206Y-61204019D01*
X184304245Y-61082736D01*
X184360065Y-60947974D01*
X184388522Y-60804911D01*
X184388522Y-60659045D01*
X184360065Y-60515982D01*
X184325247Y-60431924D01*
X184389321Y-60367850D01*
X184399498Y-60359498D01*
X184432826Y-60318887D01*
X184457590Y-60272555D01*
X184472841Y-60222282D01*
X184476700Y-60183098D01*
X184476700Y-60183096D01*
X184477990Y-60170000D01*
X184476700Y-60156904D01*
X184476700Y-58078545D01*
X184531178Y-58073179D01*
X184611641Y-58048771D01*
X184685796Y-58009135D01*
X184750793Y-57955793D01*
X184804135Y-57890796D01*
X184843771Y-57816641D01*
X184859731Y-57764027D01*
X184940344Y-57797418D01*
X185026221Y-57814500D01*
X185113779Y-57814500D01*
X185199656Y-57797418D01*
X185280550Y-57763911D01*
X185353352Y-57715266D01*
X185415266Y-57653352D01*
X185463911Y-57580550D01*
X185497418Y-57499656D01*
X185514500Y-57413779D01*
X185514500Y-57326221D01*
X185497418Y-57240344D01*
X185463911Y-57159450D01*
X185450189Y-57138913D01*
X185510550Y-57113911D01*
X185583352Y-57065266D01*
X185645266Y-57003352D01*
X185693911Y-56930550D01*
X185727418Y-56849656D01*
X185744500Y-56763779D01*
X185744500Y-56676221D01*
X185727418Y-56590344D01*
X185693911Y-56509450D01*
X185645266Y-56436648D01*
X185583352Y-56374734D01*
X185510550Y-56326089D01*
X185429656Y-56292582D01*
X185399808Y-56286645D01*
X185430550Y-56273911D01*
X185503352Y-56225266D01*
X185565266Y-56163352D01*
X185613911Y-56090550D01*
X185647418Y-56009656D01*
X185664500Y-55923779D01*
X185664500Y-55836221D01*
X185647418Y-55750344D01*
X185613911Y-55669450D01*
X185565266Y-55596648D01*
X185503352Y-55534734D01*
X185430550Y-55486089D01*
X185349656Y-55452582D01*
X185263779Y-55435500D01*
X185176221Y-55435500D01*
X185157930Y-55439138D01*
X185156998Y-55438002D01*
X185116387Y-55404674D01*
X185070055Y-55379910D01*
X185019782Y-55364659D01*
X184980598Y-55360800D01*
X184980596Y-55360800D01*
X184967500Y-55359510D01*
X184954404Y-55360800D01*
X184876421Y-55360800D01*
X184876421Y-55327500D01*
X184868179Y-55243822D01*
X184843771Y-55163359D01*
X184804135Y-55089204D01*
X184750793Y-55024207D01*
X184685796Y-54970865D01*
X184611641Y-54931229D01*
X184531178Y-54906821D01*
X184447500Y-54898579D01*
X183972500Y-54898579D01*
X183888822Y-54906821D01*
X183808359Y-54931229D01*
X183734204Y-54970865D01*
X183669207Y-55024207D01*
X183615865Y-55089204D01*
X183576229Y-55163359D01*
X183551821Y-55243822D01*
X183545224Y-55310800D01*
X183334776Y-55310800D01*
X183328179Y-55243822D01*
X183303771Y-55163359D01*
X183264135Y-55089204D01*
X183210793Y-55024207D01*
X183145796Y-54970865D01*
X183071641Y-54931229D01*
X182991178Y-54906821D01*
X182907500Y-54898579D01*
X182432500Y-54898579D01*
X182348822Y-54906821D01*
X182268359Y-54931229D01*
X182194204Y-54970865D01*
X182129207Y-55024207D01*
X182075865Y-55089204D01*
X182036229Y-55163359D01*
X182011821Y-55243822D01*
X182003579Y-55327500D01*
X182003579Y-55827500D01*
X182011821Y-55911178D01*
X182036229Y-55991641D01*
X182075865Y-56065796D01*
X182129207Y-56130793D01*
X182194204Y-56184135D01*
X182268359Y-56223771D01*
X182348822Y-56248179D01*
X182432500Y-56256421D01*
X182907500Y-56256421D01*
X182991178Y-56248179D01*
X183071641Y-56223771D01*
X183145796Y-56184135D01*
X183210793Y-56130793D01*
X183264135Y-56065796D01*
X183303771Y-55991641D01*
X183328179Y-55911178D01*
X183334776Y-55844200D01*
X183543579Y-55844200D01*
X183543579Y-55927500D01*
X183551821Y-56011178D01*
X183576229Y-56091641D01*
X183615865Y-56165796D01*
X183669207Y-56230793D01*
X183672262Y-56233300D01*
X183585596Y-56233300D01*
X183572500Y-56232010D01*
X183559404Y-56233300D01*
X183559402Y-56233300D01*
X183520218Y-56237159D01*
X183485195Y-56247784D01*
X183469944Y-56252410D01*
X183445180Y-56265647D01*
X183423613Y-56277174D01*
X183383002Y-56310502D01*
X183374650Y-56320679D01*
X182965989Y-56729340D01*
X182907500Y-56723579D01*
X182432500Y-56723579D01*
X182348822Y-56731821D01*
X182268359Y-56756229D01*
X182194204Y-56795865D01*
X182129207Y-56849207D01*
X182075865Y-56914204D01*
X182036229Y-56988359D01*
X182011821Y-57068822D01*
X182003579Y-57152500D01*
X182003579Y-57652500D01*
X182011821Y-57736178D01*
X182036229Y-57816641D01*
X182075865Y-57890796D01*
X182129207Y-57955793D01*
X182194204Y-58009135D01*
X182268359Y-58048771D01*
X182348822Y-58073179D01*
X182432500Y-58081421D01*
X182907500Y-58081421D01*
X182991178Y-58073179D01*
X183071641Y-58048771D01*
X183145796Y-58009135D01*
X183210793Y-57955793D01*
X183264135Y-57890796D01*
X183303771Y-57816641D01*
X183328179Y-57736178D01*
X183336421Y-57652500D01*
X183336421Y-57152500D01*
X183332902Y-57116769D01*
X183593357Y-56856313D01*
X183576229Y-56888359D01*
X183551821Y-56968822D01*
X183543579Y-57052500D01*
X183543579Y-57652500D01*
X183551821Y-57736178D01*
X183576229Y-57816641D01*
X183615865Y-57890796D01*
X183669207Y-57955793D01*
X183734204Y-58009135D01*
X183808359Y-58048771D01*
X183888822Y-58073179D01*
X183943300Y-58078545D01*
X183943301Y-60052775D01*
X183864018Y-60019935D01*
X183720955Y-59991478D01*
X183575089Y-59991478D01*
X183432026Y-60019935D01*
X183297264Y-60075755D01*
X183175981Y-60156794D01*
X183072838Y-60259937D01*
X182991799Y-60381220D01*
X182935979Y-60515982D01*
X182907522Y-60659045D01*
X182907522Y-60804911D01*
X182935979Y-60947974D01*
X182991799Y-61082736D01*
X183072838Y-61204019D01*
X183162119Y-61293300D01*
X182833096Y-61293300D01*
X182820000Y-61292010D01*
X182806904Y-61293300D01*
X182806902Y-61293300D01*
X182767718Y-61297159D01*
X182732695Y-61307784D01*
X182717444Y-61312410D01*
X182692680Y-61325647D01*
X182671113Y-61337174D01*
X182630502Y-61370502D01*
X182622152Y-61380677D01*
X182152032Y-61850797D01*
X182067974Y-61815979D01*
X181924911Y-61787522D01*
X181779045Y-61787522D01*
X181635982Y-61815979D01*
X181501220Y-61871799D01*
X181379937Y-61952838D01*
X181276794Y-62055981D01*
X181195755Y-62177264D01*
X181139935Y-62312026D01*
X181111478Y-62455089D01*
X181111478Y-62600955D01*
X181139935Y-62744018D01*
X181195755Y-62878780D01*
X181276794Y-63000063D01*
X181379937Y-63103206D01*
X181501220Y-63184245D01*
X181635982Y-63240065D01*
X181779045Y-63268522D01*
X181924911Y-63268522D01*
X182067974Y-63240065D01*
X182202736Y-63184245D01*
X182324019Y-63103206D01*
X182349203Y-63078022D01*
X182804509Y-63078022D01*
X182810149Y-63135284D01*
X182826851Y-63190345D01*
X182853975Y-63241089D01*
X182890477Y-63285567D01*
X182934955Y-63322069D01*
X182985699Y-63349193D01*
X183040760Y-63365895D01*
X183098022Y-63371535D01*
X183486097Y-63370122D01*
X183559122Y-63297097D01*
X183559122Y-62616922D01*
X183736922Y-62616922D01*
X183736922Y-63297097D01*
X183809947Y-63370122D01*
X184198022Y-63371535D01*
X184255284Y-63365895D01*
X184310345Y-63349193D01*
X184361089Y-63322069D01*
X184405567Y-63285567D01*
X184442069Y-63241089D01*
X184469193Y-63190345D01*
X184485895Y-63135284D01*
X184491535Y-63078022D01*
X184490122Y-62689947D01*
X184417097Y-62616922D01*
X183736922Y-62616922D01*
X183559122Y-62616922D01*
X182878947Y-62616922D01*
X182805922Y-62689947D01*
X182804509Y-63078022D01*
X182349203Y-63078022D01*
X182427162Y-63000063D01*
X182508201Y-62878780D01*
X182564021Y-62744018D01*
X182592478Y-62600955D01*
X182592478Y-62455089D01*
X182564021Y-62312026D01*
X182529203Y-62227968D01*
X182807280Y-61949891D01*
X182804509Y-61978022D01*
X182805922Y-62366097D01*
X182878947Y-62439122D01*
X183559122Y-62439122D01*
X183559122Y-62419122D01*
X183736922Y-62419122D01*
X183736922Y-62439122D01*
X184417097Y-62439122D01*
X184490122Y-62366097D01*
X184491535Y-61978022D01*
X184485895Y-61920760D01*
X184469193Y-61865699D01*
X184448347Y-61826700D01*
X186216904Y-61826700D01*
X186230000Y-61827990D01*
X186243096Y-61826700D01*
X186243098Y-61826700D01*
X186282282Y-61822841D01*
X186332555Y-61807590D01*
X186378887Y-61782826D01*
X186419498Y-61749498D01*
X186427854Y-61739316D01*
X187896578Y-60270593D01*
X187916221Y-60274500D01*
X188003779Y-60274500D01*
X188089656Y-60257418D01*
X188170550Y-60223911D01*
X188243352Y-60175266D01*
X188284501Y-60134117D01*
X188284501Y-61584501D01*
X186989419Y-61584501D01*
X186957753Y-61587620D01*
X186917131Y-61599942D01*
X186879694Y-61619953D01*
X186846880Y-61646883D01*
X186819950Y-61679697D01*
X186799939Y-61717134D01*
X186797100Y-61726493D01*
X186490832Y-62449630D01*
X186055373Y-63091494D01*
X185503542Y-63636547D01*
X184856349Y-64064039D01*
X184138446Y-64357682D01*
X183377178Y-64506291D01*
X182601549Y-64504206D01*
X181841093Y-64351505D01*
X181124785Y-64054008D01*
X180479900Y-63623045D01*
X179931005Y-63075030D01*
X179498843Y-62430595D01*
X179202981Y-61726764D01*
X179200059Y-61717133D01*
X179180048Y-61679696D01*
X179153118Y-61646882D01*
X179120304Y-61619952D01*
X179082867Y-61599941D01*
X179042245Y-61587619D01*
X179010579Y-61584500D01*
X179000010Y-61584500D01*
X179000000Y-61584499D01*
X178999990Y-61584500D01*
X177715500Y-61584500D01*
X177715500Y-60659045D01*
X181111478Y-60659045D01*
X181111478Y-60804911D01*
X181139935Y-60947974D01*
X181195755Y-61082736D01*
X181276794Y-61204019D01*
X181379937Y-61307162D01*
X181501220Y-61388201D01*
X181635982Y-61444021D01*
X181779045Y-61472478D01*
X181924911Y-61472478D01*
X182067974Y-61444021D01*
X182202736Y-61388201D01*
X182324019Y-61307162D01*
X182427162Y-61204019D01*
X182508201Y-61082736D01*
X182564021Y-60947974D01*
X182592478Y-60804911D01*
X182592478Y-60659045D01*
X182564021Y-60515982D01*
X182508201Y-60381220D01*
X182427162Y-60259937D01*
X182324019Y-60156794D01*
X182202736Y-60075755D01*
X182067974Y-60019935D01*
X181924911Y-59991478D01*
X181779045Y-59991478D01*
X181635982Y-60019935D01*
X181501220Y-60075755D01*
X181379937Y-60156794D01*
X181276794Y-60259937D01*
X181195755Y-60381220D01*
X181139935Y-60515982D01*
X181111478Y-60659045D01*
X177715500Y-60659045D01*
X177715500Y-59541628D01*
X177716089Y-59543050D01*
X177764734Y-59615852D01*
X177826648Y-59677766D01*
X177899450Y-59726411D01*
X177980344Y-59759918D01*
X178066221Y-59777000D01*
X178153779Y-59777000D01*
X178239656Y-59759918D01*
X178320550Y-59726411D01*
X178393352Y-59677766D01*
X178455266Y-59615852D01*
X178503911Y-59543050D01*
X178537418Y-59462156D01*
X178554500Y-59376279D01*
X178554500Y-59288721D01*
X178537418Y-59202844D01*
X178503911Y-59121950D01*
X178455266Y-59049148D01*
X178393352Y-58987234D01*
X178376700Y-58976107D01*
X178376700Y-58932661D01*
X178436221Y-58944500D01*
X178523779Y-58944500D01*
X178609656Y-58927418D01*
X178690550Y-58893911D01*
X178763352Y-58845266D01*
X178825266Y-58783352D01*
X178836393Y-58766700D01*
X179016904Y-58766700D01*
X179030000Y-58767990D01*
X179043096Y-58766700D01*
X179043098Y-58766700D01*
X179082282Y-58762841D01*
X179132555Y-58747590D01*
X179178887Y-58722826D01*
X179219498Y-58689498D01*
X179227854Y-58679316D01*
X179419321Y-58487850D01*
X179429498Y-58479498D01*
X179462826Y-58438887D01*
X179474353Y-58417320D01*
X179487590Y-58392556D01*
X179494328Y-58370344D01*
X179502841Y-58342282D01*
X179506700Y-58303098D01*
X179506700Y-58303096D01*
X179507990Y-58290000D01*
X179506700Y-58276904D01*
X179506700Y-54543095D01*
X179507990Y-54529999D01*
X179506700Y-54516902D01*
X179502841Y-54477718D01*
X179487590Y-54427445D01*
X179462826Y-54381113D01*
X179429498Y-54340502D01*
X179419316Y-54332146D01*
X178466700Y-53379530D01*
X178466700Y-51916221D01*
X178535500Y-51916221D01*
X178535500Y-52003779D01*
X178552582Y-52089656D01*
X178586089Y-52170550D01*
X178634734Y-52243352D01*
X178696648Y-52305266D01*
X178713301Y-52316393D01*
X178713300Y-52966904D01*
X178712010Y-52980000D01*
X178713300Y-52993096D01*
X178713300Y-52993097D01*
X178717159Y-53032281D01*
X178732410Y-53082554D01*
X178757174Y-53128887D01*
X178790502Y-53169498D01*
X178800684Y-53177854D01*
X180305301Y-54682472D01*
X180305300Y-56103607D01*
X180288648Y-56114734D01*
X180226734Y-56176648D01*
X180178089Y-56249450D01*
X180144582Y-56330344D01*
X180127500Y-56416221D01*
X180127500Y-56503779D01*
X180144582Y-56589656D01*
X180178089Y-56670550D01*
X180226734Y-56743352D01*
X180288648Y-56805266D01*
X180361450Y-56853911D01*
X180442344Y-56887418D01*
X180528221Y-56904500D01*
X180615779Y-56904500D01*
X180701656Y-56887418D01*
X180782550Y-56853911D01*
X180855352Y-56805266D01*
X180917266Y-56743352D01*
X180965911Y-56670550D01*
X180999418Y-56589656D01*
X181016500Y-56503779D01*
X181016500Y-56416221D01*
X180999418Y-56330344D01*
X180965911Y-56249450D01*
X180917266Y-56176648D01*
X180855352Y-56114734D01*
X180838700Y-56103607D01*
X180838700Y-54585096D01*
X180839990Y-54572000D01*
X180838700Y-54558902D01*
X180834841Y-54519718D01*
X180819590Y-54469445D01*
X180794826Y-54423113D01*
X180761498Y-54382502D01*
X180751321Y-54374150D01*
X179246700Y-52869530D01*
X179246700Y-52316393D01*
X179263352Y-52305266D01*
X179325266Y-52243352D01*
X179373911Y-52170550D01*
X179407418Y-52089656D01*
X179424500Y-52003779D01*
X179424500Y-51916221D01*
X179407418Y-51830344D01*
X179373911Y-51749450D01*
X179325266Y-51676648D01*
X179263352Y-51614734D01*
X179190550Y-51566089D01*
X179109656Y-51532582D01*
X179023779Y-51515500D01*
X178936221Y-51515500D01*
X178850344Y-51532582D01*
X178769450Y-51566089D01*
X178696648Y-51614734D01*
X178634734Y-51676648D01*
X178586089Y-51749450D01*
X178552582Y-51830344D01*
X178535500Y-51916221D01*
X178466700Y-51916221D01*
X178466700Y-51560470D01*
X179090471Y-50936700D01*
X180045071Y-50936700D01*
X180017959Y-50954816D01*
X179914816Y-51057959D01*
X179833777Y-51179242D01*
X179777957Y-51314004D01*
X179749500Y-51457067D01*
X179749500Y-51602933D01*
X179777957Y-51745996D01*
X179833777Y-51880758D01*
X179914816Y-52002041D01*
X180017959Y-52105184D01*
X180107480Y-52165000D01*
X180017959Y-52224816D01*
X179914816Y-52327959D01*
X179833777Y-52449242D01*
X179777957Y-52584004D01*
X179749500Y-52727067D01*
X179749500Y-52872933D01*
X179777957Y-53015996D01*
X179833777Y-53150758D01*
X179914816Y-53272041D01*
X180017959Y-53375184D01*
X180139242Y-53456223D01*
X180274004Y-53512043D01*
X180417067Y-53540500D01*
X180562933Y-53540500D01*
X180705996Y-53512043D01*
X180840758Y-53456223D01*
X180962041Y-53375184D01*
X181065184Y-53272041D01*
X181125000Y-53182520D01*
X181184816Y-53272041D01*
X181287959Y-53375184D01*
X181409242Y-53456223D01*
X181544004Y-53512043D01*
X181687067Y-53540500D01*
X181832933Y-53540500D01*
X181975996Y-53512043D01*
X182110758Y-53456223D01*
X182232041Y-53375184D01*
X182335184Y-53272041D01*
X182395000Y-53182520D01*
X182454816Y-53272041D01*
X182557959Y-53375184D01*
X182679242Y-53456223D01*
X182814004Y-53512043D01*
X182957067Y-53540500D01*
X183102933Y-53540500D01*
X183245996Y-53512043D01*
X183380758Y-53456223D01*
X183502041Y-53375184D01*
X183605184Y-53272041D01*
X183665000Y-53182520D01*
X183724816Y-53272041D01*
X183827959Y-53375184D01*
X183949242Y-53456223D01*
X184084004Y-53512043D01*
X184227067Y-53540500D01*
X184372933Y-53540500D01*
X184515996Y-53512043D01*
X184650758Y-53456223D01*
X184772041Y-53375184D01*
X184875184Y-53272041D01*
X184935000Y-53182520D01*
X184994816Y-53272041D01*
X185097959Y-53375184D01*
X185219242Y-53456223D01*
X185354004Y-53512043D01*
X185497067Y-53540500D01*
X185642933Y-53540500D01*
X185785996Y-53512043D01*
X185920758Y-53456223D01*
X186042041Y-53375184D01*
X186145184Y-53272041D01*
X186226223Y-53150758D01*
X186282043Y-53015996D01*
X186310500Y-52872933D01*
X186310500Y-52727067D01*
X186282043Y-52584004D01*
X186226223Y-52449242D01*
X186172188Y-52368373D01*
X186177262Y-52367873D01*
X186232323Y-52351171D01*
X186283067Y-52324047D01*
X186327545Y-52287545D01*
X186364047Y-52243067D01*
X186391171Y-52192323D01*
X186407873Y-52137262D01*
X186413513Y-52080000D01*
X186412100Y-51691925D01*
X186339075Y-51618900D01*
X185658900Y-51618900D01*
X185658900Y-51638900D01*
X185481100Y-51638900D01*
X185481100Y-51618900D01*
X185461100Y-51618900D01*
X185461100Y-51441100D01*
X185481100Y-51441100D01*
X185481100Y-50760925D01*
X185658900Y-50760925D01*
X185658900Y-51441100D01*
X186339075Y-51441100D01*
X186412100Y-51368075D01*
X186413513Y-50980000D01*
X186407873Y-50922738D01*
X186391171Y-50867677D01*
X186364047Y-50816933D01*
X186327545Y-50772455D01*
X186283067Y-50735953D01*
X186232323Y-50708829D01*
X186177262Y-50692127D01*
X186120000Y-50686487D01*
X185731925Y-50687900D01*
X185658900Y-50760925D01*
X185481100Y-50760925D01*
X185408075Y-50687900D01*
X185020000Y-50686487D01*
X184962738Y-50692127D01*
X184907677Y-50708829D01*
X184856933Y-50735953D01*
X184812455Y-50772455D01*
X184775953Y-50816933D01*
X184748829Y-50867677D01*
X184732127Y-50922738D01*
X184731627Y-50927812D01*
X184650758Y-50873777D01*
X184515996Y-50817957D01*
X184372933Y-50789500D01*
X184227067Y-50789500D01*
X184084004Y-50817957D01*
X183949242Y-50873777D01*
X183827959Y-50954816D01*
X183724816Y-51057959D01*
X183665000Y-51147480D01*
X183605184Y-51057959D01*
X183502041Y-50954816D01*
X183380758Y-50873777D01*
X183245996Y-50817957D01*
X183102933Y-50789500D01*
X182957067Y-50789500D01*
X182814004Y-50817957D01*
X182679242Y-50873777D01*
X182557959Y-50954816D01*
X182454816Y-51057959D01*
X182395000Y-51147480D01*
X182335184Y-51057959D01*
X182232041Y-50954816D01*
X182110758Y-50873777D01*
X181975996Y-50817957D01*
X181832933Y-50789500D01*
X181706671Y-50789500D01*
X181407854Y-50490684D01*
X181399498Y-50480502D01*
X181358887Y-50447174D01*
X181312555Y-50422410D01*
X181262282Y-50407159D01*
X181223098Y-50403300D01*
X181223096Y-50403300D01*
X181210000Y-50402010D01*
X181196904Y-50403300D01*
X178993099Y-50403300D01*
X178980000Y-50402010D01*
X178927717Y-50407159D01*
X178877445Y-50422410D01*
X178831113Y-50447174D01*
X178790502Y-50480502D01*
X178782150Y-50490679D01*
X178020679Y-51252151D01*
X178010503Y-51260502D01*
X178002153Y-51270677D01*
X177977175Y-51301113D01*
X177952411Y-51347445D01*
X177937160Y-51397718D01*
X177932010Y-51450000D01*
X177933301Y-51463106D01*
X177933300Y-53476904D01*
X177932010Y-53490000D01*
X177933300Y-53503096D01*
X177933300Y-53503097D01*
X177937159Y-53542281D01*
X177952410Y-53592554D01*
X177977174Y-53638887D01*
X178010502Y-53679498D01*
X178020684Y-53687854D01*
X178973301Y-54640471D01*
X178973301Y-54924700D01*
X178900550Y-54876089D01*
X178819656Y-54842582D01*
X178733779Y-54825500D01*
X178646221Y-54825500D01*
X178560344Y-54842582D01*
X178479450Y-54876089D01*
X178406648Y-54924734D01*
X178344734Y-54986648D01*
X178296089Y-55059450D01*
X178262582Y-55140344D01*
X178245500Y-55226221D01*
X178245500Y-55313779D01*
X178262582Y-55399656D01*
X178296089Y-55480550D01*
X178344734Y-55553352D01*
X178406648Y-55615266D01*
X178423301Y-55626393D01*
X178423300Y-57016902D01*
X178423300Y-57279529D01*
X177818078Y-57884752D01*
X177807902Y-57893103D01*
X177799552Y-57903278D01*
X177774574Y-57933714D01*
X177749810Y-57980046D01*
X177734559Y-58030319D01*
X177729409Y-58082601D01*
X177730700Y-58095707D01*
X177730699Y-58718553D01*
X177729409Y-58731649D01*
X177730699Y-58744745D01*
X177730699Y-58744746D01*
X177734558Y-58783930D01*
X177749809Y-58834203D01*
X177774573Y-58880536D01*
X177807901Y-58921147D01*
X177818083Y-58929503D01*
X177843301Y-58954721D01*
X177843301Y-58976107D01*
X177826648Y-58987234D01*
X177764734Y-59049148D01*
X177716089Y-59121950D01*
X177715500Y-59123372D01*
X177715500Y-50215500D01*
X188284500Y-50215500D01*
X188284501Y-59525883D01*
G37*
%TD.AperFunction*%
%TD*%
M02*
