M48
; DRILL file {KiCad (5.1.8)-1} date 09/09/21 14:13:14
; FORMAT={-:-/ absolute / inch / decimal}
; #@! TF.CreationDate,2021-09-09T14:13:14-04:00
; #@! TF.GenerationSoftware,Kicad,Pcbnew,(5.1.8)-1
; #@! TF.FileFunction,Plated,1,2,PTH
FMAT,2
INCH
T1C0.0120
T2C0.0276
%
G90
G05
T1
X7.011Y-1.9909
X7.0122Y-2.3359
X7.0268Y-2.3031
X7.035Y-2.176
X7.0465Y-2.0457
X7.1091Y-2.2228
X7.113Y-2.4236
X7.2303Y-2.1197
X7.2307Y-2.1496
X7.2862Y-2.2587
X7.2921Y-2.2
X7.2953Y-2.2331
X7.3118Y-2.4728
X7.3756Y-2.1071
X7.3764Y-2.0047
X7.3984Y-2.4083
X7.4Y-2.3555
T2
X7.1059Y-2.0287
X7.1059Y-2.0787
X7.1559Y-2.0287
X7.1559Y-2.0787
X7.2059Y-2.0287
X7.2059Y-2.0787
X7.2559Y-2.0287
X7.2559Y-2.0787
X7.3059Y-2.0287
X7.3059Y-2.0787
X7.1595Y-2.391
X7.1595Y-2.4617
X7.2302Y-2.391
X7.2302Y-2.4617
T0
M30
