%TF.GenerationSoftware,KiCad,Pcbnew,(5.1.8)-1*%
%TF.CreationDate,2021-09-09T14:13:13-04:00*%
%TF.ProjectId,IR_TEMP_V1,49525f54-454d-4505-9f56-312e6b696361,rev?*%
%TF.SameCoordinates,Original*%
%TF.FileFunction,Copper,L1,Top*%
%TF.FilePolarity,Positive*%
%FSLAX46Y46*%
G04 Gerber Fmt 4.6, Leading zero omitted, Abs format (unit mm)*
G04 Created by KiCad (PCBNEW (5.1.8)-1) date 2021-09-09 14:13:13*
%MOMM*%
%LPD*%
G01*
G04 APERTURE LIST*
%TA.AperFunction,ComponentPad*%
%ADD10C,1.100000*%
%TD*%
%TA.AperFunction,ComponentPad*%
%ADD11R,1.100000X1.100000*%
%TD*%
%TA.AperFunction,SMDPad,CuDef*%
%ADD12R,1.475000X0.450000*%
%TD*%
%TA.AperFunction,ViaPad*%
%ADD13C,0.508000*%
%TD*%
%TA.AperFunction,Conductor*%
%ADD14C,0.152400*%
%TD*%
%TA.AperFunction,Conductor*%
%ADD15C,0.076200*%
%TD*%
%TA.AperFunction,Conductor*%
%ADD16C,0.100000*%
%TD*%
G04 APERTURE END LIST*
D10*
%TO.P,U1,4*%
%TO.N,/CMOUT*%
X183648022Y-60731978D03*
%TO.P,U1,3*%
%TO.N,/Thermistor*%
X181851978Y-60731978D03*
%TO.P,U1,2*%
%TO.N,Net-(C3-Pad2)*%
X181851978Y-62528022D03*
D11*
%TO.P,U1,1*%
%TO.N,GND*%
X183648022Y-62528022D03*
%TD*%
%TO.P,R2,2*%
%TO.N,Net-(IC1-Pad9)*%
%TA.AperFunction,SMDPad,CuDef*%
G36*
G01*
X179200000Y-56770000D02*
X178880000Y-56770000D01*
G75*
G02*
X178720000Y-56610000I0J160000D01*
G01*
X178720000Y-56215000D01*
G75*
G02*
X178880000Y-56055000I160000J0D01*
G01*
X179200000Y-56055000D01*
G75*
G02*
X179360000Y-56215000I0J-160000D01*
G01*
X179360000Y-56610000D01*
G75*
G02*
X179200000Y-56770000I-160000J0D01*
G01*
G37*
%TD.AperFunction*%
%TO.P,R2,1*%
%TO.N,/Temp_A*%
%TA.AperFunction,SMDPad,CuDef*%
G36*
G01*
X179200000Y-57965000D02*
X178880000Y-57965000D01*
G75*
G02*
X178720000Y-57805000I0J160000D01*
G01*
X178720000Y-57410000D01*
G75*
G02*
X178880000Y-57250000I160000J0D01*
G01*
X179200000Y-57250000D01*
G75*
G02*
X179360000Y-57410000I0J-160000D01*
G01*
X179360000Y-57805000D01*
G75*
G02*
X179200000Y-57965000I-160000J0D01*
G01*
G37*
%TD.AperFunction*%
%TD*%
%TO.P,R1,2*%
%TO.N,/Thermistor*%
%TA.AperFunction,SMDPad,CuDef*%
G36*
G01*
X185350000Y-60300000D02*
X185350000Y-60620000D01*
G75*
G02*
X185190000Y-60780000I-160000J0D01*
G01*
X184795000Y-60780000D01*
G75*
G02*
X184635000Y-60620000I0J160000D01*
G01*
X184635000Y-60300000D01*
G75*
G02*
X184795000Y-60140000I160000J0D01*
G01*
X185190000Y-60140000D01*
G75*
G02*
X185350000Y-60300000I0J-160000D01*
G01*
G37*
%TD.AperFunction*%
%TO.P,R1,1*%
%TO.N,+3V3*%
%TA.AperFunction,SMDPad,CuDef*%
G36*
G01*
X186545000Y-60300000D02*
X186545000Y-60620000D01*
G75*
G02*
X186385000Y-60780000I-160000J0D01*
G01*
X185990000Y-60780000D01*
G75*
G02*
X185830000Y-60620000I0J160000D01*
G01*
X185830000Y-60300000D01*
G75*
G02*
X185990000Y-60140000I160000J0D01*
G01*
X186385000Y-60140000D01*
G75*
G02*
X186545000Y-60300000I0J-160000D01*
G01*
G37*
%TD.AperFunction*%
%TD*%
D10*
%TO.P,J1,10*%
%TO.N,N/C*%
X180490000Y-52800000D03*
%TO.P,J1,9*%
%TO.N,+3V3*%
X180490000Y-51530000D03*
%TO.P,J1,8*%
%TO.N,N/C*%
X181760000Y-52800000D03*
%TO.P,J1,7*%
%TO.N,/Temp_A*%
X181760000Y-51530000D03*
%TO.P,J1,6*%
%TO.N,/SCLK*%
X183030000Y-52800000D03*
%TO.P,J1,5*%
%TO.N,/SPICS*%
X183030000Y-51530000D03*
%TO.P,J1,4*%
%TO.N,/MOSI*%
X184300000Y-52800000D03*
%TO.P,J1,3*%
%TO.N,N/C*%
X184300000Y-51530000D03*
%TO.P,J1,2*%
X185570000Y-52800000D03*
D11*
%TO.P,J1,1*%
%TO.N,GND*%
X185570000Y-51530000D03*
%TD*%
D12*
%TO.P,IC1,14*%
%TO.N,+3V3*%
X180572000Y-59060000D03*
%TO.P,IC1,13*%
X180572000Y-58410000D03*
%TO.P,IC1,12*%
%TO.N,/MOSI*%
X180572000Y-57760000D03*
%TO.P,IC1,11*%
%TO.N,/SCLK*%
X180572000Y-57110000D03*
%TO.P,IC1,10*%
%TO.N,/SPICS*%
X180572000Y-56460000D03*
%TO.P,IC1,9*%
%TO.N,Net-(IC1-Pad9)*%
X180572000Y-55810000D03*
%TO.P,IC1,8*%
%TO.N,N/C*%
X180572000Y-55160000D03*
%TO.P,IC1,7*%
X186448000Y-55160000D03*
%TO.P,IC1,6*%
%TO.N,GND*%
X186448000Y-55810000D03*
%TO.P,IC1,5*%
%TO.N,/A1*%
X186448000Y-56460000D03*
%TO.P,IC1,4*%
%TO.N,/A0*%
X186448000Y-57110000D03*
%TO.P,IC1,3*%
%TO.N,/CMOUT*%
X186448000Y-57760000D03*
%TO.P,IC1,2*%
%TO.N,N/C*%
X186448000Y-58410000D03*
%TO.P,IC1,1*%
%TO.N,Net-(C3-Pad2)*%
X186448000Y-59060000D03*
%TD*%
%TO.P,C5,2*%
%TO.N,GND*%
%TA.AperFunction,SMDPad,CuDef*%
G36*
G01*
X178245000Y-56810000D02*
X177935000Y-56810000D01*
G75*
G02*
X177780000Y-56655000I0J155000D01*
G01*
X177780000Y-56230000D01*
G75*
G02*
X177935000Y-56075000I155000J0D01*
G01*
X178245000Y-56075000D01*
G75*
G02*
X178400000Y-56230000I0J-155000D01*
G01*
X178400000Y-56655000D01*
G75*
G02*
X178245000Y-56810000I-155000J0D01*
G01*
G37*
%TD.AperFunction*%
%TO.P,C5,1*%
%TO.N,/Temp_A*%
%TA.AperFunction,SMDPad,CuDef*%
G36*
G01*
X178245000Y-57945000D02*
X177935000Y-57945000D01*
G75*
G02*
X177780000Y-57790000I0J155000D01*
G01*
X177780000Y-57365000D01*
G75*
G02*
X177935000Y-57210000I155000J0D01*
G01*
X178245000Y-57210000D01*
G75*
G02*
X178400000Y-57365000I0J-155000D01*
G01*
X178400000Y-57790000D01*
G75*
G02*
X178245000Y-57945000I-155000J0D01*
G01*
G37*
%TD.AperFunction*%
%TD*%
%TO.P,C4,2*%
%TO.N,/CMOUT*%
%TA.AperFunction,SMDPad,CuDef*%
G36*
G01*
X185390000Y-61525000D02*
X185390000Y-61835000D01*
G75*
G02*
X185235000Y-61990000I-155000J0D01*
G01*
X184810000Y-61990000D01*
G75*
G02*
X184655000Y-61835000I0J155000D01*
G01*
X184655000Y-61525000D01*
G75*
G02*
X184810000Y-61370000I155000J0D01*
G01*
X185235000Y-61370000D01*
G75*
G02*
X185390000Y-61525000I0J-155000D01*
G01*
G37*
%TD.AperFunction*%
%TO.P,C4,1*%
%TO.N,GND*%
%TA.AperFunction,SMDPad,CuDef*%
G36*
G01*
X186525000Y-61525000D02*
X186525000Y-61835000D01*
G75*
G02*
X186370000Y-61990000I-155000J0D01*
G01*
X185945000Y-61990000D01*
G75*
G02*
X185790000Y-61835000I0J155000D01*
G01*
X185790000Y-61525000D01*
G75*
G02*
X185945000Y-61370000I155000J0D01*
G01*
X186370000Y-61370000D01*
G75*
G02*
X186525000Y-61525000I0J-155000D01*
G01*
G37*
%TD.AperFunction*%
%TD*%
%TO.P,C3,2*%
%TO.N,Net-(C3-Pad2)*%
%TA.AperFunction,SMDPad,CuDef*%
G36*
G01*
X187805000Y-58610000D02*
X188115000Y-58610000D01*
G75*
G02*
X188270000Y-58765000I0J-155000D01*
G01*
X188270000Y-59190000D01*
G75*
G02*
X188115000Y-59345000I-155000J0D01*
G01*
X187805000Y-59345000D01*
G75*
G02*
X187650000Y-59190000I0J155000D01*
G01*
X187650000Y-58765000D01*
G75*
G02*
X187805000Y-58610000I155000J0D01*
G01*
G37*
%TD.AperFunction*%
%TO.P,C3,1*%
%TO.N,/CMOUT*%
%TA.AperFunction,SMDPad,CuDef*%
G36*
G01*
X187805000Y-57475000D02*
X188115000Y-57475000D01*
G75*
G02*
X188270000Y-57630000I0J-155000D01*
G01*
X188270000Y-58055000D01*
G75*
G02*
X188115000Y-58210000I-155000J0D01*
G01*
X187805000Y-58210000D01*
G75*
G02*
X187650000Y-58055000I0J155000D01*
G01*
X187650000Y-57630000D01*
G75*
G02*
X187805000Y-57475000I155000J0D01*
G01*
G37*
%TD.AperFunction*%
%TD*%
%TO.P,C2,2*%
%TO.N,+3V3*%
%TA.AperFunction,SMDPad,CuDef*%
G36*
G01*
X179235000Y-59700000D02*
X178925000Y-59700000D01*
G75*
G02*
X178770000Y-59545000I0J155000D01*
G01*
X178770000Y-59120000D01*
G75*
G02*
X178925000Y-58965000I155000J0D01*
G01*
X179235000Y-58965000D01*
G75*
G02*
X179390000Y-59120000I0J-155000D01*
G01*
X179390000Y-59545000D01*
G75*
G02*
X179235000Y-59700000I-155000J0D01*
G01*
G37*
%TD.AperFunction*%
%TO.P,C2,1*%
%TO.N,GND*%
%TA.AperFunction,SMDPad,CuDef*%
G36*
G01*
X179235000Y-60835000D02*
X178925000Y-60835000D01*
G75*
G02*
X178770000Y-60680000I0J155000D01*
G01*
X178770000Y-60255000D01*
G75*
G02*
X178925000Y-60100000I155000J0D01*
G01*
X179235000Y-60100000D01*
G75*
G02*
X179390000Y-60255000I0J-155000D01*
G01*
X179390000Y-60680000D01*
G75*
G02*
X179235000Y-60835000I-155000J0D01*
G01*
G37*
%TD.AperFunction*%
%TD*%
%TO.P,C1,2*%
%TO.N,+3V3*%
%TA.AperFunction,SMDPad,CuDef*%
G36*
G01*
X178265000Y-59700000D02*
X177955000Y-59700000D01*
G75*
G02*
X177800000Y-59545000I0J155000D01*
G01*
X177800000Y-59120000D01*
G75*
G02*
X177955000Y-58965000I155000J0D01*
G01*
X178265000Y-58965000D01*
G75*
G02*
X178420000Y-59120000I0J-155000D01*
G01*
X178420000Y-59545000D01*
G75*
G02*
X178265000Y-59700000I-155000J0D01*
G01*
G37*
%TD.AperFunction*%
%TO.P,C1,1*%
%TO.N,GND*%
%TA.AperFunction,SMDPad,CuDef*%
G36*
G01*
X178265000Y-60835000D02*
X177955000Y-60835000D01*
G75*
G02*
X177800000Y-60680000I0J155000D01*
G01*
X177800000Y-60255000D01*
G75*
G02*
X177955000Y-60100000I155000J0D01*
G01*
X178265000Y-60100000D01*
G75*
G02*
X178420000Y-60255000I0J-155000D01*
G01*
X178420000Y-60680000D01*
G75*
G02*
X178265000Y-60835000I-155000J0D01*
G01*
G37*
%TD.AperFunction*%
%TD*%
D13*
%TO.N,+3V3*%
X178690000Y-55270000D03*
X178110000Y-59332500D03*
%TO.N,GND*%
X183650000Y-53840000D03*
X183660000Y-54600000D03*
X187360000Y-50920000D03*
X187340000Y-53520000D03*
X180670000Y-61560000D03*
X185720000Y-62810000D03*
X178080000Y-50570000D03*
X187920000Y-61170000D03*
%TO.N,Net-(C3-Pad2)*%
X187960000Y-59830000D03*
%TO.N,/CMOUT*%
X185070000Y-57370000D03*
%TO.N,/Temp_A*%
X178480000Y-58500000D03*
%TO.N,/A1*%
X185220000Y-55880000D03*
%TO.N,/SPICS*%
X178980000Y-51960000D03*
X180572000Y-56460000D03*
%TO.N,/A0*%
X185300000Y-56720000D03*
%TD*%
D14*
%TO.N,+3V3*%
X180572000Y-58410000D02*
X180572000Y-59060000D01*
X184137500Y-58410000D02*
X180572000Y-58410000D01*
X186187500Y-60460000D02*
X184137500Y-58410000D01*
X178110000Y-59332500D02*
X179080000Y-59332500D01*
X180299500Y-59332500D02*
X180572000Y-59060000D01*
X179080000Y-59332500D02*
X180299500Y-59332500D01*
X178690000Y-53330000D02*
X178690000Y-55270000D01*
X180490000Y-51530000D02*
X178690000Y-53330000D01*
%TO.N,Net-(C3-Pad2)*%
X187877500Y-59060000D02*
X187960000Y-58977500D01*
X186448000Y-59060000D02*
X187877500Y-59060000D01*
X187960000Y-58977500D02*
X187960000Y-59830000D01*
%TO.N,/CMOUT*%
X184270000Y-61680000D02*
X185022500Y-61680000D01*
X183648022Y-61058022D02*
X184270000Y-61680000D01*
X187877500Y-57760000D02*
X187960000Y-57842500D01*
X186448000Y-57760000D02*
X187877500Y-57760000D01*
X185460000Y-57760000D02*
X185070000Y-57370000D01*
X186448000Y-57760000D02*
X185460000Y-57760000D01*
%TO.N,/Temp_A*%
X178120000Y-57607500D02*
X178090000Y-57577500D01*
X179040000Y-57607500D02*
X178120000Y-57607500D01*
X178090000Y-58110000D02*
X178480000Y-58500000D01*
X178090000Y-57577500D02*
X178090000Y-58110000D01*
%TO.N,/A1*%
X185800000Y-56460000D02*
X186448000Y-56460000D01*
X185220000Y-55880000D02*
X185800000Y-56460000D01*
%TO.N,/MOSI*%
X180572000Y-57760000D02*
X183010000Y-57760000D01*
X184300000Y-56470000D02*
X183010000Y-57760000D01*
X184300000Y-52800000D02*
X184300000Y-56470000D01*
%TO.N,/SCLK*%
X180572000Y-57110000D02*
X181680834Y-57110000D01*
X183030000Y-55760834D02*
X183030000Y-52800000D01*
X181680834Y-57110000D02*
X183030000Y-55760834D01*
%TO.N,/SPICS*%
X180572000Y-56460000D02*
X180572000Y-56460000D01*
X178980000Y-51960000D02*
X178980000Y-51300000D01*
X178980000Y-51300000D02*
X179630000Y-50650000D01*
X182150000Y-50650000D02*
X183030000Y-51530000D01*
X179630000Y-50650000D02*
X182150000Y-50650000D01*
%TO.N,Net-(IC1-Pad9)*%
X179642500Y-55810000D02*
X179040000Y-56412500D01*
X180572000Y-55810000D02*
X179642500Y-55810000D01*
%TO.N,/A0*%
X185690000Y-57110000D02*
X186448000Y-57110000D01*
X185300000Y-56720000D02*
X185690000Y-57110000D01*
%TO.N,/Thermistor*%
X181851978Y-60731978D02*
X183043956Y-59540000D01*
X184072500Y-59540000D02*
X184992500Y-60460000D01*
X183043956Y-59540000D02*
X184072500Y-59540000D01*
%TD*%
D15*
%TO.N,GND*%
X188284501Y-57329689D02*
X188247570Y-57309949D01*
X188182583Y-57290235D01*
X188115000Y-57283579D01*
X187805000Y-57283579D01*
X187737417Y-57290235D01*
X187672430Y-57309949D01*
X187612539Y-57341961D01*
X187560043Y-57385043D01*
X187516961Y-57437539D01*
X187487157Y-57493300D01*
X187371922Y-57493300D01*
X187362350Y-57461746D01*
X187348054Y-57435000D01*
X187362350Y-57408254D01*
X187373243Y-57372344D01*
X187376921Y-57335000D01*
X187376921Y-56885000D01*
X187373243Y-56847656D01*
X187362350Y-56811746D01*
X187348054Y-56785000D01*
X187362350Y-56758254D01*
X187373243Y-56722344D01*
X187376921Y-56685000D01*
X187376921Y-56255778D01*
X187393045Y-56242545D01*
X187429547Y-56198067D01*
X187456671Y-56147323D01*
X187473373Y-56092262D01*
X187479013Y-56035000D01*
X187477600Y-55971925D01*
X187404575Y-55898900D01*
X186536900Y-55898900D01*
X186536900Y-55918900D01*
X186359100Y-55918900D01*
X186359100Y-55898900D01*
X186339100Y-55898900D01*
X186339100Y-55721100D01*
X186359100Y-55721100D01*
X186359100Y-55701100D01*
X186536900Y-55701100D01*
X186536900Y-55721100D01*
X187404575Y-55721100D01*
X187477600Y-55648075D01*
X187479013Y-55585000D01*
X187473373Y-55527738D01*
X187456671Y-55472677D01*
X187429547Y-55421933D01*
X187393045Y-55377455D01*
X187376921Y-55364222D01*
X187376921Y-54935000D01*
X187373243Y-54897656D01*
X187362350Y-54861746D01*
X187344661Y-54828652D01*
X187320855Y-54799645D01*
X187291848Y-54775839D01*
X187258754Y-54758150D01*
X187222844Y-54747257D01*
X187185500Y-54743579D01*
X185710500Y-54743579D01*
X185673156Y-54747257D01*
X185637246Y-54758150D01*
X185604152Y-54775839D01*
X185575145Y-54799645D01*
X185551339Y-54828652D01*
X185533650Y-54861746D01*
X185522757Y-54897656D01*
X185519079Y-54935000D01*
X185519079Y-55364222D01*
X185502955Y-55377455D01*
X185466453Y-55421933D01*
X185439329Y-55472677D01*
X185434467Y-55488706D01*
X185430550Y-55486089D01*
X185349656Y-55452582D01*
X185263779Y-55435500D01*
X185176221Y-55435500D01*
X185090344Y-55452582D01*
X185009450Y-55486089D01*
X184936648Y-55534734D01*
X184874734Y-55596648D01*
X184826089Y-55669450D01*
X184792582Y-55750344D01*
X184775500Y-55836221D01*
X184775500Y-55923779D01*
X184792582Y-56009656D01*
X184826089Y-56090550D01*
X184874734Y-56163352D01*
X184936648Y-56225266D01*
X185009450Y-56273911D01*
X185090344Y-56307418D01*
X185120192Y-56313355D01*
X185089450Y-56326089D01*
X185016648Y-56374734D01*
X184954734Y-56436648D01*
X184906089Y-56509450D01*
X184872582Y-56590344D01*
X184855500Y-56676221D01*
X184855500Y-56763779D01*
X184872582Y-56849656D01*
X184906089Y-56930550D01*
X184919811Y-56951087D01*
X184859450Y-56976089D01*
X184786648Y-57024734D01*
X184724734Y-57086648D01*
X184676089Y-57159450D01*
X184642582Y-57240344D01*
X184625500Y-57326221D01*
X184625500Y-57413779D01*
X184642582Y-57499656D01*
X184676089Y-57580550D01*
X184724734Y-57653352D01*
X184786648Y-57715266D01*
X184859450Y-57763911D01*
X184940344Y-57797418D01*
X185026221Y-57814500D01*
X185113779Y-57814500D01*
X185133423Y-57810593D01*
X185262146Y-57939316D01*
X185270502Y-57949498D01*
X185311113Y-57982826D01*
X185357445Y-58007590D01*
X185407718Y-58022841D01*
X185446902Y-58026700D01*
X185446903Y-58026700D01*
X185459999Y-58027990D01*
X185473095Y-58026700D01*
X185524078Y-58026700D01*
X185533650Y-58058254D01*
X185547946Y-58085000D01*
X185533650Y-58111746D01*
X185522757Y-58147656D01*
X185519079Y-58185000D01*
X185519079Y-58635000D01*
X185522757Y-58672344D01*
X185533650Y-58708254D01*
X185547946Y-58735000D01*
X185533650Y-58761746D01*
X185522757Y-58797656D01*
X185519079Y-58835000D01*
X185519079Y-59285000D01*
X185522757Y-59322344D01*
X185533650Y-59358254D01*
X185551339Y-59391348D01*
X185575145Y-59420355D01*
X185604152Y-59444161D01*
X185637246Y-59461850D01*
X185673156Y-59472743D01*
X185710500Y-59476421D01*
X187185500Y-59476421D01*
X187222844Y-59472743D01*
X187258754Y-59461850D01*
X187291848Y-59444161D01*
X187320855Y-59420355D01*
X187344661Y-59391348D01*
X187362350Y-59358254D01*
X187371922Y-59326700D01*
X187487157Y-59326700D01*
X187516961Y-59382461D01*
X187560043Y-59434957D01*
X187612539Y-59478039D01*
X187658680Y-59502702D01*
X187614734Y-59546648D01*
X187566089Y-59619450D01*
X187532582Y-59700344D01*
X187515500Y-59786221D01*
X187515500Y-59873779D01*
X187532582Y-59959656D01*
X187566089Y-60040550D01*
X187614734Y-60113352D01*
X187676648Y-60175266D01*
X187749450Y-60223911D01*
X187830344Y-60257418D01*
X187916221Y-60274500D01*
X188003779Y-60274500D01*
X188089656Y-60257418D01*
X188170550Y-60223911D01*
X188243352Y-60175266D01*
X188284501Y-60134117D01*
X188284501Y-61584501D01*
X186989419Y-61584501D01*
X186957753Y-61587620D01*
X186917131Y-61599942D01*
X186879694Y-61619953D01*
X186846880Y-61646883D01*
X186819950Y-61679697D01*
X186799939Y-61717134D01*
X186797100Y-61726493D01*
X186768707Y-61793532D01*
X186744075Y-61768900D01*
X186246400Y-61768900D01*
X186246400Y-62209075D01*
X186319425Y-62282100D01*
X186525000Y-62283513D01*
X186562762Y-62279794D01*
X186490832Y-62449630D01*
X186055373Y-63091494D01*
X185503542Y-63636547D01*
X184856349Y-64064039D01*
X184138446Y-64357682D01*
X183377178Y-64506291D01*
X182601549Y-64504206D01*
X181841093Y-64351505D01*
X181124785Y-64054008D01*
X180479900Y-63623045D01*
X179931005Y-63075030D01*
X179515269Y-62455089D01*
X181111478Y-62455089D01*
X181111478Y-62600955D01*
X181139935Y-62744018D01*
X181195755Y-62878780D01*
X181276794Y-63000063D01*
X181379937Y-63103206D01*
X181501220Y-63184245D01*
X181635982Y-63240065D01*
X181779045Y-63268522D01*
X181924911Y-63268522D01*
X182067974Y-63240065D01*
X182202736Y-63184245D01*
X182324019Y-63103206D01*
X182349203Y-63078022D01*
X182804509Y-63078022D01*
X182810149Y-63135284D01*
X182826851Y-63190345D01*
X182853975Y-63241089D01*
X182890477Y-63285567D01*
X182934955Y-63322069D01*
X182985699Y-63349193D01*
X183040760Y-63365895D01*
X183098022Y-63371535D01*
X183486097Y-63370122D01*
X183559122Y-63297097D01*
X183559122Y-62616922D01*
X183736922Y-62616922D01*
X183736922Y-63297097D01*
X183809947Y-63370122D01*
X184198022Y-63371535D01*
X184255284Y-63365895D01*
X184310345Y-63349193D01*
X184361089Y-63322069D01*
X184405567Y-63285567D01*
X184442069Y-63241089D01*
X184469193Y-63190345D01*
X184485895Y-63135284D01*
X184491535Y-63078022D01*
X184490122Y-62689947D01*
X184417097Y-62616922D01*
X183736922Y-62616922D01*
X183559122Y-62616922D01*
X182878947Y-62616922D01*
X182805922Y-62689947D01*
X182804509Y-63078022D01*
X182349203Y-63078022D01*
X182427162Y-63000063D01*
X182508201Y-62878780D01*
X182564021Y-62744018D01*
X182592478Y-62600955D01*
X182592478Y-62455089D01*
X182564021Y-62312026D01*
X182508201Y-62177264D01*
X182427162Y-62055981D01*
X182349203Y-61978022D01*
X182804509Y-61978022D01*
X182805922Y-62366097D01*
X182878947Y-62439122D01*
X183559122Y-62439122D01*
X183559122Y-61758947D01*
X183486097Y-61685922D01*
X183098022Y-61684509D01*
X183040760Y-61690149D01*
X182985699Y-61706851D01*
X182934955Y-61733975D01*
X182890477Y-61770477D01*
X182853975Y-61814955D01*
X182826851Y-61865699D01*
X182810149Y-61920760D01*
X182804509Y-61978022D01*
X182349203Y-61978022D01*
X182324019Y-61952838D01*
X182202736Y-61871799D01*
X182067974Y-61815979D01*
X181924911Y-61787522D01*
X181779045Y-61787522D01*
X181635982Y-61815979D01*
X181501220Y-61871799D01*
X181379937Y-61952838D01*
X181276794Y-62055981D01*
X181195755Y-62177264D01*
X181139935Y-62312026D01*
X181111478Y-62455089D01*
X179515269Y-62455089D01*
X179498843Y-62430595D01*
X179202981Y-61726764D01*
X179200059Y-61717133D01*
X179180048Y-61679696D01*
X179153118Y-61646882D01*
X179120304Y-61619952D01*
X179082867Y-61599941D01*
X179042245Y-61587619D01*
X179010579Y-61584500D01*
X179000010Y-61584500D01*
X179000000Y-61584499D01*
X178999990Y-61584500D01*
X177715500Y-61584500D01*
X177715500Y-61114611D01*
X177742738Y-61122873D01*
X177800000Y-61128513D01*
X177948075Y-61127100D01*
X178021100Y-61054075D01*
X178021100Y-60556400D01*
X178198900Y-60556400D01*
X178198900Y-61054075D01*
X178271925Y-61127100D01*
X178420000Y-61128513D01*
X178477262Y-61122873D01*
X178532323Y-61106171D01*
X178583067Y-61079047D01*
X178595000Y-61069254D01*
X178606933Y-61079047D01*
X178657677Y-61106171D01*
X178712738Y-61122873D01*
X178770000Y-61128513D01*
X178918075Y-61127100D01*
X178991100Y-61054075D01*
X178991100Y-60556400D01*
X179168900Y-60556400D01*
X179168900Y-61054075D01*
X179241925Y-61127100D01*
X179390000Y-61128513D01*
X179447262Y-61122873D01*
X179502323Y-61106171D01*
X179553067Y-61079047D01*
X179597545Y-61042545D01*
X179634047Y-60998067D01*
X179661171Y-60947323D01*
X179677873Y-60892262D01*
X179683513Y-60835000D01*
X179682100Y-60629425D01*
X179609075Y-60556400D01*
X179168900Y-60556400D01*
X178991100Y-60556400D01*
X178198900Y-60556400D01*
X178021100Y-60556400D01*
X178001100Y-60556400D01*
X178001100Y-60378600D01*
X178021100Y-60378600D01*
X178021100Y-60358600D01*
X178198900Y-60358600D01*
X178198900Y-60378600D01*
X178991100Y-60378600D01*
X178991100Y-60358600D01*
X179168900Y-60358600D01*
X179168900Y-60378600D01*
X179609075Y-60378600D01*
X179682100Y-60305575D01*
X179683513Y-60100000D01*
X179677873Y-60042738D01*
X179661171Y-59987677D01*
X179634047Y-59936933D01*
X179597545Y-59892455D01*
X179553067Y-59855953D01*
X179502323Y-59828829D01*
X179451410Y-59813385D01*
X179479957Y-59789957D01*
X179523039Y-59737461D01*
X179555051Y-59677570D01*
X179574765Y-59612583D01*
X179576083Y-59599200D01*
X180286404Y-59599200D01*
X180299500Y-59600490D01*
X180312596Y-59599200D01*
X180312598Y-59599200D01*
X180351782Y-59595341D01*
X180402055Y-59580090D01*
X180448387Y-59555326D01*
X180488998Y-59521998D01*
X180497354Y-59511816D01*
X180532749Y-59476421D01*
X181309500Y-59476421D01*
X181346844Y-59472743D01*
X181382754Y-59461850D01*
X181415848Y-59444161D01*
X181444855Y-59420355D01*
X181468661Y-59391348D01*
X181486350Y-59358254D01*
X181497243Y-59322344D01*
X181500921Y-59285000D01*
X181500921Y-58835000D01*
X181497243Y-58797656D01*
X181486350Y-58761746D01*
X181472054Y-58735000D01*
X181486350Y-58708254D01*
X181495922Y-58676700D01*
X184027030Y-58676700D01*
X185327008Y-59976679D01*
X185324483Y-59975329D01*
X185258559Y-59955331D01*
X185190000Y-59948579D01*
X184858250Y-59948579D01*
X184270354Y-59360684D01*
X184261998Y-59350502D01*
X184221387Y-59317174D01*
X184175055Y-59292410D01*
X184124782Y-59277159D01*
X184085598Y-59273300D01*
X184085596Y-59273300D01*
X184072500Y-59272010D01*
X184059404Y-59273300D01*
X183057051Y-59273300D01*
X183043955Y-59272010D01*
X183030859Y-59273300D01*
X183030858Y-59273300D01*
X182991674Y-59277159D01*
X182941401Y-59292410D01*
X182913002Y-59307589D01*
X182895067Y-59317175D01*
X182883461Y-59326700D01*
X182854458Y-59350502D01*
X182846106Y-59360679D01*
X182152033Y-60054753D01*
X182067974Y-60019935D01*
X181924911Y-59991478D01*
X181779045Y-59991478D01*
X181635982Y-60019935D01*
X181501220Y-60075755D01*
X181379937Y-60156794D01*
X181276794Y-60259937D01*
X181195755Y-60381220D01*
X181139935Y-60515982D01*
X181111478Y-60659045D01*
X181111478Y-60804911D01*
X181139935Y-60947974D01*
X181195755Y-61082736D01*
X181276794Y-61204019D01*
X181379937Y-61307162D01*
X181501220Y-61388201D01*
X181635982Y-61444021D01*
X181779045Y-61472478D01*
X181924911Y-61472478D01*
X182067974Y-61444021D01*
X182202736Y-61388201D01*
X182324019Y-61307162D01*
X182427162Y-61204019D01*
X182508201Y-61082736D01*
X182564021Y-60947974D01*
X182592478Y-60804911D01*
X182592478Y-60659045D01*
X182907522Y-60659045D01*
X182907522Y-60804911D01*
X182935979Y-60947974D01*
X182991799Y-61082736D01*
X183072838Y-61204019D01*
X183175981Y-61307162D01*
X183297264Y-61388201D01*
X183432026Y-61444021D01*
X183575089Y-61472478D01*
X183685308Y-61472478D01*
X183898429Y-61685600D01*
X183809947Y-61685922D01*
X183736922Y-61758947D01*
X183736922Y-62439122D01*
X184417097Y-62439122D01*
X184490122Y-62366097D01*
X184491535Y-61978022D01*
X184490631Y-61968846D01*
X184521961Y-62027461D01*
X184565043Y-62079957D01*
X184617539Y-62123039D01*
X184677430Y-62155051D01*
X184742417Y-62174765D01*
X184810000Y-62181421D01*
X185235000Y-62181421D01*
X185302583Y-62174765D01*
X185367570Y-62155051D01*
X185427461Y-62123039D01*
X185479957Y-62079957D01*
X185503385Y-62051410D01*
X185518829Y-62102323D01*
X185545953Y-62153067D01*
X185582455Y-62197545D01*
X185626933Y-62234047D01*
X185677677Y-62261171D01*
X185732738Y-62277873D01*
X185790000Y-62283513D01*
X185995575Y-62282100D01*
X186068600Y-62209075D01*
X186068600Y-61768900D01*
X186048600Y-61768900D01*
X186048600Y-61591100D01*
X186068600Y-61591100D01*
X186068600Y-61150925D01*
X186246400Y-61150925D01*
X186246400Y-61591100D01*
X186744075Y-61591100D01*
X186817100Y-61518075D01*
X186818513Y-61370000D01*
X186812873Y-61312738D01*
X186796171Y-61257677D01*
X186769047Y-61206933D01*
X186732545Y-61162455D01*
X186688067Y-61125953D01*
X186637323Y-61098829D01*
X186582262Y-61082127D01*
X186525000Y-61076487D01*
X186319425Y-61077900D01*
X186246400Y-61150925D01*
X186068600Y-61150925D01*
X185995575Y-61077900D01*
X185790000Y-61076487D01*
X185732738Y-61082127D01*
X185677677Y-61098829D01*
X185626933Y-61125953D01*
X185582455Y-61162455D01*
X185545953Y-61206933D01*
X185518829Y-61257677D01*
X185503385Y-61308590D01*
X185479957Y-61280043D01*
X185427461Y-61236961D01*
X185367570Y-61204949D01*
X185302583Y-61185235D01*
X185235000Y-61178579D01*
X184810000Y-61178579D01*
X184742417Y-61185235D01*
X184677430Y-61204949D01*
X184617539Y-61236961D01*
X184565043Y-61280043D01*
X184521961Y-61332539D01*
X184489949Y-61392430D01*
X184483618Y-61413300D01*
X184380471Y-61413300D01*
X184197198Y-61230027D01*
X184223206Y-61204019D01*
X184304245Y-61082736D01*
X184360065Y-60947974D01*
X184388522Y-60804911D01*
X184388522Y-60659045D01*
X184360065Y-60515982D01*
X184304245Y-60381220D01*
X184223206Y-60259937D01*
X184120063Y-60156794D01*
X183998780Y-60075755D01*
X183864018Y-60019935D01*
X183720955Y-59991478D01*
X183575089Y-59991478D01*
X183432026Y-60019935D01*
X183297264Y-60075755D01*
X183175981Y-60156794D01*
X183072838Y-60259937D01*
X182991799Y-60381220D01*
X182935979Y-60515982D01*
X182907522Y-60659045D01*
X182592478Y-60659045D01*
X182564021Y-60515982D01*
X182529203Y-60431923D01*
X183154427Y-59806700D01*
X183962030Y-59806700D01*
X184444632Y-60289303D01*
X184443579Y-60300000D01*
X184443579Y-60620000D01*
X184450331Y-60688559D01*
X184470329Y-60754483D01*
X184502804Y-60815239D01*
X184546508Y-60868492D01*
X184599761Y-60912196D01*
X184660517Y-60944671D01*
X184726441Y-60964669D01*
X184795000Y-60971421D01*
X185190000Y-60971421D01*
X185258559Y-60964669D01*
X185324483Y-60944671D01*
X185385239Y-60912196D01*
X185438492Y-60868492D01*
X185482196Y-60815239D01*
X185514671Y-60754483D01*
X185534669Y-60688559D01*
X185541421Y-60620000D01*
X185541421Y-60300000D01*
X185534669Y-60231441D01*
X185514671Y-60165517D01*
X185513321Y-60162992D01*
X185639632Y-60289303D01*
X185638579Y-60300000D01*
X185638579Y-60620000D01*
X185645331Y-60688559D01*
X185665329Y-60754483D01*
X185697804Y-60815239D01*
X185741508Y-60868492D01*
X185794761Y-60912196D01*
X185855517Y-60944671D01*
X185921441Y-60964669D01*
X185990000Y-60971421D01*
X186385000Y-60971421D01*
X186453559Y-60964669D01*
X186519483Y-60944671D01*
X186580239Y-60912196D01*
X186633492Y-60868492D01*
X186677196Y-60815239D01*
X186709671Y-60754483D01*
X186729669Y-60688559D01*
X186736421Y-60620000D01*
X186736421Y-60300000D01*
X186729669Y-60231441D01*
X186709671Y-60165517D01*
X186677196Y-60104761D01*
X186633492Y-60051508D01*
X186580239Y-60007804D01*
X186519483Y-59975329D01*
X186453559Y-59955331D01*
X186385000Y-59948579D01*
X186053250Y-59948579D01*
X184335354Y-58230684D01*
X184326998Y-58220502D01*
X184286387Y-58187174D01*
X184240055Y-58162410D01*
X184189782Y-58147159D01*
X184150598Y-58143300D01*
X184150596Y-58143300D01*
X184137500Y-58142010D01*
X184124404Y-58143300D01*
X181495922Y-58143300D01*
X181486350Y-58111746D01*
X181472054Y-58085000D01*
X181486350Y-58058254D01*
X181495922Y-58026700D01*
X182996904Y-58026700D01*
X183010000Y-58027990D01*
X183023096Y-58026700D01*
X183023098Y-58026700D01*
X183062282Y-58022841D01*
X183112555Y-58007590D01*
X183158887Y-57982826D01*
X183199498Y-57949498D01*
X183207854Y-57939316D01*
X184479321Y-56667850D01*
X184489498Y-56659498D01*
X184510109Y-56634383D01*
X184522825Y-56618889D01*
X184530556Y-56604425D01*
X184547590Y-56572555D01*
X184562841Y-56522282D01*
X184566700Y-56483098D01*
X184566700Y-56483097D01*
X184567990Y-56470001D01*
X184566700Y-56456905D01*
X184566700Y-53491041D01*
X184650758Y-53456223D01*
X184772041Y-53375184D01*
X184875184Y-53272041D01*
X184935000Y-53182520D01*
X184994816Y-53272041D01*
X185097959Y-53375184D01*
X185219242Y-53456223D01*
X185354004Y-53512043D01*
X185497067Y-53540500D01*
X185642933Y-53540500D01*
X185785996Y-53512043D01*
X185920758Y-53456223D01*
X186042041Y-53375184D01*
X186145184Y-53272041D01*
X186226223Y-53150758D01*
X186282043Y-53015996D01*
X186310500Y-52872933D01*
X186310500Y-52727067D01*
X186282043Y-52584004D01*
X186226223Y-52449242D01*
X186172188Y-52368373D01*
X186177262Y-52367873D01*
X186232323Y-52351171D01*
X186283067Y-52324047D01*
X186327545Y-52287545D01*
X186364047Y-52243067D01*
X186391171Y-52192323D01*
X186407873Y-52137262D01*
X186413513Y-52080000D01*
X186412100Y-51691925D01*
X186339075Y-51618900D01*
X185658900Y-51618900D01*
X185658900Y-51638900D01*
X185481100Y-51638900D01*
X185481100Y-51618900D01*
X185461100Y-51618900D01*
X185461100Y-51441100D01*
X185481100Y-51441100D01*
X185481100Y-50760925D01*
X185658900Y-50760925D01*
X185658900Y-51441100D01*
X186339075Y-51441100D01*
X186412100Y-51368075D01*
X186413513Y-50980000D01*
X186407873Y-50922738D01*
X186391171Y-50867677D01*
X186364047Y-50816933D01*
X186327545Y-50772455D01*
X186283067Y-50735953D01*
X186232323Y-50708829D01*
X186177262Y-50692127D01*
X186120000Y-50686487D01*
X185731925Y-50687900D01*
X185658900Y-50760925D01*
X185481100Y-50760925D01*
X185408075Y-50687900D01*
X185020000Y-50686487D01*
X184962738Y-50692127D01*
X184907677Y-50708829D01*
X184856933Y-50735953D01*
X184812455Y-50772455D01*
X184775953Y-50816933D01*
X184748829Y-50867677D01*
X184732127Y-50922738D01*
X184731627Y-50927812D01*
X184650758Y-50873777D01*
X184515996Y-50817957D01*
X184372933Y-50789500D01*
X184227067Y-50789500D01*
X184084004Y-50817957D01*
X183949242Y-50873777D01*
X183827959Y-50954816D01*
X183724816Y-51057959D01*
X183665000Y-51147480D01*
X183605184Y-51057959D01*
X183502041Y-50954816D01*
X183380758Y-50873777D01*
X183245996Y-50817957D01*
X183102933Y-50789500D01*
X182957067Y-50789500D01*
X182814004Y-50817957D01*
X182729945Y-50852775D01*
X182347854Y-50470684D01*
X182339498Y-50460502D01*
X182298887Y-50427174D01*
X182252555Y-50402410D01*
X182202282Y-50387159D01*
X182163098Y-50383300D01*
X182163096Y-50383300D01*
X182150000Y-50382010D01*
X182136904Y-50383300D01*
X179643096Y-50383300D01*
X179630000Y-50382010D01*
X179616904Y-50383300D01*
X179616902Y-50383300D01*
X179577718Y-50387159D01*
X179542695Y-50397784D01*
X179527444Y-50402410D01*
X179502680Y-50415647D01*
X179481113Y-50427174D01*
X179440502Y-50460502D01*
X179432150Y-50470679D01*
X178800679Y-51102151D01*
X178790503Y-51110502D01*
X178782153Y-51120677D01*
X178757175Y-51151113D01*
X178732411Y-51197445D01*
X178717160Y-51247718D01*
X178712010Y-51300000D01*
X178713301Y-51313106D01*
X178713301Y-51603607D01*
X178696648Y-51614734D01*
X178634734Y-51676648D01*
X178586089Y-51749450D01*
X178552582Y-51830344D01*
X178535500Y-51916221D01*
X178535500Y-52003779D01*
X178552582Y-52089656D01*
X178586089Y-52170550D01*
X178634734Y-52243352D01*
X178696648Y-52305266D01*
X178769450Y-52353911D01*
X178850344Y-52387418D01*
X178936221Y-52404500D01*
X179023779Y-52404500D01*
X179109656Y-52387418D01*
X179190550Y-52353911D01*
X179263352Y-52305266D01*
X179325266Y-52243352D01*
X179373911Y-52170550D01*
X179407418Y-52089656D01*
X179424500Y-52003779D01*
X179424500Y-51916221D01*
X179407418Y-51830344D01*
X179373911Y-51749450D01*
X179325266Y-51676648D01*
X179263352Y-51614734D01*
X179246700Y-51603607D01*
X179246700Y-51410470D01*
X179740471Y-50916700D01*
X180075003Y-50916700D01*
X180017959Y-50954816D01*
X179914816Y-51057959D01*
X179833777Y-51179242D01*
X179777957Y-51314004D01*
X179749500Y-51457067D01*
X179749500Y-51602933D01*
X179777957Y-51745996D01*
X179812775Y-51830055D01*
X178510684Y-53132146D01*
X178500502Y-53140502D01*
X178467174Y-53181113D01*
X178442410Y-53227446D01*
X178427159Y-53277719D01*
X178423300Y-53316902D01*
X178422010Y-53330000D01*
X178423300Y-53343096D01*
X178423301Y-54913607D01*
X178406648Y-54924734D01*
X178344734Y-54986648D01*
X178296089Y-55059450D01*
X178262582Y-55140344D01*
X178245500Y-55226221D01*
X178245500Y-55313779D01*
X178262582Y-55399656D01*
X178296089Y-55480550D01*
X178344734Y-55553352D01*
X178406648Y-55615266D01*
X178479450Y-55663911D01*
X178560344Y-55697418D01*
X178646221Y-55714500D01*
X178733779Y-55714500D01*
X178819656Y-55697418D01*
X178900550Y-55663911D01*
X178973352Y-55615266D01*
X179035266Y-55553352D01*
X179083911Y-55480550D01*
X179117418Y-55399656D01*
X179134500Y-55313779D01*
X179134500Y-55226221D01*
X179117418Y-55140344D01*
X179083911Y-55059450D01*
X179035266Y-54986648D01*
X178973352Y-54924734D01*
X178956700Y-54913607D01*
X178956700Y-53440470D01*
X179769215Y-52627955D01*
X179749500Y-52727067D01*
X179749500Y-52872933D01*
X179777957Y-53015996D01*
X179833777Y-53150758D01*
X179914816Y-53272041D01*
X180017959Y-53375184D01*
X180139242Y-53456223D01*
X180274004Y-53512043D01*
X180417067Y-53540500D01*
X180562933Y-53540500D01*
X180705996Y-53512043D01*
X180840758Y-53456223D01*
X180962041Y-53375184D01*
X181065184Y-53272041D01*
X181125000Y-53182520D01*
X181184816Y-53272041D01*
X181287959Y-53375184D01*
X181409242Y-53456223D01*
X181544004Y-53512043D01*
X181687067Y-53540500D01*
X181832933Y-53540500D01*
X181975996Y-53512043D01*
X182110758Y-53456223D01*
X182232041Y-53375184D01*
X182335184Y-53272041D01*
X182395000Y-53182520D01*
X182454816Y-53272041D01*
X182557959Y-53375184D01*
X182679242Y-53456223D01*
X182763301Y-53491041D01*
X182763300Y-55650363D01*
X181570364Y-56843300D01*
X181495922Y-56843300D01*
X181486350Y-56811746D01*
X181472054Y-56785000D01*
X181486350Y-56758254D01*
X181497243Y-56722344D01*
X181500921Y-56685000D01*
X181500921Y-56235000D01*
X181497243Y-56197656D01*
X181486350Y-56161746D01*
X181472054Y-56135000D01*
X181486350Y-56108254D01*
X181497243Y-56072344D01*
X181500921Y-56035000D01*
X181500921Y-55585000D01*
X181497243Y-55547656D01*
X181486350Y-55511746D01*
X181472054Y-55485000D01*
X181486350Y-55458254D01*
X181497243Y-55422344D01*
X181500921Y-55385000D01*
X181500921Y-54935000D01*
X181497243Y-54897656D01*
X181486350Y-54861746D01*
X181468661Y-54828652D01*
X181444855Y-54799645D01*
X181415848Y-54775839D01*
X181382754Y-54758150D01*
X181346844Y-54747257D01*
X181309500Y-54743579D01*
X179834500Y-54743579D01*
X179797156Y-54747257D01*
X179761246Y-54758150D01*
X179728152Y-54775839D01*
X179699145Y-54799645D01*
X179675339Y-54828652D01*
X179657650Y-54861746D01*
X179646757Y-54897656D01*
X179643079Y-54935000D01*
X179643079Y-55385000D01*
X179646757Y-55422344D01*
X179657650Y-55458254D01*
X179671946Y-55485000D01*
X179657650Y-55511746D01*
X179648297Y-55542581D01*
X179642500Y-55542010D01*
X179590217Y-55547159D01*
X179541791Y-55561850D01*
X179539945Y-55562410D01*
X179493613Y-55587174D01*
X179453002Y-55620502D01*
X179444650Y-55630679D01*
X179210697Y-55864632D01*
X179200000Y-55863579D01*
X178880000Y-55863579D01*
X178811441Y-55870331D01*
X178745517Y-55890329D01*
X178684761Y-55922804D01*
X178660500Y-55942714D01*
X178644047Y-55911933D01*
X178607545Y-55867455D01*
X178563067Y-55830953D01*
X178512323Y-55803829D01*
X178457262Y-55787127D01*
X178400000Y-55781487D01*
X178251925Y-55782900D01*
X178178900Y-55855925D01*
X178178900Y-56353600D01*
X178198900Y-56353600D01*
X178198900Y-56531400D01*
X178178900Y-56531400D01*
X178178900Y-56551400D01*
X178001100Y-56551400D01*
X178001100Y-56531400D01*
X177981100Y-56531400D01*
X177981100Y-56353600D01*
X178001100Y-56353600D01*
X178001100Y-55855925D01*
X177928075Y-55782900D01*
X177780000Y-55781487D01*
X177722738Y-55787127D01*
X177715500Y-55789323D01*
X177715500Y-50215500D01*
X188284500Y-50215500D01*
X188284501Y-57329689D01*
%TA.AperFunction,Conductor*%
D16*
G36*
X188284501Y-57329689D02*
G01*
X188247570Y-57309949D01*
X188182583Y-57290235D01*
X188115000Y-57283579D01*
X187805000Y-57283579D01*
X187737417Y-57290235D01*
X187672430Y-57309949D01*
X187612539Y-57341961D01*
X187560043Y-57385043D01*
X187516961Y-57437539D01*
X187487157Y-57493300D01*
X187371922Y-57493300D01*
X187362350Y-57461746D01*
X187348054Y-57435000D01*
X187362350Y-57408254D01*
X187373243Y-57372344D01*
X187376921Y-57335000D01*
X187376921Y-56885000D01*
X187373243Y-56847656D01*
X187362350Y-56811746D01*
X187348054Y-56785000D01*
X187362350Y-56758254D01*
X187373243Y-56722344D01*
X187376921Y-56685000D01*
X187376921Y-56255778D01*
X187393045Y-56242545D01*
X187429547Y-56198067D01*
X187456671Y-56147323D01*
X187473373Y-56092262D01*
X187479013Y-56035000D01*
X187477600Y-55971925D01*
X187404575Y-55898900D01*
X186536900Y-55898900D01*
X186536900Y-55918900D01*
X186359100Y-55918900D01*
X186359100Y-55898900D01*
X186339100Y-55898900D01*
X186339100Y-55721100D01*
X186359100Y-55721100D01*
X186359100Y-55701100D01*
X186536900Y-55701100D01*
X186536900Y-55721100D01*
X187404575Y-55721100D01*
X187477600Y-55648075D01*
X187479013Y-55585000D01*
X187473373Y-55527738D01*
X187456671Y-55472677D01*
X187429547Y-55421933D01*
X187393045Y-55377455D01*
X187376921Y-55364222D01*
X187376921Y-54935000D01*
X187373243Y-54897656D01*
X187362350Y-54861746D01*
X187344661Y-54828652D01*
X187320855Y-54799645D01*
X187291848Y-54775839D01*
X187258754Y-54758150D01*
X187222844Y-54747257D01*
X187185500Y-54743579D01*
X185710500Y-54743579D01*
X185673156Y-54747257D01*
X185637246Y-54758150D01*
X185604152Y-54775839D01*
X185575145Y-54799645D01*
X185551339Y-54828652D01*
X185533650Y-54861746D01*
X185522757Y-54897656D01*
X185519079Y-54935000D01*
X185519079Y-55364222D01*
X185502955Y-55377455D01*
X185466453Y-55421933D01*
X185439329Y-55472677D01*
X185434467Y-55488706D01*
X185430550Y-55486089D01*
X185349656Y-55452582D01*
X185263779Y-55435500D01*
X185176221Y-55435500D01*
X185090344Y-55452582D01*
X185009450Y-55486089D01*
X184936648Y-55534734D01*
X184874734Y-55596648D01*
X184826089Y-55669450D01*
X184792582Y-55750344D01*
X184775500Y-55836221D01*
X184775500Y-55923779D01*
X184792582Y-56009656D01*
X184826089Y-56090550D01*
X184874734Y-56163352D01*
X184936648Y-56225266D01*
X185009450Y-56273911D01*
X185090344Y-56307418D01*
X185120192Y-56313355D01*
X185089450Y-56326089D01*
X185016648Y-56374734D01*
X184954734Y-56436648D01*
X184906089Y-56509450D01*
X184872582Y-56590344D01*
X184855500Y-56676221D01*
X184855500Y-56763779D01*
X184872582Y-56849656D01*
X184906089Y-56930550D01*
X184919811Y-56951087D01*
X184859450Y-56976089D01*
X184786648Y-57024734D01*
X184724734Y-57086648D01*
X184676089Y-57159450D01*
X184642582Y-57240344D01*
X184625500Y-57326221D01*
X184625500Y-57413779D01*
X184642582Y-57499656D01*
X184676089Y-57580550D01*
X184724734Y-57653352D01*
X184786648Y-57715266D01*
X184859450Y-57763911D01*
X184940344Y-57797418D01*
X185026221Y-57814500D01*
X185113779Y-57814500D01*
X185133423Y-57810593D01*
X185262146Y-57939316D01*
X185270502Y-57949498D01*
X185311113Y-57982826D01*
X185357445Y-58007590D01*
X185407718Y-58022841D01*
X185446902Y-58026700D01*
X185446903Y-58026700D01*
X185459999Y-58027990D01*
X185473095Y-58026700D01*
X185524078Y-58026700D01*
X185533650Y-58058254D01*
X185547946Y-58085000D01*
X185533650Y-58111746D01*
X185522757Y-58147656D01*
X185519079Y-58185000D01*
X185519079Y-58635000D01*
X185522757Y-58672344D01*
X185533650Y-58708254D01*
X185547946Y-58735000D01*
X185533650Y-58761746D01*
X185522757Y-58797656D01*
X185519079Y-58835000D01*
X185519079Y-59285000D01*
X185522757Y-59322344D01*
X185533650Y-59358254D01*
X185551339Y-59391348D01*
X185575145Y-59420355D01*
X185604152Y-59444161D01*
X185637246Y-59461850D01*
X185673156Y-59472743D01*
X185710500Y-59476421D01*
X187185500Y-59476421D01*
X187222844Y-59472743D01*
X187258754Y-59461850D01*
X187291848Y-59444161D01*
X187320855Y-59420355D01*
X187344661Y-59391348D01*
X187362350Y-59358254D01*
X187371922Y-59326700D01*
X187487157Y-59326700D01*
X187516961Y-59382461D01*
X187560043Y-59434957D01*
X187612539Y-59478039D01*
X187658680Y-59502702D01*
X187614734Y-59546648D01*
X187566089Y-59619450D01*
X187532582Y-59700344D01*
X187515500Y-59786221D01*
X187515500Y-59873779D01*
X187532582Y-59959656D01*
X187566089Y-60040550D01*
X187614734Y-60113352D01*
X187676648Y-60175266D01*
X187749450Y-60223911D01*
X187830344Y-60257418D01*
X187916221Y-60274500D01*
X188003779Y-60274500D01*
X188089656Y-60257418D01*
X188170550Y-60223911D01*
X188243352Y-60175266D01*
X188284501Y-60134117D01*
X188284501Y-61584501D01*
X186989419Y-61584501D01*
X186957753Y-61587620D01*
X186917131Y-61599942D01*
X186879694Y-61619953D01*
X186846880Y-61646883D01*
X186819950Y-61679697D01*
X186799939Y-61717134D01*
X186797100Y-61726493D01*
X186768707Y-61793532D01*
X186744075Y-61768900D01*
X186246400Y-61768900D01*
X186246400Y-62209075D01*
X186319425Y-62282100D01*
X186525000Y-62283513D01*
X186562762Y-62279794D01*
X186490832Y-62449630D01*
X186055373Y-63091494D01*
X185503542Y-63636547D01*
X184856349Y-64064039D01*
X184138446Y-64357682D01*
X183377178Y-64506291D01*
X182601549Y-64504206D01*
X181841093Y-64351505D01*
X181124785Y-64054008D01*
X180479900Y-63623045D01*
X179931005Y-63075030D01*
X179515269Y-62455089D01*
X181111478Y-62455089D01*
X181111478Y-62600955D01*
X181139935Y-62744018D01*
X181195755Y-62878780D01*
X181276794Y-63000063D01*
X181379937Y-63103206D01*
X181501220Y-63184245D01*
X181635982Y-63240065D01*
X181779045Y-63268522D01*
X181924911Y-63268522D01*
X182067974Y-63240065D01*
X182202736Y-63184245D01*
X182324019Y-63103206D01*
X182349203Y-63078022D01*
X182804509Y-63078022D01*
X182810149Y-63135284D01*
X182826851Y-63190345D01*
X182853975Y-63241089D01*
X182890477Y-63285567D01*
X182934955Y-63322069D01*
X182985699Y-63349193D01*
X183040760Y-63365895D01*
X183098022Y-63371535D01*
X183486097Y-63370122D01*
X183559122Y-63297097D01*
X183559122Y-62616922D01*
X183736922Y-62616922D01*
X183736922Y-63297097D01*
X183809947Y-63370122D01*
X184198022Y-63371535D01*
X184255284Y-63365895D01*
X184310345Y-63349193D01*
X184361089Y-63322069D01*
X184405567Y-63285567D01*
X184442069Y-63241089D01*
X184469193Y-63190345D01*
X184485895Y-63135284D01*
X184491535Y-63078022D01*
X184490122Y-62689947D01*
X184417097Y-62616922D01*
X183736922Y-62616922D01*
X183559122Y-62616922D01*
X182878947Y-62616922D01*
X182805922Y-62689947D01*
X182804509Y-63078022D01*
X182349203Y-63078022D01*
X182427162Y-63000063D01*
X182508201Y-62878780D01*
X182564021Y-62744018D01*
X182592478Y-62600955D01*
X182592478Y-62455089D01*
X182564021Y-62312026D01*
X182508201Y-62177264D01*
X182427162Y-62055981D01*
X182349203Y-61978022D01*
X182804509Y-61978022D01*
X182805922Y-62366097D01*
X182878947Y-62439122D01*
X183559122Y-62439122D01*
X183559122Y-61758947D01*
X183486097Y-61685922D01*
X183098022Y-61684509D01*
X183040760Y-61690149D01*
X182985699Y-61706851D01*
X182934955Y-61733975D01*
X182890477Y-61770477D01*
X182853975Y-61814955D01*
X182826851Y-61865699D01*
X182810149Y-61920760D01*
X182804509Y-61978022D01*
X182349203Y-61978022D01*
X182324019Y-61952838D01*
X182202736Y-61871799D01*
X182067974Y-61815979D01*
X181924911Y-61787522D01*
X181779045Y-61787522D01*
X181635982Y-61815979D01*
X181501220Y-61871799D01*
X181379937Y-61952838D01*
X181276794Y-62055981D01*
X181195755Y-62177264D01*
X181139935Y-62312026D01*
X181111478Y-62455089D01*
X179515269Y-62455089D01*
X179498843Y-62430595D01*
X179202981Y-61726764D01*
X179200059Y-61717133D01*
X179180048Y-61679696D01*
X179153118Y-61646882D01*
X179120304Y-61619952D01*
X179082867Y-61599941D01*
X179042245Y-61587619D01*
X179010579Y-61584500D01*
X179000010Y-61584500D01*
X179000000Y-61584499D01*
X178999990Y-61584500D01*
X177715500Y-61584500D01*
X177715500Y-61114611D01*
X177742738Y-61122873D01*
X177800000Y-61128513D01*
X177948075Y-61127100D01*
X178021100Y-61054075D01*
X178021100Y-60556400D01*
X178198900Y-60556400D01*
X178198900Y-61054075D01*
X178271925Y-61127100D01*
X178420000Y-61128513D01*
X178477262Y-61122873D01*
X178532323Y-61106171D01*
X178583067Y-61079047D01*
X178595000Y-61069254D01*
X178606933Y-61079047D01*
X178657677Y-61106171D01*
X178712738Y-61122873D01*
X178770000Y-61128513D01*
X178918075Y-61127100D01*
X178991100Y-61054075D01*
X178991100Y-60556400D01*
X179168900Y-60556400D01*
X179168900Y-61054075D01*
X179241925Y-61127100D01*
X179390000Y-61128513D01*
X179447262Y-61122873D01*
X179502323Y-61106171D01*
X179553067Y-61079047D01*
X179597545Y-61042545D01*
X179634047Y-60998067D01*
X179661171Y-60947323D01*
X179677873Y-60892262D01*
X179683513Y-60835000D01*
X179682100Y-60629425D01*
X179609075Y-60556400D01*
X179168900Y-60556400D01*
X178991100Y-60556400D01*
X178198900Y-60556400D01*
X178021100Y-60556400D01*
X178001100Y-60556400D01*
X178001100Y-60378600D01*
X178021100Y-60378600D01*
X178021100Y-60358600D01*
X178198900Y-60358600D01*
X178198900Y-60378600D01*
X178991100Y-60378600D01*
X178991100Y-60358600D01*
X179168900Y-60358600D01*
X179168900Y-60378600D01*
X179609075Y-60378600D01*
X179682100Y-60305575D01*
X179683513Y-60100000D01*
X179677873Y-60042738D01*
X179661171Y-59987677D01*
X179634047Y-59936933D01*
X179597545Y-59892455D01*
X179553067Y-59855953D01*
X179502323Y-59828829D01*
X179451410Y-59813385D01*
X179479957Y-59789957D01*
X179523039Y-59737461D01*
X179555051Y-59677570D01*
X179574765Y-59612583D01*
X179576083Y-59599200D01*
X180286404Y-59599200D01*
X180299500Y-59600490D01*
X180312596Y-59599200D01*
X180312598Y-59599200D01*
X180351782Y-59595341D01*
X180402055Y-59580090D01*
X180448387Y-59555326D01*
X180488998Y-59521998D01*
X180497354Y-59511816D01*
X180532749Y-59476421D01*
X181309500Y-59476421D01*
X181346844Y-59472743D01*
X181382754Y-59461850D01*
X181415848Y-59444161D01*
X181444855Y-59420355D01*
X181468661Y-59391348D01*
X181486350Y-59358254D01*
X181497243Y-59322344D01*
X181500921Y-59285000D01*
X181500921Y-58835000D01*
X181497243Y-58797656D01*
X181486350Y-58761746D01*
X181472054Y-58735000D01*
X181486350Y-58708254D01*
X181495922Y-58676700D01*
X184027030Y-58676700D01*
X185327008Y-59976679D01*
X185324483Y-59975329D01*
X185258559Y-59955331D01*
X185190000Y-59948579D01*
X184858250Y-59948579D01*
X184270354Y-59360684D01*
X184261998Y-59350502D01*
X184221387Y-59317174D01*
X184175055Y-59292410D01*
X184124782Y-59277159D01*
X184085598Y-59273300D01*
X184085596Y-59273300D01*
X184072500Y-59272010D01*
X184059404Y-59273300D01*
X183057051Y-59273300D01*
X183043955Y-59272010D01*
X183030859Y-59273300D01*
X183030858Y-59273300D01*
X182991674Y-59277159D01*
X182941401Y-59292410D01*
X182913002Y-59307589D01*
X182895067Y-59317175D01*
X182883461Y-59326700D01*
X182854458Y-59350502D01*
X182846106Y-59360679D01*
X182152033Y-60054753D01*
X182067974Y-60019935D01*
X181924911Y-59991478D01*
X181779045Y-59991478D01*
X181635982Y-60019935D01*
X181501220Y-60075755D01*
X181379937Y-60156794D01*
X181276794Y-60259937D01*
X181195755Y-60381220D01*
X181139935Y-60515982D01*
X181111478Y-60659045D01*
X181111478Y-60804911D01*
X181139935Y-60947974D01*
X181195755Y-61082736D01*
X181276794Y-61204019D01*
X181379937Y-61307162D01*
X181501220Y-61388201D01*
X181635982Y-61444021D01*
X181779045Y-61472478D01*
X181924911Y-61472478D01*
X182067974Y-61444021D01*
X182202736Y-61388201D01*
X182324019Y-61307162D01*
X182427162Y-61204019D01*
X182508201Y-61082736D01*
X182564021Y-60947974D01*
X182592478Y-60804911D01*
X182592478Y-60659045D01*
X182907522Y-60659045D01*
X182907522Y-60804911D01*
X182935979Y-60947974D01*
X182991799Y-61082736D01*
X183072838Y-61204019D01*
X183175981Y-61307162D01*
X183297264Y-61388201D01*
X183432026Y-61444021D01*
X183575089Y-61472478D01*
X183685308Y-61472478D01*
X183898429Y-61685600D01*
X183809947Y-61685922D01*
X183736922Y-61758947D01*
X183736922Y-62439122D01*
X184417097Y-62439122D01*
X184490122Y-62366097D01*
X184491535Y-61978022D01*
X184490631Y-61968846D01*
X184521961Y-62027461D01*
X184565043Y-62079957D01*
X184617539Y-62123039D01*
X184677430Y-62155051D01*
X184742417Y-62174765D01*
X184810000Y-62181421D01*
X185235000Y-62181421D01*
X185302583Y-62174765D01*
X185367570Y-62155051D01*
X185427461Y-62123039D01*
X185479957Y-62079957D01*
X185503385Y-62051410D01*
X185518829Y-62102323D01*
X185545953Y-62153067D01*
X185582455Y-62197545D01*
X185626933Y-62234047D01*
X185677677Y-62261171D01*
X185732738Y-62277873D01*
X185790000Y-62283513D01*
X185995575Y-62282100D01*
X186068600Y-62209075D01*
X186068600Y-61768900D01*
X186048600Y-61768900D01*
X186048600Y-61591100D01*
X186068600Y-61591100D01*
X186068600Y-61150925D01*
X186246400Y-61150925D01*
X186246400Y-61591100D01*
X186744075Y-61591100D01*
X186817100Y-61518075D01*
X186818513Y-61370000D01*
X186812873Y-61312738D01*
X186796171Y-61257677D01*
X186769047Y-61206933D01*
X186732545Y-61162455D01*
X186688067Y-61125953D01*
X186637323Y-61098829D01*
X186582262Y-61082127D01*
X186525000Y-61076487D01*
X186319425Y-61077900D01*
X186246400Y-61150925D01*
X186068600Y-61150925D01*
X185995575Y-61077900D01*
X185790000Y-61076487D01*
X185732738Y-61082127D01*
X185677677Y-61098829D01*
X185626933Y-61125953D01*
X185582455Y-61162455D01*
X185545953Y-61206933D01*
X185518829Y-61257677D01*
X185503385Y-61308590D01*
X185479957Y-61280043D01*
X185427461Y-61236961D01*
X185367570Y-61204949D01*
X185302583Y-61185235D01*
X185235000Y-61178579D01*
X184810000Y-61178579D01*
X184742417Y-61185235D01*
X184677430Y-61204949D01*
X184617539Y-61236961D01*
X184565043Y-61280043D01*
X184521961Y-61332539D01*
X184489949Y-61392430D01*
X184483618Y-61413300D01*
X184380471Y-61413300D01*
X184197198Y-61230027D01*
X184223206Y-61204019D01*
X184304245Y-61082736D01*
X184360065Y-60947974D01*
X184388522Y-60804911D01*
X184388522Y-60659045D01*
X184360065Y-60515982D01*
X184304245Y-60381220D01*
X184223206Y-60259937D01*
X184120063Y-60156794D01*
X183998780Y-60075755D01*
X183864018Y-60019935D01*
X183720955Y-59991478D01*
X183575089Y-59991478D01*
X183432026Y-60019935D01*
X183297264Y-60075755D01*
X183175981Y-60156794D01*
X183072838Y-60259937D01*
X182991799Y-60381220D01*
X182935979Y-60515982D01*
X182907522Y-60659045D01*
X182592478Y-60659045D01*
X182564021Y-60515982D01*
X182529203Y-60431923D01*
X183154427Y-59806700D01*
X183962030Y-59806700D01*
X184444632Y-60289303D01*
X184443579Y-60300000D01*
X184443579Y-60620000D01*
X184450331Y-60688559D01*
X184470329Y-60754483D01*
X184502804Y-60815239D01*
X184546508Y-60868492D01*
X184599761Y-60912196D01*
X184660517Y-60944671D01*
X184726441Y-60964669D01*
X184795000Y-60971421D01*
X185190000Y-60971421D01*
X185258559Y-60964669D01*
X185324483Y-60944671D01*
X185385239Y-60912196D01*
X185438492Y-60868492D01*
X185482196Y-60815239D01*
X185514671Y-60754483D01*
X185534669Y-60688559D01*
X185541421Y-60620000D01*
X185541421Y-60300000D01*
X185534669Y-60231441D01*
X185514671Y-60165517D01*
X185513321Y-60162992D01*
X185639632Y-60289303D01*
X185638579Y-60300000D01*
X185638579Y-60620000D01*
X185645331Y-60688559D01*
X185665329Y-60754483D01*
X185697804Y-60815239D01*
X185741508Y-60868492D01*
X185794761Y-60912196D01*
X185855517Y-60944671D01*
X185921441Y-60964669D01*
X185990000Y-60971421D01*
X186385000Y-60971421D01*
X186453559Y-60964669D01*
X186519483Y-60944671D01*
X186580239Y-60912196D01*
X186633492Y-60868492D01*
X186677196Y-60815239D01*
X186709671Y-60754483D01*
X186729669Y-60688559D01*
X186736421Y-60620000D01*
X186736421Y-60300000D01*
X186729669Y-60231441D01*
X186709671Y-60165517D01*
X186677196Y-60104761D01*
X186633492Y-60051508D01*
X186580239Y-60007804D01*
X186519483Y-59975329D01*
X186453559Y-59955331D01*
X186385000Y-59948579D01*
X186053250Y-59948579D01*
X184335354Y-58230684D01*
X184326998Y-58220502D01*
X184286387Y-58187174D01*
X184240055Y-58162410D01*
X184189782Y-58147159D01*
X184150598Y-58143300D01*
X184150596Y-58143300D01*
X184137500Y-58142010D01*
X184124404Y-58143300D01*
X181495922Y-58143300D01*
X181486350Y-58111746D01*
X181472054Y-58085000D01*
X181486350Y-58058254D01*
X181495922Y-58026700D01*
X182996904Y-58026700D01*
X183010000Y-58027990D01*
X183023096Y-58026700D01*
X183023098Y-58026700D01*
X183062282Y-58022841D01*
X183112555Y-58007590D01*
X183158887Y-57982826D01*
X183199498Y-57949498D01*
X183207854Y-57939316D01*
X184479321Y-56667850D01*
X184489498Y-56659498D01*
X184510109Y-56634383D01*
X184522825Y-56618889D01*
X184530556Y-56604425D01*
X184547590Y-56572555D01*
X184562841Y-56522282D01*
X184566700Y-56483098D01*
X184566700Y-56483097D01*
X184567990Y-56470001D01*
X184566700Y-56456905D01*
X184566700Y-53491041D01*
X184650758Y-53456223D01*
X184772041Y-53375184D01*
X184875184Y-53272041D01*
X184935000Y-53182520D01*
X184994816Y-53272041D01*
X185097959Y-53375184D01*
X185219242Y-53456223D01*
X185354004Y-53512043D01*
X185497067Y-53540500D01*
X185642933Y-53540500D01*
X185785996Y-53512043D01*
X185920758Y-53456223D01*
X186042041Y-53375184D01*
X186145184Y-53272041D01*
X186226223Y-53150758D01*
X186282043Y-53015996D01*
X186310500Y-52872933D01*
X186310500Y-52727067D01*
X186282043Y-52584004D01*
X186226223Y-52449242D01*
X186172188Y-52368373D01*
X186177262Y-52367873D01*
X186232323Y-52351171D01*
X186283067Y-52324047D01*
X186327545Y-52287545D01*
X186364047Y-52243067D01*
X186391171Y-52192323D01*
X186407873Y-52137262D01*
X186413513Y-52080000D01*
X186412100Y-51691925D01*
X186339075Y-51618900D01*
X185658900Y-51618900D01*
X185658900Y-51638900D01*
X185481100Y-51638900D01*
X185481100Y-51618900D01*
X185461100Y-51618900D01*
X185461100Y-51441100D01*
X185481100Y-51441100D01*
X185481100Y-50760925D01*
X185658900Y-50760925D01*
X185658900Y-51441100D01*
X186339075Y-51441100D01*
X186412100Y-51368075D01*
X186413513Y-50980000D01*
X186407873Y-50922738D01*
X186391171Y-50867677D01*
X186364047Y-50816933D01*
X186327545Y-50772455D01*
X186283067Y-50735953D01*
X186232323Y-50708829D01*
X186177262Y-50692127D01*
X186120000Y-50686487D01*
X185731925Y-50687900D01*
X185658900Y-50760925D01*
X185481100Y-50760925D01*
X185408075Y-50687900D01*
X185020000Y-50686487D01*
X184962738Y-50692127D01*
X184907677Y-50708829D01*
X184856933Y-50735953D01*
X184812455Y-50772455D01*
X184775953Y-50816933D01*
X184748829Y-50867677D01*
X184732127Y-50922738D01*
X184731627Y-50927812D01*
X184650758Y-50873777D01*
X184515996Y-50817957D01*
X184372933Y-50789500D01*
X184227067Y-50789500D01*
X184084004Y-50817957D01*
X183949242Y-50873777D01*
X183827959Y-50954816D01*
X183724816Y-51057959D01*
X183665000Y-51147480D01*
X183605184Y-51057959D01*
X183502041Y-50954816D01*
X183380758Y-50873777D01*
X183245996Y-50817957D01*
X183102933Y-50789500D01*
X182957067Y-50789500D01*
X182814004Y-50817957D01*
X182729945Y-50852775D01*
X182347854Y-50470684D01*
X182339498Y-50460502D01*
X182298887Y-50427174D01*
X182252555Y-50402410D01*
X182202282Y-50387159D01*
X182163098Y-50383300D01*
X182163096Y-50383300D01*
X182150000Y-50382010D01*
X182136904Y-50383300D01*
X179643096Y-50383300D01*
X179630000Y-50382010D01*
X179616904Y-50383300D01*
X179616902Y-50383300D01*
X179577718Y-50387159D01*
X179542695Y-50397784D01*
X179527444Y-50402410D01*
X179502680Y-50415647D01*
X179481113Y-50427174D01*
X179440502Y-50460502D01*
X179432150Y-50470679D01*
X178800679Y-51102151D01*
X178790503Y-51110502D01*
X178782153Y-51120677D01*
X178757175Y-51151113D01*
X178732411Y-51197445D01*
X178717160Y-51247718D01*
X178712010Y-51300000D01*
X178713301Y-51313106D01*
X178713301Y-51603607D01*
X178696648Y-51614734D01*
X178634734Y-51676648D01*
X178586089Y-51749450D01*
X178552582Y-51830344D01*
X178535500Y-51916221D01*
X178535500Y-52003779D01*
X178552582Y-52089656D01*
X178586089Y-52170550D01*
X178634734Y-52243352D01*
X178696648Y-52305266D01*
X178769450Y-52353911D01*
X178850344Y-52387418D01*
X178936221Y-52404500D01*
X179023779Y-52404500D01*
X179109656Y-52387418D01*
X179190550Y-52353911D01*
X179263352Y-52305266D01*
X179325266Y-52243352D01*
X179373911Y-52170550D01*
X179407418Y-52089656D01*
X179424500Y-52003779D01*
X179424500Y-51916221D01*
X179407418Y-51830344D01*
X179373911Y-51749450D01*
X179325266Y-51676648D01*
X179263352Y-51614734D01*
X179246700Y-51603607D01*
X179246700Y-51410470D01*
X179740471Y-50916700D01*
X180075003Y-50916700D01*
X180017959Y-50954816D01*
X179914816Y-51057959D01*
X179833777Y-51179242D01*
X179777957Y-51314004D01*
X179749500Y-51457067D01*
X179749500Y-51602933D01*
X179777957Y-51745996D01*
X179812775Y-51830055D01*
X178510684Y-53132146D01*
X178500502Y-53140502D01*
X178467174Y-53181113D01*
X178442410Y-53227446D01*
X178427159Y-53277719D01*
X178423300Y-53316902D01*
X178422010Y-53330000D01*
X178423300Y-53343096D01*
X178423301Y-54913607D01*
X178406648Y-54924734D01*
X178344734Y-54986648D01*
X178296089Y-55059450D01*
X178262582Y-55140344D01*
X178245500Y-55226221D01*
X178245500Y-55313779D01*
X178262582Y-55399656D01*
X178296089Y-55480550D01*
X178344734Y-55553352D01*
X178406648Y-55615266D01*
X178479450Y-55663911D01*
X178560344Y-55697418D01*
X178646221Y-55714500D01*
X178733779Y-55714500D01*
X178819656Y-55697418D01*
X178900550Y-55663911D01*
X178973352Y-55615266D01*
X179035266Y-55553352D01*
X179083911Y-55480550D01*
X179117418Y-55399656D01*
X179134500Y-55313779D01*
X179134500Y-55226221D01*
X179117418Y-55140344D01*
X179083911Y-55059450D01*
X179035266Y-54986648D01*
X178973352Y-54924734D01*
X178956700Y-54913607D01*
X178956700Y-53440470D01*
X179769215Y-52627955D01*
X179749500Y-52727067D01*
X179749500Y-52872933D01*
X179777957Y-53015996D01*
X179833777Y-53150758D01*
X179914816Y-53272041D01*
X180017959Y-53375184D01*
X180139242Y-53456223D01*
X180274004Y-53512043D01*
X180417067Y-53540500D01*
X180562933Y-53540500D01*
X180705996Y-53512043D01*
X180840758Y-53456223D01*
X180962041Y-53375184D01*
X181065184Y-53272041D01*
X181125000Y-53182520D01*
X181184816Y-53272041D01*
X181287959Y-53375184D01*
X181409242Y-53456223D01*
X181544004Y-53512043D01*
X181687067Y-53540500D01*
X181832933Y-53540500D01*
X181975996Y-53512043D01*
X182110758Y-53456223D01*
X182232041Y-53375184D01*
X182335184Y-53272041D01*
X182395000Y-53182520D01*
X182454816Y-53272041D01*
X182557959Y-53375184D01*
X182679242Y-53456223D01*
X182763301Y-53491041D01*
X182763300Y-55650363D01*
X181570364Y-56843300D01*
X181495922Y-56843300D01*
X181486350Y-56811746D01*
X181472054Y-56785000D01*
X181486350Y-56758254D01*
X181497243Y-56722344D01*
X181500921Y-56685000D01*
X181500921Y-56235000D01*
X181497243Y-56197656D01*
X181486350Y-56161746D01*
X181472054Y-56135000D01*
X181486350Y-56108254D01*
X181497243Y-56072344D01*
X181500921Y-56035000D01*
X181500921Y-55585000D01*
X181497243Y-55547656D01*
X181486350Y-55511746D01*
X181472054Y-55485000D01*
X181486350Y-55458254D01*
X181497243Y-55422344D01*
X181500921Y-55385000D01*
X181500921Y-54935000D01*
X181497243Y-54897656D01*
X181486350Y-54861746D01*
X181468661Y-54828652D01*
X181444855Y-54799645D01*
X181415848Y-54775839D01*
X181382754Y-54758150D01*
X181346844Y-54747257D01*
X181309500Y-54743579D01*
X179834500Y-54743579D01*
X179797156Y-54747257D01*
X179761246Y-54758150D01*
X179728152Y-54775839D01*
X179699145Y-54799645D01*
X179675339Y-54828652D01*
X179657650Y-54861746D01*
X179646757Y-54897656D01*
X179643079Y-54935000D01*
X179643079Y-55385000D01*
X179646757Y-55422344D01*
X179657650Y-55458254D01*
X179671946Y-55485000D01*
X179657650Y-55511746D01*
X179648297Y-55542581D01*
X179642500Y-55542010D01*
X179590217Y-55547159D01*
X179541791Y-55561850D01*
X179539945Y-55562410D01*
X179493613Y-55587174D01*
X179453002Y-55620502D01*
X179444650Y-55630679D01*
X179210697Y-55864632D01*
X179200000Y-55863579D01*
X178880000Y-55863579D01*
X178811441Y-55870331D01*
X178745517Y-55890329D01*
X178684761Y-55922804D01*
X178660500Y-55942714D01*
X178644047Y-55911933D01*
X178607545Y-55867455D01*
X178563067Y-55830953D01*
X178512323Y-55803829D01*
X178457262Y-55787127D01*
X178400000Y-55781487D01*
X178251925Y-55782900D01*
X178178900Y-55855925D01*
X178178900Y-56353600D01*
X178198900Y-56353600D01*
X178198900Y-56531400D01*
X178178900Y-56531400D01*
X178178900Y-56551400D01*
X178001100Y-56551400D01*
X178001100Y-56531400D01*
X177981100Y-56531400D01*
X177981100Y-56353600D01*
X178001100Y-56353600D01*
X178001100Y-55855925D01*
X177928075Y-55782900D01*
X177780000Y-55781487D01*
X177722738Y-55787127D01*
X177715500Y-55789323D01*
X177715500Y-50215500D01*
X188284500Y-50215500D01*
X188284501Y-57329689D01*
G37*
%TD.AperFunction*%
D15*
X183724816Y-53272041D02*
X183827959Y-53375184D01*
X183949242Y-53456223D01*
X184033300Y-53491041D01*
X184033301Y-56359528D01*
X182899530Y-57493300D01*
X181495922Y-57493300D01*
X181486350Y-57461746D01*
X181472054Y-57435000D01*
X181486350Y-57408254D01*
X181495922Y-57376700D01*
X181667738Y-57376700D01*
X181680834Y-57377990D01*
X181693930Y-57376700D01*
X181693932Y-57376700D01*
X181733116Y-57372841D01*
X181783389Y-57357590D01*
X181829721Y-57332826D01*
X181870332Y-57299498D01*
X181878688Y-57289316D01*
X183209321Y-55958684D01*
X183219498Y-55950332D01*
X183252826Y-55909721D01*
X183275417Y-55867455D01*
X183277590Y-55863390D01*
X183288411Y-55827718D01*
X183292841Y-55813116D01*
X183296700Y-55773932D01*
X183296700Y-55773930D01*
X183297990Y-55760834D01*
X183296700Y-55747738D01*
X183296700Y-53491041D01*
X183380758Y-53456223D01*
X183502041Y-53375184D01*
X183605184Y-53272041D01*
X183665000Y-53182520D01*
X183724816Y-53272041D01*
%TA.AperFunction,Conductor*%
D16*
G36*
X183724816Y-53272041D02*
G01*
X183827959Y-53375184D01*
X183949242Y-53456223D01*
X184033300Y-53491041D01*
X184033301Y-56359528D01*
X182899530Y-57493300D01*
X181495922Y-57493300D01*
X181486350Y-57461746D01*
X181472054Y-57435000D01*
X181486350Y-57408254D01*
X181495922Y-57376700D01*
X181667738Y-57376700D01*
X181680834Y-57377990D01*
X181693930Y-57376700D01*
X181693932Y-57376700D01*
X181733116Y-57372841D01*
X181783389Y-57357590D01*
X181829721Y-57332826D01*
X181870332Y-57299498D01*
X181878688Y-57289316D01*
X183209321Y-55958684D01*
X183219498Y-55950332D01*
X183252826Y-55909721D01*
X183275417Y-55867455D01*
X183277590Y-55863390D01*
X183288411Y-55827718D01*
X183292841Y-55813116D01*
X183296700Y-55773932D01*
X183296700Y-55773930D01*
X183297990Y-55760834D01*
X183296700Y-55747738D01*
X183296700Y-53491041D01*
X183380758Y-53456223D01*
X183502041Y-53375184D01*
X183605184Y-53272041D01*
X183665000Y-53182520D01*
X183724816Y-53272041D01*
G37*
%TD.AperFunction*%
%TD*%
M02*
