%TF.GenerationSoftware,KiCad,Pcbnew,(5.1.8)-1*%
%TF.CreationDate,2021-09-09T14:13:13-04:00*%
%TF.ProjectId,IR_TEMP_V1,49525f54-454d-4505-9f56-312e6b696361,rev?*%
%TF.SameCoordinates,Original*%
%TF.FileFunction,Legend,Top*%
%TF.FilePolarity,Positive*%
%FSLAX46Y46*%
G04 Gerber Fmt 4.6, Leading zero omitted, Abs format (unit mm)*
G04 Created by KiCad (PCBNEW (5.1.8)-1) date 2021-09-09 14:13:13*
%MOMM*%
%LPD*%
G01*
G04 APERTURE LIST*
%ADD10C,0.120000*%
%ADD11C,0.200000*%
G04 APERTURE END LIST*
D10*
%TO.C,R2*%
X178660000Y-57177621D02*
X178660000Y-56842379D01*
X179420000Y-57177621D02*
X179420000Y-56842379D01*
%TO.C,R1*%
X185757621Y-60840000D02*
X185422379Y-60840000D01*
X185757621Y-60080000D02*
X185422379Y-60080000D01*
D11*
%TO.C,J1*%
X179590000Y-54015000D02*
X185570000Y-54015000D01*
X179590000Y-50315000D02*
X179590000Y-54015000D01*
X186470000Y-50315000D02*
X179590000Y-50315000D01*
X186470000Y-51530000D02*
X186470000Y-50315000D01*
%TO.C,IC1*%
X187185000Y-59635000D02*
X185710000Y-59635000D01*
X185360000Y-54610000D02*
X185360000Y-59610000D01*
X181660000Y-54610000D02*
X185360000Y-54610000D01*
X181660000Y-59610000D02*
X181660000Y-54610000D01*
X185360000Y-59610000D02*
X181660000Y-59610000D01*
D10*
%TO.C,C5*%
X177730000Y-57125835D02*
X177730000Y-56894165D01*
X178450000Y-57125835D02*
X178450000Y-56894165D01*
%TO.C,C4*%
X185705835Y-62040000D02*
X185474165Y-62040000D01*
X185705835Y-61320000D02*
X185474165Y-61320000D01*
%TO.C,C3*%
X188320000Y-58294165D02*
X188320000Y-58525835D01*
X187600000Y-58294165D02*
X187600000Y-58525835D01*
%TO.C,C2*%
X178720000Y-60015835D02*
X178720000Y-59784165D01*
X179440000Y-60015835D02*
X179440000Y-59784165D01*
%TO.C,C1*%
X177750000Y-60015835D02*
X177750000Y-59784165D01*
X178470000Y-60015835D02*
X178470000Y-59784165D01*
%TD*%
M02*
