%TF.GenerationSoftware,KiCad,Pcbnew,(5.1.8)-1*%
%TF.CreationDate,2021-08-20T02:01:50-04:00*%
%TF.ProjectId,motor_test,6d6f746f-725f-4746-9573-742e6b696361,rev?*%
%TF.SameCoordinates,Original*%
%TF.FileFunction,Copper,L1,Top*%
%TF.FilePolarity,Positive*%
%FSLAX46Y46*%
G04 Gerber Fmt 4.6, Leading zero omitted, Abs format (unit mm)*
G04 Created by KiCad (PCBNEW (5.1.8)-1) date 2021-08-20 02:01:50*
%MOMM*%
%LPD*%
G01*
G04 APERTURE LIST*
%TA.AperFunction,ComponentPad*%
%ADD10O,1.700000X1.700000*%
%TD*%
%TA.AperFunction,ComponentPad*%
%ADD11R,1.700000X1.700000*%
%TD*%
%TA.AperFunction,SMDPad,CuDef*%
%ADD12R,2.300000X3.100000*%
%TD*%
%TA.AperFunction,SMDPad,CuDef*%
%ADD13R,0.300000X1.100000*%
%TD*%
%TA.AperFunction,SMDPad,CuDef*%
%ADD14R,0.900000X2.000000*%
%TD*%
%TA.AperFunction,SMDPad,CuDef*%
%ADD15R,0.500000X0.250000*%
%TD*%
%TA.AperFunction,ViaPad*%
%ADD16C,0.800000*%
%TD*%
%TA.AperFunction,Conductor*%
%ADD17C,0.508000*%
%TD*%
%TA.AperFunction,Conductor*%
%ADD18C,0.250000*%
%TD*%
G04 APERTURE END LIST*
D10*
%TO.P,J4,6*%
%TO.N,GND*%
X142480000Y-94360000D03*
%TO.P,J4,5*%
%TO.N,VCC*%
X139940000Y-94360000D03*
%TO.P,J4,4*%
%TO.N,/AIN2*%
X137400000Y-94360000D03*
%TO.P,J4,3*%
%TO.N,/AIN1*%
X134860000Y-94360000D03*
%TO.P,J4,2*%
%TO.N,/BIN2*%
X132320000Y-94360000D03*
D11*
%TO.P,J4,1*%
%TO.N,/BIN1*%
X129780000Y-94360000D03*
%TD*%
D10*
%TO.P,J3,6*%
%TO.N,GND*%
X142480000Y-90460000D03*
%TO.P,J3,5*%
%TO.N,/B2*%
X139940000Y-90460000D03*
%TO.P,J3,4*%
%TO.N,/B1*%
X137400000Y-90460000D03*
%TO.P,J3,3*%
%TO.N,/A2*%
X134860000Y-90460000D03*
%TO.P,J3,2*%
%TO.N,/A1*%
X132320000Y-90460000D03*
D11*
%TO.P,J3,1*%
%TO.N,/VM*%
X129780000Y-90460000D03*
%TD*%
D12*
%TO.P,J2,MP2*%
%TO.N,GND*%
X133200000Y-74790000D03*
%TO.P,J2,MP1*%
X139040000Y-74790000D03*
D13*
%TO.P,J2,6*%
%TO.N,/6*%
X134870000Y-76490000D03*
%TO.P,J2,5*%
%TO.N,/5*%
X135370000Y-76490000D03*
%TO.P,J2,4*%
%TO.N,/4*%
X135870000Y-76490000D03*
%TO.P,J2,3*%
%TO.N,/3*%
X136370000Y-76490000D03*
%TO.P,J2,2*%
%TO.N,/2*%
X136870000Y-76490000D03*
%TO.P,J2,1*%
%TO.N,/1*%
X137370000Y-76490000D03*
%TD*%
D10*
%TO.P,J1,6*%
%TO.N,/6*%
X129780000Y-80650000D03*
%TO.P,J1,5*%
%TO.N,/5*%
X132320000Y-80650000D03*
%TO.P,J1,4*%
%TO.N,/4*%
X134860000Y-80650000D03*
%TO.P,J1,3*%
%TO.N,/3*%
X137400000Y-80650000D03*
%TO.P,J1,2*%
%TO.N,/2*%
X139940000Y-80650000D03*
D11*
%TO.P,J1,1*%
%TO.N,/1*%
X142480000Y-80650000D03*
%TD*%
D14*
%TO.P,IC1,13*%
%TO.N,GND*%
X136580000Y-85610000D03*
D15*
%TO.P,IC1,12*%
%TO.N,VCC*%
X137530000Y-84360000D03*
%TO.P,IC1,11*%
X137530000Y-84860000D03*
%TO.P,IC1,10*%
%TO.N,/AIN1*%
X137530000Y-85360000D03*
%TO.P,IC1,9*%
%TO.N,/AIN2*%
X137530000Y-85860000D03*
%TO.P,IC1,8*%
%TO.N,/BIN1*%
X137530000Y-86360000D03*
%TO.P,IC1,7*%
%TO.N,/BIN2*%
X137530000Y-86860000D03*
%TO.P,IC1,6*%
%TO.N,GND*%
X135630000Y-86860000D03*
%TO.P,IC1,5*%
%TO.N,/B2*%
X135630000Y-86360000D03*
%TO.P,IC1,4*%
%TO.N,/B1*%
X135630000Y-85860000D03*
%TO.P,IC1,3*%
%TO.N,/A2*%
X135630000Y-85360000D03*
%TO.P,IC1,2*%
%TO.N,/A1*%
X135630000Y-84860000D03*
%TO.P,IC1,1*%
%TO.N,/VM*%
X135630000Y-84360000D03*
%TD*%
D16*
%TO.N,GND*%
X136580000Y-83540000D03*
X136110000Y-74790000D03*
%TO.N,VCC*%
X140080000Y-84860000D03*
%TO.N,/AIN1*%
X140000000Y-85810000D03*
%TO.N,/BIN1*%
X138690000Y-86750000D03*
%TD*%
D17*
%TO.N,GND*%
X133200000Y-74790000D02*
X136110000Y-74790000D01*
D18*
X136580000Y-86410000D02*
X136580000Y-85610000D01*
X136130000Y-86860000D02*
X136580000Y-86410000D01*
X135630000Y-86860000D02*
X136130000Y-86860000D01*
D17*
X136580000Y-85610000D02*
X136580000Y-83540000D01*
X136110000Y-74790000D02*
X139040000Y-74790000D01*
D18*
%TO.N,VCC*%
X137530000Y-84360000D02*
X137530000Y-84860000D01*
X137530000Y-84860000D02*
X140080000Y-84860000D01*
%TO.N,/AIN1*%
X139550000Y-85360000D02*
X140000000Y-85810000D01*
X137530000Y-85360000D02*
X139550000Y-85360000D01*
%TO.N,/AIN2*%
X137400000Y-94360000D02*
X138920000Y-92840000D01*
X138920000Y-92840000D02*
X142690000Y-92840000D01*
X142690000Y-92840000D02*
X144020000Y-91510000D01*
X144020000Y-91510000D02*
X144020000Y-88370000D01*
X144020000Y-88370000D02*
X142630000Y-86980000D01*
X142630000Y-86980000D02*
X140050000Y-86980000D01*
X138930000Y-85860000D02*
X137530000Y-85860000D01*
X140050000Y-86980000D02*
X138930000Y-85860000D01*
%TO.N,/BIN1*%
X138300000Y-86360000D02*
X138690000Y-86750000D01*
X137530000Y-86360000D02*
X138300000Y-86360000D01*
%TO.N,/BIN2*%
X137530000Y-86860000D02*
X137530000Y-87450000D01*
X137530000Y-87450000D02*
X138720000Y-88640000D01*
X138720000Y-88640000D02*
X140320000Y-88640000D01*
X140320000Y-88640000D02*
X141220000Y-89540000D01*
X141220000Y-89540000D02*
X141220000Y-91290000D01*
X141220000Y-91290000D02*
X140220000Y-92290000D01*
X134390000Y-92290000D02*
X132320000Y-94360000D01*
X140220000Y-92290000D02*
X134390000Y-92290000D01*
%TO.N,/B2*%
X134376400Y-88199990D02*
X137679991Y-88199991D01*
X133900020Y-87723610D02*
X134376400Y-88199990D01*
X133900020Y-86939210D02*
X133900020Y-87723610D01*
X137679991Y-88199991D02*
X139940000Y-90460000D01*
X134479230Y-86360000D02*
X133900020Y-86939210D01*
X135630000Y-86360000D02*
X134479230Y-86360000D01*
%TO.N,/B1*%
X135630000Y-85860000D02*
X134342820Y-85860000D01*
X134342820Y-85860000D02*
X133450010Y-86752810D01*
X133450010Y-86752810D02*
X133450010Y-87910010D01*
X133450010Y-87910010D02*
X134190000Y-88650000D01*
X135590000Y-88650000D02*
X137400000Y-90460000D01*
X134190000Y-88650000D02*
X135590000Y-88650000D01*
%TO.N,/A2*%
X135630000Y-85360000D02*
X134206410Y-85360000D01*
X134206410Y-85360000D02*
X133000000Y-86566410D01*
X133000000Y-88600000D02*
X134860000Y-90460000D01*
X133000000Y-86566410D02*
X133000000Y-88600000D01*
%TO.N,/A1*%
X135630000Y-84860000D02*
X134070000Y-84860000D01*
X132320000Y-86610000D02*
X132320000Y-90460000D01*
X134070000Y-84860000D02*
X132320000Y-86610000D01*
%TO.N,/VM*%
X135630000Y-84360000D02*
X132800000Y-84360000D01*
X129780000Y-87380000D02*
X129780000Y-90460000D01*
X132800000Y-84360000D02*
X129780000Y-87380000D01*
%TO.N,/6*%
X129780000Y-80650000D02*
X131880000Y-78550000D01*
X131880000Y-78550000D02*
X133783590Y-78550000D01*
X134870000Y-77463590D02*
X134870000Y-76490000D01*
X133783590Y-78550000D02*
X134870000Y-77463590D01*
%TO.N,/5*%
X135370000Y-77600000D02*
X132320000Y-80650000D01*
X135370000Y-76490000D02*
X135370000Y-77600000D01*
%TO.N,/4*%
X135870000Y-79640000D02*
X134860000Y-80650000D01*
X135870000Y-76490000D02*
X135870000Y-79640000D01*
%TO.N,/3*%
X136370000Y-79620000D02*
X137400000Y-80650000D01*
X136370000Y-76490000D02*
X136370000Y-79620000D01*
%TO.N,/2*%
X136870000Y-77580000D02*
X139940000Y-80650000D01*
X136870000Y-76490000D02*
X136870000Y-77580000D01*
%TO.N,/1*%
X142480000Y-80650000D02*
X140321795Y-78491795D01*
X140321795Y-78491795D02*
X138418205Y-78491795D01*
X137370000Y-77443590D02*
X137370000Y-76490000D01*
X138418205Y-78491795D02*
X137370000Y-77443590D01*
%TD*%
M02*
