%TF.GenerationSoftware,KiCad,Pcbnew,(5.1.8)-1*%
%TF.CreationDate,2021-08-20T02:01:50-04:00*%
%TF.ProjectId,motor_test,6d6f746f-725f-4746-9573-742e6b696361,rev?*%
%TF.SameCoordinates,Original*%
%TF.FileFunction,Legend,Top*%
%TF.FilePolarity,Positive*%
%FSLAX46Y46*%
G04 Gerber Fmt 4.6, Leading zero omitted, Abs format (unit mm)*
G04 Created by KiCad (PCBNEW (5.1.8)-1) date 2021-08-20 02:01:50*
%MOMM*%
%LPD*%
G01*
G04 APERTURE LIST*
%ADD10C,0.120000*%
%ADD11C,0.100000*%
%ADD12C,0.200000*%
G04 APERTURE END LIST*
D10*
%TO.C,J4*%
X143810000Y-95690000D02*
X143810000Y-93030000D01*
X131050000Y-95690000D02*
X143810000Y-95690000D01*
X131050000Y-93030000D02*
X143810000Y-93030000D01*
X131050000Y-95690000D02*
X131050000Y-93030000D01*
X129780000Y-95690000D02*
X128450000Y-95690000D01*
X128450000Y-95690000D02*
X128450000Y-94360000D01*
%TO.C,J3*%
X143810000Y-91790000D02*
X143810000Y-89130000D01*
X131050000Y-91790000D02*
X143810000Y-91790000D01*
X131050000Y-89130000D02*
X143810000Y-89130000D01*
X131050000Y-91790000D02*
X131050000Y-89130000D01*
X129780000Y-91790000D02*
X128450000Y-91790000D01*
X128450000Y-91790000D02*
X128450000Y-90460000D01*
D11*
%TO.C,J2*%
X131905000Y-72740000D02*
X131905000Y-71790000D01*
X131905000Y-72740000D02*
X131905000Y-72740000D01*
X131905000Y-71790000D02*
X131905000Y-72740000D01*
X131905000Y-71790000D02*
X131905000Y-71790000D01*
X140335000Y-71790000D02*
X140335000Y-71790000D01*
X131905000Y-71790000D02*
X140335000Y-71790000D01*
X131905000Y-71790000D02*
X131905000Y-71790000D01*
X140335000Y-71790000D02*
X131905000Y-71790000D01*
X140335000Y-71790000D02*
X140335000Y-72740000D01*
X140335000Y-71790000D02*
X140335000Y-71790000D01*
X140335000Y-72740000D02*
X140335000Y-71790000D01*
X140335000Y-72740000D02*
X140335000Y-72740000D01*
D10*
%TO.C,J1*%
X128450000Y-79320000D02*
X128450000Y-81980000D01*
X141210000Y-79320000D02*
X128450000Y-79320000D01*
X141210000Y-81980000D02*
X128450000Y-81980000D01*
X141210000Y-79320000D02*
X141210000Y-81980000D01*
X142480000Y-79320000D02*
X143810000Y-79320000D01*
X143810000Y-79320000D02*
X143810000Y-80650000D01*
D12*
%TO.C,IC1*%
X134480000Y-84360000D02*
G75*
G02*
X134580000Y-84360000I50000J0D01*
G01*
X134580000Y-84360000D02*
G75*
G02*
X134480000Y-84360000I-50000J0D01*
G01*
X134480000Y-84360000D02*
G75*
G02*
X134580000Y-84360000I50000J0D01*
G01*
X134580000Y-84360000D02*
X134580000Y-84360000D01*
X134480000Y-84360000D02*
X134480000Y-84360000D01*
X134580000Y-84360000D02*
X134580000Y-84360000D01*
%TD*%
M02*
