%TF.GenerationSoftware,KiCad,Pcbnew,(5.1.8)-1*%
%TF.CreationDate,2021-08-20T02:01:50-04:00*%
%TF.ProjectId,motor_test,6d6f746f-725f-4746-9573-742e6b696361,rev?*%
%TF.SameCoordinates,Original*%
%TF.FileFunction,Copper,L2,Bot*%
%TF.FilePolarity,Positive*%
%FSLAX46Y46*%
G04 Gerber Fmt 4.6, Leading zero omitted, Abs format (unit mm)*
G04 Created by KiCad (PCBNEW (5.1.8)-1) date 2021-08-20 02:01:50*
%MOMM*%
%LPD*%
G01*
G04 APERTURE LIST*
%TA.AperFunction,ComponentPad*%
%ADD10O,1.700000X1.700000*%
%TD*%
%TA.AperFunction,ComponentPad*%
%ADD11R,1.700000X1.700000*%
%TD*%
%TA.AperFunction,ViaPad*%
%ADD12C,0.800000*%
%TD*%
%TA.AperFunction,Conductor*%
%ADD13C,0.508000*%
%TD*%
%TA.AperFunction,Conductor*%
%ADD14C,0.250000*%
%TD*%
G04 APERTURE END LIST*
D10*
%TO.P,J4,6*%
%TO.N,GND*%
X142480000Y-94360000D03*
%TO.P,J4,5*%
%TO.N,VCC*%
X139940000Y-94360000D03*
%TO.P,J4,4*%
%TO.N,/AIN2*%
X137400000Y-94360000D03*
%TO.P,J4,3*%
%TO.N,/AIN1*%
X134860000Y-94360000D03*
%TO.P,J4,2*%
%TO.N,/BIN2*%
X132320000Y-94360000D03*
D11*
%TO.P,J4,1*%
%TO.N,/BIN1*%
X129780000Y-94360000D03*
%TD*%
D10*
%TO.P,J3,6*%
%TO.N,GND*%
X142480000Y-90460000D03*
%TO.P,J3,5*%
%TO.N,/B2*%
X139940000Y-90460000D03*
%TO.P,J3,4*%
%TO.N,/B1*%
X137400000Y-90460000D03*
%TO.P,J3,3*%
%TO.N,/A2*%
X134860000Y-90460000D03*
%TO.P,J3,2*%
%TO.N,/A1*%
X132320000Y-90460000D03*
D11*
%TO.P,J3,1*%
%TO.N,/VM*%
X129780000Y-90460000D03*
%TD*%
D10*
%TO.P,J1,6*%
%TO.N,/6*%
X129780000Y-80650000D03*
%TO.P,J1,5*%
%TO.N,/5*%
X132320000Y-80650000D03*
%TO.P,J1,4*%
%TO.N,/4*%
X134860000Y-80650000D03*
%TO.P,J1,3*%
%TO.N,/3*%
X137400000Y-80650000D03*
%TO.P,J1,2*%
%TO.N,/2*%
X139940000Y-80650000D03*
D11*
%TO.P,J1,1*%
%TO.N,/1*%
X142480000Y-80650000D03*
%TD*%
D12*
%TO.N,GND*%
X136580000Y-83540000D03*
X136110000Y-74790000D03*
%TO.N,VCC*%
X140080000Y-84860000D03*
%TO.N,/AIN1*%
X140000000Y-85810000D03*
%TO.N,/BIN1*%
X138690000Y-86750000D03*
%TD*%
D13*
%TO.N,GND*%
X142480000Y-90460000D02*
X142480000Y-84850000D01*
X142480000Y-84850000D02*
X141170000Y-83540000D01*
X141170000Y-83540000D02*
X136580000Y-83540000D01*
X136580000Y-83540000D02*
X136130000Y-83090000D01*
X136130000Y-83090000D02*
X136130000Y-74810000D01*
X136130000Y-74810000D02*
X136110000Y-74790000D01*
X142480000Y-90460000D02*
X142480000Y-94360000D01*
D14*
%TO.N,VCC*%
X140080000Y-84860000D02*
X141210000Y-85990000D01*
X141210000Y-93090000D02*
X139940000Y-94360000D01*
X141210000Y-85990000D02*
X141210000Y-93090000D01*
%TO.N,/AIN1*%
X140000000Y-85810000D02*
X140000000Y-87660000D01*
X140000000Y-87660000D02*
X138660000Y-89000000D01*
X135168554Y-94360000D02*
X134860000Y-94360000D01*
X138660000Y-90868554D02*
X135168554Y-94360000D01*
X138660000Y-89000000D02*
X138660000Y-90868554D01*
%TO.N,/BIN1*%
X131090000Y-89270000D02*
X131090000Y-91950000D01*
X132290000Y-88070000D02*
X131090000Y-89270000D01*
X138090000Y-88070000D02*
X132290000Y-88070000D01*
X138690000Y-87470000D02*
X138090000Y-88070000D01*
X138690000Y-86750000D02*
X138690000Y-87470000D01*
X129780000Y-93260000D02*
X131090000Y-91950000D01*
X129780000Y-94360000D02*
X129780000Y-93260000D01*
%TD*%
M02*
