M48
; DRILL file {KiCad (5.1.8)-1} date 08/20/21 02:01:53
; FORMAT={-:-/ absolute / inch / decimal}
; #@! TF.CreationDate,2021-08-20T02:01:53-04:00
; #@! TF.GenerationSoftware,Kicad,Pcbnew,(5.1.8)-1
; #@! TF.FileFunction,Plated,1,2,PTH
FMAT,2
INCH
T1C0.0157
T2C0.0394
%
G90
G05
T1
X5.3587Y-2.9445
X5.3772Y-3.289
X5.4602Y-3.4154
X5.5118Y-3.3783
X5.515Y-3.3409
T2
X5.1094Y-3.715
X5.2094Y-3.715
X5.3094Y-3.715
X5.4094Y-3.715
X5.5094Y-3.715
X5.6094Y-3.715
X5.1094Y-3.1752
X5.2094Y-3.1752
X5.3094Y-3.1752
X5.4094Y-3.1752
X5.5094Y-3.1752
X5.6094Y-3.1752
X5.1094Y-3.5614
X5.2094Y-3.5614
X5.3094Y-3.5614
X5.4094Y-3.5614
X5.5094Y-3.5614
X5.6094Y-3.5614
T0
M30
