G04*
G04 #@! TF.GenerationSoftware,Altium Limited,Altium Designer,21.6.4 (81)*
G04*
G04 Layer_Color=32896*
%FSLAX25Y25*%
%MOIN*%
G70*
G04*
G04 #@! TF.SameCoordinates,DCEF65EA-FCDF-413F-B0EF-4AA9E0A8AFDD*
G04*
G04*
G04 #@! TF.FilePolarity,Positive*
G04*
G01*
G75*
%ADD10C,0.01000*%
%ADD20C,0.00787*%
D10*
X48359Y64920D02*
X50358D01*
X49358D01*
Y59921D01*
X50358Y58921D01*
X51358D01*
X52357Y59921D01*
X43360Y58921D02*
Y64920D01*
X46359Y61920D01*
X42361D01*
X38960Y43301D02*
Y41302D01*
Y42301D01*
X44958D01*
Y43301D01*
Y41302D01*
X39960Y34304D02*
X38960Y35304D01*
Y37303D01*
X39960Y38303D01*
X43958D01*
X44958Y37303D01*
Y35304D01*
X43958Y34304D01*
X44958Y32305D02*
Y30305D01*
Y31305D01*
X38960D01*
X39960Y32305D01*
X49059Y15497D02*
X51058D01*
X50058D01*
Y10499D01*
X51058Y9499D01*
X52058D01*
X53057Y10499D01*
X47059Y14498D02*
X46060Y15497D01*
X44060D01*
X43061Y14498D01*
Y13498D01*
X44060Y12498D01*
X45060D01*
X44060D01*
X43061Y11499D01*
Y10499D01*
X44060Y9499D01*
X46060D01*
X47059Y10499D01*
X903Y37904D02*
X-97Y36904D01*
X-2096D01*
X-3096Y37904D01*
Y41903D01*
X-2096Y42902D01*
X-97D01*
X903Y41903D01*
X2902Y42902D02*
X4902D01*
X3902D01*
Y36904D01*
X2902Y37904D01*
X-19685Y74803D02*
X74803D01*
Y19685D02*
Y74803D01*
X55118Y0D02*
X74803Y19685D01*
X0Y0D02*
X55118D01*
X-19685Y19685D02*
X0Y0D01*
X-19685Y19685D02*
Y74803D01*
D20*
X40216Y54528D02*
Y72539D01*
X14902Y54528D02*
Y67913D01*
X33268Y35127D02*
Y38080D01*
X21850D02*
X33268D01*
X21850Y35127D02*
Y38080D01*
Y35127D02*
X33268D01*
X33858Y29221D02*
Y33749D01*
X14902Y1280D02*
Y19291D01*
X40216Y5906D02*
Y19291D01*
X8255Y43474D02*
X17751D01*
X8255Y36733D02*
X17751D01*
M02*
