G04*
G04 #@! TF.GenerationSoftware,Altium Limited,Altium Designer,21.6.4 (81)*
G04*
G04 Layer_Color=65535*
%FSLAX25Y25*%
%MOIN*%
G70*
G04*
G04 #@! TF.SameCoordinates,DCEF65EA-FCDF-413F-B0EF-4AA9E0A8AFDD*
G04*
G04*
G04 #@! TF.FilePolarity,Positive*
G04*
G01*
G75*
%ADD10C,0.01000*%
D10*
X72500Y21400D02*
X68501D01*
X71167D02*
X69834Y23399D01*
X71167Y21400D02*
X72500Y23399D01*
Y25399D02*
X69834D01*
Y27398D01*
X70501Y28065D01*
X72500D01*
Y30064D02*
Y31397D01*
X71834Y32063D01*
X70501D01*
X69834Y31397D01*
Y30064D01*
X70501Y29397D01*
X71834D01*
X72500Y30064D01*
X69834Y36062D02*
Y34063D01*
X70501Y33396D01*
X71834D01*
X72500Y34063D01*
Y36062D01*
Y37395D02*
X68501D01*
X71167D02*
X69834Y39394D01*
X71167Y37395D02*
X72500Y39394D01*
Y45392D02*
X68501D01*
X71167D02*
X69834Y47392D01*
X71167Y45392D02*
X72500Y47392D01*
Y49391D02*
X69834D01*
Y51390D01*
X70501Y52057D01*
X72500D01*
Y54056D02*
Y55389D01*
X71834Y56055D01*
X70501D01*
X69834Y55389D01*
Y54056D01*
X70501Y53390D01*
X71834D01*
X72500Y54056D01*
X69834Y60054D02*
Y58055D01*
X70501Y57388D01*
X71834D01*
X72500Y58055D01*
Y60054D01*
Y61387D02*
X68501D01*
X71167D02*
X69834Y63386D01*
X71167Y61387D02*
X72500Y63386D01*
X-19685Y74803D02*
X74803D01*
Y19685D02*
Y74803D01*
X55118Y0D02*
X74803Y19685D01*
X0Y0D02*
X55118D01*
X-19685Y19685D02*
X0Y0D01*
X-19685Y19685D02*
Y74803D01*
M02*
