G04*
G04 #@! TF.GenerationSoftware,Altium Limited,Altium Designer,21.6.4 (81)*
G04*
G04 Layer_Color=128*
%FSLAX25Y25*%
%MOIN*%
G70*
G04*
G04 #@! TF.SameCoordinates,DCEF65EA-FCDF-413F-B0EF-4AA9E0A8AFDD*
G04*
G04*
G04 #@! TF.FilePolarity,Positive*
G04*
G01*
G75*
%ADD10C,0.01000*%
%ADD15R,0.02559X0.10039*%
%ADD16R,0.02362X0.04528*%
%ADD17R,0.03775X0.03591*%
D10*
X-19685Y74803D02*
X74803D01*
Y19685D02*
Y74803D01*
X55118Y0D02*
X74803Y19685D01*
X0Y0D02*
X55118D01*
X-19685Y19685D02*
X0Y0D01*
X-19685Y19685D02*
Y74803D01*
D15*
X37559Y67520D02*
D03*
Y54921D02*
D03*
X32559Y67520D02*
D03*
Y54921D02*
D03*
X27559Y67520D02*
D03*
Y54921D02*
D03*
X22559Y67520D02*
D03*
Y54921D02*
D03*
X17559Y67520D02*
D03*
Y54921D02*
D03*
Y6299D02*
D03*
Y18898D02*
D03*
X22559Y6299D02*
D03*
Y18898D02*
D03*
X27559Y6299D02*
D03*
Y18898D02*
D03*
X32559Y6299D02*
D03*
Y18898D02*
D03*
X37559Y6299D02*
D03*
Y18898D02*
D03*
D16*
X31299Y31485D02*
D03*
X27559D02*
D03*
X23819D02*
D03*
Y41721D02*
D03*
X27559D02*
D03*
X31299D02*
D03*
D17*
X10142Y40103D02*
D03*
X15864D02*
D03*
M02*
