  0
SECTION
  2
HEADER
  9
$ANGBASE
  50
0.0
  9
$ANGDIR
  70
1
  9
$MEASUREMENT
  70
0
  0
ENDSEC
  0
SECTION
  2
TABLES
  0
TABLE
  2
LTYPE
  70
4
  0
LTYPE
  5
40F
  2
CONTINUOUS
  70
0
  3
Solid line
  72
65
  73
0
  40
0.0
  0
LTYPE
  5
410
  2
DASHDOT
 70
0
  3
Dash Dot ____ _ ____ _
 72
65
 73
4
 40
2.0
 49
1.25
 49
-0.25
 49
0.25
 49
-0.25
  0
LTYPE
  5
411
  2
DASHED
 70
0
  3
Dashed __ __ __ __ __
 72
65
 73
2
 40
0.75
 49
0.5
 49
-0.25
  0
LTYPE
  5
43B
  2
DOTTED
 70
0
  3
Dotted .  .  .  .
 72
65
 73
2
 40
0.2
 49
0.0
 49
-0.2
  0
ENDTAB
  0
TABLE
  2
STYLE
  70
4
  0
STYLE
  2
KICAD
  70
0
  40
0
  41
1
  42
1
  50
0
  71
0
  3
isocp.shx
  0
STYLE
  2
KICADB
  70
0
  40
0
  41
1
  42
1
  50
0
  71
0
  3
isocp.shx
  0
STYLE
  2
KICADI
  70
0
  40
0
  41
1
  42
1
  50
15
  71
0
  3
isocp.shx
  0
STYLE
  2
KICADBI
  70
0
  40
0
  41
1
  42
1
  50
15
  71
0
  3
isocp.shx
  0
ENDTAB
  0
TABLE
  2
LAYER
  70
1
  0
LAYER
  2
BLACK
  70
0
  62
7
  6
CONTINUOUS
  0
ENDTAB
  0
ENDSEC
  0
SECTION
  2
ENTITIES
0
LINE
8
BLACK
6
CONTINUOUS
10
7.34892
20
-4.96998
11
7.34939
21
-4.97012
0
LINE
8
BLACK
6
CONTINUOUS
10
7.34939
20
-4.97012
11
7.34982
21
-4.97035
0
LINE
8
BLACK
6
CONTINUOUS
10
7.34982
20
-4.97035
11
7.3502
21
-4.97066
0
LINE
8
BLACK
6
CONTINUOUS
10
7.3502
20
-4.97066
11
7.35051
21
-4.97105
0
LINE
8
BLACK
6
CONTINUOUS
10
7.35051
20
-4.97105
11
7.35075
21
-4.97148
0
LINE
8
BLACK
6
CONTINUOUS
10
7.35075
20
-4.97148
11
7.35089
21
-4.97195
0
LINE
8
BLACK
6
CONTINUOUS
10
7.35089
20
-4.97195
11
7.35093
21
-4.97232
0
LINE
8
BLACK
6
CONTINUOUS
10
7.35093
20
-4.97232
11
7.35093
21
-5.09461
0
LINE
8
BLACK
6
CONTINUOUS
10
7.35093
20
-5.09461
11
7.35089
21
-5.09498
0
LINE
8
BLACK
6
CONTINUOUS
10
7.35089
20
-5.09498
11
7.35075
21
-5.09545
0
LINE
8
BLACK
6
CONTINUOUS
10
7.35075
20
-5.09545
11
7.35051
21
-5.09588
0
LINE
8
BLACK
6
CONTINUOUS
10
7.35051
20
-5.09588
11
7.3502
21
-5.09626
0
LINE
8
BLACK
6
CONTINUOUS
10
7.3502
20
-5.09626
11
7.34982
21
-5.09658
0
LINE
8
BLACK
6
CONTINUOUS
10
7.34982
20
-5.09658
11
7.34939
21
-5.09681
0
LINE
8
BLACK
6
CONTINUOUS
10
7.34939
20
-5.09681
11
7.34892
21
-5.09695
0
LINE
8
BLACK
6
CONTINUOUS
10
7.34892
20
-5.09695
11
7.34843
21
-5.097
0
LINE
8
BLACK
6
CONTINUOUS
10
7.34843
20
-5.097
11
7.34794
21
-5.09695
0
LINE
8
BLACK
6
CONTINUOUS
10
7.34794
20
-5.09695
11
7.34746
21
-5.09681
0
LINE
8
BLACK
6
CONTINUOUS
10
7.34746
20
-5.09681
11
7.34703
21
-5.09658
0
LINE
8
BLACK
6
CONTINUOUS
10
7.34703
20
-5.09658
11
7.34665
21
-5.09626
0
LINE
8
BLACK
6
CONTINUOUS
10
7.34665
20
-5.09626
11
7.34634
21
-5.09588
0
LINE
8
BLACK
6
CONTINUOUS
10
7.34634
20
-5.09588
11
7.3461
21
-5.09545
0
LINE
8
BLACK
6
CONTINUOUS
10
7.3461
20
-5.09545
11
7.34596
21
-5.09498
0
LINE
8
BLACK
6
CONTINUOUS
10
7.34596
20
-5.09498
11
7.34593
21
-5.09461
0
LINE
8
BLACK
6
CONTINUOUS
10
7.34593
20
-5.09461
11
7.34593
21
-4.97232
0
LINE
8
BLACK
6
CONTINUOUS
10
7.34593
20
-4.97232
11
7.34596
21
-4.97195
0
LINE
8
BLACK
6
CONTINUOUS
10
7.34596
20
-4.97195
11
7.3461
21
-4.97148
0
LINE
8
BLACK
6
CONTINUOUS
10
7.3461
20
-4.97148
11
7.34634
21
-4.97105
0
LINE
8
BLACK
6
CONTINUOUS
10
7.34634
20
-4.97105
11
7.34665
21
-4.97066
0
LINE
8
BLACK
6
CONTINUOUS
10
7.34665
20
-4.97066
11
7.34703
21
-4.97035
0
LINE
8
BLACK
6
CONTINUOUS
10
7.34703
20
-4.97035
11
7.34746
21
-4.97012
0
LINE
8
BLACK
6
CONTINUOUS
10
7.34746
20
-4.97012
11
7.34794
21
-4.96998
0
LINE
8
BLACK
6
CONTINUOUS
10
7.34794
20
-4.96998
11
7.34843
21
-4.96993
0
LINE
8
BLACK
6
CONTINUOUS
10
7.34843
20
-4.96993
11
7.34892
21
-4.96998
0
LINE
8
BLACK
6
CONTINUOUS
10
7.61269
20
-4.96998
11
7.61317
21
-4.97012
0
LINE
8
BLACK
6
CONTINUOUS
10
7.61317
20
-4.97012
11
7.6136
21
-4.97035
0
LINE
8
BLACK
6
CONTINUOUS
10
7.6136
20
-4.97035
11
7.61398
21
-4.97066
0
LINE
8
BLACK
6
CONTINUOUS
10
7.61398
20
-4.97066
11
7.61429
21
-4.97105
0
LINE
8
BLACK
6
CONTINUOUS
10
7.61429
20
-4.97105
11
7.61453
21
-4.97148
0
LINE
8
BLACK
6
CONTINUOUS
10
7.61453
20
-4.97148
11
7.61467
21
-4.97195
0
LINE
8
BLACK
6
CONTINUOUS
10
7.61467
20
-4.97195
11
7.6147
21
-4.97232
0
LINE
8
BLACK
6
CONTINUOUS
10
7.6147
20
-4.97232
11
7.6147
21
-5.09461
0
LINE
8
BLACK
6
CONTINUOUS
10
7.6147
20
-5.09461
11
7.61467
21
-5.09498
0
LINE
8
BLACK
6
CONTINUOUS
10
7.61467
20
-5.09498
11
7.61453
21
-5.09545
0
LINE
8
BLACK
6
CONTINUOUS
10
7.61453
20
-5.09545
11
7.61429
21
-5.09588
0
LINE
8
BLACK
6
CONTINUOUS
10
7.61429
20
-5.09588
11
7.61398
21
-5.09626
0
LINE
8
BLACK
6
CONTINUOUS
10
7.61398
20
-5.09626
11
7.6136
21
-5.09658
0
LINE
8
BLACK
6
CONTINUOUS
10
7.6136
20
-5.09658
11
7.61317
21
-5.09681
0
LINE
8
BLACK
6
CONTINUOUS
10
7.61317
20
-5.09681
11
7.61269
21
-5.09695
0
LINE
8
BLACK
6
CONTINUOUS
10
7.61269
20
-5.09695
11
7.6122
21
-5.097
0
LINE
8
BLACK
6
CONTINUOUS
10
7.6122
20
-5.097
11
7.61171
21
-5.09695
0
LINE
8
BLACK
6
CONTINUOUS
10
7.61171
20
-5.09695
11
7.61124
21
-5.09681
0
LINE
8
BLACK
6
CONTINUOUS
10
7.61124
20
-5.09681
11
7.61081
21
-5.09658
0
LINE
8
BLACK
6
CONTINUOUS
10
7.61081
20
-5.09658
11
7.61043
21
-5.09626
0
LINE
8
BLACK
6
CONTINUOUS
10
7.61043
20
-5.09626
11
7.61012
21
-5.09588
0
LINE
8
BLACK
6
CONTINUOUS
10
7.61012
20
-5.09588
11
7.60988
21
-5.09545
0
LINE
8
BLACK
6
CONTINUOUS
10
7.60988
20
-5.09545
11
7.60974
21
-5.09498
0
LINE
8
BLACK
6
CONTINUOUS
10
7.60974
20
-5.09498
11
7.6097
21
-5.09461
0
LINE
8
BLACK
6
CONTINUOUS
10
7.6097
20
-5.09461
11
7.6097
21
-4.97232
0
LINE
8
BLACK
6
CONTINUOUS
10
7.6097
20
-4.97232
11
7.60974
21
-4.97195
0
LINE
8
BLACK
6
CONTINUOUS
10
7.60974
20
-4.97195
11
7.60988
21
-4.97148
0
LINE
8
BLACK
6
CONTINUOUS
10
7.60988
20
-4.97148
11
7.61012
21
-4.97105
0
LINE
8
BLACK
6
CONTINUOUS
10
7.61012
20
-4.97105
11
7.61043
21
-4.97066
0
LINE
8
BLACK
6
CONTINUOUS
10
7.61043
20
-4.97066
11
7.61081
21
-4.97035
0
LINE
8
BLACK
6
CONTINUOUS
10
7.61081
20
-4.97035
11
7.61124
21
-4.97012
0
LINE
8
BLACK
6
CONTINUOUS
10
7.61124
20
-4.97012
11
7.61171
21
-4.96998
0
LINE
8
BLACK
6
CONTINUOUS
10
7.61171
20
-4.96998
11
7.6122
21
-4.96993
0
LINE
8
BLACK
6
CONTINUOUS
10
7.6122
20
-4.96993
11
7.61269
21
-4.96998
0
LINE
8
BLACK
6
CONTINUOUS
10
7.58283
20
-4.88738
11
7.5844
21
-4.88803
0
LINE
8
BLACK
6
CONTINUOUS
10
7.5844
20
-4.88803
11
7.58581
21
-4.88897
0
LINE
8
BLACK
6
CONTINUOUS
10
7.58581
20
-4.88897
11
7.58701
21
-4.89017
0
LINE
8
BLACK
6
CONTINUOUS
10
7.58701
20
-4.89017
11
7.58795
21
-4.89159
0
LINE
8
BLACK
6
CONTINUOUS
10
7.58795
20
-4.89159
11
7.5886
21
-4.89316
0
LINE
8
BLACK
6
CONTINUOUS
10
7.5886
20
-4.89316
11
7.58893
21
-4.89482
0
LINE
8
BLACK
6
CONTINUOUS
10
7.58893
20
-4.89482
11
7.58893
21
-4.89652
0
LINE
8
BLACK
6
CONTINUOUS
10
7.58893
20
-4.89652
11
7.5886
21
-4.89818
0
LINE
8
BLACK
6
CONTINUOUS
10
7.5886
20
-4.89818
11
7.58795
21
-4.89975
0
LINE
8
BLACK
6
CONTINUOUS
10
7.58795
20
-4.89975
11
7.58701
21
-4.90116
0
LINE
8
BLACK
6
CONTINUOUS
10
7.58701
20
-4.90116
11
7.58581
21
-4.90236
0
LINE
8
BLACK
6
CONTINUOUS
10
7.58581
20
-4.90236
11
7.5844
21
-4.90331
0
LINE
8
BLACK
6
CONTINUOUS
10
7.5844
20
-4.90331
11
7.58283
21
-4.90396
0
LINE
8
BLACK
6
CONTINUOUS
10
7.58283
20
-4.90396
11
7.58116
21
-4.90429
0
LINE
8
BLACK
6
CONTINUOUS
10
7.58116
20
-4.90429
11
7.57947
21
-4.90429
0
LINE
8
BLACK
6
CONTINUOUS
10
7.57947
20
-4.90429
11
7.5778
21
-4.90396
0
LINE
8
BLACK
6
CONTINUOUS
10
7.5778
20
-4.90396
11
7.57623
21
-4.90331
0
LINE
8
BLACK
6
CONTINUOUS
10
7.57623
20
-4.90331
11
7.57482
21
-4.90236
0
LINE
8
BLACK
6
CONTINUOUS
10
7.57482
20
-4.90236
11
7.57362
21
-4.90116
0
LINE
8
BLACK
6
CONTINUOUS
10
7.57362
20
-4.90116
11
7.57268
21
-4.89975
0
LINE
8
BLACK
6
CONTINUOUS
10
7.57268
20
-4.89975
11
7.57203
21
-4.89818
0
LINE
8
BLACK
6
CONTINUOUS
10
7.57203
20
-4.89818
11
7.5717
21
-4.89652
0
LINE
8
BLACK
6
CONTINUOUS
10
7.5717
20
-4.89652
11
7.5717
21
-4.89482
0
LINE
8
BLACK
6
CONTINUOUS
10
7.5717
20
-4.89482
11
7.57203
21
-4.89316
0
LINE
8
BLACK
6
CONTINUOUS
10
7.57203
20
-4.89316
11
7.57268
21
-4.89159
0
LINE
8
BLACK
6
CONTINUOUS
10
7.57268
20
-4.89159
11
7.57362
21
-4.89017
0
LINE
8
BLACK
6
CONTINUOUS
10
7.57362
20
-4.89017
11
7.57482
21
-4.88897
0
LINE
8
BLACK
6
CONTINUOUS
10
7.57482
20
-4.88897
11
7.57623
21
-4.88803
0
LINE
8
BLACK
6
CONTINUOUS
10
7.57623
20
-4.88803
11
7.5778
21
-4.88738
0
LINE
8
BLACK
6
CONTINUOUS
10
7.5778
20
-4.88738
11
7.57947
21
-4.88705
0
LINE
8
BLACK
6
CONTINUOUS
10
7.57947
20
-4.88705
11
7.58116
21
-4.88705
0
LINE
8
BLACK
6
CONTINUOUS
10
7.58116
20
-4.88705
11
7.58283
21
-4.88738
0
LINE
8
BLACK
6
CONTINUOUS
10
7.01818
20
-4.83311
11
7.01862
21
-4.83324
0
LINE
8
BLACK
6
CONTINUOUS
10
7.01862
20
-4.83324
11
7.01904
21
-4.83346
0
LINE
8
BLACK
6
CONTINUOUS
10
7.01904
20
-4.83346
11
7.01939
21
-4.83375
0
LINE
8
BLACK
6
CONTINUOUS
10
7.01939
20
-4.83375
11
7.01969
21
-4.83411
0
LINE
8
BLACK
6
CONTINUOUS
10
7.01969
20
-4.83411
11
7.01991
21
-4.83452
0
LINE
8
BLACK
6
CONTINUOUS
10
7.01991
20
-4.83452
11
7.02004
21
-4.83497
0
LINE
8
BLACK
6
CONTINUOUS
10
7.02004
20
-4.83497
11
7.02009
21
-4.83543
0
LINE
8
BLACK
6
CONTINUOUS
10
7.02009
20
-4.83543
11
7.02004
21
-4.8359
0
LINE
8
BLACK
6
CONTINUOUS
10
7.02004
20
-4.8359
11
7.01991
21
-4.83634
0
LINE
8
BLACK
6
CONTINUOUS
10
7.01991
20
-4.83634
11
7.01969
21
-4.83675
0
LINE
8
BLACK
6
CONTINUOUS
10
7.01969
20
-4.83675
11
7.01939
21
-4.83711
0
LINE
8
BLACK
6
CONTINUOUS
10
7.01939
20
-4.83711
11
7.01904
21
-4.83741
0
LINE
8
BLACK
6
CONTINUOUS
10
7.01904
20
-4.83741
11
7.01862
21
-4.83763
0
LINE
8
BLACK
6
CONTINUOUS
10
7.01862
20
-4.83763
11
7.01818
21
-4.83776
0
LINE
8
BLACK
6
CONTINUOUS
10
7.01818
20
-4.83776
11
7.01783
21
-4.8378
0
LINE
8
BLACK
6
CONTINUOUS
10
7.01783
20
-4.8378
11
6.9865
21
-4.8378
0
LINE
8
BLACK
6
CONTINUOUS
10
6.9865
20
-4.8378
11
6.98615
21
-4.83776
0
LINE
8
BLACK
6
CONTINUOUS
10
6.98615
20
-4.83776
11
6.98571
21
-4.83763
0
LINE
8
BLACK
6
CONTINUOUS
10
6.98571
20
-4.83763
11
6.9853
21
-4.83741
0
LINE
8
BLACK
6
CONTINUOUS
10
6.9853
20
-4.83741
11
6.98494
21
-4.83711
0
LINE
8
BLACK
6
CONTINUOUS
10
6.98494
20
-4.83711
11
6.98464
21
-4.83675
0
LINE
8
BLACK
6
CONTINUOUS
10
6.98464
20
-4.83675
11
6.98442
21
-4.83634
0
LINE
8
BLACK
6
CONTINUOUS
10
6.98442
20
-4.83634
11
6.98429
21
-4.8359
0
LINE
8
BLACK
6
CONTINUOUS
10
6.98429
20
-4.8359
11
6.98424
21
-4.83543
0
LINE
8
BLACK
6
CONTINUOUS
10
6.98424
20
-4.83543
11
6.98429
21
-4.83497
0
LINE
8
BLACK
6
CONTINUOUS
10
6.98429
20
-4.83497
11
6.98442
21
-4.83452
0
LINE
8
BLACK
6
CONTINUOUS
10
6.98442
20
-4.83452
11
6.98464
21
-4.83411
0
LINE
8
BLACK
6
CONTINUOUS
10
6.98464
20
-4.83411
11
6.98494
21
-4.83375
0
LINE
8
BLACK
6
CONTINUOUS
10
6.98494
20
-4.83375
11
6.9853
21
-4.83346
0
LINE
8
BLACK
6
CONTINUOUS
10
6.9853
20
-4.83346
11
6.98571
21
-4.83324
0
LINE
8
BLACK
6
CONTINUOUS
10
6.98571
20
-4.83324
11
6.98615
21
-4.83311
0
LINE
8
BLACK
6
CONTINUOUS
10
6.98615
20
-4.83311
11
6.9865
21
-4.83307
0
LINE
8
BLACK
6
CONTINUOUS
10
6.9865
20
-4.83307
11
7.01783
21
-4.83307
0
LINE
8
BLACK
6
CONTINUOUS
10
7.01783
20
-4.83307
11
7.01818
21
-4.83311
0
LINE
8
BLACK
6
CONTINUOUS
10
6.94731
20
-4.58507
11
6.94776
21
-4.58521
0
LINE
8
BLACK
6
CONTINUOUS
10
6.94776
20
-4.58521
11
6.94817
21
-4.58543
0
LINE
8
BLACK
6
CONTINUOUS
10
6.94817
20
-4.58543
11
6.94853
21
-4.58572
0
LINE
8
BLACK
6
CONTINUOUS
10
6.94853
20
-4.58572
11
6.94882
21
-4.58608
0
LINE
8
BLACK
6
CONTINUOUS
10
6.94882
20
-4.58608
11
6.94904
21
-4.58649
0
LINE
8
BLACK
6
CONTINUOUS
10
6.94904
20
-4.58649
11
6.94918
21
-4.58694
0
LINE
8
BLACK
6
CONTINUOUS
10
6.94918
20
-4.58694
11
6.94921
21
-4.58729
0
LINE
8
BLACK
6
CONTINUOUS
10
6.94921
20
-4.58729
11
6.94921
21
-4.70343
0
LINE
8
BLACK
6
CONTINUOUS
10
6.94921
20
-4.70343
11
6.94922
21
-4.70354
0
LINE
8
BLACK
6
CONTINUOUS
10
6.94922
20
-4.70354
11
6.94921
21
-4.70366
0
LINE
8
BLACK
6
CONTINUOUS
10
6.94921
20
-4.70366
11
6.94921
21
-4.75461
0
LINE
8
BLACK
6
CONTINUOUS
10
6.94921
20
-4.75461
11
6.94922
21
-4.75472
0
LINE
8
BLACK
6
CONTINUOUS
10
6.94922
20
-4.75472
11
6.94921
21
-4.75484
0
LINE
8
BLACK
6
CONTINUOUS
10
6.94921
20
-4.75484
11
6.94921
21
-4.81193
0
LINE
8
BLACK
6
CONTINUOUS
10
6.94921
20
-4.81193
11
6.94918
21
-4.81227
0
LINE
8
BLACK
6
CONTINUOUS
10
6.94918
20
-4.81227
11
6.94904
21
-4.81272
0
LINE
8
BLACK
6
CONTINUOUS
10
6.94904
20
-4.81272
11
6.94882
21
-4.81313
0
LINE
8
BLACK
6
CONTINUOUS
10
6.94882
20
-4.81313
11
6.94853
21
-4.81349
0
LINE
8
BLACK
6
CONTINUOUS
10
6.94853
20
-4.81349
11
6.94817
21
-4.81378
0
LINE
8
BLACK
6
CONTINUOUS
10
6.94817
20
-4.81378
11
6.94776
21
-4.814
0
LINE
8
BLACK
6
CONTINUOUS
10
6.94776
20
-4.814
11
6.94731
21
-4.81414
0
LINE
8
BLACK
6
CONTINUOUS
10
6.94731
20
-4.81414
11
6.94685
21
-4.81418
0
LINE
8
BLACK
6
CONTINUOUS
10
6.94685
20
-4.81418
11
6.94639
21
-4.81414
0
LINE
8
BLACK
6
CONTINUOUS
10
6.94639
20
-4.81414
11
6.94594
21
-4.814
0
LINE
8
BLACK
6
CONTINUOUS
10
6.94594
20
-4.814
11
6.94553
21
-4.81378
0
LINE
8
BLACK
6
CONTINUOUS
10
6.94553
20
-4.81378
11
6.94517
21
-4.81349
0
LINE
8
BLACK
6
CONTINUOUS
10
6.94517
20
-4.81349
11
6.94488
21
-4.81313
0
LINE
8
BLACK
6
CONTINUOUS
10
6.94488
20
-4.81313
11
6.94466
21
-4.81272
0
LINE
8
BLACK
6
CONTINUOUS
10
6.94466
20
-4.81272
11
6.94452
21
-4.81227
0
LINE
8
BLACK
6
CONTINUOUS
10
6.94452
20
-4.81227
11
6.94449
21
-4.81193
0
LINE
8
BLACK
6
CONTINUOUS
10
6.94449
20
-4.81193
11
6.94449
21
-4.75709
0
LINE
8
BLACK
6
CONTINUOUS
10
6.94449
20
-4.75709
11
6.89621
21
-4.75709
0
LINE
8
BLACK
6
CONTINUOUS
10
6.89621
20
-4.75709
11
6.89612
21
-4.7571
0
LINE
8
BLACK
6
CONTINUOUS
10
6.89612
20
-4.7571
11
6.89598
21
-4.75709
0
LINE
8
BLACK
6
CONTINUOUS
10
6.89598
20
-4.75709
11
6.89595
21
-4.75709
0
LINE
8
BLACK
6
CONTINUOUS
10
6.89595
20
-4.75709
11
6.89586
21
-4.75708
0
LINE
8
BLACK
6
CONTINUOUS
10
6.89586
20
-4.75708
11
6.89566
21
-4.75706
0
LINE
8
BLACK
6
CONTINUOUS
10
6.89566
20
-4.75706
11
6.89563
21
-4.75706
0
LINE
8
BLACK
6
CONTINUOUS
10
6.89563
20
-4.75706
11
6.8956
21
-4.75705
0
LINE
8
BLACK
6
CONTINUOUS
10
6.8956
20
-4.75705
11
6.8954
21
-4.75699
0
LINE
8
BLACK
6
CONTINUOUS
10
6.8954
20
-4.75699
11
6.89521
21
-4.75694
0
LINE
8
BLACK
6
CONTINUOUS
10
6.89521
20
-4.75694
11
6.89518
21
-4.75693
0
LINE
8
BLACK
6
CONTINUOUS
10
6.89518
20
-4.75693
11
6.89515
21
-4.75692
0
LINE
8
BLACK
6
CONTINUOUS
10
6.89515
20
-4.75692
11
6.89498
21
-4.75682
0
LINE
8
BLACK
6
CONTINUOUS
10
6.89498
20
-4.75682
11
6.89479
21
-4.75673
0
LINE
8
BLACK
6
CONTINUOUS
10
6.89479
20
-4.75673
11
6.89477
21
-4.75671
0
LINE
8
BLACK
6
CONTINUOUS
10
6.89477
20
-4.75671
11
6.89474
21
-4.7567
0
LINE
8
BLACK
6
CONTINUOUS
10
6.89474
20
-4.7567
11
6.89459
21
-4.75657
0
LINE
8
BLACK
6
CONTINUOUS
10
6.89459
20
-4.75657
11
6.89452
21
-4.75651
0
LINE
8
BLACK
6
CONTINUOUS
10
6.89452
20
-4.75651
11
6.8945
21
-4.75649
0
LINE
8
BLACK
6
CONTINUOUS
10
6.8945
20
-4.75649
11
6.89438
21
-4.7564
0
LINE
8
BLACK
6
CONTINUOUS
10
6.89438
20
-4.7564
11
6.89433
21
-4.75634
0
LINE
8
BLACK
6
CONTINUOUS
10
6.89433
20
-4.75634
11
6.88623
21
-4.74862
0
LINE
8
BLACK
6
CONTINUOUS
10
6.88623
20
-4.74862
11
6.88612
21
-4.74853
0
LINE
8
BLACK
6
CONTINUOUS
10
6.88612
20
-4.74853
11
6.88599
21
-4.74837
0
LINE
8
BLACK
6
CONTINUOUS
10
6.88599
20
-4.74837
11
6.88585
21
-4.74822
0
LINE
8
BLACK
6
CONTINUOUS
10
6.88585
20
-4.74822
11
6.88584
21
-4.74819
0
LINE
8
BLACK
6
CONTINUOUS
10
6.88584
20
-4.74819
11
6.88582
21
-4.74817
0
LINE
8
BLACK
6
CONTINUOUS
10
6.88582
20
-4.74817
11
6.88573
21
-4.74799
0
LINE
8
BLACK
6
CONTINUOUS
10
6.88573
20
-4.74799
11
6.88563
21
-4.74781
0
LINE
8
BLACK
6
CONTINUOUS
10
6.88563
20
-4.74781
11
6.88562
21
-4.74778
0
LINE
8
BLACK
6
CONTINUOUS
10
6.88562
20
-4.74778
11
6.8856
21
-4.74776
0
LINE
8
BLACK
6
CONTINUOUS
10
6.8856
20
-4.74776
11
6.88554
21
-4.74756
0
LINE
8
BLACK
6
CONTINUOUS
10
6.88554
20
-4.74756
11
6.88548
21
-4.74737
0
LINE
8
BLACK
6
CONTINUOUS
10
6.88548
20
-4.74737
11
6.88548
21
-4.74734
0
LINE
8
BLACK
6
CONTINUOUS
10
6.88548
20
-4.74734
11
6.88547
21
-4.74731
0
LINE
8
BLACK
6
CONTINUOUS
10
6.88547
20
-4.74731
11
6.88545
21
-4.74711
0
LINE
8
BLACK
6
CONTINUOUS
10
6.88545
20
-4.74711
11
6.88542
21
-4.74691
0
LINE
8
BLACK
6
CONTINUOUS
10
6.88542
20
-4.74691
11
6.88543
21
-4.74676
0
LINE
8
BLACK
6
CONTINUOUS
10
6.88543
20
-4.74676
11
6.88543
21
-4.7115
0
LINE
8
BLACK
6
CONTINUOUS
10
6.88543
20
-4.7115
11
6.88542
21
-4.71136
0
LINE
8
BLACK
6
CONTINUOUS
10
6.88542
20
-4.71136
11
6.88545
21
-4.71116
0
LINE
8
BLACK
6
CONTINUOUS
10
6.88545
20
-4.71116
11
6.88547
21
-4.71095
0
LINE
8
BLACK
6
CONTINUOUS
10
6.88547
20
-4.71095
11
6.88548
21
-4.71093
0
LINE
8
BLACK
6
CONTINUOUS
10
6.88548
20
-4.71093
11
6.88548
21
-4.7109
0
LINE
8
BLACK
6
CONTINUOUS
10
6.88548
20
-4.7109
11
6.88554
21
-4.7107
0
LINE
8
BLACK
6
CONTINUOUS
10
6.88554
20
-4.7107
11
6.8856
21
-4.71051
0
LINE
8
BLACK
6
CONTINUOUS
10
6.8856
20
-4.71051
11
6.88562
21
-4.71048
0
LINE
8
BLACK
6
CONTINUOUS
10
6.88562
20
-4.71048
11
6.88563
21
-4.71046
0
LINE
8
BLACK
6
CONTINUOUS
10
6.88563
20
-4.71046
11
6.88573
21
-4.71028
0
LINE
8
BLACK
6
CONTINUOUS
10
6.88573
20
-4.71028
11
6.88582
21
-4.7101
0
LINE
8
BLACK
6
CONTINUOUS
10
6.88582
20
-4.7101
11
6.88584
21
-4.71008
0
LINE
8
BLACK
6
CONTINUOUS
10
6.88584
20
-4.71008
11
6.88585
21
-4.71005
0
LINE
8
BLACK
6
CONTINUOUS
10
6.88585
20
-4.71005
11
6.88599
21
-4.7099
0
LINE
8
BLACK
6
CONTINUOUS
10
6.88599
20
-4.7099
11
6.88612
21
-4.70974
0
LINE
8
BLACK
6
CONTINUOUS
10
6.88612
20
-4.70974
11
6.88623
21
-4.70965
0
LINE
8
BLACK
6
CONTINUOUS
10
6.88623
20
-4.70965
11
6.89433
21
-4.70193
0
LINE
8
BLACK
6
CONTINUOUS
10
6.89433
20
-4.70193
11
6.89438
21
-4.70186
0
LINE
8
BLACK
6
CONTINUOUS
10
6.89438
20
-4.70186
11
6.8945
21
-4.70177
0
LINE
8
BLACK
6
CONTINUOUS
10
6.8945
20
-4.70177
11
6.89452
21
-4.70175
0
LINE
8
BLACK
6
CONTINUOUS
10
6.89452
20
-4.70175
11
6.89459
21
-4.7017
0
LINE
8
BLACK
6
CONTINUOUS
10
6.89459
20
-4.7017
11
6.89474
21
-4.70157
0
LINE
8
BLACK
6
CONTINUOUS
10
6.89474
20
-4.70157
11
6.89477
21
-4.70156
0
LINE
8
BLACK
6
CONTINUOUS
10
6.89477
20
-4.70156
11
6.89479
21
-4.70154
0
LINE
8
BLACK
6
CONTINUOUS
10
6.89479
20
-4.70154
11
6.89498
21
-4.70145
0
LINE
8
BLACK
6
CONTINUOUS
10
6.89498
20
-4.70145
11
6.89515
21
-4.70135
0
LINE
8
BLACK
6
CONTINUOUS
10
6.89515
20
-4.70135
11
6.89518
21
-4.70134
0
LINE
8
BLACK
6
CONTINUOUS
10
6.89518
20
-4.70134
11
6.89521
21
-4.70133
0
LINE
8
BLACK
6
CONTINUOUS
10
6.89521
20
-4.70133
11
6.8954
21
-4.70127
0
LINE
8
BLACK
6
CONTINUOUS
10
6.8954
20
-4.70127
11
6.8956
21
-4.70122
0
LINE
8
BLACK
6
CONTINUOUS
10
6.8956
20
-4.70122
11
6.89563
21
-4.70121
0
LINE
8
BLACK
6
CONTINUOUS
10
6.89563
20
-4.70121
11
6.89566
21
-4.7012
0
LINE
8
BLACK
6
CONTINUOUS
10
6.89566
20
-4.7012
11
6.89586
21
-4.70119
0
LINE
8
BLACK
6
CONTINUOUS
10
6.89586
20
-4.70119
11
6.89595
21
-4.70118
0
LINE
8
BLACK
6
CONTINUOUS
10
6.89595
20
-4.70118
11
6.89598
21
-4.70118
0
LINE
8
BLACK
6
CONTINUOUS
10
6.89598
20
-4.70118
11
6.89612
21
-4.70117
0
LINE
8
BLACK
6
CONTINUOUS
10
6.89612
20
-4.70117
11
6.89621
21
-4.70118
0
LINE
8
BLACK
6
CONTINUOUS
10
6.89621
20
-4.70118
11
6.94449
21
-4.70118
0
LINE
8
BLACK
6
CONTINUOUS
10
6.94449
20
-4.70118
11
6.94449
21
-4.58729
0
LINE
8
BLACK
6
CONTINUOUS
10
6.94449
20
-4.58729
11
6.94452
21
-4.58694
0
LINE
8
BLACK
6
CONTINUOUS
10
6.94452
20
-4.58694
11
6.94466
21
-4.58649
0
LINE
8
BLACK
6
CONTINUOUS
10
6.94466
20
-4.58649
11
6.94488
21
-4.58608
0
LINE
8
BLACK
6
CONTINUOUS
10
6.94488
20
-4.58608
11
6.94517
21
-4.58572
0
LINE
8
BLACK
6
CONTINUOUS
10
6.94517
20
-4.58572
11
6.94553
21
-4.58543
0
LINE
8
BLACK
6
CONTINUOUS
10
6.94553
20
-4.58543
11
6.94594
21
-4.58521
0
LINE
8
BLACK
6
CONTINUOUS
10
6.94594
20
-4.58521
11
6.94639
21
-4.58507
0
LINE
8
BLACK
6
CONTINUOUS
10
6.94639
20
-4.58507
11
6.94685
21
-4.58503
0
LINE
8
BLACK
6
CONTINUOUS
10
6.94685
20
-4.58503
11
6.94731
21
-4.58507
0
LINE
8
BLACK
6
CONTINUOUS
10
6.89701
20
-4.70591
11
6.89016
21
-4.71243
0
LINE
8
BLACK
6
CONTINUOUS
10
6.89016
20
-4.71243
11
6.89016
21
-4.74584
0
LINE
8
BLACK
6
CONTINUOUS
10
6.89016
20
-4.74584
11
6.89701
21
-4.75236
0
LINE
8
BLACK
6
CONTINUOUS
10
6.89701
20
-4.75236
11
6.94449
21
-4.75236
0
LINE
8
BLACK
6
CONTINUOUS
10
6.94449
20
-4.75236
11
6.94449
21
-4.70591
0
LINE
8
BLACK
6
CONTINUOUS
10
6.94449
20
-4.70591
11
6.89701
21
-4.70591
0
LINE
8
BLACK
6
CONTINUOUS
10
7.98573
20
-4.81358
11
7.98544
21
-4.81355
0
LINE
8
BLACK
6
CONTINUOUS
10
7.98544
20
-4.81355
11
7.98507
21
-4.81344
0
LINE
8
BLACK
6
CONTINUOUS
10
7.98507
20
-4.81344
11
7.98473
21
-4.81326
0
LINE
8
BLACK
6
CONTINUOUS
10
7.98473
20
-4.81326
11
7.98443
21
-4.81301
0
LINE
8
BLACK
6
CONTINUOUS
10
7.98443
20
-4.81301
11
7.98418
21
-4.81271
0
LINE
8
BLACK
6
CONTINUOUS
10
7.98418
20
-4.81271
11
7.984
21
-4.81237
0
LINE
8
BLACK
6
CONTINUOUS
10
7.984
20
-4.81237
11
7.98389
21
-4.812
0
LINE
8
BLACK
6
CONTINUOUS
10
7.98389
20
-4.812
11
7.98385
21
-4.81161
0
LINE
8
BLACK
6
CONTINUOUS
10
7.98385
20
-4.81161
11
7.98389
21
-4.81123
0
LINE
8
BLACK
6
CONTINUOUS
10
7.98389
20
-4.81123
11
7.984
21
-4.81086
0
LINE
8
BLACK
6
CONTINUOUS
10
7.984
20
-4.81086
11
7.98418
21
-4.81052
0
LINE
8
BLACK
6
CONTINUOUS
10
7.98418
20
-4.81052
11
7.98443
21
-4.81022
0
LINE
8
BLACK
6
CONTINUOUS
10
7.98443
20
-4.81022
11
7.98473
21
-4.80997
0
LINE
8
BLACK
6
CONTINUOUS
10
7.98473
20
-4.80997
11
7.98507
21
-4.80979
0
LINE
8
BLACK
6
CONTINUOUS
10
7.98507
20
-4.80979
11
7.98544
21
-4.80967
0
LINE
8
BLACK
6
CONTINUOUS
10
7.98544
20
-4.80967
11
7.98573
21
-4.80965
0
LINE
8
BLACK
6
CONTINUOUS
10
7.98573
20
-4.80965
11
8.02126
21
-4.80965
0
LINE
8
BLACK
6
CONTINUOUS
10
8.02126
20
-4.80965
11
8.02126
21
-4.48169
0
LINE
8
BLACK
6
CONTINUOUS
10
8.02126
20
-4.48169
11
7.98573
21
-4.48169
0
LINE
8
BLACK
6
CONTINUOUS
10
7.98573
20
-4.48169
11
7.98544
21
-4.48166
0
LINE
8
BLACK
6
CONTINUOUS
10
7.98544
20
-4.48166
11
7.98507
21
-4.48155
0
LINE
8
BLACK
6
CONTINUOUS
10
7.98507
20
-4.48155
11
7.98473
21
-4.48137
0
LINE
8
BLACK
6
CONTINUOUS
10
7.98473
20
-4.48137
11
7.98443
21
-4.48112
0
LINE
8
BLACK
6
CONTINUOUS
10
7.98443
20
-4.48112
11
7.98418
21
-4.48082
0
LINE
8
BLACK
6
CONTINUOUS
10
7.98418
20
-4.48082
11
7.984
21
-4.48048
0
LINE
8
BLACK
6
CONTINUOUS
10
7.984
20
-4.48048
11
7.98389
21
-4.48011
0
LINE
8
BLACK
6
CONTINUOUS
10
7.98389
20
-4.48011
11
7.98385
21
-4.47972
0
LINE
8
BLACK
6
CONTINUOUS
10
7.98385
20
-4.47972
11
7.98389
21
-4.47934
0
LINE
8
BLACK
6
CONTINUOUS
10
7.98389
20
-4.47934
11
7.984
21
-4.47897
0
LINE
8
BLACK
6
CONTINUOUS
10
7.984
20
-4.47897
11
7.98418
21
-4.47863
0
LINE
8
BLACK
6
CONTINUOUS
10
7.98418
20
-4.47863
11
7.98443
21
-4.47833
0
LINE
8
BLACK
6
CONTINUOUS
10
7.98443
20
-4.47833
11
7.98473
21
-4.47808
0
LINE
8
BLACK
6
CONTINUOUS
10
7.98473
20
-4.47808
11
7.98507
21
-4.4779
0
LINE
8
BLACK
6
CONTINUOUS
10
7.98507
20
-4.4779
11
7.98544
21
-4.47778
0
LINE
8
BLACK
6
CONTINUOUS
10
7.98544
20
-4.47778
11
7.98573
21
-4.47776
0
LINE
8
BLACK
6
CONTINUOUS
10
7.98573
20
-4.47776
11
8.02313
21
-4.47776
0
LINE
8
BLACK
6
CONTINUOUS
10
8.02313
20
-4.47776
11
8.02323
21
-4.47775
0
LINE
8
BLACK
6
CONTINUOUS
10
8.02323
20
-4.47775
11
8.02332
21
-4.47776
0
LINE
8
BLACK
6
CONTINUOUS
10
8.02332
20
-4.47776
11
8.02361
21
-4.47778
0
LINE
8
BLACK
6
CONTINUOUS
10
8.02361
20
-4.47778
11
8.02399
21
-4.4779
0
LINE
8
BLACK
6
CONTINUOUS
10
8.02399
20
-4.4779
11
8.02433
21
-4.47808
0
LINE
8
BLACK
6
CONTINUOUS
10
8.02433
20
-4.47808
11
8.02463
21
-4.47833
0
LINE
8
BLACK
6
CONTINUOUS
10
8.02463
20
-4.47833
11
8.02487
21
-4.47863
0
LINE
8
BLACK
6
CONTINUOUS
10
8.02487
20
-4.47863
11
8.02506
21
-4.47897
0
LINE
8
BLACK
6
CONTINUOUS
10
8.02506
20
-4.47897
11
8.02517
21
-4.47934
0
LINE
8
BLACK
6
CONTINUOUS
10
8.02517
20
-4.47934
11
8.02521
21
-4.47972
0
LINE
8
BLACK
6
CONTINUOUS
10
8.02521
20
-4.47972
11
8.0252
21
-4.47982
0
LINE
8
BLACK
6
CONTINUOUS
10
8.0252
20
-4.47982
11
8.0252
21
-4.81152
0
LINE
8
BLACK
6
CONTINUOUS
10
8.0252
20
-4.81152
11
8.02521
21
-4.81161
0
LINE
8
BLACK
6
CONTINUOUS
10
8.02521
20
-4.81161
11
8.0252
21
-4.81171
0
LINE
8
BLACK
6
CONTINUOUS
10
8.0252
20
-4.81171
11
8.0252
21
-4.81171
0
LINE
8
BLACK
6
CONTINUOUS
10
8.0252
20
-4.81171
11
8.02517
21
-4.812
0
LINE
8
BLACK
6
CONTINUOUS
10
8.02517
20
-4.812
11
8.02506
21
-4.81237
0
LINE
8
BLACK
6
CONTINUOUS
10
8.02506
20
-4.81237
11
8.02487
21
-4.81271
0
LINE
8
BLACK
6
CONTINUOUS
10
8.02487
20
-4.81271
11
8.02463
21
-4.81301
0
LINE
8
BLACK
6
CONTINUOUS
10
8.02463
20
-4.81301
11
8.02433
21
-4.81326
0
LINE
8
BLACK
6
CONTINUOUS
10
8.02433
20
-4.81326
11
8.02399
21
-4.81344
0
LINE
8
BLACK
6
CONTINUOUS
10
8.02399
20
-4.81344
11
8.02361
21
-4.81355
0
LINE
8
BLACK
6
CONTINUOUS
10
8.02361
20
-4.81355
11
8.02323
21
-4.81359
0
LINE
8
BLACK
6
CONTINUOUS
10
8.02323
20
-4.81359
11
8.02313
21
-4.81358
0
LINE
8
BLACK
6
CONTINUOUS
10
8.02313
20
-4.81358
11
7.98573
21
-4.81358
0
LINE
8
BLACK
6
CONTINUOUS
10
7.05952
20
-4.69334
11
7.05996
21
-4.69348
0
LINE
8
BLACK
6
CONTINUOUS
10
7.05996
20
-4.69348
11
7.06037
21
-4.6937
0
LINE
8
BLACK
6
CONTINUOUS
10
7.06037
20
-4.6937
11
7.06073
21
-4.69399
0
LINE
8
BLACK
6
CONTINUOUS
10
7.06073
20
-4.69399
11
7.06103
21
-4.69435
0
LINE
8
BLACK
6
CONTINUOUS
10
7.06103
20
-4.69435
11
7.06125
21
-4.69476
0
LINE
8
BLACK
6
CONTINUOUS
10
7.06125
20
-4.69476
11
7.06138
21
-4.69521
0
LINE
8
BLACK
6
CONTINUOUS
10
7.06138
20
-4.69521
11
7.06142
21
-4.69555
0
LINE
8
BLACK
6
CONTINUOUS
10
7.06142
20
-4.69555
11
7.06142
21
-4.76271
0
LINE
8
BLACK
6
CONTINUOUS
10
7.06142
20
-4.76271
11
7.06138
21
-4.76306
0
LINE
8
BLACK
6
CONTINUOUS
10
7.06138
20
-4.76306
11
7.06125
21
-4.76351
0
LINE
8
BLACK
6
CONTINUOUS
10
7.06125
20
-4.76351
11
7.06103
21
-4.76392
0
LINE
8
BLACK
6
CONTINUOUS
10
7.06103
20
-4.76392
11
7.06073
21
-4.76428
0
LINE
8
BLACK
6
CONTINUOUS
10
7.06073
20
-4.76428
11
7.06037
21
-4.76457
0
LINE
8
BLACK
6
CONTINUOUS
10
7.06037
20
-4.76457
11
7.05996
21
-4.76479
0
LINE
8
BLACK
6
CONTINUOUS
10
7.05996
20
-4.76479
11
7.05952
21
-4.76493
0
LINE
8
BLACK
6
CONTINUOUS
10
7.05952
20
-4.76493
11
7.05906
21
-4.76497
0
LINE
8
BLACK
6
CONTINUOUS
10
7.05906
20
-4.76497
11
7.05859
21
-4.76493
0
LINE
8
BLACK
6
CONTINUOUS
10
7.05859
20
-4.76493
11
7.05815
21
-4.76479
0
LINE
8
BLACK
6
CONTINUOUS
10
7.05815
20
-4.76479
11
7.05774
21
-4.76457
0
LINE
8
BLACK
6
CONTINUOUS
10
7.05774
20
-4.76457
11
7.05738
21
-4.76428
0
LINE
8
BLACK
6
CONTINUOUS
10
7.05738
20
-4.76428
11
7.05708
21
-4.76392
0
LINE
8
BLACK
6
CONTINUOUS
10
7.05708
20
-4.76392
11
7.05686
21
-4.76351
0
LINE
8
BLACK
6
CONTINUOUS
10
7.05686
20
-4.76351
11
7.05673
21
-4.76306
0
LINE
8
BLACK
6
CONTINUOUS
10
7.05673
20
-4.76306
11
7.05669
21
-4.76271
0
LINE
8
BLACK
6
CONTINUOUS
10
7.05669
20
-4.76271
11
7.05669
21
-4.69555
0
LINE
8
BLACK
6
CONTINUOUS
10
7.05669
20
-4.69555
11
7.05673
21
-4.69521
0
LINE
8
BLACK
6
CONTINUOUS
10
7.05673
20
-4.69521
11
7.05686
21
-4.69476
0
LINE
8
BLACK
6
CONTINUOUS
10
7.05686
20
-4.69476
11
7.05708
21
-4.69435
0
LINE
8
BLACK
6
CONTINUOUS
10
7.05708
20
-4.69435
11
7.05738
21
-4.69399
0
LINE
8
BLACK
6
CONTINUOUS
10
7.05738
20
-4.69399
11
7.05774
21
-4.6937
0
LINE
8
BLACK
6
CONTINUOUS
10
7.05774
20
-4.6937
11
7.05815
21
-4.69348
0
LINE
8
BLACK
6
CONTINUOUS
10
7.05815
20
-4.69348
11
7.05859
21
-4.69334
0
LINE
8
BLACK
6
CONTINUOUS
10
7.05859
20
-4.69334
11
7.05906
21
-4.6933
0
LINE
8
BLACK
6
CONTINUOUS
10
7.05906
20
-4.6933
11
7.05952
21
-4.69334
0
LINE
8
BLACK
6
CONTINUOUS
10
7.05952
20
-4.63429
11
7.05996
21
-4.63442
0
LINE
8
BLACK
6
CONTINUOUS
10
7.05996
20
-4.63442
11
7.06037
21
-4.63464
0
LINE
8
BLACK
6
CONTINUOUS
10
7.06037
20
-4.63464
11
7.06073
21
-4.63494
0
LINE
8
BLACK
6
CONTINUOUS
10
7.06073
20
-4.63494
11
7.06103
21
-4.6353
0
LINE
8
BLACK
6
CONTINUOUS
10
7.06103
20
-4.6353
11
7.06125
21
-4.63571
0
LINE
8
BLACK
6
CONTINUOUS
10
7.06125
20
-4.63571
11
7.06138
21
-4.63615
0
LINE
8
BLACK
6
CONTINUOUS
10
7.06138
20
-4.63615
11
7.06142
21
-4.6365
0
LINE
8
BLACK
6
CONTINUOUS
10
7.06142
20
-4.6365
11
7.06142
21
-4.6446
0
LINE
8
BLACK
6
CONTINUOUS
10
7.06142
20
-4.6446
11
7.06138
21
-4.64495
0
LINE
8
BLACK
6
CONTINUOUS
10
7.06138
20
-4.64495
11
7.06125
21
-4.6454
0
LINE
8
BLACK
6
CONTINUOUS
10
7.06125
20
-4.6454
11
7.06103
21
-4.64581
0
LINE
8
BLACK
6
CONTINUOUS
10
7.06103
20
-4.64581
11
7.06073
21
-4.64617
0
LINE
8
BLACK
6
CONTINUOUS
10
7.06073
20
-4.64617
11
7.06037
21
-4.64646
0
LINE
8
BLACK
6
CONTINUOUS
10
7.06037
20
-4.64646
11
7.05996
21
-4.64668
0
LINE
8
BLACK
6
CONTINUOUS
10
7.05996
20
-4.64668
11
7.05952
21
-4.64682
0
LINE
8
BLACK
6
CONTINUOUS
10
7.05952
20
-4.64682
11
7.05906
21
-4.64686
0
LINE
8
BLACK
6
CONTINUOUS
10
7.05906
20
-4.64686
11
7.05859
21
-4.64682
0
LINE
8
BLACK
6
CONTINUOUS
10
7.05859
20
-4.64682
11
7.05815
21
-4.64668
0
LINE
8
BLACK
6
CONTINUOUS
10
7.05815
20
-4.64668
11
7.05774
21
-4.64646
0
LINE
8
BLACK
6
CONTINUOUS
10
7.05774
20
-4.64646
11
7.05738
21
-4.64617
0
LINE
8
BLACK
6
CONTINUOUS
10
7.05738
20
-4.64617
11
7.05708
21
-4.64581
0
LINE
8
BLACK
6
CONTINUOUS
10
7.05708
20
-4.64581
11
7.05686
21
-4.6454
0
LINE
8
BLACK
6
CONTINUOUS
10
7.05686
20
-4.6454
11
7.05673
21
-4.64495
0
LINE
8
BLACK
6
CONTINUOUS
10
7.05673
20
-4.64495
11
7.05669
21
-4.6446
0
LINE
8
BLACK
6
CONTINUOUS
10
7.05669
20
-4.6446
11
7.05669
21
-4.6365
0
LINE
8
BLACK
6
CONTINUOUS
10
7.05669
20
-4.6365
11
7.05673
21
-4.63615
0
LINE
8
BLACK
6
CONTINUOUS
10
7.05673
20
-4.63615
11
7.05686
21
-4.63571
0
LINE
8
BLACK
6
CONTINUOUS
10
7.05686
20
-4.63571
11
7.05708
21
-4.6353
0
LINE
8
BLACK
6
CONTINUOUS
10
7.05708
20
-4.6353
11
7.05738
21
-4.63494
0
LINE
8
BLACK
6
CONTINUOUS
10
7.05738
20
-4.63494
11
7.05774
21
-4.63464
0
LINE
8
BLACK
6
CONTINUOUS
10
7.05774
20
-4.63464
11
7.05815
21
-4.63442
0
LINE
8
BLACK
6
CONTINUOUS
10
7.05815
20
-4.63442
11
7.05859
21
-4.63429
0
LINE
8
BLACK
6
CONTINUOUS
10
7.05859
20
-4.63429
11
7.05906
21
-4.63424
0
LINE
8
BLACK
6
CONTINUOUS
10
7.05906
20
-4.63424
11
7.05952
21
-4.63429
0
LINE
8
BLACK
6
CONTINUOUS
10
7.01818
20
-4.56145
11
7.01862
21
-4.56159
0
LINE
8
BLACK
6
CONTINUOUS
10
7.01862
20
-4.56159
11
7.01904
21
-4.56181
0
LINE
8
BLACK
6
CONTINUOUS
10
7.01904
20
-4.56181
11
7.01939
21
-4.5621
0
LINE
8
BLACK
6
CONTINUOUS
10
7.01939
20
-4.5621
11
7.01969
21
-4.56246
0
LINE
8
BLACK
6
CONTINUOUS
10
7.01969
20
-4.56246
11
7.01991
21
-4.56287
0
LINE
8
BLACK
6
CONTINUOUS
10
7.01991
20
-4.56287
11
7.02004
21
-4.56332
0
LINE
8
BLACK
6
CONTINUOUS
10
7.02004
20
-4.56332
11
7.02009
21
-4.56378
0
LINE
8
BLACK
6
CONTINUOUS
10
7.02009
20
-4.56378
11
7.02004
21
-4.56424
0
LINE
8
BLACK
6
CONTINUOUS
10
7.02004
20
-4.56424
11
7.01991
21
-4.56469
0
LINE
8
BLACK
6
CONTINUOUS
10
7.01991
20
-4.56469
11
7.01969
21
-4.5651
0
LINE
8
BLACK
6
CONTINUOUS
10
7.01969
20
-4.5651
11
7.01939
21
-4.56546
0
LINE
8
BLACK
6
CONTINUOUS
10
7.01939
20
-4.56546
11
7.01904
21
-4.56575
0
LINE
8
BLACK
6
CONTINUOUS
10
7.01904
20
-4.56575
11
7.01862
21
-4.56597
0
LINE
8
BLACK
6
CONTINUOUS
10
7.01862
20
-4.56597
11
7.01818
21
-4.56611
0
LINE
8
BLACK
6
CONTINUOUS
10
7.01818
20
-4.56611
11
7.01783
21
-4.56614
0
LINE
8
BLACK
6
CONTINUOUS
10
7.01783
20
-4.56614
11
6.9865
21
-4.56614
0
LINE
8
BLACK
6
CONTINUOUS
10
6.9865
20
-4.56614
11
6.98615
21
-4.56611
0
LINE
8
BLACK
6
CONTINUOUS
10
6.98615
20
-4.56611
11
6.98571
21
-4.56597
0
LINE
8
BLACK
6
CONTINUOUS
10
6.98571
20
-4.56597
11
6.9853
21
-4.56575
0
LINE
8
BLACK
6
CONTINUOUS
10
6.9853
20
-4.56575
11
6.98494
21
-4.56546
0
LINE
8
BLACK
6
CONTINUOUS
10
6.98494
20
-4.56546
11
6.98464
21
-4.5651
0
LINE
8
BLACK
6
CONTINUOUS
10
6.98464
20
-4.5651
11
6.98442
21
-4.56469
0
LINE
8
BLACK
6
CONTINUOUS
10
6.98442
20
-4.56469
11
6.98429
21
-4.56424
0
LINE
8
BLACK
6
CONTINUOUS
10
6.98429
20
-4.56424
11
6.98424
21
-4.56378
0
LINE
8
BLACK
6
CONTINUOUS
10
6.98424
20
-4.56378
11
6.98429
21
-4.56332
0
LINE
8
BLACK
6
CONTINUOUS
10
6.98429
20
-4.56332
11
6.98442
21
-4.56287
0
LINE
8
BLACK
6
CONTINUOUS
10
6.98442
20
-4.56287
11
6.98464
21
-4.56246
0
LINE
8
BLACK
6
CONTINUOUS
10
6.98464
20
-4.56246
11
6.98494
21
-4.5621
0
LINE
8
BLACK
6
CONTINUOUS
10
6.98494
20
-4.5621
11
6.9853
21
-4.56181
0
LINE
8
BLACK
6
CONTINUOUS
10
6.9853
20
-4.56181
11
6.98571
21
-4.56159
0
LINE
8
BLACK
6
CONTINUOUS
10
6.98571
20
-4.56159
11
6.98615
21
-4.56145
0
LINE
8
BLACK
6
CONTINUOUS
10
6.98615
20
-4.56145
11
6.9865
21
-4.56142
0
LINE
8
BLACK
6
CONTINUOUS
10
6.9865
20
-4.56142
11
7.01783
21
-4.56142
0
LINE
8
BLACK
6
CONTINUOUS
10
7.01783
20
-4.56142
11
7.01818
21
-4.56145
0
LINE
8
BLACK
6
CONTINUOUS
10
7.70931
20
-4.12769
11
7.70976
21
-4.12783
0
LINE
8
BLACK
6
CONTINUOUS
10
7.70976
20
-4.12783
11
7.71017
21
-4.12805
0
LINE
8
BLACK
6
CONTINUOUS
10
7.71017
20
-4.12805
11
7.71053
21
-4.12834
0
LINE
8
BLACK
6
CONTINUOUS
10
7.71053
20
-4.12834
11
7.71082
21
-4.1287
0
LINE
8
BLACK
6
CONTINUOUS
10
7.71082
20
-4.1287
11
7.71104
21
-4.12911
0
LINE
8
BLACK
6
CONTINUOUS
10
7.71104
20
-4.12911
11
7.71118
21
-4.12956
0
LINE
8
BLACK
6
CONTINUOUS
10
7.71118
20
-4.12956
11
7.71122
21
-4.13002
0
LINE
8
BLACK
6
CONTINUOUS
10
7.71122
20
-4.13002
11
7.71118
21
-4.13048
0
LINE
8
BLACK
6
CONTINUOUS
10
7.71118
20
-4.13048
11
7.71104
21
-4.13093
0
LINE
8
BLACK
6
CONTINUOUS
10
7.71104
20
-4.13093
11
7.71082
21
-4.13134
0
LINE
8
BLACK
6
CONTINUOUS
10
7.71082
20
-4.13134
11
7.71053
21
-4.1317
0
LINE
8
BLACK
6
CONTINUOUS
10
7.71053
20
-4.1317
11
7.71017
21
-4.13199
0
LINE
8
BLACK
6
CONTINUOUS
10
7.71017
20
-4.13199
11
7.70976
21
-4.13221
0
LINE
8
BLACK
6
CONTINUOUS
10
7.70976
20
-4.13221
11
7.70931
21
-4.13235
0
LINE
8
BLACK
6
CONTINUOUS
10
7.70931
20
-4.13235
11
7.70896
21
-4.13238
0
LINE
8
BLACK
6
CONTINUOUS
10
7.70896
20
-4.13238
11
7.68867
21
-4.13238
0
LINE
8
BLACK
6
CONTINUOUS
10
7.68867
20
-4.13238
11
7.68833
21
-4.13235
0
LINE
8
BLACK
6
CONTINUOUS
10
7.68833
20
-4.13235
11
7.68788
21
-4.13221
0
LINE
8
BLACK
6
CONTINUOUS
10
7.68788
20
-4.13221
11
7.68747
21
-4.13199
0
LINE
8
BLACK
6
CONTINUOUS
10
7.68747
20
-4.13199
11
7.68711
21
-4.1317
0
LINE
8
BLACK
6
CONTINUOUS
10
7.68711
20
-4.1317
11
7.68682
21
-4.13134
0
LINE
8
BLACK
6
CONTINUOUS
10
7.68682
20
-4.13134
11
7.6866
21
-4.13093
0
LINE
8
BLACK
6
CONTINUOUS
10
7.6866
20
-4.13093
11
7.68646
21
-4.13048
0
LINE
8
BLACK
6
CONTINUOUS
10
7.68646
20
-4.13048
11
7.68642
21
-4.13002
0
LINE
8
BLACK
6
CONTINUOUS
10
7.68642
20
-4.13002
11
7.68646
21
-4.12956
0
LINE
8
BLACK
6
CONTINUOUS
10
7.68646
20
-4.12956
11
7.6866
21
-4.12911
0
LINE
8
BLACK
6
CONTINUOUS
10
7.6866
20
-4.12911
11
7.68682
21
-4.1287
0
LINE
8
BLACK
6
CONTINUOUS
10
7.68682
20
-4.1287
11
7.68711
21
-4.12834
0
LINE
8
BLACK
6
CONTINUOUS
10
7.68711
20
-4.12834
11
7.68747
21
-4.12805
0
LINE
8
BLACK
6
CONTINUOUS
10
7.68747
20
-4.12805
11
7.68788
21
-4.12783
0
LINE
8
BLACK
6
CONTINUOUS
10
7.68788
20
-4.12783
11
7.68833
21
-4.12769
0
LINE
8
BLACK
6
CONTINUOUS
10
7.68833
20
-4.12769
11
7.68867
21
-4.12766
0
LINE
8
BLACK
6
CONTINUOUS
10
7.68867
20
-4.12766
11
7.70896
21
-4.12766
0
LINE
8
BLACK
6
CONTINUOUS
10
7.70896
20
-4.12766
11
7.70931
21
-4.12769
0
LINE
8
BLACK
6
CONTINUOUS
10
7.70931
20
-4.08655
11
7.70976
21
-4.08669
0
LINE
8
BLACK
6
CONTINUOUS
10
7.70976
20
-4.08669
11
7.71017
21
-4.0869
0
LINE
8
BLACK
6
CONTINUOUS
10
7.71017
20
-4.0869
11
7.71053
21
-4.0872
0
LINE
8
BLACK
6
CONTINUOUS
10
7.71053
20
-4.0872
11
7.71082
21
-4.08756
0
LINE
8
BLACK
6
CONTINUOUS
10
7.71082
20
-4.08756
11
7.71104
21
-4.08797
0
LINE
8
BLACK
6
CONTINUOUS
10
7.71104
20
-4.08797
11
7.71118
21
-4.08841
0
LINE
8
BLACK
6
CONTINUOUS
10
7.71118
20
-4.08841
11
7.71122
21
-4.08888
0
LINE
8
BLACK
6
CONTINUOUS
10
7.71122
20
-4.08888
11
7.71118
21
-4.08934
0
LINE
8
BLACK
6
CONTINUOUS
10
7.71118
20
-4.08934
11
7.71104
21
-4.08979
0
LINE
8
BLACK
6
CONTINUOUS
10
7.71104
20
-4.08979
11
7.71082
21
-4.0902
0
LINE
8
BLACK
6
CONTINUOUS
10
7.71082
20
-4.0902
11
7.71053
21
-4.09056
0
LINE
8
BLACK
6
CONTINUOUS
10
7.71053
20
-4.09056
11
7.71017
21
-4.09085
0
LINE
8
BLACK
6
CONTINUOUS
10
7.71017
20
-4.09085
11
7.70976
21
-4.09107
0
LINE
8
BLACK
6
CONTINUOUS
10
7.70976
20
-4.09107
11
7.70931
21
-4.09121
0
LINE
8
BLACK
6
CONTINUOUS
10
7.70931
20
-4.09121
11
7.70896
21
-4.09124
0
LINE
8
BLACK
6
CONTINUOUS
10
7.70896
20
-4.09124
11
7.68867
21
-4.09124
0
LINE
8
BLACK
6
CONTINUOUS
10
7.68867
20
-4.09124
11
7.68833
21
-4.09121
0
LINE
8
BLACK
6
CONTINUOUS
10
7.68833
20
-4.09121
11
7.68788
21
-4.09107
0
LINE
8
BLACK
6
CONTINUOUS
10
7.68788
20
-4.09107
11
7.68747
21
-4.09085
0
LINE
8
BLACK
6
CONTINUOUS
10
7.68747
20
-4.09085
11
7.68711
21
-4.09056
0
LINE
8
BLACK
6
CONTINUOUS
10
7.68711
20
-4.09056
11
7.68682
21
-4.0902
0
LINE
8
BLACK
6
CONTINUOUS
10
7.68682
20
-4.0902
11
7.6866
21
-4.08979
0
LINE
8
BLACK
6
CONTINUOUS
10
7.6866
20
-4.08979
11
7.68646
21
-4.08934
0
LINE
8
BLACK
6
CONTINUOUS
10
7.68646
20
-4.08934
11
7.68642
21
-4.08888
0
LINE
8
BLACK
6
CONTINUOUS
10
7.68642
20
-4.08888
11
7.68646
21
-4.08841
0
LINE
8
BLACK
6
CONTINUOUS
10
7.68646
20
-4.08841
11
7.6866
21
-4.08797
0
LINE
8
BLACK
6
CONTINUOUS
10
7.6866
20
-4.08797
11
7.68682
21
-4.08756
0
LINE
8
BLACK
6
CONTINUOUS
10
7.68682
20
-4.08756
11
7.68711
21
-4.0872
0
LINE
8
BLACK
6
CONTINUOUS
10
7.68711
20
-4.0872
11
7.68747
21
-4.0869
0
LINE
8
BLACK
6
CONTINUOUS
10
7.68747
20
-4.0869
11
7.68788
21
-4.08669
0
LINE
8
BLACK
6
CONTINUOUS
10
7.68788
20
-4.08669
11
7.68833
21
-4.08655
0
LINE
8
BLACK
6
CONTINUOUS
10
7.68833
20
-4.08655
11
7.68867
21
-4.08652
0
LINE
8
BLACK
6
CONTINUOUS
10
7.68867
20
-4.08652
11
7.70896
21
-4.08652
0
LINE
8
BLACK
6
CONTINUOUS
10
7.70896
20
-4.08652
11
7.70931
21
-4.08655
0
LINE
8
BLACK
6
CONTINUOUS
10
7.8359
20
-3.99452
11
7.83634
21
-3.99466
0
LINE
8
BLACK
6
CONTINUOUS
10
7.83634
20
-3.99466
11
7.83675
21
-3.99488
0
LINE
8
BLACK
6
CONTINUOUS
10
7.83675
20
-3.99488
11
7.83711
21
-3.99517
0
LINE
8
BLACK
6
CONTINUOUS
10
7.83711
20
-3.99517
11
7.83741
21
-3.99553
0
LINE
8
BLACK
6
CONTINUOUS
10
7.83741
20
-3.99553
11
7.83763
21
-3.99594
0
LINE
8
BLACK
6
CONTINUOUS
10
7.83763
20
-3.99594
11
7.83776
21
-3.99639
0
LINE
8
BLACK
6
CONTINUOUS
10
7.83776
20
-3.99639
11
7.8378
21
-3.99673
0
LINE
8
BLACK
6
CONTINUOUS
10
7.8378
20
-3.99673
11
7.8378
21
-4.07559
0
LINE
8
BLACK
6
CONTINUOUS
10
7.8378
20
-4.07559
11
7.90287
21
-4.07559
0
LINE
8
BLACK
6
CONTINUOUS
10
7.90287
20
-4.07559
11
7.90322
21
-4.07562
0
LINE
8
BLACK
6
CONTINUOUS
10
7.90322
20
-4.07562
11
7.90366
21
-4.07576
0
LINE
8
BLACK
6
CONTINUOUS
10
7.90366
20
-4.07576
11
7.90407
21
-4.07598
0
LINE
8
BLACK
6
CONTINUOUS
10
7.90407
20
-4.07598
11
7.90443
21
-4.07627
0
LINE
8
BLACK
6
CONTINUOUS
10
7.90443
20
-4.07627
11
7.90473
21
-4.07663
0
LINE
8
BLACK
6
CONTINUOUS
10
7.90473
20
-4.07663
11
7.90495
21
-4.07704
0
LINE
8
BLACK
6
CONTINUOUS
10
7.90495
20
-4.07704
11
7.90508
21
-4.07749
0
LINE
8
BLACK
6
CONTINUOUS
10
7.90508
20
-4.07749
11
7.90513
21
-4.07795
0
LINE
8
BLACK
6
CONTINUOUS
10
7.90513
20
-4.07795
11
7.90508
21
-4.07842
0
LINE
8
BLACK
6
CONTINUOUS
10
7.90508
20
-4.07842
11
7.90495
21
-4.07886
0
LINE
8
BLACK
6
CONTINUOUS
10
7.90495
20
-4.07886
11
7.90473
21
-4.07927
0
LINE
8
BLACK
6
CONTINUOUS
10
7.90473
20
-4.07927
11
7.90443
21
-4.07963
0
LINE
8
BLACK
6
CONTINUOUS
10
7.90443
20
-4.07963
11
7.90407
21
-4.07993
0
LINE
8
BLACK
6
CONTINUOUS
10
7.90407
20
-4.07993
11
7.90366
21
-4.08015
0
LINE
8
BLACK
6
CONTINUOUS
10
7.90366
20
-4.08015
11
7.90322
21
-4.08028
0
LINE
8
BLACK
6
CONTINUOUS
10
7.90322
20
-4.08028
11
7.90287
21
-4.08031
0
LINE
8
BLACK
6
CONTINUOUS
10
7.90287
20
-4.08031
11
7.83555
21
-4.08031
0
LINE
8
BLACK
6
CONTINUOUS
10
7.83555
20
-4.08031
11
7.83543
21
-4.08033
0
LINE
8
BLACK
6
CONTINUOUS
10
7.83543
20
-4.08033
11
7.83497
21
-4.08028
0
LINE
8
BLACK
6
CONTINUOUS
10
7.83497
20
-4.08028
11
7.83452
21
-4.08015
0
LINE
8
BLACK
6
CONTINUOUS
10
7.83452
20
-4.08015
11
7.83411
21
-4.07993
0
LINE
8
BLACK
6
CONTINUOUS
10
7.83411
20
-4.07993
11
7.83375
21
-4.07963
0
LINE
8
BLACK
6
CONTINUOUS
10
7.83375
20
-4.07963
11
7.83346
21
-4.07927
0
LINE
8
BLACK
6
CONTINUOUS
10
7.83346
20
-4.07927
11
7.83324
21
-4.07886
0
LINE
8
BLACK
6
CONTINUOUS
10
7.83324
20
-4.07886
11
7.83311
21
-4.07842
0
LINE
8
BLACK
6
CONTINUOUS
10
7.83311
20
-4.07842
11
7.83306
21
-4.07795
0
LINE
8
BLACK
6
CONTINUOUS
10
7.83306
20
-4.07795
11
7.83307
21
-4.07784
0
LINE
8
BLACK
6
CONTINUOUS
10
7.83307
20
-4.07784
11
7.83307
21
-3.99673
0
LINE
8
BLACK
6
CONTINUOUS
10
7.83307
20
-3.99673
11
7.83311
21
-3.99639
0
LINE
8
BLACK
6
CONTINUOUS
10
7.83311
20
-3.99639
11
7.83324
21
-3.99594
0
LINE
8
BLACK
6
CONTINUOUS
10
7.83324
20
-3.99594
11
7.83346
21
-3.99553
0
LINE
8
BLACK
6
CONTINUOUS
10
7.83346
20
-3.99553
11
7.83375
21
-3.99517
0
LINE
8
BLACK
6
CONTINUOUS
10
7.83375
20
-3.99517
11
7.83411
21
-3.99488
0
LINE
8
BLACK
6
CONTINUOUS
10
7.83411
20
-3.99488
11
7.83452
21
-3.99466
0
LINE
8
BLACK
6
CONTINUOUS
10
7.83452
20
-3.99466
11
7.83497
21
-3.99452
0
LINE
8
BLACK
6
CONTINUOUS
10
7.83497
20
-3.99452
11
7.83543
21
-3.99448
0
LINE
8
BLACK
6
CONTINUOUS
10
7.83543
20
-3.99448
11
7.8359
21
-3.99452
0
LINE
8
BLACK
6
CONTINUOUS
10
8.06468
20
-3.77165
11
8.06468
21
-3.77165
0
LINE
8
BLACK
6
CONTINUOUS
10
8.06468
20
-3.77165
11
8.06503
21
-3.77169
0
LINE
8
BLACK
6
CONTINUOUS
10
8.06503
20
-3.77169
11
8.06548
21
-3.77182
0
LINE
8
BLACK
6
CONTINUOUS
10
8.06548
20
-3.77182
11
8.06589
21
-3.77204
0
LINE
8
BLACK
6
CONTINUOUS
10
8.06589
20
-3.77204
11
8.06625
21
-3.77234
0
LINE
8
BLACK
6
CONTINUOUS
10
8.06625
20
-3.77234
11
8.06654
21
-3.7727
0
LINE
8
BLACK
6
CONTINUOUS
10
8.06654
20
-3.7727
11
8.06676
21
-3.77311
0
LINE
8
BLACK
6
CONTINUOUS
10
8.06676
20
-3.77311
11
8.06689
21
-3.77355
0
LINE
8
BLACK
6
CONTINUOUS
10
8.06689
20
-3.77355
11
8.06694
21
-3.77402
0
LINE
8
BLACK
6
CONTINUOUS
10
8.06694
20
-3.77402
11
8.06693
21
-3.77413
0
LINE
8
BLACK
6
CONTINUOUS
10
8.06693
20
-3.77413
11
8.06693
21
-4.07784
0
LINE
8
BLACK
6
CONTINUOUS
10
8.06693
20
-4.07784
11
8.06694
21
-4.07795
0
LINE
8
BLACK
6
CONTINUOUS
10
8.06694
20
-4.07795
11
8.06693
21
-4.07807
0
LINE
8
BLACK
6
CONTINUOUS
10
8.06693
20
-4.07807
11
8.06693
21
-4.07807
0
LINE
8
BLACK
6
CONTINUOUS
10
8.06693
20
-4.07807
11
8.06689
21
-4.07842
0
LINE
8
BLACK
6
CONTINUOUS
10
8.06689
20
-4.07842
11
8.06676
21
-4.07886
0
LINE
8
BLACK
6
CONTINUOUS
10
8.06676
20
-4.07886
11
8.06654
21
-4.07927
0
LINE
8
BLACK
6
CONTINUOUS
10
8.06654
20
-4.07927
11
8.06625
21
-4.07963
0
LINE
8
BLACK
6
CONTINUOUS
10
8.06625
20
-4.07963
11
8.06589
21
-4.07993
0
LINE
8
BLACK
6
CONTINUOUS
10
8.06589
20
-4.07993
11
8.06548
21
-4.08015
0
LINE
8
BLACK
6
CONTINUOUS
10
8.06548
20
-4.08015
11
8.06503
21
-4.08028
0
LINE
8
BLACK
6
CONTINUOUS
10
8.06503
20
-4.08028
11
8.06457
21
-4.08033
0
LINE
8
BLACK
6
CONTINUOUS
10
8.06457
20
-4.08033
11
8.06445
21
-4.08031
0
LINE
8
BLACK
6
CONTINUOUS
10
8.06445
20
-4.08031
11
8.00107
21
-4.08031
0
LINE
8
BLACK
6
CONTINUOUS
10
8.00107
20
-4.08031
11
8.00072
21
-4.08028
0
LINE
8
BLACK
6
CONTINUOUS
10
8.00072
20
-4.08028
11
8.00027
21
-4.08015
0
LINE
8
BLACK
6
CONTINUOUS
10
8.00027
20
-4.08015
11
7.99986
21
-4.07993
0
LINE
8
BLACK
6
CONTINUOUS
10
7.99986
20
-4.07993
11
7.9995
21
-4.07963
0
LINE
8
BLACK
6
CONTINUOUS
10
7.9995
20
-4.07963
11
7.99921
21
-4.07927
0
LINE
8
BLACK
6
CONTINUOUS
10
7.99921
20
-4.07927
11
7.99899
21
-4.07886
0
LINE
8
BLACK
6
CONTINUOUS
10
7.99899
20
-4.07886
11
7.99885
21
-4.07842
0
LINE
8
BLACK
6
CONTINUOUS
10
7.99885
20
-4.07842
11
7.99881
21
-4.07795
0
LINE
8
BLACK
6
CONTINUOUS
10
7.99881
20
-4.07795
11
7.99885
21
-4.07749
0
LINE
8
BLACK
6
CONTINUOUS
10
7.99885
20
-4.07749
11
7.99899
21
-4.07704
0
LINE
8
BLACK
6
CONTINUOUS
10
7.99899
20
-4.07704
11
7.99921
21
-4.07663
0
LINE
8
BLACK
6
CONTINUOUS
10
7.99921
20
-4.07663
11
7.9995
21
-4.07627
0
LINE
8
BLACK
6
CONTINUOUS
10
7.9995
20
-4.07627
11
7.99986
21
-4.07598
0
LINE
8
BLACK
6
CONTINUOUS
10
7.99986
20
-4.07598
11
8.00027
21
-4.07576
0
LINE
8
BLACK
6
CONTINUOUS
10
8.00027
20
-4.07576
11
8.00072
21
-4.07562
0
LINE
8
BLACK
6
CONTINUOUS
10
8.00072
20
-4.07562
11
8.00107
21
-4.07559
0
LINE
8
BLACK
6
CONTINUOUS
10
8.00107
20
-4.07559
11
8.0622
21
-4.07559
0
LINE
8
BLACK
6
CONTINUOUS
10
8.0622
20
-4.07559
11
8.0622
21
-3.77638
0
LINE
8
BLACK
6
CONTINUOUS
10
8.0622
20
-3.77638
11
8.00107
21
-3.77638
0
LINE
8
BLACK
6
CONTINUOUS
10
8.00107
20
-3.77638
11
8.00072
21
-3.77634
0
LINE
8
BLACK
6
CONTINUOUS
10
8.00072
20
-3.77634
11
8.00027
21
-3.77621
0
LINE
8
BLACK
6
CONTINUOUS
10
8.00027
20
-3.77621
11
7.99986
21
-3.77599
0
LINE
8
BLACK
6
CONTINUOUS
10
7.99986
20
-3.77599
11
7.9995
21
-3.77569
0
LINE
8
BLACK
6
CONTINUOUS
10
7.9995
20
-3.77569
11
7.99921
21
-3.77533
0
LINE
8
BLACK
6
CONTINUOUS
10
7.99921
20
-3.77533
11
7.99899
21
-3.77492
0
LINE
8
BLACK
6
CONTINUOUS
10
7.99899
20
-3.77492
11
7.99885
21
-3.77448
0
LINE
8
BLACK
6
CONTINUOUS
10
7.99885
20
-3.77448
11
7.99881
21
-3.77402
0
LINE
8
BLACK
6
CONTINUOUS
10
7.99881
20
-3.77402
11
7.99885
21
-3.77355
0
LINE
8
BLACK
6
CONTINUOUS
10
7.99885
20
-3.77355
11
7.99899
21
-3.77311
0
LINE
8
BLACK
6
CONTINUOUS
10
7.99899
20
-3.77311
11
7.99921
21
-3.7727
0
LINE
8
BLACK
6
CONTINUOUS
10
7.99921
20
-3.7727
11
7.9995
21
-3.77234
0
LINE
8
BLACK
6
CONTINUOUS
10
7.9995
20
-3.77234
11
7.99986
21
-3.77204
0
LINE
8
BLACK
6
CONTINUOUS
10
7.99986
20
-3.77204
11
8.00027
21
-3.77182
0
LINE
8
BLACK
6
CONTINUOUS
10
8.00027
20
-3.77182
11
8.00072
21
-3.77169
0
LINE
8
BLACK
6
CONTINUOUS
10
8.00072
20
-3.77169
11
8.00107
21
-3.77165
0
LINE
8
BLACK
6
CONTINUOUS
10
8.00107
20
-3.77165
11
8.06445
21
-3.77165
0
LINE
8
BLACK
6
CONTINUOUS
10
8.06445
20
-3.77165
11
8.06457
21
-3.77164
0
LINE
8
BLACK
6
CONTINUOUS
10
8.06457
20
-3.77164
11
8.06468
21
-3.77165
0
LINE
8
BLACK
6
CONTINUOUS
10
6.9744
20
-3.69038
11
6.97477
21
-3.6905
0
LINE
8
BLACK
6
CONTINUOUS
10
6.97477
20
-3.6905
11
6.97511
21
-3.69068
0
LINE
8
BLACK
6
CONTINUOUS
10
6.97511
20
-3.69068
11
6.97541
21
-3.69092
0
LINE
8
BLACK
6
CONTINUOUS
10
6.97541
20
-3.69092
11
6.97566
21
-3.69122
0
LINE
8
BLACK
6
CONTINUOUS
10
6.97566
20
-3.69122
11
6.97584
21
-3.69157
0
LINE
8
BLACK
6
CONTINUOUS
10
6.97584
20
-3.69157
11
6.97596
21
-3.69194
0
LINE
8
BLACK
6
CONTINUOUS
10
6.97596
20
-3.69194
11
6.97599
21
-3.69232
0
LINE
8
BLACK
6
CONTINUOUS
10
6.97599
20
-3.69232
11
6.97596
21
-3.69271
0
LINE
8
BLACK
6
CONTINUOUS
10
6.97596
20
-3.69271
11
6.97584
21
-3.69308
0
LINE
8
BLACK
6
CONTINUOUS
10
6.97584
20
-3.69308
11
6.97566
21
-3.69342
0
LINE
8
BLACK
6
CONTINUOUS
10
6.97566
20
-3.69342
11
6.97541
21
-3.69372
0
LINE
8
BLACK
6
CONTINUOUS
10
6.97541
20
-3.69372
11
6.97511
21
-3.69397
0
LINE
8
BLACK
6
CONTINUOUS
10
6.97511
20
-3.69397
11
6.97477
21
-3.69415
0
LINE
8
BLACK
6
CONTINUOUS
10
6.97477
20
-3.69415
11
6.9744
21
-3.69426
0
LINE
8
BLACK
6
CONTINUOUS
10
6.9744
20
-3.69426
11
6.97411
21
-3.69429
0
LINE
8
BLACK
6
CONTINUOUS
10
6.97411
20
-3.69429
11
6.93858
21
-3.69429
0
LINE
8
BLACK
6
CONTINUOUS
10
6.93858
20
-3.69429
11
6.93858
21
-4.02224
0
LINE
8
BLACK
6
CONTINUOUS
10
6.93858
20
-4.02224
11
6.97411
21
-4.02224
0
LINE
8
BLACK
6
CONTINUOUS
10
6.97411
20
-4.02224
11
6.9744
21
-4.02227
0
LINE
8
BLACK
6
CONTINUOUS
10
6.9744
20
-4.02227
11
6.97477
21
-4.02239
0
LINE
8
BLACK
6
CONTINUOUS
10
6.97477
20
-4.02239
11
6.97511
21
-4.02257
0
LINE
8
BLACK
6
CONTINUOUS
10
6.97511
20
-4.02257
11
6.97541
21
-4.02281
0
LINE
8
BLACK
6
CONTINUOUS
10
6.97541
20
-4.02281
11
6.97566
21
-4.02311
0
LINE
8
BLACK
6
CONTINUOUS
10
6.97566
20
-4.02311
11
6.97584
21
-4.02346
0
LINE
8
BLACK
6
CONTINUOUS
10
6.97584
20
-4.02346
11
6.97596
21
-4.02383
0
LINE
8
BLACK
6
CONTINUOUS
10
6.97596
20
-4.02383
11
6.97599
21
-4.02421
0
LINE
8
BLACK
6
CONTINUOUS
10
6.97599
20
-4.02421
11
6.97596
21
-4.0246
0
LINE
8
BLACK
6
CONTINUOUS
10
6.97596
20
-4.0246
11
6.97584
21
-4.02497
0
LINE
8
BLACK
6
CONTINUOUS
10
6.97584
20
-4.02497
11
6.97566
21
-4.02531
0
LINE
8
BLACK
6
CONTINUOUS
10
6.97566
20
-4.02531
11
6.97541
21
-4.02561
0
LINE
8
BLACK
6
CONTINUOUS
10
6.97541
20
-4.02561
11
6.97511
21
-4.02586
0
LINE
8
BLACK
6
CONTINUOUS
10
6.97511
20
-4.02586
11
6.97477
21
-4.02604
0
LINE
8
BLACK
6
CONTINUOUS
10
6.97477
20
-4.02604
11
6.9744
21
-4.02615
0
LINE
8
BLACK
6
CONTINUOUS
10
6.9744
20
-4.02615
11
6.97411
21
-4.02618
0
LINE
8
BLACK
6
CONTINUOUS
10
6.97411
20
-4.02618
11
6.93671
21
-4.02618
0
LINE
8
BLACK
6
CONTINUOUS
10
6.93671
20
-4.02618
11
6.93661
21
-4.02619
0
LINE
8
BLACK
6
CONTINUOUS
10
6.93661
20
-4.02619
11
6.93623
21
-4.02615
0
LINE
8
BLACK
6
CONTINUOUS
10
6.93623
20
-4.02615
11
6.93586
21
-4.02604
0
LINE
8
BLACK
6
CONTINUOUS
10
6.93586
20
-4.02604
11
6.93552
21
-4.02586
0
LINE
8
BLACK
6
CONTINUOUS
10
6.93552
20
-4.02586
11
6.93522
21
-4.02561
0
LINE
8
BLACK
6
CONTINUOUS
10
6.93522
20
-4.02561
11
6.93497
21
-4.02531
0
LINE
8
BLACK
6
CONTINUOUS
10
6.93497
20
-4.02531
11
6.93479
21
-4.02497
0
LINE
8
BLACK
6
CONTINUOUS
10
6.93479
20
-4.02497
11
6.93467
21
-4.0246
0
LINE
8
BLACK
6
CONTINUOUS
10
6.93467
20
-4.0246
11
6.93464
21
-4.02421
0
LINE
8
BLACK
6
CONTINUOUS
10
6.93464
20
-4.02421
11
6.93465
21
-4.02412
0
LINE
8
BLACK
6
CONTINUOUS
10
6.93465
20
-4.02412
11
6.93465
21
-3.69242
0
LINE
8
BLACK
6
CONTINUOUS
10
6.93465
20
-3.69242
11
6.93464
21
-3.69232
0
LINE
8
BLACK
6
CONTINUOUS
10
6.93464
20
-3.69232
11
6.93467
21
-3.69194
0
LINE
8
BLACK
6
CONTINUOUS
10
6.93467
20
-3.69194
11
6.93479
21
-3.69157
0
LINE
8
BLACK
6
CONTINUOUS
10
6.93479
20
-3.69157
11
6.93497
21
-3.69122
0
LINE
8
BLACK
6
CONTINUOUS
10
6.93497
20
-3.69122
11
6.93522
21
-3.69092
0
LINE
8
BLACK
6
CONTINUOUS
10
6.93522
20
-3.69092
11
6.93552
21
-3.69068
0
LINE
8
BLACK
6
CONTINUOUS
10
6.93552
20
-3.69068
11
6.93586
21
-3.6905
0
LINE
8
BLACK
6
CONTINUOUS
10
6.93586
20
-3.6905
11
6.93623
21
-3.69038
0
LINE
8
BLACK
6
CONTINUOUS
10
6.93623
20
-3.69038
11
6.93652
21
-3.69035
0
LINE
8
BLACK
6
CONTINUOUS
10
6.93652
20
-3.69035
11
6.93661
21
-3.69034
0
LINE
8
BLACK
6
CONTINUOUS
10
6.93661
20
-3.69034
11
6.93671
21
-3.69035
0
LINE
8
BLACK
6
CONTINUOUS
10
6.93671
20
-3.69035
11
6.97411
21
-3.69035
0
LINE
8
BLACK
6
CONTINUOUS
10
6.97411
20
-3.69035
11
6.9744
21
-3.69038
0
LINE
8
BLACK
6
CONTINUOUS
10
7.73569
20
-4.0147
11
7.73613
21
-4.01483
0
LINE
8
BLACK
6
CONTINUOUS
10
7.73613
20
-4.01483
11
7.73654
21
-4.01505
0
LINE
8
BLACK
6
CONTINUOUS
10
7.73654
20
-4.01505
11
7.7369
21
-4.01535
0
LINE
8
BLACK
6
CONTINUOUS
10
7.7369
20
-4.01535
11
7.7372
21
-4.01571
0
LINE
8
BLACK
6
CONTINUOUS
10
7.7372
20
-4.01571
11
7.73742
21
-4.01612
0
LINE
8
BLACK
6
CONTINUOUS
10
7.73742
20
-4.01612
11
7.73755
21
-4.01656
0
LINE
8
BLACK
6
CONTINUOUS
10
7.73755
20
-4.01656
11
7.7376
21
-4.01703
0
LINE
8
BLACK
6
CONTINUOUS
10
7.7376
20
-4.01703
11
7.73755
21
-4.01749
0
LINE
8
BLACK
6
CONTINUOUS
10
7.73755
20
-4.01749
11
7.73742
21
-4.01794
0
LINE
8
BLACK
6
CONTINUOUS
10
7.73742
20
-4.01794
11
7.7372
21
-4.01835
0
LINE
8
BLACK
6
CONTINUOUS
10
7.7372
20
-4.01835
11
7.7369
21
-4.01871
0
LINE
8
BLACK
6
CONTINUOUS
10
7.7369
20
-4.01871
11
7.73654
21
-4.019
0
LINE
8
BLACK
6
CONTINUOUS
10
7.73654
20
-4.019
11
7.73613
21
-4.01922
0
LINE
8
BLACK
6
CONTINUOUS
10
7.73613
20
-4.01922
11
7.73569
21
-4.01936
0
LINE
8
BLACK
6
CONTINUOUS
10
7.73569
20
-4.01936
11
7.73534
21
-4.01939
0
LINE
8
BLACK
6
CONTINUOUS
10
7.73534
20
-4.01939
11
7.71505
21
-4.01939
0
LINE
8
BLACK
6
CONTINUOUS
10
7.71505
20
-4.01939
11
7.71471
21
-4.01936
0
LINE
8
BLACK
6
CONTINUOUS
10
7.71471
20
-4.01936
11
7.71426
21
-4.01922
0
LINE
8
BLACK
6
CONTINUOUS
10
7.71426
20
-4.01922
11
7.71385
21
-4.019
0
LINE
8
BLACK
6
CONTINUOUS
10
7.71385
20
-4.019
11
7.71349
21
-4.01871
0
LINE
8
BLACK
6
CONTINUOUS
10
7.71349
20
-4.01871
11
7.71319
21
-4.01835
0
LINE
8
BLACK
6
CONTINUOUS
10
7.71319
20
-4.01835
11
7.71298
21
-4.01794
0
LINE
8
BLACK
6
CONTINUOUS
10
7.71298
20
-4.01794
11
7.71284
21
-4.01749
0
LINE
8
BLACK
6
CONTINUOUS
10
7.71284
20
-4.01749
11
7.71279
21
-4.01703
0
LINE
8
BLACK
6
CONTINUOUS
10
7.71279
20
-4.01703
11
7.71284
21
-4.01656
0
LINE
8
BLACK
6
CONTINUOUS
10
7.71284
20
-4.01656
11
7.71298
21
-4.01612
0
LINE
8
BLACK
6
CONTINUOUS
10
7.71298
20
-4.01612
11
7.71319
21
-4.01571
0
LINE
8
BLACK
6
CONTINUOUS
10
7.71319
20
-4.01571
11
7.71349
21
-4.01535
0
LINE
8
BLACK
6
CONTINUOUS
10
7.71349
20
-4.01535
11
7.71385
21
-4.01505
0
LINE
8
BLACK
6
CONTINUOUS
10
7.71385
20
-4.01505
11
7.71426
21
-4.01483
0
LINE
8
BLACK
6
CONTINUOUS
10
7.71426
20
-4.01483
11
7.71471
21
-4.0147
0
LINE
8
BLACK
6
CONTINUOUS
10
7.71471
20
-4.0147
11
7.71505
21
-4.01467
0
LINE
8
BLACK
6
CONTINUOUS
10
7.71505
20
-4.01467
11
7.73534
21
-4.01467
0
LINE
8
BLACK
6
CONTINUOUS
10
7.73534
20
-4.01467
11
7.73569
21
-4.0147
0
LINE
8
BLACK
6
CONTINUOUS
10
7.73569
20
-3.97356
11
7.73613
21
-3.97369
0
LINE
8
BLACK
6
CONTINUOUS
10
7.73613
20
-3.97369
11
7.73654
21
-3.97391
0
LINE
8
BLACK
6
CONTINUOUS
10
7.73654
20
-3.97391
11
7.7369
21
-3.97421
0
LINE
8
BLACK
6
CONTINUOUS
10
7.7369
20
-3.97421
11
7.7372
21
-3.97457
0
LINE
8
BLACK
6
CONTINUOUS
10
7.7372
20
-3.97457
11
7.73742
21
-3.97498
0
LINE
8
BLACK
6
CONTINUOUS
10
7.73742
20
-3.97498
11
7.73755
21
-3.97542
0
LINE
8
BLACK
6
CONTINUOUS
10
7.73755
20
-3.97542
11
7.7376
21
-3.97589
0
LINE
8
BLACK
6
CONTINUOUS
10
7.7376
20
-3.97589
11
7.73755
21
-3.97635
0
LINE
8
BLACK
6
CONTINUOUS
10
7.73755
20
-3.97635
11
7.73742
21
-3.97679
0
LINE
8
BLACK
6
CONTINUOUS
10
7.73742
20
-3.97679
11
7.7372
21
-3.9772
0
LINE
8
BLACK
6
CONTINUOUS
10
7.7372
20
-3.9772
11
7.7369
21
-3.97756
0
LINE
8
BLACK
6
CONTINUOUS
10
7.7369
20
-3.97756
11
7.73654
21
-3.97786
0
LINE
8
BLACK
6
CONTINUOUS
10
7.73654
20
-3.97786
11
7.73613
21
-3.97808
0
LINE
8
BLACK
6
CONTINUOUS
10
7.73613
20
-3.97808
11
7.73569
21
-3.97821
0
LINE
8
BLACK
6
CONTINUOUS
10
7.73569
20
-3.97821
11
7.73534
21
-3.97825
0
LINE
8
BLACK
6
CONTINUOUS
10
7.73534
20
-3.97825
11
7.71505
21
-3.97825
0
LINE
8
BLACK
6
CONTINUOUS
10
7.71505
20
-3.97825
11
7.71471
21
-3.97821
0
LINE
8
BLACK
6
CONTINUOUS
10
7.71471
20
-3.97821
11
7.71426
21
-3.97808
0
LINE
8
BLACK
6
CONTINUOUS
10
7.71426
20
-3.97808
11
7.71385
21
-3.97786
0
LINE
8
BLACK
6
CONTINUOUS
10
7.71385
20
-3.97786
11
7.71349
21
-3.97756
0
LINE
8
BLACK
6
CONTINUOUS
10
7.71349
20
-3.97756
11
7.71319
21
-3.9772
0
LINE
8
BLACK
6
CONTINUOUS
10
7.71319
20
-3.9772
11
7.71298
21
-3.97679
0
LINE
8
BLACK
6
CONTINUOUS
10
7.71298
20
-3.97679
11
7.71284
21
-3.97635
0
LINE
8
BLACK
6
CONTINUOUS
10
7.71284
20
-3.97635
11
7.71279
21
-3.97589
0
LINE
8
BLACK
6
CONTINUOUS
10
7.71279
20
-3.97589
11
7.71284
21
-3.97542
0
LINE
8
BLACK
6
CONTINUOUS
10
7.71284
20
-3.97542
11
7.71298
21
-3.97498
0
LINE
8
BLACK
6
CONTINUOUS
10
7.71298
20
-3.97498
11
7.71319
21
-3.97457
0
LINE
8
BLACK
6
CONTINUOUS
10
7.71319
20
-3.97457
11
7.71349
21
-3.97421
0
LINE
8
BLACK
6
CONTINUOUS
10
7.71349
20
-3.97421
11
7.71385
21
-3.97391
0
LINE
8
BLACK
6
CONTINUOUS
10
7.71385
20
-3.97391
11
7.71426
21
-3.97369
0
LINE
8
BLACK
6
CONTINUOUS
10
7.71426
20
-3.97369
11
7.71471
21
-3.97356
0
LINE
8
BLACK
6
CONTINUOUS
10
7.71471
20
-3.97356
11
7.71505
21
-3.97352
0
LINE
8
BLACK
6
CONTINUOUS
10
7.71505
20
-3.97352
11
7.73534
21
-3.97352
0
LINE
8
BLACK
6
CONTINUOUS
10
7.73534
20
-3.97352
11
7.73569
21
-3.97356
0
LINE
8
BLACK
6
CONTINUOUS
10
7.73569
20
-3.95417
11
7.73613
21
-3.9543
0
LINE
8
BLACK
6
CONTINUOUS
10
7.73613
20
-3.9543
11
7.73654
21
-3.95452
0
LINE
8
BLACK
6
CONTINUOUS
10
7.73654
20
-3.95452
11
7.7369
21
-3.95482
0
LINE
8
BLACK
6
CONTINUOUS
10
7.7369
20
-3.95482
11
7.7372
21
-3.95518
0
LINE
8
BLACK
6
CONTINUOUS
10
7.7372
20
-3.95518
11
7.73742
21
-3.95559
0
LINE
8
BLACK
6
CONTINUOUS
10
7.73742
20
-3.95559
11
7.73755
21
-3.95603
0
LINE
8
BLACK
6
CONTINUOUS
10
7.73755
20
-3.95603
11
7.7376
21
-3.9565
0
LINE
8
BLACK
6
CONTINUOUS
10
7.7376
20
-3.9565
11
7.73755
21
-3.95696
0
LINE
8
BLACK
6
CONTINUOUS
10
7.73755
20
-3.95696
11
7.73742
21
-3.9574
0
LINE
8
BLACK
6
CONTINUOUS
10
7.73742
20
-3.9574
11
7.7372
21
-3.95781
0
LINE
8
BLACK
6
CONTINUOUS
10
7.7372
20
-3.95781
11
7.7369
21
-3.95817
0
LINE
8
BLACK
6
CONTINUOUS
10
7.7369
20
-3.95817
11
7.73654
21
-3.95847
0
LINE
8
BLACK
6
CONTINUOUS
10
7.73654
20
-3.95847
11
7.73613
21
-3.95869
0
LINE
8
BLACK
6
CONTINUOUS
10
7.73613
20
-3.95869
11
7.73569
21
-3.95882
0
LINE
8
BLACK
6
CONTINUOUS
10
7.73569
20
-3.95882
11
7.73534
21
-3.95886
0
LINE
8
BLACK
6
CONTINUOUS
10
7.73534
20
-3.95886
11
7.71505
21
-3.95886
0
LINE
8
BLACK
6
CONTINUOUS
10
7.71505
20
-3.95886
11
7.71471
21
-3.95882
0
LINE
8
BLACK
6
CONTINUOUS
10
7.71471
20
-3.95882
11
7.71426
21
-3.95869
0
LINE
8
BLACK
6
CONTINUOUS
10
7.71426
20
-3.95869
11
7.71385
21
-3.95847
0
LINE
8
BLACK
6
CONTINUOUS
10
7.71385
20
-3.95847
11
7.71349
21
-3.95817
0
LINE
8
BLACK
6
CONTINUOUS
10
7.71349
20
-3.95817
11
7.71319
21
-3.95781
0
LINE
8
BLACK
6
CONTINUOUS
10
7.71319
20
-3.95781
11
7.71298
21
-3.9574
0
LINE
8
BLACK
6
CONTINUOUS
10
7.71298
20
-3.9574
11
7.71284
21
-3.95696
0
LINE
8
BLACK
6
CONTINUOUS
10
7.71284
20
-3.95696
11
7.71279
21
-3.9565
0
LINE
8
BLACK
6
CONTINUOUS
10
7.71279
20
-3.9565
11
7.71284
21
-3.95603
0
LINE
8
BLACK
6
CONTINUOUS
10
7.71284
20
-3.95603
11
7.71298
21
-3.95559
0
LINE
8
BLACK
6
CONTINUOUS
10
7.71298
20
-3.95559
11
7.71319
21
-3.95518
0
LINE
8
BLACK
6
CONTINUOUS
10
7.71319
20
-3.95518
11
7.71349
21
-3.95482
0
LINE
8
BLACK
6
CONTINUOUS
10
7.71349
20
-3.95482
11
7.71385
21
-3.95452
0
LINE
8
BLACK
6
CONTINUOUS
10
7.71385
20
-3.95452
11
7.71426
21
-3.9543
0
LINE
8
BLACK
6
CONTINUOUS
10
7.71426
20
-3.9543
11
7.71471
21
-3.95417
0
LINE
8
BLACK
6
CONTINUOUS
10
7.71471
20
-3.95417
11
7.71505
21
-3.95413
0
LINE
8
BLACK
6
CONTINUOUS
10
7.71505
20
-3.95413
11
7.73534
21
-3.95413
0
LINE
8
BLACK
6
CONTINUOUS
10
7.73534
20
-3.95413
11
7.73569
21
-3.95417
0
LINE
8
BLACK
6
CONTINUOUS
10
7.56257
20
-3.91914
11
7.56301
21
-3.91927
0
LINE
8
BLACK
6
CONTINUOUS
10
7.56301
20
-3.91927
11
7.56342
21
-3.91949
0
LINE
8
BLACK
6
CONTINUOUS
10
7.56342
20
-3.91949
11
7.56378
21
-3.91979
0
LINE
8
BLACK
6
CONTINUOUS
10
7.56378
20
-3.91979
11
7.56408
21
-3.92015
0
LINE
8
BLACK
6
CONTINUOUS
10
7.56408
20
-3.92015
11
7.5643
21
-3.92056
0
LINE
8
BLACK
6
CONTINUOUS
10
7.5643
20
-3.92056
11
7.56443
21
-3.921
0
LINE
8
BLACK
6
CONTINUOUS
10
7.56443
20
-3.921
11
7.56447
21
-3.92135
0
LINE
8
BLACK
6
CONTINUOUS
10
7.56447
20
-3.92135
11
7.56447
21
-3.94164
0
LINE
8
BLACK
6
CONTINUOUS
10
7.56447
20
-3.94164
11
7.56443
21
-3.94199
0
LINE
8
BLACK
6
CONTINUOUS
10
7.56443
20
-3.94199
11
7.5643
21
-3.94243
0
LINE
8
BLACK
6
CONTINUOUS
10
7.5643
20
-3.94243
11
7.56408
21
-3.94284
0
LINE
8
BLACK
6
CONTINUOUS
10
7.56408
20
-3.94284
11
7.56378
21
-3.9432
0
LINE
8
BLACK
6
CONTINUOUS
10
7.56378
20
-3.9432
11
7.56342
21
-3.9435
0
LINE
8
BLACK
6
CONTINUOUS
10
7.56342
20
-3.9435
11
7.56301
21
-3.94372
0
LINE
8
BLACK
6
CONTINUOUS
10
7.56301
20
-3.94372
11
7.56257
21
-3.94385
0
LINE
8
BLACK
6
CONTINUOUS
10
7.56257
20
-3.94385
11
7.56211
21
-3.9439
0
LINE
8
BLACK
6
CONTINUOUS
10
7.56211
20
-3.9439
11
7.56164
21
-3.94385
0
LINE
8
BLACK
6
CONTINUOUS
10
7.56164
20
-3.94385
11
7.5612
21
-3.94372
0
LINE
8
BLACK
6
CONTINUOUS
10
7.5612
20
-3.94372
11
7.56079
21
-3.9435
0
LINE
8
BLACK
6
CONTINUOUS
10
7.56079
20
-3.9435
11
7.56043
21
-3.9432
0
LINE
8
BLACK
6
CONTINUOUS
10
7.56043
20
-3.9432
11
7.56013
21
-3.94284
0
LINE
8
BLACK
6
CONTINUOUS
10
7.56013
20
-3.94284
11
7.55991
21
-3.94243
0
LINE
8
BLACK
6
CONTINUOUS
10
7.55991
20
-3.94243
11
7.55978
21
-3.94199
0
LINE
8
BLACK
6
CONTINUOUS
10
7.55978
20
-3.94199
11
7.55974
21
-3.94164
0
LINE
8
BLACK
6
CONTINUOUS
10
7.55974
20
-3.94164
11
7.55974
21
-3.92135
0
LINE
8
BLACK
6
CONTINUOUS
10
7.55974
20
-3.92135
11
7.55978
21
-3.921
0
LINE
8
BLACK
6
CONTINUOUS
10
7.55978
20
-3.921
11
7.55991
21
-3.92056
0
LINE
8
BLACK
6
CONTINUOUS
10
7.55991
20
-3.92056
11
7.56013
21
-3.92015
0
LINE
8
BLACK
6
CONTINUOUS
10
7.56013
20
-3.92015
11
7.56043
21
-3.91979
0
LINE
8
BLACK
6
CONTINUOUS
10
7.56043
20
-3.91979
11
7.56079
21
-3.91949
0
LINE
8
BLACK
6
CONTINUOUS
10
7.56079
20
-3.91949
11
7.5612
21
-3.91927
0
LINE
8
BLACK
6
CONTINUOUS
10
7.5612
20
-3.91927
11
7.56164
21
-3.91914
0
LINE
8
BLACK
6
CONTINUOUS
10
7.56164
20
-3.91914
11
7.56211
21
-3.91909
0
LINE
8
BLACK
6
CONTINUOUS
10
7.56211
20
-3.91909
11
7.56257
21
-3.91914
0
LINE
8
BLACK
6
CONTINUOUS
10
7.60371
20
-3.91914
11
7.60416
21
-3.91927
0
LINE
8
BLACK
6
CONTINUOUS
10
7.60416
20
-3.91927
11
7.60457
21
-3.91949
0
LINE
8
BLACK
6
CONTINUOUS
10
7.60457
20
-3.91949
11
7.60493
21
-3.91979
0
LINE
8
BLACK
6
CONTINUOUS
10
7.60493
20
-3.91979
11
7.60522
21
-3.92015
0
LINE
8
BLACK
6
CONTINUOUS
10
7.60522
20
-3.92015
11
7.60544
21
-3.92056
0
LINE
8
BLACK
6
CONTINUOUS
10
7.60544
20
-3.92056
11
7.60558
21
-3.921
0
LINE
8
BLACK
6
CONTINUOUS
10
7.60558
20
-3.921
11
7.60561
21
-3.92135
0
LINE
8
BLACK
6
CONTINUOUS
10
7.60561
20
-3.92135
11
7.60561
21
-3.94164
0
LINE
8
BLACK
6
CONTINUOUS
10
7.60561
20
-3.94164
11
7.60558
21
-3.94199
0
LINE
8
BLACK
6
CONTINUOUS
10
7.60558
20
-3.94199
11
7.60544
21
-3.94243
0
LINE
8
BLACK
6
CONTINUOUS
10
7.60544
20
-3.94243
11
7.60522
21
-3.94284
0
LINE
8
BLACK
6
CONTINUOUS
10
7.60522
20
-3.94284
11
7.60493
21
-3.9432
0
LINE
8
BLACK
6
CONTINUOUS
10
7.60493
20
-3.9432
11
7.60457
21
-3.9435
0
LINE
8
BLACK
6
CONTINUOUS
10
7.60457
20
-3.9435
11
7.60416
21
-3.94372
0
LINE
8
BLACK
6
CONTINUOUS
10
7.60416
20
-3.94372
11
7.60371
21
-3.94385
0
LINE
8
BLACK
6
CONTINUOUS
10
7.60371
20
-3.94385
11
7.60325
21
-3.9439
0
LINE
8
BLACK
6
CONTINUOUS
10
7.60325
20
-3.9439
11
7.60278
21
-3.94385
0
LINE
8
BLACK
6
CONTINUOUS
10
7.60278
20
-3.94385
11
7.60234
21
-3.94372
0
LINE
8
BLACK
6
CONTINUOUS
10
7.60234
20
-3.94372
11
7.60193
21
-3.9435
0
LINE
8
BLACK
6
CONTINUOUS
10
7.60193
20
-3.9435
11
7.60157
21
-3.9432
0
LINE
8
BLACK
6
CONTINUOUS
10
7.60157
20
-3.9432
11
7.60127
21
-3.94284
0
LINE
8
BLACK
6
CONTINUOUS
10
7.60127
20
-3.94284
11
7.60106
21
-3.94243
0
LINE
8
BLACK
6
CONTINUOUS
10
7.60106
20
-3.94243
11
7.60092
21
-3.94199
0
LINE
8
BLACK
6
CONTINUOUS
10
7.60092
20
-3.94199
11
7.60089
21
-3.94164
0
LINE
8
BLACK
6
CONTINUOUS
10
7.60089
20
-3.94164
11
7.60089
21
-3.92135
0
LINE
8
BLACK
6
CONTINUOUS
10
7.60089
20
-3.92135
11
7.60092
21
-3.921
0
LINE
8
BLACK
6
CONTINUOUS
10
7.60092
20
-3.921
11
7.60106
21
-3.92056
0
LINE
8
BLACK
6
CONTINUOUS
10
7.60106
20
-3.92056
11
7.60127
21
-3.92015
0
LINE
8
BLACK
6
CONTINUOUS
10
7.60127
20
-3.92015
11
7.60157
21
-3.91979
0
LINE
8
BLACK
6
CONTINUOUS
10
7.60157
20
-3.91979
11
7.60193
21
-3.91949
0
LINE
8
BLACK
6
CONTINUOUS
10
7.60193
20
-3.91949
11
7.60234
21
-3.91927
0
LINE
8
BLACK
6
CONTINUOUS
10
7.60234
20
-3.91927
11
7.60278
21
-3.91914
0
LINE
8
BLACK
6
CONTINUOUS
10
7.60278
20
-3.91914
11
7.60325
21
-3.91909
0
LINE
8
BLACK
6
CONTINUOUS
10
7.60325
20
-3.91909
11
7.60371
21
-3.91914
0
LINE
8
BLACK
6
CONTINUOUS
10
7.73569
20
-3.91303
11
7.73613
21
-3.91316
0
LINE
8
BLACK
6
CONTINUOUS
10
7.73613
20
-3.91316
11
7.73654
21
-3.91338
0
LINE
8
BLACK
6
CONTINUOUS
10
7.73654
20
-3.91338
11
7.7369
21
-3.91368
0
LINE
8
BLACK
6
CONTINUOUS
10
7.7369
20
-3.91368
11
7.7372
21
-3.91404
0
LINE
8
BLACK
6
CONTINUOUS
10
7.7372
20
-3.91404
11
7.73742
21
-3.91445
0
LINE
8
BLACK
6
CONTINUOUS
10
7.73742
20
-3.91445
11
7.73755
21
-3.91489
0
LINE
8
BLACK
6
CONTINUOUS
10
7.73755
20
-3.91489
11
7.7376
21
-3.91535
0
LINE
8
BLACK
6
CONTINUOUS
10
7.7376
20
-3.91535
11
7.73755
21
-3.91582
0
LINE
8
BLACK
6
CONTINUOUS
10
7.73755
20
-3.91582
11
7.73742
21
-3.91626
0
LINE
8
BLACK
6
CONTINUOUS
10
7.73742
20
-3.91626
11
7.7372
21
-3.91667
0
LINE
8
BLACK
6
CONTINUOUS
10
7.7372
20
-3.91667
11
7.7369
21
-3.91703
0
LINE
8
BLACK
6
CONTINUOUS
10
7.7369
20
-3.91703
11
7.73654
21
-3.91733
0
LINE
8
BLACK
6
CONTINUOUS
10
7.73654
20
-3.91733
11
7.73613
21
-3.91755
0
LINE
8
BLACK
6
CONTINUOUS
10
7.73613
20
-3.91755
11
7.73569
21
-3.91768
0
LINE
8
BLACK
6
CONTINUOUS
10
7.73569
20
-3.91768
11
7.73534
21
-3.91772
0
LINE
8
BLACK
6
CONTINUOUS
10
7.73534
20
-3.91772
11
7.71505
21
-3.91772
0
LINE
8
BLACK
6
CONTINUOUS
10
7.71505
20
-3.91772
11
7.71471
21
-3.91768
0
LINE
8
BLACK
6
CONTINUOUS
10
7.71471
20
-3.91768
11
7.71426
21
-3.91755
0
LINE
8
BLACK
6
CONTINUOUS
10
7.71426
20
-3.91755
11
7.71385
21
-3.91733
0
LINE
8
BLACK
6
CONTINUOUS
10
7.71385
20
-3.91733
11
7.71349
21
-3.91703
0
LINE
8
BLACK
6
CONTINUOUS
10
7.71349
20
-3.91703
11
7.71319
21
-3.91667
0
LINE
8
BLACK
6
CONTINUOUS
10
7.71319
20
-3.91667
11
7.71298
21
-3.91626
0
LINE
8
BLACK
6
CONTINUOUS
10
7.71298
20
-3.91626
11
7.71284
21
-3.91582
0
LINE
8
BLACK
6
CONTINUOUS
10
7.71284
20
-3.91582
11
7.71279
21
-3.91535
0
LINE
8
BLACK
6
CONTINUOUS
10
7.71279
20
-3.91535
11
7.71284
21
-3.91489
0
LINE
8
BLACK
6
CONTINUOUS
10
7.71284
20
-3.91489
11
7.71298
21
-3.91445
0
LINE
8
BLACK
6
CONTINUOUS
10
7.71298
20
-3.91445
11
7.71319
21
-3.91404
0
LINE
8
BLACK
6
CONTINUOUS
10
7.71319
20
-3.91404
11
7.71349
21
-3.91368
0
LINE
8
BLACK
6
CONTINUOUS
10
7.71349
20
-3.91368
11
7.71385
21
-3.91338
0
LINE
8
BLACK
6
CONTINUOUS
10
7.71385
20
-3.91338
11
7.71426
21
-3.91316
0
LINE
8
BLACK
6
CONTINUOUS
10
7.71426
20
-3.91316
11
7.71471
21
-3.91303
0
LINE
8
BLACK
6
CONTINUOUS
10
7.71471
20
-3.91303
11
7.71505
21
-3.91299
0
LINE
8
BLACK
6
CONTINUOUS
10
7.71505
20
-3.91299
11
7.73534
21
-3.91299
0
LINE
8
BLACK
6
CONTINUOUS
10
7.73534
20
-3.91299
11
7.73569
21
-3.91303
0
LINE
8
BLACK
6
CONTINUOUS
10
7.76632
20
-3.88746
11
7.76707
21
-3.88768
0
LINE
8
BLACK
6
CONTINUOUS
10
7.76707
20
-3.88768
11
7.76775
21
-3.88805
0
LINE
8
BLACK
6
CONTINUOUS
10
7.76775
20
-3.88805
11
7.76835
21
-3.88854
0
LINE
8
BLACK
6
CONTINUOUS
10
7.76835
20
-3.88854
11
7.76884
21
-3.88914
0
LINE
8
BLACK
6
CONTINUOUS
10
7.76884
20
-3.88914
11
7.76921
21
-3.88982
0
LINE
8
BLACK
6
CONTINUOUS
10
7.76921
20
-3.88982
11
7.76943
21
-3.89057
0
LINE
8
BLACK
6
CONTINUOUS
10
7.76943
20
-3.89057
11
7.76951
21
-3.89134
0
LINE
8
BLACK
6
CONTINUOUS
10
7.76951
20
-3.89134
11
7.76943
21
-3.89211
0
LINE
8
BLACK
6
CONTINUOUS
10
7.76943
20
-3.89211
11
7.76921
21
-3.89285
0
LINE
8
BLACK
6
CONTINUOUS
10
7.76921
20
-3.89285
11
7.76884
21
-3.89354
0
LINE
8
BLACK
6
CONTINUOUS
10
7.76884
20
-3.89354
11
7.76835
21
-3.89414
0
LINE
8
BLACK
6
CONTINUOUS
10
7.76835
20
-3.89414
11
7.76775
21
-3.89463
0
LINE
8
BLACK
6
CONTINUOUS
10
7.76775
20
-3.89463
11
7.76707
21
-3.89499
0
LINE
8
BLACK
6
CONTINUOUS
10
7.76707
20
-3.89499
11
7.76632
21
-3.89522
0
LINE
8
BLACK
6
CONTINUOUS
10
7.76632
20
-3.89522
11
7.76574
21
-3.89528
0
LINE
8
BLACK
6
CONTINUOUS
10
7.76574
20
-3.89528
11
7.68465
21
-3.89528
0
LINE
8
BLACK
6
CONTINUOUS
10
7.68465
20
-3.89528
11
7.68407
21
-3.89522
0
LINE
8
BLACK
6
CONTINUOUS
10
7.68407
20
-3.89522
11
7.68333
21
-3.89499
0
LINE
8
BLACK
6
CONTINUOUS
10
7.68333
20
-3.89499
11
7.68264
21
-3.89463
0
LINE
8
BLACK
6
CONTINUOUS
10
7.68264
20
-3.89463
11
7.68205
21
-3.89414
0
LINE
8
BLACK
6
CONTINUOUS
10
7.68205
20
-3.89414
11
7.68155
21
-3.89354
0
LINE
8
BLACK
6
CONTINUOUS
10
7.68155
20
-3.89354
11
7.68119
21
-3.89285
0
LINE
8
BLACK
6
CONTINUOUS
10
7.68119
20
-3.89285
11
7.68096
21
-3.89211
0
LINE
8
BLACK
6
CONTINUOUS
10
7.68096
20
-3.89211
11
7.68089
21
-3.89134
0
LINE
8
BLACK
6
CONTINUOUS
10
7.68089
20
-3.89134
11
7.68096
21
-3.89057
0
LINE
8
BLACK
6
CONTINUOUS
10
7.68096
20
-3.89057
11
7.68119
21
-3.88982
0
LINE
8
BLACK
6
CONTINUOUS
10
7.68119
20
-3.88982
11
7.68155
21
-3.88914
0
LINE
8
BLACK
6
CONTINUOUS
10
7.68155
20
-3.88914
11
7.68205
21
-3.88854
0
LINE
8
BLACK
6
CONTINUOUS
10
7.68205
20
-3.88854
11
7.68264
21
-3.88805
0
LINE
8
BLACK
6
CONTINUOUS
10
7.68264
20
-3.88805
11
7.68333
21
-3.88768
0
LINE
8
BLACK
6
CONTINUOUS
10
7.68333
20
-3.88768
11
7.68407
21
-3.88746
0
LINE
8
BLACK
6
CONTINUOUS
10
7.68407
20
-3.88746
11
7.68465
21
-3.8874
0
LINE
8
BLACK
6
CONTINUOUS
10
7.68465
20
-3.8874
11
7.76574
21
-3.8874
0
LINE
8
BLACK
6
CONTINUOUS
10
7.76574
20
-3.8874
11
7.76632
21
-3.88746
0
LINE
8
BLACK
6
CONTINUOUS
10
7.83555
20
-3.77165
11
7.90287
21
-3.77165
0
LINE
8
BLACK
6
CONTINUOUS
10
7.90287
20
-3.77165
11
7.90322
21
-3.77169
0
LINE
8
BLACK
6
CONTINUOUS
10
7.90322
20
-3.77169
11
7.90366
21
-3.77182
0
LINE
8
BLACK
6
CONTINUOUS
10
7.90366
20
-3.77182
11
7.90407
21
-3.77204
0
LINE
8
BLACK
6
CONTINUOUS
10
7.90407
20
-3.77204
11
7.90443
21
-3.77234
0
LINE
8
BLACK
6
CONTINUOUS
10
7.90443
20
-3.77234
11
7.90473
21
-3.7727
0
LINE
8
BLACK
6
CONTINUOUS
10
7.90473
20
-3.7727
11
7.90495
21
-3.77311
0
LINE
8
BLACK
6
CONTINUOUS
10
7.90495
20
-3.77311
11
7.90508
21
-3.77355
0
LINE
8
BLACK
6
CONTINUOUS
10
7.90508
20
-3.77355
11
7.90513
21
-3.77402
0
LINE
8
BLACK
6
CONTINUOUS
10
7.90513
20
-3.77402
11
7.90508
21
-3.77448
0
LINE
8
BLACK
6
CONTINUOUS
10
7.90508
20
-3.77448
11
7.90495
21
-3.77492
0
LINE
8
BLACK
6
CONTINUOUS
10
7.90495
20
-3.77492
11
7.90473
21
-3.77533
0
LINE
8
BLACK
6
CONTINUOUS
10
7.90473
20
-3.77533
11
7.90443
21
-3.77569
0
LINE
8
BLACK
6
CONTINUOUS
10
7.90443
20
-3.77569
11
7.90407
21
-3.77599
0
LINE
8
BLACK
6
CONTINUOUS
10
7.90407
20
-3.77599
11
7.90366
21
-3.77621
0
LINE
8
BLACK
6
CONTINUOUS
10
7.90366
20
-3.77621
11
7.90322
21
-3.77634
0
LINE
8
BLACK
6
CONTINUOUS
10
7.90322
20
-3.77634
11
7.90287
21
-3.77638
0
LINE
8
BLACK
6
CONTINUOUS
10
7.90287
20
-3.77638
11
7.8378
21
-3.77638
0
LINE
8
BLACK
6
CONTINUOUS
10
7.8378
20
-3.77638
11
7.8378
21
-3.855
0
LINE
8
BLACK
6
CONTINUOUS
10
7.8378
20
-3.855
11
7.83781
21
-3.85512
0
LINE
8
BLACK
6
CONTINUOUS
10
7.83781
20
-3.85512
11
7.8378
21
-3.85523
0
LINE
8
BLACK
6
CONTINUOUS
10
7.8378
20
-3.85523
11
7.83776
21
-3.85558
0
LINE
8
BLACK
6
CONTINUOUS
10
7.83776
20
-3.85558
11
7.83763
21
-3.85603
0
LINE
8
BLACK
6
CONTINUOUS
10
7.83763
20
-3.85603
11
7.83741
21
-3.85644
0
LINE
8
BLACK
6
CONTINUOUS
10
7.83741
20
-3.85644
11
7.83711
21
-3.8568
0
LINE
8
BLACK
6
CONTINUOUS
10
7.83711
20
-3.8568
11
7.83675
21
-3.85709
0
LINE
8
BLACK
6
CONTINUOUS
10
7.83675
20
-3.85709
11
7.83634
21
-3.85731
0
LINE
8
BLACK
6
CONTINUOUS
10
7.83634
20
-3.85731
11
7.8359
21
-3.85745
0
LINE
8
BLACK
6
CONTINUOUS
10
7.8359
20
-3.85745
11
7.83543
21
-3.85749
0
LINE
8
BLACK
6
CONTINUOUS
10
7.83543
20
-3.85749
11
7.83532
21
-3.85748
0
LINE
8
BLACK
6
CONTINUOUS
10
7.83532
20
-3.85748
11
7.81209
21
-3.85748
0
LINE
8
BLACK
6
CONTINUOUS
10
7.81209
20
-3.85748
11
7.81174
21
-3.85745
0
LINE
8
BLACK
6
CONTINUOUS
10
7.81174
20
-3.85745
11
7.8113
21
-3.85731
0
LINE
8
BLACK
6
CONTINUOUS
10
7.8113
20
-3.85731
11
7.81089
21
-3.85709
0
LINE
8
BLACK
6
CONTINUOUS
10
7.81089
20
-3.85709
11
7.81053
21
-3.8568
0
LINE
8
BLACK
6
CONTINUOUS
10
7.81053
20
-3.8568
11
7.81023
21
-3.85644
0
LINE
8
BLACK
6
CONTINUOUS
10
7.81023
20
-3.85644
11
7.81001
21
-3.85603
0
LINE
8
BLACK
6
CONTINUOUS
10
7.81001
20
-3.85603
11
7.80988
21
-3.85558
0
LINE
8
BLACK
6
CONTINUOUS
10
7.80988
20
-3.85558
11
7.80983
21
-3.85512
0
LINE
8
BLACK
6
CONTINUOUS
10
7.80983
20
-3.85512
11
7.80988
21
-3.85466
0
LINE
8
BLACK
6
CONTINUOUS
10
7.80988
20
-3.85466
11
7.81001
21
-3.85421
0
LINE
8
BLACK
6
CONTINUOUS
10
7.81001
20
-3.85421
11
7.81023
21
-3.8538
0
LINE
8
BLACK
6
CONTINUOUS
10
7.81023
20
-3.8538
11
7.81053
21
-3.85344
0
LINE
8
BLACK
6
CONTINUOUS
10
7.81053
20
-3.85344
11
7.81089
21
-3.85314
0
LINE
8
BLACK
6
CONTINUOUS
10
7.81089
20
-3.85314
11
7.8113
21
-3.85293
0
LINE
8
BLACK
6
CONTINUOUS
10
7.8113
20
-3.85293
11
7.81174
21
-3.85279
0
LINE
8
BLACK
6
CONTINUOUS
10
7.81174
20
-3.85279
11
7.81209
21
-3.85276
0
LINE
8
BLACK
6
CONTINUOUS
10
7.81209
20
-3.85276
11
7.83307
21
-3.85276
0
LINE
8
BLACK
6
CONTINUOUS
10
7.83307
20
-3.85276
11
7.83307
21
-3.77413
0
LINE
8
BLACK
6
CONTINUOUS
10
7.83307
20
-3.77413
11
7.83306
21
-3.77402
0
LINE
8
BLACK
6
CONTINUOUS
10
7.83306
20
-3.77402
11
7.83311
21
-3.77355
0
LINE
8
BLACK
6
CONTINUOUS
10
7.83311
20
-3.77355
11
7.83324
21
-3.77311
0
LINE
8
BLACK
6
CONTINUOUS
10
7.83324
20
-3.77311
11
7.83346
21
-3.7727
0
LINE
8
BLACK
6
CONTINUOUS
10
7.83346
20
-3.7727
11
7.83375
21
-3.77234
0
LINE
8
BLACK
6
CONTINUOUS
10
7.83375
20
-3.77234
11
7.83411
21
-3.77204
0
LINE
8
BLACK
6
CONTINUOUS
10
7.83411
20
-3.77204
11
7.83452
21
-3.77182
0
LINE
8
BLACK
6
CONTINUOUS
10
7.83452
20
-3.77182
11
7.83497
21
-3.77169
0
LINE
8
BLACK
6
CONTINUOUS
10
7.83497
20
-3.77169
11
7.83532
21
-3.77165
0
LINE
8
BLACK
6
CONTINUOUS
10
7.83532
20
-3.77165
11
7.83543
21
-3.77164
0
LINE
8
BLACK
6
CONTINUOUS
10
7.83543
20
-3.77164
11
7.83555
21
-3.77165
0
LINE
8
BLACK
6
CONTINUOUS
10
7.78994
20
-3.83234
11
7.79069
21
-3.83257
0
LINE
8
BLACK
6
CONTINUOUS
10
7.79069
20
-3.83257
11
7.79137
21
-3.83293
0
LINE
8
BLACK
6
CONTINUOUS
10
7.79137
20
-3.83293
11
7.79197
21
-3.83342
0
LINE
8
BLACK
6
CONTINUOUS
10
7.79197
20
-3.83342
11
7.79246
21
-3.83402
0
LINE
8
BLACK
6
CONTINUOUS
10
7.79246
20
-3.83402
11
7.79283
21
-3.83471
0
LINE
8
BLACK
6
CONTINUOUS
10
7.79283
20
-3.83471
11
7.79305
21
-3.83545
0
LINE
8
BLACK
6
CONTINUOUS
10
7.79305
20
-3.83545
11
7.79313
21
-3.83622
0
LINE
8
BLACK
6
CONTINUOUS
10
7.79313
20
-3.83622
11
7.79305
21
-3.83699
0
LINE
8
BLACK
6
CONTINUOUS
10
7.79305
20
-3.83699
11
7.79283
21
-3.83773
0
LINE
8
BLACK
6
CONTINUOUS
10
7.79283
20
-3.83773
11
7.79246
21
-3.83842
0
LINE
8
BLACK
6
CONTINUOUS
10
7.79246
20
-3.83842
11
7.79197
21
-3.83902
0
LINE
8
BLACK
6
CONTINUOUS
10
7.79197
20
-3.83902
11
7.79137
21
-3.83951
0
LINE
8
BLACK
6
CONTINUOUS
10
7.79137
20
-3.83951
11
7.79069
21
-3.83988
0
LINE
8
BLACK
6
CONTINUOUS
10
7.79069
20
-3.83988
11
7.78994
21
-3.8401
0
LINE
8
BLACK
6
CONTINUOUS
10
7.78994
20
-3.8401
11
7.78937
21
-3.84016
0
LINE
8
BLACK
6
CONTINUOUS
10
7.78937
20
-3.84016
11
7.68465
21
-3.84016
0
LINE
8
BLACK
6
CONTINUOUS
10
7.68465
20
-3.84016
11
7.68407
21
-3.8401
0
LINE
8
BLACK
6
CONTINUOUS
10
7.68407
20
-3.8401
11
7.68333
21
-3.83988
0
LINE
8
BLACK
6
CONTINUOUS
10
7.68333
20
-3.83988
11
7.68264
21
-3.83951
0
LINE
8
BLACK
6
CONTINUOUS
10
7.68264
20
-3.83951
11
7.68205
21
-3.83902
0
LINE
8
BLACK
6
CONTINUOUS
10
7.68205
20
-3.83902
11
7.68155
21
-3.83842
0
LINE
8
BLACK
6
CONTINUOUS
10
7.68155
20
-3.83842
11
7.68119
21
-3.83773
0
LINE
8
BLACK
6
CONTINUOUS
10
7.68119
20
-3.83773
11
7.68096
21
-3.83699
0
LINE
8
BLACK
6
CONTINUOUS
10
7.68096
20
-3.83699
11
7.68089
21
-3.83622
0
LINE
8
BLACK
6
CONTINUOUS
10
7.68089
20
-3.83622
11
7.68096
21
-3.83545
0
LINE
8
BLACK
6
CONTINUOUS
10
7.68096
20
-3.83545
11
7.68119
21
-3.83471
0
LINE
8
BLACK
6
CONTINUOUS
10
7.68119
20
-3.83471
11
7.68155
21
-3.83402
0
LINE
8
BLACK
6
CONTINUOUS
10
7.68155
20
-3.83402
11
7.68205
21
-3.83342
0
LINE
8
BLACK
6
CONTINUOUS
10
7.68205
20
-3.83342
11
7.68264
21
-3.83293
0
LINE
8
BLACK
6
CONTINUOUS
10
7.68264
20
-3.83293
11
7.68333
21
-3.83257
0
LINE
8
BLACK
6
CONTINUOUS
10
7.68333
20
-3.83257
11
7.68407
21
-3.83234
0
LINE
8
BLACK
6
CONTINUOUS
10
7.68407
20
-3.83234
11
7.68465
21
-3.83228
0
LINE
8
BLACK
6
CONTINUOUS
10
7.68465
20
-3.83228
11
7.78937
21
-3.83228
0
LINE
8
BLACK
6
CONTINUOUS
10
7.78937
20
-3.83228
11
7.78994
21
-3.83234
  0
ENDSEC
  0
EOF
