M48
; DRILL file {KiCad (5.1.8)-1} date 11/11/21 12:40:02
; FORMAT={-:-/ absolute / inch / decimal}
; #@! TF.CreationDate,2021-11-11T12:40:02-05:00
; #@! TF.GenerationSoftware,Kicad,Pcbnew,(5.1.8)-1
; #@! TF.FileFunction,Plated,1,2,PTH
FMAT,2
INCH
T1C0.0110
T2C0.0130
T3C0.0256
%
G90
G05
T1
X4.7705Y-4.4055
X4.7744Y-4.2177
X4.7874Y-4.5984
X4.8268Y-4.5984
X4.8303Y-4.1551
X4.839Y-4.3524
X4.8858Y-4.5748
X4.9031Y-4.5957
X4.9055Y-4.685
X4.9059Y-4.3843
X4.9366Y-4.2051
X4.9374Y-4.2311
X4.9804Y-4.5133
X5.2224Y-4.0823
X5.2232Y-4.1063
X5.2233Y-4.4174
X5.224Y-4.1445
X5.224Y-4.1689
X5.2587Y-4.0827
X5.2591Y-4.1063
X5.2591Y-4.1449
X5.2594Y-4.1697
X5.3217Y-4.55
X5.4894Y-4.6185
X5.5201Y-4.3299
X5.5531Y-4.1693
X5.5535Y-4.1055
X5.5535Y-4.1453
X5.5539Y-4.0819
X5.5646Y-4.2618
X5.5799Y-4.6441
X5.5894Y-4.0819
X5.5894Y-4.1059
X5.5902Y-4.1445
X5.5902Y-4.1693
T2
X4.952Y-4.1531
T3
X5.0969Y-4.7705
X5.0969Y-4.8205
X5.1469Y-4.7705
X5.1469Y-4.8205
X5.1969Y-4.7705
X5.1969Y-4.8205
X5.2469Y-4.7705
X5.2469Y-4.8205
X5.2969Y-4.7705
X5.2969Y-4.8205
X5.0469Y-4.2736
X5.0469Y-4.3236
X5.0969Y-4.2736
X5.0969Y-4.3236
X5.1469Y-4.2736
X5.1469Y-4.3236
X5.1969Y-4.2736
X5.1969Y-4.3236
X5.2469Y-4.2736
X5.2469Y-4.3236
X5.2969Y-4.2736
X5.2969Y-4.3236
X5.3469Y-4.2736
X5.3469Y-4.3236
T0
M30
