%TF.GenerationSoftware,KiCad,Pcbnew,(5.1.8)-1*%
%TF.CreationDate,2021-11-11T12:40:01-05:00*%
%TF.ProjectId,Metal_flaw_sensor,4d657461-6c5f-4666-9c61-775f73656e73,rev?*%
%TF.SameCoordinates,Original*%
%TF.FileFunction,Legend,Bot*%
%TF.FilePolarity,Positive*%
%FSLAX46Y46*%
G04 Gerber Fmt 4.6, Leading zero omitted, Abs format (unit mm)*
G04 Created by KiCad (PCBNEW (5.1.8)-1) date 2021-11-11 12:40:01*
%MOMM*%
%LPD*%
G01*
G04 APERTURE LIST*
%ADD10C,0.120000*%
%ADD11C,0.150000*%
G04 APERTURE END LIST*
D10*
%TO.C,J3*%
X127430000Y-107420000D02*
X127430000Y-108550000D01*
X128190000Y-107420000D02*
X127430000Y-107420000D01*
X127495000Y-110127530D02*
X127495000Y-110950000D01*
X127495000Y-109310000D02*
X127495000Y-109512470D01*
X127626529Y-109310000D02*
X127495000Y-109310000D01*
X128896529Y-109310000D02*
X128753471Y-109310000D01*
X128950000Y-109113471D02*
X128950000Y-109256529D01*
X128950000Y-107420000D02*
X128950000Y-107986529D01*
X127495000Y-110950000D02*
X136505000Y-110950000D01*
X128950000Y-107420000D02*
X136505000Y-107420000D01*
X136505000Y-108857530D02*
X136505000Y-109512470D01*
X136505000Y-110127530D02*
X136505000Y-110950000D01*
X136505000Y-107420000D02*
X136505000Y-108242470D01*
%TO.C,R10*%
X122467621Y-116220000D02*
X122132379Y-116220000D01*
X122467621Y-115460000D02*
X122132379Y-115460000D01*
%TO.C,R9*%
X127912379Y-117470000D02*
X128247621Y-117470000D01*
X127912379Y-118230000D02*
X128247621Y-118230000D01*
%TO.C,R7*%
X126467227Y-115210175D02*
X126230175Y-115447227D01*
X125929825Y-114672773D02*
X125692773Y-114909825D01*
%TO.C,J4*%
X128700000Y-120040000D02*
X128700000Y-121170000D01*
X129460000Y-120040000D02*
X128700000Y-120040000D01*
X128765000Y-122747530D02*
X128765000Y-123570000D01*
X128765000Y-121930000D02*
X128765000Y-122132470D01*
X128896529Y-121930000D02*
X128765000Y-121930000D01*
X130166529Y-121930000D02*
X130023471Y-121930000D01*
X130220000Y-121733471D02*
X130220000Y-121876529D01*
X130220000Y-120040000D02*
X130220000Y-120606529D01*
X128765000Y-123570000D02*
X135235000Y-123570000D01*
X130220000Y-120040000D02*
X135235000Y-120040000D01*
X135235000Y-121477530D02*
X135235000Y-122132470D01*
X135235000Y-122747530D02*
X135235000Y-123570000D01*
X135235000Y-120040000D02*
X135235000Y-120862470D01*
%TO.C,C6*%
X127460000Y-104453733D02*
X127460000Y-104746267D01*
X126440000Y-104453733D02*
X126440000Y-104746267D01*
%TO.C,R10*%
D11*
X122942857Y-115122380D02*
X123276190Y-114646190D01*
X123514285Y-115122380D02*
X123514285Y-114122380D01*
X123133333Y-114122380D01*
X123038095Y-114170000D01*
X122990476Y-114217619D01*
X122942857Y-114312857D01*
X122942857Y-114455714D01*
X122990476Y-114550952D01*
X123038095Y-114598571D01*
X123133333Y-114646190D01*
X123514285Y-114646190D01*
X121990476Y-115122380D02*
X122561904Y-115122380D01*
X122276190Y-115122380D02*
X122276190Y-114122380D01*
X122371428Y-114265238D01*
X122466666Y-114360476D01*
X122561904Y-114408095D01*
X121371428Y-114122380D02*
X121276190Y-114122380D01*
X121180952Y-114170000D01*
X121133333Y-114217619D01*
X121085714Y-114312857D01*
X121038095Y-114503333D01*
X121038095Y-114741428D01*
X121085714Y-114931904D01*
X121133333Y-115027142D01*
X121180952Y-115074761D01*
X121276190Y-115122380D01*
X121371428Y-115122380D01*
X121466666Y-115074761D01*
X121514285Y-115027142D01*
X121561904Y-114931904D01*
X121609523Y-114741428D01*
X121609523Y-114503333D01*
X121561904Y-114312857D01*
X121514285Y-114217619D01*
X121466666Y-114170000D01*
X121371428Y-114122380D01*
%TO.C,R9*%
X128246666Y-119472380D02*
X128580000Y-118996190D01*
X128818095Y-119472380D02*
X128818095Y-118472380D01*
X128437142Y-118472380D01*
X128341904Y-118520000D01*
X128294285Y-118567619D01*
X128246666Y-118662857D01*
X128246666Y-118805714D01*
X128294285Y-118900952D01*
X128341904Y-118948571D01*
X128437142Y-118996190D01*
X128818095Y-118996190D01*
X127770476Y-119472380D02*
X127580000Y-119472380D01*
X127484761Y-119424761D01*
X127437142Y-119377142D01*
X127341904Y-119234285D01*
X127294285Y-119043809D01*
X127294285Y-118662857D01*
X127341904Y-118567619D01*
X127389523Y-118520000D01*
X127484761Y-118472380D01*
X127675238Y-118472380D01*
X127770476Y-118520000D01*
X127818095Y-118567619D01*
X127865714Y-118662857D01*
X127865714Y-118900952D01*
X127818095Y-118996190D01*
X127770476Y-119043809D01*
X127675238Y-119091428D01*
X127484761Y-119091428D01*
X127389523Y-119043809D01*
X127341904Y-118996190D01*
X127294285Y-118900952D01*
%TO.C,R7*%
X125690417Y-114434715D02*
X125589402Y-113862295D01*
X126094478Y-114030654D02*
X125387372Y-113323547D01*
X125117997Y-113592921D01*
X125084326Y-113693936D01*
X125084326Y-113761280D01*
X125117997Y-113862295D01*
X125219013Y-113963310D01*
X125320028Y-113996982D01*
X125387372Y-113996982D01*
X125488387Y-113963310D01*
X125757761Y-113693936D01*
X124747608Y-113963310D02*
X124276204Y-114434715D01*
X125286356Y-114838776D01*
%TO.C,C6*%
X125877142Y-104433333D02*
X125924761Y-104385714D01*
X125972380Y-104242857D01*
X125972380Y-104147619D01*
X125924761Y-104004761D01*
X125829523Y-103909523D01*
X125734285Y-103861904D01*
X125543809Y-103814285D01*
X125400952Y-103814285D01*
X125210476Y-103861904D01*
X125115238Y-103909523D01*
X125020000Y-104004761D01*
X124972380Y-104147619D01*
X124972380Y-104242857D01*
X125020000Y-104385714D01*
X125067619Y-104433333D01*
X124972380Y-105290476D02*
X124972380Y-105100000D01*
X125020000Y-105004761D01*
X125067619Y-104957142D01*
X125210476Y-104861904D01*
X125400952Y-104814285D01*
X125781904Y-104814285D01*
X125877142Y-104861904D01*
X125924761Y-104909523D01*
X125972380Y-105004761D01*
X125972380Y-105195238D01*
X125924761Y-105290476D01*
X125877142Y-105338095D01*
X125781904Y-105385714D01*
X125543809Y-105385714D01*
X125448571Y-105338095D01*
X125400952Y-105290476D01*
X125353333Y-105195238D01*
X125353333Y-105004761D01*
X125400952Y-104909523D01*
X125448571Y-104861904D01*
X125543809Y-104814285D01*
%TD*%
M02*
