%TF.GenerationSoftware,KiCad,Pcbnew,(5.1.8)-1*%
%TF.CreationDate,2021-11-11T12:40:01-05:00*%
%TF.ProjectId,Metal_flaw_sensor,4d657461-6c5f-4666-9c61-775f73656e73,rev?*%
%TF.SameCoordinates,Original*%
%TF.FileFunction,Legend,Top*%
%TF.FilePolarity,Positive*%
%FSLAX46Y46*%
G04 Gerber Fmt 4.6, Leading zero omitted, Abs format (unit mm)*
G04 Created by KiCad (PCBNEW (5.1.8)-1) date 2021-11-11 12:40:01*
%MOMM*%
%LPD*%
G01*
G04 APERTURE LIST*
%ADD10C,0.381000*%
%ADD11C,0.150000*%
%ADD12C,0.300000*%
%ADD13C,0.127000*%
%ADD14C,0.120000*%
G04 APERTURE END LIST*
D10*
X128600000Y-104970000D02*
X130800000Y-104970000D01*
X128550000Y-106070000D02*
X130800000Y-106070000D01*
X128550000Y-103820000D02*
X128550000Y-106070000D01*
X130800000Y-103820000D02*
X128550000Y-103820000D01*
X127600000Y-102870000D02*
X127600000Y-106070000D01*
X130800000Y-102870000D02*
X127600000Y-102870000D01*
D11*
X122596190Y-101692380D02*
X122596190Y-100692380D01*
X123072380Y-101692380D02*
X123072380Y-101025714D01*
X123072380Y-101120952D02*
X123120000Y-101073333D01*
X123215238Y-101025714D01*
X123358095Y-101025714D01*
X123453333Y-101073333D01*
X123500952Y-101168571D01*
X123500952Y-101692380D01*
X123500952Y-101168571D02*
X123548571Y-101073333D01*
X123643809Y-101025714D01*
X123786666Y-101025714D01*
X123881904Y-101073333D01*
X123929523Y-101168571D01*
X123929523Y-101692380D01*
X124405714Y-101025714D02*
X124405714Y-102025714D01*
X124405714Y-101073333D02*
X124500952Y-101025714D01*
X124691428Y-101025714D01*
X124786666Y-101073333D01*
X124834285Y-101120952D01*
X124881904Y-101216190D01*
X124881904Y-101501904D01*
X124834285Y-101597142D01*
X124786666Y-101644761D01*
X124691428Y-101692380D01*
X124500952Y-101692380D01*
X124405714Y-101644761D01*
X125691428Y-101644761D02*
X125596190Y-101692380D01*
X125405714Y-101692380D01*
X125310476Y-101644761D01*
X125262857Y-101549523D01*
X125262857Y-101168571D01*
X125310476Y-101073333D01*
X125405714Y-101025714D01*
X125596190Y-101025714D01*
X125691428Y-101073333D01*
X125739047Y-101168571D01*
X125739047Y-101263809D01*
X125262857Y-101359047D01*
X126596190Y-101692380D02*
X126596190Y-100692380D01*
X126596190Y-101644761D02*
X126500952Y-101692380D01*
X126310476Y-101692380D01*
X126215238Y-101644761D01*
X126167619Y-101597142D01*
X126120000Y-101501904D01*
X126120000Y-101216190D01*
X126167619Y-101120952D01*
X126215238Y-101073333D01*
X126310476Y-101025714D01*
X126500952Y-101025714D01*
X126596190Y-101073333D01*
X127500952Y-101692380D02*
X127500952Y-101168571D01*
X127453333Y-101073333D01*
X127358095Y-101025714D01*
X127167619Y-101025714D01*
X127072380Y-101073333D01*
X127500952Y-101644761D02*
X127405714Y-101692380D01*
X127167619Y-101692380D01*
X127072380Y-101644761D01*
X127024761Y-101549523D01*
X127024761Y-101454285D01*
X127072380Y-101359047D01*
X127167619Y-101311428D01*
X127405714Y-101311428D01*
X127500952Y-101263809D01*
X127977142Y-101025714D02*
X127977142Y-101692380D01*
X127977142Y-101120952D02*
X128024761Y-101073333D01*
X128120000Y-101025714D01*
X128262857Y-101025714D01*
X128358095Y-101073333D01*
X128405714Y-101168571D01*
X128405714Y-101692380D01*
X129310476Y-101644761D02*
X129215238Y-101692380D01*
X129024761Y-101692380D01*
X128929523Y-101644761D01*
X128881904Y-101597142D01*
X128834285Y-101501904D01*
X128834285Y-101216190D01*
X128881904Y-101120952D01*
X128929523Y-101073333D01*
X129024761Y-101025714D01*
X129215238Y-101025714D01*
X129310476Y-101073333D01*
X130120000Y-101644761D02*
X130024761Y-101692380D01*
X129834285Y-101692380D01*
X129739047Y-101644761D01*
X129691428Y-101549523D01*
X129691428Y-101168571D01*
X129739047Y-101073333D01*
X129834285Y-101025714D01*
X130024761Y-101025714D01*
X130120000Y-101073333D01*
X130167619Y-101168571D01*
X130167619Y-101263809D01*
X129691428Y-101359047D01*
X131358095Y-101692380D02*
X131358095Y-100692380D01*
X131691428Y-101406666D01*
X132024761Y-100692380D01*
X132024761Y-101692380D01*
X132881904Y-101644761D02*
X132786666Y-101692380D01*
X132596190Y-101692380D01*
X132500952Y-101644761D01*
X132453333Y-101549523D01*
X132453333Y-101168571D01*
X132500952Y-101073333D01*
X132596190Y-101025714D01*
X132786666Y-101025714D01*
X132881904Y-101073333D01*
X132929523Y-101168571D01*
X132929523Y-101263809D01*
X132453333Y-101359047D01*
X133786666Y-101692380D02*
X133786666Y-101168571D01*
X133739047Y-101073333D01*
X133643809Y-101025714D01*
X133453333Y-101025714D01*
X133358095Y-101073333D01*
X133786666Y-101644761D02*
X133691428Y-101692380D01*
X133453333Y-101692380D01*
X133358095Y-101644761D01*
X133310476Y-101549523D01*
X133310476Y-101454285D01*
X133358095Y-101359047D01*
X133453333Y-101311428D01*
X133691428Y-101311428D01*
X133786666Y-101263809D01*
X134215238Y-101644761D02*
X134310476Y-101692380D01*
X134500952Y-101692380D01*
X134596190Y-101644761D01*
X134643809Y-101549523D01*
X134643809Y-101501904D01*
X134596190Y-101406666D01*
X134500952Y-101359047D01*
X134358095Y-101359047D01*
X134262857Y-101311428D01*
X134215238Y-101216190D01*
X134215238Y-101168571D01*
X134262857Y-101073333D01*
X134358095Y-101025714D01*
X134500952Y-101025714D01*
X134596190Y-101073333D01*
X135500952Y-101025714D02*
X135500952Y-101692380D01*
X135072380Y-101025714D02*
X135072380Y-101549523D01*
X135120000Y-101644761D01*
X135215238Y-101692380D01*
X135358095Y-101692380D01*
X135453333Y-101644761D01*
X135500952Y-101597142D01*
X135977142Y-101692380D02*
X135977142Y-101025714D01*
X135977142Y-101216190D02*
X136024761Y-101120952D01*
X136072380Y-101073333D01*
X136167619Y-101025714D01*
X136262857Y-101025714D01*
X136977142Y-101644761D02*
X136881904Y-101692380D01*
X136691428Y-101692380D01*
X136596190Y-101644761D01*
X136548571Y-101549523D01*
X136548571Y-101168571D01*
X136596190Y-101073333D01*
X136691428Y-101025714D01*
X136881904Y-101025714D01*
X136977142Y-101073333D01*
X137024761Y-101168571D01*
X137024761Y-101263809D01*
X136548571Y-101359047D01*
X137453333Y-101692380D02*
X137453333Y-101025714D01*
X137453333Y-101120952D02*
X137500952Y-101073333D01*
X137596190Y-101025714D01*
X137739047Y-101025714D01*
X137834285Y-101073333D01*
X137881904Y-101168571D01*
X137881904Y-101692380D01*
X137881904Y-101168571D02*
X137929523Y-101073333D01*
X138024761Y-101025714D01*
X138167619Y-101025714D01*
X138262857Y-101073333D01*
X138310476Y-101168571D01*
X138310476Y-101692380D01*
X139167619Y-101644761D02*
X139072380Y-101692380D01*
X138881904Y-101692380D01*
X138786666Y-101644761D01*
X138739047Y-101549523D01*
X138739047Y-101168571D01*
X138786666Y-101073333D01*
X138881904Y-101025714D01*
X139072380Y-101025714D01*
X139167619Y-101073333D01*
X139215238Y-101168571D01*
X139215238Y-101263809D01*
X138739047Y-101359047D01*
X139643809Y-101025714D02*
X139643809Y-101692380D01*
X139643809Y-101120952D02*
X139691428Y-101073333D01*
X139786666Y-101025714D01*
X139929523Y-101025714D01*
X140024761Y-101073333D01*
X140072380Y-101168571D01*
X140072380Y-101692380D01*
X140405714Y-101025714D02*
X140786666Y-101025714D01*
X140548571Y-100692380D02*
X140548571Y-101549523D01*
X140596190Y-101644761D01*
X140691428Y-101692380D01*
X140786666Y-101692380D01*
D12*
%TO.C,U2*%
X131060000Y-118460000D02*
G75*
G03*
X131060000Y-118460000I-150000J0D01*
G01*
D13*
X122810000Y-112910000D02*
X122810000Y-113360000D01*
X128410000Y-112910000D02*
X128410000Y-113360000D01*
X128410000Y-112910000D02*
X122810000Y-112910000D01*
X122810000Y-119410000D02*
X122810000Y-119060000D01*
X128410000Y-119410000D02*
X122810000Y-119410000D01*
X128410000Y-119060000D02*
X128410000Y-119410000D01*
D14*
%TO.C,C3*%
X140810000Y-108973733D02*
X140810000Y-109266267D01*
X141830000Y-108973733D02*
X141830000Y-109266267D01*
%TO.C,R6*%
X132650000Y-116597621D02*
X132650000Y-116262379D01*
X131890000Y-116597621D02*
X131890000Y-116262379D01*
%TO.C,R5*%
X131440000Y-116597621D02*
X131440000Y-116262379D01*
X130680000Y-116597621D02*
X130680000Y-116262379D01*
%TO.C,R4*%
X134177621Y-115190000D02*
X133842379Y-115190000D01*
X134177621Y-115950000D02*
X133842379Y-115950000D01*
%TO.C,R3*%
X132227621Y-113030000D02*
X131892379Y-113030000D01*
X132227621Y-113790000D02*
X131892379Y-113790000D01*
%TO.C,R2*%
X142100000Y-117527621D02*
X142100000Y-117192379D01*
X141340000Y-117527621D02*
X141340000Y-117192379D01*
%TO.C,R1*%
X140300000Y-117192379D02*
X140300000Y-117527621D01*
X141060000Y-117192379D02*
X141060000Y-117527621D01*
%TO.C,C5*%
X132205835Y-114220000D02*
X131974165Y-114220000D01*
X132205835Y-114940000D02*
X131974165Y-114940000D01*
%TO.C,U3*%
X126890000Y-109330000D02*
X126890000Y-106900000D01*
X123820000Y-107570000D02*
X123820000Y-109330000D01*
D13*
%TO.C,U1*%
X136840000Y-116160000D02*
X140840000Y-116160000D01*
X136840000Y-111160000D02*
X140840000Y-111160000D01*
D12*
X134929000Y-111755000D02*
G75*
G03*
X134929000Y-111755000I-150000J0D01*
G01*
D14*
%TO.C,R8*%
X134994724Y-117567500D02*
X134485276Y-117567500D01*
X134994724Y-118612500D02*
X134485276Y-118612500D01*
%TO.C,J2*%
X140510000Y-104080000D02*
X139160000Y-104080000D01*
X139160000Y-104080000D02*
X139160000Y-105480000D01*
X139160000Y-105480000D02*
X140510000Y-105480000D01*
X140510000Y-105480000D02*
X140510000Y-106130000D01*
X140510000Y-104080000D02*
X140510000Y-103430000D01*
%TO.C,J1*%
X134140000Y-105480000D02*
X135490000Y-105480000D01*
X135490000Y-105480000D02*
X135490000Y-104080000D01*
X135490000Y-104080000D02*
X134140000Y-104080000D01*
X134140000Y-104080000D02*
X134140000Y-103430000D01*
X134140000Y-105480000D02*
X134140000Y-106130000D01*
%TO.C,FB1*%
X123360000Y-108146267D02*
X123360000Y-107853733D01*
X122340000Y-108146267D02*
X122340000Y-107853733D01*
%TO.C,C8*%
X125313733Y-111800000D02*
X125606267Y-111800000D01*
X125313733Y-110780000D02*
X125606267Y-110780000D01*
%TO.C,C7*%
X123383733Y-106040000D02*
X123676267Y-106040000D01*
X123383733Y-105020000D02*
X123676267Y-105020000D01*
%TO.C,C4*%
X121893733Y-112410000D02*
X122186267Y-112410000D01*
X121893733Y-111390000D02*
X122186267Y-111390000D01*
%TO.C,C2*%
X120750000Y-107833733D02*
X120750000Y-108126267D01*
X121770000Y-107833733D02*
X121770000Y-108126267D01*
%TO.C,C1*%
X122186267Y-110040000D02*
X121893733Y-110040000D01*
X122186267Y-111060000D02*
X121893733Y-111060000D01*
%TO.C,U2*%
D11*
X125483055Y-120058291D02*
X125483055Y-120868006D01*
X125530685Y-120963267D01*
X125578316Y-121010897D01*
X125673576Y-121058527D01*
X125864097Y-121058527D01*
X125959358Y-121010897D01*
X126006988Y-120963267D01*
X126054618Y-120868006D01*
X126054618Y-120058291D01*
X126483291Y-120153552D02*
X126530921Y-120105922D01*
X126626182Y-120058291D01*
X126864333Y-120058291D01*
X126959594Y-120105922D01*
X127007224Y-120153552D01*
X127054854Y-120248812D01*
X127054854Y-120344073D01*
X127007224Y-120486964D01*
X126435661Y-121058527D01*
X127054854Y-121058527D01*
%TO.C,C3*%
X143107142Y-109286666D02*
X143154761Y-109334285D01*
X143202380Y-109477142D01*
X143202380Y-109572380D01*
X143154761Y-109715238D01*
X143059523Y-109810476D01*
X142964285Y-109858095D01*
X142773809Y-109905714D01*
X142630952Y-109905714D01*
X142440476Y-109858095D01*
X142345238Y-109810476D01*
X142250000Y-109715238D01*
X142202380Y-109572380D01*
X142202380Y-109477142D01*
X142250000Y-109334285D01*
X142297619Y-109286666D01*
X142202380Y-108953333D02*
X142202380Y-108334285D01*
X142583333Y-108667619D01*
X142583333Y-108524761D01*
X142630952Y-108429523D01*
X142678571Y-108381904D01*
X142773809Y-108334285D01*
X143011904Y-108334285D01*
X143107142Y-108381904D01*
X143154761Y-108429523D01*
X143202380Y-108524761D01*
X143202380Y-108810476D01*
X143154761Y-108905714D01*
X143107142Y-108953333D01*
%TO.C,R6*%
X132732380Y-118756666D02*
X132256190Y-119090000D01*
X132732380Y-119328095D02*
X131732380Y-119328095D01*
X131732380Y-118947142D01*
X131780000Y-118851904D01*
X131827619Y-118804285D01*
X131922857Y-118756666D01*
X132065714Y-118756666D01*
X132160952Y-118804285D01*
X132208571Y-118851904D01*
X132256190Y-118947142D01*
X132256190Y-119328095D01*
X131732380Y-117899523D02*
X131732380Y-118090000D01*
X131780000Y-118185238D01*
X131827619Y-118232857D01*
X131970476Y-118328095D01*
X132160952Y-118375714D01*
X132541904Y-118375714D01*
X132637142Y-118328095D01*
X132684761Y-118280476D01*
X132732380Y-118185238D01*
X132732380Y-117994761D01*
X132684761Y-117899523D01*
X132637142Y-117851904D01*
X132541904Y-117804285D01*
X132303809Y-117804285D01*
X132208571Y-117851904D01*
X132160952Y-117899523D01*
X132113333Y-117994761D01*
X132113333Y-118185238D01*
X132160952Y-118280476D01*
X132208571Y-118328095D01*
X132303809Y-118375714D01*
%TO.C,R5*%
X131452380Y-118806666D02*
X130976190Y-119140000D01*
X131452380Y-119378095D02*
X130452380Y-119378095D01*
X130452380Y-118997142D01*
X130500000Y-118901904D01*
X130547619Y-118854285D01*
X130642857Y-118806666D01*
X130785714Y-118806666D01*
X130880952Y-118854285D01*
X130928571Y-118901904D01*
X130976190Y-118997142D01*
X130976190Y-119378095D01*
X130452380Y-117901904D02*
X130452380Y-118378095D01*
X130928571Y-118425714D01*
X130880952Y-118378095D01*
X130833333Y-118282857D01*
X130833333Y-118044761D01*
X130880952Y-117949523D01*
X130928571Y-117901904D01*
X131023809Y-117854285D01*
X131261904Y-117854285D01*
X131357142Y-117901904D01*
X131404761Y-117949523D01*
X131452380Y-118044761D01*
X131452380Y-118282857D01*
X131404761Y-118378095D01*
X131357142Y-118425714D01*
%TO.C,R4*%
X133903333Y-117312380D02*
X133570000Y-116836190D01*
X133331904Y-117312380D02*
X133331904Y-116312380D01*
X133712857Y-116312380D01*
X133808095Y-116360000D01*
X133855714Y-116407619D01*
X133903333Y-116502857D01*
X133903333Y-116645714D01*
X133855714Y-116740952D01*
X133808095Y-116788571D01*
X133712857Y-116836190D01*
X133331904Y-116836190D01*
X134760476Y-116645714D02*
X134760476Y-117312380D01*
X134522380Y-116264761D02*
X134284285Y-116979047D01*
X134903333Y-116979047D01*
%TO.C,R3*%
X134093333Y-113342380D02*
X133760000Y-112866190D01*
X133521904Y-113342380D02*
X133521904Y-112342380D01*
X133902857Y-112342380D01*
X133998095Y-112390000D01*
X134045714Y-112437619D01*
X134093333Y-112532857D01*
X134093333Y-112675714D01*
X134045714Y-112770952D01*
X133998095Y-112818571D01*
X133902857Y-112866190D01*
X133521904Y-112866190D01*
X134426666Y-112342380D02*
X135045714Y-112342380D01*
X134712380Y-112723333D01*
X134855238Y-112723333D01*
X134950476Y-112770952D01*
X134998095Y-112818571D01*
X135045714Y-112913809D01*
X135045714Y-113151904D01*
X134998095Y-113247142D01*
X134950476Y-113294761D01*
X134855238Y-113342380D01*
X134569523Y-113342380D01*
X134474285Y-113294761D01*
X134426666Y-113247142D01*
%TO.C,C5*%
X134053333Y-114667142D02*
X134005714Y-114714761D01*
X133862857Y-114762380D01*
X133767619Y-114762380D01*
X133624761Y-114714761D01*
X133529523Y-114619523D01*
X133481904Y-114524285D01*
X133434285Y-114333809D01*
X133434285Y-114190952D01*
X133481904Y-114000476D01*
X133529523Y-113905238D01*
X133624761Y-113810000D01*
X133767619Y-113762380D01*
X133862857Y-113762380D01*
X134005714Y-113810000D01*
X134053333Y-113857619D01*
X134958095Y-113762380D02*
X134481904Y-113762380D01*
X134434285Y-114238571D01*
X134481904Y-114190952D01*
X134577142Y-114143333D01*
X134815238Y-114143333D01*
X134910476Y-114190952D01*
X134958095Y-114238571D01*
X135005714Y-114333809D01*
X135005714Y-114571904D01*
X134958095Y-114667142D01*
X134910476Y-114714761D01*
X134815238Y-114762380D01*
X134577142Y-114762380D01*
X134481904Y-114714761D01*
X134434285Y-114667142D01*
%TO.C,U1*%
X138097735Y-109642122D02*
X138097735Y-110452028D01*
X138145377Y-110547311D01*
X138193018Y-110594952D01*
X138288301Y-110642594D01*
X138478867Y-110642594D01*
X138574150Y-110594952D01*
X138621792Y-110547311D01*
X138669433Y-110452028D01*
X138669433Y-109642122D01*
X139669905Y-110642594D02*
X139098207Y-110642594D01*
X139384056Y-110642594D02*
X139384056Y-109642122D01*
X139288773Y-109785047D01*
X139193490Y-109880330D01*
X139098207Y-109927971D01*
%TO.C,R8*%
X134463333Y-119882380D02*
X134130000Y-119406190D01*
X133891904Y-119882380D02*
X133891904Y-118882380D01*
X134272857Y-118882380D01*
X134368095Y-118930000D01*
X134415714Y-118977619D01*
X134463333Y-119072857D01*
X134463333Y-119215714D01*
X134415714Y-119310952D01*
X134368095Y-119358571D01*
X134272857Y-119406190D01*
X133891904Y-119406190D01*
X135034761Y-119310952D02*
X134939523Y-119263333D01*
X134891904Y-119215714D01*
X134844285Y-119120476D01*
X134844285Y-119072857D01*
X134891904Y-118977619D01*
X134939523Y-118930000D01*
X135034761Y-118882380D01*
X135225238Y-118882380D01*
X135320476Y-118930000D01*
X135368095Y-118977619D01*
X135415714Y-119072857D01*
X135415714Y-119120476D01*
X135368095Y-119215714D01*
X135320476Y-119263333D01*
X135225238Y-119310952D01*
X135034761Y-119310952D01*
X134939523Y-119358571D01*
X134891904Y-119406190D01*
X134844285Y-119501428D01*
X134844285Y-119691904D01*
X134891904Y-119787142D01*
X134939523Y-119834761D01*
X135034761Y-119882380D01*
X135225238Y-119882380D01*
X135320476Y-119834761D01*
X135368095Y-119787142D01*
X135415714Y-119691904D01*
X135415714Y-119501428D01*
X135368095Y-119406190D01*
X135320476Y-119358571D01*
X135225238Y-119310952D01*
%TO.C,C8*%
X127843333Y-112187142D02*
X127795714Y-112234761D01*
X127652857Y-112282380D01*
X127557619Y-112282380D01*
X127414761Y-112234761D01*
X127319523Y-112139523D01*
X127271904Y-112044285D01*
X127224285Y-111853809D01*
X127224285Y-111710952D01*
X127271904Y-111520476D01*
X127319523Y-111425238D01*
X127414761Y-111330000D01*
X127557619Y-111282380D01*
X127652857Y-111282380D01*
X127795714Y-111330000D01*
X127843333Y-111377619D01*
X128414761Y-111710952D02*
X128319523Y-111663333D01*
X128271904Y-111615714D01*
X128224285Y-111520476D01*
X128224285Y-111472857D01*
X128271904Y-111377619D01*
X128319523Y-111330000D01*
X128414761Y-111282380D01*
X128605238Y-111282380D01*
X128700476Y-111330000D01*
X128748095Y-111377619D01*
X128795714Y-111472857D01*
X128795714Y-111520476D01*
X128748095Y-111615714D01*
X128700476Y-111663333D01*
X128605238Y-111710952D01*
X128414761Y-111710952D01*
X128319523Y-111758571D01*
X128271904Y-111806190D01*
X128224285Y-111901428D01*
X128224285Y-112091904D01*
X128271904Y-112187142D01*
X128319523Y-112234761D01*
X128414761Y-112282380D01*
X128605238Y-112282380D01*
X128700476Y-112234761D01*
X128748095Y-112187142D01*
X128795714Y-112091904D01*
X128795714Y-111901428D01*
X128748095Y-111806190D01*
X128700476Y-111758571D01*
X128605238Y-111710952D01*
%TD*%
M02*
