%TF.GenerationSoftware,KiCad,Pcbnew,(5.1.8)-1*%
%TF.CreationDate,2021-11-11T12:40:01-05:00*%
%TF.ProjectId,Metal_flaw_sensor,4d657461-6c5f-4666-9c61-775f73656e73,rev?*%
%TF.SameCoordinates,Original*%
%TF.FileFunction,Soldermask,Top*%
%TF.FilePolarity,Negative*%
%FSLAX46Y46*%
G04 Gerber Fmt 4.6, Leading zero omitted, Abs format (unit mm)*
G04 Created by KiCad (PCBNEW (5.1.8)-1) date 2021-11-11 12:40:01*
%MOMM*%
%LPD*%
G01*
G04 APERTURE LIST*
%ADD10O,1.000000X1.000000*%
%ADD11R,1.000000X1.000000*%
%ADD12R,1.900000X0.480000*%
%ADD13R,0.650000X1.220000*%
%ADD14R,1.970000X0.600000*%
%ADD15R,1.200000X1.000000*%
%ADD16R,1.500000X1.200000*%
G04 APERTURE END LIST*
D10*
%TO.C,J3*%
X135810000Y-109820000D03*
X135810000Y-108550000D03*
X134540000Y-109820000D03*
X134540000Y-108550000D03*
X133270000Y-109820000D03*
X133270000Y-108550000D03*
X132000000Y-109820000D03*
X132000000Y-108550000D03*
X130730000Y-109820000D03*
X130730000Y-108550000D03*
X129460000Y-109820000D03*
X129460000Y-108550000D03*
X128190000Y-109820000D03*
D11*
X128190000Y-108550000D03*
%TD*%
D12*
%TO.C,U2*%
X122105000Y-118435000D03*
X122105000Y-117785000D03*
X122105000Y-117135000D03*
X122105000Y-116485000D03*
X122105000Y-115835000D03*
X122105000Y-115185000D03*
X122105000Y-114535000D03*
X122105000Y-113885000D03*
X129115000Y-113885000D03*
X129115000Y-114535000D03*
X129115000Y-115185000D03*
X129115000Y-115835000D03*
X129115000Y-116485000D03*
X129115000Y-117135000D03*
X129115000Y-117785000D03*
X129115000Y-118435000D03*
%TD*%
%TO.C,C3*%
G36*
G01*
X141082500Y-109445000D02*
X141557500Y-109445000D01*
G75*
G02*
X141795000Y-109682500I0J-237500D01*
G01*
X141795000Y-110282500D01*
G75*
G02*
X141557500Y-110520000I-237500J0D01*
G01*
X141082500Y-110520000D01*
G75*
G02*
X140845000Y-110282500I0J237500D01*
G01*
X140845000Y-109682500D01*
G75*
G02*
X141082500Y-109445000I237500J0D01*
G01*
G37*
G36*
G01*
X141082500Y-107720000D02*
X141557500Y-107720000D01*
G75*
G02*
X141795000Y-107957500I0J-237500D01*
G01*
X141795000Y-108557500D01*
G75*
G02*
X141557500Y-108795000I-237500J0D01*
G01*
X141082500Y-108795000D01*
G75*
G02*
X140845000Y-108557500I0J237500D01*
G01*
X140845000Y-107957500D01*
G75*
G02*
X141082500Y-107720000I237500J0D01*
G01*
G37*
%TD*%
%TO.C,R6*%
G36*
G01*
X132430000Y-116190000D02*
X132110000Y-116190000D01*
G75*
G02*
X131950000Y-116030000I0J160000D01*
G01*
X131950000Y-115635000D01*
G75*
G02*
X132110000Y-115475000I160000J0D01*
G01*
X132430000Y-115475000D01*
G75*
G02*
X132590000Y-115635000I0J-160000D01*
G01*
X132590000Y-116030000D01*
G75*
G02*
X132430000Y-116190000I-160000J0D01*
G01*
G37*
G36*
G01*
X132430000Y-117385000D02*
X132110000Y-117385000D01*
G75*
G02*
X131950000Y-117225000I0J160000D01*
G01*
X131950000Y-116830000D01*
G75*
G02*
X132110000Y-116670000I160000J0D01*
G01*
X132430000Y-116670000D01*
G75*
G02*
X132590000Y-116830000I0J-160000D01*
G01*
X132590000Y-117225000D01*
G75*
G02*
X132430000Y-117385000I-160000J0D01*
G01*
G37*
%TD*%
%TO.C,R5*%
G36*
G01*
X131220000Y-116190000D02*
X130900000Y-116190000D01*
G75*
G02*
X130740000Y-116030000I0J160000D01*
G01*
X130740000Y-115635000D01*
G75*
G02*
X130900000Y-115475000I160000J0D01*
G01*
X131220000Y-115475000D01*
G75*
G02*
X131380000Y-115635000I0J-160000D01*
G01*
X131380000Y-116030000D01*
G75*
G02*
X131220000Y-116190000I-160000J0D01*
G01*
G37*
G36*
G01*
X131220000Y-117385000D02*
X130900000Y-117385000D01*
G75*
G02*
X130740000Y-117225000I0J160000D01*
G01*
X130740000Y-116830000D01*
G75*
G02*
X130900000Y-116670000I160000J0D01*
G01*
X131220000Y-116670000D01*
G75*
G02*
X131380000Y-116830000I0J-160000D01*
G01*
X131380000Y-117225000D01*
G75*
G02*
X131220000Y-117385000I-160000J0D01*
G01*
G37*
%TD*%
%TO.C,R4*%
G36*
G01*
X133770000Y-115410000D02*
X133770000Y-115730000D01*
G75*
G02*
X133610000Y-115890000I-160000J0D01*
G01*
X133215000Y-115890000D01*
G75*
G02*
X133055000Y-115730000I0J160000D01*
G01*
X133055000Y-115410000D01*
G75*
G02*
X133215000Y-115250000I160000J0D01*
G01*
X133610000Y-115250000D01*
G75*
G02*
X133770000Y-115410000I0J-160000D01*
G01*
G37*
G36*
G01*
X134965000Y-115410000D02*
X134965000Y-115730000D01*
G75*
G02*
X134805000Y-115890000I-160000J0D01*
G01*
X134410000Y-115890000D01*
G75*
G02*
X134250000Y-115730000I0J160000D01*
G01*
X134250000Y-115410000D01*
G75*
G02*
X134410000Y-115250000I160000J0D01*
G01*
X134805000Y-115250000D01*
G75*
G02*
X134965000Y-115410000I0J-160000D01*
G01*
G37*
%TD*%
%TO.C,R3*%
G36*
G01*
X131820000Y-113250000D02*
X131820000Y-113570000D01*
G75*
G02*
X131660000Y-113730000I-160000J0D01*
G01*
X131265000Y-113730000D01*
G75*
G02*
X131105000Y-113570000I0J160000D01*
G01*
X131105000Y-113250000D01*
G75*
G02*
X131265000Y-113090000I160000J0D01*
G01*
X131660000Y-113090000D01*
G75*
G02*
X131820000Y-113250000I0J-160000D01*
G01*
G37*
G36*
G01*
X133015000Y-113250000D02*
X133015000Y-113570000D01*
G75*
G02*
X132855000Y-113730000I-160000J0D01*
G01*
X132460000Y-113730000D01*
G75*
G02*
X132300000Y-113570000I0J160000D01*
G01*
X132300000Y-113250000D01*
G75*
G02*
X132460000Y-113090000I160000J0D01*
G01*
X132855000Y-113090000D01*
G75*
G02*
X133015000Y-113250000I0J-160000D01*
G01*
G37*
%TD*%
%TO.C,R2*%
G36*
G01*
X141880000Y-117120000D02*
X141560000Y-117120000D01*
G75*
G02*
X141400000Y-116960000I0J160000D01*
G01*
X141400000Y-116565000D01*
G75*
G02*
X141560000Y-116405000I160000J0D01*
G01*
X141880000Y-116405000D01*
G75*
G02*
X142040000Y-116565000I0J-160000D01*
G01*
X142040000Y-116960000D01*
G75*
G02*
X141880000Y-117120000I-160000J0D01*
G01*
G37*
G36*
G01*
X141880000Y-118315000D02*
X141560000Y-118315000D01*
G75*
G02*
X141400000Y-118155000I0J160000D01*
G01*
X141400000Y-117760000D01*
G75*
G02*
X141560000Y-117600000I160000J0D01*
G01*
X141880000Y-117600000D01*
G75*
G02*
X142040000Y-117760000I0J-160000D01*
G01*
X142040000Y-118155000D01*
G75*
G02*
X141880000Y-118315000I-160000J0D01*
G01*
G37*
%TD*%
%TO.C,R1*%
G36*
G01*
X140520000Y-117600000D02*
X140840000Y-117600000D01*
G75*
G02*
X141000000Y-117760000I0J-160000D01*
G01*
X141000000Y-118155000D01*
G75*
G02*
X140840000Y-118315000I-160000J0D01*
G01*
X140520000Y-118315000D01*
G75*
G02*
X140360000Y-118155000I0J160000D01*
G01*
X140360000Y-117760000D01*
G75*
G02*
X140520000Y-117600000I160000J0D01*
G01*
G37*
G36*
G01*
X140520000Y-116405000D02*
X140840000Y-116405000D01*
G75*
G02*
X141000000Y-116565000I0J-160000D01*
G01*
X141000000Y-116960000D01*
G75*
G02*
X140840000Y-117120000I-160000J0D01*
G01*
X140520000Y-117120000D01*
G75*
G02*
X140360000Y-116960000I0J160000D01*
G01*
X140360000Y-116565000D01*
G75*
G02*
X140520000Y-116405000I160000J0D01*
G01*
G37*
%TD*%
%TO.C,C5*%
G36*
G01*
X131890000Y-114425000D02*
X131890000Y-114735000D01*
G75*
G02*
X131735000Y-114890000I-155000J0D01*
G01*
X131310000Y-114890000D01*
G75*
G02*
X131155000Y-114735000I0J155000D01*
G01*
X131155000Y-114425000D01*
G75*
G02*
X131310000Y-114270000I155000J0D01*
G01*
X131735000Y-114270000D01*
G75*
G02*
X131890000Y-114425000I0J-155000D01*
G01*
G37*
G36*
G01*
X133025000Y-114425000D02*
X133025000Y-114735000D01*
G75*
G02*
X132870000Y-114890000I-155000J0D01*
G01*
X132445000Y-114890000D01*
G75*
G02*
X132290000Y-114735000I0J155000D01*
G01*
X132290000Y-114425000D01*
G75*
G02*
X132445000Y-114270000I155000J0D01*
G01*
X132870000Y-114270000D01*
G75*
G02*
X133025000Y-114425000I0J-155000D01*
G01*
G37*
%TD*%
D13*
%TO.C,U3*%
X126330000Y-109760000D03*
X124430000Y-109760000D03*
X124430000Y-107140000D03*
X125380000Y-107140000D03*
X126330000Y-107140000D03*
%TD*%
D14*
%TO.C,U1*%
X141315000Y-111755000D03*
X141315000Y-113025000D03*
X141315000Y-114295000D03*
X141315000Y-115565000D03*
X136365000Y-115565000D03*
X136365000Y-114295000D03*
X136365000Y-113025000D03*
X136365000Y-111755000D03*
%TD*%
%TO.C,R8*%
G36*
G01*
X134315000Y-117852500D02*
X134315000Y-118327500D01*
G75*
G02*
X134077500Y-118565000I-237500J0D01*
G01*
X133577500Y-118565000D01*
G75*
G02*
X133340000Y-118327500I0J237500D01*
G01*
X133340000Y-117852500D01*
G75*
G02*
X133577500Y-117615000I237500J0D01*
G01*
X134077500Y-117615000D01*
G75*
G02*
X134315000Y-117852500I0J-237500D01*
G01*
G37*
G36*
G01*
X136140000Y-117852500D02*
X136140000Y-118327500D01*
G75*
G02*
X135902500Y-118565000I-237500J0D01*
G01*
X135402500Y-118565000D01*
G75*
G02*
X135165000Y-118327500I0J237500D01*
G01*
X135165000Y-117852500D01*
G75*
G02*
X135402500Y-117615000I237500J0D01*
G01*
X135902500Y-117615000D01*
G75*
G02*
X136140000Y-117852500I0J-237500D01*
G01*
G37*
%TD*%
D10*
%TO.C,J4*%
X134540000Y-122440000D03*
X134540000Y-121170000D03*
X133270000Y-122440000D03*
X133270000Y-121170000D03*
X132000000Y-122440000D03*
X132000000Y-121170000D03*
X130730000Y-122440000D03*
X130730000Y-121170000D03*
X129460000Y-122440000D03*
D11*
X129460000Y-121170000D03*
%TD*%
D15*
%TO.C,J2*%
X139930000Y-104780000D03*
D16*
X141520000Y-105580000D03*
X141520000Y-103980000D03*
%TD*%
D15*
%TO.C,J1*%
X134720000Y-104780000D03*
D16*
X133130000Y-103980000D03*
X133130000Y-105580000D03*
%TD*%
%TO.C,FB1*%
G36*
G01*
X123087500Y-107675000D02*
X122612500Y-107675000D01*
G75*
G02*
X122375000Y-107437500I0J237500D01*
G01*
X122375000Y-106837500D01*
G75*
G02*
X122612500Y-106600000I237500J0D01*
G01*
X123087500Y-106600000D01*
G75*
G02*
X123325000Y-106837500I0J-237500D01*
G01*
X123325000Y-107437500D01*
G75*
G02*
X123087500Y-107675000I-237500J0D01*
G01*
G37*
G36*
G01*
X123087500Y-109400000D02*
X122612500Y-109400000D01*
G75*
G02*
X122375000Y-109162500I0J237500D01*
G01*
X122375000Y-108562500D01*
G75*
G02*
X122612500Y-108325000I237500J0D01*
G01*
X123087500Y-108325000D01*
G75*
G02*
X123325000Y-108562500I0J-237500D01*
G01*
X123325000Y-109162500D01*
G75*
G02*
X123087500Y-109400000I-237500J0D01*
G01*
G37*
%TD*%
%TO.C,C8*%
G36*
G01*
X125785000Y-111527500D02*
X125785000Y-111052500D01*
G75*
G02*
X126022500Y-110815000I237500J0D01*
G01*
X126622500Y-110815000D01*
G75*
G02*
X126860000Y-111052500I0J-237500D01*
G01*
X126860000Y-111527500D01*
G75*
G02*
X126622500Y-111765000I-237500J0D01*
G01*
X126022500Y-111765000D01*
G75*
G02*
X125785000Y-111527500I0J237500D01*
G01*
G37*
G36*
G01*
X124060000Y-111527500D02*
X124060000Y-111052500D01*
G75*
G02*
X124297500Y-110815000I237500J0D01*
G01*
X124897500Y-110815000D01*
G75*
G02*
X125135000Y-111052500I0J-237500D01*
G01*
X125135000Y-111527500D01*
G75*
G02*
X124897500Y-111765000I-237500J0D01*
G01*
X124297500Y-111765000D01*
G75*
G02*
X124060000Y-111527500I0J237500D01*
G01*
G37*
%TD*%
%TO.C,C7*%
G36*
G01*
X123855000Y-105767500D02*
X123855000Y-105292500D01*
G75*
G02*
X124092500Y-105055000I237500J0D01*
G01*
X124692500Y-105055000D01*
G75*
G02*
X124930000Y-105292500I0J-237500D01*
G01*
X124930000Y-105767500D01*
G75*
G02*
X124692500Y-106005000I-237500J0D01*
G01*
X124092500Y-106005000D01*
G75*
G02*
X123855000Y-105767500I0J237500D01*
G01*
G37*
G36*
G01*
X122130000Y-105767500D02*
X122130000Y-105292500D01*
G75*
G02*
X122367500Y-105055000I237500J0D01*
G01*
X122967500Y-105055000D01*
G75*
G02*
X123205000Y-105292500I0J-237500D01*
G01*
X123205000Y-105767500D01*
G75*
G02*
X122967500Y-106005000I-237500J0D01*
G01*
X122367500Y-106005000D01*
G75*
G02*
X122130000Y-105767500I0J237500D01*
G01*
G37*
%TD*%
%TO.C,C4*%
G36*
G01*
X122365000Y-112137500D02*
X122365000Y-111662500D01*
G75*
G02*
X122602500Y-111425000I237500J0D01*
G01*
X123202500Y-111425000D01*
G75*
G02*
X123440000Y-111662500I0J-237500D01*
G01*
X123440000Y-112137500D01*
G75*
G02*
X123202500Y-112375000I-237500J0D01*
G01*
X122602500Y-112375000D01*
G75*
G02*
X122365000Y-112137500I0J237500D01*
G01*
G37*
G36*
G01*
X120640000Y-112137500D02*
X120640000Y-111662500D01*
G75*
G02*
X120877500Y-111425000I237500J0D01*
G01*
X121477500Y-111425000D01*
G75*
G02*
X121715000Y-111662500I0J-237500D01*
G01*
X121715000Y-112137500D01*
G75*
G02*
X121477500Y-112375000I-237500J0D01*
G01*
X120877500Y-112375000D01*
G75*
G02*
X120640000Y-112137500I0J237500D01*
G01*
G37*
%TD*%
%TO.C,C2*%
G36*
G01*
X121022500Y-108305000D02*
X121497500Y-108305000D01*
G75*
G02*
X121735000Y-108542500I0J-237500D01*
G01*
X121735000Y-109142500D01*
G75*
G02*
X121497500Y-109380000I-237500J0D01*
G01*
X121022500Y-109380000D01*
G75*
G02*
X120785000Y-109142500I0J237500D01*
G01*
X120785000Y-108542500D01*
G75*
G02*
X121022500Y-108305000I237500J0D01*
G01*
G37*
G36*
G01*
X121022500Y-106580000D02*
X121497500Y-106580000D01*
G75*
G02*
X121735000Y-106817500I0J-237500D01*
G01*
X121735000Y-107417500D01*
G75*
G02*
X121497500Y-107655000I-237500J0D01*
G01*
X121022500Y-107655000D01*
G75*
G02*
X120785000Y-107417500I0J237500D01*
G01*
X120785000Y-106817500D01*
G75*
G02*
X121022500Y-106580000I237500J0D01*
G01*
G37*
%TD*%
%TO.C,C1*%
G36*
G01*
X121715000Y-110312500D02*
X121715000Y-110787500D01*
G75*
G02*
X121477500Y-111025000I-237500J0D01*
G01*
X120877500Y-111025000D01*
G75*
G02*
X120640000Y-110787500I0J237500D01*
G01*
X120640000Y-110312500D01*
G75*
G02*
X120877500Y-110075000I237500J0D01*
G01*
X121477500Y-110075000D01*
G75*
G02*
X121715000Y-110312500I0J-237500D01*
G01*
G37*
G36*
G01*
X123440000Y-110312500D02*
X123440000Y-110787500D01*
G75*
G02*
X123202500Y-111025000I-237500J0D01*
G01*
X122602500Y-111025000D01*
G75*
G02*
X122365000Y-110787500I0J237500D01*
G01*
X122365000Y-110312500D01*
G75*
G02*
X122602500Y-110075000I237500J0D01*
G01*
X123202500Y-110075000D01*
G75*
G02*
X123440000Y-110312500I0J-237500D01*
G01*
G37*
%TD*%
M02*
