%TF.GenerationSoftware,KiCad,Pcbnew,(5.1.8)-1*%
%TF.CreationDate,2021-09-13T15:45:39-04:00*%
%TF.ProjectId,IR_TEMP_V1,49525f54-454d-4505-9f56-312e6b696361,rev?*%
%TF.SameCoordinates,Original*%
%TF.FileFunction,Copper,L2,Bot*%
%TF.FilePolarity,Positive*%
%FSLAX46Y46*%
G04 Gerber Fmt 4.6, Leading zero omitted, Abs format (unit mm)*
G04 Created by KiCad (PCBNEW (5.1.8)-1) date 2021-09-13 15:45:39*
%MOMM*%
%LPD*%
G01*
G04 APERTURE LIST*
%TA.AperFunction,SMDPad,CuDef*%
%ADD10R,1.500000X1.000000*%
%TD*%
%TA.AperFunction,ComponentPad*%
%ADD11C,1.100000*%
%TD*%
%TA.AperFunction,ComponentPad*%
%ADD12R,1.100000X1.100000*%
%TD*%
%TA.AperFunction,ViaPad*%
%ADD13C,0.635000*%
%TD*%
%TA.AperFunction,ViaPad*%
%ADD14C,0.508000*%
%TD*%
%TA.AperFunction,Conductor*%
%ADD15C,0.152400*%
%TD*%
%TA.AperFunction,Conductor*%
%ADD16C,0.076200*%
%TD*%
%TA.AperFunction,Conductor*%
%ADD17C,0.100000*%
%TD*%
G04 APERTURE END LIST*
D10*
%TO.P,J12,1*%
%TO.N,/MOSI*%
X109940000Y-71166000D03*
%TD*%
%TO.P,J11,1*%
%TO.N,/SCLK*%
X109940000Y-69742000D03*
%TD*%
%TO.P,J10,1*%
%TO.N,/Temp_A*%
X109940000Y-66894000D03*
%TD*%
%TO.P,J9,1*%
%TO.N,/SPICS*%
X109940000Y-68318000D03*
%TD*%
%TO.P,J8,1*%
%TO.N,GND*%
X109940000Y-72590000D03*
%TD*%
%TO.P,J7,1*%
%TO.N,+3V3*%
X109940000Y-65470000D03*
%TD*%
D11*
%TO.P,U1,4*%
%TO.N,/CMOUT*%
X114898022Y-63101978D03*
%TO.P,U1,3*%
%TO.N,/Thermistor*%
X113101978Y-63101978D03*
%TO.P,U1,2*%
%TO.N,Net-(C3-Pad2)*%
X113101978Y-64898022D03*
D12*
%TO.P,U1,1*%
%TO.N,GND*%
X114898022Y-64898022D03*
%TD*%
%TO.P,C6,2*%
%TO.N,/CMOUT*%
%TA.AperFunction,SMDPad,CuDef*%
G36*
G01*
X114915000Y-59760000D02*
X115225000Y-59760000D01*
G75*
G02*
X115380000Y-59915000I0J-155000D01*
G01*
X115380000Y-60340000D01*
G75*
G02*
X115225000Y-60495000I-155000J0D01*
G01*
X114915000Y-60495000D01*
G75*
G02*
X114760000Y-60340000I0J155000D01*
G01*
X114760000Y-59915000D01*
G75*
G02*
X114915000Y-59760000I155000J0D01*
G01*
G37*
%TD.AperFunction*%
%TO.P,C6,1*%
%TO.N,/A1*%
%TA.AperFunction,SMDPad,CuDef*%
G36*
G01*
X114915000Y-58625000D02*
X115225000Y-58625000D01*
G75*
G02*
X115380000Y-58780000I0J-155000D01*
G01*
X115380000Y-59205000D01*
G75*
G02*
X115225000Y-59360000I-155000J0D01*
G01*
X114915000Y-59360000D01*
G75*
G02*
X114760000Y-59205000I0J155000D01*
G01*
X114760000Y-58780000D01*
G75*
G02*
X114915000Y-58625000I155000J0D01*
G01*
G37*
%TD.AperFunction*%
%TD*%
%TO.P,R3,1*%
%TO.N,/A1*%
%TA.AperFunction,SMDPad,CuDef*%
G36*
G01*
X113480000Y-58625000D02*
X113800000Y-58625000D01*
G75*
G02*
X113960000Y-58785000I0J-160000D01*
G01*
X113960000Y-59180000D01*
G75*
G02*
X113800000Y-59340000I-160000J0D01*
G01*
X113480000Y-59340000D01*
G75*
G02*
X113320000Y-59180000I0J160000D01*
G01*
X113320000Y-58785000D01*
G75*
G02*
X113480000Y-58625000I160000J0D01*
G01*
G37*
%TD.AperFunction*%
%TO.P,R3,2*%
%TO.N,/A0*%
%TA.AperFunction,SMDPad,CuDef*%
G36*
G01*
X113480000Y-59820000D02*
X113800000Y-59820000D01*
G75*
G02*
X113960000Y-59980000I0J-160000D01*
G01*
X113960000Y-60375000D01*
G75*
G02*
X113800000Y-60535000I-160000J0D01*
G01*
X113480000Y-60535000D01*
G75*
G02*
X113320000Y-60375000I0J160000D01*
G01*
X113320000Y-59980000D01*
G75*
G02*
X113480000Y-59820000I160000J0D01*
G01*
G37*
%TD.AperFunction*%
%TD*%
D13*
%TO.N,+3V3*%
X109940000Y-65470000D03*
D14*
%TO.N,GND*%
X116060000Y-62480000D03*
X114400000Y-61000000D03*
X112740000Y-55820000D03*
X115260000Y-55870000D03*
X114260000Y-57680000D03*
X114080000Y-68460000D03*
X116850000Y-68420000D03*
X113800000Y-65880000D03*
X117330000Y-65240000D03*
X112530000Y-72180000D03*
X115290000Y-72040000D03*
X115120000Y-70090000D03*
X109540000Y-63090000D03*
X110420000Y-62220000D03*
X109660000Y-57140000D03*
X109670000Y-59040000D03*
X111300000Y-70470000D03*
X112160000Y-69930000D03*
X111220000Y-68970000D03*
X111240000Y-67700000D03*
X118270000Y-62580000D03*
%TO.N,/CMOUT*%
X115070000Y-60127500D03*
%TO.N,/Temp_A*%
X109940000Y-66894000D03*
%TO.N,/A1*%
X115070000Y-58992500D03*
%TO.N,/MOSI*%
X112180000Y-62210000D03*
X109940000Y-71166000D03*
%TO.N,/SCLK*%
X112710000Y-60960000D03*
X109940000Y-69742000D03*
%TO.N,/SPICS*%
X112550000Y-59180000D03*
X109940000Y-68318000D03*
%TO.N,/A0*%
X113640000Y-60177500D03*
%TD*%
D15*
%TO.N,/A1*%
X115060000Y-58982500D02*
X115070000Y-58992500D01*
X113640000Y-58982500D02*
X115060000Y-58982500D01*
%TO.N,/MOSI*%
X112180000Y-62210000D02*
X112180000Y-65580000D01*
X112180000Y-65580000D02*
X112850000Y-66250000D01*
X112850000Y-66250000D02*
X112850000Y-70320000D01*
X112004000Y-71166000D02*
X109940000Y-71166000D01*
X112850000Y-70320000D02*
X112004000Y-71166000D01*
%TO.N,/SCLK*%
X112710000Y-60960000D02*
X111600000Y-62070000D01*
X111600000Y-62070000D02*
X111600000Y-65620000D01*
X111600000Y-65620000D02*
X112545190Y-66565190D01*
X112545190Y-66565190D02*
X112545190Y-68534810D01*
X111338000Y-69742000D02*
X109940000Y-69742000D01*
X112545190Y-68534810D02*
X111338000Y-69742000D01*
%TO.N,/SPICS*%
X112550000Y-59180000D02*
X112550000Y-59940000D01*
X112550000Y-59940000D02*
X111150000Y-61340000D01*
X111150000Y-61340000D02*
X111150000Y-65760000D01*
X111150000Y-65760000D02*
X112170000Y-66780000D01*
X112170000Y-66780000D02*
X112170000Y-67800000D01*
X111652000Y-68318000D02*
X109940000Y-68318000D01*
X112170000Y-67800000D02*
X111652000Y-68318000D01*
%TD*%
D16*
%TO.N,GND*%
X117381913Y-54251408D02*
X117183455Y-54333612D01*
X117004847Y-54452954D01*
X116852954Y-54604847D01*
X116733612Y-54783455D01*
X116651408Y-54981913D01*
X116609500Y-55192595D01*
X116609500Y-55407405D01*
X116651408Y-55618087D01*
X116733612Y-55816545D01*
X116852954Y-55995153D01*
X117004847Y-56147046D01*
X117183455Y-56266388D01*
X117381913Y-56348592D01*
X117592595Y-56390500D01*
X117807405Y-56390500D01*
X118018087Y-56348592D01*
X118216545Y-56266388D01*
X118395153Y-56147046D01*
X118547046Y-55995153D01*
X118666388Y-55816545D01*
X118748592Y-55618087D01*
X118784500Y-55437569D01*
X118784501Y-72562436D01*
X118748592Y-72381913D01*
X118666388Y-72183455D01*
X118547046Y-72004847D01*
X118395153Y-71852954D01*
X118216545Y-71733612D01*
X118018087Y-71651408D01*
X117807405Y-71609500D01*
X117592595Y-71609500D01*
X117381913Y-71651408D01*
X117183455Y-71733612D01*
X117004847Y-71852954D01*
X116852954Y-72004847D01*
X116733612Y-72183455D01*
X116651408Y-72381913D01*
X116609500Y-72592595D01*
X116609500Y-72807405D01*
X116651408Y-73018087D01*
X116733612Y-73216545D01*
X116852954Y-73395153D01*
X117004847Y-73547046D01*
X117183455Y-73666388D01*
X117381913Y-73748592D01*
X117562431Y-73784500D01*
X109215500Y-73784500D01*
X109215500Y-73281384D01*
X109803475Y-73280500D01*
X109851100Y-73232875D01*
X109851100Y-72678900D01*
X110028900Y-72678900D01*
X110028900Y-73232875D01*
X110076525Y-73280500D01*
X110690000Y-73281422D01*
X110727345Y-73277744D01*
X110763254Y-73266851D01*
X110796348Y-73249162D01*
X110825356Y-73225356D01*
X110849162Y-73196348D01*
X110866851Y-73163254D01*
X110877744Y-73127345D01*
X110881422Y-73090000D01*
X110880500Y-72726525D01*
X110832875Y-72678900D01*
X110028900Y-72678900D01*
X109851100Y-72678900D01*
X109831100Y-72678900D01*
X109831100Y-72501100D01*
X109851100Y-72501100D01*
X109851100Y-71947125D01*
X110028900Y-71947125D01*
X110028900Y-72501100D01*
X110832875Y-72501100D01*
X110880500Y-72453475D01*
X110881422Y-72090000D01*
X110877744Y-72052655D01*
X110866851Y-72016746D01*
X110849162Y-71983652D01*
X110825356Y-71954644D01*
X110796348Y-71930838D01*
X110763254Y-71913149D01*
X110727345Y-71902256D01*
X110690000Y-71898578D01*
X110076525Y-71899500D01*
X110028900Y-71947125D01*
X109851100Y-71947125D01*
X109803475Y-71899500D01*
X109215500Y-71898616D01*
X109215500Y-71857421D01*
X110690000Y-71857421D01*
X110727344Y-71853743D01*
X110763254Y-71842850D01*
X110796348Y-71825161D01*
X110825355Y-71801355D01*
X110849161Y-71772348D01*
X110866850Y-71739254D01*
X110877743Y-71703344D01*
X110881421Y-71666000D01*
X110881421Y-71432700D01*
X111990904Y-71432700D01*
X112004000Y-71433990D01*
X112017096Y-71432700D01*
X112017098Y-71432700D01*
X112056282Y-71428841D01*
X112106555Y-71413590D01*
X112152887Y-71388826D01*
X112193498Y-71355498D01*
X112201854Y-71345316D01*
X113029321Y-70517850D01*
X113039498Y-70509498D01*
X113072826Y-70468887D01*
X113084353Y-70447320D01*
X113097590Y-70422556D01*
X113112841Y-70372283D01*
X113117990Y-70320000D01*
X113116700Y-70306902D01*
X113116700Y-66263095D01*
X113117990Y-66249999D01*
X113116497Y-66234839D01*
X113112841Y-66197718D01*
X113097590Y-66147445D01*
X113072826Y-66101113D01*
X113039498Y-66060502D01*
X113029321Y-66052150D01*
X112446700Y-65469530D01*
X112446700Y-65250194D01*
X112526794Y-65370063D01*
X112629937Y-65473206D01*
X112751220Y-65554245D01*
X112885982Y-65610065D01*
X113029045Y-65638522D01*
X113174911Y-65638522D01*
X113317974Y-65610065D01*
X113452736Y-65554245D01*
X113574019Y-65473206D01*
X113599203Y-65448022D01*
X114156600Y-65448022D01*
X114160278Y-65485367D01*
X114171171Y-65521276D01*
X114188860Y-65554370D01*
X114212666Y-65583378D01*
X114241674Y-65607184D01*
X114274768Y-65624873D01*
X114310677Y-65635766D01*
X114348022Y-65639444D01*
X114761497Y-65638522D01*
X114809122Y-65590897D01*
X114809122Y-64986922D01*
X114986922Y-64986922D01*
X114986922Y-65590897D01*
X115034547Y-65638522D01*
X115448022Y-65639444D01*
X115485367Y-65635766D01*
X115521276Y-65624873D01*
X115554370Y-65607184D01*
X115583378Y-65583378D01*
X115607184Y-65554370D01*
X115624873Y-65521276D01*
X115635766Y-65485367D01*
X115639444Y-65448022D01*
X115638522Y-65034547D01*
X115590897Y-64986922D01*
X114986922Y-64986922D01*
X114809122Y-64986922D01*
X114205147Y-64986922D01*
X114157522Y-65034547D01*
X114156600Y-65448022D01*
X113599203Y-65448022D01*
X113677162Y-65370063D01*
X113758201Y-65248780D01*
X113814021Y-65114018D01*
X113842478Y-64970955D01*
X113842478Y-64825089D01*
X113814021Y-64682026D01*
X113758201Y-64547264D01*
X113677162Y-64425981D01*
X113599203Y-64348022D01*
X114156600Y-64348022D01*
X114157522Y-64761497D01*
X114205147Y-64809122D01*
X114809122Y-64809122D01*
X114809122Y-64205147D01*
X114986922Y-64205147D01*
X114986922Y-64809122D01*
X115590897Y-64809122D01*
X115638522Y-64761497D01*
X115639444Y-64348022D01*
X115635766Y-64310677D01*
X115624873Y-64274768D01*
X115607184Y-64241674D01*
X115583378Y-64212666D01*
X115554370Y-64188860D01*
X115521276Y-64171171D01*
X115485367Y-64160278D01*
X115448022Y-64156600D01*
X115034547Y-64157522D01*
X114986922Y-64205147D01*
X114809122Y-64205147D01*
X114761497Y-64157522D01*
X114348022Y-64156600D01*
X114310677Y-64160278D01*
X114274768Y-64171171D01*
X114241674Y-64188860D01*
X114212666Y-64212666D01*
X114188860Y-64241674D01*
X114171171Y-64274768D01*
X114160278Y-64310677D01*
X114156600Y-64348022D01*
X113599203Y-64348022D01*
X113574019Y-64322838D01*
X113452736Y-64241799D01*
X113317974Y-64185979D01*
X113174911Y-64157522D01*
X113029045Y-64157522D01*
X112885982Y-64185979D01*
X112751220Y-64241799D01*
X112629937Y-64322838D01*
X112526794Y-64425981D01*
X112446700Y-64545850D01*
X112446700Y-63454150D01*
X112526794Y-63574019D01*
X112629937Y-63677162D01*
X112751220Y-63758201D01*
X112885982Y-63814021D01*
X113029045Y-63842478D01*
X113174911Y-63842478D01*
X113317974Y-63814021D01*
X113452736Y-63758201D01*
X113574019Y-63677162D01*
X113677162Y-63574019D01*
X113758201Y-63452736D01*
X113814021Y-63317974D01*
X113842478Y-63174911D01*
X113842478Y-63029045D01*
X114157522Y-63029045D01*
X114157522Y-63174911D01*
X114185979Y-63317974D01*
X114241799Y-63452736D01*
X114322838Y-63574019D01*
X114425981Y-63677162D01*
X114547264Y-63758201D01*
X114682026Y-63814021D01*
X114825089Y-63842478D01*
X114970955Y-63842478D01*
X115114018Y-63814021D01*
X115248780Y-63758201D01*
X115370063Y-63677162D01*
X115473206Y-63574019D01*
X115554245Y-63452736D01*
X115610065Y-63317974D01*
X115638522Y-63174911D01*
X115638522Y-63029045D01*
X115610065Y-62885982D01*
X115554245Y-62751220D01*
X115473206Y-62629937D01*
X115370063Y-62526794D01*
X115248780Y-62445755D01*
X115114018Y-62389935D01*
X114970955Y-62361478D01*
X114825089Y-62361478D01*
X114682026Y-62389935D01*
X114547264Y-62445755D01*
X114425981Y-62526794D01*
X114322838Y-62629937D01*
X114241799Y-62751220D01*
X114185979Y-62885982D01*
X114157522Y-63029045D01*
X113842478Y-63029045D01*
X113814021Y-62885982D01*
X113758201Y-62751220D01*
X113677162Y-62629937D01*
X113574019Y-62526794D01*
X113452736Y-62445755D01*
X113317974Y-62389935D01*
X113174911Y-62361478D01*
X113029045Y-62361478D01*
X112885982Y-62389935D01*
X112751220Y-62445755D01*
X112629937Y-62526794D01*
X112526794Y-62629937D01*
X112446700Y-62749806D01*
X112446700Y-62566393D01*
X112463352Y-62555266D01*
X112525266Y-62493352D01*
X112573911Y-62420550D01*
X112607418Y-62339656D01*
X112624500Y-62253779D01*
X112624500Y-62166221D01*
X112607418Y-62080344D01*
X112573911Y-61999450D01*
X112525266Y-61926648D01*
X112463352Y-61864734D01*
X112390550Y-61816089D01*
X112309656Y-61782582D01*
X112272066Y-61775105D01*
X112646578Y-61400593D01*
X112666221Y-61404500D01*
X112753779Y-61404500D01*
X112839656Y-61387418D01*
X112920550Y-61353911D01*
X112993352Y-61305266D01*
X113055266Y-61243352D01*
X113103911Y-61170550D01*
X113137418Y-61089656D01*
X113154500Y-61003779D01*
X113154500Y-60916221D01*
X113137418Y-60830344D01*
X113103911Y-60749450D01*
X113055266Y-60676648D01*
X112993352Y-60614734D01*
X112920550Y-60566089D01*
X112839656Y-60532582D01*
X112753779Y-60515500D01*
X112666221Y-60515500D01*
X112580344Y-60532582D01*
X112499450Y-60566089D01*
X112426648Y-60614734D01*
X112364734Y-60676648D01*
X112316089Y-60749450D01*
X112282582Y-60830344D01*
X112265500Y-60916221D01*
X112265500Y-61003779D01*
X112269407Y-61023422D01*
X111420684Y-61872146D01*
X111416700Y-61875416D01*
X111416700Y-61450470D01*
X112729321Y-60137850D01*
X112739498Y-60129498D01*
X112772826Y-60088887D01*
X112797590Y-60042555D01*
X112812841Y-59992282D01*
X112814050Y-59980000D01*
X113128579Y-59980000D01*
X113128579Y-60375000D01*
X113135331Y-60443559D01*
X113155329Y-60509483D01*
X113187804Y-60570239D01*
X113231508Y-60623492D01*
X113284761Y-60667196D01*
X113345517Y-60699671D01*
X113411441Y-60719669D01*
X113480000Y-60726421D01*
X113800000Y-60726421D01*
X113868559Y-60719669D01*
X113934483Y-60699671D01*
X113995239Y-60667196D01*
X114048492Y-60623492D01*
X114092196Y-60570239D01*
X114124671Y-60509483D01*
X114144669Y-60443559D01*
X114151421Y-60375000D01*
X114151421Y-59980000D01*
X114145020Y-59915000D01*
X114568579Y-59915000D01*
X114568579Y-60340000D01*
X114575235Y-60407583D01*
X114594949Y-60472570D01*
X114626961Y-60532461D01*
X114670043Y-60584957D01*
X114722539Y-60628039D01*
X114782430Y-60660051D01*
X114847417Y-60679765D01*
X114915000Y-60686421D01*
X115225000Y-60686421D01*
X115292583Y-60679765D01*
X115357570Y-60660051D01*
X115417461Y-60628039D01*
X115469957Y-60584957D01*
X115513039Y-60532461D01*
X115545051Y-60472570D01*
X115564765Y-60407583D01*
X115571421Y-60340000D01*
X115571421Y-59915000D01*
X115564765Y-59847417D01*
X115545051Y-59782430D01*
X115513039Y-59722539D01*
X115469957Y-59670043D01*
X115417461Y-59626961D01*
X115357570Y-59594949D01*
X115292583Y-59575235D01*
X115225000Y-59568579D01*
X114915000Y-59568579D01*
X114847417Y-59575235D01*
X114782430Y-59594949D01*
X114722539Y-59626961D01*
X114670043Y-59670043D01*
X114626961Y-59722539D01*
X114594949Y-59782430D01*
X114575235Y-59847417D01*
X114568579Y-59915000D01*
X114145020Y-59915000D01*
X114144669Y-59911441D01*
X114124671Y-59845517D01*
X114092196Y-59784761D01*
X114048492Y-59731508D01*
X113995239Y-59687804D01*
X113934483Y-59655329D01*
X113868559Y-59635331D01*
X113800000Y-59628579D01*
X113480000Y-59628579D01*
X113411441Y-59635331D01*
X113345517Y-59655329D01*
X113284761Y-59687804D01*
X113231508Y-59731508D01*
X113187804Y-59784761D01*
X113155329Y-59845517D01*
X113135331Y-59911441D01*
X113128579Y-59980000D01*
X112814050Y-59980000D01*
X112816700Y-59953098D01*
X112816700Y-59953096D01*
X112817990Y-59940000D01*
X112816700Y-59926904D01*
X112816700Y-59536393D01*
X112833352Y-59525266D01*
X112895266Y-59463352D01*
X112943911Y-59390550D01*
X112977418Y-59309656D01*
X112994500Y-59223779D01*
X112994500Y-59136221D01*
X112977418Y-59050344D01*
X112943911Y-58969450D01*
X112895266Y-58896648D01*
X112833352Y-58834734D01*
X112760550Y-58786089D01*
X112757921Y-58785000D01*
X113128579Y-58785000D01*
X113128579Y-59180000D01*
X113135331Y-59248559D01*
X113155329Y-59314483D01*
X113187804Y-59375239D01*
X113231508Y-59428492D01*
X113284761Y-59472196D01*
X113345517Y-59504671D01*
X113411441Y-59524669D01*
X113480000Y-59531421D01*
X113800000Y-59531421D01*
X113868559Y-59524669D01*
X113934483Y-59504671D01*
X113995239Y-59472196D01*
X114048492Y-59428492D01*
X114092196Y-59375239D01*
X114124671Y-59314483D01*
X114144475Y-59249200D01*
X114572932Y-59249200D01*
X114575235Y-59272583D01*
X114594949Y-59337570D01*
X114626961Y-59397461D01*
X114670043Y-59449957D01*
X114722539Y-59493039D01*
X114782430Y-59525051D01*
X114847417Y-59544765D01*
X114915000Y-59551421D01*
X115225000Y-59551421D01*
X115292583Y-59544765D01*
X115357570Y-59525051D01*
X115417461Y-59493039D01*
X115469957Y-59449957D01*
X115513039Y-59397461D01*
X115545051Y-59337570D01*
X115564765Y-59272583D01*
X115571421Y-59205000D01*
X115571421Y-58780000D01*
X115564765Y-58712417D01*
X115545051Y-58647430D01*
X115513039Y-58587539D01*
X115469957Y-58535043D01*
X115417461Y-58491961D01*
X115357570Y-58459949D01*
X115292583Y-58440235D01*
X115225000Y-58433579D01*
X114915000Y-58433579D01*
X114847417Y-58440235D01*
X114782430Y-58459949D01*
X114722539Y-58491961D01*
X114670043Y-58535043D01*
X114626961Y-58587539D01*
X114594949Y-58647430D01*
X114575235Y-58712417D01*
X114574902Y-58715800D01*
X114144475Y-58715800D01*
X114124671Y-58650517D01*
X114092196Y-58589761D01*
X114048492Y-58536508D01*
X113995239Y-58492804D01*
X113934483Y-58460329D01*
X113868559Y-58440331D01*
X113800000Y-58433579D01*
X113480000Y-58433579D01*
X113411441Y-58440331D01*
X113345517Y-58460329D01*
X113284761Y-58492804D01*
X113231508Y-58536508D01*
X113187804Y-58589761D01*
X113155329Y-58650517D01*
X113135331Y-58716441D01*
X113128579Y-58785000D01*
X112757921Y-58785000D01*
X112679656Y-58752582D01*
X112593779Y-58735500D01*
X112506221Y-58735500D01*
X112420344Y-58752582D01*
X112339450Y-58786089D01*
X112266648Y-58834734D01*
X112204734Y-58896648D01*
X112156089Y-58969450D01*
X112122582Y-59050344D01*
X112105500Y-59136221D01*
X112105500Y-59223779D01*
X112122582Y-59309656D01*
X112156089Y-59390550D01*
X112204734Y-59463352D01*
X112266648Y-59525266D01*
X112283300Y-59536393D01*
X112283301Y-59829528D01*
X110970684Y-61142146D01*
X110960502Y-61150502D01*
X110927174Y-61191113D01*
X110902410Y-61237446D01*
X110887159Y-61287719D01*
X110885431Y-61305266D01*
X110882010Y-61340000D01*
X110883300Y-61353096D01*
X110883301Y-65746894D01*
X110882010Y-65760000D01*
X110886229Y-65802826D01*
X110887160Y-65812282D01*
X110902411Y-65862555D01*
X110927175Y-65908887D01*
X110960503Y-65949498D01*
X110970679Y-65957849D01*
X111903300Y-66890471D01*
X111903301Y-67689528D01*
X111541530Y-68051300D01*
X110881421Y-68051300D01*
X110881421Y-67818000D01*
X110877743Y-67780656D01*
X110866850Y-67744746D01*
X110849161Y-67711652D01*
X110825355Y-67682645D01*
X110796348Y-67658839D01*
X110763254Y-67641150D01*
X110727344Y-67630257D01*
X110690000Y-67626579D01*
X109215500Y-67626579D01*
X109215500Y-67585421D01*
X110690000Y-67585421D01*
X110727344Y-67581743D01*
X110763254Y-67570850D01*
X110796348Y-67553161D01*
X110825355Y-67529355D01*
X110849161Y-67500348D01*
X110866850Y-67467254D01*
X110877743Y-67431344D01*
X110881421Y-67394000D01*
X110881421Y-66394000D01*
X110877743Y-66356656D01*
X110866850Y-66320746D01*
X110849161Y-66287652D01*
X110825355Y-66258645D01*
X110796348Y-66234839D01*
X110763254Y-66217150D01*
X110727344Y-66206257D01*
X110690000Y-66202579D01*
X109215500Y-66202579D01*
X109215500Y-66161421D01*
X110690000Y-66161421D01*
X110727344Y-66157743D01*
X110763254Y-66146850D01*
X110796348Y-66129161D01*
X110825355Y-66105355D01*
X110849161Y-66076348D01*
X110866850Y-66043254D01*
X110877743Y-66007344D01*
X110881421Y-65970000D01*
X110881421Y-64970000D01*
X110877743Y-64932656D01*
X110866850Y-64896746D01*
X110849161Y-64863652D01*
X110825355Y-64834645D01*
X110796348Y-64810839D01*
X110763254Y-64793150D01*
X110727344Y-64782257D01*
X110690000Y-64778579D01*
X109215500Y-64778579D01*
X109215500Y-55437569D01*
X109251408Y-55618087D01*
X109333612Y-55816545D01*
X109452954Y-55995153D01*
X109604847Y-56147046D01*
X109783455Y-56266388D01*
X109981913Y-56348592D01*
X110192595Y-56390500D01*
X110407405Y-56390500D01*
X110618087Y-56348592D01*
X110816545Y-56266388D01*
X110995153Y-56147046D01*
X111147046Y-55995153D01*
X111266388Y-55816545D01*
X111348592Y-55618087D01*
X111390500Y-55407405D01*
X111390500Y-55192595D01*
X111348592Y-54981913D01*
X111266388Y-54783455D01*
X111147046Y-54604847D01*
X110995153Y-54452954D01*
X110816545Y-54333612D01*
X110618087Y-54251408D01*
X110437569Y-54215500D01*
X117562431Y-54215500D01*
X117381913Y-54251408D01*
%TA.AperFunction,Conductor*%
D17*
G36*
X117381913Y-54251408D02*
G01*
X117183455Y-54333612D01*
X117004847Y-54452954D01*
X116852954Y-54604847D01*
X116733612Y-54783455D01*
X116651408Y-54981913D01*
X116609500Y-55192595D01*
X116609500Y-55407405D01*
X116651408Y-55618087D01*
X116733612Y-55816545D01*
X116852954Y-55995153D01*
X117004847Y-56147046D01*
X117183455Y-56266388D01*
X117381913Y-56348592D01*
X117592595Y-56390500D01*
X117807405Y-56390500D01*
X118018087Y-56348592D01*
X118216545Y-56266388D01*
X118395153Y-56147046D01*
X118547046Y-55995153D01*
X118666388Y-55816545D01*
X118748592Y-55618087D01*
X118784500Y-55437569D01*
X118784501Y-72562436D01*
X118748592Y-72381913D01*
X118666388Y-72183455D01*
X118547046Y-72004847D01*
X118395153Y-71852954D01*
X118216545Y-71733612D01*
X118018087Y-71651408D01*
X117807405Y-71609500D01*
X117592595Y-71609500D01*
X117381913Y-71651408D01*
X117183455Y-71733612D01*
X117004847Y-71852954D01*
X116852954Y-72004847D01*
X116733612Y-72183455D01*
X116651408Y-72381913D01*
X116609500Y-72592595D01*
X116609500Y-72807405D01*
X116651408Y-73018087D01*
X116733612Y-73216545D01*
X116852954Y-73395153D01*
X117004847Y-73547046D01*
X117183455Y-73666388D01*
X117381913Y-73748592D01*
X117562431Y-73784500D01*
X109215500Y-73784500D01*
X109215500Y-73281384D01*
X109803475Y-73280500D01*
X109851100Y-73232875D01*
X109851100Y-72678900D01*
X110028900Y-72678900D01*
X110028900Y-73232875D01*
X110076525Y-73280500D01*
X110690000Y-73281422D01*
X110727345Y-73277744D01*
X110763254Y-73266851D01*
X110796348Y-73249162D01*
X110825356Y-73225356D01*
X110849162Y-73196348D01*
X110866851Y-73163254D01*
X110877744Y-73127345D01*
X110881422Y-73090000D01*
X110880500Y-72726525D01*
X110832875Y-72678900D01*
X110028900Y-72678900D01*
X109851100Y-72678900D01*
X109831100Y-72678900D01*
X109831100Y-72501100D01*
X109851100Y-72501100D01*
X109851100Y-71947125D01*
X110028900Y-71947125D01*
X110028900Y-72501100D01*
X110832875Y-72501100D01*
X110880500Y-72453475D01*
X110881422Y-72090000D01*
X110877744Y-72052655D01*
X110866851Y-72016746D01*
X110849162Y-71983652D01*
X110825356Y-71954644D01*
X110796348Y-71930838D01*
X110763254Y-71913149D01*
X110727345Y-71902256D01*
X110690000Y-71898578D01*
X110076525Y-71899500D01*
X110028900Y-71947125D01*
X109851100Y-71947125D01*
X109803475Y-71899500D01*
X109215500Y-71898616D01*
X109215500Y-71857421D01*
X110690000Y-71857421D01*
X110727344Y-71853743D01*
X110763254Y-71842850D01*
X110796348Y-71825161D01*
X110825355Y-71801355D01*
X110849161Y-71772348D01*
X110866850Y-71739254D01*
X110877743Y-71703344D01*
X110881421Y-71666000D01*
X110881421Y-71432700D01*
X111990904Y-71432700D01*
X112004000Y-71433990D01*
X112017096Y-71432700D01*
X112017098Y-71432700D01*
X112056282Y-71428841D01*
X112106555Y-71413590D01*
X112152887Y-71388826D01*
X112193498Y-71355498D01*
X112201854Y-71345316D01*
X113029321Y-70517850D01*
X113039498Y-70509498D01*
X113072826Y-70468887D01*
X113084353Y-70447320D01*
X113097590Y-70422556D01*
X113112841Y-70372283D01*
X113117990Y-70320000D01*
X113116700Y-70306902D01*
X113116700Y-66263095D01*
X113117990Y-66249999D01*
X113116497Y-66234839D01*
X113112841Y-66197718D01*
X113097590Y-66147445D01*
X113072826Y-66101113D01*
X113039498Y-66060502D01*
X113029321Y-66052150D01*
X112446700Y-65469530D01*
X112446700Y-65250194D01*
X112526794Y-65370063D01*
X112629937Y-65473206D01*
X112751220Y-65554245D01*
X112885982Y-65610065D01*
X113029045Y-65638522D01*
X113174911Y-65638522D01*
X113317974Y-65610065D01*
X113452736Y-65554245D01*
X113574019Y-65473206D01*
X113599203Y-65448022D01*
X114156600Y-65448022D01*
X114160278Y-65485367D01*
X114171171Y-65521276D01*
X114188860Y-65554370D01*
X114212666Y-65583378D01*
X114241674Y-65607184D01*
X114274768Y-65624873D01*
X114310677Y-65635766D01*
X114348022Y-65639444D01*
X114761497Y-65638522D01*
X114809122Y-65590897D01*
X114809122Y-64986922D01*
X114986922Y-64986922D01*
X114986922Y-65590897D01*
X115034547Y-65638522D01*
X115448022Y-65639444D01*
X115485367Y-65635766D01*
X115521276Y-65624873D01*
X115554370Y-65607184D01*
X115583378Y-65583378D01*
X115607184Y-65554370D01*
X115624873Y-65521276D01*
X115635766Y-65485367D01*
X115639444Y-65448022D01*
X115638522Y-65034547D01*
X115590897Y-64986922D01*
X114986922Y-64986922D01*
X114809122Y-64986922D01*
X114205147Y-64986922D01*
X114157522Y-65034547D01*
X114156600Y-65448022D01*
X113599203Y-65448022D01*
X113677162Y-65370063D01*
X113758201Y-65248780D01*
X113814021Y-65114018D01*
X113842478Y-64970955D01*
X113842478Y-64825089D01*
X113814021Y-64682026D01*
X113758201Y-64547264D01*
X113677162Y-64425981D01*
X113599203Y-64348022D01*
X114156600Y-64348022D01*
X114157522Y-64761497D01*
X114205147Y-64809122D01*
X114809122Y-64809122D01*
X114809122Y-64205147D01*
X114986922Y-64205147D01*
X114986922Y-64809122D01*
X115590897Y-64809122D01*
X115638522Y-64761497D01*
X115639444Y-64348022D01*
X115635766Y-64310677D01*
X115624873Y-64274768D01*
X115607184Y-64241674D01*
X115583378Y-64212666D01*
X115554370Y-64188860D01*
X115521276Y-64171171D01*
X115485367Y-64160278D01*
X115448022Y-64156600D01*
X115034547Y-64157522D01*
X114986922Y-64205147D01*
X114809122Y-64205147D01*
X114761497Y-64157522D01*
X114348022Y-64156600D01*
X114310677Y-64160278D01*
X114274768Y-64171171D01*
X114241674Y-64188860D01*
X114212666Y-64212666D01*
X114188860Y-64241674D01*
X114171171Y-64274768D01*
X114160278Y-64310677D01*
X114156600Y-64348022D01*
X113599203Y-64348022D01*
X113574019Y-64322838D01*
X113452736Y-64241799D01*
X113317974Y-64185979D01*
X113174911Y-64157522D01*
X113029045Y-64157522D01*
X112885982Y-64185979D01*
X112751220Y-64241799D01*
X112629937Y-64322838D01*
X112526794Y-64425981D01*
X112446700Y-64545850D01*
X112446700Y-63454150D01*
X112526794Y-63574019D01*
X112629937Y-63677162D01*
X112751220Y-63758201D01*
X112885982Y-63814021D01*
X113029045Y-63842478D01*
X113174911Y-63842478D01*
X113317974Y-63814021D01*
X113452736Y-63758201D01*
X113574019Y-63677162D01*
X113677162Y-63574019D01*
X113758201Y-63452736D01*
X113814021Y-63317974D01*
X113842478Y-63174911D01*
X113842478Y-63029045D01*
X114157522Y-63029045D01*
X114157522Y-63174911D01*
X114185979Y-63317974D01*
X114241799Y-63452736D01*
X114322838Y-63574019D01*
X114425981Y-63677162D01*
X114547264Y-63758201D01*
X114682026Y-63814021D01*
X114825089Y-63842478D01*
X114970955Y-63842478D01*
X115114018Y-63814021D01*
X115248780Y-63758201D01*
X115370063Y-63677162D01*
X115473206Y-63574019D01*
X115554245Y-63452736D01*
X115610065Y-63317974D01*
X115638522Y-63174911D01*
X115638522Y-63029045D01*
X115610065Y-62885982D01*
X115554245Y-62751220D01*
X115473206Y-62629937D01*
X115370063Y-62526794D01*
X115248780Y-62445755D01*
X115114018Y-62389935D01*
X114970955Y-62361478D01*
X114825089Y-62361478D01*
X114682026Y-62389935D01*
X114547264Y-62445755D01*
X114425981Y-62526794D01*
X114322838Y-62629937D01*
X114241799Y-62751220D01*
X114185979Y-62885982D01*
X114157522Y-63029045D01*
X113842478Y-63029045D01*
X113814021Y-62885982D01*
X113758201Y-62751220D01*
X113677162Y-62629937D01*
X113574019Y-62526794D01*
X113452736Y-62445755D01*
X113317974Y-62389935D01*
X113174911Y-62361478D01*
X113029045Y-62361478D01*
X112885982Y-62389935D01*
X112751220Y-62445755D01*
X112629937Y-62526794D01*
X112526794Y-62629937D01*
X112446700Y-62749806D01*
X112446700Y-62566393D01*
X112463352Y-62555266D01*
X112525266Y-62493352D01*
X112573911Y-62420550D01*
X112607418Y-62339656D01*
X112624500Y-62253779D01*
X112624500Y-62166221D01*
X112607418Y-62080344D01*
X112573911Y-61999450D01*
X112525266Y-61926648D01*
X112463352Y-61864734D01*
X112390550Y-61816089D01*
X112309656Y-61782582D01*
X112272066Y-61775105D01*
X112646578Y-61400593D01*
X112666221Y-61404500D01*
X112753779Y-61404500D01*
X112839656Y-61387418D01*
X112920550Y-61353911D01*
X112993352Y-61305266D01*
X113055266Y-61243352D01*
X113103911Y-61170550D01*
X113137418Y-61089656D01*
X113154500Y-61003779D01*
X113154500Y-60916221D01*
X113137418Y-60830344D01*
X113103911Y-60749450D01*
X113055266Y-60676648D01*
X112993352Y-60614734D01*
X112920550Y-60566089D01*
X112839656Y-60532582D01*
X112753779Y-60515500D01*
X112666221Y-60515500D01*
X112580344Y-60532582D01*
X112499450Y-60566089D01*
X112426648Y-60614734D01*
X112364734Y-60676648D01*
X112316089Y-60749450D01*
X112282582Y-60830344D01*
X112265500Y-60916221D01*
X112265500Y-61003779D01*
X112269407Y-61023422D01*
X111420684Y-61872146D01*
X111416700Y-61875416D01*
X111416700Y-61450470D01*
X112729321Y-60137850D01*
X112739498Y-60129498D01*
X112772826Y-60088887D01*
X112797590Y-60042555D01*
X112812841Y-59992282D01*
X112814050Y-59980000D01*
X113128579Y-59980000D01*
X113128579Y-60375000D01*
X113135331Y-60443559D01*
X113155329Y-60509483D01*
X113187804Y-60570239D01*
X113231508Y-60623492D01*
X113284761Y-60667196D01*
X113345517Y-60699671D01*
X113411441Y-60719669D01*
X113480000Y-60726421D01*
X113800000Y-60726421D01*
X113868559Y-60719669D01*
X113934483Y-60699671D01*
X113995239Y-60667196D01*
X114048492Y-60623492D01*
X114092196Y-60570239D01*
X114124671Y-60509483D01*
X114144669Y-60443559D01*
X114151421Y-60375000D01*
X114151421Y-59980000D01*
X114145020Y-59915000D01*
X114568579Y-59915000D01*
X114568579Y-60340000D01*
X114575235Y-60407583D01*
X114594949Y-60472570D01*
X114626961Y-60532461D01*
X114670043Y-60584957D01*
X114722539Y-60628039D01*
X114782430Y-60660051D01*
X114847417Y-60679765D01*
X114915000Y-60686421D01*
X115225000Y-60686421D01*
X115292583Y-60679765D01*
X115357570Y-60660051D01*
X115417461Y-60628039D01*
X115469957Y-60584957D01*
X115513039Y-60532461D01*
X115545051Y-60472570D01*
X115564765Y-60407583D01*
X115571421Y-60340000D01*
X115571421Y-59915000D01*
X115564765Y-59847417D01*
X115545051Y-59782430D01*
X115513039Y-59722539D01*
X115469957Y-59670043D01*
X115417461Y-59626961D01*
X115357570Y-59594949D01*
X115292583Y-59575235D01*
X115225000Y-59568579D01*
X114915000Y-59568579D01*
X114847417Y-59575235D01*
X114782430Y-59594949D01*
X114722539Y-59626961D01*
X114670043Y-59670043D01*
X114626961Y-59722539D01*
X114594949Y-59782430D01*
X114575235Y-59847417D01*
X114568579Y-59915000D01*
X114145020Y-59915000D01*
X114144669Y-59911441D01*
X114124671Y-59845517D01*
X114092196Y-59784761D01*
X114048492Y-59731508D01*
X113995239Y-59687804D01*
X113934483Y-59655329D01*
X113868559Y-59635331D01*
X113800000Y-59628579D01*
X113480000Y-59628579D01*
X113411441Y-59635331D01*
X113345517Y-59655329D01*
X113284761Y-59687804D01*
X113231508Y-59731508D01*
X113187804Y-59784761D01*
X113155329Y-59845517D01*
X113135331Y-59911441D01*
X113128579Y-59980000D01*
X112814050Y-59980000D01*
X112816700Y-59953098D01*
X112816700Y-59953096D01*
X112817990Y-59940000D01*
X112816700Y-59926904D01*
X112816700Y-59536393D01*
X112833352Y-59525266D01*
X112895266Y-59463352D01*
X112943911Y-59390550D01*
X112977418Y-59309656D01*
X112994500Y-59223779D01*
X112994500Y-59136221D01*
X112977418Y-59050344D01*
X112943911Y-58969450D01*
X112895266Y-58896648D01*
X112833352Y-58834734D01*
X112760550Y-58786089D01*
X112757921Y-58785000D01*
X113128579Y-58785000D01*
X113128579Y-59180000D01*
X113135331Y-59248559D01*
X113155329Y-59314483D01*
X113187804Y-59375239D01*
X113231508Y-59428492D01*
X113284761Y-59472196D01*
X113345517Y-59504671D01*
X113411441Y-59524669D01*
X113480000Y-59531421D01*
X113800000Y-59531421D01*
X113868559Y-59524669D01*
X113934483Y-59504671D01*
X113995239Y-59472196D01*
X114048492Y-59428492D01*
X114092196Y-59375239D01*
X114124671Y-59314483D01*
X114144475Y-59249200D01*
X114572932Y-59249200D01*
X114575235Y-59272583D01*
X114594949Y-59337570D01*
X114626961Y-59397461D01*
X114670043Y-59449957D01*
X114722539Y-59493039D01*
X114782430Y-59525051D01*
X114847417Y-59544765D01*
X114915000Y-59551421D01*
X115225000Y-59551421D01*
X115292583Y-59544765D01*
X115357570Y-59525051D01*
X115417461Y-59493039D01*
X115469957Y-59449957D01*
X115513039Y-59397461D01*
X115545051Y-59337570D01*
X115564765Y-59272583D01*
X115571421Y-59205000D01*
X115571421Y-58780000D01*
X115564765Y-58712417D01*
X115545051Y-58647430D01*
X115513039Y-58587539D01*
X115469957Y-58535043D01*
X115417461Y-58491961D01*
X115357570Y-58459949D01*
X115292583Y-58440235D01*
X115225000Y-58433579D01*
X114915000Y-58433579D01*
X114847417Y-58440235D01*
X114782430Y-58459949D01*
X114722539Y-58491961D01*
X114670043Y-58535043D01*
X114626961Y-58587539D01*
X114594949Y-58647430D01*
X114575235Y-58712417D01*
X114574902Y-58715800D01*
X114144475Y-58715800D01*
X114124671Y-58650517D01*
X114092196Y-58589761D01*
X114048492Y-58536508D01*
X113995239Y-58492804D01*
X113934483Y-58460329D01*
X113868559Y-58440331D01*
X113800000Y-58433579D01*
X113480000Y-58433579D01*
X113411441Y-58440331D01*
X113345517Y-58460329D01*
X113284761Y-58492804D01*
X113231508Y-58536508D01*
X113187804Y-58589761D01*
X113155329Y-58650517D01*
X113135331Y-58716441D01*
X113128579Y-58785000D01*
X112757921Y-58785000D01*
X112679656Y-58752582D01*
X112593779Y-58735500D01*
X112506221Y-58735500D01*
X112420344Y-58752582D01*
X112339450Y-58786089D01*
X112266648Y-58834734D01*
X112204734Y-58896648D01*
X112156089Y-58969450D01*
X112122582Y-59050344D01*
X112105500Y-59136221D01*
X112105500Y-59223779D01*
X112122582Y-59309656D01*
X112156089Y-59390550D01*
X112204734Y-59463352D01*
X112266648Y-59525266D01*
X112283300Y-59536393D01*
X112283301Y-59829528D01*
X110970684Y-61142146D01*
X110960502Y-61150502D01*
X110927174Y-61191113D01*
X110902410Y-61237446D01*
X110887159Y-61287719D01*
X110885431Y-61305266D01*
X110882010Y-61340000D01*
X110883300Y-61353096D01*
X110883301Y-65746894D01*
X110882010Y-65760000D01*
X110886229Y-65802826D01*
X110887160Y-65812282D01*
X110902411Y-65862555D01*
X110927175Y-65908887D01*
X110960503Y-65949498D01*
X110970679Y-65957849D01*
X111903300Y-66890471D01*
X111903301Y-67689528D01*
X111541530Y-68051300D01*
X110881421Y-68051300D01*
X110881421Y-67818000D01*
X110877743Y-67780656D01*
X110866850Y-67744746D01*
X110849161Y-67711652D01*
X110825355Y-67682645D01*
X110796348Y-67658839D01*
X110763254Y-67641150D01*
X110727344Y-67630257D01*
X110690000Y-67626579D01*
X109215500Y-67626579D01*
X109215500Y-67585421D01*
X110690000Y-67585421D01*
X110727344Y-67581743D01*
X110763254Y-67570850D01*
X110796348Y-67553161D01*
X110825355Y-67529355D01*
X110849161Y-67500348D01*
X110866850Y-67467254D01*
X110877743Y-67431344D01*
X110881421Y-67394000D01*
X110881421Y-66394000D01*
X110877743Y-66356656D01*
X110866850Y-66320746D01*
X110849161Y-66287652D01*
X110825355Y-66258645D01*
X110796348Y-66234839D01*
X110763254Y-66217150D01*
X110727344Y-66206257D01*
X110690000Y-66202579D01*
X109215500Y-66202579D01*
X109215500Y-66161421D01*
X110690000Y-66161421D01*
X110727344Y-66157743D01*
X110763254Y-66146850D01*
X110796348Y-66129161D01*
X110825355Y-66105355D01*
X110849161Y-66076348D01*
X110866850Y-66043254D01*
X110877743Y-66007344D01*
X110881421Y-65970000D01*
X110881421Y-64970000D01*
X110877743Y-64932656D01*
X110866850Y-64896746D01*
X110849161Y-64863652D01*
X110825355Y-64834645D01*
X110796348Y-64810839D01*
X110763254Y-64793150D01*
X110727344Y-64782257D01*
X110690000Y-64778579D01*
X109215500Y-64778579D01*
X109215500Y-55437569D01*
X109251408Y-55618087D01*
X109333612Y-55816545D01*
X109452954Y-55995153D01*
X109604847Y-56147046D01*
X109783455Y-56266388D01*
X109981913Y-56348592D01*
X110192595Y-56390500D01*
X110407405Y-56390500D01*
X110618087Y-56348592D01*
X110816545Y-56266388D01*
X110995153Y-56147046D01*
X111147046Y-55995153D01*
X111266388Y-55816545D01*
X111348592Y-55618087D01*
X111390500Y-55407405D01*
X111390500Y-55192595D01*
X111348592Y-54981913D01*
X111266388Y-54783455D01*
X111147046Y-54604847D01*
X110995153Y-54452954D01*
X110816545Y-54333612D01*
X110618087Y-54251408D01*
X110437569Y-54215500D01*
X117562431Y-54215500D01*
X117381913Y-54251408D01*
G37*
%TD.AperFunction*%
D16*
X112583301Y-70209528D02*
X111893530Y-70899300D01*
X110881421Y-70899300D01*
X110881421Y-70666000D01*
X110877743Y-70628656D01*
X110866850Y-70592746D01*
X110849161Y-70559652D01*
X110825355Y-70530645D01*
X110796348Y-70506839D01*
X110763254Y-70489150D01*
X110727344Y-70478257D01*
X110690000Y-70474579D01*
X109215500Y-70474579D01*
X109215500Y-70433421D01*
X110690000Y-70433421D01*
X110727344Y-70429743D01*
X110763254Y-70418850D01*
X110796348Y-70401161D01*
X110825355Y-70377355D01*
X110849161Y-70348348D01*
X110866850Y-70315254D01*
X110877743Y-70279344D01*
X110881421Y-70242000D01*
X110881421Y-70008700D01*
X111324904Y-70008700D01*
X111338000Y-70009990D01*
X111351096Y-70008700D01*
X111351098Y-70008700D01*
X111390282Y-70004841D01*
X111440555Y-69989590D01*
X111486887Y-69964826D01*
X111527498Y-69931498D01*
X111535854Y-69921316D01*
X112583301Y-68873870D01*
X112583301Y-70209528D01*
%TA.AperFunction,Conductor*%
D17*
G36*
X112583301Y-70209528D02*
G01*
X111893530Y-70899300D01*
X110881421Y-70899300D01*
X110881421Y-70666000D01*
X110877743Y-70628656D01*
X110866850Y-70592746D01*
X110849161Y-70559652D01*
X110825355Y-70530645D01*
X110796348Y-70506839D01*
X110763254Y-70489150D01*
X110727344Y-70478257D01*
X110690000Y-70474579D01*
X109215500Y-70474579D01*
X109215500Y-70433421D01*
X110690000Y-70433421D01*
X110727344Y-70429743D01*
X110763254Y-70418850D01*
X110796348Y-70401161D01*
X110825355Y-70377355D01*
X110849161Y-70348348D01*
X110866850Y-70315254D01*
X110877743Y-70279344D01*
X110881421Y-70242000D01*
X110881421Y-70008700D01*
X111324904Y-70008700D01*
X111338000Y-70009990D01*
X111351096Y-70008700D01*
X111351098Y-70008700D01*
X111390282Y-70004841D01*
X111440555Y-69989590D01*
X111486887Y-69964826D01*
X111527498Y-69931498D01*
X111535854Y-69921316D01*
X112583301Y-68873870D01*
X112583301Y-70209528D01*
G37*
%TD.AperFunction*%
D16*
X112278491Y-68424338D02*
X111227530Y-69475300D01*
X110881421Y-69475300D01*
X110881421Y-69242000D01*
X110877743Y-69204656D01*
X110866850Y-69168746D01*
X110849161Y-69135652D01*
X110825355Y-69106645D01*
X110796348Y-69082839D01*
X110763254Y-69065150D01*
X110727344Y-69054257D01*
X110690000Y-69050579D01*
X109215500Y-69050579D01*
X109215500Y-69009421D01*
X110690000Y-69009421D01*
X110727344Y-69005743D01*
X110763254Y-68994850D01*
X110796348Y-68977161D01*
X110825355Y-68953355D01*
X110849161Y-68924348D01*
X110866850Y-68891254D01*
X110877743Y-68855344D01*
X110881421Y-68818000D01*
X110881421Y-68584700D01*
X111638904Y-68584700D01*
X111652000Y-68585990D01*
X111665096Y-68584700D01*
X111665098Y-68584700D01*
X111704282Y-68580841D01*
X111754555Y-68565590D01*
X111800887Y-68540826D01*
X111841498Y-68507498D01*
X111849854Y-68497316D01*
X112278491Y-68068680D01*
X112278491Y-68424338D01*
%TA.AperFunction,Conductor*%
D17*
G36*
X112278491Y-68424338D02*
G01*
X111227530Y-69475300D01*
X110881421Y-69475300D01*
X110881421Y-69242000D01*
X110877743Y-69204656D01*
X110866850Y-69168746D01*
X110849161Y-69135652D01*
X110825355Y-69106645D01*
X110796348Y-69082839D01*
X110763254Y-69065150D01*
X110727344Y-69054257D01*
X110690000Y-69050579D01*
X109215500Y-69050579D01*
X109215500Y-69009421D01*
X110690000Y-69009421D01*
X110727344Y-69005743D01*
X110763254Y-68994850D01*
X110796348Y-68977161D01*
X110825355Y-68953355D01*
X110849161Y-68924348D01*
X110866850Y-68891254D01*
X110877743Y-68855344D01*
X110881421Y-68818000D01*
X110881421Y-68584700D01*
X111638904Y-68584700D01*
X111652000Y-68585990D01*
X111665096Y-68584700D01*
X111665098Y-68584700D01*
X111704282Y-68580841D01*
X111754555Y-68565590D01*
X111800887Y-68540826D01*
X111841498Y-68507498D01*
X111849854Y-68497316D01*
X112278491Y-68068680D01*
X112278491Y-68424338D01*
G37*
%TD.AperFunction*%
%TD*%
M02*
