M48
; DRILL file {KiCad (5.1.8)-1} date 09/13/21 15:45:41
; FORMAT={-:-/ absolute / inch / decimal}
; #@! TF.CreationDate,2021-09-13T15:45:41-04:00
; #@! TF.GenerationSoftware,Kicad,Pcbnew,(5.1.8)-1
; #@! TF.FileFunction,Plated,1,2,PTH
FMAT,2
INCH
T1C0.0120
T2C0.0130
T3C0.0276
%
G90
G05
T1
X4.3126Y-2.4839
X4.3173Y-2.2496
X4.3177Y-2.3244
X4.3283Y-2.6336
X4.3283Y-2.6897
X4.3283Y-2.7457
X4.3283Y-2.8018
X4.3472Y-2.4496
X4.3787Y-2.7154
X4.3795Y-2.6654
X4.3819Y-2.7744
X4.4157Y-2.7531
X4.4165Y-2.4492
X4.4303Y-2.8417
X4.4311Y-2.3299
X4.4374Y-2.4
X4.4386Y-2.1976
X4.474Y-2.3692
X4.4803Y-2.5937
X4.4913Y-2.6953
X4.4984Y-2.2709
X4.5039Y-2.4016
X4.5303Y-2.3225
X4.5303Y-2.3672
X4.5323Y-2.7594
X4.5378Y-2.1996
X4.539Y-2.8362
X4.5693Y-2.4598
X4.6004Y-2.6937
X4.6193Y-2.5685
X4.6563Y-2.4638
T2
X4.3283Y-2.5776
T3
X4.4528Y-2.4843
X4.4528Y-2.555
X4.5235Y-2.4843
X4.5235Y-2.555
T0
M30
