%TF.GenerationSoftware,KiCad,Pcbnew,(5.1.8)-1*%
%TF.CreationDate,2021-09-13T15:45:39-04:00*%
%TF.ProjectId,IR_TEMP_V1,49525f54-454d-4505-9f56-312e6b696361,rev?*%
%TF.SameCoordinates,Original*%
%TF.FileFunction,Soldermask,Bot*%
%TF.FilePolarity,Negative*%
%FSLAX46Y46*%
G04 Gerber Fmt 4.6, Leading zero omitted, Abs format (unit mm)*
G04 Created by KiCad (PCBNEW (5.1.8)-1) date 2021-09-13 15:45:39*
%MOMM*%
%LPD*%
G01*
G04 APERTURE LIST*
%ADD10R,1.500000X1.000000*%
%ADD11C,1.800000*%
%ADD12C,1.100000*%
%ADD13R,1.100000X1.100000*%
G04 APERTURE END LIST*
D10*
%TO.C,J12*%
X109940000Y-71166000D03*
%TD*%
%TO.C,J11*%
X109940000Y-69742000D03*
%TD*%
%TO.C,J10*%
X109940000Y-66894000D03*
%TD*%
%TO.C,J9*%
X109940000Y-68318000D03*
%TD*%
%TO.C,J8*%
X109940000Y-72590000D03*
%TD*%
%TO.C,J7*%
X109940000Y-65470000D03*
%TD*%
D11*
%TO.C,H3*%
X117700000Y-72700000D03*
%TD*%
%TO.C,H2*%
X117700000Y-55300000D03*
%TD*%
%TO.C,H1*%
X110300000Y-55300000D03*
%TD*%
D12*
%TO.C,U1*%
X114898022Y-63101978D03*
X113101978Y-63101978D03*
X113101978Y-64898022D03*
D13*
X114898022Y-64898022D03*
%TD*%
%TO.C,C6*%
G36*
G01*
X114915000Y-59760000D02*
X115225000Y-59760000D01*
G75*
G02*
X115380000Y-59915000I0J-155000D01*
G01*
X115380000Y-60340000D01*
G75*
G02*
X115225000Y-60495000I-155000J0D01*
G01*
X114915000Y-60495000D01*
G75*
G02*
X114760000Y-60340000I0J155000D01*
G01*
X114760000Y-59915000D01*
G75*
G02*
X114915000Y-59760000I155000J0D01*
G01*
G37*
G36*
G01*
X114915000Y-58625000D02*
X115225000Y-58625000D01*
G75*
G02*
X115380000Y-58780000I0J-155000D01*
G01*
X115380000Y-59205000D01*
G75*
G02*
X115225000Y-59360000I-155000J0D01*
G01*
X114915000Y-59360000D01*
G75*
G02*
X114760000Y-59205000I0J155000D01*
G01*
X114760000Y-58780000D01*
G75*
G02*
X114915000Y-58625000I155000J0D01*
G01*
G37*
%TD*%
%TO.C,R3*%
G36*
G01*
X113480000Y-58625000D02*
X113800000Y-58625000D01*
G75*
G02*
X113960000Y-58785000I0J-160000D01*
G01*
X113960000Y-59180000D01*
G75*
G02*
X113800000Y-59340000I-160000J0D01*
G01*
X113480000Y-59340000D01*
G75*
G02*
X113320000Y-59180000I0J160000D01*
G01*
X113320000Y-58785000D01*
G75*
G02*
X113480000Y-58625000I160000J0D01*
G01*
G37*
G36*
G01*
X113480000Y-59820000D02*
X113800000Y-59820000D01*
G75*
G02*
X113960000Y-59980000I0J-160000D01*
G01*
X113960000Y-60375000D01*
G75*
G02*
X113800000Y-60535000I-160000J0D01*
G01*
X113480000Y-60535000D01*
G75*
G02*
X113320000Y-60375000I0J160000D01*
G01*
X113320000Y-59980000D01*
G75*
G02*
X113480000Y-59820000I160000J0D01*
G01*
G37*
%TD*%
M02*
