%TF.GenerationSoftware,KiCad,Pcbnew,(5.1.8)-1*%
%TF.CreationDate,2021-10-03T17:02:32-04:00*%
%TF.ProjectId,IR_TEMP_V1,49525f54-454d-4505-9f56-312e6b696361,rev?*%
%TF.SameCoordinates,Original*%
%TF.FileFunction,Copper,L1,Top*%
%TF.FilePolarity,Positive*%
%FSLAX46Y46*%
G04 Gerber Fmt 4.6, Leading zero omitted, Abs format (unit mm)*
G04 Created by KiCad (PCBNEW (5.1.8)-1) date 2021-10-03 17:02:32*
%MOMM*%
%LPD*%
G01*
G04 APERTURE LIST*
%TA.AperFunction,ComponentPad*%
%ADD10C,1.300000*%
%TD*%
%TA.AperFunction,SMDPad,CuDef*%
%ADD11R,1.500000X1.000000*%
%TD*%
%TA.AperFunction,ViaPad*%
%ADD12C,0.508000*%
%TD*%
%TA.AperFunction,Conductor*%
%ADD13C,0.152400*%
%TD*%
%TA.AperFunction,Conductor*%
%ADD14C,0.100000*%
%TD*%
G04 APERTURE END LIST*
D10*
%TO.P,U1,6*%
%TO.N,/A1*%
X115167570Y-66548053D03*
%TO.P,U1,5*%
%TO.N,/SCL*%
X116747728Y-64967436D03*
%TO.P,U1,4*%
%TO.N,/INT_TPIS*%
X116748053Y-62732430D03*
%TO.P,U1,3*%
%TO.N,/SDA*%
X111351947Y-64967570D03*
%TO.P,U1,2*%
%TO.N,+3V3*%
X111352272Y-62732564D03*
%TO.P,U1,1*%
%TO.N,GND*%
X112932430Y-61151947D03*
%TD*%
%TO.P,R2,2*%
%TO.N,+3V3*%
%TA.AperFunction,SMDPad,CuDef*%
G36*
G01*
X116590000Y-68140000D02*
X116910000Y-68140000D01*
G75*
G02*
X117070000Y-68300000I0J-160000D01*
G01*
X117070000Y-68695000D01*
G75*
G02*
X116910000Y-68855000I-160000J0D01*
G01*
X116590000Y-68855000D01*
G75*
G02*
X116430000Y-68695000I0J160000D01*
G01*
X116430000Y-68300000D01*
G75*
G02*
X116590000Y-68140000I160000J0D01*
G01*
G37*
%TD.AperFunction*%
%TO.P,R2,1*%
%TO.N,/SCL*%
%TA.AperFunction,SMDPad,CuDef*%
G36*
G01*
X116590000Y-66945000D02*
X116910000Y-66945000D01*
G75*
G02*
X117070000Y-67105000I0J-160000D01*
G01*
X117070000Y-67500000D01*
G75*
G02*
X116910000Y-67660000I-160000J0D01*
G01*
X116590000Y-67660000D01*
G75*
G02*
X116430000Y-67500000I0J160000D01*
G01*
X116430000Y-67105000D01*
G75*
G02*
X116590000Y-66945000I160000J0D01*
G01*
G37*
%TD.AperFunction*%
%TD*%
%TO.P,R1,2*%
%TO.N,+3V3*%
%TA.AperFunction,SMDPad,CuDef*%
G36*
G01*
X112290000Y-68140000D02*
X112610000Y-68140000D01*
G75*
G02*
X112770000Y-68300000I0J-160000D01*
G01*
X112770000Y-68695000D01*
G75*
G02*
X112610000Y-68855000I-160000J0D01*
G01*
X112290000Y-68855000D01*
G75*
G02*
X112130000Y-68695000I0J160000D01*
G01*
X112130000Y-68300000D01*
G75*
G02*
X112290000Y-68140000I160000J0D01*
G01*
G37*
%TD.AperFunction*%
%TO.P,R1,1*%
%TO.N,/SDA*%
%TA.AperFunction,SMDPad,CuDef*%
G36*
G01*
X112290000Y-66945000D02*
X112610000Y-66945000D01*
G75*
G02*
X112770000Y-67105000I0J-160000D01*
G01*
X112770000Y-67500000D01*
G75*
G02*
X112610000Y-67660000I-160000J0D01*
G01*
X112290000Y-67660000D01*
G75*
G02*
X112130000Y-67500000I0J160000D01*
G01*
X112130000Y-67105000D01*
G75*
G02*
X112290000Y-66945000I160000J0D01*
G01*
G37*
%TD.AperFunction*%
%TD*%
D11*
%TO.P,J6,1*%
%TO.N,/INT*%
X110400000Y-71936000D03*
%TD*%
%TO.P,J5,1*%
%TO.N,/A1*%
X110400000Y-70512000D03*
%TD*%
%TO.P,J4,1*%
%TO.N,/SCL*%
X112650000Y-71910000D03*
%TD*%
%TO.P,J3,1*%
%TO.N,/SDA*%
X112650000Y-70468000D03*
%TD*%
%TO.P,J2,1*%
%TO.N,GND*%
X114760000Y-70470000D03*
%TD*%
%TO.P,J1,1*%
%TO.N,+3V3*%
X114800000Y-71875000D03*
%TD*%
%TO.P,C1,1*%
%TO.N,GND*%
%TA.AperFunction,SMDPad,CuDef*%
G36*
G01*
X116165000Y-69585000D02*
X116475000Y-69585000D01*
G75*
G02*
X116630000Y-69740000I0J-155000D01*
G01*
X116630000Y-70165000D01*
G75*
G02*
X116475000Y-70320000I-155000J0D01*
G01*
X116165000Y-70320000D01*
G75*
G02*
X116010000Y-70165000I0J155000D01*
G01*
X116010000Y-69740000D01*
G75*
G02*
X116165000Y-69585000I155000J0D01*
G01*
G37*
%TD.AperFunction*%
%TO.P,C1,2*%
%TO.N,+3V3*%
%TA.AperFunction,SMDPad,CuDef*%
G36*
G01*
X116165000Y-70720000D02*
X116475000Y-70720000D01*
G75*
G02*
X116630000Y-70875000I0J-155000D01*
G01*
X116630000Y-71300000D01*
G75*
G02*
X116475000Y-71455000I-155000J0D01*
G01*
X116165000Y-71455000D01*
G75*
G02*
X116010000Y-71300000I0J155000D01*
G01*
X116010000Y-70875000D01*
G75*
G02*
X116165000Y-70720000I155000J0D01*
G01*
G37*
%TD.AperFunction*%
%TD*%
%TO.P,C2,2*%
%TO.N,+3V3*%
%TA.AperFunction,SMDPad,CuDef*%
G36*
G01*
X113220000Y-63445000D02*
X113220000Y-63755000D01*
G75*
G02*
X113065000Y-63910000I-155000J0D01*
G01*
X112640000Y-63910000D01*
G75*
G02*
X112485000Y-63755000I0J155000D01*
G01*
X112485000Y-63445000D01*
G75*
G02*
X112640000Y-63290000I155000J0D01*
G01*
X113065000Y-63290000D01*
G75*
G02*
X113220000Y-63445000I0J-155000D01*
G01*
G37*
%TD.AperFunction*%
%TO.P,C2,1*%
%TO.N,GND*%
%TA.AperFunction,SMDPad,CuDef*%
G36*
G01*
X114355000Y-63445000D02*
X114355000Y-63755000D01*
G75*
G02*
X114200000Y-63910000I-155000J0D01*
G01*
X113775000Y-63910000D01*
G75*
G02*
X113620000Y-63755000I0J155000D01*
G01*
X113620000Y-63445000D01*
G75*
G02*
X113775000Y-63290000I155000J0D01*
G01*
X114200000Y-63290000D01*
G75*
G02*
X114355000Y-63445000I0J-155000D01*
G01*
G37*
%TD.AperFunction*%
%TD*%
D12*
%TO.N,+3V3*%
X114800000Y-71875000D03*
X112450000Y-68497500D03*
%TO.N,GND*%
X113830000Y-55950000D03*
X110970000Y-58340000D03*
X116340000Y-58250000D03*
X115130000Y-61290000D03*
X114320000Y-67830000D03*
X115660000Y-68960000D03*
X111200000Y-68920000D03*
X109980000Y-66260000D03*
X118020000Y-63840000D03*
X110110000Y-63700000D03*
X118090000Y-68100000D03*
X115750000Y-73160000D03*
X111280000Y-73160000D03*
%TO.N,/A1*%
X110400000Y-70512000D03*
%TO.N,/SDA*%
X112650000Y-70468000D03*
%TO.N,/SCL*%
X112650000Y-71910000D03*
%TO.N,/INT*%
X110400000Y-71936000D03*
%TD*%
D13*
%TO.N,+3V3*%
X112219708Y-63600000D02*
X111352272Y-62732564D01*
X112852500Y-63600000D02*
X112219708Y-63600000D01*
X112852500Y-63600000D02*
X112852500Y-66172500D01*
X112852500Y-66172500D02*
X113370000Y-66690000D01*
X113370000Y-67577500D02*
X112450000Y-68497500D01*
X113370000Y-66690000D02*
X113370000Y-67577500D01*
X116320000Y-71087500D02*
X117042500Y-71087500D01*
X117042500Y-71087500D02*
X117520000Y-70610000D01*
X117520000Y-69267500D02*
X116750000Y-68497500D01*
X117520000Y-70610000D02*
X117520000Y-69267500D01*
X115532500Y-71875000D02*
X116320000Y-71087500D01*
X114800000Y-71875000D02*
X114800000Y-71875000D01*
X114800000Y-71875000D02*
X115532500Y-71875000D01*
%TO.N,/SDA*%
X112650000Y-70468000D02*
X112650000Y-70468000D01*
X111901390Y-67851110D02*
X112450000Y-67302500D01*
X111901390Y-68871390D02*
X111901390Y-67851110D01*
X112650000Y-69620000D02*
X111901390Y-68871390D01*
X112650000Y-70468000D02*
X112650000Y-69620000D01*
X111351947Y-66204447D02*
X112450000Y-67302500D01*
X111351947Y-64967570D02*
X111351947Y-66204447D01*
%TO.N,/SCL*%
X113552400Y-71910000D02*
X113710000Y-71752400D01*
X112650000Y-71910000D02*
X112650000Y-71910000D01*
X116750000Y-67302500D02*
X116097500Y-67302500D01*
X113710000Y-69690000D02*
X113710000Y-70390000D01*
X116097500Y-67302500D02*
X113710000Y-69690000D01*
X113710000Y-71752400D02*
X113710000Y-70390000D01*
X112650000Y-71910000D02*
X113552400Y-71910000D01*
X116747728Y-67300228D02*
X116750000Y-67302500D01*
X116747728Y-64967436D02*
X116747728Y-67300228D01*
%TD*%
%TO.N,GND*%
X117165407Y-54299847D02*
X116980559Y-54423359D01*
X116823359Y-54580559D01*
X116699847Y-54765407D01*
X116614771Y-54970799D01*
X116571400Y-55188843D01*
X116571400Y-55411157D01*
X116614771Y-55629201D01*
X116699847Y-55834593D01*
X116823359Y-56019441D01*
X116980559Y-56176641D01*
X117165407Y-56300153D01*
X117370799Y-56385229D01*
X117588843Y-56428600D01*
X117811157Y-56428600D01*
X118029201Y-56385229D01*
X118234593Y-56300153D01*
X118419441Y-56176641D01*
X118576641Y-56019441D01*
X118700153Y-55834593D01*
X118746400Y-55722943D01*
X118746401Y-72277060D01*
X118700153Y-72165407D01*
X118576641Y-71980559D01*
X118419441Y-71823359D01*
X118234593Y-71699847D01*
X118029201Y-71614771D01*
X117811157Y-71571400D01*
X117588843Y-71571400D01*
X117370799Y-71614771D01*
X117165407Y-71699847D01*
X116980559Y-71823359D01*
X116823359Y-71980559D01*
X116699847Y-72165407D01*
X116614771Y-72370799D01*
X116571400Y-72588843D01*
X116571400Y-72811157D01*
X116614771Y-73029201D01*
X116699847Y-73234593D01*
X116823359Y-73419441D01*
X116980559Y-73576641D01*
X117165407Y-73700153D01*
X117277057Y-73746400D01*
X109253600Y-73746400D01*
X109253600Y-70012000D01*
X109420294Y-70012000D01*
X109420294Y-71012000D01*
X109424708Y-71056813D01*
X109437779Y-71099905D01*
X109459006Y-71139618D01*
X109487573Y-71174427D01*
X109522382Y-71202994D01*
X109561682Y-71224000D01*
X109522382Y-71245006D01*
X109487573Y-71273573D01*
X109459006Y-71308382D01*
X109437779Y-71348095D01*
X109424708Y-71391187D01*
X109420294Y-71436000D01*
X109420294Y-72436000D01*
X109424708Y-72480813D01*
X109437779Y-72523905D01*
X109459006Y-72563618D01*
X109487573Y-72598427D01*
X109522382Y-72626994D01*
X109562095Y-72648221D01*
X109605187Y-72661292D01*
X109650000Y-72665706D01*
X111150000Y-72665706D01*
X111194813Y-72661292D01*
X111237905Y-72648221D01*
X111277618Y-72626994D01*
X111312427Y-72598427D01*
X111340994Y-72563618D01*
X111362221Y-72523905D01*
X111375292Y-72480813D01*
X111379706Y-72436000D01*
X111379706Y-71436000D01*
X111375292Y-71391187D01*
X111362221Y-71348095D01*
X111340994Y-71308382D01*
X111312427Y-71273573D01*
X111277618Y-71245006D01*
X111238318Y-71224000D01*
X111277618Y-71202994D01*
X111312427Y-71174427D01*
X111340994Y-71139618D01*
X111362221Y-71099905D01*
X111375292Y-71056813D01*
X111379706Y-71012000D01*
X111379706Y-70012000D01*
X111375292Y-69967187D01*
X111362221Y-69924095D01*
X111340994Y-69884382D01*
X111312427Y-69849573D01*
X111277618Y-69821006D01*
X111237905Y-69799779D01*
X111194813Y-69786708D01*
X111150000Y-69782294D01*
X109650000Y-69782294D01*
X109605187Y-69786708D01*
X109562095Y-69799779D01*
X109522382Y-69821006D01*
X109487573Y-69849573D01*
X109459006Y-69884382D01*
X109437779Y-69924095D01*
X109424708Y-69967187D01*
X109420294Y-70012000D01*
X109253600Y-70012000D01*
X109253600Y-64881035D01*
X110473347Y-64881035D01*
X110473347Y-65054105D01*
X110507111Y-65223848D01*
X110573342Y-65383743D01*
X110669494Y-65527645D01*
X110791872Y-65650023D01*
X110935774Y-65746175D01*
X111047148Y-65792308D01*
X111047148Y-66189479D01*
X111045674Y-66204447D01*
X111051558Y-66264198D01*
X111068987Y-66321652D01*
X111082162Y-66346301D01*
X111097290Y-66374604D01*
X111119396Y-66401540D01*
X111123911Y-66407040D01*
X111135380Y-66421015D01*
X111147004Y-66430555D01*
X111900294Y-67183846D01*
X111900294Y-67421155D01*
X111696446Y-67625003D01*
X111684823Y-67634542D01*
X111646733Y-67680953D01*
X111639382Y-67694706D01*
X111618430Y-67733905D01*
X111601001Y-67791359D01*
X111595117Y-67851110D01*
X111596591Y-67866078D01*
X111596590Y-68856432D01*
X111595117Y-68871390D01*
X111596590Y-68886348D01*
X111596590Y-68886355D01*
X111600413Y-68925174D01*
X111601001Y-68931141D01*
X111610227Y-68961554D01*
X111618430Y-68988595D01*
X111646732Y-69041546D01*
X111684822Y-69087958D01*
X111696451Y-69097502D01*
X112337242Y-69738294D01*
X111900000Y-69738294D01*
X111855187Y-69742708D01*
X111812095Y-69755779D01*
X111772382Y-69777006D01*
X111737573Y-69805573D01*
X111709006Y-69840382D01*
X111687779Y-69880095D01*
X111674708Y-69923187D01*
X111670294Y-69968000D01*
X111670294Y-70968000D01*
X111674708Y-71012813D01*
X111687779Y-71055905D01*
X111709006Y-71095618D01*
X111737573Y-71130427D01*
X111772382Y-71158994D01*
X111812095Y-71180221D01*
X111841037Y-71189000D01*
X111812095Y-71197779D01*
X111772382Y-71219006D01*
X111737573Y-71247573D01*
X111709006Y-71282382D01*
X111687779Y-71322095D01*
X111674708Y-71365187D01*
X111670294Y-71410000D01*
X111670294Y-72410000D01*
X111674708Y-72454813D01*
X111687779Y-72497905D01*
X111709006Y-72537618D01*
X111737573Y-72572427D01*
X111772382Y-72600994D01*
X111812095Y-72622221D01*
X111855187Y-72635292D01*
X111900000Y-72639706D01*
X113400000Y-72639706D01*
X113444813Y-72635292D01*
X113487905Y-72622221D01*
X113527618Y-72600994D01*
X113562427Y-72572427D01*
X113590994Y-72537618D01*
X113612221Y-72497905D01*
X113625292Y-72454813D01*
X113629706Y-72410000D01*
X113629706Y-72205064D01*
X113669606Y-72192960D01*
X113722557Y-72164658D01*
X113768968Y-72126568D01*
X113778512Y-72114939D01*
X113820294Y-72073157D01*
X113820294Y-72375000D01*
X113824708Y-72419813D01*
X113837779Y-72462905D01*
X113859006Y-72502618D01*
X113887573Y-72537427D01*
X113922382Y-72565994D01*
X113962095Y-72587221D01*
X114005187Y-72600292D01*
X114050000Y-72604706D01*
X115550000Y-72604706D01*
X115594813Y-72600292D01*
X115637905Y-72587221D01*
X115677618Y-72565994D01*
X115712427Y-72537427D01*
X115740994Y-72502618D01*
X115762221Y-72462905D01*
X115775292Y-72419813D01*
X115779706Y-72375000D01*
X115779706Y-72058845D01*
X116154846Y-71683706D01*
X116165000Y-71684706D01*
X116475000Y-71684706D01*
X116550052Y-71677314D01*
X116622221Y-71655422D01*
X116688731Y-71619871D01*
X116747028Y-71572028D01*
X116794871Y-71513731D01*
X116830422Y-71447221D01*
X116847082Y-71392300D01*
X117027542Y-71392300D01*
X117042500Y-71393773D01*
X117057458Y-71392300D01*
X117057466Y-71392300D01*
X117102251Y-71387889D01*
X117159706Y-71370460D01*
X117212657Y-71342158D01*
X117259068Y-71304068D01*
X117268612Y-71292439D01*
X117724945Y-70836107D01*
X117736568Y-70826568D01*
X117774658Y-70780157D01*
X117802960Y-70727206D01*
X117812343Y-70696274D01*
X117820389Y-70669752D01*
X117821224Y-70661269D01*
X117824800Y-70624966D01*
X117824800Y-70624958D01*
X117826273Y-70610000D01*
X117824800Y-70595042D01*
X117824800Y-69282457D01*
X117826273Y-69267499D01*
X117824800Y-69252541D01*
X117824800Y-69252534D01*
X117820389Y-69207749D01*
X117802960Y-69150294D01*
X117774658Y-69097343D01*
X117736568Y-69050932D01*
X117724944Y-69041392D01*
X117299706Y-68616155D01*
X117299706Y-68300000D01*
X117292218Y-68223972D01*
X117270041Y-68150866D01*
X117234029Y-68083491D01*
X117185564Y-68024436D01*
X117126509Y-67975971D01*
X117059134Y-67939959D01*
X116986028Y-67917782D01*
X116910000Y-67910294D01*
X116590000Y-67910294D01*
X116513972Y-67917782D01*
X116440866Y-67939959D01*
X116373491Y-67975971D01*
X116314436Y-68024436D01*
X116265971Y-68083491D01*
X116229959Y-68150866D01*
X116207782Y-68223972D01*
X116200294Y-68300000D01*
X116200294Y-68695000D01*
X116207782Y-68771028D01*
X116229959Y-68844134D01*
X116265971Y-68911509D01*
X116314436Y-68970564D01*
X116373491Y-69019029D01*
X116440866Y-69055041D01*
X116513972Y-69077218D01*
X116590000Y-69084706D01*
X116906155Y-69084706D01*
X117215201Y-69393753D01*
X117215200Y-70483748D01*
X116916249Y-70782700D01*
X116847082Y-70782700D01*
X116830422Y-70727779D01*
X116794871Y-70661269D01*
X116763505Y-70623050D01*
X116814337Y-70595880D01*
X116864617Y-70554617D01*
X116905880Y-70504337D01*
X116936541Y-70446974D01*
X116955423Y-70384731D01*
X116961798Y-70320000D01*
X116960200Y-70085850D01*
X116877650Y-70003300D01*
X116370800Y-70003300D01*
X116370800Y-70023300D01*
X116269200Y-70023300D01*
X116269200Y-70003300D01*
X116249200Y-70003300D01*
X116249200Y-69901700D01*
X116269200Y-69901700D01*
X116269200Y-69337350D01*
X116370800Y-69337350D01*
X116370800Y-69901700D01*
X116877650Y-69901700D01*
X116960200Y-69819150D01*
X116961798Y-69585000D01*
X116955423Y-69520269D01*
X116936541Y-69458026D01*
X116905880Y-69400663D01*
X116864617Y-69350383D01*
X116814337Y-69309120D01*
X116756974Y-69278459D01*
X116694731Y-69259577D01*
X116630000Y-69253202D01*
X116453350Y-69254800D01*
X116370800Y-69337350D01*
X116269200Y-69337350D01*
X116186650Y-69254800D01*
X116010000Y-69253202D01*
X115945269Y-69259577D01*
X115883026Y-69278459D01*
X115825663Y-69309120D01*
X115775383Y-69350383D01*
X115734120Y-69400663D01*
X115703459Y-69458026D01*
X115684577Y-69520269D01*
X115678202Y-69585000D01*
X115678890Y-69685864D01*
X115636974Y-69663459D01*
X115574731Y-69644577D01*
X115510000Y-69638202D01*
X114893350Y-69639800D01*
X114810800Y-69722350D01*
X114810800Y-70419200D01*
X114830800Y-70419200D01*
X114830800Y-70520800D01*
X114810800Y-70520800D01*
X114810800Y-70540800D01*
X114709200Y-70540800D01*
X114709200Y-70520800D01*
X114689200Y-70520800D01*
X114689200Y-70419200D01*
X114709200Y-70419200D01*
X114709200Y-69722350D01*
X114626650Y-69639800D01*
X114192377Y-69638675D01*
X116218778Y-67612274D01*
X116229959Y-67649134D01*
X116265971Y-67716509D01*
X116314436Y-67775564D01*
X116373491Y-67824029D01*
X116440866Y-67860041D01*
X116513972Y-67882218D01*
X116590000Y-67889706D01*
X116910000Y-67889706D01*
X116986028Y-67882218D01*
X117059134Y-67860041D01*
X117126509Y-67824029D01*
X117185564Y-67775564D01*
X117234029Y-67716509D01*
X117270041Y-67649134D01*
X117292218Y-67576028D01*
X117299706Y-67500000D01*
X117299706Y-67105000D01*
X117292218Y-67028972D01*
X117270041Y-66955866D01*
X117234029Y-66888491D01*
X117185564Y-66829436D01*
X117126509Y-66780971D01*
X117059134Y-66744959D01*
X117052528Y-66742955D01*
X117052528Y-65792173D01*
X117163901Y-65746041D01*
X117307803Y-65649889D01*
X117430181Y-65527511D01*
X117526333Y-65383609D01*
X117592564Y-65223714D01*
X117626328Y-65053971D01*
X117626328Y-64880901D01*
X117592564Y-64711158D01*
X117526333Y-64551263D01*
X117430181Y-64407361D01*
X117307803Y-64284983D01*
X117163901Y-64188831D01*
X117004006Y-64122600D01*
X116834263Y-64088836D01*
X116661193Y-64088836D01*
X116491450Y-64122600D01*
X116331555Y-64188831D01*
X116187653Y-64284983D01*
X116065275Y-64407361D01*
X115969123Y-64551263D01*
X115902892Y-64711158D01*
X115869128Y-64880901D01*
X115869128Y-65053971D01*
X115902892Y-65223714D01*
X115969123Y-65383609D01*
X116065275Y-65527511D01*
X116187653Y-65649889D01*
X116331555Y-65746041D01*
X116442928Y-65792174D01*
X116442929Y-66744333D01*
X116440866Y-66744959D01*
X116373491Y-66780971D01*
X116314436Y-66829436D01*
X116265971Y-66888491D01*
X116229959Y-66955866D01*
X116217268Y-66997700D01*
X116112458Y-66997700D01*
X116097500Y-66996227D01*
X116082542Y-66997700D01*
X116082534Y-66997700D01*
X116042903Y-67001603D01*
X116037748Y-67002111D01*
X115987784Y-67017268D01*
X115980294Y-67019540D01*
X115927343Y-67047842D01*
X115880932Y-67085932D01*
X115871392Y-67097556D01*
X113505061Y-69463888D01*
X113493432Y-69473432D01*
X113455342Y-69519844D01*
X113433746Y-69560249D01*
X113427040Y-69572795D01*
X113412721Y-69619999D01*
X113409611Y-69630250D01*
X113405200Y-69675035D01*
X113405200Y-69675042D01*
X113403727Y-69690000D01*
X113405200Y-69704958D01*
X113405200Y-69738806D01*
X113400000Y-69738294D01*
X112954800Y-69738294D01*
X112954800Y-69634957D01*
X112956273Y-69619999D01*
X112954800Y-69605041D01*
X112954800Y-69605034D01*
X112950389Y-69560249D01*
X112932960Y-69502794D01*
X112904658Y-69449843D01*
X112866568Y-69403432D01*
X112854944Y-69393892D01*
X112545758Y-69084706D01*
X112610000Y-69084706D01*
X112686028Y-69077218D01*
X112759134Y-69055041D01*
X112826509Y-69019029D01*
X112885564Y-68970564D01*
X112934029Y-68911509D01*
X112970041Y-68844134D01*
X112992218Y-68771028D01*
X112999706Y-68695000D01*
X112999706Y-68378845D01*
X113574944Y-67803608D01*
X113586568Y-67794068D01*
X113624658Y-67747657D01*
X113652960Y-67694706D01*
X113670389Y-67637251D01*
X113674800Y-67592466D01*
X113674800Y-67592459D01*
X113676273Y-67577501D01*
X113674800Y-67562543D01*
X113674800Y-66704958D01*
X113676273Y-66690000D01*
X113674800Y-66675042D01*
X113674800Y-66675034D01*
X113670389Y-66630249D01*
X113652960Y-66572794D01*
X113624658Y-66519843D01*
X113610798Y-66502955D01*
X113596109Y-66485056D01*
X113596103Y-66485050D01*
X113586568Y-66473432D01*
X113574951Y-66463898D01*
X113572571Y-66461518D01*
X114288970Y-66461518D01*
X114288970Y-66634588D01*
X114322734Y-66804331D01*
X114388965Y-66964226D01*
X114485117Y-67108128D01*
X114607495Y-67230506D01*
X114751397Y-67326658D01*
X114911292Y-67392889D01*
X115081035Y-67426653D01*
X115254105Y-67426653D01*
X115423848Y-67392889D01*
X115583743Y-67326658D01*
X115727645Y-67230506D01*
X115850023Y-67108128D01*
X115946175Y-66964226D01*
X116012406Y-66804331D01*
X116046170Y-66634588D01*
X116046170Y-66461518D01*
X116012406Y-66291775D01*
X115946175Y-66131880D01*
X115850023Y-65987978D01*
X115727645Y-65865600D01*
X115583743Y-65769448D01*
X115423848Y-65703217D01*
X115254105Y-65669453D01*
X115081035Y-65669453D01*
X114911292Y-65703217D01*
X114751397Y-65769448D01*
X114607495Y-65865600D01*
X114485117Y-65987978D01*
X114388965Y-66131880D01*
X114322734Y-66291775D01*
X114288970Y-66461518D01*
X113572571Y-66461518D01*
X113157300Y-66046249D01*
X113157300Y-64127082D01*
X113212221Y-64110422D01*
X113278731Y-64074871D01*
X113316950Y-64043505D01*
X113344120Y-64094337D01*
X113385383Y-64144617D01*
X113435663Y-64185880D01*
X113493026Y-64216541D01*
X113555269Y-64235423D01*
X113620000Y-64241798D01*
X113854150Y-64240200D01*
X113936700Y-64157650D01*
X113936700Y-63650800D01*
X114038300Y-63650800D01*
X114038300Y-64157650D01*
X114120850Y-64240200D01*
X114355000Y-64241798D01*
X114419731Y-64235423D01*
X114481974Y-64216541D01*
X114539337Y-64185880D01*
X114589617Y-64144617D01*
X114630880Y-64094337D01*
X114661541Y-64036974D01*
X114680423Y-63974731D01*
X114686798Y-63910000D01*
X114685200Y-63733350D01*
X114602650Y-63650800D01*
X114038300Y-63650800D01*
X113936700Y-63650800D01*
X113916700Y-63650800D01*
X113916700Y-63549200D01*
X113936700Y-63549200D01*
X113936700Y-63042350D01*
X114038300Y-63042350D01*
X114038300Y-63549200D01*
X114602650Y-63549200D01*
X114685200Y-63466650D01*
X114686798Y-63290000D01*
X114680423Y-63225269D01*
X114661541Y-63163026D01*
X114630880Y-63105663D01*
X114589617Y-63055383D01*
X114539337Y-63014120D01*
X114481974Y-62983459D01*
X114419731Y-62964577D01*
X114355000Y-62958202D01*
X114120850Y-62959800D01*
X114038300Y-63042350D01*
X113936700Y-63042350D01*
X113854150Y-62959800D01*
X113620000Y-62958202D01*
X113555269Y-62964577D01*
X113493026Y-62983459D01*
X113435663Y-63014120D01*
X113385383Y-63055383D01*
X113344120Y-63105663D01*
X113316950Y-63156495D01*
X113278731Y-63125129D01*
X113212221Y-63089578D01*
X113140052Y-63067686D01*
X113065000Y-63060294D01*
X112640000Y-63060294D01*
X112564948Y-63067686D01*
X112492779Y-63089578D01*
X112426269Y-63125129D01*
X112367972Y-63172972D01*
X112320129Y-63231269D01*
X112306858Y-63256098D01*
X112150975Y-63100216D01*
X112197108Y-62988842D01*
X112230872Y-62819099D01*
X112230872Y-62646029D01*
X112230846Y-62645895D01*
X115869453Y-62645895D01*
X115869453Y-62818965D01*
X115903217Y-62988708D01*
X115969448Y-63148603D01*
X116065600Y-63292505D01*
X116187978Y-63414883D01*
X116331880Y-63511035D01*
X116491775Y-63577266D01*
X116661518Y-63611030D01*
X116834588Y-63611030D01*
X117004331Y-63577266D01*
X117164226Y-63511035D01*
X117308128Y-63414883D01*
X117430506Y-63292505D01*
X117526658Y-63148603D01*
X117592889Y-62988708D01*
X117626653Y-62818965D01*
X117626653Y-62645895D01*
X117592889Y-62476152D01*
X117526658Y-62316257D01*
X117430506Y-62172355D01*
X117308128Y-62049977D01*
X117164226Y-61953825D01*
X117004331Y-61887594D01*
X116834588Y-61853830D01*
X116661518Y-61853830D01*
X116491775Y-61887594D01*
X116331880Y-61953825D01*
X116187978Y-62049977D01*
X116065600Y-62172355D01*
X115969448Y-62316257D01*
X115903217Y-62476152D01*
X115869453Y-62645895D01*
X112230846Y-62645895D01*
X112197108Y-62476286D01*
X112130877Y-62316391D01*
X112034725Y-62172489D01*
X111912347Y-62050111D01*
X111768445Y-61953959D01*
X111608550Y-61887728D01*
X111438807Y-61853964D01*
X111265737Y-61853964D01*
X111095994Y-61887728D01*
X110936099Y-61953959D01*
X110792197Y-62050111D01*
X110669819Y-62172489D01*
X110573667Y-62316391D01*
X110507436Y-62476286D01*
X110473672Y-62646029D01*
X110473672Y-62819099D01*
X110507436Y-62988842D01*
X110573667Y-63148737D01*
X110669819Y-63292639D01*
X110792197Y-63415017D01*
X110936099Y-63511169D01*
X111095994Y-63577400D01*
X111265737Y-63611164D01*
X111438807Y-63611164D01*
X111608550Y-63577400D01*
X111719924Y-63531267D01*
X111993600Y-63804944D01*
X112003140Y-63816568D01*
X112049551Y-63854658D01*
X112102502Y-63882960D01*
X112159956Y-63900389D01*
X112165111Y-63900897D01*
X112204742Y-63904800D01*
X112204750Y-63904800D01*
X112219708Y-63906273D01*
X112234666Y-63904800D01*
X112285957Y-63904800D01*
X112320129Y-63968731D01*
X112367972Y-64027028D01*
X112426269Y-64074871D01*
X112492779Y-64110422D01*
X112547700Y-64127082D01*
X112547701Y-66157532D01*
X112546227Y-66172500D01*
X112552111Y-66232251D01*
X112569540Y-66289705D01*
X112582715Y-66314354D01*
X112597843Y-66342657D01*
X112635933Y-66389068D01*
X112647556Y-66398607D01*
X113065200Y-66816253D01*
X113065201Y-67451247D01*
X112997877Y-67518571D01*
X112999706Y-67500000D01*
X112999706Y-67105000D01*
X112992218Y-67028972D01*
X112970041Y-66955866D01*
X112934029Y-66888491D01*
X112885564Y-66829436D01*
X112826509Y-66780971D01*
X112759134Y-66744959D01*
X112686028Y-66722782D01*
X112610000Y-66715294D01*
X112293846Y-66715294D01*
X111656747Y-66078196D01*
X111656747Y-65792307D01*
X111768120Y-65746175D01*
X111912022Y-65650023D01*
X112034400Y-65527645D01*
X112130552Y-65383743D01*
X112196783Y-65223848D01*
X112230547Y-65054105D01*
X112230547Y-64881035D01*
X112196783Y-64711292D01*
X112130552Y-64551397D01*
X112034400Y-64407495D01*
X111912022Y-64285117D01*
X111768120Y-64188965D01*
X111608225Y-64122734D01*
X111438482Y-64088970D01*
X111265412Y-64088970D01*
X111095669Y-64122734D01*
X110935774Y-64188965D01*
X110791872Y-64285117D01*
X110669494Y-64407495D01*
X110573342Y-64551397D01*
X110507111Y-64711292D01*
X110473347Y-64881035D01*
X109253600Y-64881035D01*
X109253600Y-61543663D01*
X112119490Y-61543663D01*
X112120289Y-61709208D01*
X112244610Y-61856941D01*
X112395364Y-61977581D01*
X112566756Y-62066493D01*
X112752202Y-62120260D01*
X112944574Y-62136814D01*
X113112657Y-62120260D01*
X113230280Y-62003768D01*
X112904937Y-61218320D01*
X112119490Y-61543663D01*
X109253600Y-61543663D01*
X109253600Y-61164091D01*
X111947563Y-61164091D01*
X111964117Y-61332174D01*
X112080609Y-61449797D01*
X112733308Y-61179440D01*
X112998803Y-61179440D01*
X113324146Y-61964887D01*
X113489691Y-61964088D01*
X113637424Y-61839767D01*
X113758064Y-61689013D01*
X113846976Y-61517621D01*
X113900743Y-61332175D01*
X113917297Y-61139803D01*
X113900743Y-60971720D01*
X113784251Y-60854097D01*
X112998803Y-61179440D01*
X112733308Y-61179440D01*
X112866057Y-61124454D01*
X112540714Y-60339007D01*
X112375169Y-60339806D01*
X112227436Y-60464127D01*
X112106796Y-60614881D01*
X112017884Y-60786273D01*
X111964117Y-60971719D01*
X111947563Y-61164091D01*
X109253600Y-61164091D01*
X109253600Y-60300126D01*
X112634580Y-60300126D01*
X112959923Y-61085574D01*
X113745370Y-60760231D01*
X113744571Y-60594686D01*
X113620250Y-60446953D01*
X113469496Y-60326313D01*
X113298104Y-60237401D01*
X113112658Y-60183634D01*
X112920286Y-60167080D01*
X112752203Y-60183634D01*
X112634580Y-60300126D01*
X109253600Y-60300126D01*
X109253600Y-55722943D01*
X109299847Y-55834593D01*
X109423359Y-56019441D01*
X109580559Y-56176641D01*
X109765407Y-56300153D01*
X109970799Y-56385229D01*
X110188843Y-56428600D01*
X110411157Y-56428600D01*
X110629201Y-56385229D01*
X110834593Y-56300153D01*
X111019441Y-56176641D01*
X111176641Y-56019441D01*
X111300153Y-55834593D01*
X111385229Y-55629201D01*
X111428600Y-55411157D01*
X111428600Y-55188843D01*
X111385229Y-54970799D01*
X111300153Y-54765407D01*
X111176641Y-54580559D01*
X111019441Y-54423359D01*
X110834593Y-54299847D01*
X110722943Y-54253600D01*
X117277057Y-54253600D01*
X117165407Y-54299847D01*
%TA.AperFunction,Conductor*%
D14*
G36*
X117165407Y-54299847D02*
G01*
X116980559Y-54423359D01*
X116823359Y-54580559D01*
X116699847Y-54765407D01*
X116614771Y-54970799D01*
X116571400Y-55188843D01*
X116571400Y-55411157D01*
X116614771Y-55629201D01*
X116699847Y-55834593D01*
X116823359Y-56019441D01*
X116980559Y-56176641D01*
X117165407Y-56300153D01*
X117370799Y-56385229D01*
X117588843Y-56428600D01*
X117811157Y-56428600D01*
X118029201Y-56385229D01*
X118234593Y-56300153D01*
X118419441Y-56176641D01*
X118576641Y-56019441D01*
X118700153Y-55834593D01*
X118746400Y-55722943D01*
X118746401Y-72277060D01*
X118700153Y-72165407D01*
X118576641Y-71980559D01*
X118419441Y-71823359D01*
X118234593Y-71699847D01*
X118029201Y-71614771D01*
X117811157Y-71571400D01*
X117588843Y-71571400D01*
X117370799Y-71614771D01*
X117165407Y-71699847D01*
X116980559Y-71823359D01*
X116823359Y-71980559D01*
X116699847Y-72165407D01*
X116614771Y-72370799D01*
X116571400Y-72588843D01*
X116571400Y-72811157D01*
X116614771Y-73029201D01*
X116699847Y-73234593D01*
X116823359Y-73419441D01*
X116980559Y-73576641D01*
X117165407Y-73700153D01*
X117277057Y-73746400D01*
X109253600Y-73746400D01*
X109253600Y-70012000D01*
X109420294Y-70012000D01*
X109420294Y-71012000D01*
X109424708Y-71056813D01*
X109437779Y-71099905D01*
X109459006Y-71139618D01*
X109487573Y-71174427D01*
X109522382Y-71202994D01*
X109561682Y-71224000D01*
X109522382Y-71245006D01*
X109487573Y-71273573D01*
X109459006Y-71308382D01*
X109437779Y-71348095D01*
X109424708Y-71391187D01*
X109420294Y-71436000D01*
X109420294Y-72436000D01*
X109424708Y-72480813D01*
X109437779Y-72523905D01*
X109459006Y-72563618D01*
X109487573Y-72598427D01*
X109522382Y-72626994D01*
X109562095Y-72648221D01*
X109605187Y-72661292D01*
X109650000Y-72665706D01*
X111150000Y-72665706D01*
X111194813Y-72661292D01*
X111237905Y-72648221D01*
X111277618Y-72626994D01*
X111312427Y-72598427D01*
X111340994Y-72563618D01*
X111362221Y-72523905D01*
X111375292Y-72480813D01*
X111379706Y-72436000D01*
X111379706Y-71436000D01*
X111375292Y-71391187D01*
X111362221Y-71348095D01*
X111340994Y-71308382D01*
X111312427Y-71273573D01*
X111277618Y-71245006D01*
X111238318Y-71224000D01*
X111277618Y-71202994D01*
X111312427Y-71174427D01*
X111340994Y-71139618D01*
X111362221Y-71099905D01*
X111375292Y-71056813D01*
X111379706Y-71012000D01*
X111379706Y-70012000D01*
X111375292Y-69967187D01*
X111362221Y-69924095D01*
X111340994Y-69884382D01*
X111312427Y-69849573D01*
X111277618Y-69821006D01*
X111237905Y-69799779D01*
X111194813Y-69786708D01*
X111150000Y-69782294D01*
X109650000Y-69782294D01*
X109605187Y-69786708D01*
X109562095Y-69799779D01*
X109522382Y-69821006D01*
X109487573Y-69849573D01*
X109459006Y-69884382D01*
X109437779Y-69924095D01*
X109424708Y-69967187D01*
X109420294Y-70012000D01*
X109253600Y-70012000D01*
X109253600Y-64881035D01*
X110473347Y-64881035D01*
X110473347Y-65054105D01*
X110507111Y-65223848D01*
X110573342Y-65383743D01*
X110669494Y-65527645D01*
X110791872Y-65650023D01*
X110935774Y-65746175D01*
X111047148Y-65792308D01*
X111047148Y-66189479D01*
X111045674Y-66204447D01*
X111051558Y-66264198D01*
X111068987Y-66321652D01*
X111082162Y-66346301D01*
X111097290Y-66374604D01*
X111119396Y-66401540D01*
X111123911Y-66407040D01*
X111135380Y-66421015D01*
X111147004Y-66430555D01*
X111900294Y-67183846D01*
X111900294Y-67421155D01*
X111696446Y-67625003D01*
X111684823Y-67634542D01*
X111646733Y-67680953D01*
X111639382Y-67694706D01*
X111618430Y-67733905D01*
X111601001Y-67791359D01*
X111595117Y-67851110D01*
X111596591Y-67866078D01*
X111596590Y-68856432D01*
X111595117Y-68871390D01*
X111596590Y-68886348D01*
X111596590Y-68886355D01*
X111600413Y-68925174D01*
X111601001Y-68931141D01*
X111610227Y-68961554D01*
X111618430Y-68988595D01*
X111646732Y-69041546D01*
X111684822Y-69087958D01*
X111696451Y-69097502D01*
X112337242Y-69738294D01*
X111900000Y-69738294D01*
X111855187Y-69742708D01*
X111812095Y-69755779D01*
X111772382Y-69777006D01*
X111737573Y-69805573D01*
X111709006Y-69840382D01*
X111687779Y-69880095D01*
X111674708Y-69923187D01*
X111670294Y-69968000D01*
X111670294Y-70968000D01*
X111674708Y-71012813D01*
X111687779Y-71055905D01*
X111709006Y-71095618D01*
X111737573Y-71130427D01*
X111772382Y-71158994D01*
X111812095Y-71180221D01*
X111841037Y-71189000D01*
X111812095Y-71197779D01*
X111772382Y-71219006D01*
X111737573Y-71247573D01*
X111709006Y-71282382D01*
X111687779Y-71322095D01*
X111674708Y-71365187D01*
X111670294Y-71410000D01*
X111670294Y-72410000D01*
X111674708Y-72454813D01*
X111687779Y-72497905D01*
X111709006Y-72537618D01*
X111737573Y-72572427D01*
X111772382Y-72600994D01*
X111812095Y-72622221D01*
X111855187Y-72635292D01*
X111900000Y-72639706D01*
X113400000Y-72639706D01*
X113444813Y-72635292D01*
X113487905Y-72622221D01*
X113527618Y-72600994D01*
X113562427Y-72572427D01*
X113590994Y-72537618D01*
X113612221Y-72497905D01*
X113625292Y-72454813D01*
X113629706Y-72410000D01*
X113629706Y-72205064D01*
X113669606Y-72192960D01*
X113722557Y-72164658D01*
X113768968Y-72126568D01*
X113778512Y-72114939D01*
X113820294Y-72073157D01*
X113820294Y-72375000D01*
X113824708Y-72419813D01*
X113837779Y-72462905D01*
X113859006Y-72502618D01*
X113887573Y-72537427D01*
X113922382Y-72565994D01*
X113962095Y-72587221D01*
X114005187Y-72600292D01*
X114050000Y-72604706D01*
X115550000Y-72604706D01*
X115594813Y-72600292D01*
X115637905Y-72587221D01*
X115677618Y-72565994D01*
X115712427Y-72537427D01*
X115740994Y-72502618D01*
X115762221Y-72462905D01*
X115775292Y-72419813D01*
X115779706Y-72375000D01*
X115779706Y-72058845D01*
X116154846Y-71683706D01*
X116165000Y-71684706D01*
X116475000Y-71684706D01*
X116550052Y-71677314D01*
X116622221Y-71655422D01*
X116688731Y-71619871D01*
X116747028Y-71572028D01*
X116794871Y-71513731D01*
X116830422Y-71447221D01*
X116847082Y-71392300D01*
X117027542Y-71392300D01*
X117042500Y-71393773D01*
X117057458Y-71392300D01*
X117057466Y-71392300D01*
X117102251Y-71387889D01*
X117159706Y-71370460D01*
X117212657Y-71342158D01*
X117259068Y-71304068D01*
X117268612Y-71292439D01*
X117724945Y-70836107D01*
X117736568Y-70826568D01*
X117774658Y-70780157D01*
X117802960Y-70727206D01*
X117812343Y-70696274D01*
X117820389Y-70669752D01*
X117821224Y-70661269D01*
X117824800Y-70624966D01*
X117824800Y-70624958D01*
X117826273Y-70610000D01*
X117824800Y-70595042D01*
X117824800Y-69282457D01*
X117826273Y-69267499D01*
X117824800Y-69252541D01*
X117824800Y-69252534D01*
X117820389Y-69207749D01*
X117802960Y-69150294D01*
X117774658Y-69097343D01*
X117736568Y-69050932D01*
X117724944Y-69041392D01*
X117299706Y-68616155D01*
X117299706Y-68300000D01*
X117292218Y-68223972D01*
X117270041Y-68150866D01*
X117234029Y-68083491D01*
X117185564Y-68024436D01*
X117126509Y-67975971D01*
X117059134Y-67939959D01*
X116986028Y-67917782D01*
X116910000Y-67910294D01*
X116590000Y-67910294D01*
X116513972Y-67917782D01*
X116440866Y-67939959D01*
X116373491Y-67975971D01*
X116314436Y-68024436D01*
X116265971Y-68083491D01*
X116229959Y-68150866D01*
X116207782Y-68223972D01*
X116200294Y-68300000D01*
X116200294Y-68695000D01*
X116207782Y-68771028D01*
X116229959Y-68844134D01*
X116265971Y-68911509D01*
X116314436Y-68970564D01*
X116373491Y-69019029D01*
X116440866Y-69055041D01*
X116513972Y-69077218D01*
X116590000Y-69084706D01*
X116906155Y-69084706D01*
X117215201Y-69393753D01*
X117215200Y-70483748D01*
X116916249Y-70782700D01*
X116847082Y-70782700D01*
X116830422Y-70727779D01*
X116794871Y-70661269D01*
X116763505Y-70623050D01*
X116814337Y-70595880D01*
X116864617Y-70554617D01*
X116905880Y-70504337D01*
X116936541Y-70446974D01*
X116955423Y-70384731D01*
X116961798Y-70320000D01*
X116960200Y-70085850D01*
X116877650Y-70003300D01*
X116370800Y-70003300D01*
X116370800Y-70023300D01*
X116269200Y-70023300D01*
X116269200Y-70003300D01*
X116249200Y-70003300D01*
X116249200Y-69901700D01*
X116269200Y-69901700D01*
X116269200Y-69337350D01*
X116370800Y-69337350D01*
X116370800Y-69901700D01*
X116877650Y-69901700D01*
X116960200Y-69819150D01*
X116961798Y-69585000D01*
X116955423Y-69520269D01*
X116936541Y-69458026D01*
X116905880Y-69400663D01*
X116864617Y-69350383D01*
X116814337Y-69309120D01*
X116756974Y-69278459D01*
X116694731Y-69259577D01*
X116630000Y-69253202D01*
X116453350Y-69254800D01*
X116370800Y-69337350D01*
X116269200Y-69337350D01*
X116186650Y-69254800D01*
X116010000Y-69253202D01*
X115945269Y-69259577D01*
X115883026Y-69278459D01*
X115825663Y-69309120D01*
X115775383Y-69350383D01*
X115734120Y-69400663D01*
X115703459Y-69458026D01*
X115684577Y-69520269D01*
X115678202Y-69585000D01*
X115678890Y-69685864D01*
X115636974Y-69663459D01*
X115574731Y-69644577D01*
X115510000Y-69638202D01*
X114893350Y-69639800D01*
X114810800Y-69722350D01*
X114810800Y-70419200D01*
X114830800Y-70419200D01*
X114830800Y-70520800D01*
X114810800Y-70520800D01*
X114810800Y-70540800D01*
X114709200Y-70540800D01*
X114709200Y-70520800D01*
X114689200Y-70520800D01*
X114689200Y-70419200D01*
X114709200Y-70419200D01*
X114709200Y-69722350D01*
X114626650Y-69639800D01*
X114192377Y-69638675D01*
X116218778Y-67612274D01*
X116229959Y-67649134D01*
X116265971Y-67716509D01*
X116314436Y-67775564D01*
X116373491Y-67824029D01*
X116440866Y-67860041D01*
X116513972Y-67882218D01*
X116590000Y-67889706D01*
X116910000Y-67889706D01*
X116986028Y-67882218D01*
X117059134Y-67860041D01*
X117126509Y-67824029D01*
X117185564Y-67775564D01*
X117234029Y-67716509D01*
X117270041Y-67649134D01*
X117292218Y-67576028D01*
X117299706Y-67500000D01*
X117299706Y-67105000D01*
X117292218Y-67028972D01*
X117270041Y-66955866D01*
X117234029Y-66888491D01*
X117185564Y-66829436D01*
X117126509Y-66780971D01*
X117059134Y-66744959D01*
X117052528Y-66742955D01*
X117052528Y-65792173D01*
X117163901Y-65746041D01*
X117307803Y-65649889D01*
X117430181Y-65527511D01*
X117526333Y-65383609D01*
X117592564Y-65223714D01*
X117626328Y-65053971D01*
X117626328Y-64880901D01*
X117592564Y-64711158D01*
X117526333Y-64551263D01*
X117430181Y-64407361D01*
X117307803Y-64284983D01*
X117163901Y-64188831D01*
X117004006Y-64122600D01*
X116834263Y-64088836D01*
X116661193Y-64088836D01*
X116491450Y-64122600D01*
X116331555Y-64188831D01*
X116187653Y-64284983D01*
X116065275Y-64407361D01*
X115969123Y-64551263D01*
X115902892Y-64711158D01*
X115869128Y-64880901D01*
X115869128Y-65053971D01*
X115902892Y-65223714D01*
X115969123Y-65383609D01*
X116065275Y-65527511D01*
X116187653Y-65649889D01*
X116331555Y-65746041D01*
X116442928Y-65792174D01*
X116442929Y-66744333D01*
X116440866Y-66744959D01*
X116373491Y-66780971D01*
X116314436Y-66829436D01*
X116265971Y-66888491D01*
X116229959Y-66955866D01*
X116217268Y-66997700D01*
X116112458Y-66997700D01*
X116097500Y-66996227D01*
X116082542Y-66997700D01*
X116082534Y-66997700D01*
X116042903Y-67001603D01*
X116037748Y-67002111D01*
X115987784Y-67017268D01*
X115980294Y-67019540D01*
X115927343Y-67047842D01*
X115880932Y-67085932D01*
X115871392Y-67097556D01*
X113505061Y-69463888D01*
X113493432Y-69473432D01*
X113455342Y-69519844D01*
X113433746Y-69560249D01*
X113427040Y-69572795D01*
X113412721Y-69619999D01*
X113409611Y-69630250D01*
X113405200Y-69675035D01*
X113405200Y-69675042D01*
X113403727Y-69690000D01*
X113405200Y-69704958D01*
X113405200Y-69738806D01*
X113400000Y-69738294D01*
X112954800Y-69738294D01*
X112954800Y-69634957D01*
X112956273Y-69619999D01*
X112954800Y-69605041D01*
X112954800Y-69605034D01*
X112950389Y-69560249D01*
X112932960Y-69502794D01*
X112904658Y-69449843D01*
X112866568Y-69403432D01*
X112854944Y-69393892D01*
X112545758Y-69084706D01*
X112610000Y-69084706D01*
X112686028Y-69077218D01*
X112759134Y-69055041D01*
X112826509Y-69019029D01*
X112885564Y-68970564D01*
X112934029Y-68911509D01*
X112970041Y-68844134D01*
X112992218Y-68771028D01*
X112999706Y-68695000D01*
X112999706Y-68378845D01*
X113574944Y-67803608D01*
X113586568Y-67794068D01*
X113624658Y-67747657D01*
X113652960Y-67694706D01*
X113670389Y-67637251D01*
X113674800Y-67592466D01*
X113674800Y-67592459D01*
X113676273Y-67577501D01*
X113674800Y-67562543D01*
X113674800Y-66704958D01*
X113676273Y-66690000D01*
X113674800Y-66675042D01*
X113674800Y-66675034D01*
X113670389Y-66630249D01*
X113652960Y-66572794D01*
X113624658Y-66519843D01*
X113610798Y-66502955D01*
X113596109Y-66485056D01*
X113596103Y-66485050D01*
X113586568Y-66473432D01*
X113574951Y-66463898D01*
X113572571Y-66461518D01*
X114288970Y-66461518D01*
X114288970Y-66634588D01*
X114322734Y-66804331D01*
X114388965Y-66964226D01*
X114485117Y-67108128D01*
X114607495Y-67230506D01*
X114751397Y-67326658D01*
X114911292Y-67392889D01*
X115081035Y-67426653D01*
X115254105Y-67426653D01*
X115423848Y-67392889D01*
X115583743Y-67326658D01*
X115727645Y-67230506D01*
X115850023Y-67108128D01*
X115946175Y-66964226D01*
X116012406Y-66804331D01*
X116046170Y-66634588D01*
X116046170Y-66461518D01*
X116012406Y-66291775D01*
X115946175Y-66131880D01*
X115850023Y-65987978D01*
X115727645Y-65865600D01*
X115583743Y-65769448D01*
X115423848Y-65703217D01*
X115254105Y-65669453D01*
X115081035Y-65669453D01*
X114911292Y-65703217D01*
X114751397Y-65769448D01*
X114607495Y-65865600D01*
X114485117Y-65987978D01*
X114388965Y-66131880D01*
X114322734Y-66291775D01*
X114288970Y-66461518D01*
X113572571Y-66461518D01*
X113157300Y-66046249D01*
X113157300Y-64127082D01*
X113212221Y-64110422D01*
X113278731Y-64074871D01*
X113316950Y-64043505D01*
X113344120Y-64094337D01*
X113385383Y-64144617D01*
X113435663Y-64185880D01*
X113493026Y-64216541D01*
X113555269Y-64235423D01*
X113620000Y-64241798D01*
X113854150Y-64240200D01*
X113936700Y-64157650D01*
X113936700Y-63650800D01*
X114038300Y-63650800D01*
X114038300Y-64157650D01*
X114120850Y-64240200D01*
X114355000Y-64241798D01*
X114419731Y-64235423D01*
X114481974Y-64216541D01*
X114539337Y-64185880D01*
X114589617Y-64144617D01*
X114630880Y-64094337D01*
X114661541Y-64036974D01*
X114680423Y-63974731D01*
X114686798Y-63910000D01*
X114685200Y-63733350D01*
X114602650Y-63650800D01*
X114038300Y-63650800D01*
X113936700Y-63650800D01*
X113916700Y-63650800D01*
X113916700Y-63549200D01*
X113936700Y-63549200D01*
X113936700Y-63042350D01*
X114038300Y-63042350D01*
X114038300Y-63549200D01*
X114602650Y-63549200D01*
X114685200Y-63466650D01*
X114686798Y-63290000D01*
X114680423Y-63225269D01*
X114661541Y-63163026D01*
X114630880Y-63105663D01*
X114589617Y-63055383D01*
X114539337Y-63014120D01*
X114481974Y-62983459D01*
X114419731Y-62964577D01*
X114355000Y-62958202D01*
X114120850Y-62959800D01*
X114038300Y-63042350D01*
X113936700Y-63042350D01*
X113854150Y-62959800D01*
X113620000Y-62958202D01*
X113555269Y-62964577D01*
X113493026Y-62983459D01*
X113435663Y-63014120D01*
X113385383Y-63055383D01*
X113344120Y-63105663D01*
X113316950Y-63156495D01*
X113278731Y-63125129D01*
X113212221Y-63089578D01*
X113140052Y-63067686D01*
X113065000Y-63060294D01*
X112640000Y-63060294D01*
X112564948Y-63067686D01*
X112492779Y-63089578D01*
X112426269Y-63125129D01*
X112367972Y-63172972D01*
X112320129Y-63231269D01*
X112306858Y-63256098D01*
X112150975Y-63100216D01*
X112197108Y-62988842D01*
X112230872Y-62819099D01*
X112230872Y-62646029D01*
X112230846Y-62645895D01*
X115869453Y-62645895D01*
X115869453Y-62818965D01*
X115903217Y-62988708D01*
X115969448Y-63148603D01*
X116065600Y-63292505D01*
X116187978Y-63414883D01*
X116331880Y-63511035D01*
X116491775Y-63577266D01*
X116661518Y-63611030D01*
X116834588Y-63611030D01*
X117004331Y-63577266D01*
X117164226Y-63511035D01*
X117308128Y-63414883D01*
X117430506Y-63292505D01*
X117526658Y-63148603D01*
X117592889Y-62988708D01*
X117626653Y-62818965D01*
X117626653Y-62645895D01*
X117592889Y-62476152D01*
X117526658Y-62316257D01*
X117430506Y-62172355D01*
X117308128Y-62049977D01*
X117164226Y-61953825D01*
X117004331Y-61887594D01*
X116834588Y-61853830D01*
X116661518Y-61853830D01*
X116491775Y-61887594D01*
X116331880Y-61953825D01*
X116187978Y-62049977D01*
X116065600Y-62172355D01*
X115969448Y-62316257D01*
X115903217Y-62476152D01*
X115869453Y-62645895D01*
X112230846Y-62645895D01*
X112197108Y-62476286D01*
X112130877Y-62316391D01*
X112034725Y-62172489D01*
X111912347Y-62050111D01*
X111768445Y-61953959D01*
X111608550Y-61887728D01*
X111438807Y-61853964D01*
X111265737Y-61853964D01*
X111095994Y-61887728D01*
X110936099Y-61953959D01*
X110792197Y-62050111D01*
X110669819Y-62172489D01*
X110573667Y-62316391D01*
X110507436Y-62476286D01*
X110473672Y-62646029D01*
X110473672Y-62819099D01*
X110507436Y-62988842D01*
X110573667Y-63148737D01*
X110669819Y-63292639D01*
X110792197Y-63415017D01*
X110936099Y-63511169D01*
X111095994Y-63577400D01*
X111265737Y-63611164D01*
X111438807Y-63611164D01*
X111608550Y-63577400D01*
X111719924Y-63531267D01*
X111993600Y-63804944D01*
X112003140Y-63816568D01*
X112049551Y-63854658D01*
X112102502Y-63882960D01*
X112159956Y-63900389D01*
X112165111Y-63900897D01*
X112204742Y-63904800D01*
X112204750Y-63904800D01*
X112219708Y-63906273D01*
X112234666Y-63904800D01*
X112285957Y-63904800D01*
X112320129Y-63968731D01*
X112367972Y-64027028D01*
X112426269Y-64074871D01*
X112492779Y-64110422D01*
X112547700Y-64127082D01*
X112547701Y-66157532D01*
X112546227Y-66172500D01*
X112552111Y-66232251D01*
X112569540Y-66289705D01*
X112582715Y-66314354D01*
X112597843Y-66342657D01*
X112635933Y-66389068D01*
X112647556Y-66398607D01*
X113065200Y-66816253D01*
X113065201Y-67451247D01*
X112997877Y-67518571D01*
X112999706Y-67500000D01*
X112999706Y-67105000D01*
X112992218Y-67028972D01*
X112970041Y-66955866D01*
X112934029Y-66888491D01*
X112885564Y-66829436D01*
X112826509Y-66780971D01*
X112759134Y-66744959D01*
X112686028Y-66722782D01*
X112610000Y-66715294D01*
X112293846Y-66715294D01*
X111656747Y-66078196D01*
X111656747Y-65792307D01*
X111768120Y-65746175D01*
X111912022Y-65650023D01*
X112034400Y-65527645D01*
X112130552Y-65383743D01*
X112196783Y-65223848D01*
X112230547Y-65054105D01*
X112230547Y-64881035D01*
X112196783Y-64711292D01*
X112130552Y-64551397D01*
X112034400Y-64407495D01*
X111912022Y-64285117D01*
X111768120Y-64188965D01*
X111608225Y-64122734D01*
X111438482Y-64088970D01*
X111265412Y-64088970D01*
X111095669Y-64122734D01*
X110935774Y-64188965D01*
X110791872Y-64285117D01*
X110669494Y-64407495D01*
X110573342Y-64551397D01*
X110507111Y-64711292D01*
X110473347Y-64881035D01*
X109253600Y-64881035D01*
X109253600Y-61543663D01*
X112119490Y-61543663D01*
X112120289Y-61709208D01*
X112244610Y-61856941D01*
X112395364Y-61977581D01*
X112566756Y-62066493D01*
X112752202Y-62120260D01*
X112944574Y-62136814D01*
X113112657Y-62120260D01*
X113230280Y-62003768D01*
X112904937Y-61218320D01*
X112119490Y-61543663D01*
X109253600Y-61543663D01*
X109253600Y-61164091D01*
X111947563Y-61164091D01*
X111964117Y-61332174D01*
X112080609Y-61449797D01*
X112733308Y-61179440D01*
X112998803Y-61179440D01*
X113324146Y-61964887D01*
X113489691Y-61964088D01*
X113637424Y-61839767D01*
X113758064Y-61689013D01*
X113846976Y-61517621D01*
X113900743Y-61332175D01*
X113917297Y-61139803D01*
X113900743Y-60971720D01*
X113784251Y-60854097D01*
X112998803Y-61179440D01*
X112733308Y-61179440D01*
X112866057Y-61124454D01*
X112540714Y-60339007D01*
X112375169Y-60339806D01*
X112227436Y-60464127D01*
X112106796Y-60614881D01*
X112017884Y-60786273D01*
X111964117Y-60971719D01*
X111947563Y-61164091D01*
X109253600Y-61164091D01*
X109253600Y-60300126D01*
X112634580Y-60300126D01*
X112959923Y-61085574D01*
X113745370Y-60760231D01*
X113744571Y-60594686D01*
X113620250Y-60446953D01*
X113469496Y-60326313D01*
X113298104Y-60237401D01*
X113112658Y-60183634D01*
X112920286Y-60167080D01*
X112752203Y-60183634D01*
X112634580Y-60300126D01*
X109253600Y-60300126D01*
X109253600Y-55722943D01*
X109299847Y-55834593D01*
X109423359Y-56019441D01*
X109580559Y-56176641D01*
X109765407Y-56300153D01*
X109970799Y-56385229D01*
X110188843Y-56428600D01*
X110411157Y-56428600D01*
X110629201Y-56385229D01*
X110834593Y-56300153D01*
X111019441Y-56176641D01*
X111176641Y-56019441D01*
X111300153Y-55834593D01*
X111385229Y-55629201D01*
X111428600Y-55411157D01*
X111428600Y-55188843D01*
X111385229Y-54970799D01*
X111300153Y-54765407D01*
X111176641Y-54580559D01*
X111019441Y-54423359D01*
X110834593Y-54299847D01*
X110722943Y-54253600D01*
X117277057Y-54253600D01*
X117165407Y-54299847D01*
G37*
%TD.AperFunction*%
%TD*%
M02*
