%TF.GenerationSoftware,KiCad,Pcbnew,(5.1.8)-1*%
%TF.CreationDate,2021-10-03T17:02:32-04:00*%
%TF.ProjectId,IR_TEMP_V1,49525f54-454d-4505-9f56-312e6b696361,rev?*%
%TF.SameCoordinates,Original*%
%TF.FileFunction,Legend,Top*%
%TF.FilePolarity,Positive*%
%FSLAX46Y46*%
G04 Gerber Fmt 4.6, Leading zero omitted, Abs format (unit mm)*
G04 Created by KiCad (PCBNEW (5.1.8)-1) date 2021-10-03 17:02:32*
%MOMM*%
%LPD*%
G01*
G04 APERTURE LIST*
%ADD10C,0.150000*%
%ADD11C,0.120000*%
G04 APERTURE END LIST*
D10*
X111122857Y-56921666D02*
X111599047Y-56921666D01*
X111027619Y-57207380D02*
X111360952Y-56207380D01*
X111694285Y-57207380D01*
X111980000Y-57159761D02*
X112075238Y-57207380D01*
X112265714Y-57207380D01*
X112360952Y-57159761D01*
X112408571Y-57064523D01*
X112408571Y-57016904D01*
X112360952Y-56921666D01*
X112265714Y-56874047D01*
X112122857Y-56874047D01*
X112027619Y-56826428D01*
X111980000Y-56731190D01*
X111980000Y-56683571D01*
X112027619Y-56588333D01*
X112122857Y-56540714D01*
X112265714Y-56540714D01*
X112360952Y-56588333D01*
X112694285Y-56540714D02*
X113075238Y-56540714D01*
X112837142Y-56207380D02*
X112837142Y-57064523D01*
X112884761Y-57159761D01*
X112980000Y-57207380D01*
X113075238Y-57207380D01*
X113408571Y-57207380D02*
X113408571Y-56540714D01*
X113408571Y-56731190D02*
X113456190Y-56635952D01*
X113503809Y-56588333D01*
X113599047Y-56540714D01*
X113694285Y-56540714D01*
X114170476Y-57207380D02*
X114075238Y-57159761D01*
X114027619Y-57112142D01*
X113980000Y-57016904D01*
X113980000Y-56731190D01*
X114027619Y-56635952D01*
X114075238Y-56588333D01*
X114170476Y-56540714D01*
X114313333Y-56540714D01*
X114408571Y-56588333D01*
X114456190Y-56635952D01*
X114503809Y-56731190D01*
X114503809Y-57016904D01*
X114456190Y-57112142D01*
X114408571Y-57159761D01*
X114313333Y-57207380D01*
X114170476Y-57207380D01*
X114884761Y-56921666D02*
X115360952Y-56921666D01*
X114789523Y-57207380D02*
X115122857Y-56207380D01*
X115456190Y-57207380D01*
X115789523Y-56540714D02*
X115789523Y-57207380D01*
X115789523Y-56635952D02*
X115837142Y-56588333D01*
X115932380Y-56540714D01*
X116075238Y-56540714D01*
X116170476Y-56588333D01*
X116218095Y-56683571D01*
X116218095Y-57207380D01*
X116551428Y-56540714D02*
X116932380Y-56540714D01*
X116694285Y-56207380D02*
X116694285Y-57064523D01*
X116741904Y-57159761D01*
X116837142Y-57207380D01*
X116932380Y-57207380D01*
X113480000Y-58857380D02*
X113480000Y-57857380D01*
X114527619Y-58857380D02*
X114194285Y-58381190D01*
X113956190Y-58857380D02*
X113956190Y-57857380D01*
X114337142Y-57857380D01*
X114432380Y-57905000D01*
X114480000Y-57952619D01*
X114527619Y-58047857D01*
X114527619Y-58190714D01*
X114480000Y-58285952D01*
X114432380Y-58333571D01*
X114337142Y-58381190D01*
X113956190Y-58381190D01*
D11*
%TO.C,U1*%
X118750000Y-63850000D02*
G75*
G03*
X118750000Y-63850000I-4700000J0D01*
G01*
%TO.C,R2*%
X117130000Y-67732379D02*
X117130000Y-68067621D01*
X116370000Y-67732379D02*
X116370000Y-68067621D01*
%TO.C,R1*%
X112830000Y-67732379D02*
X112830000Y-68067621D01*
X112070000Y-67732379D02*
X112070000Y-68067621D01*
%TO.C,C1*%
X115960000Y-70404165D02*
X115960000Y-70635835D01*
X116680000Y-70404165D02*
X116680000Y-70635835D01*
%TO.C,C2*%
X113535835Y-63960000D02*
X113304165Y-63960000D01*
X113535835Y-63240000D02*
X113304165Y-63240000D01*
%TD*%
M02*
