%TF.GenerationSoftware,KiCad,Pcbnew,(5.1.8)-1*%
%TF.CreationDate,2021-10-03T16:57:03-04:00*%
%TF.ProjectId,IR_TEMP_V1,49525f54-454d-4505-9f56-312e6b696361,rev?*%
%TF.SameCoordinates,Original*%
%TF.FileFunction,Copper,L2,Bot*%
%TF.FilePolarity,Positive*%
%FSLAX46Y46*%
G04 Gerber Fmt 4.6, Leading zero omitted, Abs format (unit mm)*
G04 Created by KiCad (PCBNEW (5.1.8)-1) date 2021-10-03 16:57:03*
%MOMM*%
%LPD*%
G01*
G04 APERTURE LIST*
%TA.AperFunction,ComponentPad*%
%ADD10C,1.300000*%
%TD*%
%TA.AperFunction,SMDPad,CuDef*%
%ADD11R,1.500000X1.000000*%
%TD*%
%TA.AperFunction,ViaPad*%
%ADD12C,0.508000*%
%TD*%
%TA.AperFunction,Conductor*%
%ADD13C,0.152400*%
%TD*%
%TA.AperFunction,Conductor*%
%ADD14C,0.100000*%
%TD*%
G04 APERTURE END LIST*
%TO.P,R3,2*%
%TO.N,/INT*%
%TA.AperFunction,SMDPad,CuDef*%
G36*
G01*
X114487158Y-64736568D02*
X114713432Y-64962842D01*
G75*
G02*
X114713432Y-65189116I-113137J-113137D01*
G01*
X114434124Y-65468424D01*
G75*
G02*
X114207850Y-65468424I-113137J113137D01*
G01*
X113981576Y-65242150D01*
G75*
G02*
X113981576Y-65015876I113137J113137D01*
G01*
X114260884Y-64736568D01*
G75*
G02*
X114487158Y-64736568I113137J-113137D01*
G01*
G37*
%TD.AperFunction*%
%TO.P,R3,1*%
%TO.N,/INT_TPIS*%
%TA.AperFunction,SMDPad,CuDef*%
G36*
G01*
X115332150Y-63891576D02*
X115558424Y-64117850D01*
G75*
G02*
X115558424Y-64344124I-113137J-113137D01*
G01*
X115279116Y-64623432D01*
G75*
G02*
X115052842Y-64623432I-113137J113137D01*
G01*
X114826568Y-64397158D01*
G75*
G02*
X114826568Y-64170884I113137J113137D01*
G01*
X115105876Y-63891576D01*
G75*
G02*
X115332150Y-63891576I113137J-113137D01*
G01*
G37*
%TD.AperFunction*%
%TD*%
D10*
%TO.P,U1,6*%
%TO.N,/A1*%
X115167570Y-66548053D03*
%TO.P,U1,5*%
%TO.N,/SCL*%
X116747728Y-64967436D03*
%TO.P,U1,4*%
%TO.N,/INT_TPIS*%
X116748053Y-62732430D03*
%TO.P,U1,3*%
%TO.N,/SDA*%
X111351947Y-64967570D03*
%TO.P,U1,2*%
%TO.N,+3V3*%
X111352272Y-62732564D03*
%TO.P,U1,1*%
%TO.N,GND*%
X112932430Y-61151947D03*
%TD*%
D11*
%TO.P,J12,1*%
%TO.N,/INT*%
X110400000Y-71936000D03*
%TD*%
%TO.P,J11,1*%
%TO.N,/A1*%
X110400000Y-70512000D03*
%TD*%
%TO.P,J10,1*%
%TO.N,/SCL*%
X112650000Y-71910000D03*
%TD*%
%TO.P,J9,1*%
%TO.N,/SDA*%
X112650000Y-70468000D03*
%TD*%
%TO.P,J8,1*%
%TO.N,GND*%
X114760000Y-70470000D03*
%TD*%
%TO.P,J7,1*%
%TO.N,+3V3*%
X114800000Y-71875000D03*
%TD*%
D12*
%TO.N,+3V3*%
X114800000Y-71875000D03*
X112450000Y-68497500D03*
%TO.N,GND*%
X113830000Y-55950000D03*
X110970000Y-58340000D03*
X116340000Y-58250000D03*
X115130000Y-61290000D03*
X114320000Y-67830000D03*
X115660000Y-68960000D03*
X111200000Y-68920000D03*
X109980000Y-66260000D03*
X118020000Y-63840000D03*
X110110000Y-63700000D03*
X118090000Y-68100000D03*
X115750000Y-73160000D03*
X111280000Y-73160000D03*
%TO.N,/A1*%
X110400000Y-70512000D03*
%TO.N,/SDA*%
X112650000Y-70468000D03*
%TO.N,/SCL*%
X112650000Y-71910000D03*
%TO.N,/INT*%
X110400000Y-71936000D03*
%TD*%
D13*
%TO.N,+3V3*%
X113897600Y-71875000D02*
X113750000Y-71727400D01*
X114800000Y-71875000D02*
X113897600Y-71875000D01*
X113750000Y-69797500D02*
X112450000Y-68497500D01*
X113750000Y-71727400D02*
X113750000Y-69797500D01*
%TO.N,/A1*%
X115167570Y-66548053D02*
X112061947Y-66548053D01*
X110400000Y-68210000D02*
X110400000Y-70512000D01*
X112061947Y-66548053D02*
X110400000Y-68210000D01*
%TO.N,/INT*%
X114347504Y-65102496D02*
X113206757Y-66243243D01*
X111935690Y-66243244D02*
X109330000Y-68848934D01*
X113206757Y-66243243D02*
X111935690Y-66243244D01*
X110400000Y-71936000D02*
X110400000Y-71936000D01*
X109330000Y-71170000D02*
X109330000Y-68848934D01*
X110096000Y-71936000D02*
X109330000Y-71170000D01*
X110400000Y-71936000D02*
X110096000Y-71936000D01*
%TO.N,/INT_TPIS*%
X115222979Y-64257504D02*
X115192496Y-64257504D01*
X116748053Y-62732430D02*
X115222979Y-64257504D01*
%TD*%
%TO.N,GND*%
X117165407Y-54299847D02*
X116980559Y-54423359D01*
X116823359Y-54580559D01*
X116699847Y-54765407D01*
X116614771Y-54970799D01*
X116571400Y-55188843D01*
X116571400Y-55411157D01*
X116614771Y-55629201D01*
X116699847Y-55834593D01*
X116823359Y-56019441D01*
X116980559Y-56176641D01*
X117165407Y-56300153D01*
X117370799Y-56385229D01*
X117588843Y-56428600D01*
X117811157Y-56428600D01*
X118029201Y-56385229D01*
X118234593Y-56300153D01*
X118419441Y-56176641D01*
X118576641Y-56019441D01*
X118700153Y-55834593D01*
X118746400Y-55722943D01*
X118746401Y-72277060D01*
X118700153Y-72165407D01*
X118576641Y-71980559D01*
X118419441Y-71823359D01*
X118234593Y-71699847D01*
X118029201Y-71614771D01*
X117811157Y-71571400D01*
X117588843Y-71571400D01*
X117370799Y-71614771D01*
X117165407Y-71699847D01*
X116980559Y-71823359D01*
X116823359Y-71980559D01*
X116699847Y-72165407D01*
X116614771Y-72370799D01*
X116571400Y-72588843D01*
X116571400Y-72811157D01*
X116614771Y-73029201D01*
X116699847Y-73234593D01*
X116823359Y-73419441D01*
X116980559Y-73576641D01*
X117165407Y-73700153D01*
X117277057Y-73746400D01*
X109253600Y-73746400D01*
X109253600Y-71524651D01*
X109420294Y-71691345D01*
X109420294Y-72436000D01*
X109424708Y-72480813D01*
X109437779Y-72523905D01*
X109459006Y-72563618D01*
X109487573Y-72598427D01*
X109522382Y-72626994D01*
X109562095Y-72648221D01*
X109605187Y-72661292D01*
X109650000Y-72665706D01*
X111150000Y-72665706D01*
X111194813Y-72661292D01*
X111237905Y-72648221D01*
X111277618Y-72626994D01*
X111312427Y-72598427D01*
X111340994Y-72563618D01*
X111362221Y-72523905D01*
X111375292Y-72480813D01*
X111379706Y-72436000D01*
X111379706Y-71436000D01*
X111375292Y-71391187D01*
X111362221Y-71348095D01*
X111340994Y-71308382D01*
X111312427Y-71273573D01*
X111277618Y-71245006D01*
X111238318Y-71224000D01*
X111277618Y-71202994D01*
X111312427Y-71174427D01*
X111340994Y-71139618D01*
X111362221Y-71099905D01*
X111375292Y-71056813D01*
X111379706Y-71012000D01*
X111379706Y-70012000D01*
X111375373Y-69968000D01*
X111670294Y-69968000D01*
X111670294Y-70968000D01*
X111674708Y-71012813D01*
X111687779Y-71055905D01*
X111709006Y-71095618D01*
X111737573Y-71130427D01*
X111772382Y-71158994D01*
X111812095Y-71180221D01*
X111841037Y-71189000D01*
X111812095Y-71197779D01*
X111772382Y-71219006D01*
X111737573Y-71247573D01*
X111709006Y-71282382D01*
X111687779Y-71322095D01*
X111674708Y-71365187D01*
X111670294Y-71410000D01*
X111670294Y-72410000D01*
X111674708Y-72454813D01*
X111687779Y-72497905D01*
X111709006Y-72537618D01*
X111737573Y-72572427D01*
X111772382Y-72600994D01*
X111812095Y-72622221D01*
X111855187Y-72635292D01*
X111900000Y-72639706D01*
X113400000Y-72639706D01*
X113444813Y-72635292D01*
X113487905Y-72622221D01*
X113527618Y-72600994D01*
X113562427Y-72572427D01*
X113590994Y-72537618D01*
X113612221Y-72497905D01*
X113625292Y-72454813D01*
X113629706Y-72410000D01*
X113629706Y-72038157D01*
X113671488Y-72079939D01*
X113681032Y-72091568D01*
X113727443Y-72129658D01*
X113780394Y-72157960D01*
X113820294Y-72170064D01*
X113820294Y-72375000D01*
X113824708Y-72419813D01*
X113837779Y-72462905D01*
X113859006Y-72502618D01*
X113887573Y-72537427D01*
X113922382Y-72565994D01*
X113962095Y-72587221D01*
X114005187Y-72600292D01*
X114050000Y-72604706D01*
X115550000Y-72604706D01*
X115594813Y-72600292D01*
X115637905Y-72587221D01*
X115677618Y-72565994D01*
X115712427Y-72537427D01*
X115740994Y-72502618D01*
X115762221Y-72462905D01*
X115775292Y-72419813D01*
X115779706Y-72375000D01*
X115779706Y-71375000D01*
X115775292Y-71330187D01*
X115762221Y-71287095D01*
X115740994Y-71247382D01*
X115721480Y-71223604D01*
X115744617Y-71204617D01*
X115785880Y-71154337D01*
X115816541Y-71096974D01*
X115835423Y-71034731D01*
X115841798Y-70970000D01*
X115840200Y-70603350D01*
X115757650Y-70520800D01*
X114810800Y-70520800D01*
X114810800Y-70540800D01*
X114709200Y-70540800D01*
X114709200Y-70520800D01*
X114689200Y-70520800D01*
X114689200Y-70419200D01*
X114709200Y-70419200D01*
X114709200Y-69722350D01*
X114810800Y-69722350D01*
X114810800Y-70419200D01*
X115757650Y-70419200D01*
X115840200Y-70336650D01*
X115841798Y-69970000D01*
X115835423Y-69905269D01*
X115816541Y-69843026D01*
X115785880Y-69785663D01*
X115744617Y-69735383D01*
X115694337Y-69694120D01*
X115636974Y-69663459D01*
X115574731Y-69644577D01*
X115510000Y-69638202D01*
X114893350Y-69639800D01*
X114810800Y-69722350D01*
X114709200Y-69722350D01*
X114626650Y-69639800D01*
X114010463Y-69638203D01*
X114004658Y-69627343D01*
X113966568Y-69580932D01*
X113954944Y-69571392D01*
X112931934Y-68548382D01*
X112932600Y-68545032D01*
X112932600Y-68449968D01*
X112914054Y-68356731D01*
X112877674Y-68268903D01*
X112824860Y-68189860D01*
X112757640Y-68122640D01*
X112678597Y-68069826D01*
X112590769Y-68033446D01*
X112497532Y-68014900D01*
X112402468Y-68014900D01*
X112309231Y-68033446D01*
X112221403Y-68069826D01*
X112142360Y-68122640D01*
X112075140Y-68189860D01*
X112022326Y-68268903D01*
X111985946Y-68356731D01*
X111967400Y-68449968D01*
X111967400Y-68545032D01*
X111985946Y-68638269D01*
X112022326Y-68726097D01*
X112075140Y-68805140D01*
X112142360Y-68872360D01*
X112221403Y-68925174D01*
X112309231Y-68961554D01*
X112402468Y-68980100D01*
X112497532Y-68980100D01*
X112500882Y-68979434D01*
X113259742Y-69738294D01*
X111900000Y-69738294D01*
X111855187Y-69742708D01*
X111812095Y-69755779D01*
X111772382Y-69777006D01*
X111737573Y-69805573D01*
X111709006Y-69840382D01*
X111687779Y-69880095D01*
X111674708Y-69923187D01*
X111670294Y-69968000D01*
X111375373Y-69968000D01*
X111375292Y-69967187D01*
X111362221Y-69924095D01*
X111340994Y-69884382D01*
X111312427Y-69849573D01*
X111277618Y-69821006D01*
X111237905Y-69799779D01*
X111194813Y-69786708D01*
X111150000Y-69782294D01*
X110704800Y-69782294D01*
X110704800Y-68336251D01*
X112188199Y-66852853D01*
X114342833Y-66852853D01*
X114388965Y-66964226D01*
X114485117Y-67108128D01*
X114607495Y-67230506D01*
X114751397Y-67326658D01*
X114911292Y-67392889D01*
X115081035Y-67426653D01*
X115254105Y-67426653D01*
X115423848Y-67392889D01*
X115583743Y-67326658D01*
X115727645Y-67230506D01*
X115850023Y-67108128D01*
X115946175Y-66964226D01*
X116012406Y-66804331D01*
X116046170Y-66634588D01*
X116046170Y-66461518D01*
X116012406Y-66291775D01*
X115946175Y-66131880D01*
X115850023Y-65987978D01*
X115727645Y-65865600D01*
X115583743Y-65769448D01*
X115423848Y-65703217D01*
X115254105Y-65669453D01*
X115081035Y-65669453D01*
X114911292Y-65703217D01*
X114751397Y-65769448D01*
X114607495Y-65865600D01*
X114485117Y-65987978D01*
X114388965Y-66131880D01*
X114342833Y-66243253D01*
X113637798Y-66243253D01*
X114167859Y-65713193D01*
X114171853Y-65715328D01*
X114244959Y-65737505D01*
X114320987Y-65744993D01*
X114397015Y-65737505D01*
X114470121Y-65715328D01*
X114537496Y-65679316D01*
X114596551Y-65630851D01*
X114875859Y-65351543D01*
X114924324Y-65292488D01*
X114960336Y-65225113D01*
X114982513Y-65152007D01*
X114990001Y-65075979D01*
X114982513Y-64999951D01*
X114960336Y-64926845D01*
X114924324Y-64859470D01*
X114875859Y-64800415D01*
X114649585Y-64574141D01*
X114590530Y-64525676D01*
X114523155Y-64489664D01*
X114450049Y-64467487D01*
X114374021Y-64459999D01*
X114297993Y-64467487D01*
X114224887Y-64489664D01*
X114157512Y-64525676D01*
X114098457Y-64574141D01*
X113819149Y-64853449D01*
X113770684Y-64912504D01*
X113734672Y-64979879D01*
X113712495Y-65052985D01*
X113705007Y-65129013D01*
X113712495Y-65205041D01*
X113734672Y-65278147D01*
X113736807Y-65282141D01*
X113080506Y-65938443D01*
X111950657Y-65938445D01*
X111935689Y-65936971D01*
X111875938Y-65942855D01*
X111818484Y-65960285D01*
X111765533Y-65988587D01*
X111730746Y-66017136D01*
X111730740Y-66017142D01*
X111719122Y-66026677D01*
X111709587Y-66038295D01*
X109253600Y-68494283D01*
X109253600Y-64881035D01*
X110473347Y-64881035D01*
X110473347Y-65054105D01*
X110507111Y-65223848D01*
X110573342Y-65383743D01*
X110669494Y-65527645D01*
X110791872Y-65650023D01*
X110935774Y-65746175D01*
X111095669Y-65812406D01*
X111265412Y-65846170D01*
X111438482Y-65846170D01*
X111608225Y-65812406D01*
X111768120Y-65746175D01*
X111912022Y-65650023D01*
X112034400Y-65527645D01*
X112130552Y-65383743D01*
X112196783Y-65223848D01*
X112230547Y-65054105D01*
X112230547Y-64881035D01*
X112196783Y-64711292D01*
X112130552Y-64551397D01*
X112034400Y-64407495D01*
X111912022Y-64285117D01*
X111910382Y-64284021D01*
X114549999Y-64284021D01*
X114557487Y-64360049D01*
X114579664Y-64433155D01*
X114615676Y-64500530D01*
X114664141Y-64559585D01*
X114890415Y-64785859D01*
X114949470Y-64834324D01*
X115016845Y-64870336D01*
X115089951Y-64892513D01*
X115165979Y-64900001D01*
X115242007Y-64892513D01*
X115280285Y-64880901D01*
X115869128Y-64880901D01*
X115869128Y-65053971D01*
X115902892Y-65223714D01*
X115969123Y-65383609D01*
X116065275Y-65527511D01*
X116187653Y-65649889D01*
X116331555Y-65746041D01*
X116491450Y-65812272D01*
X116661193Y-65846036D01*
X116834263Y-65846036D01*
X117004006Y-65812272D01*
X117163901Y-65746041D01*
X117307803Y-65649889D01*
X117430181Y-65527511D01*
X117526333Y-65383609D01*
X117592564Y-65223714D01*
X117626328Y-65053971D01*
X117626328Y-64880901D01*
X117592564Y-64711158D01*
X117526333Y-64551263D01*
X117430181Y-64407361D01*
X117307803Y-64284983D01*
X117163901Y-64188831D01*
X117004006Y-64122600D01*
X116834263Y-64088836D01*
X116661193Y-64088836D01*
X116491450Y-64122600D01*
X116331555Y-64188831D01*
X116187653Y-64284983D01*
X116065275Y-64407361D01*
X115969123Y-64551263D01*
X115902892Y-64711158D01*
X115869128Y-64880901D01*
X115280285Y-64880901D01*
X115315113Y-64870336D01*
X115382488Y-64834324D01*
X115441543Y-64785859D01*
X115720851Y-64506551D01*
X115769316Y-64447496D01*
X115805328Y-64380121D01*
X115827505Y-64307015D01*
X115834993Y-64230987D01*
X115827505Y-64154959D01*
X115810996Y-64100538D01*
X116380401Y-63531133D01*
X116491775Y-63577266D01*
X116661518Y-63611030D01*
X116834588Y-63611030D01*
X117004331Y-63577266D01*
X117164226Y-63511035D01*
X117308128Y-63414883D01*
X117430506Y-63292505D01*
X117526658Y-63148603D01*
X117592889Y-62988708D01*
X117626653Y-62818965D01*
X117626653Y-62645895D01*
X117592889Y-62476152D01*
X117526658Y-62316257D01*
X117430506Y-62172355D01*
X117308128Y-62049977D01*
X117164226Y-61953825D01*
X117004331Y-61887594D01*
X116834588Y-61853830D01*
X116661518Y-61853830D01*
X116491775Y-61887594D01*
X116331880Y-61953825D01*
X116187978Y-62049977D01*
X116065600Y-62172355D01*
X115969448Y-62316257D01*
X115903217Y-62476152D01*
X115869453Y-62645895D01*
X115869453Y-62818965D01*
X115903217Y-62988708D01*
X115949350Y-63100082D01*
X115392007Y-63657425D01*
X115368147Y-63644672D01*
X115295041Y-63622495D01*
X115219013Y-63615007D01*
X115142985Y-63622495D01*
X115069879Y-63644672D01*
X115002504Y-63680684D01*
X114943449Y-63729149D01*
X114664141Y-64008457D01*
X114615676Y-64067512D01*
X114579664Y-64134887D01*
X114557487Y-64207993D01*
X114549999Y-64284021D01*
X111910382Y-64284021D01*
X111768120Y-64188965D01*
X111608225Y-64122734D01*
X111438482Y-64088970D01*
X111265412Y-64088970D01*
X111095669Y-64122734D01*
X110935774Y-64188965D01*
X110791872Y-64285117D01*
X110669494Y-64407495D01*
X110573342Y-64551397D01*
X110507111Y-64711292D01*
X110473347Y-64881035D01*
X109253600Y-64881035D01*
X109253600Y-62646029D01*
X110473672Y-62646029D01*
X110473672Y-62819099D01*
X110507436Y-62988842D01*
X110573667Y-63148737D01*
X110669819Y-63292639D01*
X110792197Y-63415017D01*
X110936099Y-63511169D01*
X111095994Y-63577400D01*
X111265737Y-63611164D01*
X111438807Y-63611164D01*
X111608550Y-63577400D01*
X111768445Y-63511169D01*
X111912347Y-63415017D01*
X112034725Y-63292639D01*
X112130877Y-63148737D01*
X112197108Y-62988842D01*
X112230872Y-62819099D01*
X112230872Y-62646029D01*
X112197108Y-62476286D01*
X112130877Y-62316391D01*
X112034725Y-62172489D01*
X111912347Y-62050111D01*
X111768445Y-61953959D01*
X111608550Y-61887728D01*
X111438807Y-61853964D01*
X111265737Y-61853964D01*
X111095994Y-61887728D01*
X110936099Y-61953959D01*
X110792197Y-62050111D01*
X110669819Y-62172489D01*
X110573667Y-62316391D01*
X110507436Y-62476286D01*
X110473672Y-62646029D01*
X109253600Y-62646029D01*
X109253600Y-61543663D01*
X112119490Y-61543663D01*
X112120289Y-61709208D01*
X112244610Y-61856941D01*
X112395364Y-61977581D01*
X112566756Y-62066493D01*
X112752202Y-62120260D01*
X112944574Y-62136814D01*
X113112657Y-62120260D01*
X113230280Y-62003768D01*
X112904937Y-61218320D01*
X112119490Y-61543663D01*
X109253600Y-61543663D01*
X109253600Y-61164091D01*
X111947563Y-61164091D01*
X111964117Y-61332174D01*
X112080609Y-61449797D01*
X112733308Y-61179440D01*
X112998803Y-61179440D01*
X113324146Y-61964887D01*
X113489691Y-61964088D01*
X113637424Y-61839767D01*
X113758064Y-61689013D01*
X113846976Y-61517621D01*
X113900743Y-61332175D01*
X113917297Y-61139803D01*
X113900743Y-60971720D01*
X113784251Y-60854097D01*
X112998803Y-61179440D01*
X112733308Y-61179440D01*
X112866057Y-61124454D01*
X112540714Y-60339007D01*
X112375169Y-60339806D01*
X112227436Y-60464127D01*
X112106796Y-60614881D01*
X112017884Y-60786273D01*
X111964117Y-60971719D01*
X111947563Y-61164091D01*
X109253600Y-61164091D01*
X109253600Y-60300126D01*
X112634580Y-60300126D01*
X112959923Y-61085574D01*
X113745370Y-60760231D01*
X113744571Y-60594686D01*
X113620250Y-60446953D01*
X113469496Y-60326313D01*
X113298104Y-60237401D01*
X113112658Y-60183634D01*
X112920286Y-60167080D01*
X112752203Y-60183634D01*
X112634580Y-60300126D01*
X109253600Y-60300126D01*
X109253600Y-55722943D01*
X109299847Y-55834593D01*
X109423359Y-56019441D01*
X109580559Y-56176641D01*
X109765407Y-56300153D01*
X109970799Y-56385229D01*
X110188843Y-56428600D01*
X110411157Y-56428600D01*
X110629201Y-56385229D01*
X110834593Y-56300153D01*
X111019441Y-56176641D01*
X111176641Y-56019441D01*
X111300153Y-55834593D01*
X111385229Y-55629201D01*
X111428600Y-55411157D01*
X111428600Y-55188843D01*
X111385229Y-54970799D01*
X111300153Y-54765407D01*
X111176641Y-54580559D01*
X111019441Y-54423359D01*
X110834593Y-54299847D01*
X110722943Y-54253600D01*
X117277057Y-54253600D01*
X117165407Y-54299847D01*
%TA.AperFunction,Conductor*%
D14*
G36*
X117165407Y-54299847D02*
G01*
X116980559Y-54423359D01*
X116823359Y-54580559D01*
X116699847Y-54765407D01*
X116614771Y-54970799D01*
X116571400Y-55188843D01*
X116571400Y-55411157D01*
X116614771Y-55629201D01*
X116699847Y-55834593D01*
X116823359Y-56019441D01*
X116980559Y-56176641D01*
X117165407Y-56300153D01*
X117370799Y-56385229D01*
X117588843Y-56428600D01*
X117811157Y-56428600D01*
X118029201Y-56385229D01*
X118234593Y-56300153D01*
X118419441Y-56176641D01*
X118576641Y-56019441D01*
X118700153Y-55834593D01*
X118746400Y-55722943D01*
X118746401Y-72277060D01*
X118700153Y-72165407D01*
X118576641Y-71980559D01*
X118419441Y-71823359D01*
X118234593Y-71699847D01*
X118029201Y-71614771D01*
X117811157Y-71571400D01*
X117588843Y-71571400D01*
X117370799Y-71614771D01*
X117165407Y-71699847D01*
X116980559Y-71823359D01*
X116823359Y-71980559D01*
X116699847Y-72165407D01*
X116614771Y-72370799D01*
X116571400Y-72588843D01*
X116571400Y-72811157D01*
X116614771Y-73029201D01*
X116699847Y-73234593D01*
X116823359Y-73419441D01*
X116980559Y-73576641D01*
X117165407Y-73700153D01*
X117277057Y-73746400D01*
X109253600Y-73746400D01*
X109253600Y-71524651D01*
X109420294Y-71691345D01*
X109420294Y-72436000D01*
X109424708Y-72480813D01*
X109437779Y-72523905D01*
X109459006Y-72563618D01*
X109487573Y-72598427D01*
X109522382Y-72626994D01*
X109562095Y-72648221D01*
X109605187Y-72661292D01*
X109650000Y-72665706D01*
X111150000Y-72665706D01*
X111194813Y-72661292D01*
X111237905Y-72648221D01*
X111277618Y-72626994D01*
X111312427Y-72598427D01*
X111340994Y-72563618D01*
X111362221Y-72523905D01*
X111375292Y-72480813D01*
X111379706Y-72436000D01*
X111379706Y-71436000D01*
X111375292Y-71391187D01*
X111362221Y-71348095D01*
X111340994Y-71308382D01*
X111312427Y-71273573D01*
X111277618Y-71245006D01*
X111238318Y-71224000D01*
X111277618Y-71202994D01*
X111312427Y-71174427D01*
X111340994Y-71139618D01*
X111362221Y-71099905D01*
X111375292Y-71056813D01*
X111379706Y-71012000D01*
X111379706Y-70012000D01*
X111375373Y-69968000D01*
X111670294Y-69968000D01*
X111670294Y-70968000D01*
X111674708Y-71012813D01*
X111687779Y-71055905D01*
X111709006Y-71095618D01*
X111737573Y-71130427D01*
X111772382Y-71158994D01*
X111812095Y-71180221D01*
X111841037Y-71189000D01*
X111812095Y-71197779D01*
X111772382Y-71219006D01*
X111737573Y-71247573D01*
X111709006Y-71282382D01*
X111687779Y-71322095D01*
X111674708Y-71365187D01*
X111670294Y-71410000D01*
X111670294Y-72410000D01*
X111674708Y-72454813D01*
X111687779Y-72497905D01*
X111709006Y-72537618D01*
X111737573Y-72572427D01*
X111772382Y-72600994D01*
X111812095Y-72622221D01*
X111855187Y-72635292D01*
X111900000Y-72639706D01*
X113400000Y-72639706D01*
X113444813Y-72635292D01*
X113487905Y-72622221D01*
X113527618Y-72600994D01*
X113562427Y-72572427D01*
X113590994Y-72537618D01*
X113612221Y-72497905D01*
X113625292Y-72454813D01*
X113629706Y-72410000D01*
X113629706Y-72038157D01*
X113671488Y-72079939D01*
X113681032Y-72091568D01*
X113727443Y-72129658D01*
X113780394Y-72157960D01*
X113820294Y-72170064D01*
X113820294Y-72375000D01*
X113824708Y-72419813D01*
X113837779Y-72462905D01*
X113859006Y-72502618D01*
X113887573Y-72537427D01*
X113922382Y-72565994D01*
X113962095Y-72587221D01*
X114005187Y-72600292D01*
X114050000Y-72604706D01*
X115550000Y-72604706D01*
X115594813Y-72600292D01*
X115637905Y-72587221D01*
X115677618Y-72565994D01*
X115712427Y-72537427D01*
X115740994Y-72502618D01*
X115762221Y-72462905D01*
X115775292Y-72419813D01*
X115779706Y-72375000D01*
X115779706Y-71375000D01*
X115775292Y-71330187D01*
X115762221Y-71287095D01*
X115740994Y-71247382D01*
X115721480Y-71223604D01*
X115744617Y-71204617D01*
X115785880Y-71154337D01*
X115816541Y-71096974D01*
X115835423Y-71034731D01*
X115841798Y-70970000D01*
X115840200Y-70603350D01*
X115757650Y-70520800D01*
X114810800Y-70520800D01*
X114810800Y-70540800D01*
X114709200Y-70540800D01*
X114709200Y-70520800D01*
X114689200Y-70520800D01*
X114689200Y-70419200D01*
X114709200Y-70419200D01*
X114709200Y-69722350D01*
X114810800Y-69722350D01*
X114810800Y-70419200D01*
X115757650Y-70419200D01*
X115840200Y-70336650D01*
X115841798Y-69970000D01*
X115835423Y-69905269D01*
X115816541Y-69843026D01*
X115785880Y-69785663D01*
X115744617Y-69735383D01*
X115694337Y-69694120D01*
X115636974Y-69663459D01*
X115574731Y-69644577D01*
X115510000Y-69638202D01*
X114893350Y-69639800D01*
X114810800Y-69722350D01*
X114709200Y-69722350D01*
X114626650Y-69639800D01*
X114010463Y-69638203D01*
X114004658Y-69627343D01*
X113966568Y-69580932D01*
X113954944Y-69571392D01*
X112931934Y-68548382D01*
X112932600Y-68545032D01*
X112932600Y-68449968D01*
X112914054Y-68356731D01*
X112877674Y-68268903D01*
X112824860Y-68189860D01*
X112757640Y-68122640D01*
X112678597Y-68069826D01*
X112590769Y-68033446D01*
X112497532Y-68014900D01*
X112402468Y-68014900D01*
X112309231Y-68033446D01*
X112221403Y-68069826D01*
X112142360Y-68122640D01*
X112075140Y-68189860D01*
X112022326Y-68268903D01*
X111985946Y-68356731D01*
X111967400Y-68449968D01*
X111967400Y-68545032D01*
X111985946Y-68638269D01*
X112022326Y-68726097D01*
X112075140Y-68805140D01*
X112142360Y-68872360D01*
X112221403Y-68925174D01*
X112309231Y-68961554D01*
X112402468Y-68980100D01*
X112497532Y-68980100D01*
X112500882Y-68979434D01*
X113259742Y-69738294D01*
X111900000Y-69738294D01*
X111855187Y-69742708D01*
X111812095Y-69755779D01*
X111772382Y-69777006D01*
X111737573Y-69805573D01*
X111709006Y-69840382D01*
X111687779Y-69880095D01*
X111674708Y-69923187D01*
X111670294Y-69968000D01*
X111375373Y-69968000D01*
X111375292Y-69967187D01*
X111362221Y-69924095D01*
X111340994Y-69884382D01*
X111312427Y-69849573D01*
X111277618Y-69821006D01*
X111237905Y-69799779D01*
X111194813Y-69786708D01*
X111150000Y-69782294D01*
X110704800Y-69782294D01*
X110704800Y-68336251D01*
X112188199Y-66852853D01*
X114342833Y-66852853D01*
X114388965Y-66964226D01*
X114485117Y-67108128D01*
X114607495Y-67230506D01*
X114751397Y-67326658D01*
X114911292Y-67392889D01*
X115081035Y-67426653D01*
X115254105Y-67426653D01*
X115423848Y-67392889D01*
X115583743Y-67326658D01*
X115727645Y-67230506D01*
X115850023Y-67108128D01*
X115946175Y-66964226D01*
X116012406Y-66804331D01*
X116046170Y-66634588D01*
X116046170Y-66461518D01*
X116012406Y-66291775D01*
X115946175Y-66131880D01*
X115850023Y-65987978D01*
X115727645Y-65865600D01*
X115583743Y-65769448D01*
X115423848Y-65703217D01*
X115254105Y-65669453D01*
X115081035Y-65669453D01*
X114911292Y-65703217D01*
X114751397Y-65769448D01*
X114607495Y-65865600D01*
X114485117Y-65987978D01*
X114388965Y-66131880D01*
X114342833Y-66243253D01*
X113637798Y-66243253D01*
X114167859Y-65713193D01*
X114171853Y-65715328D01*
X114244959Y-65737505D01*
X114320987Y-65744993D01*
X114397015Y-65737505D01*
X114470121Y-65715328D01*
X114537496Y-65679316D01*
X114596551Y-65630851D01*
X114875859Y-65351543D01*
X114924324Y-65292488D01*
X114960336Y-65225113D01*
X114982513Y-65152007D01*
X114990001Y-65075979D01*
X114982513Y-64999951D01*
X114960336Y-64926845D01*
X114924324Y-64859470D01*
X114875859Y-64800415D01*
X114649585Y-64574141D01*
X114590530Y-64525676D01*
X114523155Y-64489664D01*
X114450049Y-64467487D01*
X114374021Y-64459999D01*
X114297993Y-64467487D01*
X114224887Y-64489664D01*
X114157512Y-64525676D01*
X114098457Y-64574141D01*
X113819149Y-64853449D01*
X113770684Y-64912504D01*
X113734672Y-64979879D01*
X113712495Y-65052985D01*
X113705007Y-65129013D01*
X113712495Y-65205041D01*
X113734672Y-65278147D01*
X113736807Y-65282141D01*
X113080506Y-65938443D01*
X111950657Y-65938445D01*
X111935689Y-65936971D01*
X111875938Y-65942855D01*
X111818484Y-65960285D01*
X111765533Y-65988587D01*
X111730746Y-66017136D01*
X111730740Y-66017142D01*
X111719122Y-66026677D01*
X111709587Y-66038295D01*
X109253600Y-68494283D01*
X109253600Y-64881035D01*
X110473347Y-64881035D01*
X110473347Y-65054105D01*
X110507111Y-65223848D01*
X110573342Y-65383743D01*
X110669494Y-65527645D01*
X110791872Y-65650023D01*
X110935774Y-65746175D01*
X111095669Y-65812406D01*
X111265412Y-65846170D01*
X111438482Y-65846170D01*
X111608225Y-65812406D01*
X111768120Y-65746175D01*
X111912022Y-65650023D01*
X112034400Y-65527645D01*
X112130552Y-65383743D01*
X112196783Y-65223848D01*
X112230547Y-65054105D01*
X112230547Y-64881035D01*
X112196783Y-64711292D01*
X112130552Y-64551397D01*
X112034400Y-64407495D01*
X111912022Y-64285117D01*
X111910382Y-64284021D01*
X114549999Y-64284021D01*
X114557487Y-64360049D01*
X114579664Y-64433155D01*
X114615676Y-64500530D01*
X114664141Y-64559585D01*
X114890415Y-64785859D01*
X114949470Y-64834324D01*
X115016845Y-64870336D01*
X115089951Y-64892513D01*
X115165979Y-64900001D01*
X115242007Y-64892513D01*
X115280285Y-64880901D01*
X115869128Y-64880901D01*
X115869128Y-65053971D01*
X115902892Y-65223714D01*
X115969123Y-65383609D01*
X116065275Y-65527511D01*
X116187653Y-65649889D01*
X116331555Y-65746041D01*
X116491450Y-65812272D01*
X116661193Y-65846036D01*
X116834263Y-65846036D01*
X117004006Y-65812272D01*
X117163901Y-65746041D01*
X117307803Y-65649889D01*
X117430181Y-65527511D01*
X117526333Y-65383609D01*
X117592564Y-65223714D01*
X117626328Y-65053971D01*
X117626328Y-64880901D01*
X117592564Y-64711158D01*
X117526333Y-64551263D01*
X117430181Y-64407361D01*
X117307803Y-64284983D01*
X117163901Y-64188831D01*
X117004006Y-64122600D01*
X116834263Y-64088836D01*
X116661193Y-64088836D01*
X116491450Y-64122600D01*
X116331555Y-64188831D01*
X116187653Y-64284983D01*
X116065275Y-64407361D01*
X115969123Y-64551263D01*
X115902892Y-64711158D01*
X115869128Y-64880901D01*
X115280285Y-64880901D01*
X115315113Y-64870336D01*
X115382488Y-64834324D01*
X115441543Y-64785859D01*
X115720851Y-64506551D01*
X115769316Y-64447496D01*
X115805328Y-64380121D01*
X115827505Y-64307015D01*
X115834993Y-64230987D01*
X115827505Y-64154959D01*
X115810996Y-64100538D01*
X116380401Y-63531133D01*
X116491775Y-63577266D01*
X116661518Y-63611030D01*
X116834588Y-63611030D01*
X117004331Y-63577266D01*
X117164226Y-63511035D01*
X117308128Y-63414883D01*
X117430506Y-63292505D01*
X117526658Y-63148603D01*
X117592889Y-62988708D01*
X117626653Y-62818965D01*
X117626653Y-62645895D01*
X117592889Y-62476152D01*
X117526658Y-62316257D01*
X117430506Y-62172355D01*
X117308128Y-62049977D01*
X117164226Y-61953825D01*
X117004331Y-61887594D01*
X116834588Y-61853830D01*
X116661518Y-61853830D01*
X116491775Y-61887594D01*
X116331880Y-61953825D01*
X116187978Y-62049977D01*
X116065600Y-62172355D01*
X115969448Y-62316257D01*
X115903217Y-62476152D01*
X115869453Y-62645895D01*
X115869453Y-62818965D01*
X115903217Y-62988708D01*
X115949350Y-63100082D01*
X115392007Y-63657425D01*
X115368147Y-63644672D01*
X115295041Y-63622495D01*
X115219013Y-63615007D01*
X115142985Y-63622495D01*
X115069879Y-63644672D01*
X115002504Y-63680684D01*
X114943449Y-63729149D01*
X114664141Y-64008457D01*
X114615676Y-64067512D01*
X114579664Y-64134887D01*
X114557487Y-64207993D01*
X114549999Y-64284021D01*
X111910382Y-64284021D01*
X111768120Y-64188965D01*
X111608225Y-64122734D01*
X111438482Y-64088970D01*
X111265412Y-64088970D01*
X111095669Y-64122734D01*
X110935774Y-64188965D01*
X110791872Y-64285117D01*
X110669494Y-64407495D01*
X110573342Y-64551397D01*
X110507111Y-64711292D01*
X110473347Y-64881035D01*
X109253600Y-64881035D01*
X109253600Y-62646029D01*
X110473672Y-62646029D01*
X110473672Y-62819099D01*
X110507436Y-62988842D01*
X110573667Y-63148737D01*
X110669819Y-63292639D01*
X110792197Y-63415017D01*
X110936099Y-63511169D01*
X111095994Y-63577400D01*
X111265737Y-63611164D01*
X111438807Y-63611164D01*
X111608550Y-63577400D01*
X111768445Y-63511169D01*
X111912347Y-63415017D01*
X112034725Y-63292639D01*
X112130877Y-63148737D01*
X112197108Y-62988842D01*
X112230872Y-62819099D01*
X112230872Y-62646029D01*
X112197108Y-62476286D01*
X112130877Y-62316391D01*
X112034725Y-62172489D01*
X111912347Y-62050111D01*
X111768445Y-61953959D01*
X111608550Y-61887728D01*
X111438807Y-61853964D01*
X111265737Y-61853964D01*
X111095994Y-61887728D01*
X110936099Y-61953959D01*
X110792197Y-62050111D01*
X110669819Y-62172489D01*
X110573667Y-62316391D01*
X110507436Y-62476286D01*
X110473672Y-62646029D01*
X109253600Y-62646029D01*
X109253600Y-61543663D01*
X112119490Y-61543663D01*
X112120289Y-61709208D01*
X112244610Y-61856941D01*
X112395364Y-61977581D01*
X112566756Y-62066493D01*
X112752202Y-62120260D01*
X112944574Y-62136814D01*
X113112657Y-62120260D01*
X113230280Y-62003768D01*
X112904937Y-61218320D01*
X112119490Y-61543663D01*
X109253600Y-61543663D01*
X109253600Y-61164091D01*
X111947563Y-61164091D01*
X111964117Y-61332174D01*
X112080609Y-61449797D01*
X112733308Y-61179440D01*
X112998803Y-61179440D01*
X113324146Y-61964887D01*
X113489691Y-61964088D01*
X113637424Y-61839767D01*
X113758064Y-61689013D01*
X113846976Y-61517621D01*
X113900743Y-61332175D01*
X113917297Y-61139803D01*
X113900743Y-60971720D01*
X113784251Y-60854097D01*
X112998803Y-61179440D01*
X112733308Y-61179440D01*
X112866057Y-61124454D01*
X112540714Y-60339007D01*
X112375169Y-60339806D01*
X112227436Y-60464127D01*
X112106796Y-60614881D01*
X112017884Y-60786273D01*
X111964117Y-60971719D01*
X111947563Y-61164091D01*
X109253600Y-61164091D01*
X109253600Y-60300126D01*
X112634580Y-60300126D01*
X112959923Y-61085574D01*
X113745370Y-60760231D01*
X113744571Y-60594686D01*
X113620250Y-60446953D01*
X113469496Y-60326313D01*
X113298104Y-60237401D01*
X113112658Y-60183634D01*
X112920286Y-60167080D01*
X112752203Y-60183634D01*
X112634580Y-60300126D01*
X109253600Y-60300126D01*
X109253600Y-55722943D01*
X109299847Y-55834593D01*
X109423359Y-56019441D01*
X109580559Y-56176641D01*
X109765407Y-56300153D01*
X109970799Y-56385229D01*
X110188843Y-56428600D01*
X110411157Y-56428600D01*
X110629201Y-56385229D01*
X110834593Y-56300153D01*
X111019441Y-56176641D01*
X111176641Y-56019441D01*
X111300153Y-55834593D01*
X111385229Y-55629201D01*
X111428600Y-55411157D01*
X111428600Y-55188843D01*
X111385229Y-54970799D01*
X111300153Y-54765407D01*
X111176641Y-54580559D01*
X111019441Y-54423359D01*
X110834593Y-54299847D01*
X110722943Y-54253600D01*
X117277057Y-54253600D01*
X117165407Y-54299847D01*
G37*
%TD.AperFunction*%
%TD*%
M02*
