M48
; DRILL file {KiCad (5.1.8)-1} date 10/03/21 17:02:36
; FORMAT={-:-/ absolute / inch / decimal}
; #@! TF.CreationDate,2021-10-03T17:02:36-04:00
; #@! TF.GenerationSoftware,Kicad,Pcbnew,(5.1.8)-1
; #@! TF.FileFunction,Plated,1,2,PTH
FMAT,2
INCH
T1C0.0120
T2C0.0236
%
G90
G05
T1
X4.3299Y-2.6087
X4.335Y-2.5079
X4.3465Y-2.7761
X4.3465Y-2.8321
X4.3689Y-2.2969
X4.378Y-2.7134
X4.3811Y-2.8803
X4.4272Y-2.6968
X4.435Y-2.7743
X4.435Y-2.8311
X4.4815Y-2.2028
X4.5008Y-2.6705
X4.5197Y-2.8297
X4.5327Y-2.413
X4.5535Y-2.715
X4.5571Y-2.8803
X4.5803Y-2.2933
X4.6465Y-2.5134
X4.6492Y-2.6811
T2
X4.3839Y-2.5578
X4.3839Y-2.4698
X4.4462Y-2.4076
X4.5342Y-2.62
X4.5964Y-2.5578
X4.5964Y-2.4698
T0
M30
