%TF.GenerationSoftware,KiCad,Pcbnew,(5.1.8)-1*%
%TF.CreationDate,2021-10-03T16:57:03-04:00*%
%TF.ProjectId,IR_TEMP_V1,49525f54-454d-4505-9f56-312e6b696361,rev?*%
%TF.SameCoordinates,Original*%
%TF.FileFunction,Paste,Top*%
%TF.FilePolarity,Positive*%
%FSLAX46Y46*%
G04 Gerber Fmt 4.6, Leading zero omitted, Abs format (unit mm)*
G04 Created by KiCad (PCBNEW (5.1.8)-1) date 2021-10-03 16:57:03*
%MOMM*%
%LPD*%
G01*
G04 APERTURE LIST*
%ADD10R,1.500000X1.000000*%
G04 APERTURE END LIST*
%TO.C,R2*%
G36*
G01*
X116590000Y-68140000D02*
X116910000Y-68140000D01*
G75*
G02*
X117070000Y-68300000I0J-160000D01*
G01*
X117070000Y-68695000D01*
G75*
G02*
X116910000Y-68855000I-160000J0D01*
G01*
X116590000Y-68855000D01*
G75*
G02*
X116430000Y-68695000I0J160000D01*
G01*
X116430000Y-68300000D01*
G75*
G02*
X116590000Y-68140000I160000J0D01*
G01*
G37*
G36*
G01*
X116590000Y-66945000D02*
X116910000Y-66945000D01*
G75*
G02*
X117070000Y-67105000I0J-160000D01*
G01*
X117070000Y-67500000D01*
G75*
G02*
X116910000Y-67660000I-160000J0D01*
G01*
X116590000Y-67660000D01*
G75*
G02*
X116430000Y-67500000I0J160000D01*
G01*
X116430000Y-67105000D01*
G75*
G02*
X116590000Y-66945000I160000J0D01*
G01*
G37*
%TD*%
%TO.C,R1*%
G36*
G01*
X112290000Y-68140000D02*
X112610000Y-68140000D01*
G75*
G02*
X112770000Y-68300000I0J-160000D01*
G01*
X112770000Y-68695000D01*
G75*
G02*
X112610000Y-68855000I-160000J0D01*
G01*
X112290000Y-68855000D01*
G75*
G02*
X112130000Y-68695000I0J160000D01*
G01*
X112130000Y-68300000D01*
G75*
G02*
X112290000Y-68140000I160000J0D01*
G01*
G37*
G36*
G01*
X112290000Y-66945000D02*
X112610000Y-66945000D01*
G75*
G02*
X112770000Y-67105000I0J-160000D01*
G01*
X112770000Y-67500000D01*
G75*
G02*
X112610000Y-67660000I-160000J0D01*
G01*
X112290000Y-67660000D01*
G75*
G02*
X112130000Y-67500000I0J160000D01*
G01*
X112130000Y-67105000D01*
G75*
G02*
X112290000Y-66945000I160000J0D01*
G01*
G37*
%TD*%
D10*
%TO.C,J6*%
X110400000Y-71936000D03*
%TD*%
%TO.C,J5*%
X110400000Y-70512000D03*
%TD*%
%TO.C,J4*%
X112650000Y-71910000D03*
%TD*%
%TO.C,J3*%
X112650000Y-70468000D03*
%TD*%
%TO.C,J2*%
X114760000Y-70470000D03*
%TD*%
%TO.C,J1*%
X114800000Y-71875000D03*
%TD*%
%TO.C,C1*%
G36*
G01*
X116165000Y-69585000D02*
X116475000Y-69585000D01*
G75*
G02*
X116630000Y-69740000I0J-155000D01*
G01*
X116630000Y-70165000D01*
G75*
G02*
X116475000Y-70320000I-155000J0D01*
G01*
X116165000Y-70320000D01*
G75*
G02*
X116010000Y-70165000I0J155000D01*
G01*
X116010000Y-69740000D01*
G75*
G02*
X116165000Y-69585000I155000J0D01*
G01*
G37*
G36*
G01*
X116165000Y-70720000D02*
X116475000Y-70720000D01*
G75*
G02*
X116630000Y-70875000I0J-155000D01*
G01*
X116630000Y-71300000D01*
G75*
G02*
X116475000Y-71455000I-155000J0D01*
G01*
X116165000Y-71455000D01*
G75*
G02*
X116010000Y-71300000I0J155000D01*
G01*
X116010000Y-70875000D01*
G75*
G02*
X116165000Y-70720000I155000J0D01*
G01*
G37*
%TD*%
%TO.C,C2*%
G36*
G01*
X113220000Y-63445000D02*
X113220000Y-63755000D01*
G75*
G02*
X113065000Y-63910000I-155000J0D01*
G01*
X112640000Y-63910000D01*
G75*
G02*
X112485000Y-63755000I0J155000D01*
G01*
X112485000Y-63445000D01*
G75*
G02*
X112640000Y-63290000I155000J0D01*
G01*
X113065000Y-63290000D01*
G75*
G02*
X113220000Y-63445000I0J-155000D01*
G01*
G37*
G36*
G01*
X114355000Y-63445000D02*
X114355000Y-63755000D01*
G75*
G02*
X114200000Y-63910000I-155000J0D01*
G01*
X113775000Y-63910000D01*
G75*
G02*
X113620000Y-63755000I0J155000D01*
G01*
X113620000Y-63445000D01*
G75*
G02*
X113775000Y-63290000I155000J0D01*
G01*
X114200000Y-63290000D01*
G75*
G02*
X114355000Y-63445000I0J-155000D01*
G01*
G37*
%TD*%
M02*
