%TF.GenerationSoftware,KiCad,Pcbnew,(5.1.8)-1*%
%TF.CreationDate,2021-09-07T20:43:03-04:00*%
%TF.ProjectId,mainboard_v1,6d61696e-626f-4617-9264-5f76312e6b69,rev?*%
%TF.SameCoordinates,Original*%
%TF.FileFunction,Copper,L2,Inr*%
%TF.FilePolarity,Positive*%
%FSLAX46Y46*%
G04 Gerber Fmt 4.6, Leading zero omitted, Abs format (unit mm)*
G04 Created by KiCad (PCBNEW (5.1.8)-1) date 2021-09-07 20:43:03*
%MOMM*%
%LPD*%
G01*
G04 APERTURE LIST*
%TA.AperFunction,ComponentPad*%
%ADD10C,1.050000*%
%TD*%
%TA.AperFunction,WasherPad*%
%ADD11C,1.800000*%
%TD*%
%TA.AperFunction,ComponentPad*%
%ADD12O,1.000000X1.000000*%
%TD*%
%TA.AperFunction,ComponentPad*%
%ADD13R,1.000000X1.000000*%
%TD*%
%TA.AperFunction,ViaPad*%
%ADD14C,0.508000*%
%TD*%
%TA.AperFunction,ViaPad*%
%ADD15C,0.762000*%
%TD*%
%TA.AperFunction,Conductor*%
%ADD16C,0.152400*%
%TD*%
%TA.AperFunction,Conductor*%
%ADD17C,0.076200*%
%TD*%
%TA.AperFunction,Conductor*%
%ADD18C,0.100000*%
%TD*%
G04 APERTURE END LIST*
D10*
%TO.N,Net-(C11-Pad2)*%
%TO.C,J20*%
X181720000Y-125130000D03*
%TD*%
%TO.N,/GP2*%
%TO.C,J19*%
X180120000Y-125130000D03*
%TD*%
%TO.N,/GP0*%
%TO.C,J18*%
X180120000Y-126630000D03*
%TD*%
%TO.N,/~RESET*%
%TO.C,J17*%
X178520000Y-125130000D03*
%TD*%
%TO.N,N/C*%
%TO.C,J16*%
X183320000Y-128130000D03*
%TD*%
%TO.N,/SWO*%
%TO.C,J15*%
X183320000Y-126630000D03*
%TD*%
%TO.N,GND*%
%TO.C,J14*%
X184920000Y-128130000D03*
%TD*%
%TO.N,N/C*%
%TO.C,J13*%
X181720000Y-128130000D03*
%TD*%
%TO.N,N/C*%
%TO.C,J12*%
X183320000Y-129630000D03*
%TD*%
%TO.N,+3V3*%
%TO.C,J11*%
X184920000Y-126630000D03*
%TD*%
%TO.N,N/C*%
%TO.C,J10*%
X184920000Y-129630000D03*
%TD*%
%TO.N,/A5*%
%TO.C,J9*%
X181720000Y-126630000D03*
%TD*%
D11*
%TO.N,*%
%TO.C,H1*%
X190000000Y-123000000D03*
%TD*%
D12*
%TO.N,/SWDIO*%
%TO.C,J4*%
X196230000Y-96070000D03*
D13*
%TO.N,/SWDCLK*%
X194960000Y-96070000D03*
%TD*%
D11*
%TO.N,*%
%TO.C,H3*%
X201750000Y-108000000D03*
%TD*%
%TO.N,*%
%TO.C,H2*%
X178250000Y-108000000D03*
%TD*%
D13*
%TO.N,VPP*%
%TO.C,J1*%
X196230000Y-117130000D03*
D12*
%TO.N,GND*%
X196230000Y-118400000D03*
%TD*%
D14*
%TO.N,/M2_IN2*%
X201680000Y-117560000D03*
%TO.N,/M2_IN1*%
X201510000Y-118340000D03*
%TO.N,GND*%
X180160000Y-95870000D03*
X177970000Y-95890000D03*
X179240000Y-100960000D03*
X195380000Y-124600000D03*
X195400000Y-123630000D03*
X184890000Y-124620000D03*
X184870000Y-123610000D03*
X202670000Y-103740000D03*
X201960000Y-98300000D03*
X201980000Y-96710000D03*
X176860000Y-95880000D03*
X199820000Y-110040000D03*
X185980000Y-96670000D03*
X190020000Y-96680000D03*
X200350000Y-98770000D03*
X202660000Y-100380000D03*
X192540000Y-126030000D03*
X190430000Y-99350000D03*
X189060000Y-100540000D03*
X186770000Y-99600000D03*
X187730000Y-101940000D03*
X183910000Y-104230000D03*
X177850000Y-123490000D03*
X177370000Y-119290000D03*
X177850000Y-115580000D03*
X177170000Y-106070000D03*
X202940000Y-109790000D03*
X202980000Y-105930000D03*
X193668000Y-97726000D03*
X195260000Y-125940000D03*
X194680000Y-129680000D03*
X203030000Y-123620000D03*
X199830000Y-126650000D03*
X182620000Y-119400000D03*
X180890000Y-109960000D03*
X177030000Y-109720000D03*
X195320000Y-110070000D03*
X182090000Y-109870000D03*
X182090000Y-108190000D03*
X182070000Y-109030000D03*
X197540000Y-123970000D03*
X195390000Y-122060000D03*
X186470000Y-125500000D03*
X186370000Y-128200000D03*
X184090000Y-97340000D03*
X188400000Y-110560000D03*
X178530000Y-104540000D03*
X181620000Y-96020000D03*
X187980000Y-96650000D03*
X194090000Y-111090000D03*
X195080000Y-113950000D03*
X196090000Y-115080000D03*
X192890000Y-115490000D03*
X184950000Y-116330000D03*
X203060000Y-116000000D03*
X197620000Y-105000000D03*
X189080000Y-121280000D03*
X190370000Y-121590000D03*
X192950000Y-124450000D03*
X194380000Y-127840000D03*
D15*
%TO.N,VPP*%
X185170000Y-112370000D03*
D14*
%TO.N,/LED2*%
X183720000Y-105990000D03*
X183340000Y-109150000D03*
%TO.N,/SDA*%
X190030000Y-103360000D03*
X195510000Y-103650000D03*
X189600000Y-110690000D03*
X187790000Y-121530000D03*
X188730000Y-129675000D03*
%TO.N,/SCL*%
X189590000Y-102660000D03*
X194000000Y-101500000D03*
X188270000Y-109420000D03*
X187460000Y-113725000D03*
X187460000Y-129675000D03*
%TO.N,Net-(R8-Pad2)*%
X194540000Y-102360000D03*
%TO.N,Net-(R9-Pad2)*%
X190660000Y-102620000D03*
D15*
%TO.N,VBUS*%
X198100000Y-96480000D03*
X198290000Y-105910000D03*
D14*
X192740000Y-105910000D03*
D15*
%TO.N,+3V3*%
X184690000Y-117630000D03*
D14*
X188320000Y-108380000D03*
X200570000Y-104380000D03*
X200070000Y-96590000D03*
X187460000Y-126025000D03*
D15*
%TO.N,Net-(C11-Pad2)*%
X180400000Y-115980000D03*
X188980000Y-119130000D03*
D14*
%TO.N,/MISO*%
X193580000Y-102310000D03*
X192540000Y-111250000D03*
X191900000Y-118740000D03*
X192540000Y-129675000D03*
%TO.N,/MOSI*%
X193300000Y-103040000D03*
X191270000Y-111260000D03*
X191120000Y-119040000D03*
X191270000Y-129675000D03*
%TO.N,/SCK*%
X191470000Y-103970000D03*
X190760000Y-110520000D03*
X189370000Y-115320000D03*
X190000000Y-129675000D03*
%TO.N,/A1*%
X186040000Y-103230000D03*
X188730000Y-126025000D03*
%TO.N,/A0*%
X185790000Y-106130000D03*
X186057400Y-109770000D03*
D15*
%TO.N,VCC*%
X195810000Y-119760000D03*
D14*
X180400000Y-106070000D03*
X182360000Y-102570000D03*
%TO.N,/M1_O1*%
X178660000Y-102510000D03*
X178760000Y-97330000D03*
%TO.N,/M1_O2*%
X178680000Y-103540000D03*
%TO.N,/M2_O1*%
X200820000Y-118500000D03*
%TO.N,/M2_O2*%
X200470000Y-117740000D03*
%TO.N,/~RESET*%
X179760000Y-97370000D03*
%TO.N,/SWO*%
X190590000Y-98120000D03*
%TO.N,/D11*%
X193180000Y-118820000D03*
X191270000Y-126025000D03*
%TO.N,/D13*%
X188770000Y-106030000D03*
%TO.N,/D5*%
X188430000Y-102540000D03*
%TO.N,/D12*%
X190000000Y-115780000D03*
X188100000Y-106160000D03*
%TO.N,/D6*%
X187740000Y-103220000D03*
X188730000Y-115690000D03*
X190000000Y-126025000D03*
%TO.N,/A5*%
X185600000Y-101060000D03*
%TO.N,/A3*%
X187460000Y-115560000D03*
X183970000Y-101940000D03*
%TO.N,/GP2*%
X184830000Y-100720000D03*
%TO.N,/GP0*%
X183070000Y-97110000D03*
%TO.N,/MOTOR1_A*%
X182200000Y-99830000D03*
%TO.N,/MOTOR1_B*%
X182160000Y-100520000D03*
%TO.N,/M2_IN2*%
X193650000Y-98520000D03*
%TO.N,/M2_IN1*%
X193570000Y-99320000D03*
%TO.N,/D11*%
X186820000Y-115830000D03*
X192540000Y-117275000D03*
%TO.N,/D9*%
X191270000Y-117275000D03*
X186250000Y-102510000D03*
%TD*%
D16*
%TO.N,/LED2*%
X183720000Y-108770000D02*
X183340000Y-109150000D01*
X183720000Y-105990000D02*
X183720000Y-108770000D01*
%TO.N,/SDA*%
X190030000Y-103360000D02*
X190030000Y-110260000D01*
X190030000Y-110260000D02*
X189600000Y-110690000D01*
%TO.N,/SCL*%
X189269201Y-102980799D02*
X189590000Y-102660000D01*
X189269201Y-108420799D02*
X189269201Y-102980799D01*
X188270000Y-109420000D02*
X189269201Y-108420799D01*
%TO.N,/MISO*%
X193870000Y-109920000D02*
X192540000Y-111250000D01*
X193870000Y-102600000D02*
X193870000Y-109920000D01*
X193580000Y-102310000D02*
X193870000Y-102600000D01*
X191900000Y-121860000D02*
X191900000Y-118740000D01*
X193560000Y-123520000D02*
X191900000Y-121860000D01*
X193560000Y-127150000D02*
X193560000Y-123520000D01*
X192540000Y-128170000D02*
X193560000Y-127150000D01*
X192540000Y-129675000D02*
X192540000Y-128170000D01*
%TO.N,/MOSI*%
X193300000Y-109230000D02*
X191270000Y-111260000D01*
X193300000Y-103040000D02*
X193300000Y-109230000D01*
X191120000Y-119040000D02*
X191120000Y-121870000D01*
X191120000Y-121870000D02*
X191850000Y-122600000D01*
X191850000Y-122600000D02*
X191850000Y-127300000D01*
X191270000Y-127880000D02*
X191270000Y-129675000D01*
X191850000Y-127300000D02*
X191270000Y-127880000D01*
%TO.N,/SCK*%
X190760000Y-104680000D02*
X191470000Y-103970000D01*
X190760000Y-110520000D02*
X190760000Y-104680000D01*
%TO.N,/A1*%
X186040000Y-103230000D02*
X185420000Y-103230000D01*
X185420000Y-103230000D02*
X184950000Y-103700000D01*
X184950000Y-103700000D02*
X184950000Y-110220000D01*
X184950000Y-110220000D02*
X186120000Y-111390000D01*
X186120000Y-123415000D02*
X188730000Y-126025000D01*
X186120000Y-111390000D02*
X186120000Y-123415000D01*
%TO.N,/M1_O1*%
X178760000Y-97330000D02*
X178290000Y-97800000D01*
X178290000Y-102140000D02*
X178395000Y-102245000D01*
X178290000Y-97800000D02*
X178290000Y-102140000D01*
X178660000Y-102510000D02*
X178395000Y-102245000D01*
%TO.N,/~RESET*%
X178530000Y-125130000D02*
X178520000Y-125130000D01*
X179025190Y-124634810D02*
X178530000Y-125130000D01*
X179025191Y-109554809D02*
X179025190Y-124634810D01*
X181200379Y-107379621D02*
X179025191Y-109554809D01*
X181200379Y-100720379D02*
X181200379Y-107379621D01*
X179240000Y-98760000D02*
X181200379Y-100720379D01*
X179240000Y-97890000D02*
X179240000Y-98760000D01*
X179760000Y-97370000D02*
X179240000Y-97890000D01*
%TO.N,/SWO*%
X189720000Y-98120000D02*
X190590000Y-98120000D01*
X184452601Y-103387399D02*
X189720000Y-98120000D01*
X184452601Y-113597399D02*
X184452601Y-103387399D01*
X183320000Y-126630000D02*
X183320000Y-125180000D01*
X183320000Y-125180000D02*
X181590000Y-123450000D01*
X181590000Y-116460000D02*
X184452601Y-113597399D01*
X181590000Y-123450000D02*
X181590000Y-116460000D01*
%TO.N,/D12*%
X190000000Y-115780000D02*
X190000000Y-114380000D01*
X190000000Y-114380000D02*
X187670000Y-112050000D01*
X187670000Y-112050000D02*
X187670000Y-107900000D01*
X188100000Y-107470000D02*
X188100000Y-106160000D01*
X187670000Y-107900000D02*
X188100000Y-107470000D01*
%TO.N,/D6*%
X187740000Y-103220000D02*
X188150000Y-103220000D01*
X188150000Y-103220000D02*
X188510000Y-103580000D01*
X188510000Y-103580000D02*
X188510000Y-105010000D01*
X187365190Y-106154810D02*
X187365191Y-112176257D01*
X188510000Y-105010000D02*
X187365190Y-106154810D01*
X188730000Y-113541066D02*
X188730000Y-115690000D01*
X187365191Y-112176257D02*
X188730000Y-113541066D01*
%TO.N,/A5*%
X180920000Y-125830000D02*
X181720000Y-126630000D01*
X182580000Y-115038934D02*
X180920000Y-116698934D01*
X180920000Y-116698934D02*
X180920000Y-125830000D01*
X185600000Y-101060000D02*
X185600000Y-101800000D01*
X182580000Y-104820000D02*
X182580000Y-115038934D01*
X185600000Y-101800000D02*
X182580000Y-104820000D01*
%TO.N,/GP2*%
X179634810Y-109807322D02*
X179634810Y-124644810D01*
X181809999Y-107632133D02*
X179634810Y-109807322D01*
X181810000Y-105158934D02*
X181809999Y-107632133D01*
X179634810Y-124644810D02*
X180120000Y-125130000D01*
X184830000Y-102138934D02*
X181810000Y-105158934D01*
X184830000Y-100720000D02*
X184830000Y-102138934D01*
%TO.N,/GP0*%
X179330000Y-125840000D02*
X180120000Y-126630000D01*
X179330000Y-109681066D02*
X179330000Y-125840000D01*
X181505189Y-107505877D02*
X179330000Y-109681066D01*
X183070000Y-97110000D02*
X182780000Y-96820000D01*
X182780000Y-96820000D02*
X182070000Y-96820000D01*
X181505189Y-97384811D02*
X181505189Y-107505877D01*
X182070000Y-96820000D02*
X181505189Y-97384811D01*
%TO.N,/M2_IN2*%
X194110000Y-98520000D02*
X193650000Y-98520000D01*
X196414810Y-100824810D02*
X194110000Y-98520000D01*
X196414810Y-111573744D02*
X196414810Y-100824810D01*
X201680000Y-116838934D02*
X196414810Y-111573744D01*
X201680000Y-117560000D02*
X201680000Y-116838934D01*
%TO.N,/M2_IN1*%
X201010000Y-117840000D02*
X201510000Y-118340000D01*
X201010000Y-116600000D02*
X201010000Y-117840000D01*
X196110000Y-111700000D02*
X201010000Y-116600000D01*
X196110000Y-100951066D02*
X196110000Y-111700000D01*
X194478934Y-99320000D02*
X196110000Y-100951066D01*
X193570000Y-99320000D02*
X194478934Y-99320000D01*
%TO.N,/D11*%
X186820000Y-115830000D02*
X186820000Y-116710000D01*
X186820000Y-116710000D02*
X188140000Y-118030000D01*
X191785000Y-118030000D02*
X192540000Y-117275000D01*
X188140000Y-118030000D02*
X191785000Y-118030000D01*
%TD*%
D17*
%TO.N,GND*%
X194268579Y-95570000D02*
X194268579Y-96570000D01*
X194272257Y-96607344D01*
X194283150Y-96643254D01*
X194300839Y-96676348D01*
X194324645Y-96705355D01*
X194353652Y-96729161D01*
X194386746Y-96746850D01*
X194422656Y-96757743D01*
X194460000Y-96761421D01*
X195460000Y-96761421D01*
X195497344Y-96757743D01*
X195533254Y-96746850D01*
X195566348Y-96729161D01*
X195595355Y-96705355D01*
X195619161Y-96676348D01*
X195636850Y-96643254D01*
X195647743Y-96607344D01*
X195651421Y-96570000D01*
X195651421Y-96446962D01*
X195693654Y-96510168D01*
X195789832Y-96606346D01*
X195902926Y-96681913D01*
X196028589Y-96733964D01*
X196161992Y-96760500D01*
X196298008Y-96760500D01*
X196431411Y-96733964D01*
X196557074Y-96681913D01*
X196670168Y-96606346D01*
X196766346Y-96510168D01*
X196824114Y-96423712D01*
X197528500Y-96423712D01*
X197528500Y-96536288D01*
X197550463Y-96646700D01*
X197593543Y-96750707D01*
X197656087Y-96844310D01*
X197735690Y-96923913D01*
X197829293Y-96986457D01*
X197933300Y-97029537D01*
X198043712Y-97051500D01*
X198156288Y-97051500D01*
X198266700Y-97029537D01*
X198370707Y-96986457D01*
X198464310Y-96923913D01*
X198543913Y-96844310D01*
X198606457Y-96750707D01*
X198649537Y-96646700D01*
X198669524Y-96546221D01*
X199625500Y-96546221D01*
X199625500Y-96633779D01*
X199642582Y-96719656D01*
X199676089Y-96800550D01*
X199724734Y-96873352D01*
X199786648Y-96935266D01*
X199859450Y-96983911D01*
X199940344Y-97017418D01*
X200026221Y-97034500D01*
X200113779Y-97034500D01*
X200199656Y-97017418D01*
X200280550Y-96983911D01*
X200353352Y-96935266D01*
X200415266Y-96873352D01*
X200463911Y-96800550D01*
X200497418Y-96719656D01*
X200514500Y-96633779D01*
X200514500Y-96546221D01*
X200497418Y-96460344D01*
X200463911Y-96379450D01*
X200415266Y-96306648D01*
X200353352Y-96244734D01*
X200280550Y-96196089D01*
X200199656Y-96162582D01*
X200113779Y-96145500D01*
X200026221Y-96145500D01*
X199940344Y-96162582D01*
X199859450Y-96196089D01*
X199786648Y-96244734D01*
X199724734Y-96306648D01*
X199676089Y-96379450D01*
X199642582Y-96460344D01*
X199625500Y-96546221D01*
X198669524Y-96546221D01*
X198671500Y-96536288D01*
X198671500Y-96423712D01*
X198649537Y-96313300D01*
X198606457Y-96209293D01*
X198543913Y-96115690D01*
X198464310Y-96036087D01*
X198370707Y-95973543D01*
X198266700Y-95930463D01*
X198156288Y-95908500D01*
X198043712Y-95908500D01*
X197933300Y-95930463D01*
X197829293Y-95973543D01*
X197735690Y-96036087D01*
X197656087Y-96115690D01*
X197593543Y-96209293D01*
X197550463Y-96313300D01*
X197528500Y-96423712D01*
X196824114Y-96423712D01*
X196841913Y-96397074D01*
X196893964Y-96271411D01*
X196920500Y-96138008D01*
X196920500Y-96001992D01*
X196893964Y-95868589D01*
X196841913Y-95742926D01*
X196766346Y-95629832D01*
X196674614Y-95538100D01*
X203784500Y-95538100D01*
X203784501Y-123910736D01*
X196910738Y-130784500D01*
X183089263Y-130784500D01*
X181864292Y-129559529D01*
X182604500Y-129559529D01*
X182604500Y-129700471D01*
X182631996Y-129838704D01*
X182685932Y-129968916D01*
X182764235Y-130086105D01*
X182863895Y-130185765D01*
X182981084Y-130264068D01*
X183111296Y-130318004D01*
X183249529Y-130345500D01*
X183390471Y-130345500D01*
X183528704Y-130318004D01*
X183658916Y-130264068D01*
X183776105Y-130185765D01*
X183875765Y-130086105D01*
X183954068Y-129968916D01*
X184008004Y-129838704D01*
X184035500Y-129700471D01*
X184035500Y-129559529D01*
X184204500Y-129559529D01*
X184204500Y-129700471D01*
X184231996Y-129838704D01*
X184285932Y-129968916D01*
X184364235Y-130086105D01*
X184463895Y-130185765D01*
X184581084Y-130264068D01*
X184711296Y-130318004D01*
X184849529Y-130345500D01*
X184990471Y-130345500D01*
X185128704Y-130318004D01*
X185258916Y-130264068D01*
X185376105Y-130185765D01*
X185475765Y-130086105D01*
X185554068Y-129968916D01*
X185608004Y-129838704D01*
X185635500Y-129700471D01*
X185635500Y-129631221D01*
X187015500Y-129631221D01*
X187015500Y-129718779D01*
X187032582Y-129804656D01*
X187066089Y-129885550D01*
X187114734Y-129958352D01*
X187176648Y-130020266D01*
X187249450Y-130068911D01*
X187330344Y-130102418D01*
X187416221Y-130119500D01*
X187503779Y-130119500D01*
X187589656Y-130102418D01*
X187670550Y-130068911D01*
X187743352Y-130020266D01*
X187805266Y-129958352D01*
X187853911Y-129885550D01*
X187887418Y-129804656D01*
X187904500Y-129718779D01*
X187904500Y-129631221D01*
X188285500Y-129631221D01*
X188285500Y-129718779D01*
X188302582Y-129804656D01*
X188336089Y-129885550D01*
X188384734Y-129958352D01*
X188446648Y-130020266D01*
X188519450Y-130068911D01*
X188600344Y-130102418D01*
X188686221Y-130119500D01*
X188773779Y-130119500D01*
X188859656Y-130102418D01*
X188940550Y-130068911D01*
X189013352Y-130020266D01*
X189075266Y-129958352D01*
X189123911Y-129885550D01*
X189157418Y-129804656D01*
X189174500Y-129718779D01*
X189174500Y-129631221D01*
X189555500Y-129631221D01*
X189555500Y-129718779D01*
X189572582Y-129804656D01*
X189606089Y-129885550D01*
X189654734Y-129958352D01*
X189716648Y-130020266D01*
X189789450Y-130068911D01*
X189870344Y-130102418D01*
X189956221Y-130119500D01*
X190043779Y-130119500D01*
X190129656Y-130102418D01*
X190210550Y-130068911D01*
X190283352Y-130020266D01*
X190345266Y-129958352D01*
X190393911Y-129885550D01*
X190427418Y-129804656D01*
X190444500Y-129718779D01*
X190444500Y-129631221D01*
X190427418Y-129545344D01*
X190393911Y-129464450D01*
X190345266Y-129391648D01*
X190283352Y-129329734D01*
X190210550Y-129281089D01*
X190129656Y-129247582D01*
X190043779Y-129230500D01*
X189956221Y-129230500D01*
X189870344Y-129247582D01*
X189789450Y-129281089D01*
X189716648Y-129329734D01*
X189654734Y-129391648D01*
X189606089Y-129464450D01*
X189572582Y-129545344D01*
X189555500Y-129631221D01*
X189174500Y-129631221D01*
X189157418Y-129545344D01*
X189123911Y-129464450D01*
X189075266Y-129391648D01*
X189013352Y-129329734D01*
X188940550Y-129281089D01*
X188859656Y-129247582D01*
X188773779Y-129230500D01*
X188686221Y-129230500D01*
X188600344Y-129247582D01*
X188519450Y-129281089D01*
X188446648Y-129329734D01*
X188384734Y-129391648D01*
X188336089Y-129464450D01*
X188302582Y-129545344D01*
X188285500Y-129631221D01*
X187904500Y-129631221D01*
X187887418Y-129545344D01*
X187853911Y-129464450D01*
X187805266Y-129391648D01*
X187743352Y-129329734D01*
X187670550Y-129281089D01*
X187589656Y-129247582D01*
X187503779Y-129230500D01*
X187416221Y-129230500D01*
X187330344Y-129247582D01*
X187249450Y-129281089D01*
X187176648Y-129329734D01*
X187114734Y-129391648D01*
X187066089Y-129464450D01*
X187032582Y-129545344D01*
X187015500Y-129631221D01*
X185635500Y-129631221D01*
X185635500Y-129559529D01*
X185608004Y-129421296D01*
X185554068Y-129291084D01*
X185475765Y-129173895D01*
X185376105Y-129074235D01*
X185258916Y-128995932D01*
X185128704Y-128941996D01*
X184990471Y-128914500D01*
X184849529Y-128914500D01*
X184711296Y-128941996D01*
X184581084Y-128995932D01*
X184463895Y-129074235D01*
X184364235Y-129173895D01*
X184285932Y-129291084D01*
X184231996Y-129421296D01*
X184204500Y-129559529D01*
X184035500Y-129559529D01*
X184008004Y-129421296D01*
X183954068Y-129291084D01*
X183875765Y-129173895D01*
X183776105Y-129074235D01*
X183658916Y-128995932D01*
X183528704Y-128941996D01*
X183390471Y-128914500D01*
X183249529Y-128914500D01*
X183111296Y-128941996D01*
X182981084Y-128995932D01*
X182863895Y-129074235D01*
X182764235Y-129173895D01*
X182685932Y-129291084D01*
X182631996Y-129421296D01*
X182604500Y-129559529D01*
X181864292Y-129559529D01*
X180364292Y-128059529D01*
X181004500Y-128059529D01*
X181004500Y-128200471D01*
X181031996Y-128338704D01*
X181085932Y-128468916D01*
X181164235Y-128586105D01*
X181263895Y-128685765D01*
X181381084Y-128764068D01*
X181511296Y-128818004D01*
X181649529Y-128845500D01*
X181790471Y-128845500D01*
X181928704Y-128818004D01*
X182058916Y-128764068D01*
X182176105Y-128685765D01*
X182275765Y-128586105D01*
X182354068Y-128468916D01*
X182408004Y-128338704D01*
X182435500Y-128200471D01*
X182435500Y-128059529D01*
X182604500Y-128059529D01*
X182604500Y-128200471D01*
X182631996Y-128338704D01*
X182685932Y-128468916D01*
X182764235Y-128586105D01*
X182863895Y-128685765D01*
X182981084Y-128764068D01*
X183111296Y-128818004D01*
X183249529Y-128845500D01*
X183390471Y-128845500D01*
X183528704Y-128818004D01*
X183658916Y-128764068D01*
X183776105Y-128685765D01*
X183875765Y-128586105D01*
X183954068Y-128468916D01*
X184008004Y-128338704D01*
X184035500Y-128200471D01*
X184035500Y-128059529D01*
X184008004Y-127921296D01*
X183954068Y-127791084D01*
X183875765Y-127673895D01*
X183776105Y-127574235D01*
X183658916Y-127495932D01*
X183528704Y-127441996D01*
X183390471Y-127414500D01*
X183249529Y-127414500D01*
X183111296Y-127441996D01*
X182981084Y-127495932D01*
X182863895Y-127574235D01*
X182764235Y-127673895D01*
X182685932Y-127791084D01*
X182631996Y-127921296D01*
X182604500Y-128059529D01*
X182435500Y-128059529D01*
X182408004Y-127921296D01*
X182354068Y-127791084D01*
X182275765Y-127673895D01*
X182176105Y-127574235D01*
X182058916Y-127495932D01*
X181928704Y-127441996D01*
X181790471Y-127414500D01*
X181649529Y-127414500D01*
X181511296Y-127441996D01*
X181381084Y-127495932D01*
X181263895Y-127574235D01*
X181164235Y-127673895D01*
X181085932Y-127791084D01*
X181031996Y-127921296D01*
X181004500Y-128059529D01*
X180364292Y-128059529D01*
X177364292Y-125059529D01*
X177804500Y-125059529D01*
X177804500Y-125200471D01*
X177831996Y-125338704D01*
X177885932Y-125468916D01*
X177964235Y-125586105D01*
X178063895Y-125685765D01*
X178181084Y-125764068D01*
X178311296Y-125818004D01*
X178449529Y-125845500D01*
X178590471Y-125845500D01*
X178728704Y-125818004D01*
X178858916Y-125764068D01*
X178976105Y-125685765D01*
X179063301Y-125598569D01*
X179063301Y-125826894D01*
X179062010Y-125840000D01*
X179066175Y-125882282D01*
X179067160Y-125892282D01*
X179082411Y-125942555D01*
X179107175Y-125988887D01*
X179140503Y-126029498D01*
X179150679Y-126037849D01*
X179461909Y-126349080D01*
X179431996Y-126421296D01*
X179404500Y-126559529D01*
X179404500Y-126700471D01*
X179431996Y-126838704D01*
X179485932Y-126968916D01*
X179564235Y-127086105D01*
X179663895Y-127185765D01*
X179781084Y-127264068D01*
X179911296Y-127318004D01*
X180049529Y-127345500D01*
X180190471Y-127345500D01*
X180328704Y-127318004D01*
X180458916Y-127264068D01*
X180576105Y-127185765D01*
X180675765Y-127086105D01*
X180754068Y-126968916D01*
X180808004Y-126838704D01*
X180835500Y-126700471D01*
X180835500Y-126559529D01*
X180808004Y-126421296D01*
X180754068Y-126291084D01*
X180675765Y-126173895D01*
X180576105Y-126074235D01*
X180458916Y-125995932D01*
X180328704Y-125941996D01*
X180190471Y-125914500D01*
X180049529Y-125914500D01*
X179911296Y-125941996D01*
X179839080Y-125971909D01*
X179596700Y-125729530D01*
X179596700Y-125618570D01*
X179663895Y-125685765D01*
X179781084Y-125764068D01*
X179911296Y-125818004D01*
X180049529Y-125845500D01*
X180190471Y-125845500D01*
X180328704Y-125818004D01*
X180458916Y-125764068D01*
X180576105Y-125685765D01*
X180653301Y-125608569D01*
X180653301Y-125816894D01*
X180652010Y-125830000D01*
X180656552Y-125876112D01*
X180657160Y-125882282D01*
X180672411Y-125932555D01*
X180697175Y-125978887D01*
X180730503Y-126019498D01*
X180740679Y-126027849D01*
X181061909Y-126349080D01*
X181031996Y-126421296D01*
X181004500Y-126559529D01*
X181004500Y-126700471D01*
X181031996Y-126838704D01*
X181085932Y-126968916D01*
X181164235Y-127086105D01*
X181263895Y-127185765D01*
X181381084Y-127264068D01*
X181511296Y-127318004D01*
X181649529Y-127345500D01*
X181790471Y-127345500D01*
X181928704Y-127318004D01*
X182058916Y-127264068D01*
X182176105Y-127185765D01*
X182275765Y-127086105D01*
X182354068Y-126968916D01*
X182408004Y-126838704D01*
X182435500Y-126700471D01*
X182435500Y-126559529D01*
X182408004Y-126421296D01*
X182354068Y-126291084D01*
X182275765Y-126173895D01*
X182176105Y-126074235D01*
X182058916Y-125995932D01*
X181928704Y-125941996D01*
X181790471Y-125914500D01*
X181649529Y-125914500D01*
X181511296Y-125941996D01*
X181439080Y-125971909D01*
X181186700Y-125719530D01*
X181186700Y-125608570D01*
X181263895Y-125685765D01*
X181381084Y-125764068D01*
X181511296Y-125818004D01*
X181649529Y-125845500D01*
X181790471Y-125845500D01*
X181928704Y-125818004D01*
X182058916Y-125764068D01*
X182176105Y-125685765D01*
X182275765Y-125586105D01*
X182354068Y-125468916D01*
X182408004Y-125338704D01*
X182435500Y-125200471D01*
X182435500Y-125059529D01*
X182408004Y-124921296D01*
X182354068Y-124791084D01*
X182275765Y-124673895D01*
X182176105Y-124574235D01*
X182058916Y-124495932D01*
X181928704Y-124441996D01*
X181790471Y-124414500D01*
X181649529Y-124414500D01*
X181511296Y-124441996D01*
X181381084Y-124495932D01*
X181263895Y-124574235D01*
X181186700Y-124651430D01*
X181186700Y-116809404D01*
X181323301Y-116672803D01*
X181323300Y-123436904D01*
X181322010Y-123450000D01*
X181323300Y-123463096D01*
X181323300Y-123463097D01*
X181327159Y-123502281D01*
X181342410Y-123552554D01*
X181367174Y-123598887D01*
X181400502Y-123639498D01*
X181410684Y-123647854D01*
X183053301Y-125290472D01*
X183053300Y-125966019D01*
X182981084Y-125995932D01*
X182863895Y-126074235D01*
X182764235Y-126173895D01*
X182685932Y-126291084D01*
X182631996Y-126421296D01*
X182604500Y-126559529D01*
X182604500Y-126700471D01*
X182631996Y-126838704D01*
X182685932Y-126968916D01*
X182764235Y-127086105D01*
X182863895Y-127185765D01*
X182981084Y-127264068D01*
X183111296Y-127318004D01*
X183249529Y-127345500D01*
X183390471Y-127345500D01*
X183528704Y-127318004D01*
X183658916Y-127264068D01*
X183776105Y-127185765D01*
X183875765Y-127086105D01*
X183954068Y-126968916D01*
X184008004Y-126838704D01*
X184035500Y-126700471D01*
X184035500Y-126559529D01*
X184204500Y-126559529D01*
X184204500Y-126700471D01*
X184231996Y-126838704D01*
X184285932Y-126968916D01*
X184364235Y-127086105D01*
X184463895Y-127185765D01*
X184581084Y-127264068D01*
X184711296Y-127318004D01*
X184849529Y-127345500D01*
X184990471Y-127345500D01*
X185128704Y-127318004D01*
X185258916Y-127264068D01*
X185376105Y-127185765D01*
X185475765Y-127086105D01*
X185554068Y-126968916D01*
X185608004Y-126838704D01*
X185635500Y-126700471D01*
X185635500Y-126559529D01*
X185608004Y-126421296D01*
X185554068Y-126291084D01*
X185475765Y-126173895D01*
X185376105Y-126074235D01*
X185258916Y-125995932D01*
X185223401Y-125981221D01*
X187015500Y-125981221D01*
X187015500Y-126068779D01*
X187032582Y-126154656D01*
X187066089Y-126235550D01*
X187114734Y-126308352D01*
X187176648Y-126370266D01*
X187249450Y-126418911D01*
X187330344Y-126452418D01*
X187416221Y-126469500D01*
X187503779Y-126469500D01*
X187589656Y-126452418D01*
X187670550Y-126418911D01*
X187743352Y-126370266D01*
X187805266Y-126308352D01*
X187853911Y-126235550D01*
X187887418Y-126154656D01*
X187904500Y-126068779D01*
X187904500Y-125981221D01*
X187887418Y-125895344D01*
X187853911Y-125814450D01*
X187805266Y-125741648D01*
X187743352Y-125679734D01*
X187670550Y-125631089D01*
X187589656Y-125597582D01*
X187503779Y-125580500D01*
X187416221Y-125580500D01*
X187330344Y-125597582D01*
X187249450Y-125631089D01*
X187176648Y-125679734D01*
X187114734Y-125741648D01*
X187066089Y-125814450D01*
X187032582Y-125895344D01*
X187015500Y-125981221D01*
X185223401Y-125981221D01*
X185128704Y-125941996D01*
X184990471Y-125914500D01*
X184849529Y-125914500D01*
X184711296Y-125941996D01*
X184581084Y-125995932D01*
X184463895Y-126074235D01*
X184364235Y-126173895D01*
X184285932Y-126291084D01*
X184231996Y-126421296D01*
X184204500Y-126559529D01*
X184035500Y-126559529D01*
X184008004Y-126421296D01*
X183954068Y-126291084D01*
X183875765Y-126173895D01*
X183776105Y-126074235D01*
X183658916Y-125995932D01*
X183586700Y-125966019D01*
X183586700Y-125193095D01*
X183587990Y-125179999D01*
X183586700Y-125166902D01*
X183582841Y-125127718D01*
X183567590Y-125077445D01*
X183542826Y-125031113D01*
X183542825Y-125031111D01*
X183530109Y-125015617D01*
X183509498Y-124990502D01*
X183499321Y-124982151D01*
X181856700Y-123339530D01*
X181856700Y-117573712D01*
X184118500Y-117573712D01*
X184118500Y-117686288D01*
X184140463Y-117796700D01*
X184183543Y-117900707D01*
X184246087Y-117994310D01*
X184325690Y-118073913D01*
X184419293Y-118136457D01*
X184523300Y-118179537D01*
X184633712Y-118201500D01*
X184746288Y-118201500D01*
X184856700Y-118179537D01*
X184960707Y-118136457D01*
X185054310Y-118073913D01*
X185133913Y-117994310D01*
X185196457Y-117900707D01*
X185239537Y-117796700D01*
X185261500Y-117686288D01*
X185261500Y-117573712D01*
X185239537Y-117463300D01*
X185196457Y-117359293D01*
X185133913Y-117265690D01*
X185054310Y-117186087D01*
X184960707Y-117123543D01*
X184856700Y-117080463D01*
X184746288Y-117058500D01*
X184633712Y-117058500D01*
X184523300Y-117080463D01*
X184419293Y-117123543D01*
X184325690Y-117186087D01*
X184246087Y-117265690D01*
X184183543Y-117359293D01*
X184140463Y-117463300D01*
X184118500Y-117573712D01*
X181856700Y-117573712D01*
X181856700Y-116570470D01*
X184631917Y-113795253D01*
X184642099Y-113786897D01*
X184675427Y-113746286D01*
X184700191Y-113699954D01*
X184715442Y-113649681D01*
X184719301Y-113610497D01*
X184719301Y-113610496D01*
X184720591Y-113597400D01*
X184719301Y-113584304D01*
X184719301Y-112724154D01*
X184726087Y-112734310D01*
X184805690Y-112813913D01*
X184899293Y-112876457D01*
X185003300Y-112919537D01*
X185113712Y-112941500D01*
X185226288Y-112941500D01*
X185336700Y-112919537D01*
X185440707Y-112876457D01*
X185534310Y-112813913D01*
X185613913Y-112734310D01*
X185676457Y-112640707D01*
X185719537Y-112536700D01*
X185741500Y-112426288D01*
X185741500Y-112313712D01*
X185719537Y-112203300D01*
X185676457Y-112099293D01*
X185613913Y-112005690D01*
X185534310Y-111926087D01*
X185440707Y-111863543D01*
X185336700Y-111820463D01*
X185226288Y-111798500D01*
X185113712Y-111798500D01*
X185003300Y-111820463D01*
X184899293Y-111863543D01*
X184805690Y-111926087D01*
X184726087Y-112005690D01*
X184719301Y-112015846D01*
X184719301Y-110354155D01*
X184727175Y-110368887D01*
X184760503Y-110409498D01*
X184770679Y-110417849D01*
X185853300Y-111500471D01*
X185853301Y-123401894D01*
X185852010Y-123415000D01*
X185855458Y-123450000D01*
X185857160Y-123467282D01*
X185872411Y-123517555D01*
X185897175Y-123563887D01*
X185930503Y-123604498D01*
X185940679Y-123612849D01*
X188289407Y-125961577D01*
X188285500Y-125981221D01*
X188285500Y-126068779D01*
X188302582Y-126154656D01*
X188336089Y-126235550D01*
X188384734Y-126308352D01*
X188446648Y-126370266D01*
X188519450Y-126418911D01*
X188600344Y-126452418D01*
X188686221Y-126469500D01*
X188773779Y-126469500D01*
X188859656Y-126452418D01*
X188940550Y-126418911D01*
X189013352Y-126370266D01*
X189075266Y-126308352D01*
X189123911Y-126235550D01*
X189157418Y-126154656D01*
X189174500Y-126068779D01*
X189174500Y-125981221D01*
X189555500Y-125981221D01*
X189555500Y-126068779D01*
X189572582Y-126154656D01*
X189606089Y-126235550D01*
X189654734Y-126308352D01*
X189716648Y-126370266D01*
X189789450Y-126418911D01*
X189870344Y-126452418D01*
X189956221Y-126469500D01*
X190043779Y-126469500D01*
X190129656Y-126452418D01*
X190210550Y-126418911D01*
X190283352Y-126370266D01*
X190345266Y-126308352D01*
X190393911Y-126235550D01*
X190427418Y-126154656D01*
X190444500Y-126068779D01*
X190444500Y-125981221D01*
X190427418Y-125895344D01*
X190393911Y-125814450D01*
X190345266Y-125741648D01*
X190283352Y-125679734D01*
X190210550Y-125631089D01*
X190129656Y-125597582D01*
X190043779Y-125580500D01*
X189956221Y-125580500D01*
X189870344Y-125597582D01*
X189789450Y-125631089D01*
X189716648Y-125679734D01*
X189654734Y-125741648D01*
X189606089Y-125814450D01*
X189572582Y-125895344D01*
X189555500Y-125981221D01*
X189174500Y-125981221D01*
X189157418Y-125895344D01*
X189123911Y-125814450D01*
X189075266Y-125741648D01*
X189013352Y-125679734D01*
X188940550Y-125631089D01*
X188859656Y-125597582D01*
X188773779Y-125580500D01*
X188686221Y-125580500D01*
X188666577Y-125584407D01*
X186386700Y-123304530D01*
X186386700Y-122892595D01*
X188909500Y-122892595D01*
X188909500Y-123107405D01*
X188951408Y-123318087D01*
X189033612Y-123516545D01*
X189152954Y-123695153D01*
X189304847Y-123847046D01*
X189483455Y-123966388D01*
X189681913Y-124048592D01*
X189892595Y-124090500D01*
X190107405Y-124090500D01*
X190318087Y-124048592D01*
X190516545Y-123966388D01*
X190695153Y-123847046D01*
X190847046Y-123695153D01*
X190966388Y-123516545D01*
X191048592Y-123318087D01*
X191090500Y-123107405D01*
X191090500Y-122892595D01*
X191048592Y-122681913D01*
X190966388Y-122483455D01*
X190847046Y-122304847D01*
X190695153Y-122152954D01*
X190516545Y-122033612D01*
X190318087Y-121951408D01*
X190107405Y-121909500D01*
X189892595Y-121909500D01*
X189681913Y-121951408D01*
X189483455Y-122033612D01*
X189304847Y-122152954D01*
X189152954Y-122304847D01*
X189033612Y-122483455D01*
X188951408Y-122681913D01*
X188909500Y-122892595D01*
X186386700Y-122892595D01*
X186386700Y-121486221D01*
X187345500Y-121486221D01*
X187345500Y-121573779D01*
X187362582Y-121659656D01*
X187396089Y-121740550D01*
X187444734Y-121813352D01*
X187506648Y-121875266D01*
X187579450Y-121923911D01*
X187660344Y-121957418D01*
X187746221Y-121974500D01*
X187833779Y-121974500D01*
X187919656Y-121957418D01*
X188000550Y-121923911D01*
X188073352Y-121875266D01*
X188135266Y-121813352D01*
X188183911Y-121740550D01*
X188217418Y-121659656D01*
X188234500Y-121573779D01*
X188234500Y-121486221D01*
X188217418Y-121400344D01*
X188183911Y-121319450D01*
X188135266Y-121246648D01*
X188073352Y-121184734D01*
X188000550Y-121136089D01*
X187919656Y-121102582D01*
X187833779Y-121085500D01*
X187746221Y-121085500D01*
X187660344Y-121102582D01*
X187579450Y-121136089D01*
X187506648Y-121184734D01*
X187444734Y-121246648D01*
X187396089Y-121319450D01*
X187362582Y-121400344D01*
X187345500Y-121486221D01*
X186386700Y-121486221D01*
X186386700Y-119073712D01*
X188408500Y-119073712D01*
X188408500Y-119186288D01*
X188430463Y-119296700D01*
X188473543Y-119400707D01*
X188536087Y-119494310D01*
X188615690Y-119573913D01*
X188709293Y-119636457D01*
X188813300Y-119679537D01*
X188923712Y-119701500D01*
X189036288Y-119701500D01*
X189146700Y-119679537D01*
X189250707Y-119636457D01*
X189344310Y-119573913D01*
X189423913Y-119494310D01*
X189486457Y-119400707D01*
X189529537Y-119296700D01*
X189551500Y-119186288D01*
X189551500Y-119073712D01*
X189536086Y-118996221D01*
X190675500Y-118996221D01*
X190675500Y-119083779D01*
X190692582Y-119169656D01*
X190726089Y-119250550D01*
X190774734Y-119323352D01*
X190836648Y-119385266D01*
X190853300Y-119396393D01*
X190853301Y-121856894D01*
X190852010Y-121870000D01*
X190855901Y-121909500D01*
X190857160Y-121922282D01*
X190872411Y-121972555D01*
X190897175Y-122018887D01*
X190930503Y-122059498D01*
X190940679Y-122067849D01*
X191583300Y-122710471D01*
X191583301Y-125709683D01*
X191553352Y-125679734D01*
X191480550Y-125631089D01*
X191399656Y-125597582D01*
X191313779Y-125580500D01*
X191226221Y-125580500D01*
X191140344Y-125597582D01*
X191059450Y-125631089D01*
X190986648Y-125679734D01*
X190924734Y-125741648D01*
X190876089Y-125814450D01*
X190842582Y-125895344D01*
X190825500Y-125981221D01*
X190825500Y-126068779D01*
X190842582Y-126154656D01*
X190876089Y-126235550D01*
X190924734Y-126308352D01*
X190986648Y-126370266D01*
X191059450Y-126418911D01*
X191140344Y-126452418D01*
X191226221Y-126469500D01*
X191313779Y-126469500D01*
X191399656Y-126452418D01*
X191480550Y-126418911D01*
X191553352Y-126370266D01*
X191583301Y-126340317D01*
X191583301Y-127189528D01*
X191090684Y-127682146D01*
X191080502Y-127690502D01*
X191047174Y-127731113D01*
X191022410Y-127777446D01*
X191007159Y-127827719D01*
X191003300Y-127866902D01*
X191002010Y-127880000D01*
X191003300Y-127893096D01*
X191003301Y-129318607D01*
X190986648Y-129329734D01*
X190924734Y-129391648D01*
X190876089Y-129464450D01*
X190842582Y-129545344D01*
X190825500Y-129631221D01*
X190825500Y-129718779D01*
X190842582Y-129804656D01*
X190876089Y-129885550D01*
X190924734Y-129958352D01*
X190986648Y-130020266D01*
X191059450Y-130068911D01*
X191140344Y-130102418D01*
X191226221Y-130119500D01*
X191313779Y-130119500D01*
X191399656Y-130102418D01*
X191480550Y-130068911D01*
X191553352Y-130020266D01*
X191615266Y-129958352D01*
X191663911Y-129885550D01*
X191697418Y-129804656D01*
X191714500Y-129718779D01*
X191714500Y-129631221D01*
X191697418Y-129545344D01*
X191663911Y-129464450D01*
X191615266Y-129391648D01*
X191553352Y-129329734D01*
X191536700Y-129318607D01*
X191536700Y-127990470D01*
X192029321Y-127497850D01*
X192039498Y-127489498D01*
X192072826Y-127448887D01*
X192097590Y-127402555D01*
X192112841Y-127352282D01*
X192116700Y-127313098D01*
X192116700Y-127313096D01*
X192117990Y-127300000D01*
X192116700Y-127286904D01*
X192116700Y-122613096D01*
X192117990Y-122600000D01*
X192116700Y-122586902D01*
X192112841Y-122547718D01*
X192097590Y-122497445D01*
X192072826Y-122451113D01*
X192039498Y-122410502D01*
X192029321Y-122402150D01*
X191386700Y-121759530D01*
X191386700Y-119396393D01*
X191403352Y-119385266D01*
X191465266Y-119323352D01*
X191513911Y-119250550D01*
X191547418Y-119169656D01*
X191564500Y-119083779D01*
X191564500Y-119033118D01*
X191616648Y-119085266D01*
X191633301Y-119096393D01*
X191633300Y-121846904D01*
X191632010Y-121860000D01*
X191633300Y-121873096D01*
X191633300Y-121873097D01*
X191637159Y-121912281D01*
X191652410Y-121962554D01*
X191677174Y-122008887D01*
X191710502Y-122049498D01*
X191720684Y-122057854D01*
X193293301Y-123630472D01*
X193293300Y-127039529D01*
X192360679Y-127972151D01*
X192350503Y-127980502D01*
X192342153Y-127990677D01*
X192317175Y-128021113D01*
X192292411Y-128067445D01*
X192277160Y-128117718D01*
X192272010Y-128170000D01*
X192273301Y-128183106D01*
X192273300Y-129318607D01*
X192256648Y-129329734D01*
X192194734Y-129391648D01*
X192146089Y-129464450D01*
X192112582Y-129545344D01*
X192095500Y-129631221D01*
X192095500Y-129718779D01*
X192112582Y-129804656D01*
X192146089Y-129885550D01*
X192194734Y-129958352D01*
X192256648Y-130020266D01*
X192329450Y-130068911D01*
X192410344Y-130102418D01*
X192496221Y-130119500D01*
X192583779Y-130119500D01*
X192669656Y-130102418D01*
X192750550Y-130068911D01*
X192823352Y-130020266D01*
X192885266Y-129958352D01*
X192933911Y-129885550D01*
X192967418Y-129804656D01*
X192984500Y-129718779D01*
X192984500Y-129631221D01*
X192967418Y-129545344D01*
X192933911Y-129464450D01*
X192885266Y-129391648D01*
X192823352Y-129329734D01*
X192806700Y-129318607D01*
X192806700Y-128280470D01*
X193739321Y-127347850D01*
X193749498Y-127339498D01*
X193782826Y-127298887D01*
X193794353Y-127277320D01*
X193807590Y-127252556D01*
X193812216Y-127237305D01*
X193822841Y-127202282D01*
X193826700Y-127163098D01*
X193826700Y-127163096D01*
X193827990Y-127150000D01*
X193826700Y-127136904D01*
X193826700Y-123533099D01*
X193827990Y-123520000D01*
X193822841Y-123467717D01*
X193807590Y-123417445D01*
X193782825Y-123371112D01*
X193749498Y-123330502D01*
X193739321Y-123322151D01*
X192166700Y-121749530D01*
X192166700Y-119703712D01*
X195238500Y-119703712D01*
X195238500Y-119816288D01*
X195260463Y-119926700D01*
X195303543Y-120030707D01*
X195366087Y-120124310D01*
X195445690Y-120203913D01*
X195539293Y-120266457D01*
X195643300Y-120309537D01*
X195753712Y-120331500D01*
X195866288Y-120331500D01*
X195976700Y-120309537D01*
X196080707Y-120266457D01*
X196174310Y-120203913D01*
X196253913Y-120124310D01*
X196316457Y-120030707D01*
X196359537Y-119926700D01*
X196381500Y-119816288D01*
X196381500Y-119703712D01*
X196359537Y-119593300D01*
X196316457Y-119489293D01*
X196253913Y-119395690D01*
X196174310Y-119316087D01*
X196080707Y-119253543D01*
X195976700Y-119210463D01*
X195866288Y-119188500D01*
X195753712Y-119188500D01*
X195643300Y-119210463D01*
X195539293Y-119253543D01*
X195445690Y-119316087D01*
X195366087Y-119395690D01*
X195303543Y-119489293D01*
X195260463Y-119593300D01*
X195238500Y-119703712D01*
X192166700Y-119703712D01*
X192166700Y-119096393D01*
X192183352Y-119085266D01*
X192245266Y-119023352D01*
X192293911Y-118950550D01*
X192327418Y-118869656D01*
X192344500Y-118783779D01*
X192344500Y-118776221D01*
X192735500Y-118776221D01*
X192735500Y-118863779D01*
X192752582Y-118949656D01*
X192786089Y-119030550D01*
X192834734Y-119103352D01*
X192896648Y-119165266D01*
X192969450Y-119213911D01*
X193050344Y-119247418D01*
X193136221Y-119264500D01*
X193223779Y-119264500D01*
X193309656Y-119247418D01*
X193390550Y-119213911D01*
X193463352Y-119165266D01*
X193525266Y-119103352D01*
X193573911Y-119030550D01*
X193607418Y-118949656D01*
X193624500Y-118863779D01*
X193624500Y-118776221D01*
X193607418Y-118690344D01*
X193573911Y-118609450D01*
X193525266Y-118536648D01*
X193463352Y-118474734D01*
X193390550Y-118426089D01*
X193309656Y-118392582D01*
X193223779Y-118375500D01*
X193136221Y-118375500D01*
X193050344Y-118392582D01*
X192969450Y-118426089D01*
X192896648Y-118474734D01*
X192834734Y-118536648D01*
X192786089Y-118609450D01*
X192752582Y-118690344D01*
X192735500Y-118776221D01*
X192344500Y-118776221D01*
X192344500Y-118696221D01*
X192327418Y-118610344D01*
X192293911Y-118529450D01*
X192245266Y-118456648D01*
X192183352Y-118394734D01*
X192110550Y-118346089D01*
X192029656Y-118312582D01*
X191943779Y-118295500D01*
X191856221Y-118295500D01*
X191770344Y-118312582D01*
X191689450Y-118346089D01*
X191616648Y-118394734D01*
X191554734Y-118456648D01*
X191506089Y-118529450D01*
X191472582Y-118610344D01*
X191455500Y-118696221D01*
X191455500Y-118746882D01*
X191403352Y-118694734D01*
X191330550Y-118646089D01*
X191249656Y-118612582D01*
X191163779Y-118595500D01*
X191076221Y-118595500D01*
X190990344Y-118612582D01*
X190909450Y-118646089D01*
X190836648Y-118694734D01*
X190774734Y-118756648D01*
X190726089Y-118829450D01*
X190692582Y-118910344D01*
X190675500Y-118996221D01*
X189536086Y-118996221D01*
X189529537Y-118963300D01*
X189486457Y-118859293D01*
X189423913Y-118765690D01*
X189344310Y-118686087D01*
X189250707Y-118623543D01*
X189146700Y-118580463D01*
X189036288Y-118558500D01*
X188923712Y-118558500D01*
X188813300Y-118580463D01*
X188709293Y-118623543D01*
X188615690Y-118686087D01*
X188536087Y-118765690D01*
X188473543Y-118859293D01*
X188430463Y-118963300D01*
X188408500Y-119073712D01*
X186386700Y-119073712D01*
X186386700Y-115930085D01*
X186392582Y-115959656D01*
X186426089Y-116040550D01*
X186474734Y-116113352D01*
X186536648Y-116175266D01*
X186553300Y-116186393D01*
X186553301Y-116696894D01*
X186552010Y-116710000D01*
X186555841Y-116748887D01*
X186557160Y-116762282D01*
X186572411Y-116812555D01*
X186597175Y-116858887D01*
X186630503Y-116899498D01*
X186640679Y-116907849D01*
X187942150Y-118209321D01*
X187950502Y-118219498D01*
X187991113Y-118252826D01*
X188037445Y-118277590D01*
X188087718Y-118292841D01*
X188126902Y-118296700D01*
X188126904Y-118296700D01*
X188140000Y-118297990D01*
X188153096Y-118296700D01*
X191771904Y-118296700D01*
X191785000Y-118297990D01*
X191798096Y-118296700D01*
X191798098Y-118296700D01*
X191837282Y-118292841D01*
X191887555Y-118277590D01*
X191933887Y-118252826D01*
X191974498Y-118219498D01*
X191982854Y-118209316D01*
X192476577Y-117715593D01*
X192496221Y-117719500D01*
X192583779Y-117719500D01*
X192669656Y-117702418D01*
X192750550Y-117668911D01*
X192823352Y-117620266D01*
X192885266Y-117558352D01*
X192933911Y-117485550D01*
X192967418Y-117404656D01*
X192984500Y-117318779D01*
X192984500Y-117231221D01*
X192967418Y-117145344D01*
X192933911Y-117064450D01*
X192885266Y-116991648D01*
X192823352Y-116929734D01*
X192750550Y-116881089D01*
X192669656Y-116847582D01*
X192583779Y-116830500D01*
X192496221Y-116830500D01*
X192410344Y-116847582D01*
X192329450Y-116881089D01*
X192256648Y-116929734D01*
X192194734Y-116991648D01*
X192146089Y-117064450D01*
X192112582Y-117145344D01*
X192095500Y-117231221D01*
X192095500Y-117318779D01*
X192099407Y-117338423D01*
X191674530Y-117763300D01*
X188250471Y-117763300D01*
X187718392Y-117231221D01*
X190825500Y-117231221D01*
X190825500Y-117318779D01*
X190842582Y-117404656D01*
X190876089Y-117485550D01*
X190924734Y-117558352D01*
X190986648Y-117620266D01*
X191059450Y-117668911D01*
X191140344Y-117702418D01*
X191226221Y-117719500D01*
X191313779Y-117719500D01*
X191399656Y-117702418D01*
X191480550Y-117668911D01*
X191553352Y-117620266D01*
X191615266Y-117558352D01*
X191663911Y-117485550D01*
X191697418Y-117404656D01*
X191714500Y-117318779D01*
X191714500Y-117231221D01*
X191697418Y-117145344D01*
X191663911Y-117064450D01*
X191615266Y-116991648D01*
X191553352Y-116929734D01*
X191480550Y-116881089D01*
X191399656Y-116847582D01*
X191313779Y-116830500D01*
X191226221Y-116830500D01*
X191140344Y-116847582D01*
X191059450Y-116881089D01*
X190986648Y-116929734D01*
X190924734Y-116991648D01*
X190876089Y-117064450D01*
X190842582Y-117145344D01*
X190825500Y-117231221D01*
X187718392Y-117231221D01*
X187117171Y-116630000D01*
X195538579Y-116630000D01*
X195538579Y-117630000D01*
X195542257Y-117667344D01*
X195553150Y-117703254D01*
X195570839Y-117736348D01*
X195594645Y-117765355D01*
X195623652Y-117789161D01*
X195656746Y-117806850D01*
X195692656Y-117817743D01*
X195730000Y-117821421D01*
X196730000Y-117821421D01*
X196767344Y-117817743D01*
X196803254Y-117806850D01*
X196836348Y-117789161D01*
X196865355Y-117765355D01*
X196889161Y-117736348D01*
X196906850Y-117703254D01*
X196917743Y-117667344D01*
X196921421Y-117630000D01*
X196921421Y-116630000D01*
X196917743Y-116592656D01*
X196906850Y-116556746D01*
X196889161Y-116523652D01*
X196865355Y-116494645D01*
X196836348Y-116470839D01*
X196803254Y-116453150D01*
X196767344Y-116442257D01*
X196730000Y-116438579D01*
X195730000Y-116438579D01*
X195692656Y-116442257D01*
X195656746Y-116453150D01*
X195623652Y-116470839D01*
X195594645Y-116494645D01*
X195570839Y-116523652D01*
X195553150Y-116556746D01*
X195542257Y-116592656D01*
X195538579Y-116630000D01*
X187117171Y-116630000D01*
X187086700Y-116599530D01*
X187086700Y-116186393D01*
X187103352Y-116175266D01*
X187165266Y-116113352D01*
X187213911Y-116040550D01*
X187247418Y-115959656D01*
X187248665Y-115953387D01*
X187249450Y-115953911D01*
X187330344Y-115987418D01*
X187416221Y-116004500D01*
X187503779Y-116004500D01*
X187589656Y-115987418D01*
X187670550Y-115953911D01*
X187743352Y-115905266D01*
X187805266Y-115843352D01*
X187853911Y-115770550D01*
X187887418Y-115689656D01*
X187904500Y-115603779D01*
X187904500Y-115516221D01*
X187887418Y-115430344D01*
X187853911Y-115349450D01*
X187805266Y-115276648D01*
X187743352Y-115214734D01*
X187670550Y-115166089D01*
X187589656Y-115132582D01*
X187503779Y-115115500D01*
X187416221Y-115115500D01*
X187330344Y-115132582D01*
X187249450Y-115166089D01*
X187176648Y-115214734D01*
X187114734Y-115276648D01*
X187066089Y-115349450D01*
X187032582Y-115430344D01*
X187031335Y-115436613D01*
X187030550Y-115436089D01*
X186949656Y-115402582D01*
X186863779Y-115385500D01*
X186776221Y-115385500D01*
X186690344Y-115402582D01*
X186609450Y-115436089D01*
X186536648Y-115484734D01*
X186474734Y-115546648D01*
X186426089Y-115619450D01*
X186392582Y-115700344D01*
X186386700Y-115729915D01*
X186386700Y-113681221D01*
X187015500Y-113681221D01*
X187015500Y-113768779D01*
X187032582Y-113854656D01*
X187066089Y-113935550D01*
X187114734Y-114008352D01*
X187176648Y-114070266D01*
X187249450Y-114118911D01*
X187330344Y-114152418D01*
X187416221Y-114169500D01*
X187503779Y-114169500D01*
X187589656Y-114152418D01*
X187670550Y-114118911D01*
X187743352Y-114070266D01*
X187805266Y-114008352D01*
X187853911Y-113935550D01*
X187887418Y-113854656D01*
X187904500Y-113768779D01*
X187904500Y-113681221D01*
X187887418Y-113595344D01*
X187853911Y-113514450D01*
X187805266Y-113441648D01*
X187743352Y-113379734D01*
X187670550Y-113331089D01*
X187589656Y-113297582D01*
X187503779Y-113280500D01*
X187416221Y-113280500D01*
X187330344Y-113297582D01*
X187249450Y-113331089D01*
X187176648Y-113379734D01*
X187114734Y-113441648D01*
X187066089Y-113514450D01*
X187032582Y-113595344D01*
X187015500Y-113681221D01*
X186386700Y-113681221D01*
X186386700Y-111403096D01*
X186387990Y-111390000D01*
X186384302Y-111352555D01*
X186382841Y-111337718D01*
X186367590Y-111287445D01*
X186342826Y-111241113D01*
X186309498Y-111200502D01*
X186299321Y-111192150D01*
X185216700Y-110109530D01*
X185216700Y-109726221D01*
X185612900Y-109726221D01*
X185612900Y-109813779D01*
X185629982Y-109899656D01*
X185663489Y-109980550D01*
X185712134Y-110053352D01*
X185774048Y-110115266D01*
X185846850Y-110163911D01*
X185927744Y-110197418D01*
X186013621Y-110214500D01*
X186101179Y-110214500D01*
X186187056Y-110197418D01*
X186267950Y-110163911D01*
X186340752Y-110115266D01*
X186402666Y-110053352D01*
X186451311Y-109980550D01*
X186484818Y-109899656D01*
X186501900Y-109813779D01*
X186501900Y-109726221D01*
X186484818Y-109640344D01*
X186451311Y-109559450D01*
X186402666Y-109486648D01*
X186340752Y-109424734D01*
X186267950Y-109376089D01*
X186187056Y-109342582D01*
X186101179Y-109325500D01*
X186013621Y-109325500D01*
X185927744Y-109342582D01*
X185846850Y-109376089D01*
X185774048Y-109424734D01*
X185712134Y-109486648D01*
X185663489Y-109559450D01*
X185629982Y-109640344D01*
X185612900Y-109726221D01*
X185216700Y-109726221D01*
X185216700Y-106086221D01*
X185345500Y-106086221D01*
X185345500Y-106173779D01*
X185362582Y-106259656D01*
X185396089Y-106340550D01*
X185444734Y-106413352D01*
X185506648Y-106475266D01*
X185579450Y-106523911D01*
X185660344Y-106557418D01*
X185746221Y-106574500D01*
X185833779Y-106574500D01*
X185919656Y-106557418D01*
X186000550Y-106523911D01*
X186073352Y-106475266D01*
X186135266Y-106413352D01*
X186183911Y-106340550D01*
X186217418Y-106259656D01*
X186234500Y-106173779D01*
X186234500Y-106154810D01*
X187097200Y-106154810D01*
X187098490Y-106167906D01*
X187098492Y-112163151D01*
X187097201Y-112176257D01*
X187099865Y-112203300D01*
X187102351Y-112228539D01*
X187117602Y-112278812D01*
X187142366Y-112325144D01*
X187175694Y-112365755D01*
X187185870Y-112374106D01*
X188463300Y-113651536D01*
X188463301Y-115333607D01*
X188446648Y-115344734D01*
X188384734Y-115406648D01*
X188336089Y-115479450D01*
X188302582Y-115560344D01*
X188285500Y-115646221D01*
X188285500Y-115733779D01*
X188302582Y-115819656D01*
X188336089Y-115900550D01*
X188384734Y-115973352D01*
X188446648Y-116035266D01*
X188519450Y-116083911D01*
X188600344Y-116117418D01*
X188686221Y-116134500D01*
X188773779Y-116134500D01*
X188859656Y-116117418D01*
X188940550Y-116083911D01*
X189013352Y-116035266D01*
X189075266Y-115973352D01*
X189123911Y-115900550D01*
X189157418Y-115819656D01*
X189174500Y-115733779D01*
X189174500Y-115720145D01*
X189240344Y-115747418D01*
X189326221Y-115764500D01*
X189413779Y-115764500D01*
X189499656Y-115747418D01*
X189558087Y-115723215D01*
X189555500Y-115736221D01*
X189555500Y-115823779D01*
X189572582Y-115909656D01*
X189606089Y-115990550D01*
X189654734Y-116063352D01*
X189716648Y-116125266D01*
X189789450Y-116173911D01*
X189870344Y-116207418D01*
X189956221Y-116224500D01*
X190043779Y-116224500D01*
X190129656Y-116207418D01*
X190210550Y-116173911D01*
X190283352Y-116125266D01*
X190345266Y-116063352D01*
X190393911Y-115990550D01*
X190427418Y-115909656D01*
X190444500Y-115823779D01*
X190444500Y-115736221D01*
X190427418Y-115650344D01*
X190393911Y-115569450D01*
X190345266Y-115496648D01*
X190283352Y-115434734D01*
X190266700Y-115423607D01*
X190266700Y-114393099D01*
X190267990Y-114380000D01*
X190262841Y-114327717D01*
X190247590Y-114277445D01*
X190222825Y-114231112D01*
X190197847Y-114200676D01*
X190189498Y-114190502D01*
X190179322Y-114182151D01*
X187936700Y-111939530D01*
X187936700Y-111216221D01*
X190825500Y-111216221D01*
X190825500Y-111303779D01*
X190842582Y-111389656D01*
X190876089Y-111470550D01*
X190924734Y-111543352D01*
X190986648Y-111605266D01*
X191059450Y-111653911D01*
X191140344Y-111687418D01*
X191226221Y-111704500D01*
X191313779Y-111704500D01*
X191399656Y-111687418D01*
X191480550Y-111653911D01*
X191553352Y-111605266D01*
X191615266Y-111543352D01*
X191663911Y-111470550D01*
X191697418Y-111389656D01*
X191714500Y-111303779D01*
X191714500Y-111216221D01*
X191710593Y-111196577D01*
X193479322Y-109427849D01*
X193489498Y-109419498D01*
X193522826Y-109378887D01*
X193547590Y-109332555D01*
X193557804Y-109298887D01*
X193562841Y-109282283D01*
X193567990Y-109230000D01*
X193566700Y-109216901D01*
X193566700Y-103396393D01*
X193583352Y-103385266D01*
X193603300Y-103365318D01*
X193603301Y-109809528D01*
X192603422Y-110809407D01*
X192583779Y-110805500D01*
X192496221Y-110805500D01*
X192410344Y-110822582D01*
X192329450Y-110856089D01*
X192256648Y-110904734D01*
X192194734Y-110966648D01*
X192146089Y-111039450D01*
X192112582Y-111120344D01*
X192095500Y-111206221D01*
X192095500Y-111293779D01*
X192112582Y-111379656D01*
X192146089Y-111460550D01*
X192194734Y-111533352D01*
X192256648Y-111595266D01*
X192329450Y-111643911D01*
X192410344Y-111677418D01*
X192496221Y-111694500D01*
X192583779Y-111694500D01*
X192669656Y-111677418D01*
X192750550Y-111643911D01*
X192823352Y-111595266D01*
X192885266Y-111533352D01*
X192933911Y-111460550D01*
X192967418Y-111379656D01*
X192984500Y-111293779D01*
X192984500Y-111206221D01*
X192980593Y-111186578D01*
X194049321Y-110117850D01*
X194059498Y-110109498D01*
X194092826Y-110068887D01*
X194117590Y-110022555D01*
X194132841Y-109972282D01*
X194136700Y-109933098D01*
X194136700Y-109933097D01*
X194137990Y-109920001D01*
X194136700Y-109906905D01*
X194136700Y-102613096D01*
X194137990Y-102600000D01*
X194135648Y-102576221D01*
X194132841Y-102547718D01*
X194122466Y-102513519D01*
X194146089Y-102570550D01*
X194194734Y-102643352D01*
X194256648Y-102705266D01*
X194329450Y-102753911D01*
X194410344Y-102787418D01*
X194496221Y-102804500D01*
X194583779Y-102804500D01*
X194669656Y-102787418D01*
X194750550Y-102753911D01*
X194823352Y-102705266D01*
X194885266Y-102643352D01*
X194933911Y-102570550D01*
X194967418Y-102489656D01*
X194984500Y-102403779D01*
X194984500Y-102316221D01*
X194967418Y-102230344D01*
X194933911Y-102149450D01*
X194885266Y-102076648D01*
X194823352Y-102014734D01*
X194750550Y-101966089D01*
X194669656Y-101932582D01*
X194583779Y-101915500D01*
X194496221Y-101915500D01*
X194410344Y-101932582D01*
X194329450Y-101966089D01*
X194256648Y-102014734D01*
X194194734Y-102076648D01*
X194146089Y-102149450D01*
X194112582Y-102230344D01*
X194095500Y-102316221D01*
X194095500Y-102403779D01*
X194112081Y-102487138D01*
X194092826Y-102451113D01*
X194059498Y-102410502D01*
X194049321Y-102402150D01*
X194020593Y-102373422D01*
X194024500Y-102353779D01*
X194024500Y-102266221D01*
X194007418Y-102180344D01*
X193973911Y-102099450D01*
X193925266Y-102026648D01*
X193863352Y-101964734D01*
X193790550Y-101916089D01*
X193709656Y-101882582D01*
X193623779Y-101865500D01*
X193536221Y-101865500D01*
X193450344Y-101882582D01*
X193369450Y-101916089D01*
X193296648Y-101964734D01*
X193234734Y-102026648D01*
X193186089Y-102099450D01*
X193152582Y-102180344D01*
X193135500Y-102266221D01*
X193135500Y-102353779D01*
X193152582Y-102439656D01*
X193186089Y-102520550D01*
X193234734Y-102593352D01*
X193240091Y-102598709D01*
X193170344Y-102612582D01*
X193089450Y-102646089D01*
X193016648Y-102694734D01*
X192954734Y-102756648D01*
X192906089Y-102829450D01*
X192872582Y-102910344D01*
X192855500Y-102996221D01*
X192855500Y-103083779D01*
X192872582Y-103169656D01*
X192906089Y-103250550D01*
X192954734Y-103323352D01*
X193016648Y-103385266D01*
X193033300Y-103396393D01*
X193033300Y-105574682D01*
X193023352Y-105564734D01*
X192950550Y-105516089D01*
X192869656Y-105482582D01*
X192783779Y-105465500D01*
X192696221Y-105465500D01*
X192610344Y-105482582D01*
X192529450Y-105516089D01*
X192456648Y-105564734D01*
X192394734Y-105626648D01*
X192346089Y-105699450D01*
X192312582Y-105780344D01*
X192295500Y-105866221D01*
X192295500Y-105953779D01*
X192312582Y-106039656D01*
X192346089Y-106120550D01*
X192394734Y-106193352D01*
X192456648Y-106255266D01*
X192529450Y-106303911D01*
X192610344Y-106337418D01*
X192696221Y-106354500D01*
X192783779Y-106354500D01*
X192869656Y-106337418D01*
X192950550Y-106303911D01*
X193023352Y-106255266D01*
X193033301Y-106245317D01*
X193033301Y-109119528D01*
X191333423Y-110819407D01*
X191313779Y-110815500D01*
X191226221Y-110815500D01*
X191140344Y-110832582D01*
X191059450Y-110866089D01*
X190986648Y-110914734D01*
X190924734Y-110976648D01*
X190876089Y-111049450D01*
X190842582Y-111130344D01*
X190825500Y-111216221D01*
X187936700Y-111216221D01*
X187936700Y-109715318D01*
X187986648Y-109765266D01*
X188059450Y-109813911D01*
X188140344Y-109847418D01*
X188226221Y-109864500D01*
X188313779Y-109864500D01*
X188399656Y-109847418D01*
X188480550Y-109813911D01*
X188553352Y-109765266D01*
X188615266Y-109703352D01*
X188663911Y-109630550D01*
X188697418Y-109549656D01*
X188714500Y-109463779D01*
X188714500Y-109376221D01*
X188710593Y-109356578D01*
X189448522Y-108618649D01*
X189458699Y-108610297D01*
X189492027Y-108569686D01*
X189516791Y-108523354D01*
X189518857Y-108516545D01*
X189532042Y-108473082D01*
X189537191Y-108420799D01*
X189535901Y-108407700D01*
X189535901Y-103102447D01*
X189546221Y-103104500D01*
X189633779Y-103104500D01*
X189671082Y-103097080D01*
X189636089Y-103149450D01*
X189602582Y-103230344D01*
X189585500Y-103316221D01*
X189585500Y-103403779D01*
X189602582Y-103489656D01*
X189636089Y-103570550D01*
X189684734Y-103643352D01*
X189746648Y-103705266D01*
X189763300Y-103716393D01*
X189763301Y-110149528D01*
X189663422Y-110249407D01*
X189643779Y-110245500D01*
X189556221Y-110245500D01*
X189470344Y-110262582D01*
X189389450Y-110296089D01*
X189316648Y-110344734D01*
X189254734Y-110406648D01*
X189206089Y-110479450D01*
X189172582Y-110560344D01*
X189155500Y-110646221D01*
X189155500Y-110733779D01*
X189172582Y-110819656D01*
X189206089Y-110900550D01*
X189254734Y-110973352D01*
X189316648Y-111035266D01*
X189389450Y-111083911D01*
X189470344Y-111117418D01*
X189556221Y-111134500D01*
X189643779Y-111134500D01*
X189729656Y-111117418D01*
X189810550Y-111083911D01*
X189883352Y-111035266D01*
X189945266Y-110973352D01*
X189993911Y-110900550D01*
X190027418Y-110819656D01*
X190044500Y-110733779D01*
X190044500Y-110646221D01*
X190040593Y-110626578D01*
X190190950Y-110476221D01*
X190315500Y-110476221D01*
X190315500Y-110563779D01*
X190332582Y-110649656D01*
X190366089Y-110730550D01*
X190414734Y-110803352D01*
X190476648Y-110865266D01*
X190549450Y-110913911D01*
X190630344Y-110947418D01*
X190716221Y-110964500D01*
X190803779Y-110964500D01*
X190889656Y-110947418D01*
X190970550Y-110913911D01*
X191043352Y-110865266D01*
X191105266Y-110803352D01*
X191153911Y-110730550D01*
X191187418Y-110649656D01*
X191204500Y-110563779D01*
X191204500Y-110476221D01*
X191187418Y-110390344D01*
X191153911Y-110309450D01*
X191105266Y-110236648D01*
X191043352Y-110174734D01*
X191026700Y-110163607D01*
X191026700Y-104790470D01*
X191406578Y-104410593D01*
X191426221Y-104414500D01*
X191513779Y-104414500D01*
X191599656Y-104397418D01*
X191680550Y-104363911D01*
X191753352Y-104315266D01*
X191815266Y-104253352D01*
X191863911Y-104180550D01*
X191897418Y-104099656D01*
X191914500Y-104013779D01*
X191914500Y-103926221D01*
X191897418Y-103840344D01*
X191863911Y-103759450D01*
X191815266Y-103686648D01*
X191753352Y-103624734D01*
X191680550Y-103576089D01*
X191599656Y-103542582D01*
X191513779Y-103525500D01*
X191426221Y-103525500D01*
X191340344Y-103542582D01*
X191259450Y-103576089D01*
X191186648Y-103624734D01*
X191124734Y-103686648D01*
X191076089Y-103759450D01*
X191042582Y-103840344D01*
X191025500Y-103926221D01*
X191025500Y-104013779D01*
X191029407Y-104033422D01*
X190580679Y-104482151D01*
X190570503Y-104490502D01*
X190562153Y-104500677D01*
X190537175Y-104531113D01*
X190512411Y-104577445D01*
X190497160Y-104627718D01*
X190492010Y-104680000D01*
X190493301Y-104693106D01*
X190493300Y-110163607D01*
X190476648Y-110174734D01*
X190414734Y-110236648D01*
X190366089Y-110309450D01*
X190332582Y-110390344D01*
X190315500Y-110476221D01*
X190190950Y-110476221D01*
X190209321Y-110457850D01*
X190219498Y-110449498D01*
X190252826Y-110408887D01*
X190274206Y-110368887D01*
X190277590Y-110362556D01*
X190282996Y-110344734D01*
X190292841Y-110312282D01*
X190296700Y-110273098D01*
X190296700Y-110273096D01*
X190297990Y-110260000D01*
X190296700Y-110246904D01*
X190296700Y-103716393D01*
X190313352Y-103705266D01*
X190375266Y-103643352D01*
X190423911Y-103570550D01*
X190457418Y-103489656D01*
X190474500Y-103403779D01*
X190474500Y-103316221D01*
X190457418Y-103230344D01*
X190423911Y-103149450D01*
X190375266Y-103076648D01*
X190313352Y-103014734D01*
X190240550Y-102966089D01*
X190159656Y-102932582D01*
X190073779Y-102915500D01*
X189986221Y-102915500D01*
X189948918Y-102922920D01*
X189983911Y-102870550D01*
X190017418Y-102789656D01*
X190034500Y-102703779D01*
X190034500Y-102616221D01*
X190026544Y-102576221D01*
X190215500Y-102576221D01*
X190215500Y-102663779D01*
X190232582Y-102749656D01*
X190266089Y-102830550D01*
X190314734Y-102903352D01*
X190376648Y-102965266D01*
X190449450Y-103013911D01*
X190530344Y-103047418D01*
X190616221Y-103064500D01*
X190703779Y-103064500D01*
X190789656Y-103047418D01*
X190870550Y-103013911D01*
X190943352Y-102965266D01*
X191005266Y-102903352D01*
X191053911Y-102830550D01*
X191087418Y-102749656D01*
X191104500Y-102663779D01*
X191104500Y-102576221D01*
X191087418Y-102490344D01*
X191053911Y-102409450D01*
X191005266Y-102336648D01*
X190943352Y-102274734D01*
X190870550Y-102226089D01*
X190789656Y-102192582D01*
X190703779Y-102175500D01*
X190616221Y-102175500D01*
X190530344Y-102192582D01*
X190449450Y-102226089D01*
X190376648Y-102274734D01*
X190314734Y-102336648D01*
X190266089Y-102409450D01*
X190232582Y-102490344D01*
X190215500Y-102576221D01*
X190026544Y-102576221D01*
X190017418Y-102530344D01*
X189983911Y-102449450D01*
X189935266Y-102376648D01*
X189873352Y-102314734D01*
X189800550Y-102266089D01*
X189719656Y-102232582D01*
X189633779Y-102215500D01*
X189546221Y-102215500D01*
X189460344Y-102232582D01*
X189379450Y-102266089D01*
X189306648Y-102314734D01*
X189244734Y-102376648D01*
X189196089Y-102449450D01*
X189162582Y-102530344D01*
X189145500Y-102616221D01*
X189145500Y-102703779D01*
X189149407Y-102723423D01*
X189089880Y-102782950D01*
X189079704Y-102791301D01*
X189071354Y-102801476D01*
X189046376Y-102831912D01*
X189021612Y-102878244D01*
X189006361Y-102928517D01*
X189001211Y-102980799D01*
X189002502Y-102993905D01*
X189002502Y-105650757D01*
X188980550Y-105636089D01*
X188899656Y-105602582D01*
X188813779Y-105585500D01*
X188726221Y-105585500D01*
X188640344Y-105602582D01*
X188559450Y-105636089D01*
X188486648Y-105684734D01*
X188424734Y-105746648D01*
X188380509Y-105812835D01*
X188310550Y-105766089D01*
X188229656Y-105732582D01*
X188175384Y-105721787D01*
X188689321Y-105207850D01*
X188699498Y-105199498D01*
X188732826Y-105158887D01*
X188744353Y-105137320D01*
X188757590Y-105112556D01*
X188766604Y-105082840D01*
X188772841Y-105062282D01*
X188776700Y-105023098D01*
X188776700Y-105023096D01*
X188777990Y-105010000D01*
X188776700Y-104996904D01*
X188776700Y-103593096D01*
X188777990Y-103580000D01*
X188775145Y-103551113D01*
X188772841Y-103527718D01*
X188757590Y-103477445D01*
X188732826Y-103431113D01*
X188699498Y-103390502D01*
X188689321Y-103382150D01*
X188347854Y-103040684D01*
X188339498Y-103030502D01*
X188298887Y-102997174D01*
X188252555Y-102972410D01*
X188202282Y-102957159D01*
X188163098Y-102953300D01*
X188163096Y-102953300D01*
X188150000Y-102952010D01*
X188136904Y-102953300D01*
X188096393Y-102953300D01*
X188085266Y-102936648D01*
X188023352Y-102874734D01*
X187950550Y-102826089D01*
X187869656Y-102792582D01*
X187783779Y-102775500D01*
X187696221Y-102775500D01*
X187610344Y-102792582D01*
X187529450Y-102826089D01*
X187456648Y-102874734D01*
X187394734Y-102936648D01*
X187346089Y-103009450D01*
X187312582Y-103090344D01*
X187295500Y-103176221D01*
X187295500Y-103263779D01*
X187312582Y-103349656D01*
X187346089Y-103430550D01*
X187394734Y-103503352D01*
X187456648Y-103565266D01*
X187529450Y-103613911D01*
X187610344Y-103647418D01*
X187696221Y-103664500D01*
X187783779Y-103664500D01*
X187869656Y-103647418D01*
X187950550Y-103613911D01*
X188023352Y-103565266D01*
X188070724Y-103517894D01*
X188243300Y-103690471D01*
X188243301Y-104899528D01*
X187185868Y-105956962D01*
X187175692Y-105965313D01*
X187142364Y-106005924D01*
X187117600Y-106052256D01*
X187102349Y-106102529D01*
X187098490Y-106141712D01*
X187097200Y-106154810D01*
X186234500Y-106154810D01*
X186234500Y-106086221D01*
X186217418Y-106000344D01*
X186183911Y-105919450D01*
X186135266Y-105846648D01*
X186073352Y-105784734D01*
X186000550Y-105736089D01*
X185919656Y-105702582D01*
X185833779Y-105685500D01*
X185746221Y-105685500D01*
X185660344Y-105702582D01*
X185579450Y-105736089D01*
X185506648Y-105784734D01*
X185444734Y-105846648D01*
X185396089Y-105919450D01*
X185362582Y-106000344D01*
X185345500Y-106086221D01*
X185216700Y-106086221D01*
X185216700Y-103810470D01*
X185530470Y-103496700D01*
X185683607Y-103496700D01*
X185694734Y-103513352D01*
X185756648Y-103575266D01*
X185829450Y-103623911D01*
X185910344Y-103657418D01*
X185996221Y-103674500D01*
X186083779Y-103674500D01*
X186169656Y-103657418D01*
X186250550Y-103623911D01*
X186323352Y-103575266D01*
X186385266Y-103513352D01*
X186433911Y-103440550D01*
X186467418Y-103359656D01*
X186484500Y-103273779D01*
X186484500Y-103186221D01*
X186467418Y-103100344D01*
X186433911Y-103019450D01*
X186385266Y-102946648D01*
X186376637Y-102938019D01*
X186379656Y-102937418D01*
X186460550Y-102903911D01*
X186533352Y-102855266D01*
X186595266Y-102793352D01*
X186643911Y-102720550D01*
X186677418Y-102639656D01*
X186694500Y-102553779D01*
X186694500Y-102496221D01*
X187985500Y-102496221D01*
X187985500Y-102583779D01*
X188002582Y-102669656D01*
X188036089Y-102750550D01*
X188084734Y-102823352D01*
X188146648Y-102885266D01*
X188219450Y-102933911D01*
X188300344Y-102967418D01*
X188386221Y-102984500D01*
X188473779Y-102984500D01*
X188559656Y-102967418D01*
X188640550Y-102933911D01*
X188713352Y-102885266D01*
X188775266Y-102823352D01*
X188823911Y-102750550D01*
X188857418Y-102669656D01*
X188874500Y-102583779D01*
X188874500Y-102496221D01*
X188857418Y-102410344D01*
X188823911Y-102329450D01*
X188775266Y-102256648D01*
X188713352Y-102194734D01*
X188640550Y-102146089D01*
X188559656Y-102112582D01*
X188473779Y-102095500D01*
X188386221Y-102095500D01*
X188300344Y-102112582D01*
X188219450Y-102146089D01*
X188146648Y-102194734D01*
X188084734Y-102256648D01*
X188036089Y-102329450D01*
X188002582Y-102410344D01*
X187985500Y-102496221D01*
X186694500Y-102496221D01*
X186694500Y-102466221D01*
X186677418Y-102380344D01*
X186643911Y-102299450D01*
X186595266Y-102226648D01*
X186533352Y-102164734D01*
X186460550Y-102116089D01*
X186379656Y-102082582D01*
X186293779Y-102065500D01*
X186206221Y-102065500D01*
X186138125Y-102079045D01*
X186760949Y-101456221D01*
X193555500Y-101456221D01*
X193555500Y-101543779D01*
X193572582Y-101629656D01*
X193606089Y-101710550D01*
X193654734Y-101783352D01*
X193716648Y-101845266D01*
X193789450Y-101893911D01*
X193870344Y-101927418D01*
X193956221Y-101944500D01*
X194043779Y-101944500D01*
X194129656Y-101927418D01*
X194210550Y-101893911D01*
X194283352Y-101845266D01*
X194345266Y-101783352D01*
X194393911Y-101710550D01*
X194427418Y-101629656D01*
X194444500Y-101543779D01*
X194444500Y-101456221D01*
X194427418Y-101370344D01*
X194393911Y-101289450D01*
X194345266Y-101216648D01*
X194283352Y-101154734D01*
X194210550Y-101106089D01*
X194129656Y-101072582D01*
X194043779Y-101055500D01*
X193956221Y-101055500D01*
X193870344Y-101072582D01*
X193789450Y-101106089D01*
X193716648Y-101154734D01*
X193654734Y-101216648D01*
X193606089Y-101289450D01*
X193572582Y-101370344D01*
X193555500Y-101456221D01*
X186760949Y-101456221D01*
X188940949Y-99276221D01*
X193125500Y-99276221D01*
X193125500Y-99363779D01*
X193142582Y-99449656D01*
X193176089Y-99530550D01*
X193224734Y-99603352D01*
X193286648Y-99665266D01*
X193359450Y-99713911D01*
X193440344Y-99747418D01*
X193526221Y-99764500D01*
X193613779Y-99764500D01*
X193699656Y-99747418D01*
X193780550Y-99713911D01*
X193853352Y-99665266D01*
X193915266Y-99603352D01*
X193926393Y-99586700D01*
X194368464Y-99586700D01*
X195843300Y-101061537D01*
X195843300Y-103354682D01*
X195793352Y-103304734D01*
X195720550Y-103256089D01*
X195639656Y-103222582D01*
X195553779Y-103205500D01*
X195466221Y-103205500D01*
X195380344Y-103222582D01*
X195299450Y-103256089D01*
X195226648Y-103304734D01*
X195164734Y-103366648D01*
X195116089Y-103439450D01*
X195082582Y-103520344D01*
X195065500Y-103606221D01*
X195065500Y-103693779D01*
X195082582Y-103779656D01*
X195116089Y-103860550D01*
X195164734Y-103933352D01*
X195226648Y-103995266D01*
X195299450Y-104043911D01*
X195380344Y-104077418D01*
X195466221Y-104094500D01*
X195553779Y-104094500D01*
X195639656Y-104077418D01*
X195720550Y-104043911D01*
X195793352Y-103995266D01*
X195843300Y-103945318D01*
X195843301Y-111686894D01*
X195842010Y-111700000D01*
X195847160Y-111752282D01*
X195862411Y-111802555D01*
X195887175Y-111848887D01*
X195920503Y-111889498D01*
X195930679Y-111897849D01*
X200743300Y-116710471D01*
X200743301Y-117388018D01*
X200680550Y-117346089D01*
X200599656Y-117312582D01*
X200513779Y-117295500D01*
X200426221Y-117295500D01*
X200340344Y-117312582D01*
X200259450Y-117346089D01*
X200186648Y-117394734D01*
X200124734Y-117456648D01*
X200076089Y-117529450D01*
X200042582Y-117610344D01*
X200025500Y-117696221D01*
X200025500Y-117783779D01*
X200042582Y-117869656D01*
X200076089Y-117950550D01*
X200124734Y-118023352D01*
X200186648Y-118085266D01*
X200259450Y-118133911D01*
X200340344Y-118167418D01*
X200426221Y-118184500D01*
X200506882Y-118184500D01*
X200474734Y-118216648D01*
X200426089Y-118289450D01*
X200392582Y-118370344D01*
X200375500Y-118456221D01*
X200375500Y-118543779D01*
X200392582Y-118629656D01*
X200426089Y-118710550D01*
X200474734Y-118783352D01*
X200536648Y-118845266D01*
X200609450Y-118893911D01*
X200690344Y-118927418D01*
X200776221Y-118944500D01*
X200863779Y-118944500D01*
X200949656Y-118927418D01*
X201030550Y-118893911D01*
X201103352Y-118845266D01*
X201165266Y-118783352D01*
X201213911Y-118710550D01*
X201225047Y-118683665D01*
X201226648Y-118685266D01*
X201299450Y-118733911D01*
X201380344Y-118767418D01*
X201466221Y-118784500D01*
X201553779Y-118784500D01*
X201639656Y-118767418D01*
X201720550Y-118733911D01*
X201793352Y-118685266D01*
X201855266Y-118623352D01*
X201903911Y-118550550D01*
X201937418Y-118469656D01*
X201954500Y-118383779D01*
X201954500Y-118296221D01*
X201937418Y-118210344D01*
X201903911Y-118129450D01*
X201855266Y-118056648D01*
X201793352Y-117994734D01*
X201788655Y-117991595D01*
X201809656Y-117987418D01*
X201890550Y-117953911D01*
X201963352Y-117905266D01*
X202025266Y-117843352D01*
X202073911Y-117770550D01*
X202107418Y-117689656D01*
X202124500Y-117603779D01*
X202124500Y-117516221D01*
X202107418Y-117430344D01*
X202073911Y-117349450D01*
X202025266Y-117276648D01*
X201963352Y-117214734D01*
X201946700Y-117203607D01*
X201946700Y-116852029D01*
X201947990Y-116838933D01*
X201943943Y-116797846D01*
X201942841Y-116786652D01*
X201927590Y-116736379D01*
X201902826Y-116690047D01*
X201869498Y-116649436D01*
X201859316Y-116641080D01*
X196681510Y-111463274D01*
X196681510Y-107892595D01*
X200659500Y-107892595D01*
X200659500Y-108107405D01*
X200701408Y-108318087D01*
X200783612Y-108516545D01*
X200902954Y-108695153D01*
X201054847Y-108847046D01*
X201233455Y-108966388D01*
X201431913Y-109048592D01*
X201642595Y-109090500D01*
X201857405Y-109090500D01*
X202068087Y-109048592D01*
X202266545Y-108966388D01*
X202445153Y-108847046D01*
X202597046Y-108695153D01*
X202716388Y-108516545D01*
X202798592Y-108318087D01*
X202840500Y-108107405D01*
X202840500Y-107892595D01*
X202798592Y-107681913D01*
X202716388Y-107483455D01*
X202597046Y-107304847D01*
X202445153Y-107152954D01*
X202266545Y-107033612D01*
X202068087Y-106951408D01*
X201857405Y-106909500D01*
X201642595Y-106909500D01*
X201431913Y-106951408D01*
X201233455Y-107033612D01*
X201054847Y-107152954D01*
X200902954Y-107304847D01*
X200783612Y-107483455D01*
X200701408Y-107681913D01*
X200659500Y-107892595D01*
X196681510Y-107892595D01*
X196681510Y-105853712D01*
X197718500Y-105853712D01*
X197718500Y-105966288D01*
X197740463Y-106076700D01*
X197783543Y-106180707D01*
X197846087Y-106274310D01*
X197925690Y-106353913D01*
X198019293Y-106416457D01*
X198123300Y-106459537D01*
X198233712Y-106481500D01*
X198346288Y-106481500D01*
X198456700Y-106459537D01*
X198560707Y-106416457D01*
X198654310Y-106353913D01*
X198733913Y-106274310D01*
X198796457Y-106180707D01*
X198839537Y-106076700D01*
X198861500Y-105966288D01*
X198861500Y-105853712D01*
X198839537Y-105743300D01*
X198796457Y-105639293D01*
X198733913Y-105545690D01*
X198654310Y-105466087D01*
X198560707Y-105403543D01*
X198456700Y-105360463D01*
X198346288Y-105338500D01*
X198233712Y-105338500D01*
X198123300Y-105360463D01*
X198019293Y-105403543D01*
X197925690Y-105466087D01*
X197846087Y-105545690D01*
X197783543Y-105639293D01*
X197740463Y-105743300D01*
X197718500Y-105853712D01*
X196681510Y-105853712D01*
X196681510Y-104336221D01*
X200125500Y-104336221D01*
X200125500Y-104423779D01*
X200142582Y-104509656D01*
X200176089Y-104590550D01*
X200224734Y-104663352D01*
X200286648Y-104725266D01*
X200359450Y-104773911D01*
X200440344Y-104807418D01*
X200526221Y-104824500D01*
X200613779Y-104824500D01*
X200699656Y-104807418D01*
X200780550Y-104773911D01*
X200853352Y-104725266D01*
X200915266Y-104663352D01*
X200963911Y-104590550D01*
X200997418Y-104509656D01*
X201014500Y-104423779D01*
X201014500Y-104336221D01*
X200997418Y-104250344D01*
X200963911Y-104169450D01*
X200915266Y-104096648D01*
X200853352Y-104034734D01*
X200780550Y-103986089D01*
X200699656Y-103952582D01*
X200613779Y-103935500D01*
X200526221Y-103935500D01*
X200440344Y-103952582D01*
X200359450Y-103986089D01*
X200286648Y-104034734D01*
X200224734Y-104096648D01*
X200176089Y-104169450D01*
X200142582Y-104250344D01*
X200125500Y-104336221D01*
X196681510Y-104336221D01*
X196681510Y-100837909D01*
X196682800Y-100824810D01*
X196677651Y-100772527D01*
X196662400Y-100722255D01*
X196654397Y-100707282D01*
X196637636Y-100675923D01*
X196604308Y-100635312D01*
X196594132Y-100626961D01*
X194307854Y-98340684D01*
X194299498Y-98330502D01*
X194258887Y-98297174D01*
X194212555Y-98272410D01*
X194162282Y-98257159D01*
X194123098Y-98253300D01*
X194123096Y-98253300D01*
X194110000Y-98252010D01*
X194096904Y-98253300D01*
X194006393Y-98253300D01*
X193995266Y-98236648D01*
X193933352Y-98174734D01*
X193860550Y-98126089D01*
X193779656Y-98092582D01*
X193693779Y-98075500D01*
X193606221Y-98075500D01*
X193520344Y-98092582D01*
X193439450Y-98126089D01*
X193366648Y-98174734D01*
X193304734Y-98236648D01*
X193256089Y-98309450D01*
X193222582Y-98390344D01*
X193205500Y-98476221D01*
X193205500Y-98563779D01*
X193222582Y-98649656D01*
X193256089Y-98730550D01*
X193304734Y-98803352D01*
X193366648Y-98865266D01*
X193420087Y-98900973D01*
X193359450Y-98926089D01*
X193286648Y-98974734D01*
X193224734Y-99036648D01*
X193176089Y-99109450D01*
X193142582Y-99190344D01*
X193125500Y-99276221D01*
X188940949Y-99276221D01*
X189830470Y-98386700D01*
X190233607Y-98386700D01*
X190244734Y-98403352D01*
X190306648Y-98465266D01*
X190379450Y-98513911D01*
X190460344Y-98547418D01*
X190546221Y-98564500D01*
X190633779Y-98564500D01*
X190719656Y-98547418D01*
X190800550Y-98513911D01*
X190873352Y-98465266D01*
X190935266Y-98403352D01*
X190983911Y-98330550D01*
X191017418Y-98249656D01*
X191034500Y-98163779D01*
X191034500Y-98076221D01*
X191017418Y-97990344D01*
X190983911Y-97909450D01*
X190935266Y-97836648D01*
X190873352Y-97774734D01*
X190800550Y-97726089D01*
X190719656Y-97692582D01*
X190633779Y-97675500D01*
X190546221Y-97675500D01*
X190460344Y-97692582D01*
X190379450Y-97726089D01*
X190306648Y-97774734D01*
X190244734Y-97836648D01*
X190233607Y-97853300D01*
X189733095Y-97853300D01*
X189719999Y-97852010D01*
X189706903Y-97853300D01*
X189706902Y-97853300D01*
X189667718Y-97857159D01*
X189617445Y-97872410D01*
X189571113Y-97897174D01*
X189530502Y-97930502D01*
X189522146Y-97940684D01*
X185866700Y-101596130D01*
X185866700Y-101416393D01*
X185883352Y-101405266D01*
X185945266Y-101343352D01*
X185993911Y-101270550D01*
X186027418Y-101189656D01*
X186044500Y-101103779D01*
X186044500Y-101016221D01*
X186027418Y-100930344D01*
X185993911Y-100849450D01*
X185945266Y-100776648D01*
X185883352Y-100714734D01*
X185810550Y-100666089D01*
X185729656Y-100632582D01*
X185643779Y-100615500D01*
X185556221Y-100615500D01*
X185470344Y-100632582D01*
X185389450Y-100666089D01*
X185316648Y-100714734D01*
X185274500Y-100756882D01*
X185274500Y-100676221D01*
X185257418Y-100590344D01*
X185223911Y-100509450D01*
X185175266Y-100436648D01*
X185113352Y-100374734D01*
X185040550Y-100326089D01*
X184959656Y-100292582D01*
X184873779Y-100275500D01*
X184786221Y-100275500D01*
X184700344Y-100292582D01*
X184619450Y-100326089D01*
X184546648Y-100374734D01*
X184484734Y-100436648D01*
X184436089Y-100509450D01*
X184402582Y-100590344D01*
X184385500Y-100676221D01*
X184385500Y-100763779D01*
X184402582Y-100849656D01*
X184436089Y-100930550D01*
X184484734Y-101003352D01*
X184546648Y-101065266D01*
X184563300Y-101076393D01*
X184563301Y-102028462D01*
X181771889Y-104819875D01*
X181771889Y-102526221D01*
X181915500Y-102526221D01*
X181915500Y-102613779D01*
X181932582Y-102699656D01*
X181966089Y-102780550D01*
X182014734Y-102853352D01*
X182076648Y-102915266D01*
X182149450Y-102963911D01*
X182230344Y-102997418D01*
X182316221Y-103014500D01*
X182403779Y-103014500D01*
X182489656Y-102997418D01*
X182570550Y-102963911D01*
X182643352Y-102915266D01*
X182705266Y-102853352D01*
X182753911Y-102780550D01*
X182787418Y-102699656D01*
X182804500Y-102613779D01*
X182804500Y-102526221D01*
X182787418Y-102440344D01*
X182753911Y-102359450D01*
X182705266Y-102286648D01*
X182643352Y-102224734D01*
X182570550Y-102176089D01*
X182489656Y-102142582D01*
X182403779Y-102125500D01*
X182316221Y-102125500D01*
X182230344Y-102142582D01*
X182149450Y-102176089D01*
X182076648Y-102224734D01*
X182014734Y-102286648D01*
X181966089Y-102359450D01*
X181932582Y-102440344D01*
X181915500Y-102526221D01*
X181771889Y-102526221D01*
X181771889Y-101896221D01*
X183525500Y-101896221D01*
X183525500Y-101983779D01*
X183542582Y-102069656D01*
X183576089Y-102150550D01*
X183624734Y-102223352D01*
X183686648Y-102285266D01*
X183759450Y-102333911D01*
X183840344Y-102367418D01*
X183926221Y-102384500D01*
X184013779Y-102384500D01*
X184099656Y-102367418D01*
X184180550Y-102333911D01*
X184253352Y-102285266D01*
X184315266Y-102223352D01*
X184363911Y-102150550D01*
X184397418Y-102069656D01*
X184414500Y-101983779D01*
X184414500Y-101896221D01*
X184397418Y-101810344D01*
X184363911Y-101729450D01*
X184315266Y-101656648D01*
X184253352Y-101594734D01*
X184180550Y-101546089D01*
X184099656Y-101512582D01*
X184013779Y-101495500D01*
X183926221Y-101495500D01*
X183840344Y-101512582D01*
X183759450Y-101546089D01*
X183686648Y-101594734D01*
X183624734Y-101656648D01*
X183576089Y-101729450D01*
X183542582Y-101810344D01*
X183525500Y-101896221D01*
X181771889Y-101896221D01*
X181771889Y-100739230D01*
X181814734Y-100803352D01*
X181876648Y-100865266D01*
X181949450Y-100913911D01*
X182030344Y-100947418D01*
X182116221Y-100964500D01*
X182203779Y-100964500D01*
X182289656Y-100947418D01*
X182370550Y-100913911D01*
X182443352Y-100865266D01*
X182505266Y-100803352D01*
X182553911Y-100730550D01*
X182587418Y-100649656D01*
X182604500Y-100563779D01*
X182604500Y-100476221D01*
X182587418Y-100390344D01*
X182553911Y-100309450D01*
X182505266Y-100236648D01*
X182459693Y-100191075D01*
X182483352Y-100175266D01*
X182545266Y-100113352D01*
X182593911Y-100040550D01*
X182627418Y-99959656D01*
X182644500Y-99873779D01*
X182644500Y-99786221D01*
X182627418Y-99700344D01*
X182593911Y-99619450D01*
X182545266Y-99546648D01*
X182483352Y-99484734D01*
X182410550Y-99436089D01*
X182329656Y-99402582D01*
X182243779Y-99385500D01*
X182156221Y-99385500D01*
X182070344Y-99402582D01*
X181989450Y-99436089D01*
X181916648Y-99484734D01*
X181854734Y-99546648D01*
X181806089Y-99619450D01*
X181772582Y-99700344D01*
X181771889Y-99703828D01*
X181771889Y-97495281D01*
X182180470Y-97086700D01*
X182625500Y-97086700D01*
X182625500Y-97153779D01*
X182642582Y-97239656D01*
X182676089Y-97320550D01*
X182724734Y-97393352D01*
X182786648Y-97455266D01*
X182859450Y-97503911D01*
X182940344Y-97537418D01*
X183026221Y-97554500D01*
X183113779Y-97554500D01*
X183199656Y-97537418D01*
X183280550Y-97503911D01*
X183353352Y-97455266D01*
X183415266Y-97393352D01*
X183463911Y-97320550D01*
X183497418Y-97239656D01*
X183514500Y-97153779D01*
X183514500Y-97066221D01*
X183497418Y-96980344D01*
X183463911Y-96899450D01*
X183415266Y-96826648D01*
X183353352Y-96764734D01*
X183280550Y-96716089D01*
X183199656Y-96682582D01*
X183113779Y-96665500D01*
X183026221Y-96665500D01*
X183006577Y-96669407D01*
X182977854Y-96640684D01*
X182969498Y-96630502D01*
X182928887Y-96597174D01*
X182882555Y-96572410D01*
X182832282Y-96557159D01*
X182793098Y-96553300D01*
X182793096Y-96553300D01*
X182780000Y-96552010D01*
X182766904Y-96553300D01*
X182083095Y-96553300D01*
X182069999Y-96552010D01*
X182056903Y-96553300D01*
X182056902Y-96553300D01*
X182017718Y-96557159D01*
X181967445Y-96572410D01*
X181921113Y-96597174D01*
X181880502Y-96630502D01*
X181872146Y-96640684D01*
X181325873Y-97186957D01*
X181315691Y-97195313D01*
X181282363Y-97235924D01*
X181257599Y-97282257D01*
X181242348Y-97332530D01*
X181239880Y-97357589D01*
X181237199Y-97384811D01*
X181238489Y-97397907D01*
X181238489Y-100381318D01*
X179506700Y-98649530D01*
X179506700Y-98000470D01*
X179696578Y-97810593D01*
X179716221Y-97814500D01*
X179803779Y-97814500D01*
X179889656Y-97797418D01*
X179970550Y-97763911D01*
X180043352Y-97715266D01*
X180105266Y-97653352D01*
X180153911Y-97580550D01*
X180187418Y-97499656D01*
X180204500Y-97413779D01*
X180204500Y-97326221D01*
X180187418Y-97240344D01*
X180153911Y-97159450D01*
X180105266Y-97086648D01*
X180043352Y-97024734D01*
X179970550Y-96976089D01*
X179889656Y-96942582D01*
X179803779Y-96925500D01*
X179716221Y-96925500D01*
X179630344Y-96942582D01*
X179549450Y-96976089D01*
X179476648Y-97024734D01*
X179414734Y-97086648D01*
X179366089Y-97159450D01*
X179332582Y-97240344D01*
X179315500Y-97326221D01*
X179315500Y-97413779D01*
X179319407Y-97433422D01*
X179060684Y-97692146D01*
X179050502Y-97700502D01*
X179017174Y-97741113D01*
X178992410Y-97787446D01*
X178977159Y-97837719D01*
X178973300Y-97876902D01*
X178972010Y-97890000D01*
X178973300Y-97903096D01*
X178973301Y-98746894D01*
X178972010Y-98760000D01*
X178977160Y-98812282D01*
X178992411Y-98862555D01*
X179017175Y-98908887D01*
X179050503Y-98949498D01*
X179060679Y-98957849D01*
X180933679Y-100830850D01*
X180933680Y-107269150D01*
X178845870Y-109356960D01*
X178835694Y-109365311D01*
X178827344Y-109375486D01*
X178802366Y-109405922D01*
X178777602Y-109452254D01*
X178762351Y-109502527D01*
X178757201Y-109554809D01*
X178758492Y-109567915D01*
X178758490Y-124454334D01*
X178728704Y-124441996D01*
X178590471Y-124414500D01*
X178449529Y-124414500D01*
X178311296Y-124441996D01*
X178181084Y-124495932D01*
X178063895Y-124574235D01*
X177964235Y-124673895D01*
X177885932Y-124791084D01*
X177831996Y-124921296D01*
X177804500Y-125059529D01*
X177364292Y-125059529D01*
X176215500Y-123910738D01*
X176215500Y-120806916D01*
X177209500Y-120806916D01*
X177209500Y-120933084D01*
X177234114Y-121056827D01*
X177282396Y-121173390D01*
X177352491Y-121278295D01*
X177441705Y-121367509D01*
X177546610Y-121437604D01*
X177663173Y-121485886D01*
X177786916Y-121510500D01*
X177913084Y-121510500D01*
X178036827Y-121485886D01*
X178153390Y-121437604D01*
X178258295Y-121367509D01*
X178347509Y-121278295D01*
X178417604Y-121173390D01*
X178465886Y-121056827D01*
X178490500Y-120933084D01*
X178490500Y-120806916D01*
X178465886Y-120683173D01*
X178417604Y-120566610D01*
X178347509Y-120461705D01*
X178258295Y-120372491D01*
X178153390Y-120302396D01*
X178036827Y-120254114D01*
X177913084Y-120229500D01*
X177786916Y-120229500D01*
X177663173Y-120254114D01*
X177546610Y-120302396D01*
X177441705Y-120372491D01*
X177352491Y-120461705D01*
X177282396Y-120566610D01*
X177234114Y-120683173D01*
X177209500Y-120806916D01*
X176215500Y-120806916D01*
X176215500Y-117806916D01*
X177209500Y-117806916D01*
X177209500Y-117933084D01*
X177234114Y-118056827D01*
X177282396Y-118173390D01*
X177352491Y-118278295D01*
X177441705Y-118367509D01*
X177546610Y-118437604D01*
X177663173Y-118485886D01*
X177786916Y-118510500D01*
X177913084Y-118510500D01*
X178036827Y-118485886D01*
X178153390Y-118437604D01*
X178258295Y-118367509D01*
X178347509Y-118278295D01*
X178417604Y-118173390D01*
X178465886Y-118056827D01*
X178490500Y-117933084D01*
X178490500Y-117806916D01*
X178465886Y-117683173D01*
X178417604Y-117566610D01*
X178347509Y-117461705D01*
X178258295Y-117372491D01*
X178153390Y-117302396D01*
X178036827Y-117254114D01*
X177913084Y-117229500D01*
X177786916Y-117229500D01*
X177663173Y-117254114D01*
X177546610Y-117302396D01*
X177441705Y-117372491D01*
X177352491Y-117461705D01*
X177282396Y-117566610D01*
X177234114Y-117683173D01*
X177209500Y-117806916D01*
X176215500Y-117806916D01*
X176215500Y-107892595D01*
X177159500Y-107892595D01*
X177159500Y-108107405D01*
X177201408Y-108318087D01*
X177283612Y-108516545D01*
X177402954Y-108695153D01*
X177554847Y-108847046D01*
X177733455Y-108966388D01*
X177931913Y-109048592D01*
X178142595Y-109090500D01*
X178357405Y-109090500D01*
X178568087Y-109048592D01*
X178766545Y-108966388D01*
X178945153Y-108847046D01*
X179097046Y-108695153D01*
X179216388Y-108516545D01*
X179298592Y-108318087D01*
X179340500Y-108107405D01*
X179340500Y-107892595D01*
X179298592Y-107681913D01*
X179216388Y-107483455D01*
X179097046Y-107304847D01*
X178945153Y-107152954D01*
X178766545Y-107033612D01*
X178568087Y-106951408D01*
X178357405Y-106909500D01*
X178142595Y-106909500D01*
X177931913Y-106951408D01*
X177733455Y-107033612D01*
X177554847Y-107152954D01*
X177402954Y-107304847D01*
X177283612Y-107483455D01*
X177201408Y-107681913D01*
X177159500Y-107892595D01*
X176215500Y-107892595D01*
X176215500Y-106026221D01*
X179955500Y-106026221D01*
X179955500Y-106113779D01*
X179972582Y-106199656D01*
X180006089Y-106280550D01*
X180054734Y-106353352D01*
X180116648Y-106415266D01*
X180189450Y-106463911D01*
X180270344Y-106497418D01*
X180356221Y-106514500D01*
X180443779Y-106514500D01*
X180529656Y-106497418D01*
X180610550Y-106463911D01*
X180683352Y-106415266D01*
X180745266Y-106353352D01*
X180793911Y-106280550D01*
X180827418Y-106199656D01*
X180844500Y-106113779D01*
X180844500Y-106026221D01*
X180827418Y-105940344D01*
X180793911Y-105859450D01*
X180745266Y-105786648D01*
X180683352Y-105724734D01*
X180610550Y-105676089D01*
X180529656Y-105642582D01*
X180443779Y-105625500D01*
X180356221Y-105625500D01*
X180270344Y-105642582D01*
X180189450Y-105676089D01*
X180116648Y-105724734D01*
X180054734Y-105786648D01*
X180006089Y-105859450D01*
X179972582Y-105940344D01*
X179955500Y-106026221D01*
X176215500Y-106026221D01*
X176215500Y-103496221D01*
X178235500Y-103496221D01*
X178235500Y-103583779D01*
X178252582Y-103669656D01*
X178286089Y-103750550D01*
X178334734Y-103823352D01*
X178396648Y-103885266D01*
X178469450Y-103933911D01*
X178550344Y-103967418D01*
X178636221Y-103984500D01*
X178723779Y-103984500D01*
X178809656Y-103967418D01*
X178890550Y-103933911D01*
X178963352Y-103885266D01*
X179025266Y-103823352D01*
X179073911Y-103750550D01*
X179107418Y-103669656D01*
X179124500Y-103583779D01*
X179124500Y-103496221D01*
X179107418Y-103410344D01*
X179073911Y-103329450D01*
X179025266Y-103256648D01*
X178963352Y-103194734D01*
X178890550Y-103146089D01*
X178809656Y-103112582D01*
X178723779Y-103095500D01*
X178636221Y-103095500D01*
X178550344Y-103112582D01*
X178469450Y-103146089D01*
X178396648Y-103194734D01*
X178334734Y-103256648D01*
X178286089Y-103329450D01*
X178252582Y-103410344D01*
X178235500Y-103496221D01*
X176215500Y-103496221D01*
X176215500Y-97800000D01*
X178022010Y-97800000D01*
X178023300Y-97813096D01*
X178023301Y-102126894D01*
X178022010Y-102140000D01*
X178025507Y-102175500D01*
X178027160Y-102192282D01*
X178042411Y-102242555D01*
X178067175Y-102288887D01*
X178100503Y-102329498D01*
X178110680Y-102337850D01*
X178197149Y-102424318D01*
X178197153Y-102424323D01*
X178219407Y-102446577D01*
X178215500Y-102466221D01*
X178215500Y-102553779D01*
X178232582Y-102639656D01*
X178266089Y-102720550D01*
X178314734Y-102793352D01*
X178376648Y-102855266D01*
X178449450Y-102903911D01*
X178530344Y-102937418D01*
X178616221Y-102954500D01*
X178703779Y-102954500D01*
X178789656Y-102937418D01*
X178870550Y-102903911D01*
X178943352Y-102855266D01*
X179005266Y-102793352D01*
X179053911Y-102720550D01*
X179087418Y-102639656D01*
X179104500Y-102553779D01*
X179104500Y-102466221D01*
X179087418Y-102380344D01*
X179053911Y-102299450D01*
X179005266Y-102226648D01*
X178943352Y-102164734D01*
X178870550Y-102116089D01*
X178789656Y-102082582D01*
X178703779Y-102065500D01*
X178616221Y-102065500D01*
X178596577Y-102069407D01*
X178574323Y-102047153D01*
X178574318Y-102047149D01*
X178556700Y-102029531D01*
X178556700Y-97910470D01*
X178696577Y-97770593D01*
X178716221Y-97774500D01*
X178803779Y-97774500D01*
X178889656Y-97757418D01*
X178970550Y-97723911D01*
X179043352Y-97675266D01*
X179105266Y-97613352D01*
X179153911Y-97540550D01*
X179187418Y-97459656D01*
X179204500Y-97373779D01*
X179204500Y-97286221D01*
X179187418Y-97200344D01*
X179153911Y-97119450D01*
X179105266Y-97046648D01*
X179043352Y-96984734D01*
X178970550Y-96936089D01*
X178889656Y-96902582D01*
X178803779Y-96885500D01*
X178716221Y-96885500D01*
X178630344Y-96902582D01*
X178549450Y-96936089D01*
X178476648Y-96984734D01*
X178414734Y-97046648D01*
X178366089Y-97119450D01*
X178332582Y-97200344D01*
X178315500Y-97286221D01*
X178315500Y-97373779D01*
X178319407Y-97393423D01*
X178110684Y-97602146D01*
X178100502Y-97610502D01*
X178067174Y-97651113D01*
X178042410Y-97697446D01*
X178027159Y-97747719D01*
X178023300Y-97786902D01*
X178022010Y-97800000D01*
X176215500Y-97800000D01*
X176215500Y-95538100D01*
X194271721Y-95538100D01*
X194268579Y-95570000D01*
%TA.AperFunction,Conductor*%
D18*
G36*
X194268579Y-95570000D02*
G01*
X194268579Y-96570000D01*
X194272257Y-96607344D01*
X194283150Y-96643254D01*
X194300839Y-96676348D01*
X194324645Y-96705355D01*
X194353652Y-96729161D01*
X194386746Y-96746850D01*
X194422656Y-96757743D01*
X194460000Y-96761421D01*
X195460000Y-96761421D01*
X195497344Y-96757743D01*
X195533254Y-96746850D01*
X195566348Y-96729161D01*
X195595355Y-96705355D01*
X195619161Y-96676348D01*
X195636850Y-96643254D01*
X195647743Y-96607344D01*
X195651421Y-96570000D01*
X195651421Y-96446962D01*
X195693654Y-96510168D01*
X195789832Y-96606346D01*
X195902926Y-96681913D01*
X196028589Y-96733964D01*
X196161992Y-96760500D01*
X196298008Y-96760500D01*
X196431411Y-96733964D01*
X196557074Y-96681913D01*
X196670168Y-96606346D01*
X196766346Y-96510168D01*
X196824114Y-96423712D01*
X197528500Y-96423712D01*
X197528500Y-96536288D01*
X197550463Y-96646700D01*
X197593543Y-96750707D01*
X197656087Y-96844310D01*
X197735690Y-96923913D01*
X197829293Y-96986457D01*
X197933300Y-97029537D01*
X198043712Y-97051500D01*
X198156288Y-97051500D01*
X198266700Y-97029537D01*
X198370707Y-96986457D01*
X198464310Y-96923913D01*
X198543913Y-96844310D01*
X198606457Y-96750707D01*
X198649537Y-96646700D01*
X198669524Y-96546221D01*
X199625500Y-96546221D01*
X199625500Y-96633779D01*
X199642582Y-96719656D01*
X199676089Y-96800550D01*
X199724734Y-96873352D01*
X199786648Y-96935266D01*
X199859450Y-96983911D01*
X199940344Y-97017418D01*
X200026221Y-97034500D01*
X200113779Y-97034500D01*
X200199656Y-97017418D01*
X200280550Y-96983911D01*
X200353352Y-96935266D01*
X200415266Y-96873352D01*
X200463911Y-96800550D01*
X200497418Y-96719656D01*
X200514500Y-96633779D01*
X200514500Y-96546221D01*
X200497418Y-96460344D01*
X200463911Y-96379450D01*
X200415266Y-96306648D01*
X200353352Y-96244734D01*
X200280550Y-96196089D01*
X200199656Y-96162582D01*
X200113779Y-96145500D01*
X200026221Y-96145500D01*
X199940344Y-96162582D01*
X199859450Y-96196089D01*
X199786648Y-96244734D01*
X199724734Y-96306648D01*
X199676089Y-96379450D01*
X199642582Y-96460344D01*
X199625500Y-96546221D01*
X198669524Y-96546221D01*
X198671500Y-96536288D01*
X198671500Y-96423712D01*
X198649537Y-96313300D01*
X198606457Y-96209293D01*
X198543913Y-96115690D01*
X198464310Y-96036087D01*
X198370707Y-95973543D01*
X198266700Y-95930463D01*
X198156288Y-95908500D01*
X198043712Y-95908500D01*
X197933300Y-95930463D01*
X197829293Y-95973543D01*
X197735690Y-96036087D01*
X197656087Y-96115690D01*
X197593543Y-96209293D01*
X197550463Y-96313300D01*
X197528500Y-96423712D01*
X196824114Y-96423712D01*
X196841913Y-96397074D01*
X196893964Y-96271411D01*
X196920500Y-96138008D01*
X196920500Y-96001992D01*
X196893964Y-95868589D01*
X196841913Y-95742926D01*
X196766346Y-95629832D01*
X196674614Y-95538100D01*
X203784500Y-95538100D01*
X203784501Y-123910736D01*
X196910738Y-130784500D01*
X183089263Y-130784500D01*
X181864292Y-129559529D01*
X182604500Y-129559529D01*
X182604500Y-129700471D01*
X182631996Y-129838704D01*
X182685932Y-129968916D01*
X182764235Y-130086105D01*
X182863895Y-130185765D01*
X182981084Y-130264068D01*
X183111296Y-130318004D01*
X183249529Y-130345500D01*
X183390471Y-130345500D01*
X183528704Y-130318004D01*
X183658916Y-130264068D01*
X183776105Y-130185765D01*
X183875765Y-130086105D01*
X183954068Y-129968916D01*
X184008004Y-129838704D01*
X184035500Y-129700471D01*
X184035500Y-129559529D01*
X184204500Y-129559529D01*
X184204500Y-129700471D01*
X184231996Y-129838704D01*
X184285932Y-129968916D01*
X184364235Y-130086105D01*
X184463895Y-130185765D01*
X184581084Y-130264068D01*
X184711296Y-130318004D01*
X184849529Y-130345500D01*
X184990471Y-130345500D01*
X185128704Y-130318004D01*
X185258916Y-130264068D01*
X185376105Y-130185765D01*
X185475765Y-130086105D01*
X185554068Y-129968916D01*
X185608004Y-129838704D01*
X185635500Y-129700471D01*
X185635500Y-129631221D01*
X187015500Y-129631221D01*
X187015500Y-129718779D01*
X187032582Y-129804656D01*
X187066089Y-129885550D01*
X187114734Y-129958352D01*
X187176648Y-130020266D01*
X187249450Y-130068911D01*
X187330344Y-130102418D01*
X187416221Y-130119500D01*
X187503779Y-130119500D01*
X187589656Y-130102418D01*
X187670550Y-130068911D01*
X187743352Y-130020266D01*
X187805266Y-129958352D01*
X187853911Y-129885550D01*
X187887418Y-129804656D01*
X187904500Y-129718779D01*
X187904500Y-129631221D01*
X188285500Y-129631221D01*
X188285500Y-129718779D01*
X188302582Y-129804656D01*
X188336089Y-129885550D01*
X188384734Y-129958352D01*
X188446648Y-130020266D01*
X188519450Y-130068911D01*
X188600344Y-130102418D01*
X188686221Y-130119500D01*
X188773779Y-130119500D01*
X188859656Y-130102418D01*
X188940550Y-130068911D01*
X189013352Y-130020266D01*
X189075266Y-129958352D01*
X189123911Y-129885550D01*
X189157418Y-129804656D01*
X189174500Y-129718779D01*
X189174500Y-129631221D01*
X189555500Y-129631221D01*
X189555500Y-129718779D01*
X189572582Y-129804656D01*
X189606089Y-129885550D01*
X189654734Y-129958352D01*
X189716648Y-130020266D01*
X189789450Y-130068911D01*
X189870344Y-130102418D01*
X189956221Y-130119500D01*
X190043779Y-130119500D01*
X190129656Y-130102418D01*
X190210550Y-130068911D01*
X190283352Y-130020266D01*
X190345266Y-129958352D01*
X190393911Y-129885550D01*
X190427418Y-129804656D01*
X190444500Y-129718779D01*
X190444500Y-129631221D01*
X190427418Y-129545344D01*
X190393911Y-129464450D01*
X190345266Y-129391648D01*
X190283352Y-129329734D01*
X190210550Y-129281089D01*
X190129656Y-129247582D01*
X190043779Y-129230500D01*
X189956221Y-129230500D01*
X189870344Y-129247582D01*
X189789450Y-129281089D01*
X189716648Y-129329734D01*
X189654734Y-129391648D01*
X189606089Y-129464450D01*
X189572582Y-129545344D01*
X189555500Y-129631221D01*
X189174500Y-129631221D01*
X189157418Y-129545344D01*
X189123911Y-129464450D01*
X189075266Y-129391648D01*
X189013352Y-129329734D01*
X188940550Y-129281089D01*
X188859656Y-129247582D01*
X188773779Y-129230500D01*
X188686221Y-129230500D01*
X188600344Y-129247582D01*
X188519450Y-129281089D01*
X188446648Y-129329734D01*
X188384734Y-129391648D01*
X188336089Y-129464450D01*
X188302582Y-129545344D01*
X188285500Y-129631221D01*
X187904500Y-129631221D01*
X187887418Y-129545344D01*
X187853911Y-129464450D01*
X187805266Y-129391648D01*
X187743352Y-129329734D01*
X187670550Y-129281089D01*
X187589656Y-129247582D01*
X187503779Y-129230500D01*
X187416221Y-129230500D01*
X187330344Y-129247582D01*
X187249450Y-129281089D01*
X187176648Y-129329734D01*
X187114734Y-129391648D01*
X187066089Y-129464450D01*
X187032582Y-129545344D01*
X187015500Y-129631221D01*
X185635500Y-129631221D01*
X185635500Y-129559529D01*
X185608004Y-129421296D01*
X185554068Y-129291084D01*
X185475765Y-129173895D01*
X185376105Y-129074235D01*
X185258916Y-128995932D01*
X185128704Y-128941996D01*
X184990471Y-128914500D01*
X184849529Y-128914500D01*
X184711296Y-128941996D01*
X184581084Y-128995932D01*
X184463895Y-129074235D01*
X184364235Y-129173895D01*
X184285932Y-129291084D01*
X184231996Y-129421296D01*
X184204500Y-129559529D01*
X184035500Y-129559529D01*
X184008004Y-129421296D01*
X183954068Y-129291084D01*
X183875765Y-129173895D01*
X183776105Y-129074235D01*
X183658916Y-128995932D01*
X183528704Y-128941996D01*
X183390471Y-128914500D01*
X183249529Y-128914500D01*
X183111296Y-128941996D01*
X182981084Y-128995932D01*
X182863895Y-129074235D01*
X182764235Y-129173895D01*
X182685932Y-129291084D01*
X182631996Y-129421296D01*
X182604500Y-129559529D01*
X181864292Y-129559529D01*
X180364292Y-128059529D01*
X181004500Y-128059529D01*
X181004500Y-128200471D01*
X181031996Y-128338704D01*
X181085932Y-128468916D01*
X181164235Y-128586105D01*
X181263895Y-128685765D01*
X181381084Y-128764068D01*
X181511296Y-128818004D01*
X181649529Y-128845500D01*
X181790471Y-128845500D01*
X181928704Y-128818004D01*
X182058916Y-128764068D01*
X182176105Y-128685765D01*
X182275765Y-128586105D01*
X182354068Y-128468916D01*
X182408004Y-128338704D01*
X182435500Y-128200471D01*
X182435500Y-128059529D01*
X182604500Y-128059529D01*
X182604500Y-128200471D01*
X182631996Y-128338704D01*
X182685932Y-128468916D01*
X182764235Y-128586105D01*
X182863895Y-128685765D01*
X182981084Y-128764068D01*
X183111296Y-128818004D01*
X183249529Y-128845500D01*
X183390471Y-128845500D01*
X183528704Y-128818004D01*
X183658916Y-128764068D01*
X183776105Y-128685765D01*
X183875765Y-128586105D01*
X183954068Y-128468916D01*
X184008004Y-128338704D01*
X184035500Y-128200471D01*
X184035500Y-128059529D01*
X184008004Y-127921296D01*
X183954068Y-127791084D01*
X183875765Y-127673895D01*
X183776105Y-127574235D01*
X183658916Y-127495932D01*
X183528704Y-127441996D01*
X183390471Y-127414500D01*
X183249529Y-127414500D01*
X183111296Y-127441996D01*
X182981084Y-127495932D01*
X182863895Y-127574235D01*
X182764235Y-127673895D01*
X182685932Y-127791084D01*
X182631996Y-127921296D01*
X182604500Y-128059529D01*
X182435500Y-128059529D01*
X182408004Y-127921296D01*
X182354068Y-127791084D01*
X182275765Y-127673895D01*
X182176105Y-127574235D01*
X182058916Y-127495932D01*
X181928704Y-127441996D01*
X181790471Y-127414500D01*
X181649529Y-127414500D01*
X181511296Y-127441996D01*
X181381084Y-127495932D01*
X181263895Y-127574235D01*
X181164235Y-127673895D01*
X181085932Y-127791084D01*
X181031996Y-127921296D01*
X181004500Y-128059529D01*
X180364292Y-128059529D01*
X177364292Y-125059529D01*
X177804500Y-125059529D01*
X177804500Y-125200471D01*
X177831996Y-125338704D01*
X177885932Y-125468916D01*
X177964235Y-125586105D01*
X178063895Y-125685765D01*
X178181084Y-125764068D01*
X178311296Y-125818004D01*
X178449529Y-125845500D01*
X178590471Y-125845500D01*
X178728704Y-125818004D01*
X178858916Y-125764068D01*
X178976105Y-125685765D01*
X179063301Y-125598569D01*
X179063301Y-125826894D01*
X179062010Y-125840000D01*
X179066175Y-125882282D01*
X179067160Y-125892282D01*
X179082411Y-125942555D01*
X179107175Y-125988887D01*
X179140503Y-126029498D01*
X179150679Y-126037849D01*
X179461909Y-126349080D01*
X179431996Y-126421296D01*
X179404500Y-126559529D01*
X179404500Y-126700471D01*
X179431996Y-126838704D01*
X179485932Y-126968916D01*
X179564235Y-127086105D01*
X179663895Y-127185765D01*
X179781084Y-127264068D01*
X179911296Y-127318004D01*
X180049529Y-127345500D01*
X180190471Y-127345500D01*
X180328704Y-127318004D01*
X180458916Y-127264068D01*
X180576105Y-127185765D01*
X180675765Y-127086105D01*
X180754068Y-126968916D01*
X180808004Y-126838704D01*
X180835500Y-126700471D01*
X180835500Y-126559529D01*
X180808004Y-126421296D01*
X180754068Y-126291084D01*
X180675765Y-126173895D01*
X180576105Y-126074235D01*
X180458916Y-125995932D01*
X180328704Y-125941996D01*
X180190471Y-125914500D01*
X180049529Y-125914500D01*
X179911296Y-125941996D01*
X179839080Y-125971909D01*
X179596700Y-125729530D01*
X179596700Y-125618570D01*
X179663895Y-125685765D01*
X179781084Y-125764068D01*
X179911296Y-125818004D01*
X180049529Y-125845500D01*
X180190471Y-125845500D01*
X180328704Y-125818004D01*
X180458916Y-125764068D01*
X180576105Y-125685765D01*
X180653301Y-125608569D01*
X180653301Y-125816894D01*
X180652010Y-125830000D01*
X180656552Y-125876112D01*
X180657160Y-125882282D01*
X180672411Y-125932555D01*
X180697175Y-125978887D01*
X180730503Y-126019498D01*
X180740679Y-126027849D01*
X181061909Y-126349080D01*
X181031996Y-126421296D01*
X181004500Y-126559529D01*
X181004500Y-126700471D01*
X181031996Y-126838704D01*
X181085932Y-126968916D01*
X181164235Y-127086105D01*
X181263895Y-127185765D01*
X181381084Y-127264068D01*
X181511296Y-127318004D01*
X181649529Y-127345500D01*
X181790471Y-127345500D01*
X181928704Y-127318004D01*
X182058916Y-127264068D01*
X182176105Y-127185765D01*
X182275765Y-127086105D01*
X182354068Y-126968916D01*
X182408004Y-126838704D01*
X182435500Y-126700471D01*
X182435500Y-126559529D01*
X182408004Y-126421296D01*
X182354068Y-126291084D01*
X182275765Y-126173895D01*
X182176105Y-126074235D01*
X182058916Y-125995932D01*
X181928704Y-125941996D01*
X181790471Y-125914500D01*
X181649529Y-125914500D01*
X181511296Y-125941996D01*
X181439080Y-125971909D01*
X181186700Y-125719530D01*
X181186700Y-125608570D01*
X181263895Y-125685765D01*
X181381084Y-125764068D01*
X181511296Y-125818004D01*
X181649529Y-125845500D01*
X181790471Y-125845500D01*
X181928704Y-125818004D01*
X182058916Y-125764068D01*
X182176105Y-125685765D01*
X182275765Y-125586105D01*
X182354068Y-125468916D01*
X182408004Y-125338704D01*
X182435500Y-125200471D01*
X182435500Y-125059529D01*
X182408004Y-124921296D01*
X182354068Y-124791084D01*
X182275765Y-124673895D01*
X182176105Y-124574235D01*
X182058916Y-124495932D01*
X181928704Y-124441996D01*
X181790471Y-124414500D01*
X181649529Y-124414500D01*
X181511296Y-124441996D01*
X181381084Y-124495932D01*
X181263895Y-124574235D01*
X181186700Y-124651430D01*
X181186700Y-116809404D01*
X181323301Y-116672803D01*
X181323300Y-123436904D01*
X181322010Y-123450000D01*
X181323300Y-123463096D01*
X181323300Y-123463097D01*
X181327159Y-123502281D01*
X181342410Y-123552554D01*
X181367174Y-123598887D01*
X181400502Y-123639498D01*
X181410684Y-123647854D01*
X183053301Y-125290472D01*
X183053300Y-125966019D01*
X182981084Y-125995932D01*
X182863895Y-126074235D01*
X182764235Y-126173895D01*
X182685932Y-126291084D01*
X182631996Y-126421296D01*
X182604500Y-126559529D01*
X182604500Y-126700471D01*
X182631996Y-126838704D01*
X182685932Y-126968916D01*
X182764235Y-127086105D01*
X182863895Y-127185765D01*
X182981084Y-127264068D01*
X183111296Y-127318004D01*
X183249529Y-127345500D01*
X183390471Y-127345500D01*
X183528704Y-127318004D01*
X183658916Y-127264068D01*
X183776105Y-127185765D01*
X183875765Y-127086105D01*
X183954068Y-126968916D01*
X184008004Y-126838704D01*
X184035500Y-126700471D01*
X184035500Y-126559529D01*
X184204500Y-126559529D01*
X184204500Y-126700471D01*
X184231996Y-126838704D01*
X184285932Y-126968916D01*
X184364235Y-127086105D01*
X184463895Y-127185765D01*
X184581084Y-127264068D01*
X184711296Y-127318004D01*
X184849529Y-127345500D01*
X184990471Y-127345500D01*
X185128704Y-127318004D01*
X185258916Y-127264068D01*
X185376105Y-127185765D01*
X185475765Y-127086105D01*
X185554068Y-126968916D01*
X185608004Y-126838704D01*
X185635500Y-126700471D01*
X185635500Y-126559529D01*
X185608004Y-126421296D01*
X185554068Y-126291084D01*
X185475765Y-126173895D01*
X185376105Y-126074235D01*
X185258916Y-125995932D01*
X185223401Y-125981221D01*
X187015500Y-125981221D01*
X187015500Y-126068779D01*
X187032582Y-126154656D01*
X187066089Y-126235550D01*
X187114734Y-126308352D01*
X187176648Y-126370266D01*
X187249450Y-126418911D01*
X187330344Y-126452418D01*
X187416221Y-126469500D01*
X187503779Y-126469500D01*
X187589656Y-126452418D01*
X187670550Y-126418911D01*
X187743352Y-126370266D01*
X187805266Y-126308352D01*
X187853911Y-126235550D01*
X187887418Y-126154656D01*
X187904500Y-126068779D01*
X187904500Y-125981221D01*
X187887418Y-125895344D01*
X187853911Y-125814450D01*
X187805266Y-125741648D01*
X187743352Y-125679734D01*
X187670550Y-125631089D01*
X187589656Y-125597582D01*
X187503779Y-125580500D01*
X187416221Y-125580500D01*
X187330344Y-125597582D01*
X187249450Y-125631089D01*
X187176648Y-125679734D01*
X187114734Y-125741648D01*
X187066089Y-125814450D01*
X187032582Y-125895344D01*
X187015500Y-125981221D01*
X185223401Y-125981221D01*
X185128704Y-125941996D01*
X184990471Y-125914500D01*
X184849529Y-125914500D01*
X184711296Y-125941996D01*
X184581084Y-125995932D01*
X184463895Y-126074235D01*
X184364235Y-126173895D01*
X184285932Y-126291084D01*
X184231996Y-126421296D01*
X184204500Y-126559529D01*
X184035500Y-126559529D01*
X184008004Y-126421296D01*
X183954068Y-126291084D01*
X183875765Y-126173895D01*
X183776105Y-126074235D01*
X183658916Y-125995932D01*
X183586700Y-125966019D01*
X183586700Y-125193095D01*
X183587990Y-125179999D01*
X183586700Y-125166902D01*
X183582841Y-125127718D01*
X183567590Y-125077445D01*
X183542826Y-125031113D01*
X183542825Y-125031111D01*
X183530109Y-125015617D01*
X183509498Y-124990502D01*
X183499321Y-124982151D01*
X181856700Y-123339530D01*
X181856700Y-117573712D01*
X184118500Y-117573712D01*
X184118500Y-117686288D01*
X184140463Y-117796700D01*
X184183543Y-117900707D01*
X184246087Y-117994310D01*
X184325690Y-118073913D01*
X184419293Y-118136457D01*
X184523300Y-118179537D01*
X184633712Y-118201500D01*
X184746288Y-118201500D01*
X184856700Y-118179537D01*
X184960707Y-118136457D01*
X185054310Y-118073913D01*
X185133913Y-117994310D01*
X185196457Y-117900707D01*
X185239537Y-117796700D01*
X185261500Y-117686288D01*
X185261500Y-117573712D01*
X185239537Y-117463300D01*
X185196457Y-117359293D01*
X185133913Y-117265690D01*
X185054310Y-117186087D01*
X184960707Y-117123543D01*
X184856700Y-117080463D01*
X184746288Y-117058500D01*
X184633712Y-117058500D01*
X184523300Y-117080463D01*
X184419293Y-117123543D01*
X184325690Y-117186087D01*
X184246087Y-117265690D01*
X184183543Y-117359293D01*
X184140463Y-117463300D01*
X184118500Y-117573712D01*
X181856700Y-117573712D01*
X181856700Y-116570470D01*
X184631917Y-113795253D01*
X184642099Y-113786897D01*
X184675427Y-113746286D01*
X184700191Y-113699954D01*
X184715442Y-113649681D01*
X184719301Y-113610497D01*
X184719301Y-113610496D01*
X184720591Y-113597400D01*
X184719301Y-113584304D01*
X184719301Y-112724154D01*
X184726087Y-112734310D01*
X184805690Y-112813913D01*
X184899293Y-112876457D01*
X185003300Y-112919537D01*
X185113712Y-112941500D01*
X185226288Y-112941500D01*
X185336700Y-112919537D01*
X185440707Y-112876457D01*
X185534310Y-112813913D01*
X185613913Y-112734310D01*
X185676457Y-112640707D01*
X185719537Y-112536700D01*
X185741500Y-112426288D01*
X185741500Y-112313712D01*
X185719537Y-112203300D01*
X185676457Y-112099293D01*
X185613913Y-112005690D01*
X185534310Y-111926087D01*
X185440707Y-111863543D01*
X185336700Y-111820463D01*
X185226288Y-111798500D01*
X185113712Y-111798500D01*
X185003300Y-111820463D01*
X184899293Y-111863543D01*
X184805690Y-111926087D01*
X184726087Y-112005690D01*
X184719301Y-112015846D01*
X184719301Y-110354155D01*
X184727175Y-110368887D01*
X184760503Y-110409498D01*
X184770679Y-110417849D01*
X185853300Y-111500471D01*
X185853301Y-123401894D01*
X185852010Y-123415000D01*
X185855458Y-123450000D01*
X185857160Y-123467282D01*
X185872411Y-123517555D01*
X185897175Y-123563887D01*
X185930503Y-123604498D01*
X185940679Y-123612849D01*
X188289407Y-125961577D01*
X188285500Y-125981221D01*
X188285500Y-126068779D01*
X188302582Y-126154656D01*
X188336089Y-126235550D01*
X188384734Y-126308352D01*
X188446648Y-126370266D01*
X188519450Y-126418911D01*
X188600344Y-126452418D01*
X188686221Y-126469500D01*
X188773779Y-126469500D01*
X188859656Y-126452418D01*
X188940550Y-126418911D01*
X189013352Y-126370266D01*
X189075266Y-126308352D01*
X189123911Y-126235550D01*
X189157418Y-126154656D01*
X189174500Y-126068779D01*
X189174500Y-125981221D01*
X189555500Y-125981221D01*
X189555500Y-126068779D01*
X189572582Y-126154656D01*
X189606089Y-126235550D01*
X189654734Y-126308352D01*
X189716648Y-126370266D01*
X189789450Y-126418911D01*
X189870344Y-126452418D01*
X189956221Y-126469500D01*
X190043779Y-126469500D01*
X190129656Y-126452418D01*
X190210550Y-126418911D01*
X190283352Y-126370266D01*
X190345266Y-126308352D01*
X190393911Y-126235550D01*
X190427418Y-126154656D01*
X190444500Y-126068779D01*
X190444500Y-125981221D01*
X190427418Y-125895344D01*
X190393911Y-125814450D01*
X190345266Y-125741648D01*
X190283352Y-125679734D01*
X190210550Y-125631089D01*
X190129656Y-125597582D01*
X190043779Y-125580500D01*
X189956221Y-125580500D01*
X189870344Y-125597582D01*
X189789450Y-125631089D01*
X189716648Y-125679734D01*
X189654734Y-125741648D01*
X189606089Y-125814450D01*
X189572582Y-125895344D01*
X189555500Y-125981221D01*
X189174500Y-125981221D01*
X189157418Y-125895344D01*
X189123911Y-125814450D01*
X189075266Y-125741648D01*
X189013352Y-125679734D01*
X188940550Y-125631089D01*
X188859656Y-125597582D01*
X188773779Y-125580500D01*
X188686221Y-125580500D01*
X188666577Y-125584407D01*
X186386700Y-123304530D01*
X186386700Y-122892595D01*
X188909500Y-122892595D01*
X188909500Y-123107405D01*
X188951408Y-123318087D01*
X189033612Y-123516545D01*
X189152954Y-123695153D01*
X189304847Y-123847046D01*
X189483455Y-123966388D01*
X189681913Y-124048592D01*
X189892595Y-124090500D01*
X190107405Y-124090500D01*
X190318087Y-124048592D01*
X190516545Y-123966388D01*
X190695153Y-123847046D01*
X190847046Y-123695153D01*
X190966388Y-123516545D01*
X191048592Y-123318087D01*
X191090500Y-123107405D01*
X191090500Y-122892595D01*
X191048592Y-122681913D01*
X190966388Y-122483455D01*
X190847046Y-122304847D01*
X190695153Y-122152954D01*
X190516545Y-122033612D01*
X190318087Y-121951408D01*
X190107405Y-121909500D01*
X189892595Y-121909500D01*
X189681913Y-121951408D01*
X189483455Y-122033612D01*
X189304847Y-122152954D01*
X189152954Y-122304847D01*
X189033612Y-122483455D01*
X188951408Y-122681913D01*
X188909500Y-122892595D01*
X186386700Y-122892595D01*
X186386700Y-121486221D01*
X187345500Y-121486221D01*
X187345500Y-121573779D01*
X187362582Y-121659656D01*
X187396089Y-121740550D01*
X187444734Y-121813352D01*
X187506648Y-121875266D01*
X187579450Y-121923911D01*
X187660344Y-121957418D01*
X187746221Y-121974500D01*
X187833779Y-121974500D01*
X187919656Y-121957418D01*
X188000550Y-121923911D01*
X188073352Y-121875266D01*
X188135266Y-121813352D01*
X188183911Y-121740550D01*
X188217418Y-121659656D01*
X188234500Y-121573779D01*
X188234500Y-121486221D01*
X188217418Y-121400344D01*
X188183911Y-121319450D01*
X188135266Y-121246648D01*
X188073352Y-121184734D01*
X188000550Y-121136089D01*
X187919656Y-121102582D01*
X187833779Y-121085500D01*
X187746221Y-121085500D01*
X187660344Y-121102582D01*
X187579450Y-121136089D01*
X187506648Y-121184734D01*
X187444734Y-121246648D01*
X187396089Y-121319450D01*
X187362582Y-121400344D01*
X187345500Y-121486221D01*
X186386700Y-121486221D01*
X186386700Y-119073712D01*
X188408500Y-119073712D01*
X188408500Y-119186288D01*
X188430463Y-119296700D01*
X188473543Y-119400707D01*
X188536087Y-119494310D01*
X188615690Y-119573913D01*
X188709293Y-119636457D01*
X188813300Y-119679537D01*
X188923712Y-119701500D01*
X189036288Y-119701500D01*
X189146700Y-119679537D01*
X189250707Y-119636457D01*
X189344310Y-119573913D01*
X189423913Y-119494310D01*
X189486457Y-119400707D01*
X189529537Y-119296700D01*
X189551500Y-119186288D01*
X189551500Y-119073712D01*
X189536086Y-118996221D01*
X190675500Y-118996221D01*
X190675500Y-119083779D01*
X190692582Y-119169656D01*
X190726089Y-119250550D01*
X190774734Y-119323352D01*
X190836648Y-119385266D01*
X190853300Y-119396393D01*
X190853301Y-121856894D01*
X190852010Y-121870000D01*
X190855901Y-121909500D01*
X190857160Y-121922282D01*
X190872411Y-121972555D01*
X190897175Y-122018887D01*
X190930503Y-122059498D01*
X190940679Y-122067849D01*
X191583300Y-122710471D01*
X191583301Y-125709683D01*
X191553352Y-125679734D01*
X191480550Y-125631089D01*
X191399656Y-125597582D01*
X191313779Y-125580500D01*
X191226221Y-125580500D01*
X191140344Y-125597582D01*
X191059450Y-125631089D01*
X190986648Y-125679734D01*
X190924734Y-125741648D01*
X190876089Y-125814450D01*
X190842582Y-125895344D01*
X190825500Y-125981221D01*
X190825500Y-126068779D01*
X190842582Y-126154656D01*
X190876089Y-126235550D01*
X190924734Y-126308352D01*
X190986648Y-126370266D01*
X191059450Y-126418911D01*
X191140344Y-126452418D01*
X191226221Y-126469500D01*
X191313779Y-126469500D01*
X191399656Y-126452418D01*
X191480550Y-126418911D01*
X191553352Y-126370266D01*
X191583301Y-126340317D01*
X191583301Y-127189528D01*
X191090684Y-127682146D01*
X191080502Y-127690502D01*
X191047174Y-127731113D01*
X191022410Y-127777446D01*
X191007159Y-127827719D01*
X191003300Y-127866902D01*
X191002010Y-127880000D01*
X191003300Y-127893096D01*
X191003301Y-129318607D01*
X190986648Y-129329734D01*
X190924734Y-129391648D01*
X190876089Y-129464450D01*
X190842582Y-129545344D01*
X190825500Y-129631221D01*
X190825500Y-129718779D01*
X190842582Y-129804656D01*
X190876089Y-129885550D01*
X190924734Y-129958352D01*
X190986648Y-130020266D01*
X191059450Y-130068911D01*
X191140344Y-130102418D01*
X191226221Y-130119500D01*
X191313779Y-130119500D01*
X191399656Y-130102418D01*
X191480550Y-130068911D01*
X191553352Y-130020266D01*
X191615266Y-129958352D01*
X191663911Y-129885550D01*
X191697418Y-129804656D01*
X191714500Y-129718779D01*
X191714500Y-129631221D01*
X191697418Y-129545344D01*
X191663911Y-129464450D01*
X191615266Y-129391648D01*
X191553352Y-129329734D01*
X191536700Y-129318607D01*
X191536700Y-127990470D01*
X192029321Y-127497850D01*
X192039498Y-127489498D01*
X192072826Y-127448887D01*
X192097590Y-127402555D01*
X192112841Y-127352282D01*
X192116700Y-127313098D01*
X192116700Y-127313096D01*
X192117990Y-127300000D01*
X192116700Y-127286904D01*
X192116700Y-122613096D01*
X192117990Y-122600000D01*
X192116700Y-122586902D01*
X192112841Y-122547718D01*
X192097590Y-122497445D01*
X192072826Y-122451113D01*
X192039498Y-122410502D01*
X192029321Y-122402150D01*
X191386700Y-121759530D01*
X191386700Y-119396393D01*
X191403352Y-119385266D01*
X191465266Y-119323352D01*
X191513911Y-119250550D01*
X191547418Y-119169656D01*
X191564500Y-119083779D01*
X191564500Y-119033118D01*
X191616648Y-119085266D01*
X191633301Y-119096393D01*
X191633300Y-121846904D01*
X191632010Y-121860000D01*
X191633300Y-121873096D01*
X191633300Y-121873097D01*
X191637159Y-121912281D01*
X191652410Y-121962554D01*
X191677174Y-122008887D01*
X191710502Y-122049498D01*
X191720684Y-122057854D01*
X193293301Y-123630472D01*
X193293300Y-127039529D01*
X192360679Y-127972151D01*
X192350503Y-127980502D01*
X192342153Y-127990677D01*
X192317175Y-128021113D01*
X192292411Y-128067445D01*
X192277160Y-128117718D01*
X192272010Y-128170000D01*
X192273301Y-128183106D01*
X192273300Y-129318607D01*
X192256648Y-129329734D01*
X192194734Y-129391648D01*
X192146089Y-129464450D01*
X192112582Y-129545344D01*
X192095500Y-129631221D01*
X192095500Y-129718779D01*
X192112582Y-129804656D01*
X192146089Y-129885550D01*
X192194734Y-129958352D01*
X192256648Y-130020266D01*
X192329450Y-130068911D01*
X192410344Y-130102418D01*
X192496221Y-130119500D01*
X192583779Y-130119500D01*
X192669656Y-130102418D01*
X192750550Y-130068911D01*
X192823352Y-130020266D01*
X192885266Y-129958352D01*
X192933911Y-129885550D01*
X192967418Y-129804656D01*
X192984500Y-129718779D01*
X192984500Y-129631221D01*
X192967418Y-129545344D01*
X192933911Y-129464450D01*
X192885266Y-129391648D01*
X192823352Y-129329734D01*
X192806700Y-129318607D01*
X192806700Y-128280470D01*
X193739321Y-127347850D01*
X193749498Y-127339498D01*
X193782826Y-127298887D01*
X193794353Y-127277320D01*
X193807590Y-127252556D01*
X193812216Y-127237305D01*
X193822841Y-127202282D01*
X193826700Y-127163098D01*
X193826700Y-127163096D01*
X193827990Y-127150000D01*
X193826700Y-127136904D01*
X193826700Y-123533099D01*
X193827990Y-123520000D01*
X193822841Y-123467717D01*
X193807590Y-123417445D01*
X193782825Y-123371112D01*
X193749498Y-123330502D01*
X193739321Y-123322151D01*
X192166700Y-121749530D01*
X192166700Y-119703712D01*
X195238500Y-119703712D01*
X195238500Y-119816288D01*
X195260463Y-119926700D01*
X195303543Y-120030707D01*
X195366087Y-120124310D01*
X195445690Y-120203913D01*
X195539293Y-120266457D01*
X195643300Y-120309537D01*
X195753712Y-120331500D01*
X195866288Y-120331500D01*
X195976700Y-120309537D01*
X196080707Y-120266457D01*
X196174310Y-120203913D01*
X196253913Y-120124310D01*
X196316457Y-120030707D01*
X196359537Y-119926700D01*
X196381500Y-119816288D01*
X196381500Y-119703712D01*
X196359537Y-119593300D01*
X196316457Y-119489293D01*
X196253913Y-119395690D01*
X196174310Y-119316087D01*
X196080707Y-119253543D01*
X195976700Y-119210463D01*
X195866288Y-119188500D01*
X195753712Y-119188500D01*
X195643300Y-119210463D01*
X195539293Y-119253543D01*
X195445690Y-119316087D01*
X195366087Y-119395690D01*
X195303543Y-119489293D01*
X195260463Y-119593300D01*
X195238500Y-119703712D01*
X192166700Y-119703712D01*
X192166700Y-119096393D01*
X192183352Y-119085266D01*
X192245266Y-119023352D01*
X192293911Y-118950550D01*
X192327418Y-118869656D01*
X192344500Y-118783779D01*
X192344500Y-118776221D01*
X192735500Y-118776221D01*
X192735500Y-118863779D01*
X192752582Y-118949656D01*
X192786089Y-119030550D01*
X192834734Y-119103352D01*
X192896648Y-119165266D01*
X192969450Y-119213911D01*
X193050344Y-119247418D01*
X193136221Y-119264500D01*
X193223779Y-119264500D01*
X193309656Y-119247418D01*
X193390550Y-119213911D01*
X193463352Y-119165266D01*
X193525266Y-119103352D01*
X193573911Y-119030550D01*
X193607418Y-118949656D01*
X193624500Y-118863779D01*
X193624500Y-118776221D01*
X193607418Y-118690344D01*
X193573911Y-118609450D01*
X193525266Y-118536648D01*
X193463352Y-118474734D01*
X193390550Y-118426089D01*
X193309656Y-118392582D01*
X193223779Y-118375500D01*
X193136221Y-118375500D01*
X193050344Y-118392582D01*
X192969450Y-118426089D01*
X192896648Y-118474734D01*
X192834734Y-118536648D01*
X192786089Y-118609450D01*
X192752582Y-118690344D01*
X192735500Y-118776221D01*
X192344500Y-118776221D01*
X192344500Y-118696221D01*
X192327418Y-118610344D01*
X192293911Y-118529450D01*
X192245266Y-118456648D01*
X192183352Y-118394734D01*
X192110550Y-118346089D01*
X192029656Y-118312582D01*
X191943779Y-118295500D01*
X191856221Y-118295500D01*
X191770344Y-118312582D01*
X191689450Y-118346089D01*
X191616648Y-118394734D01*
X191554734Y-118456648D01*
X191506089Y-118529450D01*
X191472582Y-118610344D01*
X191455500Y-118696221D01*
X191455500Y-118746882D01*
X191403352Y-118694734D01*
X191330550Y-118646089D01*
X191249656Y-118612582D01*
X191163779Y-118595500D01*
X191076221Y-118595500D01*
X190990344Y-118612582D01*
X190909450Y-118646089D01*
X190836648Y-118694734D01*
X190774734Y-118756648D01*
X190726089Y-118829450D01*
X190692582Y-118910344D01*
X190675500Y-118996221D01*
X189536086Y-118996221D01*
X189529537Y-118963300D01*
X189486457Y-118859293D01*
X189423913Y-118765690D01*
X189344310Y-118686087D01*
X189250707Y-118623543D01*
X189146700Y-118580463D01*
X189036288Y-118558500D01*
X188923712Y-118558500D01*
X188813300Y-118580463D01*
X188709293Y-118623543D01*
X188615690Y-118686087D01*
X188536087Y-118765690D01*
X188473543Y-118859293D01*
X188430463Y-118963300D01*
X188408500Y-119073712D01*
X186386700Y-119073712D01*
X186386700Y-115930085D01*
X186392582Y-115959656D01*
X186426089Y-116040550D01*
X186474734Y-116113352D01*
X186536648Y-116175266D01*
X186553300Y-116186393D01*
X186553301Y-116696894D01*
X186552010Y-116710000D01*
X186555841Y-116748887D01*
X186557160Y-116762282D01*
X186572411Y-116812555D01*
X186597175Y-116858887D01*
X186630503Y-116899498D01*
X186640679Y-116907849D01*
X187942150Y-118209321D01*
X187950502Y-118219498D01*
X187991113Y-118252826D01*
X188037445Y-118277590D01*
X188087718Y-118292841D01*
X188126902Y-118296700D01*
X188126904Y-118296700D01*
X188140000Y-118297990D01*
X188153096Y-118296700D01*
X191771904Y-118296700D01*
X191785000Y-118297990D01*
X191798096Y-118296700D01*
X191798098Y-118296700D01*
X191837282Y-118292841D01*
X191887555Y-118277590D01*
X191933887Y-118252826D01*
X191974498Y-118219498D01*
X191982854Y-118209316D01*
X192476577Y-117715593D01*
X192496221Y-117719500D01*
X192583779Y-117719500D01*
X192669656Y-117702418D01*
X192750550Y-117668911D01*
X192823352Y-117620266D01*
X192885266Y-117558352D01*
X192933911Y-117485550D01*
X192967418Y-117404656D01*
X192984500Y-117318779D01*
X192984500Y-117231221D01*
X192967418Y-117145344D01*
X192933911Y-117064450D01*
X192885266Y-116991648D01*
X192823352Y-116929734D01*
X192750550Y-116881089D01*
X192669656Y-116847582D01*
X192583779Y-116830500D01*
X192496221Y-116830500D01*
X192410344Y-116847582D01*
X192329450Y-116881089D01*
X192256648Y-116929734D01*
X192194734Y-116991648D01*
X192146089Y-117064450D01*
X192112582Y-117145344D01*
X192095500Y-117231221D01*
X192095500Y-117318779D01*
X192099407Y-117338423D01*
X191674530Y-117763300D01*
X188250471Y-117763300D01*
X187718392Y-117231221D01*
X190825500Y-117231221D01*
X190825500Y-117318779D01*
X190842582Y-117404656D01*
X190876089Y-117485550D01*
X190924734Y-117558352D01*
X190986648Y-117620266D01*
X191059450Y-117668911D01*
X191140344Y-117702418D01*
X191226221Y-117719500D01*
X191313779Y-117719500D01*
X191399656Y-117702418D01*
X191480550Y-117668911D01*
X191553352Y-117620266D01*
X191615266Y-117558352D01*
X191663911Y-117485550D01*
X191697418Y-117404656D01*
X191714500Y-117318779D01*
X191714500Y-117231221D01*
X191697418Y-117145344D01*
X191663911Y-117064450D01*
X191615266Y-116991648D01*
X191553352Y-116929734D01*
X191480550Y-116881089D01*
X191399656Y-116847582D01*
X191313779Y-116830500D01*
X191226221Y-116830500D01*
X191140344Y-116847582D01*
X191059450Y-116881089D01*
X190986648Y-116929734D01*
X190924734Y-116991648D01*
X190876089Y-117064450D01*
X190842582Y-117145344D01*
X190825500Y-117231221D01*
X187718392Y-117231221D01*
X187117171Y-116630000D01*
X195538579Y-116630000D01*
X195538579Y-117630000D01*
X195542257Y-117667344D01*
X195553150Y-117703254D01*
X195570839Y-117736348D01*
X195594645Y-117765355D01*
X195623652Y-117789161D01*
X195656746Y-117806850D01*
X195692656Y-117817743D01*
X195730000Y-117821421D01*
X196730000Y-117821421D01*
X196767344Y-117817743D01*
X196803254Y-117806850D01*
X196836348Y-117789161D01*
X196865355Y-117765355D01*
X196889161Y-117736348D01*
X196906850Y-117703254D01*
X196917743Y-117667344D01*
X196921421Y-117630000D01*
X196921421Y-116630000D01*
X196917743Y-116592656D01*
X196906850Y-116556746D01*
X196889161Y-116523652D01*
X196865355Y-116494645D01*
X196836348Y-116470839D01*
X196803254Y-116453150D01*
X196767344Y-116442257D01*
X196730000Y-116438579D01*
X195730000Y-116438579D01*
X195692656Y-116442257D01*
X195656746Y-116453150D01*
X195623652Y-116470839D01*
X195594645Y-116494645D01*
X195570839Y-116523652D01*
X195553150Y-116556746D01*
X195542257Y-116592656D01*
X195538579Y-116630000D01*
X187117171Y-116630000D01*
X187086700Y-116599530D01*
X187086700Y-116186393D01*
X187103352Y-116175266D01*
X187165266Y-116113352D01*
X187213911Y-116040550D01*
X187247418Y-115959656D01*
X187248665Y-115953387D01*
X187249450Y-115953911D01*
X187330344Y-115987418D01*
X187416221Y-116004500D01*
X187503779Y-116004500D01*
X187589656Y-115987418D01*
X187670550Y-115953911D01*
X187743352Y-115905266D01*
X187805266Y-115843352D01*
X187853911Y-115770550D01*
X187887418Y-115689656D01*
X187904500Y-115603779D01*
X187904500Y-115516221D01*
X187887418Y-115430344D01*
X187853911Y-115349450D01*
X187805266Y-115276648D01*
X187743352Y-115214734D01*
X187670550Y-115166089D01*
X187589656Y-115132582D01*
X187503779Y-115115500D01*
X187416221Y-115115500D01*
X187330344Y-115132582D01*
X187249450Y-115166089D01*
X187176648Y-115214734D01*
X187114734Y-115276648D01*
X187066089Y-115349450D01*
X187032582Y-115430344D01*
X187031335Y-115436613D01*
X187030550Y-115436089D01*
X186949656Y-115402582D01*
X186863779Y-115385500D01*
X186776221Y-115385500D01*
X186690344Y-115402582D01*
X186609450Y-115436089D01*
X186536648Y-115484734D01*
X186474734Y-115546648D01*
X186426089Y-115619450D01*
X186392582Y-115700344D01*
X186386700Y-115729915D01*
X186386700Y-113681221D01*
X187015500Y-113681221D01*
X187015500Y-113768779D01*
X187032582Y-113854656D01*
X187066089Y-113935550D01*
X187114734Y-114008352D01*
X187176648Y-114070266D01*
X187249450Y-114118911D01*
X187330344Y-114152418D01*
X187416221Y-114169500D01*
X187503779Y-114169500D01*
X187589656Y-114152418D01*
X187670550Y-114118911D01*
X187743352Y-114070266D01*
X187805266Y-114008352D01*
X187853911Y-113935550D01*
X187887418Y-113854656D01*
X187904500Y-113768779D01*
X187904500Y-113681221D01*
X187887418Y-113595344D01*
X187853911Y-113514450D01*
X187805266Y-113441648D01*
X187743352Y-113379734D01*
X187670550Y-113331089D01*
X187589656Y-113297582D01*
X187503779Y-113280500D01*
X187416221Y-113280500D01*
X187330344Y-113297582D01*
X187249450Y-113331089D01*
X187176648Y-113379734D01*
X187114734Y-113441648D01*
X187066089Y-113514450D01*
X187032582Y-113595344D01*
X187015500Y-113681221D01*
X186386700Y-113681221D01*
X186386700Y-111403096D01*
X186387990Y-111390000D01*
X186384302Y-111352555D01*
X186382841Y-111337718D01*
X186367590Y-111287445D01*
X186342826Y-111241113D01*
X186309498Y-111200502D01*
X186299321Y-111192150D01*
X185216700Y-110109530D01*
X185216700Y-109726221D01*
X185612900Y-109726221D01*
X185612900Y-109813779D01*
X185629982Y-109899656D01*
X185663489Y-109980550D01*
X185712134Y-110053352D01*
X185774048Y-110115266D01*
X185846850Y-110163911D01*
X185927744Y-110197418D01*
X186013621Y-110214500D01*
X186101179Y-110214500D01*
X186187056Y-110197418D01*
X186267950Y-110163911D01*
X186340752Y-110115266D01*
X186402666Y-110053352D01*
X186451311Y-109980550D01*
X186484818Y-109899656D01*
X186501900Y-109813779D01*
X186501900Y-109726221D01*
X186484818Y-109640344D01*
X186451311Y-109559450D01*
X186402666Y-109486648D01*
X186340752Y-109424734D01*
X186267950Y-109376089D01*
X186187056Y-109342582D01*
X186101179Y-109325500D01*
X186013621Y-109325500D01*
X185927744Y-109342582D01*
X185846850Y-109376089D01*
X185774048Y-109424734D01*
X185712134Y-109486648D01*
X185663489Y-109559450D01*
X185629982Y-109640344D01*
X185612900Y-109726221D01*
X185216700Y-109726221D01*
X185216700Y-106086221D01*
X185345500Y-106086221D01*
X185345500Y-106173779D01*
X185362582Y-106259656D01*
X185396089Y-106340550D01*
X185444734Y-106413352D01*
X185506648Y-106475266D01*
X185579450Y-106523911D01*
X185660344Y-106557418D01*
X185746221Y-106574500D01*
X185833779Y-106574500D01*
X185919656Y-106557418D01*
X186000550Y-106523911D01*
X186073352Y-106475266D01*
X186135266Y-106413352D01*
X186183911Y-106340550D01*
X186217418Y-106259656D01*
X186234500Y-106173779D01*
X186234500Y-106154810D01*
X187097200Y-106154810D01*
X187098490Y-106167906D01*
X187098492Y-112163151D01*
X187097201Y-112176257D01*
X187099865Y-112203300D01*
X187102351Y-112228539D01*
X187117602Y-112278812D01*
X187142366Y-112325144D01*
X187175694Y-112365755D01*
X187185870Y-112374106D01*
X188463300Y-113651536D01*
X188463301Y-115333607D01*
X188446648Y-115344734D01*
X188384734Y-115406648D01*
X188336089Y-115479450D01*
X188302582Y-115560344D01*
X188285500Y-115646221D01*
X188285500Y-115733779D01*
X188302582Y-115819656D01*
X188336089Y-115900550D01*
X188384734Y-115973352D01*
X188446648Y-116035266D01*
X188519450Y-116083911D01*
X188600344Y-116117418D01*
X188686221Y-116134500D01*
X188773779Y-116134500D01*
X188859656Y-116117418D01*
X188940550Y-116083911D01*
X189013352Y-116035266D01*
X189075266Y-115973352D01*
X189123911Y-115900550D01*
X189157418Y-115819656D01*
X189174500Y-115733779D01*
X189174500Y-115720145D01*
X189240344Y-115747418D01*
X189326221Y-115764500D01*
X189413779Y-115764500D01*
X189499656Y-115747418D01*
X189558087Y-115723215D01*
X189555500Y-115736221D01*
X189555500Y-115823779D01*
X189572582Y-115909656D01*
X189606089Y-115990550D01*
X189654734Y-116063352D01*
X189716648Y-116125266D01*
X189789450Y-116173911D01*
X189870344Y-116207418D01*
X189956221Y-116224500D01*
X190043779Y-116224500D01*
X190129656Y-116207418D01*
X190210550Y-116173911D01*
X190283352Y-116125266D01*
X190345266Y-116063352D01*
X190393911Y-115990550D01*
X190427418Y-115909656D01*
X190444500Y-115823779D01*
X190444500Y-115736221D01*
X190427418Y-115650344D01*
X190393911Y-115569450D01*
X190345266Y-115496648D01*
X190283352Y-115434734D01*
X190266700Y-115423607D01*
X190266700Y-114393099D01*
X190267990Y-114380000D01*
X190262841Y-114327717D01*
X190247590Y-114277445D01*
X190222825Y-114231112D01*
X190197847Y-114200676D01*
X190189498Y-114190502D01*
X190179322Y-114182151D01*
X187936700Y-111939530D01*
X187936700Y-111216221D01*
X190825500Y-111216221D01*
X190825500Y-111303779D01*
X190842582Y-111389656D01*
X190876089Y-111470550D01*
X190924734Y-111543352D01*
X190986648Y-111605266D01*
X191059450Y-111653911D01*
X191140344Y-111687418D01*
X191226221Y-111704500D01*
X191313779Y-111704500D01*
X191399656Y-111687418D01*
X191480550Y-111653911D01*
X191553352Y-111605266D01*
X191615266Y-111543352D01*
X191663911Y-111470550D01*
X191697418Y-111389656D01*
X191714500Y-111303779D01*
X191714500Y-111216221D01*
X191710593Y-111196577D01*
X193479322Y-109427849D01*
X193489498Y-109419498D01*
X193522826Y-109378887D01*
X193547590Y-109332555D01*
X193557804Y-109298887D01*
X193562841Y-109282283D01*
X193567990Y-109230000D01*
X193566700Y-109216901D01*
X193566700Y-103396393D01*
X193583352Y-103385266D01*
X193603300Y-103365318D01*
X193603301Y-109809528D01*
X192603422Y-110809407D01*
X192583779Y-110805500D01*
X192496221Y-110805500D01*
X192410344Y-110822582D01*
X192329450Y-110856089D01*
X192256648Y-110904734D01*
X192194734Y-110966648D01*
X192146089Y-111039450D01*
X192112582Y-111120344D01*
X192095500Y-111206221D01*
X192095500Y-111293779D01*
X192112582Y-111379656D01*
X192146089Y-111460550D01*
X192194734Y-111533352D01*
X192256648Y-111595266D01*
X192329450Y-111643911D01*
X192410344Y-111677418D01*
X192496221Y-111694500D01*
X192583779Y-111694500D01*
X192669656Y-111677418D01*
X192750550Y-111643911D01*
X192823352Y-111595266D01*
X192885266Y-111533352D01*
X192933911Y-111460550D01*
X192967418Y-111379656D01*
X192984500Y-111293779D01*
X192984500Y-111206221D01*
X192980593Y-111186578D01*
X194049321Y-110117850D01*
X194059498Y-110109498D01*
X194092826Y-110068887D01*
X194117590Y-110022555D01*
X194132841Y-109972282D01*
X194136700Y-109933098D01*
X194136700Y-109933097D01*
X194137990Y-109920001D01*
X194136700Y-109906905D01*
X194136700Y-102613096D01*
X194137990Y-102600000D01*
X194135648Y-102576221D01*
X194132841Y-102547718D01*
X194122466Y-102513519D01*
X194146089Y-102570550D01*
X194194734Y-102643352D01*
X194256648Y-102705266D01*
X194329450Y-102753911D01*
X194410344Y-102787418D01*
X194496221Y-102804500D01*
X194583779Y-102804500D01*
X194669656Y-102787418D01*
X194750550Y-102753911D01*
X194823352Y-102705266D01*
X194885266Y-102643352D01*
X194933911Y-102570550D01*
X194967418Y-102489656D01*
X194984500Y-102403779D01*
X194984500Y-102316221D01*
X194967418Y-102230344D01*
X194933911Y-102149450D01*
X194885266Y-102076648D01*
X194823352Y-102014734D01*
X194750550Y-101966089D01*
X194669656Y-101932582D01*
X194583779Y-101915500D01*
X194496221Y-101915500D01*
X194410344Y-101932582D01*
X194329450Y-101966089D01*
X194256648Y-102014734D01*
X194194734Y-102076648D01*
X194146089Y-102149450D01*
X194112582Y-102230344D01*
X194095500Y-102316221D01*
X194095500Y-102403779D01*
X194112081Y-102487138D01*
X194092826Y-102451113D01*
X194059498Y-102410502D01*
X194049321Y-102402150D01*
X194020593Y-102373422D01*
X194024500Y-102353779D01*
X194024500Y-102266221D01*
X194007418Y-102180344D01*
X193973911Y-102099450D01*
X193925266Y-102026648D01*
X193863352Y-101964734D01*
X193790550Y-101916089D01*
X193709656Y-101882582D01*
X193623779Y-101865500D01*
X193536221Y-101865500D01*
X193450344Y-101882582D01*
X193369450Y-101916089D01*
X193296648Y-101964734D01*
X193234734Y-102026648D01*
X193186089Y-102099450D01*
X193152582Y-102180344D01*
X193135500Y-102266221D01*
X193135500Y-102353779D01*
X193152582Y-102439656D01*
X193186089Y-102520550D01*
X193234734Y-102593352D01*
X193240091Y-102598709D01*
X193170344Y-102612582D01*
X193089450Y-102646089D01*
X193016648Y-102694734D01*
X192954734Y-102756648D01*
X192906089Y-102829450D01*
X192872582Y-102910344D01*
X192855500Y-102996221D01*
X192855500Y-103083779D01*
X192872582Y-103169656D01*
X192906089Y-103250550D01*
X192954734Y-103323352D01*
X193016648Y-103385266D01*
X193033300Y-103396393D01*
X193033300Y-105574682D01*
X193023352Y-105564734D01*
X192950550Y-105516089D01*
X192869656Y-105482582D01*
X192783779Y-105465500D01*
X192696221Y-105465500D01*
X192610344Y-105482582D01*
X192529450Y-105516089D01*
X192456648Y-105564734D01*
X192394734Y-105626648D01*
X192346089Y-105699450D01*
X192312582Y-105780344D01*
X192295500Y-105866221D01*
X192295500Y-105953779D01*
X192312582Y-106039656D01*
X192346089Y-106120550D01*
X192394734Y-106193352D01*
X192456648Y-106255266D01*
X192529450Y-106303911D01*
X192610344Y-106337418D01*
X192696221Y-106354500D01*
X192783779Y-106354500D01*
X192869656Y-106337418D01*
X192950550Y-106303911D01*
X193023352Y-106255266D01*
X193033301Y-106245317D01*
X193033301Y-109119528D01*
X191333423Y-110819407D01*
X191313779Y-110815500D01*
X191226221Y-110815500D01*
X191140344Y-110832582D01*
X191059450Y-110866089D01*
X190986648Y-110914734D01*
X190924734Y-110976648D01*
X190876089Y-111049450D01*
X190842582Y-111130344D01*
X190825500Y-111216221D01*
X187936700Y-111216221D01*
X187936700Y-109715318D01*
X187986648Y-109765266D01*
X188059450Y-109813911D01*
X188140344Y-109847418D01*
X188226221Y-109864500D01*
X188313779Y-109864500D01*
X188399656Y-109847418D01*
X188480550Y-109813911D01*
X188553352Y-109765266D01*
X188615266Y-109703352D01*
X188663911Y-109630550D01*
X188697418Y-109549656D01*
X188714500Y-109463779D01*
X188714500Y-109376221D01*
X188710593Y-109356578D01*
X189448522Y-108618649D01*
X189458699Y-108610297D01*
X189492027Y-108569686D01*
X189516791Y-108523354D01*
X189518857Y-108516545D01*
X189532042Y-108473082D01*
X189537191Y-108420799D01*
X189535901Y-108407700D01*
X189535901Y-103102447D01*
X189546221Y-103104500D01*
X189633779Y-103104500D01*
X189671082Y-103097080D01*
X189636089Y-103149450D01*
X189602582Y-103230344D01*
X189585500Y-103316221D01*
X189585500Y-103403779D01*
X189602582Y-103489656D01*
X189636089Y-103570550D01*
X189684734Y-103643352D01*
X189746648Y-103705266D01*
X189763300Y-103716393D01*
X189763301Y-110149528D01*
X189663422Y-110249407D01*
X189643779Y-110245500D01*
X189556221Y-110245500D01*
X189470344Y-110262582D01*
X189389450Y-110296089D01*
X189316648Y-110344734D01*
X189254734Y-110406648D01*
X189206089Y-110479450D01*
X189172582Y-110560344D01*
X189155500Y-110646221D01*
X189155500Y-110733779D01*
X189172582Y-110819656D01*
X189206089Y-110900550D01*
X189254734Y-110973352D01*
X189316648Y-111035266D01*
X189389450Y-111083911D01*
X189470344Y-111117418D01*
X189556221Y-111134500D01*
X189643779Y-111134500D01*
X189729656Y-111117418D01*
X189810550Y-111083911D01*
X189883352Y-111035266D01*
X189945266Y-110973352D01*
X189993911Y-110900550D01*
X190027418Y-110819656D01*
X190044500Y-110733779D01*
X190044500Y-110646221D01*
X190040593Y-110626578D01*
X190190950Y-110476221D01*
X190315500Y-110476221D01*
X190315500Y-110563779D01*
X190332582Y-110649656D01*
X190366089Y-110730550D01*
X190414734Y-110803352D01*
X190476648Y-110865266D01*
X190549450Y-110913911D01*
X190630344Y-110947418D01*
X190716221Y-110964500D01*
X190803779Y-110964500D01*
X190889656Y-110947418D01*
X190970550Y-110913911D01*
X191043352Y-110865266D01*
X191105266Y-110803352D01*
X191153911Y-110730550D01*
X191187418Y-110649656D01*
X191204500Y-110563779D01*
X191204500Y-110476221D01*
X191187418Y-110390344D01*
X191153911Y-110309450D01*
X191105266Y-110236648D01*
X191043352Y-110174734D01*
X191026700Y-110163607D01*
X191026700Y-104790470D01*
X191406578Y-104410593D01*
X191426221Y-104414500D01*
X191513779Y-104414500D01*
X191599656Y-104397418D01*
X191680550Y-104363911D01*
X191753352Y-104315266D01*
X191815266Y-104253352D01*
X191863911Y-104180550D01*
X191897418Y-104099656D01*
X191914500Y-104013779D01*
X191914500Y-103926221D01*
X191897418Y-103840344D01*
X191863911Y-103759450D01*
X191815266Y-103686648D01*
X191753352Y-103624734D01*
X191680550Y-103576089D01*
X191599656Y-103542582D01*
X191513779Y-103525500D01*
X191426221Y-103525500D01*
X191340344Y-103542582D01*
X191259450Y-103576089D01*
X191186648Y-103624734D01*
X191124734Y-103686648D01*
X191076089Y-103759450D01*
X191042582Y-103840344D01*
X191025500Y-103926221D01*
X191025500Y-104013779D01*
X191029407Y-104033422D01*
X190580679Y-104482151D01*
X190570503Y-104490502D01*
X190562153Y-104500677D01*
X190537175Y-104531113D01*
X190512411Y-104577445D01*
X190497160Y-104627718D01*
X190492010Y-104680000D01*
X190493301Y-104693106D01*
X190493300Y-110163607D01*
X190476648Y-110174734D01*
X190414734Y-110236648D01*
X190366089Y-110309450D01*
X190332582Y-110390344D01*
X190315500Y-110476221D01*
X190190950Y-110476221D01*
X190209321Y-110457850D01*
X190219498Y-110449498D01*
X190252826Y-110408887D01*
X190274206Y-110368887D01*
X190277590Y-110362556D01*
X190282996Y-110344734D01*
X190292841Y-110312282D01*
X190296700Y-110273098D01*
X190296700Y-110273096D01*
X190297990Y-110260000D01*
X190296700Y-110246904D01*
X190296700Y-103716393D01*
X190313352Y-103705266D01*
X190375266Y-103643352D01*
X190423911Y-103570550D01*
X190457418Y-103489656D01*
X190474500Y-103403779D01*
X190474500Y-103316221D01*
X190457418Y-103230344D01*
X190423911Y-103149450D01*
X190375266Y-103076648D01*
X190313352Y-103014734D01*
X190240550Y-102966089D01*
X190159656Y-102932582D01*
X190073779Y-102915500D01*
X189986221Y-102915500D01*
X189948918Y-102922920D01*
X189983911Y-102870550D01*
X190017418Y-102789656D01*
X190034500Y-102703779D01*
X190034500Y-102616221D01*
X190026544Y-102576221D01*
X190215500Y-102576221D01*
X190215500Y-102663779D01*
X190232582Y-102749656D01*
X190266089Y-102830550D01*
X190314734Y-102903352D01*
X190376648Y-102965266D01*
X190449450Y-103013911D01*
X190530344Y-103047418D01*
X190616221Y-103064500D01*
X190703779Y-103064500D01*
X190789656Y-103047418D01*
X190870550Y-103013911D01*
X190943352Y-102965266D01*
X191005266Y-102903352D01*
X191053911Y-102830550D01*
X191087418Y-102749656D01*
X191104500Y-102663779D01*
X191104500Y-102576221D01*
X191087418Y-102490344D01*
X191053911Y-102409450D01*
X191005266Y-102336648D01*
X190943352Y-102274734D01*
X190870550Y-102226089D01*
X190789656Y-102192582D01*
X190703779Y-102175500D01*
X190616221Y-102175500D01*
X190530344Y-102192582D01*
X190449450Y-102226089D01*
X190376648Y-102274734D01*
X190314734Y-102336648D01*
X190266089Y-102409450D01*
X190232582Y-102490344D01*
X190215500Y-102576221D01*
X190026544Y-102576221D01*
X190017418Y-102530344D01*
X189983911Y-102449450D01*
X189935266Y-102376648D01*
X189873352Y-102314734D01*
X189800550Y-102266089D01*
X189719656Y-102232582D01*
X189633779Y-102215500D01*
X189546221Y-102215500D01*
X189460344Y-102232582D01*
X189379450Y-102266089D01*
X189306648Y-102314734D01*
X189244734Y-102376648D01*
X189196089Y-102449450D01*
X189162582Y-102530344D01*
X189145500Y-102616221D01*
X189145500Y-102703779D01*
X189149407Y-102723423D01*
X189089880Y-102782950D01*
X189079704Y-102791301D01*
X189071354Y-102801476D01*
X189046376Y-102831912D01*
X189021612Y-102878244D01*
X189006361Y-102928517D01*
X189001211Y-102980799D01*
X189002502Y-102993905D01*
X189002502Y-105650757D01*
X188980550Y-105636089D01*
X188899656Y-105602582D01*
X188813779Y-105585500D01*
X188726221Y-105585500D01*
X188640344Y-105602582D01*
X188559450Y-105636089D01*
X188486648Y-105684734D01*
X188424734Y-105746648D01*
X188380509Y-105812835D01*
X188310550Y-105766089D01*
X188229656Y-105732582D01*
X188175384Y-105721787D01*
X188689321Y-105207850D01*
X188699498Y-105199498D01*
X188732826Y-105158887D01*
X188744353Y-105137320D01*
X188757590Y-105112556D01*
X188766604Y-105082840D01*
X188772841Y-105062282D01*
X188776700Y-105023098D01*
X188776700Y-105023096D01*
X188777990Y-105010000D01*
X188776700Y-104996904D01*
X188776700Y-103593096D01*
X188777990Y-103580000D01*
X188775145Y-103551113D01*
X188772841Y-103527718D01*
X188757590Y-103477445D01*
X188732826Y-103431113D01*
X188699498Y-103390502D01*
X188689321Y-103382150D01*
X188347854Y-103040684D01*
X188339498Y-103030502D01*
X188298887Y-102997174D01*
X188252555Y-102972410D01*
X188202282Y-102957159D01*
X188163098Y-102953300D01*
X188163096Y-102953300D01*
X188150000Y-102952010D01*
X188136904Y-102953300D01*
X188096393Y-102953300D01*
X188085266Y-102936648D01*
X188023352Y-102874734D01*
X187950550Y-102826089D01*
X187869656Y-102792582D01*
X187783779Y-102775500D01*
X187696221Y-102775500D01*
X187610344Y-102792582D01*
X187529450Y-102826089D01*
X187456648Y-102874734D01*
X187394734Y-102936648D01*
X187346089Y-103009450D01*
X187312582Y-103090344D01*
X187295500Y-103176221D01*
X187295500Y-103263779D01*
X187312582Y-103349656D01*
X187346089Y-103430550D01*
X187394734Y-103503352D01*
X187456648Y-103565266D01*
X187529450Y-103613911D01*
X187610344Y-103647418D01*
X187696221Y-103664500D01*
X187783779Y-103664500D01*
X187869656Y-103647418D01*
X187950550Y-103613911D01*
X188023352Y-103565266D01*
X188070724Y-103517894D01*
X188243300Y-103690471D01*
X188243301Y-104899528D01*
X187185868Y-105956962D01*
X187175692Y-105965313D01*
X187142364Y-106005924D01*
X187117600Y-106052256D01*
X187102349Y-106102529D01*
X187098490Y-106141712D01*
X187097200Y-106154810D01*
X186234500Y-106154810D01*
X186234500Y-106086221D01*
X186217418Y-106000344D01*
X186183911Y-105919450D01*
X186135266Y-105846648D01*
X186073352Y-105784734D01*
X186000550Y-105736089D01*
X185919656Y-105702582D01*
X185833779Y-105685500D01*
X185746221Y-105685500D01*
X185660344Y-105702582D01*
X185579450Y-105736089D01*
X185506648Y-105784734D01*
X185444734Y-105846648D01*
X185396089Y-105919450D01*
X185362582Y-106000344D01*
X185345500Y-106086221D01*
X185216700Y-106086221D01*
X185216700Y-103810470D01*
X185530470Y-103496700D01*
X185683607Y-103496700D01*
X185694734Y-103513352D01*
X185756648Y-103575266D01*
X185829450Y-103623911D01*
X185910344Y-103657418D01*
X185996221Y-103674500D01*
X186083779Y-103674500D01*
X186169656Y-103657418D01*
X186250550Y-103623911D01*
X186323352Y-103575266D01*
X186385266Y-103513352D01*
X186433911Y-103440550D01*
X186467418Y-103359656D01*
X186484500Y-103273779D01*
X186484500Y-103186221D01*
X186467418Y-103100344D01*
X186433911Y-103019450D01*
X186385266Y-102946648D01*
X186376637Y-102938019D01*
X186379656Y-102937418D01*
X186460550Y-102903911D01*
X186533352Y-102855266D01*
X186595266Y-102793352D01*
X186643911Y-102720550D01*
X186677418Y-102639656D01*
X186694500Y-102553779D01*
X186694500Y-102496221D01*
X187985500Y-102496221D01*
X187985500Y-102583779D01*
X188002582Y-102669656D01*
X188036089Y-102750550D01*
X188084734Y-102823352D01*
X188146648Y-102885266D01*
X188219450Y-102933911D01*
X188300344Y-102967418D01*
X188386221Y-102984500D01*
X188473779Y-102984500D01*
X188559656Y-102967418D01*
X188640550Y-102933911D01*
X188713352Y-102885266D01*
X188775266Y-102823352D01*
X188823911Y-102750550D01*
X188857418Y-102669656D01*
X188874500Y-102583779D01*
X188874500Y-102496221D01*
X188857418Y-102410344D01*
X188823911Y-102329450D01*
X188775266Y-102256648D01*
X188713352Y-102194734D01*
X188640550Y-102146089D01*
X188559656Y-102112582D01*
X188473779Y-102095500D01*
X188386221Y-102095500D01*
X188300344Y-102112582D01*
X188219450Y-102146089D01*
X188146648Y-102194734D01*
X188084734Y-102256648D01*
X188036089Y-102329450D01*
X188002582Y-102410344D01*
X187985500Y-102496221D01*
X186694500Y-102496221D01*
X186694500Y-102466221D01*
X186677418Y-102380344D01*
X186643911Y-102299450D01*
X186595266Y-102226648D01*
X186533352Y-102164734D01*
X186460550Y-102116089D01*
X186379656Y-102082582D01*
X186293779Y-102065500D01*
X186206221Y-102065500D01*
X186138125Y-102079045D01*
X186760949Y-101456221D01*
X193555500Y-101456221D01*
X193555500Y-101543779D01*
X193572582Y-101629656D01*
X193606089Y-101710550D01*
X193654734Y-101783352D01*
X193716648Y-101845266D01*
X193789450Y-101893911D01*
X193870344Y-101927418D01*
X193956221Y-101944500D01*
X194043779Y-101944500D01*
X194129656Y-101927418D01*
X194210550Y-101893911D01*
X194283352Y-101845266D01*
X194345266Y-101783352D01*
X194393911Y-101710550D01*
X194427418Y-101629656D01*
X194444500Y-101543779D01*
X194444500Y-101456221D01*
X194427418Y-101370344D01*
X194393911Y-101289450D01*
X194345266Y-101216648D01*
X194283352Y-101154734D01*
X194210550Y-101106089D01*
X194129656Y-101072582D01*
X194043779Y-101055500D01*
X193956221Y-101055500D01*
X193870344Y-101072582D01*
X193789450Y-101106089D01*
X193716648Y-101154734D01*
X193654734Y-101216648D01*
X193606089Y-101289450D01*
X193572582Y-101370344D01*
X193555500Y-101456221D01*
X186760949Y-101456221D01*
X188940949Y-99276221D01*
X193125500Y-99276221D01*
X193125500Y-99363779D01*
X193142582Y-99449656D01*
X193176089Y-99530550D01*
X193224734Y-99603352D01*
X193286648Y-99665266D01*
X193359450Y-99713911D01*
X193440344Y-99747418D01*
X193526221Y-99764500D01*
X193613779Y-99764500D01*
X193699656Y-99747418D01*
X193780550Y-99713911D01*
X193853352Y-99665266D01*
X193915266Y-99603352D01*
X193926393Y-99586700D01*
X194368464Y-99586700D01*
X195843300Y-101061537D01*
X195843300Y-103354682D01*
X195793352Y-103304734D01*
X195720550Y-103256089D01*
X195639656Y-103222582D01*
X195553779Y-103205500D01*
X195466221Y-103205500D01*
X195380344Y-103222582D01*
X195299450Y-103256089D01*
X195226648Y-103304734D01*
X195164734Y-103366648D01*
X195116089Y-103439450D01*
X195082582Y-103520344D01*
X195065500Y-103606221D01*
X195065500Y-103693779D01*
X195082582Y-103779656D01*
X195116089Y-103860550D01*
X195164734Y-103933352D01*
X195226648Y-103995266D01*
X195299450Y-104043911D01*
X195380344Y-104077418D01*
X195466221Y-104094500D01*
X195553779Y-104094500D01*
X195639656Y-104077418D01*
X195720550Y-104043911D01*
X195793352Y-103995266D01*
X195843300Y-103945318D01*
X195843301Y-111686894D01*
X195842010Y-111700000D01*
X195847160Y-111752282D01*
X195862411Y-111802555D01*
X195887175Y-111848887D01*
X195920503Y-111889498D01*
X195930679Y-111897849D01*
X200743300Y-116710471D01*
X200743301Y-117388018D01*
X200680550Y-117346089D01*
X200599656Y-117312582D01*
X200513779Y-117295500D01*
X200426221Y-117295500D01*
X200340344Y-117312582D01*
X200259450Y-117346089D01*
X200186648Y-117394734D01*
X200124734Y-117456648D01*
X200076089Y-117529450D01*
X200042582Y-117610344D01*
X200025500Y-117696221D01*
X200025500Y-117783779D01*
X200042582Y-117869656D01*
X200076089Y-117950550D01*
X200124734Y-118023352D01*
X200186648Y-118085266D01*
X200259450Y-118133911D01*
X200340344Y-118167418D01*
X200426221Y-118184500D01*
X200506882Y-118184500D01*
X200474734Y-118216648D01*
X200426089Y-118289450D01*
X200392582Y-118370344D01*
X200375500Y-118456221D01*
X200375500Y-118543779D01*
X200392582Y-118629656D01*
X200426089Y-118710550D01*
X200474734Y-118783352D01*
X200536648Y-118845266D01*
X200609450Y-118893911D01*
X200690344Y-118927418D01*
X200776221Y-118944500D01*
X200863779Y-118944500D01*
X200949656Y-118927418D01*
X201030550Y-118893911D01*
X201103352Y-118845266D01*
X201165266Y-118783352D01*
X201213911Y-118710550D01*
X201225047Y-118683665D01*
X201226648Y-118685266D01*
X201299450Y-118733911D01*
X201380344Y-118767418D01*
X201466221Y-118784500D01*
X201553779Y-118784500D01*
X201639656Y-118767418D01*
X201720550Y-118733911D01*
X201793352Y-118685266D01*
X201855266Y-118623352D01*
X201903911Y-118550550D01*
X201937418Y-118469656D01*
X201954500Y-118383779D01*
X201954500Y-118296221D01*
X201937418Y-118210344D01*
X201903911Y-118129450D01*
X201855266Y-118056648D01*
X201793352Y-117994734D01*
X201788655Y-117991595D01*
X201809656Y-117987418D01*
X201890550Y-117953911D01*
X201963352Y-117905266D01*
X202025266Y-117843352D01*
X202073911Y-117770550D01*
X202107418Y-117689656D01*
X202124500Y-117603779D01*
X202124500Y-117516221D01*
X202107418Y-117430344D01*
X202073911Y-117349450D01*
X202025266Y-117276648D01*
X201963352Y-117214734D01*
X201946700Y-117203607D01*
X201946700Y-116852029D01*
X201947990Y-116838933D01*
X201943943Y-116797846D01*
X201942841Y-116786652D01*
X201927590Y-116736379D01*
X201902826Y-116690047D01*
X201869498Y-116649436D01*
X201859316Y-116641080D01*
X196681510Y-111463274D01*
X196681510Y-107892595D01*
X200659500Y-107892595D01*
X200659500Y-108107405D01*
X200701408Y-108318087D01*
X200783612Y-108516545D01*
X200902954Y-108695153D01*
X201054847Y-108847046D01*
X201233455Y-108966388D01*
X201431913Y-109048592D01*
X201642595Y-109090500D01*
X201857405Y-109090500D01*
X202068087Y-109048592D01*
X202266545Y-108966388D01*
X202445153Y-108847046D01*
X202597046Y-108695153D01*
X202716388Y-108516545D01*
X202798592Y-108318087D01*
X202840500Y-108107405D01*
X202840500Y-107892595D01*
X202798592Y-107681913D01*
X202716388Y-107483455D01*
X202597046Y-107304847D01*
X202445153Y-107152954D01*
X202266545Y-107033612D01*
X202068087Y-106951408D01*
X201857405Y-106909500D01*
X201642595Y-106909500D01*
X201431913Y-106951408D01*
X201233455Y-107033612D01*
X201054847Y-107152954D01*
X200902954Y-107304847D01*
X200783612Y-107483455D01*
X200701408Y-107681913D01*
X200659500Y-107892595D01*
X196681510Y-107892595D01*
X196681510Y-105853712D01*
X197718500Y-105853712D01*
X197718500Y-105966288D01*
X197740463Y-106076700D01*
X197783543Y-106180707D01*
X197846087Y-106274310D01*
X197925690Y-106353913D01*
X198019293Y-106416457D01*
X198123300Y-106459537D01*
X198233712Y-106481500D01*
X198346288Y-106481500D01*
X198456700Y-106459537D01*
X198560707Y-106416457D01*
X198654310Y-106353913D01*
X198733913Y-106274310D01*
X198796457Y-106180707D01*
X198839537Y-106076700D01*
X198861500Y-105966288D01*
X198861500Y-105853712D01*
X198839537Y-105743300D01*
X198796457Y-105639293D01*
X198733913Y-105545690D01*
X198654310Y-105466087D01*
X198560707Y-105403543D01*
X198456700Y-105360463D01*
X198346288Y-105338500D01*
X198233712Y-105338500D01*
X198123300Y-105360463D01*
X198019293Y-105403543D01*
X197925690Y-105466087D01*
X197846087Y-105545690D01*
X197783543Y-105639293D01*
X197740463Y-105743300D01*
X197718500Y-105853712D01*
X196681510Y-105853712D01*
X196681510Y-104336221D01*
X200125500Y-104336221D01*
X200125500Y-104423779D01*
X200142582Y-104509656D01*
X200176089Y-104590550D01*
X200224734Y-104663352D01*
X200286648Y-104725266D01*
X200359450Y-104773911D01*
X200440344Y-104807418D01*
X200526221Y-104824500D01*
X200613779Y-104824500D01*
X200699656Y-104807418D01*
X200780550Y-104773911D01*
X200853352Y-104725266D01*
X200915266Y-104663352D01*
X200963911Y-104590550D01*
X200997418Y-104509656D01*
X201014500Y-104423779D01*
X201014500Y-104336221D01*
X200997418Y-104250344D01*
X200963911Y-104169450D01*
X200915266Y-104096648D01*
X200853352Y-104034734D01*
X200780550Y-103986089D01*
X200699656Y-103952582D01*
X200613779Y-103935500D01*
X200526221Y-103935500D01*
X200440344Y-103952582D01*
X200359450Y-103986089D01*
X200286648Y-104034734D01*
X200224734Y-104096648D01*
X200176089Y-104169450D01*
X200142582Y-104250344D01*
X200125500Y-104336221D01*
X196681510Y-104336221D01*
X196681510Y-100837909D01*
X196682800Y-100824810D01*
X196677651Y-100772527D01*
X196662400Y-100722255D01*
X196654397Y-100707282D01*
X196637636Y-100675923D01*
X196604308Y-100635312D01*
X196594132Y-100626961D01*
X194307854Y-98340684D01*
X194299498Y-98330502D01*
X194258887Y-98297174D01*
X194212555Y-98272410D01*
X194162282Y-98257159D01*
X194123098Y-98253300D01*
X194123096Y-98253300D01*
X194110000Y-98252010D01*
X194096904Y-98253300D01*
X194006393Y-98253300D01*
X193995266Y-98236648D01*
X193933352Y-98174734D01*
X193860550Y-98126089D01*
X193779656Y-98092582D01*
X193693779Y-98075500D01*
X193606221Y-98075500D01*
X193520344Y-98092582D01*
X193439450Y-98126089D01*
X193366648Y-98174734D01*
X193304734Y-98236648D01*
X193256089Y-98309450D01*
X193222582Y-98390344D01*
X193205500Y-98476221D01*
X193205500Y-98563779D01*
X193222582Y-98649656D01*
X193256089Y-98730550D01*
X193304734Y-98803352D01*
X193366648Y-98865266D01*
X193420087Y-98900973D01*
X193359450Y-98926089D01*
X193286648Y-98974734D01*
X193224734Y-99036648D01*
X193176089Y-99109450D01*
X193142582Y-99190344D01*
X193125500Y-99276221D01*
X188940949Y-99276221D01*
X189830470Y-98386700D01*
X190233607Y-98386700D01*
X190244734Y-98403352D01*
X190306648Y-98465266D01*
X190379450Y-98513911D01*
X190460344Y-98547418D01*
X190546221Y-98564500D01*
X190633779Y-98564500D01*
X190719656Y-98547418D01*
X190800550Y-98513911D01*
X190873352Y-98465266D01*
X190935266Y-98403352D01*
X190983911Y-98330550D01*
X191017418Y-98249656D01*
X191034500Y-98163779D01*
X191034500Y-98076221D01*
X191017418Y-97990344D01*
X190983911Y-97909450D01*
X190935266Y-97836648D01*
X190873352Y-97774734D01*
X190800550Y-97726089D01*
X190719656Y-97692582D01*
X190633779Y-97675500D01*
X190546221Y-97675500D01*
X190460344Y-97692582D01*
X190379450Y-97726089D01*
X190306648Y-97774734D01*
X190244734Y-97836648D01*
X190233607Y-97853300D01*
X189733095Y-97853300D01*
X189719999Y-97852010D01*
X189706903Y-97853300D01*
X189706902Y-97853300D01*
X189667718Y-97857159D01*
X189617445Y-97872410D01*
X189571113Y-97897174D01*
X189530502Y-97930502D01*
X189522146Y-97940684D01*
X185866700Y-101596130D01*
X185866700Y-101416393D01*
X185883352Y-101405266D01*
X185945266Y-101343352D01*
X185993911Y-101270550D01*
X186027418Y-101189656D01*
X186044500Y-101103779D01*
X186044500Y-101016221D01*
X186027418Y-100930344D01*
X185993911Y-100849450D01*
X185945266Y-100776648D01*
X185883352Y-100714734D01*
X185810550Y-100666089D01*
X185729656Y-100632582D01*
X185643779Y-100615500D01*
X185556221Y-100615500D01*
X185470344Y-100632582D01*
X185389450Y-100666089D01*
X185316648Y-100714734D01*
X185274500Y-100756882D01*
X185274500Y-100676221D01*
X185257418Y-100590344D01*
X185223911Y-100509450D01*
X185175266Y-100436648D01*
X185113352Y-100374734D01*
X185040550Y-100326089D01*
X184959656Y-100292582D01*
X184873779Y-100275500D01*
X184786221Y-100275500D01*
X184700344Y-100292582D01*
X184619450Y-100326089D01*
X184546648Y-100374734D01*
X184484734Y-100436648D01*
X184436089Y-100509450D01*
X184402582Y-100590344D01*
X184385500Y-100676221D01*
X184385500Y-100763779D01*
X184402582Y-100849656D01*
X184436089Y-100930550D01*
X184484734Y-101003352D01*
X184546648Y-101065266D01*
X184563300Y-101076393D01*
X184563301Y-102028462D01*
X181771889Y-104819875D01*
X181771889Y-102526221D01*
X181915500Y-102526221D01*
X181915500Y-102613779D01*
X181932582Y-102699656D01*
X181966089Y-102780550D01*
X182014734Y-102853352D01*
X182076648Y-102915266D01*
X182149450Y-102963911D01*
X182230344Y-102997418D01*
X182316221Y-103014500D01*
X182403779Y-103014500D01*
X182489656Y-102997418D01*
X182570550Y-102963911D01*
X182643352Y-102915266D01*
X182705266Y-102853352D01*
X182753911Y-102780550D01*
X182787418Y-102699656D01*
X182804500Y-102613779D01*
X182804500Y-102526221D01*
X182787418Y-102440344D01*
X182753911Y-102359450D01*
X182705266Y-102286648D01*
X182643352Y-102224734D01*
X182570550Y-102176089D01*
X182489656Y-102142582D01*
X182403779Y-102125500D01*
X182316221Y-102125500D01*
X182230344Y-102142582D01*
X182149450Y-102176089D01*
X182076648Y-102224734D01*
X182014734Y-102286648D01*
X181966089Y-102359450D01*
X181932582Y-102440344D01*
X181915500Y-102526221D01*
X181771889Y-102526221D01*
X181771889Y-101896221D01*
X183525500Y-101896221D01*
X183525500Y-101983779D01*
X183542582Y-102069656D01*
X183576089Y-102150550D01*
X183624734Y-102223352D01*
X183686648Y-102285266D01*
X183759450Y-102333911D01*
X183840344Y-102367418D01*
X183926221Y-102384500D01*
X184013779Y-102384500D01*
X184099656Y-102367418D01*
X184180550Y-102333911D01*
X184253352Y-102285266D01*
X184315266Y-102223352D01*
X184363911Y-102150550D01*
X184397418Y-102069656D01*
X184414500Y-101983779D01*
X184414500Y-101896221D01*
X184397418Y-101810344D01*
X184363911Y-101729450D01*
X184315266Y-101656648D01*
X184253352Y-101594734D01*
X184180550Y-101546089D01*
X184099656Y-101512582D01*
X184013779Y-101495500D01*
X183926221Y-101495500D01*
X183840344Y-101512582D01*
X183759450Y-101546089D01*
X183686648Y-101594734D01*
X183624734Y-101656648D01*
X183576089Y-101729450D01*
X183542582Y-101810344D01*
X183525500Y-101896221D01*
X181771889Y-101896221D01*
X181771889Y-100739230D01*
X181814734Y-100803352D01*
X181876648Y-100865266D01*
X181949450Y-100913911D01*
X182030344Y-100947418D01*
X182116221Y-100964500D01*
X182203779Y-100964500D01*
X182289656Y-100947418D01*
X182370550Y-100913911D01*
X182443352Y-100865266D01*
X182505266Y-100803352D01*
X182553911Y-100730550D01*
X182587418Y-100649656D01*
X182604500Y-100563779D01*
X182604500Y-100476221D01*
X182587418Y-100390344D01*
X182553911Y-100309450D01*
X182505266Y-100236648D01*
X182459693Y-100191075D01*
X182483352Y-100175266D01*
X182545266Y-100113352D01*
X182593911Y-100040550D01*
X182627418Y-99959656D01*
X182644500Y-99873779D01*
X182644500Y-99786221D01*
X182627418Y-99700344D01*
X182593911Y-99619450D01*
X182545266Y-99546648D01*
X182483352Y-99484734D01*
X182410550Y-99436089D01*
X182329656Y-99402582D01*
X182243779Y-99385500D01*
X182156221Y-99385500D01*
X182070344Y-99402582D01*
X181989450Y-99436089D01*
X181916648Y-99484734D01*
X181854734Y-99546648D01*
X181806089Y-99619450D01*
X181772582Y-99700344D01*
X181771889Y-99703828D01*
X181771889Y-97495281D01*
X182180470Y-97086700D01*
X182625500Y-97086700D01*
X182625500Y-97153779D01*
X182642582Y-97239656D01*
X182676089Y-97320550D01*
X182724734Y-97393352D01*
X182786648Y-97455266D01*
X182859450Y-97503911D01*
X182940344Y-97537418D01*
X183026221Y-97554500D01*
X183113779Y-97554500D01*
X183199656Y-97537418D01*
X183280550Y-97503911D01*
X183353352Y-97455266D01*
X183415266Y-97393352D01*
X183463911Y-97320550D01*
X183497418Y-97239656D01*
X183514500Y-97153779D01*
X183514500Y-97066221D01*
X183497418Y-96980344D01*
X183463911Y-96899450D01*
X183415266Y-96826648D01*
X183353352Y-96764734D01*
X183280550Y-96716089D01*
X183199656Y-96682582D01*
X183113779Y-96665500D01*
X183026221Y-96665500D01*
X183006577Y-96669407D01*
X182977854Y-96640684D01*
X182969498Y-96630502D01*
X182928887Y-96597174D01*
X182882555Y-96572410D01*
X182832282Y-96557159D01*
X182793098Y-96553300D01*
X182793096Y-96553300D01*
X182780000Y-96552010D01*
X182766904Y-96553300D01*
X182083095Y-96553300D01*
X182069999Y-96552010D01*
X182056903Y-96553300D01*
X182056902Y-96553300D01*
X182017718Y-96557159D01*
X181967445Y-96572410D01*
X181921113Y-96597174D01*
X181880502Y-96630502D01*
X181872146Y-96640684D01*
X181325873Y-97186957D01*
X181315691Y-97195313D01*
X181282363Y-97235924D01*
X181257599Y-97282257D01*
X181242348Y-97332530D01*
X181239880Y-97357589D01*
X181237199Y-97384811D01*
X181238489Y-97397907D01*
X181238489Y-100381318D01*
X179506700Y-98649530D01*
X179506700Y-98000470D01*
X179696578Y-97810593D01*
X179716221Y-97814500D01*
X179803779Y-97814500D01*
X179889656Y-97797418D01*
X179970550Y-97763911D01*
X180043352Y-97715266D01*
X180105266Y-97653352D01*
X180153911Y-97580550D01*
X180187418Y-97499656D01*
X180204500Y-97413779D01*
X180204500Y-97326221D01*
X180187418Y-97240344D01*
X180153911Y-97159450D01*
X180105266Y-97086648D01*
X180043352Y-97024734D01*
X179970550Y-96976089D01*
X179889656Y-96942582D01*
X179803779Y-96925500D01*
X179716221Y-96925500D01*
X179630344Y-96942582D01*
X179549450Y-96976089D01*
X179476648Y-97024734D01*
X179414734Y-97086648D01*
X179366089Y-97159450D01*
X179332582Y-97240344D01*
X179315500Y-97326221D01*
X179315500Y-97413779D01*
X179319407Y-97433422D01*
X179060684Y-97692146D01*
X179050502Y-97700502D01*
X179017174Y-97741113D01*
X178992410Y-97787446D01*
X178977159Y-97837719D01*
X178973300Y-97876902D01*
X178972010Y-97890000D01*
X178973300Y-97903096D01*
X178973301Y-98746894D01*
X178972010Y-98760000D01*
X178977160Y-98812282D01*
X178992411Y-98862555D01*
X179017175Y-98908887D01*
X179050503Y-98949498D01*
X179060679Y-98957849D01*
X180933679Y-100830850D01*
X180933680Y-107269150D01*
X178845870Y-109356960D01*
X178835694Y-109365311D01*
X178827344Y-109375486D01*
X178802366Y-109405922D01*
X178777602Y-109452254D01*
X178762351Y-109502527D01*
X178757201Y-109554809D01*
X178758492Y-109567915D01*
X178758490Y-124454334D01*
X178728704Y-124441996D01*
X178590471Y-124414500D01*
X178449529Y-124414500D01*
X178311296Y-124441996D01*
X178181084Y-124495932D01*
X178063895Y-124574235D01*
X177964235Y-124673895D01*
X177885932Y-124791084D01*
X177831996Y-124921296D01*
X177804500Y-125059529D01*
X177364292Y-125059529D01*
X176215500Y-123910738D01*
X176215500Y-120806916D01*
X177209500Y-120806916D01*
X177209500Y-120933084D01*
X177234114Y-121056827D01*
X177282396Y-121173390D01*
X177352491Y-121278295D01*
X177441705Y-121367509D01*
X177546610Y-121437604D01*
X177663173Y-121485886D01*
X177786916Y-121510500D01*
X177913084Y-121510500D01*
X178036827Y-121485886D01*
X178153390Y-121437604D01*
X178258295Y-121367509D01*
X178347509Y-121278295D01*
X178417604Y-121173390D01*
X178465886Y-121056827D01*
X178490500Y-120933084D01*
X178490500Y-120806916D01*
X178465886Y-120683173D01*
X178417604Y-120566610D01*
X178347509Y-120461705D01*
X178258295Y-120372491D01*
X178153390Y-120302396D01*
X178036827Y-120254114D01*
X177913084Y-120229500D01*
X177786916Y-120229500D01*
X177663173Y-120254114D01*
X177546610Y-120302396D01*
X177441705Y-120372491D01*
X177352491Y-120461705D01*
X177282396Y-120566610D01*
X177234114Y-120683173D01*
X177209500Y-120806916D01*
X176215500Y-120806916D01*
X176215500Y-117806916D01*
X177209500Y-117806916D01*
X177209500Y-117933084D01*
X177234114Y-118056827D01*
X177282396Y-118173390D01*
X177352491Y-118278295D01*
X177441705Y-118367509D01*
X177546610Y-118437604D01*
X177663173Y-118485886D01*
X177786916Y-118510500D01*
X177913084Y-118510500D01*
X178036827Y-118485886D01*
X178153390Y-118437604D01*
X178258295Y-118367509D01*
X178347509Y-118278295D01*
X178417604Y-118173390D01*
X178465886Y-118056827D01*
X178490500Y-117933084D01*
X178490500Y-117806916D01*
X178465886Y-117683173D01*
X178417604Y-117566610D01*
X178347509Y-117461705D01*
X178258295Y-117372491D01*
X178153390Y-117302396D01*
X178036827Y-117254114D01*
X177913084Y-117229500D01*
X177786916Y-117229500D01*
X177663173Y-117254114D01*
X177546610Y-117302396D01*
X177441705Y-117372491D01*
X177352491Y-117461705D01*
X177282396Y-117566610D01*
X177234114Y-117683173D01*
X177209500Y-117806916D01*
X176215500Y-117806916D01*
X176215500Y-107892595D01*
X177159500Y-107892595D01*
X177159500Y-108107405D01*
X177201408Y-108318087D01*
X177283612Y-108516545D01*
X177402954Y-108695153D01*
X177554847Y-108847046D01*
X177733455Y-108966388D01*
X177931913Y-109048592D01*
X178142595Y-109090500D01*
X178357405Y-109090500D01*
X178568087Y-109048592D01*
X178766545Y-108966388D01*
X178945153Y-108847046D01*
X179097046Y-108695153D01*
X179216388Y-108516545D01*
X179298592Y-108318087D01*
X179340500Y-108107405D01*
X179340500Y-107892595D01*
X179298592Y-107681913D01*
X179216388Y-107483455D01*
X179097046Y-107304847D01*
X178945153Y-107152954D01*
X178766545Y-107033612D01*
X178568087Y-106951408D01*
X178357405Y-106909500D01*
X178142595Y-106909500D01*
X177931913Y-106951408D01*
X177733455Y-107033612D01*
X177554847Y-107152954D01*
X177402954Y-107304847D01*
X177283612Y-107483455D01*
X177201408Y-107681913D01*
X177159500Y-107892595D01*
X176215500Y-107892595D01*
X176215500Y-106026221D01*
X179955500Y-106026221D01*
X179955500Y-106113779D01*
X179972582Y-106199656D01*
X180006089Y-106280550D01*
X180054734Y-106353352D01*
X180116648Y-106415266D01*
X180189450Y-106463911D01*
X180270344Y-106497418D01*
X180356221Y-106514500D01*
X180443779Y-106514500D01*
X180529656Y-106497418D01*
X180610550Y-106463911D01*
X180683352Y-106415266D01*
X180745266Y-106353352D01*
X180793911Y-106280550D01*
X180827418Y-106199656D01*
X180844500Y-106113779D01*
X180844500Y-106026221D01*
X180827418Y-105940344D01*
X180793911Y-105859450D01*
X180745266Y-105786648D01*
X180683352Y-105724734D01*
X180610550Y-105676089D01*
X180529656Y-105642582D01*
X180443779Y-105625500D01*
X180356221Y-105625500D01*
X180270344Y-105642582D01*
X180189450Y-105676089D01*
X180116648Y-105724734D01*
X180054734Y-105786648D01*
X180006089Y-105859450D01*
X179972582Y-105940344D01*
X179955500Y-106026221D01*
X176215500Y-106026221D01*
X176215500Y-103496221D01*
X178235500Y-103496221D01*
X178235500Y-103583779D01*
X178252582Y-103669656D01*
X178286089Y-103750550D01*
X178334734Y-103823352D01*
X178396648Y-103885266D01*
X178469450Y-103933911D01*
X178550344Y-103967418D01*
X178636221Y-103984500D01*
X178723779Y-103984500D01*
X178809656Y-103967418D01*
X178890550Y-103933911D01*
X178963352Y-103885266D01*
X179025266Y-103823352D01*
X179073911Y-103750550D01*
X179107418Y-103669656D01*
X179124500Y-103583779D01*
X179124500Y-103496221D01*
X179107418Y-103410344D01*
X179073911Y-103329450D01*
X179025266Y-103256648D01*
X178963352Y-103194734D01*
X178890550Y-103146089D01*
X178809656Y-103112582D01*
X178723779Y-103095500D01*
X178636221Y-103095500D01*
X178550344Y-103112582D01*
X178469450Y-103146089D01*
X178396648Y-103194734D01*
X178334734Y-103256648D01*
X178286089Y-103329450D01*
X178252582Y-103410344D01*
X178235500Y-103496221D01*
X176215500Y-103496221D01*
X176215500Y-97800000D01*
X178022010Y-97800000D01*
X178023300Y-97813096D01*
X178023301Y-102126894D01*
X178022010Y-102140000D01*
X178025507Y-102175500D01*
X178027160Y-102192282D01*
X178042411Y-102242555D01*
X178067175Y-102288887D01*
X178100503Y-102329498D01*
X178110680Y-102337850D01*
X178197149Y-102424318D01*
X178197153Y-102424323D01*
X178219407Y-102446577D01*
X178215500Y-102466221D01*
X178215500Y-102553779D01*
X178232582Y-102639656D01*
X178266089Y-102720550D01*
X178314734Y-102793352D01*
X178376648Y-102855266D01*
X178449450Y-102903911D01*
X178530344Y-102937418D01*
X178616221Y-102954500D01*
X178703779Y-102954500D01*
X178789656Y-102937418D01*
X178870550Y-102903911D01*
X178943352Y-102855266D01*
X179005266Y-102793352D01*
X179053911Y-102720550D01*
X179087418Y-102639656D01*
X179104500Y-102553779D01*
X179104500Y-102466221D01*
X179087418Y-102380344D01*
X179053911Y-102299450D01*
X179005266Y-102226648D01*
X178943352Y-102164734D01*
X178870550Y-102116089D01*
X178789656Y-102082582D01*
X178703779Y-102065500D01*
X178616221Y-102065500D01*
X178596577Y-102069407D01*
X178574323Y-102047153D01*
X178574318Y-102047149D01*
X178556700Y-102029531D01*
X178556700Y-97910470D01*
X178696577Y-97770593D01*
X178716221Y-97774500D01*
X178803779Y-97774500D01*
X178889656Y-97757418D01*
X178970550Y-97723911D01*
X179043352Y-97675266D01*
X179105266Y-97613352D01*
X179153911Y-97540550D01*
X179187418Y-97459656D01*
X179204500Y-97373779D01*
X179204500Y-97286221D01*
X179187418Y-97200344D01*
X179153911Y-97119450D01*
X179105266Y-97046648D01*
X179043352Y-96984734D01*
X178970550Y-96936089D01*
X178889656Y-96902582D01*
X178803779Y-96885500D01*
X178716221Y-96885500D01*
X178630344Y-96902582D01*
X178549450Y-96936089D01*
X178476648Y-96984734D01*
X178414734Y-97046648D01*
X178366089Y-97119450D01*
X178332582Y-97200344D01*
X178315500Y-97286221D01*
X178315500Y-97373779D01*
X178319407Y-97393423D01*
X178110684Y-97602146D01*
X178100502Y-97610502D01*
X178067174Y-97651113D01*
X178042410Y-97697446D01*
X178027159Y-97747719D01*
X178023300Y-97786902D01*
X178022010Y-97800000D01*
X176215500Y-97800000D01*
X176215500Y-95538100D01*
X194271721Y-95538100D01*
X194268579Y-95570000D01*
G37*
%TD.AperFunction*%
D17*
X182313301Y-114928462D02*
X180740684Y-116501080D01*
X180730502Y-116509436D01*
X180697174Y-116550047D01*
X180672410Y-116596380D01*
X180657159Y-116646653D01*
X180653597Y-116682825D01*
X180652010Y-116698934D01*
X180653300Y-116712030D01*
X180653301Y-124651431D01*
X180576105Y-124574235D01*
X180458916Y-124495932D01*
X180328704Y-124441996D01*
X180190471Y-124414500D01*
X180049529Y-124414500D01*
X179911296Y-124441996D01*
X179901510Y-124446050D01*
X179901510Y-116262630D01*
X179956087Y-116344310D01*
X180035690Y-116423913D01*
X180129293Y-116486457D01*
X180233300Y-116529537D01*
X180343712Y-116551500D01*
X180456288Y-116551500D01*
X180566700Y-116529537D01*
X180670707Y-116486457D01*
X180764310Y-116423913D01*
X180843913Y-116344310D01*
X180906457Y-116250707D01*
X180949537Y-116146700D01*
X180971500Y-116036288D01*
X180971500Y-115923712D01*
X180949537Y-115813300D01*
X180906457Y-115709293D01*
X180843913Y-115615690D01*
X180764310Y-115536087D01*
X180670707Y-115473543D01*
X180566700Y-115430463D01*
X180456288Y-115408500D01*
X180343712Y-115408500D01*
X180233300Y-115430463D01*
X180129293Y-115473543D01*
X180035690Y-115536087D01*
X179956087Y-115615690D01*
X179901510Y-115697370D01*
X179901510Y-109917792D01*
X181989325Y-107829978D01*
X181999496Y-107821631D01*
X182007843Y-107811460D01*
X182007846Y-107811457D01*
X182032824Y-107781021D01*
X182057589Y-107734689D01*
X182072839Y-107684416D01*
X182077989Y-107632133D01*
X182076698Y-107619027D01*
X182076700Y-105269404D01*
X182313300Y-105032804D01*
X182313301Y-114928462D01*
%TA.AperFunction,Conductor*%
D18*
G36*
X182313301Y-114928462D02*
G01*
X180740684Y-116501080D01*
X180730502Y-116509436D01*
X180697174Y-116550047D01*
X180672410Y-116596380D01*
X180657159Y-116646653D01*
X180653597Y-116682825D01*
X180652010Y-116698934D01*
X180653300Y-116712030D01*
X180653301Y-124651431D01*
X180576105Y-124574235D01*
X180458916Y-124495932D01*
X180328704Y-124441996D01*
X180190471Y-124414500D01*
X180049529Y-124414500D01*
X179911296Y-124441996D01*
X179901510Y-124446050D01*
X179901510Y-116262630D01*
X179956087Y-116344310D01*
X180035690Y-116423913D01*
X180129293Y-116486457D01*
X180233300Y-116529537D01*
X180343712Y-116551500D01*
X180456288Y-116551500D01*
X180566700Y-116529537D01*
X180670707Y-116486457D01*
X180764310Y-116423913D01*
X180843913Y-116344310D01*
X180906457Y-116250707D01*
X180949537Y-116146700D01*
X180971500Y-116036288D01*
X180971500Y-115923712D01*
X180949537Y-115813300D01*
X180906457Y-115709293D01*
X180843913Y-115615690D01*
X180764310Y-115536087D01*
X180670707Y-115473543D01*
X180566700Y-115430463D01*
X180456288Y-115408500D01*
X180343712Y-115408500D01*
X180233300Y-115430463D01*
X180129293Y-115473543D01*
X180035690Y-115536087D01*
X179956087Y-115615690D01*
X179901510Y-115697370D01*
X179901510Y-109917792D01*
X181989325Y-107829978D01*
X181999496Y-107821631D01*
X182007843Y-107811460D01*
X182007846Y-107811457D01*
X182032824Y-107781021D01*
X182057589Y-107734689D01*
X182072839Y-107684416D01*
X182077989Y-107632133D01*
X182076698Y-107619027D01*
X182076700Y-105269404D01*
X182313300Y-105032804D01*
X182313301Y-114928462D01*
G37*
%TD.AperFunction*%
D17*
X184185901Y-113486929D02*
X182846700Y-114826130D01*
X182846700Y-109106221D01*
X182895500Y-109106221D01*
X182895500Y-109193779D01*
X182912582Y-109279656D01*
X182946089Y-109360550D01*
X182994734Y-109433352D01*
X183056648Y-109495266D01*
X183129450Y-109543911D01*
X183210344Y-109577418D01*
X183296221Y-109594500D01*
X183383779Y-109594500D01*
X183469656Y-109577418D01*
X183550550Y-109543911D01*
X183623352Y-109495266D01*
X183685266Y-109433352D01*
X183733911Y-109360550D01*
X183767418Y-109279656D01*
X183784500Y-109193779D01*
X183784500Y-109106221D01*
X183780593Y-109086577D01*
X183899316Y-108967854D01*
X183909498Y-108959498D01*
X183942826Y-108918887D01*
X183967590Y-108872555D01*
X183982841Y-108822282D01*
X183986700Y-108783098D01*
X183986700Y-108783097D01*
X183987990Y-108770001D01*
X183986700Y-108756905D01*
X183986700Y-106346393D01*
X184003352Y-106335266D01*
X184065266Y-106273352D01*
X184113911Y-106200550D01*
X184147418Y-106119656D01*
X184164500Y-106033779D01*
X184164500Y-105946221D01*
X184147418Y-105860344D01*
X184113911Y-105779450D01*
X184065266Y-105706648D01*
X184003352Y-105644734D01*
X183930550Y-105596089D01*
X183849656Y-105562582D01*
X183763779Y-105545500D01*
X183676221Y-105545500D01*
X183590344Y-105562582D01*
X183509450Y-105596089D01*
X183436648Y-105644734D01*
X183374734Y-105706648D01*
X183326089Y-105779450D01*
X183292582Y-105860344D01*
X183275500Y-105946221D01*
X183275500Y-106033779D01*
X183292582Y-106119656D01*
X183326089Y-106200550D01*
X183374734Y-106273352D01*
X183436648Y-106335266D01*
X183453300Y-106346393D01*
X183453301Y-108659529D01*
X183403423Y-108709407D01*
X183383779Y-108705500D01*
X183296221Y-108705500D01*
X183210344Y-108722582D01*
X183129450Y-108756089D01*
X183056648Y-108804734D01*
X182994734Y-108866648D01*
X182946089Y-108939450D01*
X182912582Y-109020344D01*
X182895500Y-109106221D01*
X182846700Y-109106221D01*
X182846700Y-104930470D01*
X184185902Y-103591268D01*
X184185901Y-113486929D01*
%TA.AperFunction,Conductor*%
D18*
G36*
X184185901Y-113486929D02*
G01*
X182846700Y-114826130D01*
X182846700Y-109106221D01*
X182895500Y-109106221D01*
X182895500Y-109193779D01*
X182912582Y-109279656D01*
X182946089Y-109360550D01*
X182994734Y-109433352D01*
X183056648Y-109495266D01*
X183129450Y-109543911D01*
X183210344Y-109577418D01*
X183296221Y-109594500D01*
X183383779Y-109594500D01*
X183469656Y-109577418D01*
X183550550Y-109543911D01*
X183623352Y-109495266D01*
X183685266Y-109433352D01*
X183733911Y-109360550D01*
X183767418Y-109279656D01*
X183784500Y-109193779D01*
X183784500Y-109106221D01*
X183780593Y-109086577D01*
X183899316Y-108967854D01*
X183909498Y-108959498D01*
X183942826Y-108918887D01*
X183967590Y-108872555D01*
X183982841Y-108822282D01*
X183986700Y-108783098D01*
X183986700Y-108783097D01*
X183987990Y-108770001D01*
X183986700Y-108756905D01*
X183986700Y-106346393D01*
X184003352Y-106335266D01*
X184065266Y-106273352D01*
X184113911Y-106200550D01*
X184147418Y-106119656D01*
X184164500Y-106033779D01*
X184164500Y-105946221D01*
X184147418Y-105860344D01*
X184113911Y-105779450D01*
X184065266Y-105706648D01*
X184003352Y-105644734D01*
X183930550Y-105596089D01*
X183849656Y-105562582D01*
X183763779Y-105545500D01*
X183676221Y-105545500D01*
X183590344Y-105562582D01*
X183509450Y-105596089D01*
X183436648Y-105644734D01*
X183374734Y-105706648D01*
X183326089Y-105779450D01*
X183292582Y-105860344D01*
X183275500Y-105946221D01*
X183275500Y-106033779D01*
X183292582Y-106119656D01*
X183326089Y-106200550D01*
X183374734Y-106273352D01*
X183436648Y-106335266D01*
X183453300Y-106346393D01*
X183453301Y-108659529D01*
X183403423Y-108709407D01*
X183383779Y-108705500D01*
X183296221Y-108705500D01*
X183210344Y-108722582D01*
X183129450Y-108756089D01*
X183056648Y-108804734D01*
X182994734Y-108866648D01*
X182946089Y-108939450D01*
X182912582Y-109020344D01*
X182895500Y-109106221D01*
X182846700Y-109106221D01*
X182846700Y-104930470D01*
X184185902Y-103591268D01*
X184185901Y-113486929D01*
G37*
%TD.AperFunction*%
%TD*%
M02*
