%TF.GenerationSoftware,KiCad,Pcbnew,(5.1.8)-1*%
%TF.CreationDate,2021-09-07T20:43:03-04:00*%
%TF.ProjectId,mainboard_v1,6d61696e-626f-4617-9264-5f76312e6b69,rev?*%
%TF.SameCoordinates,Original*%
%TF.FileFunction,Soldermask,Bot*%
%TF.FilePolarity,Negative*%
%FSLAX46Y46*%
G04 Gerber Fmt 4.6, Leading zero omitted, Abs format (unit mm)*
G04 Created by KiCad (PCBNEW (5.1.8)-1) date 2021-09-07 20:43:03*
%MOMM*%
%LPD*%
G01*
G04 APERTURE LIST*
%ADD10C,1.050000*%
%ADD11C,1.800000*%
%ADD12O,1.000000X1.000000*%
%ADD13R,1.000000X1.000000*%
%ADD14R,1.550000X1.100000*%
%ADD15R,3.100000X2.300000*%
%ADD16R,1.100000X0.300000*%
%ADD17R,0.650000X2.150000*%
%ADD18R,1.900000X1.800000*%
%ADD19R,1.900000X2.300000*%
%ADD20R,1.400000X0.400000*%
%ADD21C,0.900000*%
%ADD22R,1.500000X0.700000*%
%ADD23R,0.800000X1.000000*%
G04 APERTURE END LIST*
D10*
%TO.C,J20*%
X181720000Y-125130000D03*
%TD*%
%TO.C,J19*%
X180120000Y-125130000D03*
%TD*%
%TO.C,J18*%
X180120000Y-126630000D03*
%TD*%
%TO.C,J17*%
X178520000Y-125130000D03*
%TD*%
%TO.C,J16*%
X183320000Y-128130000D03*
%TD*%
%TO.C,J15*%
X183320000Y-126630000D03*
%TD*%
%TO.C,J14*%
X184920000Y-128130000D03*
%TD*%
%TO.C,J13*%
X181720000Y-128130000D03*
%TD*%
%TO.C,J12*%
X183320000Y-129630000D03*
%TD*%
%TO.C,J11*%
X184920000Y-126630000D03*
%TD*%
%TO.C,J10*%
X184920000Y-129630000D03*
%TD*%
%TO.C,J9*%
X181720000Y-126630000D03*
%TD*%
D11*
%TO.C,H1*%
X190000000Y-123000000D03*
%TD*%
%TO.C,R11*%
G36*
G01*
X195975000Y-104617500D02*
X195975000Y-104142500D01*
G75*
G02*
X196212500Y-103905000I237500J0D01*
G01*
X196712500Y-103905000D01*
G75*
G02*
X196950000Y-104142500I0J-237500D01*
G01*
X196950000Y-104617500D01*
G75*
G02*
X196712500Y-104855000I-237500J0D01*
G01*
X196212500Y-104855000D01*
G75*
G02*
X195975000Y-104617500I0J237500D01*
G01*
G37*
G36*
G01*
X194150000Y-104617500D02*
X194150000Y-104142500D01*
G75*
G02*
X194387500Y-103905000I237500J0D01*
G01*
X194887500Y-103905000D01*
G75*
G02*
X195125000Y-104142500I0J-237500D01*
G01*
X195125000Y-104617500D01*
G75*
G02*
X194887500Y-104855000I-237500J0D01*
G01*
X194387500Y-104855000D01*
G75*
G02*
X194150000Y-104617500I0J237500D01*
G01*
G37*
%TD*%
%TO.C,R10*%
G36*
G01*
X192837500Y-99435000D02*
X192362500Y-99435000D01*
G75*
G02*
X192125000Y-99197500I0J237500D01*
G01*
X192125000Y-98697500D01*
G75*
G02*
X192362500Y-98460000I237500J0D01*
G01*
X192837500Y-98460000D01*
G75*
G02*
X193075000Y-98697500I0J-237500D01*
G01*
X193075000Y-99197500D01*
G75*
G02*
X192837500Y-99435000I-237500J0D01*
G01*
G37*
G36*
G01*
X192837500Y-101260000D02*
X192362500Y-101260000D01*
G75*
G02*
X192125000Y-101022500I0J237500D01*
G01*
X192125000Y-100522500D01*
G75*
G02*
X192362500Y-100285000I237500J0D01*
G01*
X192837500Y-100285000D01*
G75*
G02*
X193075000Y-100522500I0J-237500D01*
G01*
X193075000Y-101022500D01*
G75*
G02*
X192837500Y-101260000I-237500J0D01*
G01*
G37*
%TD*%
D12*
%TO.C,J4*%
X196230000Y-96070000D03*
D13*
X194960000Y-96070000D03*
%TD*%
D14*
%TO.C,C13*%
X195370000Y-98140000D03*
X197070000Y-98140000D03*
%TD*%
D15*
%TO.C,J8*%
X200790000Y-120920000D03*
X200790000Y-115080000D03*
D16*
X199090000Y-119250000D03*
X199090000Y-118750000D03*
X199090000Y-118250000D03*
X199090000Y-117750000D03*
X199090000Y-117250000D03*
X199090000Y-116750000D03*
%TD*%
D15*
%TO.C,J3*%
X179190000Y-95080000D03*
X179190000Y-100920000D03*
D16*
X180890000Y-96750000D03*
X180890000Y-97250000D03*
X180890000Y-97750000D03*
X180890000Y-98250000D03*
X180890000Y-98750000D03*
X180890000Y-99250000D03*
%TD*%
D11*
%TO.C,H3*%
X201750000Y-108000000D03*
%TD*%
%TO.C,H2*%
X178250000Y-108000000D03*
%TD*%
D17*
%TO.C,J7*%
X187460000Y-126025000D03*
X188730000Y-126025000D03*
X190000000Y-126025000D03*
X191270000Y-126025000D03*
X192540000Y-126025000D03*
X187460000Y-129675000D03*
X188730000Y-129675000D03*
X190000000Y-129675000D03*
X191270000Y-129675000D03*
X192540000Y-129675000D03*
%TD*%
D13*
%TO.C,J1*%
X196230000Y-117130000D03*
D12*
X196230000Y-118400000D03*
%TD*%
D18*
%TO.C,J2*%
X201980000Y-100870000D03*
X201980000Y-98570000D03*
D19*
X201980000Y-103470000D03*
X201980000Y-95970000D03*
D20*
X199130000Y-101020000D03*
X199130000Y-100370000D03*
X199130000Y-99720000D03*
X199130000Y-99070000D03*
X199130000Y-98420000D03*
%TD*%
%TO.C,R8*%
G36*
G01*
X197620000Y-101272500D02*
X197620000Y-101747500D01*
G75*
G02*
X197382500Y-101985000I-237500J0D01*
G01*
X196882500Y-101985000D01*
G75*
G02*
X196645000Y-101747500I0J237500D01*
G01*
X196645000Y-101272500D01*
G75*
G02*
X196882500Y-101035000I237500J0D01*
G01*
X197382500Y-101035000D01*
G75*
G02*
X197620000Y-101272500I0J-237500D01*
G01*
G37*
G36*
G01*
X195795000Y-101272500D02*
X195795000Y-101747500D01*
G75*
G02*
X195557500Y-101985000I-237500J0D01*
G01*
X195057500Y-101985000D01*
G75*
G02*
X194820000Y-101747500I0J237500D01*
G01*
X194820000Y-101272500D01*
G75*
G02*
X195057500Y-101035000I237500J0D01*
G01*
X195557500Y-101035000D01*
G75*
G02*
X195795000Y-101272500I0J-237500D01*
G01*
G37*
%TD*%
%TO.C,R9*%
G36*
G01*
X197620000Y-99735000D02*
X197620000Y-100210000D01*
G75*
G02*
X197382500Y-100447500I-237500J0D01*
G01*
X196882500Y-100447500D01*
G75*
G02*
X196645000Y-100210000I0J237500D01*
G01*
X196645000Y-99735000D01*
G75*
G02*
X196882500Y-99497500I237500J0D01*
G01*
X197382500Y-99497500D01*
G75*
G02*
X197620000Y-99735000I0J-237500D01*
G01*
G37*
G36*
G01*
X195795000Y-99735000D02*
X195795000Y-100210000D01*
G75*
G02*
X195557500Y-100447500I-237500J0D01*
G01*
X195057500Y-100447500D01*
G75*
G02*
X194820000Y-100210000I0J237500D01*
G01*
X194820000Y-99735000D01*
G75*
G02*
X195057500Y-99497500I237500J0D01*
G01*
X195557500Y-99497500D01*
G75*
G02*
X195795000Y-99735000I0J-237500D01*
G01*
G37*
%TD*%
D21*
%TO.C,SW1*%
X177850000Y-120870000D03*
X177850000Y-117870000D03*
D22*
X179610000Y-121620000D03*
X179610000Y-118620000D03*
X179610000Y-117120000D03*
D23*
X176750000Y-123020000D03*
X176750000Y-115720000D03*
X178960000Y-115720000D03*
X178960000Y-123020000D03*
%TD*%
M02*
