%TF.GenerationSoftware,KiCad,Pcbnew,(5.1.8)-1*%
%TF.CreationDate,2021-09-07T20:43:03-04:00*%
%TF.ProjectId,mainboard_v1,6d61696e-626f-4617-9264-5f76312e6b69,rev?*%
%TF.SameCoordinates,Original*%
%TF.FileFunction,Copper,L3,Inr*%
%TF.FilePolarity,Positive*%
%FSLAX46Y46*%
G04 Gerber Fmt 4.6, Leading zero omitted, Abs format (unit mm)*
G04 Created by KiCad (PCBNEW (5.1.8)-1) date 2021-09-07 20:43:03*
%MOMM*%
%LPD*%
G01*
G04 APERTURE LIST*
%TA.AperFunction,ComponentPad*%
%ADD10C,1.050000*%
%TD*%
%TA.AperFunction,WasherPad*%
%ADD11C,1.800000*%
%TD*%
%TA.AperFunction,ComponentPad*%
%ADD12O,1.000000X1.000000*%
%TD*%
%TA.AperFunction,ComponentPad*%
%ADD13R,1.000000X1.000000*%
%TD*%
%TA.AperFunction,ViaPad*%
%ADD14C,0.508000*%
%TD*%
%TA.AperFunction,ViaPad*%
%ADD15C,0.762000*%
%TD*%
%TA.AperFunction,Conductor*%
%ADD16C,0.635000*%
%TD*%
%TA.AperFunction,Conductor*%
%ADD17C,0.254000*%
%TD*%
%TA.AperFunction,Conductor*%
%ADD18C,0.381000*%
%TD*%
%TA.AperFunction,Conductor*%
%ADD19C,0.076200*%
%TD*%
%TA.AperFunction,Conductor*%
%ADD20C,0.100000*%
%TD*%
G04 APERTURE END LIST*
D10*
%TO.N,Net-(C11-Pad2)*%
%TO.C,J20*%
X181720000Y-125130000D03*
%TD*%
%TO.N,/GP2*%
%TO.C,J19*%
X180120000Y-125130000D03*
%TD*%
%TO.N,/GP0*%
%TO.C,J18*%
X180120000Y-126630000D03*
%TD*%
%TO.N,/~RESET*%
%TO.C,J17*%
X178520000Y-125130000D03*
%TD*%
%TO.N,N/C*%
%TO.C,J16*%
X183320000Y-128130000D03*
%TD*%
%TO.N,/SWO*%
%TO.C,J15*%
X183320000Y-126630000D03*
%TD*%
%TO.N,GND*%
%TO.C,J14*%
X184920000Y-128130000D03*
%TD*%
%TO.N,N/C*%
%TO.C,J13*%
X181720000Y-128130000D03*
%TD*%
%TO.N,N/C*%
%TO.C,J12*%
X183320000Y-129630000D03*
%TD*%
%TO.N,+3V3*%
%TO.C,J11*%
X184920000Y-126630000D03*
%TD*%
%TO.N,N/C*%
%TO.C,J10*%
X184920000Y-129630000D03*
%TD*%
%TO.N,/A5*%
%TO.C,J9*%
X181720000Y-126630000D03*
%TD*%
D11*
%TO.N,*%
%TO.C,H1*%
X190000000Y-123000000D03*
%TD*%
D12*
%TO.N,/SWDIO*%
%TO.C,J4*%
X196230000Y-96070000D03*
D13*
%TO.N,/SWDCLK*%
X194960000Y-96070000D03*
%TD*%
D11*
%TO.N,*%
%TO.C,H3*%
X201750000Y-108000000D03*
%TD*%
%TO.N,*%
%TO.C,H2*%
X178250000Y-108000000D03*
%TD*%
D13*
%TO.N,VPP*%
%TO.C,J1*%
X196230000Y-117130000D03*
D12*
%TO.N,GND*%
X196230000Y-118400000D03*
%TD*%
D14*
%TO.N,/M2_IN2*%
X201680000Y-117560000D03*
%TO.N,/M2_IN1*%
X201510000Y-118340000D03*
%TO.N,GND*%
X180160000Y-95870000D03*
X177970000Y-95890000D03*
X179240000Y-100960000D03*
X195380000Y-124600000D03*
X195400000Y-123630000D03*
X184890000Y-124620000D03*
X184870000Y-123610000D03*
X202670000Y-103740000D03*
X201960000Y-98300000D03*
X201980000Y-96710000D03*
X176860000Y-95880000D03*
X199820000Y-110040000D03*
X185980000Y-96670000D03*
X190020000Y-96680000D03*
X200350000Y-98770000D03*
X202660000Y-100380000D03*
X192540000Y-126030000D03*
X190430000Y-99350000D03*
X189060000Y-100540000D03*
X186770000Y-99600000D03*
X187730000Y-101940000D03*
X183910000Y-104230000D03*
X177850000Y-123490000D03*
X177370000Y-119290000D03*
X177850000Y-115580000D03*
X177170000Y-106070000D03*
X202940000Y-109790000D03*
X202980000Y-105930000D03*
X193668000Y-97726000D03*
X195260000Y-125940000D03*
X194680000Y-129680000D03*
X203030000Y-123620000D03*
X199830000Y-126650000D03*
X182620000Y-119400000D03*
X180890000Y-109960000D03*
X177030000Y-109720000D03*
X195320000Y-110070000D03*
X182090000Y-109870000D03*
X182090000Y-108190000D03*
X182070000Y-109030000D03*
X197540000Y-123970000D03*
X195390000Y-122060000D03*
X186470000Y-125500000D03*
X186370000Y-128200000D03*
X184090000Y-97340000D03*
X188400000Y-110560000D03*
X178530000Y-104540000D03*
X181620000Y-96020000D03*
X187980000Y-96650000D03*
X194090000Y-111090000D03*
X195080000Y-113950000D03*
X196090000Y-115080000D03*
X192890000Y-115490000D03*
X184950000Y-116330000D03*
X203060000Y-116000000D03*
X197620000Y-105000000D03*
X189080000Y-121280000D03*
X190370000Y-121590000D03*
X192950000Y-124450000D03*
X194380000Y-127840000D03*
D15*
%TO.N,VPP*%
X185170000Y-112370000D03*
D14*
%TO.N,/LED2*%
X183720000Y-105990000D03*
X183340000Y-109150000D03*
%TO.N,/SDA*%
X190030000Y-103360000D03*
X195510000Y-103650000D03*
X189600000Y-110690000D03*
X187790000Y-121530000D03*
X188730000Y-129675000D03*
%TO.N,/SCL*%
X189590000Y-102660000D03*
X194000000Y-101500000D03*
X188270000Y-109420000D03*
X187460000Y-113725000D03*
X187460000Y-129675000D03*
%TO.N,Net-(R8-Pad2)*%
X194540000Y-102360000D03*
%TO.N,Net-(R9-Pad2)*%
X190660000Y-102620000D03*
D15*
%TO.N,VBUS*%
X198100000Y-96480000D03*
X198290000Y-105910000D03*
D14*
X192740000Y-105910000D03*
D15*
%TO.N,+3V3*%
X184690000Y-117630000D03*
D14*
X188320000Y-108380000D03*
X200570000Y-104380000D03*
X200070000Y-96590000D03*
X187460000Y-126025000D03*
D15*
%TO.N,Net-(C11-Pad2)*%
X180400000Y-115980000D03*
X188980000Y-119130000D03*
D14*
%TO.N,/MISO*%
X193580000Y-102310000D03*
X192540000Y-111250000D03*
X191900000Y-118740000D03*
X192540000Y-129675000D03*
%TO.N,/MOSI*%
X193300000Y-103040000D03*
X191270000Y-111260000D03*
X191120000Y-119040000D03*
X191270000Y-129675000D03*
%TO.N,/SCK*%
X191470000Y-103970000D03*
X190760000Y-110520000D03*
X189370000Y-115320000D03*
X190000000Y-129675000D03*
%TO.N,/A1*%
X186040000Y-103230000D03*
X188730000Y-126025000D03*
%TO.N,/A0*%
X185790000Y-106130000D03*
X186057400Y-109770000D03*
D15*
%TO.N,VCC*%
X195810000Y-119760000D03*
D14*
X180400000Y-106070000D03*
X182360000Y-102570000D03*
%TO.N,/M1_O1*%
X178660000Y-102510000D03*
X178760000Y-97330000D03*
%TO.N,/M1_O2*%
X178680000Y-103540000D03*
%TO.N,/M2_O1*%
X200820000Y-118500000D03*
%TO.N,/M2_O2*%
X200470000Y-117740000D03*
%TO.N,/~RESET*%
X179760000Y-97370000D03*
%TO.N,/SWO*%
X190590000Y-98120000D03*
%TO.N,/D11*%
X193180000Y-118820000D03*
X191270000Y-126025000D03*
%TO.N,/D13*%
X188770000Y-106030000D03*
%TO.N,/D5*%
X188430000Y-102540000D03*
%TO.N,/D12*%
X190000000Y-115780000D03*
X188100000Y-106160000D03*
%TO.N,/D6*%
X187740000Y-103220000D03*
X188730000Y-115690000D03*
X190000000Y-126025000D03*
%TO.N,/A5*%
X185600000Y-101060000D03*
%TO.N,/A3*%
X187460000Y-115560000D03*
X183970000Y-101940000D03*
%TO.N,/GP2*%
X184830000Y-100720000D03*
%TO.N,/GP0*%
X183070000Y-97110000D03*
%TO.N,/MOTOR1_A*%
X182200000Y-99830000D03*
%TO.N,/MOTOR1_B*%
X182160000Y-100520000D03*
%TO.N,/M2_IN2*%
X193650000Y-98520000D03*
%TO.N,/M2_IN1*%
X193570000Y-99320000D03*
%TO.N,/D11*%
X186820000Y-115830000D03*
X192540000Y-117275000D03*
%TO.N,/D9*%
X191270000Y-117275000D03*
X186250000Y-102510000D03*
%TD*%
D16*
%TO.N,VPP*%
X193120000Y-114020000D02*
X196230000Y-117130000D01*
X185170000Y-112370000D02*
X191470000Y-112370000D01*
X191470000Y-112370000D02*
X193120000Y-114020000D01*
%TO.N,VBUS*%
X198830000Y-96480000D02*
X198100000Y-96480000D01*
X198830000Y-96480000D02*
X199570000Y-97220000D01*
X199570000Y-104630000D02*
X198290000Y-105910000D01*
X199570000Y-97220000D02*
X199570000Y-104630000D01*
D17*
X198290000Y-105910000D02*
X192740000Y-105910000D01*
D18*
%TO.N,+3V3*%
X185120000Y-108620000D02*
X183710000Y-110030000D01*
X183710000Y-114040000D02*
X183710000Y-116650000D01*
X183710000Y-116650000D02*
X184690000Y-117630000D01*
X183710000Y-112300000D02*
X183710000Y-114040000D01*
X185360000Y-108380000D02*
X185120000Y-108620000D01*
X188320000Y-108380000D02*
X185360000Y-108380000D01*
X183710000Y-110030000D02*
X183710000Y-112300000D01*
D17*
X200570000Y-104380000D02*
X200570000Y-105880000D01*
X200570000Y-105880000D02*
X200410000Y-106040000D01*
X199380000Y-107070000D02*
X200410000Y-106040000D01*
X188320000Y-108380000D02*
X198070000Y-108380000D01*
X198070000Y-108380000D02*
X199380000Y-107070000D01*
X200070000Y-96590000D02*
X200920000Y-97440000D01*
X200920000Y-97440000D02*
X200920000Y-104020000D01*
X200920000Y-104020000D02*
X200580000Y-104360000D01*
D18*
%TO.N,Net-(C11-Pad2)*%
X180400000Y-115980000D02*
X181390000Y-115980000D01*
X184530000Y-119120000D02*
X185400000Y-119120000D01*
X181390000Y-115980000D02*
X184530000Y-119120000D01*
X185400000Y-119120000D02*
X189010000Y-119120000D01*
%TO.N,VCC*%
X179378601Y-110541399D02*
X180250000Y-109670000D01*
X179378601Y-117131399D02*
X179378601Y-117768601D01*
X179378601Y-117131399D02*
X179378601Y-110541399D01*
X179378601Y-117768601D02*
X182140000Y-120530000D01*
X182140000Y-120530000D02*
X191380000Y-120530000D01*
X195040000Y-120530000D02*
X195810000Y-119760000D01*
X191380000Y-120530000D02*
X195040000Y-120530000D01*
X180400000Y-109520000D02*
X180250000Y-109670000D01*
X180400000Y-106070000D02*
X180400000Y-109520000D01*
%TD*%
D19*
%TO.N,GND*%
X194268579Y-95570000D02*
X194268579Y-96570000D01*
X194272257Y-96607344D01*
X194283150Y-96643254D01*
X194300839Y-96676348D01*
X194324645Y-96705355D01*
X194353652Y-96729161D01*
X194386746Y-96746850D01*
X194422656Y-96757743D01*
X194460000Y-96761421D01*
X195460000Y-96761421D01*
X195497344Y-96757743D01*
X195533254Y-96746850D01*
X195566348Y-96729161D01*
X195595355Y-96705355D01*
X195619161Y-96676348D01*
X195636850Y-96643254D01*
X195647743Y-96607344D01*
X195651421Y-96570000D01*
X195651421Y-96446962D01*
X195693654Y-96510168D01*
X195789832Y-96606346D01*
X195902926Y-96681913D01*
X196028589Y-96733964D01*
X196161992Y-96760500D01*
X196298008Y-96760500D01*
X196431411Y-96733964D01*
X196557074Y-96681913D01*
X196670168Y-96606346D01*
X196766346Y-96510168D01*
X196841913Y-96397074D01*
X196893964Y-96271411D01*
X196920500Y-96138008D01*
X196920500Y-96001992D01*
X196893964Y-95868589D01*
X196841913Y-95742926D01*
X196766346Y-95629832D01*
X196674614Y-95538100D01*
X203784500Y-95538100D01*
X203784501Y-123910736D01*
X196910738Y-130784500D01*
X183089263Y-130784500D01*
X181864292Y-129559529D01*
X182604500Y-129559529D01*
X182604500Y-129700471D01*
X182631996Y-129838704D01*
X182685932Y-129968916D01*
X182764235Y-130086105D01*
X182863895Y-130185765D01*
X182981084Y-130264068D01*
X183111296Y-130318004D01*
X183249529Y-130345500D01*
X183390471Y-130345500D01*
X183528704Y-130318004D01*
X183658916Y-130264068D01*
X183776105Y-130185765D01*
X183875765Y-130086105D01*
X183954068Y-129968916D01*
X184008004Y-129838704D01*
X184035500Y-129700471D01*
X184035500Y-129559529D01*
X184204500Y-129559529D01*
X184204500Y-129700471D01*
X184231996Y-129838704D01*
X184285932Y-129968916D01*
X184364235Y-130086105D01*
X184463895Y-130185765D01*
X184581084Y-130264068D01*
X184711296Y-130318004D01*
X184849529Y-130345500D01*
X184990471Y-130345500D01*
X185128704Y-130318004D01*
X185258916Y-130264068D01*
X185376105Y-130185765D01*
X185475765Y-130086105D01*
X185554068Y-129968916D01*
X185608004Y-129838704D01*
X185635500Y-129700471D01*
X185635500Y-129631221D01*
X187015500Y-129631221D01*
X187015500Y-129718779D01*
X187032582Y-129804656D01*
X187066089Y-129885550D01*
X187114734Y-129958352D01*
X187176648Y-130020266D01*
X187249450Y-130068911D01*
X187330344Y-130102418D01*
X187416221Y-130119500D01*
X187503779Y-130119500D01*
X187589656Y-130102418D01*
X187670550Y-130068911D01*
X187743352Y-130020266D01*
X187805266Y-129958352D01*
X187853911Y-129885550D01*
X187887418Y-129804656D01*
X187904500Y-129718779D01*
X187904500Y-129631221D01*
X188285500Y-129631221D01*
X188285500Y-129718779D01*
X188302582Y-129804656D01*
X188336089Y-129885550D01*
X188384734Y-129958352D01*
X188446648Y-130020266D01*
X188519450Y-130068911D01*
X188600344Y-130102418D01*
X188686221Y-130119500D01*
X188773779Y-130119500D01*
X188859656Y-130102418D01*
X188940550Y-130068911D01*
X189013352Y-130020266D01*
X189075266Y-129958352D01*
X189123911Y-129885550D01*
X189157418Y-129804656D01*
X189174500Y-129718779D01*
X189174500Y-129631221D01*
X189555500Y-129631221D01*
X189555500Y-129718779D01*
X189572582Y-129804656D01*
X189606089Y-129885550D01*
X189654734Y-129958352D01*
X189716648Y-130020266D01*
X189789450Y-130068911D01*
X189870344Y-130102418D01*
X189956221Y-130119500D01*
X190043779Y-130119500D01*
X190129656Y-130102418D01*
X190210550Y-130068911D01*
X190283352Y-130020266D01*
X190345266Y-129958352D01*
X190393911Y-129885550D01*
X190427418Y-129804656D01*
X190444500Y-129718779D01*
X190444500Y-129631221D01*
X190825500Y-129631221D01*
X190825500Y-129718779D01*
X190842582Y-129804656D01*
X190876089Y-129885550D01*
X190924734Y-129958352D01*
X190986648Y-130020266D01*
X191059450Y-130068911D01*
X191140344Y-130102418D01*
X191226221Y-130119500D01*
X191313779Y-130119500D01*
X191399656Y-130102418D01*
X191480550Y-130068911D01*
X191553352Y-130020266D01*
X191615266Y-129958352D01*
X191663911Y-129885550D01*
X191697418Y-129804656D01*
X191714500Y-129718779D01*
X191714500Y-129631221D01*
X192095500Y-129631221D01*
X192095500Y-129718779D01*
X192112582Y-129804656D01*
X192146089Y-129885550D01*
X192194734Y-129958352D01*
X192256648Y-130020266D01*
X192329450Y-130068911D01*
X192410344Y-130102418D01*
X192496221Y-130119500D01*
X192583779Y-130119500D01*
X192669656Y-130102418D01*
X192750550Y-130068911D01*
X192823352Y-130020266D01*
X192885266Y-129958352D01*
X192933911Y-129885550D01*
X192967418Y-129804656D01*
X192984500Y-129718779D01*
X192984500Y-129631221D01*
X192967418Y-129545344D01*
X192933911Y-129464450D01*
X192885266Y-129391648D01*
X192823352Y-129329734D01*
X192750550Y-129281089D01*
X192669656Y-129247582D01*
X192583779Y-129230500D01*
X192496221Y-129230500D01*
X192410344Y-129247582D01*
X192329450Y-129281089D01*
X192256648Y-129329734D01*
X192194734Y-129391648D01*
X192146089Y-129464450D01*
X192112582Y-129545344D01*
X192095500Y-129631221D01*
X191714500Y-129631221D01*
X191697418Y-129545344D01*
X191663911Y-129464450D01*
X191615266Y-129391648D01*
X191553352Y-129329734D01*
X191480550Y-129281089D01*
X191399656Y-129247582D01*
X191313779Y-129230500D01*
X191226221Y-129230500D01*
X191140344Y-129247582D01*
X191059450Y-129281089D01*
X190986648Y-129329734D01*
X190924734Y-129391648D01*
X190876089Y-129464450D01*
X190842582Y-129545344D01*
X190825500Y-129631221D01*
X190444500Y-129631221D01*
X190427418Y-129545344D01*
X190393911Y-129464450D01*
X190345266Y-129391648D01*
X190283352Y-129329734D01*
X190210550Y-129281089D01*
X190129656Y-129247582D01*
X190043779Y-129230500D01*
X189956221Y-129230500D01*
X189870344Y-129247582D01*
X189789450Y-129281089D01*
X189716648Y-129329734D01*
X189654734Y-129391648D01*
X189606089Y-129464450D01*
X189572582Y-129545344D01*
X189555500Y-129631221D01*
X189174500Y-129631221D01*
X189157418Y-129545344D01*
X189123911Y-129464450D01*
X189075266Y-129391648D01*
X189013352Y-129329734D01*
X188940550Y-129281089D01*
X188859656Y-129247582D01*
X188773779Y-129230500D01*
X188686221Y-129230500D01*
X188600344Y-129247582D01*
X188519450Y-129281089D01*
X188446648Y-129329734D01*
X188384734Y-129391648D01*
X188336089Y-129464450D01*
X188302582Y-129545344D01*
X188285500Y-129631221D01*
X187904500Y-129631221D01*
X187887418Y-129545344D01*
X187853911Y-129464450D01*
X187805266Y-129391648D01*
X187743352Y-129329734D01*
X187670550Y-129281089D01*
X187589656Y-129247582D01*
X187503779Y-129230500D01*
X187416221Y-129230500D01*
X187330344Y-129247582D01*
X187249450Y-129281089D01*
X187176648Y-129329734D01*
X187114734Y-129391648D01*
X187066089Y-129464450D01*
X187032582Y-129545344D01*
X187015500Y-129631221D01*
X185635500Y-129631221D01*
X185635500Y-129559529D01*
X185608004Y-129421296D01*
X185554068Y-129291084D01*
X185475765Y-129173895D01*
X185376105Y-129074235D01*
X185258916Y-128995932D01*
X185128704Y-128941996D01*
X184990471Y-128914500D01*
X184849529Y-128914500D01*
X184711296Y-128941996D01*
X184581084Y-128995932D01*
X184463895Y-129074235D01*
X184364235Y-129173895D01*
X184285932Y-129291084D01*
X184231996Y-129421296D01*
X184204500Y-129559529D01*
X184035500Y-129559529D01*
X184008004Y-129421296D01*
X183954068Y-129291084D01*
X183875765Y-129173895D01*
X183776105Y-129074235D01*
X183658916Y-128995932D01*
X183528704Y-128941996D01*
X183390471Y-128914500D01*
X183249529Y-128914500D01*
X183111296Y-128941996D01*
X182981084Y-128995932D01*
X182863895Y-129074235D01*
X182764235Y-129173895D01*
X182685932Y-129291084D01*
X182631996Y-129421296D01*
X182604500Y-129559529D01*
X181864292Y-129559529D01*
X180364292Y-128059529D01*
X181004500Y-128059529D01*
X181004500Y-128200471D01*
X181031996Y-128338704D01*
X181085932Y-128468916D01*
X181164235Y-128586105D01*
X181263895Y-128685765D01*
X181381084Y-128764068D01*
X181511296Y-128818004D01*
X181649529Y-128845500D01*
X181790471Y-128845500D01*
X181928704Y-128818004D01*
X182058916Y-128764068D01*
X182176105Y-128685765D01*
X182275765Y-128586105D01*
X182354068Y-128468916D01*
X182408004Y-128338704D01*
X182435500Y-128200471D01*
X182435500Y-128059529D01*
X182604500Y-128059529D01*
X182604500Y-128200471D01*
X182631996Y-128338704D01*
X182685932Y-128468916D01*
X182764235Y-128586105D01*
X182863895Y-128685765D01*
X182981084Y-128764068D01*
X183111296Y-128818004D01*
X183249529Y-128845500D01*
X183390471Y-128845500D01*
X183528704Y-128818004D01*
X183658916Y-128764068D01*
X183776105Y-128685765D01*
X183875765Y-128586105D01*
X183954068Y-128468916D01*
X184008004Y-128338704D01*
X184035500Y-128200471D01*
X184035500Y-128059529D01*
X184008004Y-127921296D01*
X183954068Y-127791084D01*
X183875765Y-127673895D01*
X183776105Y-127574235D01*
X183658916Y-127495932D01*
X183528704Y-127441996D01*
X183390471Y-127414500D01*
X183249529Y-127414500D01*
X183111296Y-127441996D01*
X182981084Y-127495932D01*
X182863895Y-127574235D01*
X182764235Y-127673895D01*
X182685932Y-127791084D01*
X182631996Y-127921296D01*
X182604500Y-128059529D01*
X182435500Y-128059529D01*
X182408004Y-127921296D01*
X182354068Y-127791084D01*
X182275765Y-127673895D01*
X182176105Y-127574235D01*
X182058916Y-127495932D01*
X181928704Y-127441996D01*
X181790471Y-127414500D01*
X181649529Y-127414500D01*
X181511296Y-127441996D01*
X181381084Y-127495932D01*
X181263895Y-127574235D01*
X181164235Y-127673895D01*
X181085932Y-127791084D01*
X181031996Y-127921296D01*
X181004500Y-128059529D01*
X180364292Y-128059529D01*
X178864292Y-126559529D01*
X179404500Y-126559529D01*
X179404500Y-126700471D01*
X179431996Y-126838704D01*
X179485932Y-126968916D01*
X179564235Y-127086105D01*
X179663895Y-127185765D01*
X179781084Y-127264068D01*
X179911296Y-127318004D01*
X180049529Y-127345500D01*
X180190471Y-127345500D01*
X180328704Y-127318004D01*
X180458916Y-127264068D01*
X180576105Y-127185765D01*
X180675765Y-127086105D01*
X180754068Y-126968916D01*
X180808004Y-126838704D01*
X180835500Y-126700471D01*
X180835500Y-126559529D01*
X181004500Y-126559529D01*
X181004500Y-126700471D01*
X181031996Y-126838704D01*
X181085932Y-126968916D01*
X181164235Y-127086105D01*
X181263895Y-127185765D01*
X181381084Y-127264068D01*
X181511296Y-127318004D01*
X181649529Y-127345500D01*
X181790471Y-127345500D01*
X181928704Y-127318004D01*
X182058916Y-127264068D01*
X182176105Y-127185765D01*
X182275765Y-127086105D01*
X182354068Y-126968916D01*
X182408004Y-126838704D01*
X182435500Y-126700471D01*
X182435500Y-126559529D01*
X182604500Y-126559529D01*
X182604500Y-126700471D01*
X182631996Y-126838704D01*
X182685932Y-126968916D01*
X182764235Y-127086105D01*
X182863895Y-127185765D01*
X182981084Y-127264068D01*
X183111296Y-127318004D01*
X183249529Y-127345500D01*
X183390471Y-127345500D01*
X183528704Y-127318004D01*
X183658916Y-127264068D01*
X183776105Y-127185765D01*
X183875765Y-127086105D01*
X183954068Y-126968916D01*
X184008004Y-126838704D01*
X184035500Y-126700471D01*
X184035500Y-126559529D01*
X184204500Y-126559529D01*
X184204500Y-126700471D01*
X184231996Y-126838704D01*
X184285932Y-126968916D01*
X184364235Y-127086105D01*
X184463895Y-127185765D01*
X184581084Y-127264068D01*
X184711296Y-127318004D01*
X184849529Y-127345500D01*
X184990471Y-127345500D01*
X185128704Y-127318004D01*
X185258916Y-127264068D01*
X185376105Y-127185765D01*
X185475765Y-127086105D01*
X185554068Y-126968916D01*
X185608004Y-126838704D01*
X185635500Y-126700471D01*
X185635500Y-126559529D01*
X185608004Y-126421296D01*
X185554068Y-126291084D01*
X185475765Y-126173895D01*
X185376105Y-126074235D01*
X185258916Y-125995932D01*
X185223401Y-125981221D01*
X187015500Y-125981221D01*
X187015500Y-126068779D01*
X187032582Y-126154656D01*
X187066089Y-126235550D01*
X187114734Y-126308352D01*
X187176648Y-126370266D01*
X187249450Y-126418911D01*
X187330344Y-126452418D01*
X187416221Y-126469500D01*
X187503779Y-126469500D01*
X187589656Y-126452418D01*
X187670550Y-126418911D01*
X187743352Y-126370266D01*
X187805266Y-126308352D01*
X187853911Y-126235550D01*
X187887418Y-126154656D01*
X187904500Y-126068779D01*
X187904500Y-125981221D01*
X188285500Y-125981221D01*
X188285500Y-126068779D01*
X188302582Y-126154656D01*
X188336089Y-126235550D01*
X188384734Y-126308352D01*
X188446648Y-126370266D01*
X188519450Y-126418911D01*
X188600344Y-126452418D01*
X188686221Y-126469500D01*
X188773779Y-126469500D01*
X188859656Y-126452418D01*
X188940550Y-126418911D01*
X189013352Y-126370266D01*
X189075266Y-126308352D01*
X189123911Y-126235550D01*
X189157418Y-126154656D01*
X189174500Y-126068779D01*
X189174500Y-125981221D01*
X189555500Y-125981221D01*
X189555500Y-126068779D01*
X189572582Y-126154656D01*
X189606089Y-126235550D01*
X189654734Y-126308352D01*
X189716648Y-126370266D01*
X189789450Y-126418911D01*
X189870344Y-126452418D01*
X189956221Y-126469500D01*
X190043779Y-126469500D01*
X190129656Y-126452418D01*
X190210550Y-126418911D01*
X190283352Y-126370266D01*
X190345266Y-126308352D01*
X190393911Y-126235550D01*
X190427418Y-126154656D01*
X190444500Y-126068779D01*
X190444500Y-125981221D01*
X190825500Y-125981221D01*
X190825500Y-126068779D01*
X190842582Y-126154656D01*
X190876089Y-126235550D01*
X190924734Y-126308352D01*
X190986648Y-126370266D01*
X191059450Y-126418911D01*
X191140344Y-126452418D01*
X191226221Y-126469500D01*
X191313779Y-126469500D01*
X191399656Y-126452418D01*
X191480550Y-126418911D01*
X191553352Y-126370266D01*
X191615266Y-126308352D01*
X191663911Y-126235550D01*
X191697418Y-126154656D01*
X191714500Y-126068779D01*
X191714500Y-125981221D01*
X191697418Y-125895344D01*
X191663911Y-125814450D01*
X191615266Y-125741648D01*
X191553352Y-125679734D01*
X191480550Y-125631089D01*
X191399656Y-125597582D01*
X191313779Y-125580500D01*
X191226221Y-125580500D01*
X191140344Y-125597582D01*
X191059450Y-125631089D01*
X190986648Y-125679734D01*
X190924734Y-125741648D01*
X190876089Y-125814450D01*
X190842582Y-125895344D01*
X190825500Y-125981221D01*
X190444500Y-125981221D01*
X190427418Y-125895344D01*
X190393911Y-125814450D01*
X190345266Y-125741648D01*
X190283352Y-125679734D01*
X190210550Y-125631089D01*
X190129656Y-125597582D01*
X190043779Y-125580500D01*
X189956221Y-125580500D01*
X189870344Y-125597582D01*
X189789450Y-125631089D01*
X189716648Y-125679734D01*
X189654734Y-125741648D01*
X189606089Y-125814450D01*
X189572582Y-125895344D01*
X189555500Y-125981221D01*
X189174500Y-125981221D01*
X189157418Y-125895344D01*
X189123911Y-125814450D01*
X189075266Y-125741648D01*
X189013352Y-125679734D01*
X188940550Y-125631089D01*
X188859656Y-125597582D01*
X188773779Y-125580500D01*
X188686221Y-125580500D01*
X188600344Y-125597582D01*
X188519450Y-125631089D01*
X188446648Y-125679734D01*
X188384734Y-125741648D01*
X188336089Y-125814450D01*
X188302582Y-125895344D01*
X188285500Y-125981221D01*
X187904500Y-125981221D01*
X187887418Y-125895344D01*
X187853911Y-125814450D01*
X187805266Y-125741648D01*
X187743352Y-125679734D01*
X187670550Y-125631089D01*
X187589656Y-125597582D01*
X187503779Y-125580500D01*
X187416221Y-125580500D01*
X187330344Y-125597582D01*
X187249450Y-125631089D01*
X187176648Y-125679734D01*
X187114734Y-125741648D01*
X187066089Y-125814450D01*
X187032582Y-125895344D01*
X187015500Y-125981221D01*
X185223401Y-125981221D01*
X185128704Y-125941996D01*
X184990471Y-125914500D01*
X184849529Y-125914500D01*
X184711296Y-125941996D01*
X184581084Y-125995932D01*
X184463895Y-126074235D01*
X184364235Y-126173895D01*
X184285932Y-126291084D01*
X184231996Y-126421296D01*
X184204500Y-126559529D01*
X184035500Y-126559529D01*
X184008004Y-126421296D01*
X183954068Y-126291084D01*
X183875765Y-126173895D01*
X183776105Y-126074235D01*
X183658916Y-125995932D01*
X183528704Y-125941996D01*
X183390471Y-125914500D01*
X183249529Y-125914500D01*
X183111296Y-125941996D01*
X182981084Y-125995932D01*
X182863895Y-126074235D01*
X182764235Y-126173895D01*
X182685932Y-126291084D01*
X182631996Y-126421296D01*
X182604500Y-126559529D01*
X182435500Y-126559529D01*
X182408004Y-126421296D01*
X182354068Y-126291084D01*
X182275765Y-126173895D01*
X182176105Y-126074235D01*
X182058916Y-125995932D01*
X181928704Y-125941996D01*
X181790471Y-125914500D01*
X181649529Y-125914500D01*
X181511296Y-125941996D01*
X181381084Y-125995932D01*
X181263895Y-126074235D01*
X181164235Y-126173895D01*
X181085932Y-126291084D01*
X181031996Y-126421296D01*
X181004500Y-126559529D01*
X180835500Y-126559529D01*
X180808004Y-126421296D01*
X180754068Y-126291084D01*
X180675765Y-126173895D01*
X180576105Y-126074235D01*
X180458916Y-125995932D01*
X180328704Y-125941996D01*
X180190471Y-125914500D01*
X180049529Y-125914500D01*
X179911296Y-125941996D01*
X179781084Y-125995932D01*
X179663895Y-126074235D01*
X179564235Y-126173895D01*
X179485932Y-126291084D01*
X179431996Y-126421296D01*
X179404500Y-126559529D01*
X178864292Y-126559529D01*
X177364292Y-125059529D01*
X177804500Y-125059529D01*
X177804500Y-125200471D01*
X177831996Y-125338704D01*
X177885932Y-125468916D01*
X177964235Y-125586105D01*
X178063895Y-125685765D01*
X178181084Y-125764068D01*
X178311296Y-125818004D01*
X178449529Y-125845500D01*
X178590471Y-125845500D01*
X178728704Y-125818004D01*
X178858916Y-125764068D01*
X178976105Y-125685765D01*
X179075765Y-125586105D01*
X179154068Y-125468916D01*
X179208004Y-125338704D01*
X179235500Y-125200471D01*
X179235500Y-125059529D01*
X179404500Y-125059529D01*
X179404500Y-125200471D01*
X179431996Y-125338704D01*
X179485932Y-125468916D01*
X179564235Y-125586105D01*
X179663895Y-125685765D01*
X179781084Y-125764068D01*
X179911296Y-125818004D01*
X180049529Y-125845500D01*
X180190471Y-125845500D01*
X180328704Y-125818004D01*
X180458916Y-125764068D01*
X180576105Y-125685765D01*
X180675765Y-125586105D01*
X180754068Y-125468916D01*
X180808004Y-125338704D01*
X180835500Y-125200471D01*
X180835500Y-125059529D01*
X181004500Y-125059529D01*
X181004500Y-125200471D01*
X181031996Y-125338704D01*
X181085932Y-125468916D01*
X181164235Y-125586105D01*
X181263895Y-125685765D01*
X181381084Y-125764068D01*
X181511296Y-125818004D01*
X181649529Y-125845500D01*
X181790471Y-125845500D01*
X181928704Y-125818004D01*
X182058916Y-125764068D01*
X182176105Y-125685765D01*
X182275765Y-125586105D01*
X182354068Y-125468916D01*
X182408004Y-125338704D01*
X182435500Y-125200471D01*
X182435500Y-125059529D01*
X182408004Y-124921296D01*
X182354068Y-124791084D01*
X182275765Y-124673895D01*
X182176105Y-124574235D01*
X182058916Y-124495932D01*
X181928704Y-124441996D01*
X181790471Y-124414500D01*
X181649529Y-124414500D01*
X181511296Y-124441996D01*
X181381084Y-124495932D01*
X181263895Y-124574235D01*
X181164235Y-124673895D01*
X181085932Y-124791084D01*
X181031996Y-124921296D01*
X181004500Y-125059529D01*
X180835500Y-125059529D01*
X180808004Y-124921296D01*
X180754068Y-124791084D01*
X180675765Y-124673895D01*
X180576105Y-124574235D01*
X180458916Y-124495932D01*
X180328704Y-124441996D01*
X180190471Y-124414500D01*
X180049529Y-124414500D01*
X179911296Y-124441996D01*
X179781084Y-124495932D01*
X179663895Y-124574235D01*
X179564235Y-124673895D01*
X179485932Y-124791084D01*
X179431996Y-124921296D01*
X179404500Y-125059529D01*
X179235500Y-125059529D01*
X179208004Y-124921296D01*
X179154068Y-124791084D01*
X179075765Y-124673895D01*
X178976105Y-124574235D01*
X178858916Y-124495932D01*
X178728704Y-124441996D01*
X178590471Y-124414500D01*
X178449529Y-124414500D01*
X178311296Y-124441996D01*
X178181084Y-124495932D01*
X178063895Y-124574235D01*
X177964235Y-124673895D01*
X177885932Y-124791084D01*
X177831996Y-124921296D01*
X177804500Y-125059529D01*
X177364292Y-125059529D01*
X176215500Y-123910738D01*
X176215500Y-122892595D01*
X188909500Y-122892595D01*
X188909500Y-123107405D01*
X188951408Y-123318087D01*
X189033612Y-123516545D01*
X189152954Y-123695153D01*
X189304847Y-123847046D01*
X189483455Y-123966388D01*
X189681913Y-124048592D01*
X189892595Y-124090500D01*
X190107405Y-124090500D01*
X190318087Y-124048592D01*
X190516545Y-123966388D01*
X190695153Y-123847046D01*
X190847046Y-123695153D01*
X190966388Y-123516545D01*
X191048592Y-123318087D01*
X191090500Y-123107405D01*
X191090500Y-122892595D01*
X191048592Y-122681913D01*
X190966388Y-122483455D01*
X190847046Y-122304847D01*
X190695153Y-122152954D01*
X190516545Y-122033612D01*
X190318087Y-121951408D01*
X190107405Y-121909500D01*
X189892595Y-121909500D01*
X189681913Y-121951408D01*
X189483455Y-122033612D01*
X189304847Y-122152954D01*
X189152954Y-122304847D01*
X189033612Y-122483455D01*
X188951408Y-122681913D01*
X188909500Y-122892595D01*
X176215500Y-122892595D01*
X176215500Y-120806916D01*
X177209500Y-120806916D01*
X177209500Y-120933084D01*
X177234114Y-121056827D01*
X177282396Y-121173390D01*
X177352491Y-121278295D01*
X177441705Y-121367509D01*
X177546610Y-121437604D01*
X177663173Y-121485886D01*
X177786916Y-121510500D01*
X177913084Y-121510500D01*
X178035142Y-121486221D01*
X187345500Y-121486221D01*
X187345500Y-121573779D01*
X187362582Y-121659656D01*
X187396089Y-121740550D01*
X187444734Y-121813352D01*
X187506648Y-121875266D01*
X187579450Y-121923911D01*
X187660344Y-121957418D01*
X187746221Y-121974500D01*
X187833779Y-121974500D01*
X187919656Y-121957418D01*
X188000550Y-121923911D01*
X188073352Y-121875266D01*
X188135266Y-121813352D01*
X188183911Y-121740550D01*
X188217418Y-121659656D01*
X188234500Y-121573779D01*
X188234500Y-121486221D01*
X188217418Y-121400344D01*
X188183911Y-121319450D01*
X188135266Y-121246648D01*
X188073352Y-121184734D01*
X188000550Y-121136089D01*
X187919656Y-121102582D01*
X187833779Y-121085500D01*
X187746221Y-121085500D01*
X187660344Y-121102582D01*
X187579450Y-121136089D01*
X187506648Y-121184734D01*
X187444734Y-121246648D01*
X187396089Y-121319450D01*
X187362582Y-121400344D01*
X187345500Y-121486221D01*
X178035142Y-121486221D01*
X178036827Y-121485886D01*
X178153390Y-121437604D01*
X178258295Y-121367509D01*
X178347509Y-121278295D01*
X178417604Y-121173390D01*
X178465886Y-121056827D01*
X178490500Y-120933084D01*
X178490500Y-120806916D01*
X178465886Y-120683173D01*
X178417604Y-120566610D01*
X178347509Y-120461705D01*
X178258295Y-120372491D01*
X178153390Y-120302396D01*
X178036827Y-120254114D01*
X177913084Y-120229500D01*
X177786916Y-120229500D01*
X177663173Y-120254114D01*
X177546610Y-120302396D01*
X177441705Y-120372491D01*
X177352491Y-120461705D01*
X177282396Y-120566610D01*
X177234114Y-120683173D01*
X177209500Y-120806916D01*
X176215500Y-120806916D01*
X176215500Y-117806916D01*
X177209500Y-117806916D01*
X177209500Y-117933084D01*
X177234114Y-118056827D01*
X177282396Y-118173390D01*
X177352491Y-118278295D01*
X177441705Y-118367509D01*
X177546610Y-118437604D01*
X177663173Y-118485886D01*
X177786916Y-118510500D01*
X177913084Y-118510500D01*
X178036827Y-118485886D01*
X178153390Y-118437604D01*
X178258295Y-118367509D01*
X178347509Y-118278295D01*
X178417604Y-118173390D01*
X178465886Y-118056827D01*
X178490500Y-117933084D01*
X178490500Y-117806916D01*
X178465886Y-117683173D01*
X178417604Y-117566610D01*
X178347509Y-117461705D01*
X178258295Y-117372491D01*
X178153390Y-117302396D01*
X178036827Y-117254114D01*
X177913084Y-117229500D01*
X177786916Y-117229500D01*
X177663173Y-117254114D01*
X177546610Y-117302396D01*
X177441705Y-117372491D01*
X177352491Y-117461705D01*
X177282396Y-117566610D01*
X177234114Y-117683173D01*
X177209500Y-117806916D01*
X176215500Y-117806916D01*
X176215500Y-110541399D01*
X178995758Y-110541399D01*
X178997602Y-110560119D01*
X178997601Y-117112686D01*
X178997601Y-117112687D01*
X178997602Y-117749881D01*
X178995758Y-117768601D01*
X179000599Y-117817743D01*
X179003057Y-117842696D01*
X179003115Y-117843289D01*
X179024900Y-117915108D01*
X179060279Y-117981297D01*
X179070959Y-117994310D01*
X179107891Y-118039312D01*
X179122428Y-118051242D01*
X181857359Y-120786174D01*
X181869289Y-120800711D01*
X181883824Y-120812639D01*
X181927303Y-120848322D01*
X181993492Y-120883701D01*
X182065311Y-120905487D01*
X182121287Y-120911000D01*
X182121290Y-120911000D01*
X182140000Y-120912843D01*
X182158710Y-120911000D01*
X195021290Y-120911000D01*
X195040000Y-120912843D01*
X195058710Y-120911000D01*
X195058713Y-120911000D01*
X195114689Y-120905487D01*
X195186508Y-120883701D01*
X195252696Y-120848322D01*
X195310711Y-120800711D01*
X195322646Y-120786168D01*
X195777315Y-120331500D01*
X195866288Y-120331500D01*
X195976700Y-120309537D01*
X196080707Y-120266457D01*
X196174310Y-120203913D01*
X196253913Y-120124310D01*
X196316457Y-120030707D01*
X196359537Y-119926700D01*
X196381500Y-119816288D01*
X196381500Y-119703712D01*
X196359537Y-119593300D01*
X196316457Y-119489293D01*
X196253913Y-119395690D01*
X196174310Y-119316087D01*
X196080707Y-119253543D01*
X195976700Y-119210463D01*
X195866288Y-119188500D01*
X195753712Y-119188500D01*
X195643300Y-119210463D01*
X195539293Y-119253543D01*
X195445690Y-119316087D01*
X195366087Y-119395690D01*
X195303543Y-119489293D01*
X195260463Y-119593300D01*
X195238500Y-119703712D01*
X195238500Y-119792685D01*
X194882186Y-120149000D01*
X182297815Y-120149000D01*
X179759601Y-117610787D01*
X179759601Y-115923712D01*
X179828500Y-115923712D01*
X179828500Y-116036288D01*
X179850463Y-116146700D01*
X179893543Y-116250707D01*
X179956087Y-116344310D01*
X180035690Y-116423913D01*
X180129293Y-116486457D01*
X180233300Y-116529537D01*
X180343712Y-116551500D01*
X180456288Y-116551500D01*
X180566700Y-116529537D01*
X180670707Y-116486457D01*
X180764310Y-116423913D01*
X180827223Y-116361000D01*
X181232186Y-116361000D01*
X184247363Y-119376179D01*
X184259289Y-119390711D01*
X184273821Y-119402637D01*
X184273824Y-119402640D01*
X184317303Y-119438322D01*
X184383492Y-119473701D01*
X184455311Y-119495487D01*
X184511287Y-119501000D01*
X184511290Y-119501000D01*
X184530000Y-119502843D01*
X184548710Y-119501000D01*
X188542777Y-119501000D01*
X188615690Y-119573913D01*
X188709293Y-119636457D01*
X188813300Y-119679537D01*
X188923712Y-119701500D01*
X189036288Y-119701500D01*
X189146700Y-119679537D01*
X189250707Y-119636457D01*
X189344310Y-119573913D01*
X189423913Y-119494310D01*
X189486457Y-119400707D01*
X189529537Y-119296700D01*
X189551500Y-119186288D01*
X189551500Y-119073712D01*
X189536086Y-118996221D01*
X190675500Y-118996221D01*
X190675500Y-119083779D01*
X190692582Y-119169656D01*
X190726089Y-119250550D01*
X190774734Y-119323352D01*
X190836648Y-119385266D01*
X190909450Y-119433911D01*
X190990344Y-119467418D01*
X191076221Y-119484500D01*
X191163779Y-119484500D01*
X191249656Y-119467418D01*
X191330550Y-119433911D01*
X191403352Y-119385266D01*
X191465266Y-119323352D01*
X191513911Y-119250550D01*
X191547418Y-119169656D01*
X191564500Y-119083779D01*
X191564500Y-119033118D01*
X191616648Y-119085266D01*
X191689450Y-119133911D01*
X191770344Y-119167418D01*
X191856221Y-119184500D01*
X191943779Y-119184500D01*
X192029656Y-119167418D01*
X192110550Y-119133911D01*
X192183352Y-119085266D01*
X192245266Y-119023352D01*
X192293911Y-118950550D01*
X192327418Y-118869656D01*
X192344500Y-118783779D01*
X192344500Y-118776221D01*
X192735500Y-118776221D01*
X192735500Y-118863779D01*
X192752582Y-118949656D01*
X192786089Y-119030550D01*
X192834734Y-119103352D01*
X192896648Y-119165266D01*
X192969450Y-119213911D01*
X193050344Y-119247418D01*
X193136221Y-119264500D01*
X193223779Y-119264500D01*
X193309656Y-119247418D01*
X193390550Y-119213911D01*
X193463352Y-119165266D01*
X193525266Y-119103352D01*
X193573911Y-119030550D01*
X193607418Y-118949656D01*
X193624500Y-118863779D01*
X193624500Y-118776221D01*
X193607418Y-118690344D01*
X193573911Y-118609450D01*
X193525266Y-118536648D01*
X193463352Y-118474734D01*
X193390550Y-118426089D01*
X193309656Y-118392582D01*
X193223779Y-118375500D01*
X193136221Y-118375500D01*
X193050344Y-118392582D01*
X192969450Y-118426089D01*
X192896648Y-118474734D01*
X192834734Y-118536648D01*
X192786089Y-118609450D01*
X192752582Y-118690344D01*
X192735500Y-118776221D01*
X192344500Y-118776221D01*
X192344500Y-118696221D01*
X192327418Y-118610344D01*
X192293911Y-118529450D01*
X192245266Y-118456648D01*
X192183352Y-118394734D01*
X192110550Y-118346089D01*
X192029656Y-118312582D01*
X191943779Y-118295500D01*
X191856221Y-118295500D01*
X191770344Y-118312582D01*
X191689450Y-118346089D01*
X191616648Y-118394734D01*
X191554734Y-118456648D01*
X191506089Y-118529450D01*
X191472582Y-118610344D01*
X191455500Y-118696221D01*
X191455500Y-118746882D01*
X191403352Y-118694734D01*
X191330550Y-118646089D01*
X191249656Y-118612582D01*
X191163779Y-118595500D01*
X191076221Y-118595500D01*
X190990344Y-118612582D01*
X190909450Y-118646089D01*
X190836648Y-118694734D01*
X190774734Y-118756648D01*
X190726089Y-118829450D01*
X190692582Y-118910344D01*
X190675500Y-118996221D01*
X189536086Y-118996221D01*
X189529537Y-118963300D01*
X189486457Y-118859293D01*
X189423913Y-118765690D01*
X189344310Y-118686087D01*
X189250707Y-118623543D01*
X189146700Y-118580463D01*
X189036288Y-118558500D01*
X188923712Y-118558500D01*
X188813300Y-118580463D01*
X188709293Y-118623543D01*
X188615690Y-118686087D01*
X188562777Y-118739000D01*
X184687816Y-118739000D01*
X181672646Y-115723832D01*
X181660711Y-115709289D01*
X181602696Y-115661678D01*
X181536508Y-115626299D01*
X181464689Y-115604513D01*
X181408713Y-115599000D01*
X181408710Y-115599000D01*
X181390000Y-115597157D01*
X181371290Y-115599000D01*
X180827223Y-115599000D01*
X180764310Y-115536087D01*
X180670707Y-115473543D01*
X180566700Y-115430463D01*
X180456288Y-115408500D01*
X180343712Y-115408500D01*
X180233300Y-115430463D01*
X180129293Y-115473543D01*
X180035690Y-115536087D01*
X179956087Y-115615690D01*
X179893543Y-115709293D01*
X179850463Y-115813300D01*
X179828500Y-115923712D01*
X179759601Y-115923712D01*
X179759601Y-110699213D01*
X180428814Y-110030000D01*
X183327157Y-110030000D01*
X183329000Y-110048710D01*
X183329001Y-112281278D01*
X183329000Y-112281288D01*
X183329001Y-114021278D01*
X183329000Y-114021288D01*
X183329001Y-116631280D01*
X183327157Y-116650000D01*
X183334514Y-116724688D01*
X183356299Y-116796507D01*
X183391678Y-116862696D01*
X183421010Y-116898437D01*
X183439290Y-116920711D01*
X183453827Y-116932641D01*
X184118500Y-117597315D01*
X184118500Y-117686288D01*
X184140463Y-117796700D01*
X184183543Y-117900707D01*
X184246087Y-117994310D01*
X184325690Y-118073913D01*
X184419293Y-118136457D01*
X184523300Y-118179537D01*
X184633712Y-118201500D01*
X184746288Y-118201500D01*
X184856700Y-118179537D01*
X184960707Y-118136457D01*
X185054310Y-118073913D01*
X185133913Y-117994310D01*
X185196457Y-117900707D01*
X185239537Y-117796700D01*
X185261500Y-117686288D01*
X185261500Y-117573712D01*
X185239537Y-117463300D01*
X185196457Y-117359293D01*
X185133913Y-117265690D01*
X185099444Y-117231221D01*
X190825500Y-117231221D01*
X190825500Y-117318779D01*
X190842582Y-117404656D01*
X190876089Y-117485550D01*
X190924734Y-117558352D01*
X190986648Y-117620266D01*
X191059450Y-117668911D01*
X191140344Y-117702418D01*
X191226221Y-117719500D01*
X191313779Y-117719500D01*
X191399656Y-117702418D01*
X191480550Y-117668911D01*
X191553352Y-117620266D01*
X191615266Y-117558352D01*
X191663911Y-117485550D01*
X191697418Y-117404656D01*
X191714500Y-117318779D01*
X191714500Y-117231221D01*
X192095500Y-117231221D01*
X192095500Y-117318779D01*
X192112582Y-117404656D01*
X192146089Y-117485550D01*
X192194734Y-117558352D01*
X192256648Y-117620266D01*
X192329450Y-117668911D01*
X192410344Y-117702418D01*
X192496221Y-117719500D01*
X192583779Y-117719500D01*
X192669656Y-117702418D01*
X192750550Y-117668911D01*
X192823352Y-117620266D01*
X192885266Y-117558352D01*
X192933911Y-117485550D01*
X192967418Y-117404656D01*
X192984500Y-117318779D01*
X192984500Y-117231221D01*
X192967418Y-117145344D01*
X192933911Y-117064450D01*
X192885266Y-116991648D01*
X192823352Y-116929734D01*
X192750550Y-116881089D01*
X192669656Y-116847582D01*
X192583779Y-116830500D01*
X192496221Y-116830500D01*
X192410344Y-116847582D01*
X192329450Y-116881089D01*
X192256648Y-116929734D01*
X192194734Y-116991648D01*
X192146089Y-117064450D01*
X192112582Y-117145344D01*
X192095500Y-117231221D01*
X191714500Y-117231221D01*
X191697418Y-117145344D01*
X191663911Y-117064450D01*
X191615266Y-116991648D01*
X191553352Y-116929734D01*
X191480550Y-116881089D01*
X191399656Y-116847582D01*
X191313779Y-116830500D01*
X191226221Y-116830500D01*
X191140344Y-116847582D01*
X191059450Y-116881089D01*
X190986648Y-116929734D01*
X190924734Y-116991648D01*
X190876089Y-117064450D01*
X190842582Y-117145344D01*
X190825500Y-117231221D01*
X185099444Y-117231221D01*
X185054310Y-117186087D01*
X184960707Y-117123543D01*
X184856700Y-117080463D01*
X184746288Y-117058500D01*
X184657315Y-117058500D01*
X184091000Y-116492186D01*
X184091000Y-115786221D01*
X186375500Y-115786221D01*
X186375500Y-115873779D01*
X186392582Y-115959656D01*
X186426089Y-116040550D01*
X186474734Y-116113352D01*
X186536648Y-116175266D01*
X186609450Y-116223911D01*
X186690344Y-116257418D01*
X186776221Y-116274500D01*
X186863779Y-116274500D01*
X186949656Y-116257418D01*
X187030550Y-116223911D01*
X187103352Y-116175266D01*
X187165266Y-116113352D01*
X187213911Y-116040550D01*
X187247418Y-115959656D01*
X187248665Y-115953387D01*
X187249450Y-115953911D01*
X187330344Y-115987418D01*
X187416221Y-116004500D01*
X187503779Y-116004500D01*
X187589656Y-115987418D01*
X187670550Y-115953911D01*
X187743352Y-115905266D01*
X187805266Y-115843352D01*
X187853911Y-115770550D01*
X187887418Y-115689656D01*
X187896057Y-115646221D01*
X188285500Y-115646221D01*
X188285500Y-115733779D01*
X188302582Y-115819656D01*
X188336089Y-115900550D01*
X188384734Y-115973352D01*
X188446648Y-116035266D01*
X188519450Y-116083911D01*
X188600344Y-116117418D01*
X188686221Y-116134500D01*
X188773779Y-116134500D01*
X188859656Y-116117418D01*
X188940550Y-116083911D01*
X189013352Y-116035266D01*
X189075266Y-115973352D01*
X189123911Y-115900550D01*
X189157418Y-115819656D01*
X189174500Y-115733779D01*
X189174500Y-115720145D01*
X189240344Y-115747418D01*
X189326221Y-115764500D01*
X189413779Y-115764500D01*
X189499656Y-115747418D01*
X189558087Y-115723215D01*
X189555500Y-115736221D01*
X189555500Y-115823779D01*
X189572582Y-115909656D01*
X189606089Y-115990550D01*
X189654734Y-116063352D01*
X189716648Y-116125266D01*
X189789450Y-116173911D01*
X189870344Y-116207418D01*
X189956221Y-116224500D01*
X190043779Y-116224500D01*
X190129656Y-116207418D01*
X190210550Y-116173911D01*
X190283352Y-116125266D01*
X190345266Y-116063352D01*
X190393911Y-115990550D01*
X190427418Y-115909656D01*
X190444500Y-115823779D01*
X190444500Y-115736221D01*
X190427418Y-115650344D01*
X190393911Y-115569450D01*
X190345266Y-115496648D01*
X190283352Y-115434734D01*
X190210550Y-115386089D01*
X190129656Y-115352582D01*
X190043779Y-115335500D01*
X189956221Y-115335500D01*
X189870344Y-115352582D01*
X189811913Y-115376785D01*
X189814500Y-115363779D01*
X189814500Y-115276221D01*
X189797418Y-115190344D01*
X189763911Y-115109450D01*
X189715266Y-115036648D01*
X189653352Y-114974734D01*
X189580550Y-114926089D01*
X189499656Y-114892582D01*
X189413779Y-114875500D01*
X189326221Y-114875500D01*
X189240344Y-114892582D01*
X189159450Y-114926089D01*
X189086648Y-114974734D01*
X189024734Y-115036648D01*
X188976089Y-115109450D01*
X188942582Y-115190344D01*
X188925500Y-115276221D01*
X188925500Y-115289855D01*
X188859656Y-115262582D01*
X188773779Y-115245500D01*
X188686221Y-115245500D01*
X188600344Y-115262582D01*
X188519450Y-115296089D01*
X188446648Y-115344734D01*
X188384734Y-115406648D01*
X188336089Y-115479450D01*
X188302582Y-115560344D01*
X188285500Y-115646221D01*
X187896057Y-115646221D01*
X187904500Y-115603779D01*
X187904500Y-115516221D01*
X187887418Y-115430344D01*
X187853911Y-115349450D01*
X187805266Y-115276648D01*
X187743352Y-115214734D01*
X187670550Y-115166089D01*
X187589656Y-115132582D01*
X187503779Y-115115500D01*
X187416221Y-115115500D01*
X187330344Y-115132582D01*
X187249450Y-115166089D01*
X187176648Y-115214734D01*
X187114734Y-115276648D01*
X187066089Y-115349450D01*
X187032582Y-115430344D01*
X187031335Y-115436613D01*
X187030550Y-115436089D01*
X186949656Y-115402582D01*
X186863779Y-115385500D01*
X186776221Y-115385500D01*
X186690344Y-115402582D01*
X186609450Y-115436089D01*
X186536648Y-115484734D01*
X186474734Y-115546648D01*
X186426089Y-115619450D01*
X186392582Y-115700344D01*
X186375500Y-115786221D01*
X184091000Y-115786221D01*
X184091000Y-113681221D01*
X187015500Y-113681221D01*
X187015500Y-113768779D01*
X187032582Y-113854656D01*
X187066089Y-113935550D01*
X187114734Y-114008352D01*
X187176648Y-114070266D01*
X187249450Y-114118911D01*
X187330344Y-114152418D01*
X187416221Y-114169500D01*
X187503779Y-114169500D01*
X187589656Y-114152418D01*
X187670550Y-114118911D01*
X187743352Y-114070266D01*
X187805266Y-114008352D01*
X187853911Y-113935550D01*
X187887418Y-113854656D01*
X187904500Y-113768779D01*
X187904500Y-113681221D01*
X187887418Y-113595344D01*
X187853911Y-113514450D01*
X187805266Y-113441648D01*
X187743352Y-113379734D01*
X187670550Y-113331089D01*
X187589656Y-113297582D01*
X187503779Y-113280500D01*
X187416221Y-113280500D01*
X187330344Y-113297582D01*
X187249450Y-113331089D01*
X187176648Y-113379734D01*
X187114734Y-113441648D01*
X187066089Y-113514450D01*
X187032582Y-113595344D01*
X187015500Y-113681221D01*
X184091000Y-113681221D01*
X184091000Y-112313712D01*
X184598500Y-112313712D01*
X184598500Y-112426288D01*
X184620463Y-112536700D01*
X184663543Y-112640707D01*
X184726087Y-112734310D01*
X184805690Y-112813913D01*
X184899293Y-112876457D01*
X185003300Y-112919537D01*
X185113712Y-112941500D01*
X185226288Y-112941500D01*
X185336700Y-112919537D01*
X185436982Y-112878000D01*
X191259580Y-112878000D01*
X192778429Y-114396850D01*
X192778435Y-114396855D01*
X195538579Y-117157000D01*
X195538579Y-117630000D01*
X195542257Y-117667344D01*
X195553150Y-117703254D01*
X195570839Y-117736348D01*
X195594645Y-117765355D01*
X195623652Y-117789161D01*
X195656746Y-117806850D01*
X195692656Y-117817743D01*
X195730000Y-117821421D01*
X196730000Y-117821421D01*
X196767344Y-117817743D01*
X196803254Y-117806850D01*
X196836348Y-117789161D01*
X196865355Y-117765355D01*
X196889161Y-117736348D01*
X196906850Y-117703254D01*
X196908983Y-117696221D01*
X200025500Y-117696221D01*
X200025500Y-117783779D01*
X200042582Y-117869656D01*
X200076089Y-117950550D01*
X200124734Y-118023352D01*
X200186648Y-118085266D01*
X200259450Y-118133911D01*
X200340344Y-118167418D01*
X200426221Y-118184500D01*
X200506882Y-118184500D01*
X200474734Y-118216648D01*
X200426089Y-118289450D01*
X200392582Y-118370344D01*
X200375500Y-118456221D01*
X200375500Y-118543779D01*
X200392582Y-118629656D01*
X200426089Y-118710550D01*
X200474734Y-118783352D01*
X200536648Y-118845266D01*
X200609450Y-118893911D01*
X200690344Y-118927418D01*
X200776221Y-118944500D01*
X200863779Y-118944500D01*
X200949656Y-118927418D01*
X201030550Y-118893911D01*
X201103352Y-118845266D01*
X201165266Y-118783352D01*
X201213911Y-118710550D01*
X201225047Y-118683665D01*
X201226648Y-118685266D01*
X201299450Y-118733911D01*
X201380344Y-118767418D01*
X201466221Y-118784500D01*
X201553779Y-118784500D01*
X201639656Y-118767418D01*
X201720550Y-118733911D01*
X201793352Y-118685266D01*
X201855266Y-118623352D01*
X201903911Y-118550550D01*
X201937418Y-118469656D01*
X201954500Y-118383779D01*
X201954500Y-118296221D01*
X201937418Y-118210344D01*
X201903911Y-118129450D01*
X201855266Y-118056648D01*
X201793352Y-117994734D01*
X201788655Y-117991595D01*
X201809656Y-117987418D01*
X201890550Y-117953911D01*
X201963352Y-117905266D01*
X202025266Y-117843352D01*
X202073911Y-117770550D01*
X202107418Y-117689656D01*
X202124500Y-117603779D01*
X202124500Y-117516221D01*
X202107418Y-117430344D01*
X202073911Y-117349450D01*
X202025266Y-117276648D01*
X201963352Y-117214734D01*
X201890550Y-117166089D01*
X201809656Y-117132582D01*
X201723779Y-117115500D01*
X201636221Y-117115500D01*
X201550344Y-117132582D01*
X201469450Y-117166089D01*
X201396648Y-117214734D01*
X201334734Y-117276648D01*
X201286089Y-117349450D01*
X201252582Y-117430344D01*
X201235500Y-117516221D01*
X201235500Y-117603779D01*
X201252582Y-117689656D01*
X201286089Y-117770550D01*
X201334734Y-117843352D01*
X201396648Y-117905266D01*
X201401345Y-117908405D01*
X201380344Y-117912582D01*
X201299450Y-117946089D01*
X201226648Y-117994734D01*
X201164734Y-118056648D01*
X201116089Y-118129450D01*
X201104953Y-118156335D01*
X201103352Y-118154734D01*
X201030550Y-118106089D01*
X200949656Y-118072582D01*
X200863779Y-118055500D01*
X200783118Y-118055500D01*
X200815266Y-118023352D01*
X200863911Y-117950550D01*
X200897418Y-117869656D01*
X200914500Y-117783779D01*
X200914500Y-117696221D01*
X200897418Y-117610344D01*
X200863911Y-117529450D01*
X200815266Y-117456648D01*
X200753352Y-117394734D01*
X200680550Y-117346089D01*
X200599656Y-117312582D01*
X200513779Y-117295500D01*
X200426221Y-117295500D01*
X200340344Y-117312582D01*
X200259450Y-117346089D01*
X200186648Y-117394734D01*
X200124734Y-117456648D01*
X200076089Y-117529450D01*
X200042582Y-117610344D01*
X200025500Y-117696221D01*
X196908983Y-117696221D01*
X196917743Y-117667344D01*
X196921421Y-117630000D01*
X196921421Y-116630000D01*
X196917743Y-116592656D01*
X196906850Y-116556746D01*
X196889161Y-116523652D01*
X196865355Y-116494645D01*
X196836348Y-116470839D01*
X196803254Y-116453150D01*
X196767344Y-116442257D01*
X196730000Y-116438579D01*
X196257000Y-116438579D01*
X193496855Y-113678435D01*
X193496850Y-113678429D01*
X191846855Y-112028435D01*
X191830948Y-112009052D01*
X191753595Y-111945571D01*
X191665343Y-111898399D01*
X191569585Y-111869351D01*
X191494947Y-111862000D01*
X191494944Y-111862000D01*
X191470000Y-111859543D01*
X191445056Y-111862000D01*
X185436982Y-111862000D01*
X185336700Y-111820463D01*
X185226288Y-111798500D01*
X185113712Y-111798500D01*
X185003300Y-111820463D01*
X184899293Y-111863543D01*
X184805690Y-111926087D01*
X184726087Y-112005690D01*
X184663543Y-112099293D01*
X184620463Y-112203300D01*
X184598500Y-112313712D01*
X184091000Y-112313712D01*
X184091000Y-111216221D01*
X190825500Y-111216221D01*
X190825500Y-111303779D01*
X190842582Y-111389656D01*
X190876089Y-111470550D01*
X190924734Y-111543352D01*
X190986648Y-111605266D01*
X191059450Y-111653911D01*
X191140344Y-111687418D01*
X191226221Y-111704500D01*
X191313779Y-111704500D01*
X191399656Y-111687418D01*
X191480550Y-111653911D01*
X191553352Y-111605266D01*
X191615266Y-111543352D01*
X191663911Y-111470550D01*
X191697418Y-111389656D01*
X191714500Y-111303779D01*
X191714500Y-111216221D01*
X191712511Y-111206221D01*
X192095500Y-111206221D01*
X192095500Y-111293779D01*
X192112582Y-111379656D01*
X192146089Y-111460550D01*
X192194734Y-111533352D01*
X192256648Y-111595266D01*
X192329450Y-111643911D01*
X192410344Y-111677418D01*
X192496221Y-111694500D01*
X192583779Y-111694500D01*
X192669656Y-111677418D01*
X192750550Y-111643911D01*
X192823352Y-111595266D01*
X192885266Y-111533352D01*
X192933911Y-111460550D01*
X192967418Y-111379656D01*
X192984500Y-111293779D01*
X192984500Y-111206221D01*
X192967418Y-111120344D01*
X192933911Y-111039450D01*
X192885266Y-110966648D01*
X192823352Y-110904734D01*
X192750550Y-110856089D01*
X192669656Y-110822582D01*
X192583779Y-110805500D01*
X192496221Y-110805500D01*
X192410344Y-110822582D01*
X192329450Y-110856089D01*
X192256648Y-110904734D01*
X192194734Y-110966648D01*
X192146089Y-111039450D01*
X192112582Y-111120344D01*
X192095500Y-111206221D01*
X191712511Y-111206221D01*
X191697418Y-111130344D01*
X191663911Y-111049450D01*
X191615266Y-110976648D01*
X191553352Y-110914734D01*
X191480550Y-110866089D01*
X191399656Y-110832582D01*
X191313779Y-110815500D01*
X191226221Y-110815500D01*
X191140344Y-110832582D01*
X191059450Y-110866089D01*
X190986648Y-110914734D01*
X190924734Y-110976648D01*
X190876089Y-111049450D01*
X190842582Y-111130344D01*
X190825500Y-111216221D01*
X184091000Y-111216221D01*
X184091000Y-110646221D01*
X189155500Y-110646221D01*
X189155500Y-110733779D01*
X189172582Y-110819656D01*
X189206089Y-110900550D01*
X189254734Y-110973352D01*
X189316648Y-111035266D01*
X189389450Y-111083911D01*
X189470344Y-111117418D01*
X189556221Y-111134500D01*
X189643779Y-111134500D01*
X189729656Y-111117418D01*
X189810550Y-111083911D01*
X189883352Y-111035266D01*
X189945266Y-110973352D01*
X189993911Y-110900550D01*
X190027418Y-110819656D01*
X190044500Y-110733779D01*
X190044500Y-110646221D01*
X190027418Y-110560344D01*
X189993911Y-110479450D01*
X189991754Y-110476221D01*
X190315500Y-110476221D01*
X190315500Y-110563779D01*
X190332582Y-110649656D01*
X190366089Y-110730550D01*
X190414734Y-110803352D01*
X190476648Y-110865266D01*
X190549450Y-110913911D01*
X190630344Y-110947418D01*
X190716221Y-110964500D01*
X190803779Y-110964500D01*
X190889656Y-110947418D01*
X190970550Y-110913911D01*
X191043352Y-110865266D01*
X191105266Y-110803352D01*
X191153911Y-110730550D01*
X191187418Y-110649656D01*
X191204500Y-110563779D01*
X191204500Y-110476221D01*
X191187418Y-110390344D01*
X191153911Y-110309450D01*
X191105266Y-110236648D01*
X191043352Y-110174734D01*
X190970550Y-110126089D01*
X190889656Y-110092582D01*
X190803779Y-110075500D01*
X190716221Y-110075500D01*
X190630344Y-110092582D01*
X190549450Y-110126089D01*
X190476648Y-110174734D01*
X190414734Y-110236648D01*
X190366089Y-110309450D01*
X190332582Y-110390344D01*
X190315500Y-110476221D01*
X189991754Y-110476221D01*
X189945266Y-110406648D01*
X189883352Y-110344734D01*
X189810550Y-110296089D01*
X189729656Y-110262582D01*
X189643779Y-110245500D01*
X189556221Y-110245500D01*
X189470344Y-110262582D01*
X189389450Y-110296089D01*
X189316648Y-110344734D01*
X189254734Y-110406648D01*
X189206089Y-110479450D01*
X189172582Y-110560344D01*
X189155500Y-110646221D01*
X184091000Y-110646221D01*
X184091000Y-110187814D01*
X184552593Y-109726221D01*
X185612900Y-109726221D01*
X185612900Y-109813779D01*
X185629982Y-109899656D01*
X185663489Y-109980550D01*
X185712134Y-110053352D01*
X185774048Y-110115266D01*
X185846850Y-110163911D01*
X185927744Y-110197418D01*
X186013621Y-110214500D01*
X186101179Y-110214500D01*
X186187056Y-110197418D01*
X186267950Y-110163911D01*
X186340752Y-110115266D01*
X186402666Y-110053352D01*
X186451311Y-109980550D01*
X186484818Y-109899656D01*
X186501900Y-109813779D01*
X186501900Y-109726221D01*
X186484818Y-109640344D01*
X186451311Y-109559450D01*
X186402666Y-109486648D01*
X186340752Y-109424734D01*
X186268148Y-109376221D01*
X187825500Y-109376221D01*
X187825500Y-109463779D01*
X187842582Y-109549656D01*
X187876089Y-109630550D01*
X187924734Y-109703352D01*
X187986648Y-109765266D01*
X188059450Y-109813911D01*
X188140344Y-109847418D01*
X188226221Y-109864500D01*
X188313779Y-109864500D01*
X188399656Y-109847418D01*
X188480550Y-109813911D01*
X188553352Y-109765266D01*
X188615266Y-109703352D01*
X188663911Y-109630550D01*
X188697418Y-109549656D01*
X188714500Y-109463779D01*
X188714500Y-109376221D01*
X188697418Y-109290344D01*
X188663911Y-109209450D01*
X188615266Y-109136648D01*
X188553352Y-109074734D01*
X188480550Y-109026089D01*
X188399656Y-108992582D01*
X188313779Y-108975500D01*
X188226221Y-108975500D01*
X188140344Y-108992582D01*
X188059450Y-109026089D01*
X187986648Y-109074734D01*
X187924734Y-109136648D01*
X187876089Y-109209450D01*
X187842582Y-109290344D01*
X187825500Y-109376221D01*
X186268148Y-109376221D01*
X186267950Y-109376089D01*
X186187056Y-109342582D01*
X186101179Y-109325500D01*
X186013621Y-109325500D01*
X185927744Y-109342582D01*
X185846850Y-109376089D01*
X185774048Y-109424734D01*
X185712134Y-109486648D01*
X185663489Y-109559450D01*
X185629982Y-109640344D01*
X185612900Y-109726221D01*
X184552593Y-109726221D01*
X185402639Y-108876176D01*
X185402644Y-108876170D01*
X185517814Y-108761000D01*
X188090127Y-108761000D01*
X188109450Y-108773911D01*
X188190344Y-108807418D01*
X188276221Y-108824500D01*
X188363779Y-108824500D01*
X188449656Y-108807418D01*
X188530550Y-108773911D01*
X188603352Y-108725266D01*
X188631118Y-108697500D01*
X198054404Y-108697500D01*
X198070000Y-108699036D01*
X198085596Y-108697500D01*
X198132241Y-108692906D01*
X198192090Y-108674751D01*
X198247247Y-108645269D01*
X198295593Y-108605593D01*
X198305542Y-108593470D01*
X199006417Y-107892595D01*
X200659500Y-107892595D01*
X200659500Y-108107405D01*
X200701408Y-108318087D01*
X200783612Y-108516545D01*
X200902954Y-108695153D01*
X201054847Y-108847046D01*
X201233455Y-108966388D01*
X201431913Y-109048592D01*
X201642595Y-109090500D01*
X201857405Y-109090500D01*
X202068087Y-109048592D01*
X202266545Y-108966388D01*
X202445153Y-108847046D01*
X202597046Y-108695153D01*
X202716388Y-108516545D01*
X202798592Y-108318087D01*
X202840500Y-108107405D01*
X202840500Y-107892595D01*
X202798592Y-107681913D01*
X202716388Y-107483455D01*
X202597046Y-107304847D01*
X202445153Y-107152954D01*
X202266545Y-107033612D01*
X202068087Y-106951408D01*
X201857405Y-106909500D01*
X201642595Y-106909500D01*
X201431913Y-106951408D01*
X201233455Y-107033612D01*
X201054847Y-107152954D01*
X200902954Y-107304847D01*
X200783612Y-107483455D01*
X200701408Y-107681913D01*
X200659500Y-107892595D01*
X199006417Y-107892595D01*
X199615534Y-107283479D01*
X199615538Y-107283474D01*
X200645534Y-106253479D01*
X200645539Y-106253473D01*
X200783470Y-106115542D01*
X200795593Y-106105593D01*
X200835269Y-106057247D01*
X200864751Y-106002090D01*
X200882906Y-105942241D01*
X200887500Y-105895596D01*
X200887500Y-105895594D01*
X200889036Y-105880001D01*
X200887500Y-105864408D01*
X200887500Y-104691118D01*
X200915266Y-104663352D01*
X200963911Y-104590550D01*
X200997418Y-104509656D01*
X201014500Y-104423779D01*
X201014500Y-104374513D01*
X201133475Y-104255537D01*
X201145593Y-104245593D01*
X201185269Y-104197247D01*
X201214751Y-104142090D01*
X201232906Y-104082241D01*
X201237500Y-104035596D01*
X201239036Y-104020000D01*
X201237500Y-104004404D01*
X201237500Y-97455603D01*
X201239037Y-97440000D01*
X201232906Y-97377759D01*
X201214751Y-97317910D01*
X201185269Y-97262753D01*
X201145593Y-97214407D01*
X201133477Y-97204464D01*
X200514500Y-96585488D01*
X200514500Y-96546221D01*
X200497418Y-96460344D01*
X200463911Y-96379450D01*
X200415266Y-96306648D01*
X200353352Y-96244734D01*
X200280550Y-96196089D01*
X200199656Y-96162582D01*
X200113779Y-96145500D01*
X200026221Y-96145500D01*
X199940344Y-96162582D01*
X199859450Y-96196089D01*
X199786648Y-96244734D01*
X199724734Y-96306648D01*
X199676089Y-96379450D01*
X199642582Y-96460344D01*
X199625500Y-96546221D01*
X199625500Y-96557079D01*
X199206855Y-96138435D01*
X199190948Y-96119052D01*
X199113595Y-96055571D01*
X199025343Y-96008399D01*
X198929585Y-95979351D01*
X198854947Y-95972000D01*
X198854944Y-95972000D01*
X198830000Y-95969543D01*
X198805056Y-95972000D01*
X198366982Y-95972000D01*
X198266700Y-95930463D01*
X198156288Y-95908500D01*
X198043712Y-95908500D01*
X197933300Y-95930463D01*
X197829293Y-95973543D01*
X197735690Y-96036087D01*
X197656087Y-96115690D01*
X197593543Y-96209293D01*
X197550463Y-96313300D01*
X197528500Y-96423712D01*
X197528500Y-96536288D01*
X197550463Y-96646700D01*
X197593543Y-96750707D01*
X197656087Y-96844310D01*
X197735690Y-96923913D01*
X197829293Y-96986457D01*
X197933300Y-97029537D01*
X198043712Y-97051500D01*
X198156288Y-97051500D01*
X198266700Y-97029537D01*
X198366982Y-96988000D01*
X198619580Y-96988000D01*
X199062000Y-97430421D01*
X199062001Y-104419578D01*
X198119573Y-105362007D01*
X198019293Y-105403543D01*
X197925690Y-105466087D01*
X197846087Y-105545690D01*
X197814809Y-105592500D01*
X193051118Y-105592500D01*
X193023352Y-105564734D01*
X192950550Y-105516089D01*
X192869656Y-105482582D01*
X192783779Y-105465500D01*
X192696221Y-105465500D01*
X192610344Y-105482582D01*
X192529450Y-105516089D01*
X192456648Y-105564734D01*
X192394734Y-105626648D01*
X192346089Y-105699450D01*
X192312582Y-105780344D01*
X192295500Y-105866221D01*
X192295500Y-105953779D01*
X192312582Y-106039656D01*
X192346089Y-106120550D01*
X192394734Y-106193352D01*
X192456648Y-106255266D01*
X192529450Y-106303911D01*
X192610344Y-106337418D01*
X192696221Y-106354500D01*
X192783779Y-106354500D01*
X192869656Y-106337418D01*
X192950550Y-106303911D01*
X193023352Y-106255266D01*
X193051118Y-106227500D01*
X197814809Y-106227500D01*
X197846087Y-106274310D01*
X197925690Y-106353913D01*
X198019293Y-106416457D01*
X198123300Y-106459537D01*
X198233712Y-106481500D01*
X198346288Y-106481500D01*
X198456700Y-106459537D01*
X198560707Y-106416457D01*
X198654310Y-106353913D01*
X198733913Y-106274310D01*
X198796457Y-106180707D01*
X198837993Y-106080427D01*
X199911571Y-105006850D01*
X199930948Y-104990948D01*
X199949624Y-104968190D01*
X199994429Y-104913596D01*
X200041600Y-104825345D01*
X200041601Y-104825343D01*
X200070649Y-104729585D01*
X200078000Y-104654947D01*
X200078000Y-104654945D01*
X200080457Y-104630001D01*
X200078000Y-104605057D01*
X200078000Y-97244943D01*
X200080457Y-97219999D01*
X200078000Y-97195053D01*
X200070649Y-97120415D01*
X200044587Y-97034500D01*
X200065488Y-97034500D01*
X200602500Y-97571513D01*
X200602501Y-103888486D01*
X200555487Y-103935500D01*
X200526221Y-103935500D01*
X200440344Y-103952582D01*
X200359450Y-103986089D01*
X200286648Y-104034734D01*
X200224734Y-104096648D01*
X200176089Y-104169450D01*
X200142582Y-104250344D01*
X200125500Y-104336221D01*
X200125500Y-104423779D01*
X200142582Y-104509656D01*
X200176089Y-104590550D01*
X200224734Y-104663352D01*
X200252500Y-104691118D01*
X200252501Y-105748487D01*
X200196527Y-105804461D01*
X200196521Y-105804466D01*
X199166526Y-106834462D01*
X199166521Y-106834466D01*
X197938488Y-108062500D01*
X188631118Y-108062500D01*
X188603352Y-108034734D01*
X188530550Y-107986089D01*
X188449656Y-107952582D01*
X188363779Y-107935500D01*
X188276221Y-107935500D01*
X188190344Y-107952582D01*
X188109450Y-107986089D01*
X188090127Y-107999000D01*
X185378702Y-107999000D01*
X185359999Y-107997158D01*
X185341296Y-107999000D01*
X185341287Y-107999000D01*
X185285311Y-108004513D01*
X185213492Y-108026299D01*
X185170359Y-108049355D01*
X185147303Y-108061678D01*
X185140704Y-108067094D01*
X185089289Y-108109289D01*
X185077354Y-108123832D01*
X184863830Y-108337356D01*
X184863824Y-108337361D01*
X183453832Y-109747354D01*
X183439289Y-109759289D01*
X183407666Y-109797823D01*
X183391678Y-109817304D01*
X183380444Y-109838322D01*
X183356299Y-109883493D01*
X183334513Y-109955312D01*
X183331262Y-109988322D01*
X183327157Y-110030000D01*
X180428814Y-110030000D01*
X180532639Y-109926176D01*
X180532644Y-109926170D01*
X180656168Y-109802646D01*
X180670711Y-109790711D01*
X180718322Y-109732696D01*
X180753701Y-109666508D01*
X180775487Y-109594689D01*
X180781000Y-109538713D01*
X180781000Y-109538711D01*
X180782843Y-109520001D01*
X180781000Y-109501291D01*
X180781000Y-109106221D01*
X182895500Y-109106221D01*
X182895500Y-109193779D01*
X182912582Y-109279656D01*
X182946089Y-109360550D01*
X182994734Y-109433352D01*
X183056648Y-109495266D01*
X183129450Y-109543911D01*
X183210344Y-109577418D01*
X183296221Y-109594500D01*
X183383779Y-109594500D01*
X183469656Y-109577418D01*
X183550550Y-109543911D01*
X183623352Y-109495266D01*
X183685266Y-109433352D01*
X183733911Y-109360550D01*
X183767418Y-109279656D01*
X183784500Y-109193779D01*
X183784500Y-109106221D01*
X183767418Y-109020344D01*
X183733911Y-108939450D01*
X183685266Y-108866648D01*
X183623352Y-108804734D01*
X183550550Y-108756089D01*
X183469656Y-108722582D01*
X183383779Y-108705500D01*
X183296221Y-108705500D01*
X183210344Y-108722582D01*
X183129450Y-108756089D01*
X183056648Y-108804734D01*
X182994734Y-108866648D01*
X182946089Y-108939450D01*
X182912582Y-109020344D01*
X182895500Y-109106221D01*
X180781000Y-109106221D01*
X180781000Y-106299873D01*
X180793911Y-106280550D01*
X180827418Y-106199656D01*
X180844500Y-106113779D01*
X180844500Y-106026221D01*
X180828588Y-105946221D01*
X183275500Y-105946221D01*
X183275500Y-106033779D01*
X183292582Y-106119656D01*
X183326089Y-106200550D01*
X183374734Y-106273352D01*
X183436648Y-106335266D01*
X183509450Y-106383911D01*
X183590344Y-106417418D01*
X183676221Y-106434500D01*
X183763779Y-106434500D01*
X183849656Y-106417418D01*
X183930550Y-106383911D01*
X184003352Y-106335266D01*
X184065266Y-106273352D01*
X184113911Y-106200550D01*
X184147418Y-106119656D01*
X184154068Y-106086221D01*
X185345500Y-106086221D01*
X185345500Y-106173779D01*
X185362582Y-106259656D01*
X185396089Y-106340550D01*
X185444734Y-106413352D01*
X185506648Y-106475266D01*
X185579450Y-106523911D01*
X185660344Y-106557418D01*
X185746221Y-106574500D01*
X185833779Y-106574500D01*
X185919656Y-106557418D01*
X186000550Y-106523911D01*
X186073352Y-106475266D01*
X186135266Y-106413352D01*
X186183911Y-106340550D01*
X186217418Y-106259656D01*
X186234500Y-106173779D01*
X186234500Y-106116221D01*
X187655500Y-106116221D01*
X187655500Y-106203779D01*
X187672582Y-106289656D01*
X187706089Y-106370550D01*
X187754734Y-106443352D01*
X187816648Y-106505266D01*
X187889450Y-106553911D01*
X187970344Y-106587418D01*
X188056221Y-106604500D01*
X188143779Y-106604500D01*
X188229656Y-106587418D01*
X188310550Y-106553911D01*
X188383352Y-106505266D01*
X188445266Y-106443352D01*
X188489491Y-106377165D01*
X188559450Y-106423911D01*
X188640344Y-106457418D01*
X188726221Y-106474500D01*
X188813779Y-106474500D01*
X188899656Y-106457418D01*
X188980550Y-106423911D01*
X189053352Y-106375266D01*
X189115266Y-106313352D01*
X189163911Y-106240550D01*
X189197418Y-106159656D01*
X189214500Y-106073779D01*
X189214500Y-105986221D01*
X189197418Y-105900344D01*
X189163911Y-105819450D01*
X189115266Y-105746648D01*
X189053352Y-105684734D01*
X188980550Y-105636089D01*
X188899656Y-105602582D01*
X188813779Y-105585500D01*
X188726221Y-105585500D01*
X188640344Y-105602582D01*
X188559450Y-105636089D01*
X188486648Y-105684734D01*
X188424734Y-105746648D01*
X188380509Y-105812835D01*
X188310550Y-105766089D01*
X188229656Y-105732582D01*
X188143779Y-105715500D01*
X188056221Y-105715500D01*
X187970344Y-105732582D01*
X187889450Y-105766089D01*
X187816648Y-105814734D01*
X187754734Y-105876648D01*
X187706089Y-105949450D01*
X187672582Y-106030344D01*
X187655500Y-106116221D01*
X186234500Y-106116221D01*
X186234500Y-106086221D01*
X186217418Y-106000344D01*
X186183911Y-105919450D01*
X186135266Y-105846648D01*
X186073352Y-105784734D01*
X186000550Y-105736089D01*
X185919656Y-105702582D01*
X185833779Y-105685500D01*
X185746221Y-105685500D01*
X185660344Y-105702582D01*
X185579450Y-105736089D01*
X185506648Y-105784734D01*
X185444734Y-105846648D01*
X185396089Y-105919450D01*
X185362582Y-106000344D01*
X185345500Y-106086221D01*
X184154068Y-106086221D01*
X184164500Y-106033779D01*
X184164500Y-105946221D01*
X184147418Y-105860344D01*
X184113911Y-105779450D01*
X184065266Y-105706648D01*
X184003352Y-105644734D01*
X183930550Y-105596089D01*
X183849656Y-105562582D01*
X183763779Y-105545500D01*
X183676221Y-105545500D01*
X183590344Y-105562582D01*
X183509450Y-105596089D01*
X183436648Y-105644734D01*
X183374734Y-105706648D01*
X183326089Y-105779450D01*
X183292582Y-105860344D01*
X183275500Y-105946221D01*
X180828588Y-105946221D01*
X180827418Y-105940344D01*
X180793911Y-105859450D01*
X180745266Y-105786648D01*
X180683352Y-105724734D01*
X180610550Y-105676089D01*
X180529656Y-105642582D01*
X180443779Y-105625500D01*
X180356221Y-105625500D01*
X180270344Y-105642582D01*
X180189450Y-105676089D01*
X180116648Y-105724734D01*
X180054734Y-105786648D01*
X180006089Y-105859450D01*
X179972582Y-105940344D01*
X179955500Y-106026221D01*
X179955500Y-106113779D01*
X179972582Y-106199656D01*
X180006089Y-106280550D01*
X180019000Y-106299873D01*
X180019001Y-109362185D01*
X179993830Y-109387356D01*
X179993824Y-109387361D01*
X179122428Y-110258758D01*
X179107891Y-110270688D01*
X179095962Y-110285224D01*
X179060279Y-110328703D01*
X179024900Y-110394892D01*
X179003115Y-110466711D01*
X178995758Y-110541399D01*
X176215500Y-110541399D01*
X176215500Y-107892595D01*
X177159500Y-107892595D01*
X177159500Y-108107405D01*
X177201408Y-108318087D01*
X177283612Y-108516545D01*
X177402954Y-108695153D01*
X177554847Y-108847046D01*
X177733455Y-108966388D01*
X177931913Y-109048592D01*
X178142595Y-109090500D01*
X178357405Y-109090500D01*
X178568087Y-109048592D01*
X178766545Y-108966388D01*
X178945153Y-108847046D01*
X179097046Y-108695153D01*
X179216388Y-108516545D01*
X179298592Y-108318087D01*
X179340500Y-108107405D01*
X179340500Y-107892595D01*
X179298592Y-107681913D01*
X179216388Y-107483455D01*
X179097046Y-107304847D01*
X178945153Y-107152954D01*
X178766545Y-107033612D01*
X178568087Y-106951408D01*
X178357405Y-106909500D01*
X178142595Y-106909500D01*
X177931913Y-106951408D01*
X177733455Y-107033612D01*
X177554847Y-107152954D01*
X177402954Y-107304847D01*
X177283612Y-107483455D01*
X177201408Y-107681913D01*
X177159500Y-107892595D01*
X176215500Y-107892595D01*
X176215500Y-103496221D01*
X178235500Y-103496221D01*
X178235500Y-103583779D01*
X178252582Y-103669656D01*
X178286089Y-103750550D01*
X178334734Y-103823352D01*
X178396648Y-103885266D01*
X178469450Y-103933911D01*
X178550344Y-103967418D01*
X178636221Y-103984500D01*
X178723779Y-103984500D01*
X178809656Y-103967418D01*
X178890550Y-103933911D01*
X178902058Y-103926221D01*
X191025500Y-103926221D01*
X191025500Y-104013779D01*
X191042582Y-104099656D01*
X191076089Y-104180550D01*
X191124734Y-104253352D01*
X191186648Y-104315266D01*
X191259450Y-104363911D01*
X191340344Y-104397418D01*
X191426221Y-104414500D01*
X191513779Y-104414500D01*
X191599656Y-104397418D01*
X191680550Y-104363911D01*
X191753352Y-104315266D01*
X191815266Y-104253352D01*
X191863911Y-104180550D01*
X191897418Y-104099656D01*
X191914500Y-104013779D01*
X191914500Y-103926221D01*
X191897418Y-103840344D01*
X191863911Y-103759450D01*
X191815266Y-103686648D01*
X191753352Y-103624734D01*
X191725646Y-103606221D01*
X195065500Y-103606221D01*
X195065500Y-103693779D01*
X195082582Y-103779656D01*
X195116089Y-103860550D01*
X195164734Y-103933352D01*
X195226648Y-103995266D01*
X195299450Y-104043911D01*
X195380344Y-104077418D01*
X195466221Y-104094500D01*
X195553779Y-104094500D01*
X195639656Y-104077418D01*
X195720550Y-104043911D01*
X195793352Y-103995266D01*
X195855266Y-103933352D01*
X195903911Y-103860550D01*
X195937418Y-103779656D01*
X195954500Y-103693779D01*
X195954500Y-103606221D01*
X195937418Y-103520344D01*
X195903911Y-103439450D01*
X195855266Y-103366648D01*
X195793352Y-103304734D01*
X195720550Y-103256089D01*
X195639656Y-103222582D01*
X195553779Y-103205500D01*
X195466221Y-103205500D01*
X195380344Y-103222582D01*
X195299450Y-103256089D01*
X195226648Y-103304734D01*
X195164734Y-103366648D01*
X195116089Y-103439450D01*
X195082582Y-103520344D01*
X195065500Y-103606221D01*
X191725646Y-103606221D01*
X191680550Y-103576089D01*
X191599656Y-103542582D01*
X191513779Y-103525500D01*
X191426221Y-103525500D01*
X191340344Y-103542582D01*
X191259450Y-103576089D01*
X191186648Y-103624734D01*
X191124734Y-103686648D01*
X191076089Y-103759450D01*
X191042582Y-103840344D01*
X191025500Y-103926221D01*
X178902058Y-103926221D01*
X178963352Y-103885266D01*
X179025266Y-103823352D01*
X179073911Y-103750550D01*
X179107418Y-103669656D01*
X179124500Y-103583779D01*
X179124500Y-103496221D01*
X179107418Y-103410344D01*
X179073911Y-103329450D01*
X179025266Y-103256648D01*
X178963352Y-103194734D01*
X178950612Y-103186221D01*
X185595500Y-103186221D01*
X185595500Y-103273779D01*
X185612582Y-103359656D01*
X185646089Y-103440550D01*
X185694734Y-103513352D01*
X185756648Y-103575266D01*
X185829450Y-103623911D01*
X185910344Y-103657418D01*
X185996221Y-103674500D01*
X186083779Y-103674500D01*
X186169656Y-103657418D01*
X186250550Y-103623911D01*
X186323352Y-103575266D01*
X186385266Y-103513352D01*
X186433911Y-103440550D01*
X186467418Y-103359656D01*
X186484500Y-103273779D01*
X186484500Y-103186221D01*
X186482511Y-103176221D01*
X187295500Y-103176221D01*
X187295500Y-103263779D01*
X187312582Y-103349656D01*
X187346089Y-103430550D01*
X187394734Y-103503352D01*
X187456648Y-103565266D01*
X187529450Y-103613911D01*
X187610344Y-103647418D01*
X187696221Y-103664500D01*
X187783779Y-103664500D01*
X187869656Y-103647418D01*
X187950550Y-103613911D01*
X188023352Y-103565266D01*
X188085266Y-103503352D01*
X188133911Y-103430550D01*
X188167418Y-103349656D01*
X188184500Y-103263779D01*
X188184500Y-103176221D01*
X188167418Y-103090344D01*
X188133911Y-103009450D01*
X188085266Y-102936648D01*
X188023352Y-102874734D01*
X187950550Y-102826089D01*
X187869656Y-102792582D01*
X187783779Y-102775500D01*
X187696221Y-102775500D01*
X187610344Y-102792582D01*
X187529450Y-102826089D01*
X187456648Y-102874734D01*
X187394734Y-102936648D01*
X187346089Y-103009450D01*
X187312582Y-103090344D01*
X187295500Y-103176221D01*
X186482511Y-103176221D01*
X186467418Y-103100344D01*
X186433911Y-103019450D01*
X186385266Y-102946648D01*
X186376637Y-102938019D01*
X186379656Y-102937418D01*
X186460550Y-102903911D01*
X186533352Y-102855266D01*
X186595266Y-102793352D01*
X186643911Y-102720550D01*
X186677418Y-102639656D01*
X186694500Y-102553779D01*
X186694500Y-102496221D01*
X187985500Y-102496221D01*
X187985500Y-102583779D01*
X188002582Y-102669656D01*
X188036089Y-102750550D01*
X188084734Y-102823352D01*
X188146648Y-102885266D01*
X188219450Y-102933911D01*
X188300344Y-102967418D01*
X188386221Y-102984500D01*
X188473779Y-102984500D01*
X188559656Y-102967418D01*
X188640550Y-102933911D01*
X188713352Y-102885266D01*
X188775266Y-102823352D01*
X188823911Y-102750550D01*
X188857418Y-102669656D01*
X188868046Y-102616221D01*
X189145500Y-102616221D01*
X189145500Y-102703779D01*
X189162582Y-102789656D01*
X189196089Y-102870550D01*
X189244734Y-102943352D01*
X189306648Y-103005266D01*
X189379450Y-103053911D01*
X189460344Y-103087418D01*
X189546221Y-103104500D01*
X189633779Y-103104500D01*
X189671082Y-103097080D01*
X189636089Y-103149450D01*
X189602582Y-103230344D01*
X189585500Y-103316221D01*
X189585500Y-103403779D01*
X189602582Y-103489656D01*
X189636089Y-103570550D01*
X189684734Y-103643352D01*
X189746648Y-103705266D01*
X189819450Y-103753911D01*
X189900344Y-103787418D01*
X189986221Y-103804500D01*
X190073779Y-103804500D01*
X190159656Y-103787418D01*
X190240550Y-103753911D01*
X190313352Y-103705266D01*
X190375266Y-103643352D01*
X190423911Y-103570550D01*
X190457418Y-103489656D01*
X190474500Y-103403779D01*
X190474500Y-103316221D01*
X190457418Y-103230344D01*
X190423911Y-103149450D01*
X190375266Y-103076648D01*
X190313352Y-103014734D01*
X190240550Y-102966089D01*
X190159656Y-102932582D01*
X190073779Y-102915500D01*
X189986221Y-102915500D01*
X189948918Y-102922920D01*
X189983911Y-102870550D01*
X190017418Y-102789656D01*
X190034500Y-102703779D01*
X190034500Y-102616221D01*
X190026544Y-102576221D01*
X190215500Y-102576221D01*
X190215500Y-102663779D01*
X190232582Y-102749656D01*
X190266089Y-102830550D01*
X190314734Y-102903352D01*
X190376648Y-102965266D01*
X190449450Y-103013911D01*
X190530344Y-103047418D01*
X190616221Y-103064500D01*
X190703779Y-103064500D01*
X190789656Y-103047418D01*
X190870550Y-103013911D01*
X190897024Y-102996221D01*
X192855500Y-102996221D01*
X192855500Y-103083779D01*
X192872582Y-103169656D01*
X192906089Y-103250550D01*
X192954734Y-103323352D01*
X193016648Y-103385266D01*
X193089450Y-103433911D01*
X193170344Y-103467418D01*
X193256221Y-103484500D01*
X193343779Y-103484500D01*
X193429656Y-103467418D01*
X193510550Y-103433911D01*
X193583352Y-103385266D01*
X193645266Y-103323352D01*
X193693911Y-103250550D01*
X193727418Y-103169656D01*
X193744500Y-103083779D01*
X193744500Y-102996221D01*
X193727418Y-102910344D01*
X193693911Y-102829450D01*
X193645266Y-102756648D01*
X193639909Y-102751291D01*
X193709656Y-102737418D01*
X193790550Y-102703911D01*
X193863352Y-102655266D01*
X193925266Y-102593352D01*
X193973911Y-102520550D01*
X194007418Y-102439656D01*
X194024500Y-102353779D01*
X194024500Y-102316221D01*
X194095500Y-102316221D01*
X194095500Y-102403779D01*
X194112582Y-102489656D01*
X194146089Y-102570550D01*
X194194734Y-102643352D01*
X194256648Y-102705266D01*
X194329450Y-102753911D01*
X194410344Y-102787418D01*
X194496221Y-102804500D01*
X194583779Y-102804500D01*
X194669656Y-102787418D01*
X194750550Y-102753911D01*
X194823352Y-102705266D01*
X194885266Y-102643352D01*
X194933911Y-102570550D01*
X194967418Y-102489656D01*
X194984500Y-102403779D01*
X194984500Y-102316221D01*
X194967418Y-102230344D01*
X194933911Y-102149450D01*
X194885266Y-102076648D01*
X194823352Y-102014734D01*
X194750550Y-101966089D01*
X194669656Y-101932582D01*
X194583779Y-101915500D01*
X194496221Y-101915500D01*
X194410344Y-101932582D01*
X194329450Y-101966089D01*
X194256648Y-102014734D01*
X194194734Y-102076648D01*
X194146089Y-102149450D01*
X194112582Y-102230344D01*
X194095500Y-102316221D01*
X194024500Y-102316221D01*
X194024500Y-102266221D01*
X194007418Y-102180344D01*
X193973911Y-102099450D01*
X193925266Y-102026648D01*
X193863352Y-101964734D01*
X193790550Y-101916089D01*
X193709656Y-101882582D01*
X193623779Y-101865500D01*
X193536221Y-101865500D01*
X193450344Y-101882582D01*
X193369450Y-101916089D01*
X193296648Y-101964734D01*
X193234734Y-102026648D01*
X193186089Y-102099450D01*
X193152582Y-102180344D01*
X193135500Y-102266221D01*
X193135500Y-102353779D01*
X193152582Y-102439656D01*
X193186089Y-102520550D01*
X193234734Y-102593352D01*
X193240091Y-102598709D01*
X193170344Y-102612582D01*
X193089450Y-102646089D01*
X193016648Y-102694734D01*
X192954734Y-102756648D01*
X192906089Y-102829450D01*
X192872582Y-102910344D01*
X192855500Y-102996221D01*
X190897024Y-102996221D01*
X190943352Y-102965266D01*
X191005266Y-102903352D01*
X191053911Y-102830550D01*
X191087418Y-102749656D01*
X191104500Y-102663779D01*
X191104500Y-102576221D01*
X191087418Y-102490344D01*
X191053911Y-102409450D01*
X191005266Y-102336648D01*
X190943352Y-102274734D01*
X190870550Y-102226089D01*
X190789656Y-102192582D01*
X190703779Y-102175500D01*
X190616221Y-102175500D01*
X190530344Y-102192582D01*
X190449450Y-102226089D01*
X190376648Y-102274734D01*
X190314734Y-102336648D01*
X190266089Y-102409450D01*
X190232582Y-102490344D01*
X190215500Y-102576221D01*
X190026544Y-102576221D01*
X190017418Y-102530344D01*
X189983911Y-102449450D01*
X189935266Y-102376648D01*
X189873352Y-102314734D01*
X189800550Y-102266089D01*
X189719656Y-102232582D01*
X189633779Y-102215500D01*
X189546221Y-102215500D01*
X189460344Y-102232582D01*
X189379450Y-102266089D01*
X189306648Y-102314734D01*
X189244734Y-102376648D01*
X189196089Y-102449450D01*
X189162582Y-102530344D01*
X189145500Y-102616221D01*
X188868046Y-102616221D01*
X188874500Y-102583779D01*
X188874500Y-102496221D01*
X188857418Y-102410344D01*
X188823911Y-102329450D01*
X188775266Y-102256648D01*
X188713352Y-102194734D01*
X188640550Y-102146089D01*
X188559656Y-102112582D01*
X188473779Y-102095500D01*
X188386221Y-102095500D01*
X188300344Y-102112582D01*
X188219450Y-102146089D01*
X188146648Y-102194734D01*
X188084734Y-102256648D01*
X188036089Y-102329450D01*
X188002582Y-102410344D01*
X187985500Y-102496221D01*
X186694500Y-102496221D01*
X186694500Y-102466221D01*
X186677418Y-102380344D01*
X186643911Y-102299450D01*
X186595266Y-102226648D01*
X186533352Y-102164734D01*
X186460550Y-102116089D01*
X186379656Y-102082582D01*
X186293779Y-102065500D01*
X186206221Y-102065500D01*
X186120344Y-102082582D01*
X186039450Y-102116089D01*
X185966648Y-102164734D01*
X185904734Y-102226648D01*
X185856089Y-102299450D01*
X185822582Y-102380344D01*
X185805500Y-102466221D01*
X185805500Y-102553779D01*
X185822582Y-102639656D01*
X185856089Y-102720550D01*
X185904734Y-102793352D01*
X185913363Y-102801981D01*
X185910344Y-102802582D01*
X185829450Y-102836089D01*
X185756648Y-102884734D01*
X185694734Y-102946648D01*
X185646089Y-103019450D01*
X185612582Y-103100344D01*
X185595500Y-103186221D01*
X178950612Y-103186221D01*
X178890550Y-103146089D01*
X178809656Y-103112582D01*
X178723779Y-103095500D01*
X178636221Y-103095500D01*
X178550344Y-103112582D01*
X178469450Y-103146089D01*
X178396648Y-103194734D01*
X178334734Y-103256648D01*
X178286089Y-103329450D01*
X178252582Y-103410344D01*
X178235500Y-103496221D01*
X176215500Y-103496221D01*
X176215500Y-102466221D01*
X178215500Y-102466221D01*
X178215500Y-102553779D01*
X178232582Y-102639656D01*
X178266089Y-102720550D01*
X178314734Y-102793352D01*
X178376648Y-102855266D01*
X178449450Y-102903911D01*
X178530344Y-102937418D01*
X178616221Y-102954500D01*
X178703779Y-102954500D01*
X178789656Y-102937418D01*
X178870550Y-102903911D01*
X178943352Y-102855266D01*
X179005266Y-102793352D01*
X179053911Y-102720550D01*
X179087418Y-102639656D01*
X179104500Y-102553779D01*
X179104500Y-102526221D01*
X181915500Y-102526221D01*
X181915500Y-102613779D01*
X181932582Y-102699656D01*
X181966089Y-102780550D01*
X182014734Y-102853352D01*
X182076648Y-102915266D01*
X182149450Y-102963911D01*
X182230344Y-102997418D01*
X182316221Y-103014500D01*
X182403779Y-103014500D01*
X182489656Y-102997418D01*
X182570550Y-102963911D01*
X182643352Y-102915266D01*
X182705266Y-102853352D01*
X182753911Y-102780550D01*
X182787418Y-102699656D01*
X182804500Y-102613779D01*
X182804500Y-102526221D01*
X182787418Y-102440344D01*
X182753911Y-102359450D01*
X182705266Y-102286648D01*
X182643352Y-102224734D01*
X182570550Y-102176089D01*
X182489656Y-102142582D01*
X182403779Y-102125500D01*
X182316221Y-102125500D01*
X182230344Y-102142582D01*
X182149450Y-102176089D01*
X182076648Y-102224734D01*
X182014734Y-102286648D01*
X181966089Y-102359450D01*
X181932582Y-102440344D01*
X181915500Y-102526221D01*
X179104500Y-102526221D01*
X179104500Y-102466221D01*
X179087418Y-102380344D01*
X179053911Y-102299450D01*
X179005266Y-102226648D01*
X178943352Y-102164734D01*
X178870550Y-102116089D01*
X178789656Y-102082582D01*
X178703779Y-102065500D01*
X178616221Y-102065500D01*
X178530344Y-102082582D01*
X178449450Y-102116089D01*
X178376648Y-102164734D01*
X178314734Y-102226648D01*
X178266089Y-102299450D01*
X178232582Y-102380344D01*
X178215500Y-102466221D01*
X176215500Y-102466221D01*
X176215500Y-101896221D01*
X183525500Y-101896221D01*
X183525500Y-101983779D01*
X183542582Y-102069656D01*
X183576089Y-102150550D01*
X183624734Y-102223352D01*
X183686648Y-102285266D01*
X183759450Y-102333911D01*
X183840344Y-102367418D01*
X183926221Y-102384500D01*
X184013779Y-102384500D01*
X184099656Y-102367418D01*
X184180550Y-102333911D01*
X184253352Y-102285266D01*
X184315266Y-102223352D01*
X184363911Y-102150550D01*
X184397418Y-102069656D01*
X184414500Y-101983779D01*
X184414500Y-101896221D01*
X184397418Y-101810344D01*
X184363911Y-101729450D01*
X184315266Y-101656648D01*
X184253352Y-101594734D01*
X184180550Y-101546089D01*
X184099656Y-101512582D01*
X184013779Y-101495500D01*
X183926221Y-101495500D01*
X183840344Y-101512582D01*
X183759450Y-101546089D01*
X183686648Y-101594734D01*
X183624734Y-101656648D01*
X183576089Y-101729450D01*
X183542582Y-101810344D01*
X183525500Y-101896221D01*
X176215500Y-101896221D01*
X176215500Y-100476221D01*
X181715500Y-100476221D01*
X181715500Y-100563779D01*
X181732582Y-100649656D01*
X181766089Y-100730550D01*
X181814734Y-100803352D01*
X181876648Y-100865266D01*
X181949450Y-100913911D01*
X182030344Y-100947418D01*
X182116221Y-100964500D01*
X182203779Y-100964500D01*
X182289656Y-100947418D01*
X182370550Y-100913911D01*
X182443352Y-100865266D01*
X182505266Y-100803352D01*
X182553911Y-100730550D01*
X182576414Y-100676221D01*
X184385500Y-100676221D01*
X184385500Y-100763779D01*
X184402582Y-100849656D01*
X184436089Y-100930550D01*
X184484734Y-101003352D01*
X184546648Y-101065266D01*
X184619450Y-101113911D01*
X184700344Y-101147418D01*
X184786221Y-101164500D01*
X184873779Y-101164500D01*
X184959656Y-101147418D01*
X185040550Y-101113911D01*
X185113352Y-101065266D01*
X185155500Y-101023118D01*
X185155500Y-101103779D01*
X185172582Y-101189656D01*
X185206089Y-101270550D01*
X185254734Y-101343352D01*
X185316648Y-101405266D01*
X185389450Y-101453911D01*
X185470344Y-101487418D01*
X185556221Y-101504500D01*
X185643779Y-101504500D01*
X185729656Y-101487418D01*
X185804973Y-101456221D01*
X193555500Y-101456221D01*
X193555500Y-101543779D01*
X193572582Y-101629656D01*
X193606089Y-101710550D01*
X193654734Y-101783352D01*
X193716648Y-101845266D01*
X193789450Y-101893911D01*
X193870344Y-101927418D01*
X193956221Y-101944500D01*
X194043779Y-101944500D01*
X194129656Y-101927418D01*
X194210550Y-101893911D01*
X194283352Y-101845266D01*
X194345266Y-101783352D01*
X194393911Y-101710550D01*
X194427418Y-101629656D01*
X194444500Y-101543779D01*
X194444500Y-101456221D01*
X194427418Y-101370344D01*
X194393911Y-101289450D01*
X194345266Y-101216648D01*
X194283352Y-101154734D01*
X194210550Y-101106089D01*
X194129656Y-101072582D01*
X194043779Y-101055500D01*
X193956221Y-101055500D01*
X193870344Y-101072582D01*
X193789450Y-101106089D01*
X193716648Y-101154734D01*
X193654734Y-101216648D01*
X193606089Y-101289450D01*
X193572582Y-101370344D01*
X193555500Y-101456221D01*
X185804973Y-101456221D01*
X185810550Y-101453911D01*
X185883352Y-101405266D01*
X185945266Y-101343352D01*
X185993911Y-101270550D01*
X186027418Y-101189656D01*
X186044500Y-101103779D01*
X186044500Y-101016221D01*
X186027418Y-100930344D01*
X185993911Y-100849450D01*
X185945266Y-100776648D01*
X185883352Y-100714734D01*
X185810550Y-100666089D01*
X185729656Y-100632582D01*
X185643779Y-100615500D01*
X185556221Y-100615500D01*
X185470344Y-100632582D01*
X185389450Y-100666089D01*
X185316648Y-100714734D01*
X185274500Y-100756882D01*
X185274500Y-100676221D01*
X185257418Y-100590344D01*
X185223911Y-100509450D01*
X185175266Y-100436648D01*
X185113352Y-100374734D01*
X185040550Y-100326089D01*
X184959656Y-100292582D01*
X184873779Y-100275500D01*
X184786221Y-100275500D01*
X184700344Y-100292582D01*
X184619450Y-100326089D01*
X184546648Y-100374734D01*
X184484734Y-100436648D01*
X184436089Y-100509450D01*
X184402582Y-100590344D01*
X184385500Y-100676221D01*
X182576414Y-100676221D01*
X182587418Y-100649656D01*
X182604500Y-100563779D01*
X182604500Y-100476221D01*
X182587418Y-100390344D01*
X182553911Y-100309450D01*
X182505266Y-100236648D01*
X182459693Y-100191075D01*
X182483352Y-100175266D01*
X182545266Y-100113352D01*
X182593911Y-100040550D01*
X182627418Y-99959656D01*
X182644500Y-99873779D01*
X182644500Y-99786221D01*
X182627418Y-99700344D01*
X182593911Y-99619450D01*
X182545266Y-99546648D01*
X182483352Y-99484734D01*
X182410550Y-99436089D01*
X182329656Y-99402582D01*
X182243779Y-99385500D01*
X182156221Y-99385500D01*
X182070344Y-99402582D01*
X181989450Y-99436089D01*
X181916648Y-99484734D01*
X181854734Y-99546648D01*
X181806089Y-99619450D01*
X181772582Y-99700344D01*
X181755500Y-99786221D01*
X181755500Y-99873779D01*
X181772582Y-99959656D01*
X181806089Y-100040550D01*
X181854734Y-100113352D01*
X181900307Y-100158925D01*
X181876648Y-100174734D01*
X181814734Y-100236648D01*
X181766089Y-100309450D01*
X181732582Y-100390344D01*
X181715500Y-100476221D01*
X176215500Y-100476221D01*
X176215500Y-99276221D01*
X193125500Y-99276221D01*
X193125500Y-99363779D01*
X193142582Y-99449656D01*
X193176089Y-99530550D01*
X193224734Y-99603352D01*
X193286648Y-99665266D01*
X193359450Y-99713911D01*
X193440344Y-99747418D01*
X193526221Y-99764500D01*
X193613779Y-99764500D01*
X193699656Y-99747418D01*
X193780550Y-99713911D01*
X193853352Y-99665266D01*
X193915266Y-99603352D01*
X193963911Y-99530550D01*
X193997418Y-99449656D01*
X194014500Y-99363779D01*
X194014500Y-99276221D01*
X193997418Y-99190344D01*
X193963911Y-99109450D01*
X193915266Y-99036648D01*
X193853352Y-98974734D01*
X193799913Y-98939027D01*
X193860550Y-98913911D01*
X193933352Y-98865266D01*
X193995266Y-98803352D01*
X194043911Y-98730550D01*
X194077418Y-98649656D01*
X194094500Y-98563779D01*
X194094500Y-98476221D01*
X194077418Y-98390344D01*
X194043911Y-98309450D01*
X193995266Y-98236648D01*
X193933352Y-98174734D01*
X193860550Y-98126089D01*
X193779656Y-98092582D01*
X193693779Y-98075500D01*
X193606221Y-98075500D01*
X193520344Y-98092582D01*
X193439450Y-98126089D01*
X193366648Y-98174734D01*
X193304734Y-98236648D01*
X193256089Y-98309450D01*
X193222582Y-98390344D01*
X193205500Y-98476221D01*
X193205500Y-98563779D01*
X193222582Y-98649656D01*
X193256089Y-98730550D01*
X193304734Y-98803352D01*
X193366648Y-98865266D01*
X193420087Y-98900973D01*
X193359450Y-98926089D01*
X193286648Y-98974734D01*
X193224734Y-99036648D01*
X193176089Y-99109450D01*
X193142582Y-99190344D01*
X193125500Y-99276221D01*
X176215500Y-99276221D01*
X176215500Y-98076221D01*
X190145500Y-98076221D01*
X190145500Y-98163779D01*
X190162582Y-98249656D01*
X190196089Y-98330550D01*
X190244734Y-98403352D01*
X190306648Y-98465266D01*
X190379450Y-98513911D01*
X190460344Y-98547418D01*
X190546221Y-98564500D01*
X190633779Y-98564500D01*
X190719656Y-98547418D01*
X190800550Y-98513911D01*
X190873352Y-98465266D01*
X190935266Y-98403352D01*
X190983911Y-98330550D01*
X191017418Y-98249656D01*
X191034500Y-98163779D01*
X191034500Y-98076221D01*
X191017418Y-97990344D01*
X190983911Y-97909450D01*
X190935266Y-97836648D01*
X190873352Y-97774734D01*
X190800550Y-97726089D01*
X190719656Y-97692582D01*
X190633779Y-97675500D01*
X190546221Y-97675500D01*
X190460344Y-97692582D01*
X190379450Y-97726089D01*
X190306648Y-97774734D01*
X190244734Y-97836648D01*
X190196089Y-97909450D01*
X190162582Y-97990344D01*
X190145500Y-98076221D01*
X176215500Y-98076221D01*
X176215500Y-97286221D01*
X178315500Y-97286221D01*
X178315500Y-97373779D01*
X178332582Y-97459656D01*
X178366089Y-97540550D01*
X178414734Y-97613352D01*
X178476648Y-97675266D01*
X178549450Y-97723911D01*
X178630344Y-97757418D01*
X178716221Y-97774500D01*
X178803779Y-97774500D01*
X178889656Y-97757418D01*
X178970550Y-97723911D01*
X179043352Y-97675266D01*
X179105266Y-97613352D01*
X179153911Y-97540550D01*
X179187418Y-97459656D01*
X179204500Y-97373779D01*
X179204500Y-97326221D01*
X179315500Y-97326221D01*
X179315500Y-97413779D01*
X179332582Y-97499656D01*
X179366089Y-97580550D01*
X179414734Y-97653352D01*
X179476648Y-97715266D01*
X179549450Y-97763911D01*
X179630344Y-97797418D01*
X179716221Y-97814500D01*
X179803779Y-97814500D01*
X179889656Y-97797418D01*
X179970550Y-97763911D01*
X180043352Y-97715266D01*
X180105266Y-97653352D01*
X180153911Y-97580550D01*
X180187418Y-97499656D01*
X180204500Y-97413779D01*
X180204500Y-97326221D01*
X180187418Y-97240344D01*
X180153911Y-97159450D01*
X180105266Y-97086648D01*
X180084839Y-97066221D01*
X182625500Y-97066221D01*
X182625500Y-97153779D01*
X182642582Y-97239656D01*
X182676089Y-97320550D01*
X182724734Y-97393352D01*
X182786648Y-97455266D01*
X182859450Y-97503911D01*
X182940344Y-97537418D01*
X183026221Y-97554500D01*
X183113779Y-97554500D01*
X183199656Y-97537418D01*
X183280550Y-97503911D01*
X183353352Y-97455266D01*
X183415266Y-97393352D01*
X183463911Y-97320550D01*
X183497418Y-97239656D01*
X183514500Y-97153779D01*
X183514500Y-97066221D01*
X183497418Y-96980344D01*
X183463911Y-96899450D01*
X183415266Y-96826648D01*
X183353352Y-96764734D01*
X183280550Y-96716089D01*
X183199656Y-96682582D01*
X183113779Y-96665500D01*
X183026221Y-96665500D01*
X182940344Y-96682582D01*
X182859450Y-96716089D01*
X182786648Y-96764734D01*
X182724734Y-96826648D01*
X182676089Y-96899450D01*
X182642582Y-96980344D01*
X182625500Y-97066221D01*
X180084839Y-97066221D01*
X180043352Y-97024734D01*
X179970550Y-96976089D01*
X179889656Y-96942582D01*
X179803779Y-96925500D01*
X179716221Y-96925500D01*
X179630344Y-96942582D01*
X179549450Y-96976089D01*
X179476648Y-97024734D01*
X179414734Y-97086648D01*
X179366089Y-97159450D01*
X179332582Y-97240344D01*
X179315500Y-97326221D01*
X179204500Y-97326221D01*
X179204500Y-97286221D01*
X179187418Y-97200344D01*
X179153911Y-97119450D01*
X179105266Y-97046648D01*
X179043352Y-96984734D01*
X178970550Y-96936089D01*
X178889656Y-96902582D01*
X178803779Y-96885500D01*
X178716221Y-96885500D01*
X178630344Y-96902582D01*
X178549450Y-96936089D01*
X178476648Y-96984734D01*
X178414734Y-97046648D01*
X178366089Y-97119450D01*
X178332582Y-97200344D01*
X178315500Y-97286221D01*
X176215500Y-97286221D01*
X176215500Y-95538100D01*
X194271721Y-95538100D01*
X194268579Y-95570000D01*
%TA.AperFunction,Conductor*%
D20*
G36*
X194268579Y-95570000D02*
G01*
X194268579Y-96570000D01*
X194272257Y-96607344D01*
X194283150Y-96643254D01*
X194300839Y-96676348D01*
X194324645Y-96705355D01*
X194353652Y-96729161D01*
X194386746Y-96746850D01*
X194422656Y-96757743D01*
X194460000Y-96761421D01*
X195460000Y-96761421D01*
X195497344Y-96757743D01*
X195533254Y-96746850D01*
X195566348Y-96729161D01*
X195595355Y-96705355D01*
X195619161Y-96676348D01*
X195636850Y-96643254D01*
X195647743Y-96607344D01*
X195651421Y-96570000D01*
X195651421Y-96446962D01*
X195693654Y-96510168D01*
X195789832Y-96606346D01*
X195902926Y-96681913D01*
X196028589Y-96733964D01*
X196161992Y-96760500D01*
X196298008Y-96760500D01*
X196431411Y-96733964D01*
X196557074Y-96681913D01*
X196670168Y-96606346D01*
X196766346Y-96510168D01*
X196841913Y-96397074D01*
X196893964Y-96271411D01*
X196920500Y-96138008D01*
X196920500Y-96001992D01*
X196893964Y-95868589D01*
X196841913Y-95742926D01*
X196766346Y-95629832D01*
X196674614Y-95538100D01*
X203784500Y-95538100D01*
X203784501Y-123910736D01*
X196910738Y-130784500D01*
X183089263Y-130784500D01*
X181864292Y-129559529D01*
X182604500Y-129559529D01*
X182604500Y-129700471D01*
X182631996Y-129838704D01*
X182685932Y-129968916D01*
X182764235Y-130086105D01*
X182863895Y-130185765D01*
X182981084Y-130264068D01*
X183111296Y-130318004D01*
X183249529Y-130345500D01*
X183390471Y-130345500D01*
X183528704Y-130318004D01*
X183658916Y-130264068D01*
X183776105Y-130185765D01*
X183875765Y-130086105D01*
X183954068Y-129968916D01*
X184008004Y-129838704D01*
X184035500Y-129700471D01*
X184035500Y-129559529D01*
X184204500Y-129559529D01*
X184204500Y-129700471D01*
X184231996Y-129838704D01*
X184285932Y-129968916D01*
X184364235Y-130086105D01*
X184463895Y-130185765D01*
X184581084Y-130264068D01*
X184711296Y-130318004D01*
X184849529Y-130345500D01*
X184990471Y-130345500D01*
X185128704Y-130318004D01*
X185258916Y-130264068D01*
X185376105Y-130185765D01*
X185475765Y-130086105D01*
X185554068Y-129968916D01*
X185608004Y-129838704D01*
X185635500Y-129700471D01*
X185635500Y-129631221D01*
X187015500Y-129631221D01*
X187015500Y-129718779D01*
X187032582Y-129804656D01*
X187066089Y-129885550D01*
X187114734Y-129958352D01*
X187176648Y-130020266D01*
X187249450Y-130068911D01*
X187330344Y-130102418D01*
X187416221Y-130119500D01*
X187503779Y-130119500D01*
X187589656Y-130102418D01*
X187670550Y-130068911D01*
X187743352Y-130020266D01*
X187805266Y-129958352D01*
X187853911Y-129885550D01*
X187887418Y-129804656D01*
X187904500Y-129718779D01*
X187904500Y-129631221D01*
X188285500Y-129631221D01*
X188285500Y-129718779D01*
X188302582Y-129804656D01*
X188336089Y-129885550D01*
X188384734Y-129958352D01*
X188446648Y-130020266D01*
X188519450Y-130068911D01*
X188600344Y-130102418D01*
X188686221Y-130119500D01*
X188773779Y-130119500D01*
X188859656Y-130102418D01*
X188940550Y-130068911D01*
X189013352Y-130020266D01*
X189075266Y-129958352D01*
X189123911Y-129885550D01*
X189157418Y-129804656D01*
X189174500Y-129718779D01*
X189174500Y-129631221D01*
X189555500Y-129631221D01*
X189555500Y-129718779D01*
X189572582Y-129804656D01*
X189606089Y-129885550D01*
X189654734Y-129958352D01*
X189716648Y-130020266D01*
X189789450Y-130068911D01*
X189870344Y-130102418D01*
X189956221Y-130119500D01*
X190043779Y-130119500D01*
X190129656Y-130102418D01*
X190210550Y-130068911D01*
X190283352Y-130020266D01*
X190345266Y-129958352D01*
X190393911Y-129885550D01*
X190427418Y-129804656D01*
X190444500Y-129718779D01*
X190444500Y-129631221D01*
X190825500Y-129631221D01*
X190825500Y-129718779D01*
X190842582Y-129804656D01*
X190876089Y-129885550D01*
X190924734Y-129958352D01*
X190986648Y-130020266D01*
X191059450Y-130068911D01*
X191140344Y-130102418D01*
X191226221Y-130119500D01*
X191313779Y-130119500D01*
X191399656Y-130102418D01*
X191480550Y-130068911D01*
X191553352Y-130020266D01*
X191615266Y-129958352D01*
X191663911Y-129885550D01*
X191697418Y-129804656D01*
X191714500Y-129718779D01*
X191714500Y-129631221D01*
X192095500Y-129631221D01*
X192095500Y-129718779D01*
X192112582Y-129804656D01*
X192146089Y-129885550D01*
X192194734Y-129958352D01*
X192256648Y-130020266D01*
X192329450Y-130068911D01*
X192410344Y-130102418D01*
X192496221Y-130119500D01*
X192583779Y-130119500D01*
X192669656Y-130102418D01*
X192750550Y-130068911D01*
X192823352Y-130020266D01*
X192885266Y-129958352D01*
X192933911Y-129885550D01*
X192967418Y-129804656D01*
X192984500Y-129718779D01*
X192984500Y-129631221D01*
X192967418Y-129545344D01*
X192933911Y-129464450D01*
X192885266Y-129391648D01*
X192823352Y-129329734D01*
X192750550Y-129281089D01*
X192669656Y-129247582D01*
X192583779Y-129230500D01*
X192496221Y-129230500D01*
X192410344Y-129247582D01*
X192329450Y-129281089D01*
X192256648Y-129329734D01*
X192194734Y-129391648D01*
X192146089Y-129464450D01*
X192112582Y-129545344D01*
X192095500Y-129631221D01*
X191714500Y-129631221D01*
X191697418Y-129545344D01*
X191663911Y-129464450D01*
X191615266Y-129391648D01*
X191553352Y-129329734D01*
X191480550Y-129281089D01*
X191399656Y-129247582D01*
X191313779Y-129230500D01*
X191226221Y-129230500D01*
X191140344Y-129247582D01*
X191059450Y-129281089D01*
X190986648Y-129329734D01*
X190924734Y-129391648D01*
X190876089Y-129464450D01*
X190842582Y-129545344D01*
X190825500Y-129631221D01*
X190444500Y-129631221D01*
X190427418Y-129545344D01*
X190393911Y-129464450D01*
X190345266Y-129391648D01*
X190283352Y-129329734D01*
X190210550Y-129281089D01*
X190129656Y-129247582D01*
X190043779Y-129230500D01*
X189956221Y-129230500D01*
X189870344Y-129247582D01*
X189789450Y-129281089D01*
X189716648Y-129329734D01*
X189654734Y-129391648D01*
X189606089Y-129464450D01*
X189572582Y-129545344D01*
X189555500Y-129631221D01*
X189174500Y-129631221D01*
X189157418Y-129545344D01*
X189123911Y-129464450D01*
X189075266Y-129391648D01*
X189013352Y-129329734D01*
X188940550Y-129281089D01*
X188859656Y-129247582D01*
X188773779Y-129230500D01*
X188686221Y-129230500D01*
X188600344Y-129247582D01*
X188519450Y-129281089D01*
X188446648Y-129329734D01*
X188384734Y-129391648D01*
X188336089Y-129464450D01*
X188302582Y-129545344D01*
X188285500Y-129631221D01*
X187904500Y-129631221D01*
X187887418Y-129545344D01*
X187853911Y-129464450D01*
X187805266Y-129391648D01*
X187743352Y-129329734D01*
X187670550Y-129281089D01*
X187589656Y-129247582D01*
X187503779Y-129230500D01*
X187416221Y-129230500D01*
X187330344Y-129247582D01*
X187249450Y-129281089D01*
X187176648Y-129329734D01*
X187114734Y-129391648D01*
X187066089Y-129464450D01*
X187032582Y-129545344D01*
X187015500Y-129631221D01*
X185635500Y-129631221D01*
X185635500Y-129559529D01*
X185608004Y-129421296D01*
X185554068Y-129291084D01*
X185475765Y-129173895D01*
X185376105Y-129074235D01*
X185258916Y-128995932D01*
X185128704Y-128941996D01*
X184990471Y-128914500D01*
X184849529Y-128914500D01*
X184711296Y-128941996D01*
X184581084Y-128995932D01*
X184463895Y-129074235D01*
X184364235Y-129173895D01*
X184285932Y-129291084D01*
X184231996Y-129421296D01*
X184204500Y-129559529D01*
X184035500Y-129559529D01*
X184008004Y-129421296D01*
X183954068Y-129291084D01*
X183875765Y-129173895D01*
X183776105Y-129074235D01*
X183658916Y-128995932D01*
X183528704Y-128941996D01*
X183390471Y-128914500D01*
X183249529Y-128914500D01*
X183111296Y-128941996D01*
X182981084Y-128995932D01*
X182863895Y-129074235D01*
X182764235Y-129173895D01*
X182685932Y-129291084D01*
X182631996Y-129421296D01*
X182604500Y-129559529D01*
X181864292Y-129559529D01*
X180364292Y-128059529D01*
X181004500Y-128059529D01*
X181004500Y-128200471D01*
X181031996Y-128338704D01*
X181085932Y-128468916D01*
X181164235Y-128586105D01*
X181263895Y-128685765D01*
X181381084Y-128764068D01*
X181511296Y-128818004D01*
X181649529Y-128845500D01*
X181790471Y-128845500D01*
X181928704Y-128818004D01*
X182058916Y-128764068D01*
X182176105Y-128685765D01*
X182275765Y-128586105D01*
X182354068Y-128468916D01*
X182408004Y-128338704D01*
X182435500Y-128200471D01*
X182435500Y-128059529D01*
X182604500Y-128059529D01*
X182604500Y-128200471D01*
X182631996Y-128338704D01*
X182685932Y-128468916D01*
X182764235Y-128586105D01*
X182863895Y-128685765D01*
X182981084Y-128764068D01*
X183111296Y-128818004D01*
X183249529Y-128845500D01*
X183390471Y-128845500D01*
X183528704Y-128818004D01*
X183658916Y-128764068D01*
X183776105Y-128685765D01*
X183875765Y-128586105D01*
X183954068Y-128468916D01*
X184008004Y-128338704D01*
X184035500Y-128200471D01*
X184035500Y-128059529D01*
X184008004Y-127921296D01*
X183954068Y-127791084D01*
X183875765Y-127673895D01*
X183776105Y-127574235D01*
X183658916Y-127495932D01*
X183528704Y-127441996D01*
X183390471Y-127414500D01*
X183249529Y-127414500D01*
X183111296Y-127441996D01*
X182981084Y-127495932D01*
X182863895Y-127574235D01*
X182764235Y-127673895D01*
X182685932Y-127791084D01*
X182631996Y-127921296D01*
X182604500Y-128059529D01*
X182435500Y-128059529D01*
X182408004Y-127921296D01*
X182354068Y-127791084D01*
X182275765Y-127673895D01*
X182176105Y-127574235D01*
X182058916Y-127495932D01*
X181928704Y-127441996D01*
X181790471Y-127414500D01*
X181649529Y-127414500D01*
X181511296Y-127441996D01*
X181381084Y-127495932D01*
X181263895Y-127574235D01*
X181164235Y-127673895D01*
X181085932Y-127791084D01*
X181031996Y-127921296D01*
X181004500Y-128059529D01*
X180364292Y-128059529D01*
X178864292Y-126559529D01*
X179404500Y-126559529D01*
X179404500Y-126700471D01*
X179431996Y-126838704D01*
X179485932Y-126968916D01*
X179564235Y-127086105D01*
X179663895Y-127185765D01*
X179781084Y-127264068D01*
X179911296Y-127318004D01*
X180049529Y-127345500D01*
X180190471Y-127345500D01*
X180328704Y-127318004D01*
X180458916Y-127264068D01*
X180576105Y-127185765D01*
X180675765Y-127086105D01*
X180754068Y-126968916D01*
X180808004Y-126838704D01*
X180835500Y-126700471D01*
X180835500Y-126559529D01*
X181004500Y-126559529D01*
X181004500Y-126700471D01*
X181031996Y-126838704D01*
X181085932Y-126968916D01*
X181164235Y-127086105D01*
X181263895Y-127185765D01*
X181381084Y-127264068D01*
X181511296Y-127318004D01*
X181649529Y-127345500D01*
X181790471Y-127345500D01*
X181928704Y-127318004D01*
X182058916Y-127264068D01*
X182176105Y-127185765D01*
X182275765Y-127086105D01*
X182354068Y-126968916D01*
X182408004Y-126838704D01*
X182435500Y-126700471D01*
X182435500Y-126559529D01*
X182604500Y-126559529D01*
X182604500Y-126700471D01*
X182631996Y-126838704D01*
X182685932Y-126968916D01*
X182764235Y-127086105D01*
X182863895Y-127185765D01*
X182981084Y-127264068D01*
X183111296Y-127318004D01*
X183249529Y-127345500D01*
X183390471Y-127345500D01*
X183528704Y-127318004D01*
X183658916Y-127264068D01*
X183776105Y-127185765D01*
X183875765Y-127086105D01*
X183954068Y-126968916D01*
X184008004Y-126838704D01*
X184035500Y-126700471D01*
X184035500Y-126559529D01*
X184204500Y-126559529D01*
X184204500Y-126700471D01*
X184231996Y-126838704D01*
X184285932Y-126968916D01*
X184364235Y-127086105D01*
X184463895Y-127185765D01*
X184581084Y-127264068D01*
X184711296Y-127318004D01*
X184849529Y-127345500D01*
X184990471Y-127345500D01*
X185128704Y-127318004D01*
X185258916Y-127264068D01*
X185376105Y-127185765D01*
X185475765Y-127086105D01*
X185554068Y-126968916D01*
X185608004Y-126838704D01*
X185635500Y-126700471D01*
X185635500Y-126559529D01*
X185608004Y-126421296D01*
X185554068Y-126291084D01*
X185475765Y-126173895D01*
X185376105Y-126074235D01*
X185258916Y-125995932D01*
X185223401Y-125981221D01*
X187015500Y-125981221D01*
X187015500Y-126068779D01*
X187032582Y-126154656D01*
X187066089Y-126235550D01*
X187114734Y-126308352D01*
X187176648Y-126370266D01*
X187249450Y-126418911D01*
X187330344Y-126452418D01*
X187416221Y-126469500D01*
X187503779Y-126469500D01*
X187589656Y-126452418D01*
X187670550Y-126418911D01*
X187743352Y-126370266D01*
X187805266Y-126308352D01*
X187853911Y-126235550D01*
X187887418Y-126154656D01*
X187904500Y-126068779D01*
X187904500Y-125981221D01*
X188285500Y-125981221D01*
X188285500Y-126068779D01*
X188302582Y-126154656D01*
X188336089Y-126235550D01*
X188384734Y-126308352D01*
X188446648Y-126370266D01*
X188519450Y-126418911D01*
X188600344Y-126452418D01*
X188686221Y-126469500D01*
X188773779Y-126469500D01*
X188859656Y-126452418D01*
X188940550Y-126418911D01*
X189013352Y-126370266D01*
X189075266Y-126308352D01*
X189123911Y-126235550D01*
X189157418Y-126154656D01*
X189174500Y-126068779D01*
X189174500Y-125981221D01*
X189555500Y-125981221D01*
X189555500Y-126068779D01*
X189572582Y-126154656D01*
X189606089Y-126235550D01*
X189654734Y-126308352D01*
X189716648Y-126370266D01*
X189789450Y-126418911D01*
X189870344Y-126452418D01*
X189956221Y-126469500D01*
X190043779Y-126469500D01*
X190129656Y-126452418D01*
X190210550Y-126418911D01*
X190283352Y-126370266D01*
X190345266Y-126308352D01*
X190393911Y-126235550D01*
X190427418Y-126154656D01*
X190444500Y-126068779D01*
X190444500Y-125981221D01*
X190825500Y-125981221D01*
X190825500Y-126068779D01*
X190842582Y-126154656D01*
X190876089Y-126235550D01*
X190924734Y-126308352D01*
X190986648Y-126370266D01*
X191059450Y-126418911D01*
X191140344Y-126452418D01*
X191226221Y-126469500D01*
X191313779Y-126469500D01*
X191399656Y-126452418D01*
X191480550Y-126418911D01*
X191553352Y-126370266D01*
X191615266Y-126308352D01*
X191663911Y-126235550D01*
X191697418Y-126154656D01*
X191714500Y-126068779D01*
X191714500Y-125981221D01*
X191697418Y-125895344D01*
X191663911Y-125814450D01*
X191615266Y-125741648D01*
X191553352Y-125679734D01*
X191480550Y-125631089D01*
X191399656Y-125597582D01*
X191313779Y-125580500D01*
X191226221Y-125580500D01*
X191140344Y-125597582D01*
X191059450Y-125631089D01*
X190986648Y-125679734D01*
X190924734Y-125741648D01*
X190876089Y-125814450D01*
X190842582Y-125895344D01*
X190825500Y-125981221D01*
X190444500Y-125981221D01*
X190427418Y-125895344D01*
X190393911Y-125814450D01*
X190345266Y-125741648D01*
X190283352Y-125679734D01*
X190210550Y-125631089D01*
X190129656Y-125597582D01*
X190043779Y-125580500D01*
X189956221Y-125580500D01*
X189870344Y-125597582D01*
X189789450Y-125631089D01*
X189716648Y-125679734D01*
X189654734Y-125741648D01*
X189606089Y-125814450D01*
X189572582Y-125895344D01*
X189555500Y-125981221D01*
X189174500Y-125981221D01*
X189157418Y-125895344D01*
X189123911Y-125814450D01*
X189075266Y-125741648D01*
X189013352Y-125679734D01*
X188940550Y-125631089D01*
X188859656Y-125597582D01*
X188773779Y-125580500D01*
X188686221Y-125580500D01*
X188600344Y-125597582D01*
X188519450Y-125631089D01*
X188446648Y-125679734D01*
X188384734Y-125741648D01*
X188336089Y-125814450D01*
X188302582Y-125895344D01*
X188285500Y-125981221D01*
X187904500Y-125981221D01*
X187887418Y-125895344D01*
X187853911Y-125814450D01*
X187805266Y-125741648D01*
X187743352Y-125679734D01*
X187670550Y-125631089D01*
X187589656Y-125597582D01*
X187503779Y-125580500D01*
X187416221Y-125580500D01*
X187330344Y-125597582D01*
X187249450Y-125631089D01*
X187176648Y-125679734D01*
X187114734Y-125741648D01*
X187066089Y-125814450D01*
X187032582Y-125895344D01*
X187015500Y-125981221D01*
X185223401Y-125981221D01*
X185128704Y-125941996D01*
X184990471Y-125914500D01*
X184849529Y-125914500D01*
X184711296Y-125941996D01*
X184581084Y-125995932D01*
X184463895Y-126074235D01*
X184364235Y-126173895D01*
X184285932Y-126291084D01*
X184231996Y-126421296D01*
X184204500Y-126559529D01*
X184035500Y-126559529D01*
X184008004Y-126421296D01*
X183954068Y-126291084D01*
X183875765Y-126173895D01*
X183776105Y-126074235D01*
X183658916Y-125995932D01*
X183528704Y-125941996D01*
X183390471Y-125914500D01*
X183249529Y-125914500D01*
X183111296Y-125941996D01*
X182981084Y-125995932D01*
X182863895Y-126074235D01*
X182764235Y-126173895D01*
X182685932Y-126291084D01*
X182631996Y-126421296D01*
X182604500Y-126559529D01*
X182435500Y-126559529D01*
X182408004Y-126421296D01*
X182354068Y-126291084D01*
X182275765Y-126173895D01*
X182176105Y-126074235D01*
X182058916Y-125995932D01*
X181928704Y-125941996D01*
X181790471Y-125914500D01*
X181649529Y-125914500D01*
X181511296Y-125941996D01*
X181381084Y-125995932D01*
X181263895Y-126074235D01*
X181164235Y-126173895D01*
X181085932Y-126291084D01*
X181031996Y-126421296D01*
X181004500Y-126559529D01*
X180835500Y-126559529D01*
X180808004Y-126421296D01*
X180754068Y-126291084D01*
X180675765Y-126173895D01*
X180576105Y-126074235D01*
X180458916Y-125995932D01*
X180328704Y-125941996D01*
X180190471Y-125914500D01*
X180049529Y-125914500D01*
X179911296Y-125941996D01*
X179781084Y-125995932D01*
X179663895Y-126074235D01*
X179564235Y-126173895D01*
X179485932Y-126291084D01*
X179431996Y-126421296D01*
X179404500Y-126559529D01*
X178864292Y-126559529D01*
X177364292Y-125059529D01*
X177804500Y-125059529D01*
X177804500Y-125200471D01*
X177831996Y-125338704D01*
X177885932Y-125468916D01*
X177964235Y-125586105D01*
X178063895Y-125685765D01*
X178181084Y-125764068D01*
X178311296Y-125818004D01*
X178449529Y-125845500D01*
X178590471Y-125845500D01*
X178728704Y-125818004D01*
X178858916Y-125764068D01*
X178976105Y-125685765D01*
X179075765Y-125586105D01*
X179154068Y-125468916D01*
X179208004Y-125338704D01*
X179235500Y-125200471D01*
X179235500Y-125059529D01*
X179404500Y-125059529D01*
X179404500Y-125200471D01*
X179431996Y-125338704D01*
X179485932Y-125468916D01*
X179564235Y-125586105D01*
X179663895Y-125685765D01*
X179781084Y-125764068D01*
X179911296Y-125818004D01*
X180049529Y-125845500D01*
X180190471Y-125845500D01*
X180328704Y-125818004D01*
X180458916Y-125764068D01*
X180576105Y-125685765D01*
X180675765Y-125586105D01*
X180754068Y-125468916D01*
X180808004Y-125338704D01*
X180835500Y-125200471D01*
X180835500Y-125059529D01*
X181004500Y-125059529D01*
X181004500Y-125200471D01*
X181031996Y-125338704D01*
X181085932Y-125468916D01*
X181164235Y-125586105D01*
X181263895Y-125685765D01*
X181381084Y-125764068D01*
X181511296Y-125818004D01*
X181649529Y-125845500D01*
X181790471Y-125845500D01*
X181928704Y-125818004D01*
X182058916Y-125764068D01*
X182176105Y-125685765D01*
X182275765Y-125586105D01*
X182354068Y-125468916D01*
X182408004Y-125338704D01*
X182435500Y-125200471D01*
X182435500Y-125059529D01*
X182408004Y-124921296D01*
X182354068Y-124791084D01*
X182275765Y-124673895D01*
X182176105Y-124574235D01*
X182058916Y-124495932D01*
X181928704Y-124441996D01*
X181790471Y-124414500D01*
X181649529Y-124414500D01*
X181511296Y-124441996D01*
X181381084Y-124495932D01*
X181263895Y-124574235D01*
X181164235Y-124673895D01*
X181085932Y-124791084D01*
X181031996Y-124921296D01*
X181004500Y-125059529D01*
X180835500Y-125059529D01*
X180808004Y-124921296D01*
X180754068Y-124791084D01*
X180675765Y-124673895D01*
X180576105Y-124574235D01*
X180458916Y-124495932D01*
X180328704Y-124441996D01*
X180190471Y-124414500D01*
X180049529Y-124414500D01*
X179911296Y-124441996D01*
X179781084Y-124495932D01*
X179663895Y-124574235D01*
X179564235Y-124673895D01*
X179485932Y-124791084D01*
X179431996Y-124921296D01*
X179404500Y-125059529D01*
X179235500Y-125059529D01*
X179208004Y-124921296D01*
X179154068Y-124791084D01*
X179075765Y-124673895D01*
X178976105Y-124574235D01*
X178858916Y-124495932D01*
X178728704Y-124441996D01*
X178590471Y-124414500D01*
X178449529Y-124414500D01*
X178311296Y-124441996D01*
X178181084Y-124495932D01*
X178063895Y-124574235D01*
X177964235Y-124673895D01*
X177885932Y-124791084D01*
X177831996Y-124921296D01*
X177804500Y-125059529D01*
X177364292Y-125059529D01*
X176215500Y-123910738D01*
X176215500Y-122892595D01*
X188909500Y-122892595D01*
X188909500Y-123107405D01*
X188951408Y-123318087D01*
X189033612Y-123516545D01*
X189152954Y-123695153D01*
X189304847Y-123847046D01*
X189483455Y-123966388D01*
X189681913Y-124048592D01*
X189892595Y-124090500D01*
X190107405Y-124090500D01*
X190318087Y-124048592D01*
X190516545Y-123966388D01*
X190695153Y-123847046D01*
X190847046Y-123695153D01*
X190966388Y-123516545D01*
X191048592Y-123318087D01*
X191090500Y-123107405D01*
X191090500Y-122892595D01*
X191048592Y-122681913D01*
X190966388Y-122483455D01*
X190847046Y-122304847D01*
X190695153Y-122152954D01*
X190516545Y-122033612D01*
X190318087Y-121951408D01*
X190107405Y-121909500D01*
X189892595Y-121909500D01*
X189681913Y-121951408D01*
X189483455Y-122033612D01*
X189304847Y-122152954D01*
X189152954Y-122304847D01*
X189033612Y-122483455D01*
X188951408Y-122681913D01*
X188909500Y-122892595D01*
X176215500Y-122892595D01*
X176215500Y-120806916D01*
X177209500Y-120806916D01*
X177209500Y-120933084D01*
X177234114Y-121056827D01*
X177282396Y-121173390D01*
X177352491Y-121278295D01*
X177441705Y-121367509D01*
X177546610Y-121437604D01*
X177663173Y-121485886D01*
X177786916Y-121510500D01*
X177913084Y-121510500D01*
X178035142Y-121486221D01*
X187345500Y-121486221D01*
X187345500Y-121573779D01*
X187362582Y-121659656D01*
X187396089Y-121740550D01*
X187444734Y-121813352D01*
X187506648Y-121875266D01*
X187579450Y-121923911D01*
X187660344Y-121957418D01*
X187746221Y-121974500D01*
X187833779Y-121974500D01*
X187919656Y-121957418D01*
X188000550Y-121923911D01*
X188073352Y-121875266D01*
X188135266Y-121813352D01*
X188183911Y-121740550D01*
X188217418Y-121659656D01*
X188234500Y-121573779D01*
X188234500Y-121486221D01*
X188217418Y-121400344D01*
X188183911Y-121319450D01*
X188135266Y-121246648D01*
X188073352Y-121184734D01*
X188000550Y-121136089D01*
X187919656Y-121102582D01*
X187833779Y-121085500D01*
X187746221Y-121085500D01*
X187660344Y-121102582D01*
X187579450Y-121136089D01*
X187506648Y-121184734D01*
X187444734Y-121246648D01*
X187396089Y-121319450D01*
X187362582Y-121400344D01*
X187345500Y-121486221D01*
X178035142Y-121486221D01*
X178036827Y-121485886D01*
X178153390Y-121437604D01*
X178258295Y-121367509D01*
X178347509Y-121278295D01*
X178417604Y-121173390D01*
X178465886Y-121056827D01*
X178490500Y-120933084D01*
X178490500Y-120806916D01*
X178465886Y-120683173D01*
X178417604Y-120566610D01*
X178347509Y-120461705D01*
X178258295Y-120372491D01*
X178153390Y-120302396D01*
X178036827Y-120254114D01*
X177913084Y-120229500D01*
X177786916Y-120229500D01*
X177663173Y-120254114D01*
X177546610Y-120302396D01*
X177441705Y-120372491D01*
X177352491Y-120461705D01*
X177282396Y-120566610D01*
X177234114Y-120683173D01*
X177209500Y-120806916D01*
X176215500Y-120806916D01*
X176215500Y-117806916D01*
X177209500Y-117806916D01*
X177209500Y-117933084D01*
X177234114Y-118056827D01*
X177282396Y-118173390D01*
X177352491Y-118278295D01*
X177441705Y-118367509D01*
X177546610Y-118437604D01*
X177663173Y-118485886D01*
X177786916Y-118510500D01*
X177913084Y-118510500D01*
X178036827Y-118485886D01*
X178153390Y-118437604D01*
X178258295Y-118367509D01*
X178347509Y-118278295D01*
X178417604Y-118173390D01*
X178465886Y-118056827D01*
X178490500Y-117933084D01*
X178490500Y-117806916D01*
X178465886Y-117683173D01*
X178417604Y-117566610D01*
X178347509Y-117461705D01*
X178258295Y-117372491D01*
X178153390Y-117302396D01*
X178036827Y-117254114D01*
X177913084Y-117229500D01*
X177786916Y-117229500D01*
X177663173Y-117254114D01*
X177546610Y-117302396D01*
X177441705Y-117372491D01*
X177352491Y-117461705D01*
X177282396Y-117566610D01*
X177234114Y-117683173D01*
X177209500Y-117806916D01*
X176215500Y-117806916D01*
X176215500Y-110541399D01*
X178995758Y-110541399D01*
X178997602Y-110560119D01*
X178997601Y-117112686D01*
X178997601Y-117112687D01*
X178997602Y-117749881D01*
X178995758Y-117768601D01*
X179000599Y-117817743D01*
X179003057Y-117842696D01*
X179003115Y-117843289D01*
X179024900Y-117915108D01*
X179060279Y-117981297D01*
X179070959Y-117994310D01*
X179107891Y-118039312D01*
X179122428Y-118051242D01*
X181857359Y-120786174D01*
X181869289Y-120800711D01*
X181883824Y-120812639D01*
X181927303Y-120848322D01*
X181993492Y-120883701D01*
X182065311Y-120905487D01*
X182121287Y-120911000D01*
X182121290Y-120911000D01*
X182140000Y-120912843D01*
X182158710Y-120911000D01*
X195021290Y-120911000D01*
X195040000Y-120912843D01*
X195058710Y-120911000D01*
X195058713Y-120911000D01*
X195114689Y-120905487D01*
X195186508Y-120883701D01*
X195252696Y-120848322D01*
X195310711Y-120800711D01*
X195322646Y-120786168D01*
X195777315Y-120331500D01*
X195866288Y-120331500D01*
X195976700Y-120309537D01*
X196080707Y-120266457D01*
X196174310Y-120203913D01*
X196253913Y-120124310D01*
X196316457Y-120030707D01*
X196359537Y-119926700D01*
X196381500Y-119816288D01*
X196381500Y-119703712D01*
X196359537Y-119593300D01*
X196316457Y-119489293D01*
X196253913Y-119395690D01*
X196174310Y-119316087D01*
X196080707Y-119253543D01*
X195976700Y-119210463D01*
X195866288Y-119188500D01*
X195753712Y-119188500D01*
X195643300Y-119210463D01*
X195539293Y-119253543D01*
X195445690Y-119316087D01*
X195366087Y-119395690D01*
X195303543Y-119489293D01*
X195260463Y-119593300D01*
X195238500Y-119703712D01*
X195238500Y-119792685D01*
X194882186Y-120149000D01*
X182297815Y-120149000D01*
X179759601Y-117610787D01*
X179759601Y-115923712D01*
X179828500Y-115923712D01*
X179828500Y-116036288D01*
X179850463Y-116146700D01*
X179893543Y-116250707D01*
X179956087Y-116344310D01*
X180035690Y-116423913D01*
X180129293Y-116486457D01*
X180233300Y-116529537D01*
X180343712Y-116551500D01*
X180456288Y-116551500D01*
X180566700Y-116529537D01*
X180670707Y-116486457D01*
X180764310Y-116423913D01*
X180827223Y-116361000D01*
X181232186Y-116361000D01*
X184247363Y-119376179D01*
X184259289Y-119390711D01*
X184273821Y-119402637D01*
X184273824Y-119402640D01*
X184317303Y-119438322D01*
X184383492Y-119473701D01*
X184455311Y-119495487D01*
X184511287Y-119501000D01*
X184511290Y-119501000D01*
X184530000Y-119502843D01*
X184548710Y-119501000D01*
X188542777Y-119501000D01*
X188615690Y-119573913D01*
X188709293Y-119636457D01*
X188813300Y-119679537D01*
X188923712Y-119701500D01*
X189036288Y-119701500D01*
X189146700Y-119679537D01*
X189250707Y-119636457D01*
X189344310Y-119573913D01*
X189423913Y-119494310D01*
X189486457Y-119400707D01*
X189529537Y-119296700D01*
X189551500Y-119186288D01*
X189551500Y-119073712D01*
X189536086Y-118996221D01*
X190675500Y-118996221D01*
X190675500Y-119083779D01*
X190692582Y-119169656D01*
X190726089Y-119250550D01*
X190774734Y-119323352D01*
X190836648Y-119385266D01*
X190909450Y-119433911D01*
X190990344Y-119467418D01*
X191076221Y-119484500D01*
X191163779Y-119484500D01*
X191249656Y-119467418D01*
X191330550Y-119433911D01*
X191403352Y-119385266D01*
X191465266Y-119323352D01*
X191513911Y-119250550D01*
X191547418Y-119169656D01*
X191564500Y-119083779D01*
X191564500Y-119033118D01*
X191616648Y-119085266D01*
X191689450Y-119133911D01*
X191770344Y-119167418D01*
X191856221Y-119184500D01*
X191943779Y-119184500D01*
X192029656Y-119167418D01*
X192110550Y-119133911D01*
X192183352Y-119085266D01*
X192245266Y-119023352D01*
X192293911Y-118950550D01*
X192327418Y-118869656D01*
X192344500Y-118783779D01*
X192344500Y-118776221D01*
X192735500Y-118776221D01*
X192735500Y-118863779D01*
X192752582Y-118949656D01*
X192786089Y-119030550D01*
X192834734Y-119103352D01*
X192896648Y-119165266D01*
X192969450Y-119213911D01*
X193050344Y-119247418D01*
X193136221Y-119264500D01*
X193223779Y-119264500D01*
X193309656Y-119247418D01*
X193390550Y-119213911D01*
X193463352Y-119165266D01*
X193525266Y-119103352D01*
X193573911Y-119030550D01*
X193607418Y-118949656D01*
X193624500Y-118863779D01*
X193624500Y-118776221D01*
X193607418Y-118690344D01*
X193573911Y-118609450D01*
X193525266Y-118536648D01*
X193463352Y-118474734D01*
X193390550Y-118426089D01*
X193309656Y-118392582D01*
X193223779Y-118375500D01*
X193136221Y-118375500D01*
X193050344Y-118392582D01*
X192969450Y-118426089D01*
X192896648Y-118474734D01*
X192834734Y-118536648D01*
X192786089Y-118609450D01*
X192752582Y-118690344D01*
X192735500Y-118776221D01*
X192344500Y-118776221D01*
X192344500Y-118696221D01*
X192327418Y-118610344D01*
X192293911Y-118529450D01*
X192245266Y-118456648D01*
X192183352Y-118394734D01*
X192110550Y-118346089D01*
X192029656Y-118312582D01*
X191943779Y-118295500D01*
X191856221Y-118295500D01*
X191770344Y-118312582D01*
X191689450Y-118346089D01*
X191616648Y-118394734D01*
X191554734Y-118456648D01*
X191506089Y-118529450D01*
X191472582Y-118610344D01*
X191455500Y-118696221D01*
X191455500Y-118746882D01*
X191403352Y-118694734D01*
X191330550Y-118646089D01*
X191249656Y-118612582D01*
X191163779Y-118595500D01*
X191076221Y-118595500D01*
X190990344Y-118612582D01*
X190909450Y-118646089D01*
X190836648Y-118694734D01*
X190774734Y-118756648D01*
X190726089Y-118829450D01*
X190692582Y-118910344D01*
X190675500Y-118996221D01*
X189536086Y-118996221D01*
X189529537Y-118963300D01*
X189486457Y-118859293D01*
X189423913Y-118765690D01*
X189344310Y-118686087D01*
X189250707Y-118623543D01*
X189146700Y-118580463D01*
X189036288Y-118558500D01*
X188923712Y-118558500D01*
X188813300Y-118580463D01*
X188709293Y-118623543D01*
X188615690Y-118686087D01*
X188562777Y-118739000D01*
X184687816Y-118739000D01*
X181672646Y-115723832D01*
X181660711Y-115709289D01*
X181602696Y-115661678D01*
X181536508Y-115626299D01*
X181464689Y-115604513D01*
X181408713Y-115599000D01*
X181408710Y-115599000D01*
X181390000Y-115597157D01*
X181371290Y-115599000D01*
X180827223Y-115599000D01*
X180764310Y-115536087D01*
X180670707Y-115473543D01*
X180566700Y-115430463D01*
X180456288Y-115408500D01*
X180343712Y-115408500D01*
X180233300Y-115430463D01*
X180129293Y-115473543D01*
X180035690Y-115536087D01*
X179956087Y-115615690D01*
X179893543Y-115709293D01*
X179850463Y-115813300D01*
X179828500Y-115923712D01*
X179759601Y-115923712D01*
X179759601Y-110699213D01*
X180428814Y-110030000D01*
X183327157Y-110030000D01*
X183329000Y-110048710D01*
X183329001Y-112281278D01*
X183329000Y-112281288D01*
X183329001Y-114021278D01*
X183329000Y-114021288D01*
X183329001Y-116631280D01*
X183327157Y-116650000D01*
X183334514Y-116724688D01*
X183356299Y-116796507D01*
X183391678Y-116862696D01*
X183421010Y-116898437D01*
X183439290Y-116920711D01*
X183453827Y-116932641D01*
X184118500Y-117597315D01*
X184118500Y-117686288D01*
X184140463Y-117796700D01*
X184183543Y-117900707D01*
X184246087Y-117994310D01*
X184325690Y-118073913D01*
X184419293Y-118136457D01*
X184523300Y-118179537D01*
X184633712Y-118201500D01*
X184746288Y-118201500D01*
X184856700Y-118179537D01*
X184960707Y-118136457D01*
X185054310Y-118073913D01*
X185133913Y-117994310D01*
X185196457Y-117900707D01*
X185239537Y-117796700D01*
X185261500Y-117686288D01*
X185261500Y-117573712D01*
X185239537Y-117463300D01*
X185196457Y-117359293D01*
X185133913Y-117265690D01*
X185099444Y-117231221D01*
X190825500Y-117231221D01*
X190825500Y-117318779D01*
X190842582Y-117404656D01*
X190876089Y-117485550D01*
X190924734Y-117558352D01*
X190986648Y-117620266D01*
X191059450Y-117668911D01*
X191140344Y-117702418D01*
X191226221Y-117719500D01*
X191313779Y-117719500D01*
X191399656Y-117702418D01*
X191480550Y-117668911D01*
X191553352Y-117620266D01*
X191615266Y-117558352D01*
X191663911Y-117485550D01*
X191697418Y-117404656D01*
X191714500Y-117318779D01*
X191714500Y-117231221D01*
X192095500Y-117231221D01*
X192095500Y-117318779D01*
X192112582Y-117404656D01*
X192146089Y-117485550D01*
X192194734Y-117558352D01*
X192256648Y-117620266D01*
X192329450Y-117668911D01*
X192410344Y-117702418D01*
X192496221Y-117719500D01*
X192583779Y-117719500D01*
X192669656Y-117702418D01*
X192750550Y-117668911D01*
X192823352Y-117620266D01*
X192885266Y-117558352D01*
X192933911Y-117485550D01*
X192967418Y-117404656D01*
X192984500Y-117318779D01*
X192984500Y-117231221D01*
X192967418Y-117145344D01*
X192933911Y-117064450D01*
X192885266Y-116991648D01*
X192823352Y-116929734D01*
X192750550Y-116881089D01*
X192669656Y-116847582D01*
X192583779Y-116830500D01*
X192496221Y-116830500D01*
X192410344Y-116847582D01*
X192329450Y-116881089D01*
X192256648Y-116929734D01*
X192194734Y-116991648D01*
X192146089Y-117064450D01*
X192112582Y-117145344D01*
X192095500Y-117231221D01*
X191714500Y-117231221D01*
X191697418Y-117145344D01*
X191663911Y-117064450D01*
X191615266Y-116991648D01*
X191553352Y-116929734D01*
X191480550Y-116881089D01*
X191399656Y-116847582D01*
X191313779Y-116830500D01*
X191226221Y-116830500D01*
X191140344Y-116847582D01*
X191059450Y-116881089D01*
X190986648Y-116929734D01*
X190924734Y-116991648D01*
X190876089Y-117064450D01*
X190842582Y-117145344D01*
X190825500Y-117231221D01*
X185099444Y-117231221D01*
X185054310Y-117186087D01*
X184960707Y-117123543D01*
X184856700Y-117080463D01*
X184746288Y-117058500D01*
X184657315Y-117058500D01*
X184091000Y-116492186D01*
X184091000Y-115786221D01*
X186375500Y-115786221D01*
X186375500Y-115873779D01*
X186392582Y-115959656D01*
X186426089Y-116040550D01*
X186474734Y-116113352D01*
X186536648Y-116175266D01*
X186609450Y-116223911D01*
X186690344Y-116257418D01*
X186776221Y-116274500D01*
X186863779Y-116274500D01*
X186949656Y-116257418D01*
X187030550Y-116223911D01*
X187103352Y-116175266D01*
X187165266Y-116113352D01*
X187213911Y-116040550D01*
X187247418Y-115959656D01*
X187248665Y-115953387D01*
X187249450Y-115953911D01*
X187330344Y-115987418D01*
X187416221Y-116004500D01*
X187503779Y-116004500D01*
X187589656Y-115987418D01*
X187670550Y-115953911D01*
X187743352Y-115905266D01*
X187805266Y-115843352D01*
X187853911Y-115770550D01*
X187887418Y-115689656D01*
X187896057Y-115646221D01*
X188285500Y-115646221D01*
X188285500Y-115733779D01*
X188302582Y-115819656D01*
X188336089Y-115900550D01*
X188384734Y-115973352D01*
X188446648Y-116035266D01*
X188519450Y-116083911D01*
X188600344Y-116117418D01*
X188686221Y-116134500D01*
X188773779Y-116134500D01*
X188859656Y-116117418D01*
X188940550Y-116083911D01*
X189013352Y-116035266D01*
X189075266Y-115973352D01*
X189123911Y-115900550D01*
X189157418Y-115819656D01*
X189174500Y-115733779D01*
X189174500Y-115720145D01*
X189240344Y-115747418D01*
X189326221Y-115764500D01*
X189413779Y-115764500D01*
X189499656Y-115747418D01*
X189558087Y-115723215D01*
X189555500Y-115736221D01*
X189555500Y-115823779D01*
X189572582Y-115909656D01*
X189606089Y-115990550D01*
X189654734Y-116063352D01*
X189716648Y-116125266D01*
X189789450Y-116173911D01*
X189870344Y-116207418D01*
X189956221Y-116224500D01*
X190043779Y-116224500D01*
X190129656Y-116207418D01*
X190210550Y-116173911D01*
X190283352Y-116125266D01*
X190345266Y-116063352D01*
X190393911Y-115990550D01*
X190427418Y-115909656D01*
X190444500Y-115823779D01*
X190444500Y-115736221D01*
X190427418Y-115650344D01*
X190393911Y-115569450D01*
X190345266Y-115496648D01*
X190283352Y-115434734D01*
X190210550Y-115386089D01*
X190129656Y-115352582D01*
X190043779Y-115335500D01*
X189956221Y-115335500D01*
X189870344Y-115352582D01*
X189811913Y-115376785D01*
X189814500Y-115363779D01*
X189814500Y-115276221D01*
X189797418Y-115190344D01*
X189763911Y-115109450D01*
X189715266Y-115036648D01*
X189653352Y-114974734D01*
X189580550Y-114926089D01*
X189499656Y-114892582D01*
X189413779Y-114875500D01*
X189326221Y-114875500D01*
X189240344Y-114892582D01*
X189159450Y-114926089D01*
X189086648Y-114974734D01*
X189024734Y-115036648D01*
X188976089Y-115109450D01*
X188942582Y-115190344D01*
X188925500Y-115276221D01*
X188925500Y-115289855D01*
X188859656Y-115262582D01*
X188773779Y-115245500D01*
X188686221Y-115245500D01*
X188600344Y-115262582D01*
X188519450Y-115296089D01*
X188446648Y-115344734D01*
X188384734Y-115406648D01*
X188336089Y-115479450D01*
X188302582Y-115560344D01*
X188285500Y-115646221D01*
X187896057Y-115646221D01*
X187904500Y-115603779D01*
X187904500Y-115516221D01*
X187887418Y-115430344D01*
X187853911Y-115349450D01*
X187805266Y-115276648D01*
X187743352Y-115214734D01*
X187670550Y-115166089D01*
X187589656Y-115132582D01*
X187503779Y-115115500D01*
X187416221Y-115115500D01*
X187330344Y-115132582D01*
X187249450Y-115166089D01*
X187176648Y-115214734D01*
X187114734Y-115276648D01*
X187066089Y-115349450D01*
X187032582Y-115430344D01*
X187031335Y-115436613D01*
X187030550Y-115436089D01*
X186949656Y-115402582D01*
X186863779Y-115385500D01*
X186776221Y-115385500D01*
X186690344Y-115402582D01*
X186609450Y-115436089D01*
X186536648Y-115484734D01*
X186474734Y-115546648D01*
X186426089Y-115619450D01*
X186392582Y-115700344D01*
X186375500Y-115786221D01*
X184091000Y-115786221D01*
X184091000Y-113681221D01*
X187015500Y-113681221D01*
X187015500Y-113768779D01*
X187032582Y-113854656D01*
X187066089Y-113935550D01*
X187114734Y-114008352D01*
X187176648Y-114070266D01*
X187249450Y-114118911D01*
X187330344Y-114152418D01*
X187416221Y-114169500D01*
X187503779Y-114169500D01*
X187589656Y-114152418D01*
X187670550Y-114118911D01*
X187743352Y-114070266D01*
X187805266Y-114008352D01*
X187853911Y-113935550D01*
X187887418Y-113854656D01*
X187904500Y-113768779D01*
X187904500Y-113681221D01*
X187887418Y-113595344D01*
X187853911Y-113514450D01*
X187805266Y-113441648D01*
X187743352Y-113379734D01*
X187670550Y-113331089D01*
X187589656Y-113297582D01*
X187503779Y-113280500D01*
X187416221Y-113280500D01*
X187330344Y-113297582D01*
X187249450Y-113331089D01*
X187176648Y-113379734D01*
X187114734Y-113441648D01*
X187066089Y-113514450D01*
X187032582Y-113595344D01*
X187015500Y-113681221D01*
X184091000Y-113681221D01*
X184091000Y-112313712D01*
X184598500Y-112313712D01*
X184598500Y-112426288D01*
X184620463Y-112536700D01*
X184663543Y-112640707D01*
X184726087Y-112734310D01*
X184805690Y-112813913D01*
X184899293Y-112876457D01*
X185003300Y-112919537D01*
X185113712Y-112941500D01*
X185226288Y-112941500D01*
X185336700Y-112919537D01*
X185436982Y-112878000D01*
X191259580Y-112878000D01*
X192778429Y-114396850D01*
X192778435Y-114396855D01*
X195538579Y-117157000D01*
X195538579Y-117630000D01*
X195542257Y-117667344D01*
X195553150Y-117703254D01*
X195570839Y-117736348D01*
X195594645Y-117765355D01*
X195623652Y-117789161D01*
X195656746Y-117806850D01*
X195692656Y-117817743D01*
X195730000Y-117821421D01*
X196730000Y-117821421D01*
X196767344Y-117817743D01*
X196803254Y-117806850D01*
X196836348Y-117789161D01*
X196865355Y-117765355D01*
X196889161Y-117736348D01*
X196906850Y-117703254D01*
X196908983Y-117696221D01*
X200025500Y-117696221D01*
X200025500Y-117783779D01*
X200042582Y-117869656D01*
X200076089Y-117950550D01*
X200124734Y-118023352D01*
X200186648Y-118085266D01*
X200259450Y-118133911D01*
X200340344Y-118167418D01*
X200426221Y-118184500D01*
X200506882Y-118184500D01*
X200474734Y-118216648D01*
X200426089Y-118289450D01*
X200392582Y-118370344D01*
X200375500Y-118456221D01*
X200375500Y-118543779D01*
X200392582Y-118629656D01*
X200426089Y-118710550D01*
X200474734Y-118783352D01*
X200536648Y-118845266D01*
X200609450Y-118893911D01*
X200690344Y-118927418D01*
X200776221Y-118944500D01*
X200863779Y-118944500D01*
X200949656Y-118927418D01*
X201030550Y-118893911D01*
X201103352Y-118845266D01*
X201165266Y-118783352D01*
X201213911Y-118710550D01*
X201225047Y-118683665D01*
X201226648Y-118685266D01*
X201299450Y-118733911D01*
X201380344Y-118767418D01*
X201466221Y-118784500D01*
X201553779Y-118784500D01*
X201639656Y-118767418D01*
X201720550Y-118733911D01*
X201793352Y-118685266D01*
X201855266Y-118623352D01*
X201903911Y-118550550D01*
X201937418Y-118469656D01*
X201954500Y-118383779D01*
X201954500Y-118296221D01*
X201937418Y-118210344D01*
X201903911Y-118129450D01*
X201855266Y-118056648D01*
X201793352Y-117994734D01*
X201788655Y-117991595D01*
X201809656Y-117987418D01*
X201890550Y-117953911D01*
X201963352Y-117905266D01*
X202025266Y-117843352D01*
X202073911Y-117770550D01*
X202107418Y-117689656D01*
X202124500Y-117603779D01*
X202124500Y-117516221D01*
X202107418Y-117430344D01*
X202073911Y-117349450D01*
X202025266Y-117276648D01*
X201963352Y-117214734D01*
X201890550Y-117166089D01*
X201809656Y-117132582D01*
X201723779Y-117115500D01*
X201636221Y-117115500D01*
X201550344Y-117132582D01*
X201469450Y-117166089D01*
X201396648Y-117214734D01*
X201334734Y-117276648D01*
X201286089Y-117349450D01*
X201252582Y-117430344D01*
X201235500Y-117516221D01*
X201235500Y-117603779D01*
X201252582Y-117689656D01*
X201286089Y-117770550D01*
X201334734Y-117843352D01*
X201396648Y-117905266D01*
X201401345Y-117908405D01*
X201380344Y-117912582D01*
X201299450Y-117946089D01*
X201226648Y-117994734D01*
X201164734Y-118056648D01*
X201116089Y-118129450D01*
X201104953Y-118156335D01*
X201103352Y-118154734D01*
X201030550Y-118106089D01*
X200949656Y-118072582D01*
X200863779Y-118055500D01*
X200783118Y-118055500D01*
X200815266Y-118023352D01*
X200863911Y-117950550D01*
X200897418Y-117869656D01*
X200914500Y-117783779D01*
X200914500Y-117696221D01*
X200897418Y-117610344D01*
X200863911Y-117529450D01*
X200815266Y-117456648D01*
X200753352Y-117394734D01*
X200680550Y-117346089D01*
X200599656Y-117312582D01*
X200513779Y-117295500D01*
X200426221Y-117295500D01*
X200340344Y-117312582D01*
X200259450Y-117346089D01*
X200186648Y-117394734D01*
X200124734Y-117456648D01*
X200076089Y-117529450D01*
X200042582Y-117610344D01*
X200025500Y-117696221D01*
X196908983Y-117696221D01*
X196917743Y-117667344D01*
X196921421Y-117630000D01*
X196921421Y-116630000D01*
X196917743Y-116592656D01*
X196906850Y-116556746D01*
X196889161Y-116523652D01*
X196865355Y-116494645D01*
X196836348Y-116470839D01*
X196803254Y-116453150D01*
X196767344Y-116442257D01*
X196730000Y-116438579D01*
X196257000Y-116438579D01*
X193496855Y-113678435D01*
X193496850Y-113678429D01*
X191846855Y-112028435D01*
X191830948Y-112009052D01*
X191753595Y-111945571D01*
X191665343Y-111898399D01*
X191569585Y-111869351D01*
X191494947Y-111862000D01*
X191494944Y-111862000D01*
X191470000Y-111859543D01*
X191445056Y-111862000D01*
X185436982Y-111862000D01*
X185336700Y-111820463D01*
X185226288Y-111798500D01*
X185113712Y-111798500D01*
X185003300Y-111820463D01*
X184899293Y-111863543D01*
X184805690Y-111926087D01*
X184726087Y-112005690D01*
X184663543Y-112099293D01*
X184620463Y-112203300D01*
X184598500Y-112313712D01*
X184091000Y-112313712D01*
X184091000Y-111216221D01*
X190825500Y-111216221D01*
X190825500Y-111303779D01*
X190842582Y-111389656D01*
X190876089Y-111470550D01*
X190924734Y-111543352D01*
X190986648Y-111605266D01*
X191059450Y-111653911D01*
X191140344Y-111687418D01*
X191226221Y-111704500D01*
X191313779Y-111704500D01*
X191399656Y-111687418D01*
X191480550Y-111653911D01*
X191553352Y-111605266D01*
X191615266Y-111543352D01*
X191663911Y-111470550D01*
X191697418Y-111389656D01*
X191714500Y-111303779D01*
X191714500Y-111216221D01*
X191712511Y-111206221D01*
X192095500Y-111206221D01*
X192095500Y-111293779D01*
X192112582Y-111379656D01*
X192146089Y-111460550D01*
X192194734Y-111533352D01*
X192256648Y-111595266D01*
X192329450Y-111643911D01*
X192410344Y-111677418D01*
X192496221Y-111694500D01*
X192583779Y-111694500D01*
X192669656Y-111677418D01*
X192750550Y-111643911D01*
X192823352Y-111595266D01*
X192885266Y-111533352D01*
X192933911Y-111460550D01*
X192967418Y-111379656D01*
X192984500Y-111293779D01*
X192984500Y-111206221D01*
X192967418Y-111120344D01*
X192933911Y-111039450D01*
X192885266Y-110966648D01*
X192823352Y-110904734D01*
X192750550Y-110856089D01*
X192669656Y-110822582D01*
X192583779Y-110805500D01*
X192496221Y-110805500D01*
X192410344Y-110822582D01*
X192329450Y-110856089D01*
X192256648Y-110904734D01*
X192194734Y-110966648D01*
X192146089Y-111039450D01*
X192112582Y-111120344D01*
X192095500Y-111206221D01*
X191712511Y-111206221D01*
X191697418Y-111130344D01*
X191663911Y-111049450D01*
X191615266Y-110976648D01*
X191553352Y-110914734D01*
X191480550Y-110866089D01*
X191399656Y-110832582D01*
X191313779Y-110815500D01*
X191226221Y-110815500D01*
X191140344Y-110832582D01*
X191059450Y-110866089D01*
X190986648Y-110914734D01*
X190924734Y-110976648D01*
X190876089Y-111049450D01*
X190842582Y-111130344D01*
X190825500Y-111216221D01*
X184091000Y-111216221D01*
X184091000Y-110646221D01*
X189155500Y-110646221D01*
X189155500Y-110733779D01*
X189172582Y-110819656D01*
X189206089Y-110900550D01*
X189254734Y-110973352D01*
X189316648Y-111035266D01*
X189389450Y-111083911D01*
X189470344Y-111117418D01*
X189556221Y-111134500D01*
X189643779Y-111134500D01*
X189729656Y-111117418D01*
X189810550Y-111083911D01*
X189883352Y-111035266D01*
X189945266Y-110973352D01*
X189993911Y-110900550D01*
X190027418Y-110819656D01*
X190044500Y-110733779D01*
X190044500Y-110646221D01*
X190027418Y-110560344D01*
X189993911Y-110479450D01*
X189991754Y-110476221D01*
X190315500Y-110476221D01*
X190315500Y-110563779D01*
X190332582Y-110649656D01*
X190366089Y-110730550D01*
X190414734Y-110803352D01*
X190476648Y-110865266D01*
X190549450Y-110913911D01*
X190630344Y-110947418D01*
X190716221Y-110964500D01*
X190803779Y-110964500D01*
X190889656Y-110947418D01*
X190970550Y-110913911D01*
X191043352Y-110865266D01*
X191105266Y-110803352D01*
X191153911Y-110730550D01*
X191187418Y-110649656D01*
X191204500Y-110563779D01*
X191204500Y-110476221D01*
X191187418Y-110390344D01*
X191153911Y-110309450D01*
X191105266Y-110236648D01*
X191043352Y-110174734D01*
X190970550Y-110126089D01*
X190889656Y-110092582D01*
X190803779Y-110075500D01*
X190716221Y-110075500D01*
X190630344Y-110092582D01*
X190549450Y-110126089D01*
X190476648Y-110174734D01*
X190414734Y-110236648D01*
X190366089Y-110309450D01*
X190332582Y-110390344D01*
X190315500Y-110476221D01*
X189991754Y-110476221D01*
X189945266Y-110406648D01*
X189883352Y-110344734D01*
X189810550Y-110296089D01*
X189729656Y-110262582D01*
X189643779Y-110245500D01*
X189556221Y-110245500D01*
X189470344Y-110262582D01*
X189389450Y-110296089D01*
X189316648Y-110344734D01*
X189254734Y-110406648D01*
X189206089Y-110479450D01*
X189172582Y-110560344D01*
X189155500Y-110646221D01*
X184091000Y-110646221D01*
X184091000Y-110187814D01*
X184552593Y-109726221D01*
X185612900Y-109726221D01*
X185612900Y-109813779D01*
X185629982Y-109899656D01*
X185663489Y-109980550D01*
X185712134Y-110053352D01*
X185774048Y-110115266D01*
X185846850Y-110163911D01*
X185927744Y-110197418D01*
X186013621Y-110214500D01*
X186101179Y-110214500D01*
X186187056Y-110197418D01*
X186267950Y-110163911D01*
X186340752Y-110115266D01*
X186402666Y-110053352D01*
X186451311Y-109980550D01*
X186484818Y-109899656D01*
X186501900Y-109813779D01*
X186501900Y-109726221D01*
X186484818Y-109640344D01*
X186451311Y-109559450D01*
X186402666Y-109486648D01*
X186340752Y-109424734D01*
X186268148Y-109376221D01*
X187825500Y-109376221D01*
X187825500Y-109463779D01*
X187842582Y-109549656D01*
X187876089Y-109630550D01*
X187924734Y-109703352D01*
X187986648Y-109765266D01*
X188059450Y-109813911D01*
X188140344Y-109847418D01*
X188226221Y-109864500D01*
X188313779Y-109864500D01*
X188399656Y-109847418D01*
X188480550Y-109813911D01*
X188553352Y-109765266D01*
X188615266Y-109703352D01*
X188663911Y-109630550D01*
X188697418Y-109549656D01*
X188714500Y-109463779D01*
X188714500Y-109376221D01*
X188697418Y-109290344D01*
X188663911Y-109209450D01*
X188615266Y-109136648D01*
X188553352Y-109074734D01*
X188480550Y-109026089D01*
X188399656Y-108992582D01*
X188313779Y-108975500D01*
X188226221Y-108975500D01*
X188140344Y-108992582D01*
X188059450Y-109026089D01*
X187986648Y-109074734D01*
X187924734Y-109136648D01*
X187876089Y-109209450D01*
X187842582Y-109290344D01*
X187825500Y-109376221D01*
X186268148Y-109376221D01*
X186267950Y-109376089D01*
X186187056Y-109342582D01*
X186101179Y-109325500D01*
X186013621Y-109325500D01*
X185927744Y-109342582D01*
X185846850Y-109376089D01*
X185774048Y-109424734D01*
X185712134Y-109486648D01*
X185663489Y-109559450D01*
X185629982Y-109640344D01*
X185612900Y-109726221D01*
X184552593Y-109726221D01*
X185402639Y-108876176D01*
X185402644Y-108876170D01*
X185517814Y-108761000D01*
X188090127Y-108761000D01*
X188109450Y-108773911D01*
X188190344Y-108807418D01*
X188276221Y-108824500D01*
X188363779Y-108824500D01*
X188449656Y-108807418D01*
X188530550Y-108773911D01*
X188603352Y-108725266D01*
X188631118Y-108697500D01*
X198054404Y-108697500D01*
X198070000Y-108699036D01*
X198085596Y-108697500D01*
X198132241Y-108692906D01*
X198192090Y-108674751D01*
X198247247Y-108645269D01*
X198295593Y-108605593D01*
X198305542Y-108593470D01*
X199006417Y-107892595D01*
X200659500Y-107892595D01*
X200659500Y-108107405D01*
X200701408Y-108318087D01*
X200783612Y-108516545D01*
X200902954Y-108695153D01*
X201054847Y-108847046D01*
X201233455Y-108966388D01*
X201431913Y-109048592D01*
X201642595Y-109090500D01*
X201857405Y-109090500D01*
X202068087Y-109048592D01*
X202266545Y-108966388D01*
X202445153Y-108847046D01*
X202597046Y-108695153D01*
X202716388Y-108516545D01*
X202798592Y-108318087D01*
X202840500Y-108107405D01*
X202840500Y-107892595D01*
X202798592Y-107681913D01*
X202716388Y-107483455D01*
X202597046Y-107304847D01*
X202445153Y-107152954D01*
X202266545Y-107033612D01*
X202068087Y-106951408D01*
X201857405Y-106909500D01*
X201642595Y-106909500D01*
X201431913Y-106951408D01*
X201233455Y-107033612D01*
X201054847Y-107152954D01*
X200902954Y-107304847D01*
X200783612Y-107483455D01*
X200701408Y-107681913D01*
X200659500Y-107892595D01*
X199006417Y-107892595D01*
X199615534Y-107283479D01*
X199615538Y-107283474D01*
X200645534Y-106253479D01*
X200645539Y-106253473D01*
X200783470Y-106115542D01*
X200795593Y-106105593D01*
X200835269Y-106057247D01*
X200864751Y-106002090D01*
X200882906Y-105942241D01*
X200887500Y-105895596D01*
X200887500Y-105895594D01*
X200889036Y-105880001D01*
X200887500Y-105864408D01*
X200887500Y-104691118D01*
X200915266Y-104663352D01*
X200963911Y-104590550D01*
X200997418Y-104509656D01*
X201014500Y-104423779D01*
X201014500Y-104374513D01*
X201133475Y-104255537D01*
X201145593Y-104245593D01*
X201185269Y-104197247D01*
X201214751Y-104142090D01*
X201232906Y-104082241D01*
X201237500Y-104035596D01*
X201239036Y-104020000D01*
X201237500Y-104004404D01*
X201237500Y-97455603D01*
X201239037Y-97440000D01*
X201232906Y-97377759D01*
X201214751Y-97317910D01*
X201185269Y-97262753D01*
X201145593Y-97214407D01*
X201133477Y-97204464D01*
X200514500Y-96585488D01*
X200514500Y-96546221D01*
X200497418Y-96460344D01*
X200463911Y-96379450D01*
X200415266Y-96306648D01*
X200353352Y-96244734D01*
X200280550Y-96196089D01*
X200199656Y-96162582D01*
X200113779Y-96145500D01*
X200026221Y-96145500D01*
X199940344Y-96162582D01*
X199859450Y-96196089D01*
X199786648Y-96244734D01*
X199724734Y-96306648D01*
X199676089Y-96379450D01*
X199642582Y-96460344D01*
X199625500Y-96546221D01*
X199625500Y-96557079D01*
X199206855Y-96138435D01*
X199190948Y-96119052D01*
X199113595Y-96055571D01*
X199025343Y-96008399D01*
X198929585Y-95979351D01*
X198854947Y-95972000D01*
X198854944Y-95972000D01*
X198830000Y-95969543D01*
X198805056Y-95972000D01*
X198366982Y-95972000D01*
X198266700Y-95930463D01*
X198156288Y-95908500D01*
X198043712Y-95908500D01*
X197933300Y-95930463D01*
X197829293Y-95973543D01*
X197735690Y-96036087D01*
X197656087Y-96115690D01*
X197593543Y-96209293D01*
X197550463Y-96313300D01*
X197528500Y-96423712D01*
X197528500Y-96536288D01*
X197550463Y-96646700D01*
X197593543Y-96750707D01*
X197656087Y-96844310D01*
X197735690Y-96923913D01*
X197829293Y-96986457D01*
X197933300Y-97029537D01*
X198043712Y-97051500D01*
X198156288Y-97051500D01*
X198266700Y-97029537D01*
X198366982Y-96988000D01*
X198619580Y-96988000D01*
X199062000Y-97430421D01*
X199062001Y-104419578D01*
X198119573Y-105362007D01*
X198019293Y-105403543D01*
X197925690Y-105466087D01*
X197846087Y-105545690D01*
X197814809Y-105592500D01*
X193051118Y-105592500D01*
X193023352Y-105564734D01*
X192950550Y-105516089D01*
X192869656Y-105482582D01*
X192783779Y-105465500D01*
X192696221Y-105465500D01*
X192610344Y-105482582D01*
X192529450Y-105516089D01*
X192456648Y-105564734D01*
X192394734Y-105626648D01*
X192346089Y-105699450D01*
X192312582Y-105780344D01*
X192295500Y-105866221D01*
X192295500Y-105953779D01*
X192312582Y-106039656D01*
X192346089Y-106120550D01*
X192394734Y-106193352D01*
X192456648Y-106255266D01*
X192529450Y-106303911D01*
X192610344Y-106337418D01*
X192696221Y-106354500D01*
X192783779Y-106354500D01*
X192869656Y-106337418D01*
X192950550Y-106303911D01*
X193023352Y-106255266D01*
X193051118Y-106227500D01*
X197814809Y-106227500D01*
X197846087Y-106274310D01*
X197925690Y-106353913D01*
X198019293Y-106416457D01*
X198123300Y-106459537D01*
X198233712Y-106481500D01*
X198346288Y-106481500D01*
X198456700Y-106459537D01*
X198560707Y-106416457D01*
X198654310Y-106353913D01*
X198733913Y-106274310D01*
X198796457Y-106180707D01*
X198837993Y-106080427D01*
X199911571Y-105006850D01*
X199930948Y-104990948D01*
X199949624Y-104968190D01*
X199994429Y-104913596D01*
X200041600Y-104825345D01*
X200041601Y-104825343D01*
X200070649Y-104729585D01*
X200078000Y-104654947D01*
X200078000Y-104654945D01*
X200080457Y-104630001D01*
X200078000Y-104605057D01*
X200078000Y-97244943D01*
X200080457Y-97219999D01*
X200078000Y-97195053D01*
X200070649Y-97120415D01*
X200044587Y-97034500D01*
X200065488Y-97034500D01*
X200602500Y-97571513D01*
X200602501Y-103888486D01*
X200555487Y-103935500D01*
X200526221Y-103935500D01*
X200440344Y-103952582D01*
X200359450Y-103986089D01*
X200286648Y-104034734D01*
X200224734Y-104096648D01*
X200176089Y-104169450D01*
X200142582Y-104250344D01*
X200125500Y-104336221D01*
X200125500Y-104423779D01*
X200142582Y-104509656D01*
X200176089Y-104590550D01*
X200224734Y-104663352D01*
X200252500Y-104691118D01*
X200252501Y-105748487D01*
X200196527Y-105804461D01*
X200196521Y-105804466D01*
X199166526Y-106834462D01*
X199166521Y-106834466D01*
X197938488Y-108062500D01*
X188631118Y-108062500D01*
X188603352Y-108034734D01*
X188530550Y-107986089D01*
X188449656Y-107952582D01*
X188363779Y-107935500D01*
X188276221Y-107935500D01*
X188190344Y-107952582D01*
X188109450Y-107986089D01*
X188090127Y-107999000D01*
X185378702Y-107999000D01*
X185359999Y-107997158D01*
X185341296Y-107999000D01*
X185341287Y-107999000D01*
X185285311Y-108004513D01*
X185213492Y-108026299D01*
X185170359Y-108049355D01*
X185147303Y-108061678D01*
X185140704Y-108067094D01*
X185089289Y-108109289D01*
X185077354Y-108123832D01*
X184863830Y-108337356D01*
X184863824Y-108337361D01*
X183453832Y-109747354D01*
X183439289Y-109759289D01*
X183407666Y-109797823D01*
X183391678Y-109817304D01*
X183380444Y-109838322D01*
X183356299Y-109883493D01*
X183334513Y-109955312D01*
X183331262Y-109988322D01*
X183327157Y-110030000D01*
X180428814Y-110030000D01*
X180532639Y-109926176D01*
X180532644Y-109926170D01*
X180656168Y-109802646D01*
X180670711Y-109790711D01*
X180718322Y-109732696D01*
X180753701Y-109666508D01*
X180775487Y-109594689D01*
X180781000Y-109538713D01*
X180781000Y-109538711D01*
X180782843Y-109520001D01*
X180781000Y-109501291D01*
X180781000Y-109106221D01*
X182895500Y-109106221D01*
X182895500Y-109193779D01*
X182912582Y-109279656D01*
X182946089Y-109360550D01*
X182994734Y-109433352D01*
X183056648Y-109495266D01*
X183129450Y-109543911D01*
X183210344Y-109577418D01*
X183296221Y-109594500D01*
X183383779Y-109594500D01*
X183469656Y-109577418D01*
X183550550Y-109543911D01*
X183623352Y-109495266D01*
X183685266Y-109433352D01*
X183733911Y-109360550D01*
X183767418Y-109279656D01*
X183784500Y-109193779D01*
X183784500Y-109106221D01*
X183767418Y-109020344D01*
X183733911Y-108939450D01*
X183685266Y-108866648D01*
X183623352Y-108804734D01*
X183550550Y-108756089D01*
X183469656Y-108722582D01*
X183383779Y-108705500D01*
X183296221Y-108705500D01*
X183210344Y-108722582D01*
X183129450Y-108756089D01*
X183056648Y-108804734D01*
X182994734Y-108866648D01*
X182946089Y-108939450D01*
X182912582Y-109020344D01*
X182895500Y-109106221D01*
X180781000Y-109106221D01*
X180781000Y-106299873D01*
X180793911Y-106280550D01*
X180827418Y-106199656D01*
X180844500Y-106113779D01*
X180844500Y-106026221D01*
X180828588Y-105946221D01*
X183275500Y-105946221D01*
X183275500Y-106033779D01*
X183292582Y-106119656D01*
X183326089Y-106200550D01*
X183374734Y-106273352D01*
X183436648Y-106335266D01*
X183509450Y-106383911D01*
X183590344Y-106417418D01*
X183676221Y-106434500D01*
X183763779Y-106434500D01*
X183849656Y-106417418D01*
X183930550Y-106383911D01*
X184003352Y-106335266D01*
X184065266Y-106273352D01*
X184113911Y-106200550D01*
X184147418Y-106119656D01*
X184154068Y-106086221D01*
X185345500Y-106086221D01*
X185345500Y-106173779D01*
X185362582Y-106259656D01*
X185396089Y-106340550D01*
X185444734Y-106413352D01*
X185506648Y-106475266D01*
X185579450Y-106523911D01*
X185660344Y-106557418D01*
X185746221Y-106574500D01*
X185833779Y-106574500D01*
X185919656Y-106557418D01*
X186000550Y-106523911D01*
X186073352Y-106475266D01*
X186135266Y-106413352D01*
X186183911Y-106340550D01*
X186217418Y-106259656D01*
X186234500Y-106173779D01*
X186234500Y-106116221D01*
X187655500Y-106116221D01*
X187655500Y-106203779D01*
X187672582Y-106289656D01*
X187706089Y-106370550D01*
X187754734Y-106443352D01*
X187816648Y-106505266D01*
X187889450Y-106553911D01*
X187970344Y-106587418D01*
X188056221Y-106604500D01*
X188143779Y-106604500D01*
X188229656Y-106587418D01*
X188310550Y-106553911D01*
X188383352Y-106505266D01*
X188445266Y-106443352D01*
X188489491Y-106377165D01*
X188559450Y-106423911D01*
X188640344Y-106457418D01*
X188726221Y-106474500D01*
X188813779Y-106474500D01*
X188899656Y-106457418D01*
X188980550Y-106423911D01*
X189053352Y-106375266D01*
X189115266Y-106313352D01*
X189163911Y-106240550D01*
X189197418Y-106159656D01*
X189214500Y-106073779D01*
X189214500Y-105986221D01*
X189197418Y-105900344D01*
X189163911Y-105819450D01*
X189115266Y-105746648D01*
X189053352Y-105684734D01*
X188980550Y-105636089D01*
X188899656Y-105602582D01*
X188813779Y-105585500D01*
X188726221Y-105585500D01*
X188640344Y-105602582D01*
X188559450Y-105636089D01*
X188486648Y-105684734D01*
X188424734Y-105746648D01*
X188380509Y-105812835D01*
X188310550Y-105766089D01*
X188229656Y-105732582D01*
X188143779Y-105715500D01*
X188056221Y-105715500D01*
X187970344Y-105732582D01*
X187889450Y-105766089D01*
X187816648Y-105814734D01*
X187754734Y-105876648D01*
X187706089Y-105949450D01*
X187672582Y-106030344D01*
X187655500Y-106116221D01*
X186234500Y-106116221D01*
X186234500Y-106086221D01*
X186217418Y-106000344D01*
X186183911Y-105919450D01*
X186135266Y-105846648D01*
X186073352Y-105784734D01*
X186000550Y-105736089D01*
X185919656Y-105702582D01*
X185833779Y-105685500D01*
X185746221Y-105685500D01*
X185660344Y-105702582D01*
X185579450Y-105736089D01*
X185506648Y-105784734D01*
X185444734Y-105846648D01*
X185396089Y-105919450D01*
X185362582Y-106000344D01*
X185345500Y-106086221D01*
X184154068Y-106086221D01*
X184164500Y-106033779D01*
X184164500Y-105946221D01*
X184147418Y-105860344D01*
X184113911Y-105779450D01*
X184065266Y-105706648D01*
X184003352Y-105644734D01*
X183930550Y-105596089D01*
X183849656Y-105562582D01*
X183763779Y-105545500D01*
X183676221Y-105545500D01*
X183590344Y-105562582D01*
X183509450Y-105596089D01*
X183436648Y-105644734D01*
X183374734Y-105706648D01*
X183326089Y-105779450D01*
X183292582Y-105860344D01*
X183275500Y-105946221D01*
X180828588Y-105946221D01*
X180827418Y-105940344D01*
X180793911Y-105859450D01*
X180745266Y-105786648D01*
X180683352Y-105724734D01*
X180610550Y-105676089D01*
X180529656Y-105642582D01*
X180443779Y-105625500D01*
X180356221Y-105625500D01*
X180270344Y-105642582D01*
X180189450Y-105676089D01*
X180116648Y-105724734D01*
X180054734Y-105786648D01*
X180006089Y-105859450D01*
X179972582Y-105940344D01*
X179955500Y-106026221D01*
X179955500Y-106113779D01*
X179972582Y-106199656D01*
X180006089Y-106280550D01*
X180019000Y-106299873D01*
X180019001Y-109362185D01*
X179993830Y-109387356D01*
X179993824Y-109387361D01*
X179122428Y-110258758D01*
X179107891Y-110270688D01*
X179095962Y-110285224D01*
X179060279Y-110328703D01*
X179024900Y-110394892D01*
X179003115Y-110466711D01*
X178995758Y-110541399D01*
X176215500Y-110541399D01*
X176215500Y-107892595D01*
X177159500Y-107892595D01*
X177159500Y-108107405D01*
X177201408Y-108318087D01*
X177283612Y-108516545D01*
X177402954Y-108695153D01*
X177554847Y-108847046D01*
X177733455Y-108966388D01*
X177931913Y-109048592D01*
X178142595Y-109090500D01*
X178357405Y-109090500D01*
X178568087Y-109048592D01*
X178766545Y-108966388D01*
X178945153Y-108847046D01*
X179097046Y-108695153D01*
X179216388Y-108516545D01*
X179298592Y-108318087D01*
X179340500Y-108107405D01*
X179340500Y-107892595D01*
X179298592Y-107681913D01*
X179216388Y-107483455D01*
X179097046Y-107304847D01*
X178945153Y-107152954D01*
X178766545Y-107033612D01*
X178568087Y-106951408D01*
X178357405Y-106909500D01*
X178142595Y-106909500D01*
X177931913Y-106951408D01*
X177733455Y-107033612D01*
X177554847Y-107152954D01*
X177402954Y-107304847D01*
X177283612Y-107483455D01*
X177201408Y-107681913D01*
X177159500Y-107892595D01*
X176215500Y-107892595D01*
X176215500Y-103496221D01*
X178235500Y-103496221D01*
X178235500Y-103583779D01*
X178252582Y-103669656D01*
X178286089Y-103750550D01*
X178334734Y-103823352D01*
X178396648Y-103885266D01*
X178469450Y-103933911D01*
X178550344Y-103967418D01*
X178636221Y-103984500D01*
X178723779Y-103984500D01*
X178809656Y-103967418D01*
X178890550Y-103933911D01*
X178902058Y-103926221D01*
X191025500Y-103926221D01*
X191025500Y-104013779D01*
X191042582Y-104099656D01*
X191076089Y-104180550D01*
X191124734Y-104253352D01*
X191186648Y-104315266D01*
X191259450Y-104363911D01*
X191340344Y-104397418D01*
X191426221Y-104414500D01*
X191513779Y-104414500D01*
X191599656Y-104397418D01*
X191680550Y-104363911D01*
X191753352Y-104315266D01*
X191815266Y-104253352D01*
X191863911Y-104180550D01*
X191897418Y-104099656D01*
X191914500Y-104013779D01*
X191914500Y-103926221D01*
X191897418Y-103840344D01*
X191863911Y-103759450D01*
X191815266Y-103686648D01*
X191753352Y-103624734D01*
X191725646Y-103606221D01*
X195065500Y-103606221D01*
X195065500Y-103693779D01*
X195082582Y-103779656D01*
X195116089Y-103860550D01*
X195164734Y-103933352D01*
X195226648Y-103995266D01*
X195299450Y-104043911D01*
X195380344Y-104077418D01*
X195466221Y-104094500D01*
X195553779Y-104094500D01*
X195639656Y-104077418D01*
X195720550Y-104043911D01*
X195793352Y-103995266D01*
X195855266Y-103933352D01*
X195903911Y-103860550D01*
X195937418Y-103779656D01*
X195954500Y-103693779D01*
X195954500Y-103606221D01*
X195937418Y-103520344D01*
X195903911Y-103439450D01*
X195855266Y-103366648D01*
X195793352Y-103304734D01*
X195720550Y-103256089D01*
X195639656Y-103222582D01*
X195553779Y-103205500D01*
X195466221Y-103205500D01*
X195380344Y-103222582D01*
X195299450Y-103256089D01*
X195226648Y-103304734D01*
X195164734Y-103366648D01*
X195116089Y-103439450D01*
X195082582Y-103520344D01*
X195065500Y-103606221D01*
X191725646Y-103606221D01*
X191680550Y-103576089D01*
X191599656Y-103542582D01*
X191513779Y-103525500D01*
X191426221Y-103525500D01*
X191340344Y-103542582D01*
X191259450Y-103576089D01*
X191186648Y-103624734D01*
X191124734Y-103686648D01*
X191076089Y-103759450D01*
X191042582Y-103840344D01*
X191025500Y-103926221D01*
X178902058Y-103926221D01*
X178963352Y-103885266D01*
X179025266Y-103823352D01*
X179073911Y-103750550D01*
X179107418Y-103669656D01*
X179124500Y-103583779D01*
X179124500Y-103496221D01*
X179107418Y-103410344D01*
X179073911Y-103329450D01*
X179025266Y-103256648D01*
X178963352Y-103194734D01*
X178950612Y-103186221D01*
X185595500Y-103186221D01*
X185595500Y-103273779D01*
X185612582Y-103359656D01*
X185646089Y-103440550D01*
X185694734Y-103513352D01*
X185756648Y-103575266D01*
X185829450Y-103623911D01*
X185910344Y-103657418D01*
X185996221Y-103674500D01*
X186083779Y-103674500D01*
X186169656Y-103657418D01*
X186250550Y-103623911D01*
X186323352Y-103575266D01*
X186385266Y-103513352D01*
X186433911Y-103440550D01*
X186467418Y-103359656D01*
X186484500Y-103273779D01*
X186484500Y-103186221D01*
X186482511Y-103176221D01*
X187295500Y-103176221D01*
X187295500Y-103263779D01*
X187312582Y-103349656D01*
X187346089Y-103430550D01*
X187394734Y-103503352D01*
X187456648Y-103565266D01*
X187529450Y-103613911D01*
X187610344Y-103647418D01*
X187696221Y-103664500D01*
X187783779Y-103664500D01*
X187869656Y-103647418D01*
X187950550Y-103613911D01*
X188023352Y-103565266D01*
X188085266Y-103503352D01*
X188133911Y-103430550D01*
X188167418Y-103349656D01*
X188184500Y-103263779D01*
X188184500Y-103176221D01*
X188167418Y-103090344D01*
X188133911Y-103009450D01*
X188085266Y-102936648D01*
X188023352Y-102874734D01*
X187950550Y-102826089D01*
X187869656Y-102792582D01*
X187783779Y-102775500D01*
X187696221Y-102775500D01*
X187610344Y-102792582D01*
X187529450Y-102826089D01*
X187456648Y-102874734D01*
X187394734Y-102936648D01*
X187346089Y-103009450D01*
X187312582Y-103090344D01*
X187295500Y-103176221D01*
X186482511Y-103176221D01*
X186467418Y-103100344D01*
X186433911Y-103019450D01*
X186385266Y-102946648D01*
X186376637Y-102938019D01*
X186379656Y-102937418D01*
X186460550Y-102903911D01*
X186533352Y-102855266D01*
X186595266Y-102793352D01*
X186643911Y-102720550D01*
X186677418Y-102639656D01*
X186694500Y-102553779D01*
X186694500Y-102496221D01*
X187985500Y-102496221D01*
X187985500Y-102583779D01*
X188002582Y-102669656D01*
X188036089Y-102750550D01*
X188084734Y-102823352D01*
X188146648Y-102885266D01*
X188219450Y-102933911D01*
X188300344Y-102967418D01*
X188386221Y-102984500D01*
X188473779Y-102984500D01*
X188559656Y-102967418D01*
X188640550Y-102933911D01*
X188713352Y-102885266D01*
X188775266Y-102823352D01*
X188823911Y-102750550D01*
X188857418Y-102669656D01*
X188868046Y-102616221D01*
X189145500Y-102616221D01*
X189145500Y-102703779D01*
X189162582Y-102789656D01*
X189196089Y-102870550D01*
X189244734Y-102943352D01*
X189306648Y-103005266D01*
X189379450Y-103053911D01*
X189460344Y-103087418D01*
X189546221Y-103104500D01*
X189633779Y-103104500D01*
X189671082Y-103097080D01*
X189636089Y-103149450D01*
X189602582Y-103230344D01*
X189585500Y-103316221D01*
X189585500Y-103403779D01*
X189602582Y-103489656D01*
X189636089Y-103570550D01*
X189684734Y-103643352D01*
X189746648Y-103705266D01*
X189819450Y-103753911D01*
X189900344Y-103787418D01*
X189986221Y-103804500D01*
X190073779Y-103804500D01*
X190159656Y-103787418D01*
X190240550Y-103753911D01*
X190313352Y-103705266D01*
X190375266Y-103643352D01*
X190423911Y-103570550D01*
X190457418Y-103489656D01*
X190474500Y-103403779D01*
X190474500Y-103316221D01*
X190457418Y-103230344D01*
X190423911Y-103149450D01*
X190375266Y-103076648D01*
X190313352Y-103014734D01*
X190240550Y-102966089D01*
X190159656Y-102932582D01*
X190073779Y-102915500D01*
X189986221Y-102915500D01*
X189948918Y-102922920D01*
X189983911Y-102870550D01*
X190017418Y-102789656D01*
X190034500Y-102703779D01*
X190034500Y-102616221D01*
X190026544Y-102576221D01*
X190215500Y-102576221D01*
X190215500Y-102663779D01*
X190232582Y-102749656D01*
X190266089Y-102830550D01*
X190314734Y-102903352D01*
X190376648Y-102965266D01*
X190449450Y-103013911D01*
X190530344Y-103047418D01*
X190616221Y-103064500D01*
X190703779Y-103064500D01*
X190789656Y-103047418D01*
X190870550Y-103013911D01*
X190897024Y-102996221D01*
X192855500Y-102996221D01*
X192855500Y-103083779D01*
X192872582Y-103169656D01*
X192906089Y-103250550D01*
X192954734Y-103323352D01*
X193016648Y-103385266D01*
X193089450Y-103433911D01*
X193170344Y-103467418D01*
X193256221Y-103484500D01*
X193343779Y-103484500D01*
X193429656Y-103467418D01*
X193510550Y-103433911D01*
X193583352Y-103385266D01*
X193645266Y-103323352D01*
X193693911Y-103250550D01*
X193727418Y-103169656D01*
X193744500Y-103083779D01*
X193744500Y-102996221D01*
X193727418Y-102910344D01*
X193693911Y-102829450D01*
X193645266Y-102756648D01*
X193639909Y-102751291D01*
X193709656Y-102737418D01*
X193790550Y-102703911D01*
X193863352Y-102655266D01*
X193925266Y-102593352D01*
X193973911Y-102520550D01*
X194007418Y-102439656D01*
X194024500Y-102353779D01*
X194024500Y-102316221D01*
X194095500Y-102316221D01*
X194095500Y-102403779D01*
X194112582Y-102489656D01*
X194146089Y-102570550D01*
X194194734Y-102643352D01*
X194256648Y-102705266D01*
X194329450Y-102753911D01*
X194410344Y-102787418D01*
X194496221Y-102804500D01*
X194583779Y-102804500D01*
X194669656Y-102787418D01*
X194750550Y-102753911D01*
X194823352Y-102705266D01*
X194885266Y-102643352D01*
X194933911Y-102570550D01*
X194967418Y-102489656D01*
X194984500Y-102403779D01*
X194984500Y-102316221D01*
X194967418Y-102230344D01*
X194933911Y-102149450D01*
X194885266Y-102076648D01*
X194823352Y-102014734D01*
X194750550Y-101966089D01*
X194669656Y-101932582D01*
X194583779Y-101915500D01*
X194496221Y-101915500D01*
X194410344Y-101932582D01*
X194329450Y-101966089D01*
X194256648Y-102014734D01*
X194194734Y-102076648D01*
X194146089Y-102149450D01*
X194112582Y-102230344D01*
X194095500Y-102316221D01*
X194024500Y-102316221D01*
X194024500Y-102266221D01*
X194007418Y-102180344D01*
X193973911Y-102099450D01*
X193925266Y-102026648D01*
X193863352Y-101964734D01*
X193790550Y-101916089D01*
X193709656Y-101882582D01*
X193623779Y-101865500D01*
X193536221Y-101865500D01*
X193450344Y-101882582D01*
X193369450Y-101916089D01*
X193296648Y-101964734D01*
X193234734Y-102026648D01*
X193186089Y-102099450D01*
X193152582Y-102180344D01*
X193135500Y-102266221D01*
X193135500Y-102353779D01*
X193152582Y-102439656D01*
X193186089Y-102520550D01*
X193234734Y-102593352D01*
X193240091Y-102598709D01*
X193170344Y-102612582D01*
X193089450Y-102646089D01*
X193016648Y-102694734D01*
X192954734Y-102756648D01*
X192906089Y-102829450D01*
X192872582Y-102910344D01*
X192855500Y-102996221D01*
X190897024Y-102996221D01*
X190943352Y-102965266D01*
X191005266Y-102903352D01*
X191053911Y-102830550D01*
X191087418Y-102749656D01*
X191104500Y-102663779D01*
X191104500Y-102576221D01*
X191087418Y-102490344D01*
X191053911Y-102409450D01*
X191005266Y-102336648D01*
X190943352Y-102274734D01*
X190870550Y-102226089D01*
X190789656Y-102192582D01*
X190703779Y-102175500D01*
X190616221Y-102175500D01*
X190530344Y-102192582D01*
X190449450Y-102226089D01*
X190376648Y-102274734D01*
X190314734Y-102336648D01*
X190266089Y-102409450D01*
X190232582Y-102490344D01*
X190215500Y-102576221D01*
X190026544Y-102576221D01*
X190017418Y-102530344D01*
X189983911Y-102449450D01*
X189935266Y-102376648D01*
X189873352Y-102314734D01*
X189800550Y-102266089D01*
X189719656Y-102232582D01*
X189633779Y-102215500D01*
X189546221Y-102215500D01*
X189460344Y-102232582D01*
X189379450Y-102266089D01*
X189306648Y-102314734D01*
X189244734Y-102376648D01*
X189196089Y-102449450D01*
X189162582Y-102530344D01*
X189145500Y-102616221D01*
X188868046Y-102616221D01*
X188874500Y-102583779D01*
X188874500Y-102496221D01*
X188857418Y-102410344D01*
X188823911Y-102329450D01*
X188775266Y-102256648D01*
X188713352Y-102194734D01*
X188640550Y-102146089D01*
X188559656Y-102112582D01*
X188473779Y-102095500D01*
X188386221Y-102095500D01*
X188300344Y-102112582D01*
X188219450Y-102146089D01*
X188146648Y-102194734D01*
X188084734Y-102256648D01*
X188036089Y-102329450D01*
X188002582Y-102410344D01*
X187985500Y-102496221D01*
X186694500Y-102496221D01*
X186694500Y-102466221D01*
X186677418Y-102380344D01*
X186643911Y-102299450D01*
X186595266Y-102226648D01*
X186533352Y-102164734D01*
X186460550Y-102116089D01*
X186379656Y-102082582D01*
X186293779Y-102065500D01*
X186206221Y-102065500D01*
X186120344Y-102082582D01*
X186039450Y-102116089D01*
X185966648Y-102164734D01*
X185904734Y-102226648D01*
X185856089Y-102299450D01*
X185822582Y-102380344D01*
X185805500Y-102466221D01*
X185805500Y-102553779D01*
X185822582Y-102639656D01*
X185856089Y-102720550D01*
X185904734Y-102793352D01*
X185913363Y-102801981D01*
X185910344Y-102802582D01*
X185829450Y-102836089D01*
X185756648Y-102884734D01*
X185694734Y-102946648D01*
X185646089Y-103019450D01*
X185612582Y-103100344D01*
X185595500Y-103186221D01*
X178950612Y-103186221D01*
X178890550Y-103146089D01*
X178809656Y-103112582D01*
X178723779Y-103095500D01*
X178636221Y-103095500D01*
X178550344Y-103112582D01*
X178469450Y-103146089D01*
X178396648Y-103194734D01*
X178334734Y-103256648D01*
X178286089Y-103329450D01*
X178252582Y-103410344D01*
X178235500Y-103496221D01*
X176215500Y-103496221D01*
X176215500Y-102466221D01*
X178215500Y-102466221D01*
X178215500Y-102553779D01*
X178232582Y-102639656D01*
X178266089Y-102720550D01*
X178314734Y-102793352D01*
X178376648Y-102855266D01*
X178449450Y-102903911D01*
X178530344Y-102937418D01*
X178616221Y-102954500D01*
X178703779Y-102954500D01*
X178789656Y-102937418D01*
X178870550Y-102903911D01*
X178943352Y-102855266D01*
X179005266Y-102793352D01*
X179053911Y-102720550D01*
X179087418Y-102639656D01*
X179104500Y-102553779D01*
X179104500Y-102526221D01*
X181915500Y-102526221D01*
X181915500Y-102613779D01*
X181932582Y-102699656D01*
X181966089Y-102780550D01*
X182014734Y-102853352D01*
X182076648Y-102915266D01*
X182149450Y-102963911D01*
X182230344Y-102997418D01*
X182316221Y-103014500D01*
X182403779Y-103014500D01*
X182489656Y-102997418D01*
X182570550Y-102963911D01*
X182643352Y-102915266D01*
X182705266Y-102853352D01*
X182753911Y-102780550D01*
X182787418Y-102699656D01*
X182804500Y-102613779D01*
X182804500Y-102526221D01*
X182787418Y-102440344D01*
X182753911Y-102359450D01*
X182705266Y-102286648D01*
X182643352Y-102224734D01*
X182570550Y-102176089D01*
X182489656Y-102142582D01*
X182403779Y-102125500D01*
X182316221Y-102125500D01*
X182230344Y-102142582D01*
X182149450Y-102176089D01*
X182076648Y-102224734D01*
X182014734Y-102286648D01*
X181966089Y-102359450D01*
X181932582Y-102440344D01*
X181915500Y-102526221D01*
X179104500Y-102526221D01*
X179104500Y-102466221D01*
X179087418Y-102380344D01*
X179053911Y-102299450D01*
X179005266Y-102226648D01*
X178943352Y-102164734D01*
X178870550Y-102116089D01*
X178789656Y-102082582D01*
X178703779Y-102065500D01*
X178616221Y-102065500D01*
X178530344Y-102082582D01*
X178449450Y-102116089D01*
X178376648Y-102164734D01*
X178314734Y-102226648D01*
X178266089Y-102299450D01*
X178232582Y-102380344D01*
X178215500Y-102466221D01*
X176215500Y-102466221D01*
X176215500Y-101896221D01*
X183525500Y-101896221D01*
X183525500Y-101983779D01*
X183542582Y-102069656D01*
X183576089Y-102150550D01*
X183624734Y-102223352D01*
X183686648Y-102285266D01*
X183759450Y-102333911D01*
X183840344Y-102367418D01*
X183926221Y-102384500D01*
X184013779Y-102384500D01*
X184099656Y-102367418D01*
X184180550Y-102333911D01*
X184253352Y-102285266D01*
X184315266Y-102223352D01*
X184363911Y-102150550D01*
X184397418Y-102069656D01*
X184414500Y-101983779D01*
X184414500Y-101896221D01*
X184397418Y-101810344D01*
X184363911Y-101729450D01*
X184315266Y-101656648D01*
X184253352Y-101594734D01*
X184180550Y-101546089D01*
X184099656Y-101512582D01*
X184013779Y-101495500D01*
X183926221Y-101495500D01*
X183840344Y-101512582D01*
X183759450Y-101546089D01*
X183686648Y-101594734D01*
X183624734Y-101656648D01*
X183576089Y-101729450D01*
X183542582Y-101810344D01*
X183525500Y-101896221D01*
X176215500Y-101896221D01*
X176215500Y-100476221D01*
X181715500Y-100476221D01*
X181715500Y-100563779D01*
X181732582Y-100649656D01*
X181766089Y-100730550D01*
X181814734Y-100803352D01*
X181876648Y-100865266D01*
X181949450Y-100913911D01*
X182030344Y-100947418D01*
X182116221Y-100964500D01*
X182203779Y-100964500D01*
X182289656Y-100947418D01*
X182370550Y-100913911D01*
X182443352Y-100865266D01*
X182505266Y-100803352D01*
X182553911Y-100730550D01*
X182576414Y-100676221D01*
X184385500Y-100676221D01*
X184385500Y-100763779D01*
X184402582Y-100849656D01*
X184436089Y-100930550D01*
X184484734Y-101003352D01*
X184546648Y-101065266D01*
X184619450Y-101113911D01*
X184700344Y-101147418D01*
X184786221Y-101164500D01*
X184873779Y-101164500D01*
X184959656Y-101147418D01*
X185040550Y-101113911D01*
X185113352Y-101065266D01*
X185155500Y-101023118D01*
X185155500Y-101103779D01*
X185172582Y-101189656D01*
X185206089Y-101270550D01*
X185254734Y-101343352D01*
X185316648Y-101405266D01*
X185389450Y-101453911D01*
X185470344Y-101487418D01*
X185556221Y-101504500D01*
X185643779Y-101504500D01*
X185729656Y-101487418D01*
X185804973Y-101456221D01*
X193555500Y-101456221D01*
X193555500Y-101543779D01*
X193572582Y-101629656D01*
X193606089Y-101710550D01*
X193654734Y-101783352D01*
X193716648Y-101845266D01*
X193789450Y-101893911D01*
X193870344Y-101927418D01*
X193956221Y-101944500D01*
X194043779Y-101944500D01*
X194129656Y-101927418D01*
X194210550Y-101893911D01*
X194283352Y-101845266D01*
X194345266Y-101783352D01*
X194393911Y-101710550D01*
X194427418Y-101629656D01*
X194444500Y-101543779D01*
X194444500Y-101456221D01*
X194427418Y-101370344D01*
X194393911Y-101289450D01*
X194345266Y-101216648D01*
X194283352Y-101154734D01*
X194210550Y-101106089D01*
X194129656Y-101072582D01*
X194043779Y-101055500D01*
X193956221Y-101055500D01*
X193870344Y-101072582D01*
X193789450Y-101106089D01*
X193716648Y-101154734D01*
X193654734Y-101216648D01*
X193606089Y-101289450D01*
X193572582Y-101370344D01*
X193555500Y-101456221D01*
X185804973Y-101456221D01*
X185810550Y-101453911D01*
X185883352Y-101405266D01*
X185945266Y-101343352D01*
X185993911Y-101270550D01*
X186027418Y-101189656D01*
X186044500Y-101103779D01*
X186044500Y-101016221D01*
X186027418Y-100930344D01*
X185993911Y-100849450D01*
X185945266Y-100776648D01*
X185883352Y-100714734D01*
X185810550Y-100666089D01*
X185729656Y-100632582D01*
X185643779Y-100615500D01*
X185556221Y-100615500D01*
X185470344Y-100632582D01*
X185389450Y-100666089D01*
X185316648Y-100714734D01*
X185274500Y-100756882D01*
X185274500Y-100676221D01*
X185257418Y-100590344D01*
X185223911Y-100509450D01*
X185175266Y-100436648D01*
X185113352Y-100374734D01*
X185040550Y-100326089D01*
X184959656Y-100292582D01*
X184873779Y-100275500D01*
X184786221Y-100275500D01*
X184700344Y-100292582D01*
X184619450Y-100326089D01*
X184546648Y-100374734D01*
X184484734Y-100436648D01*
X184436089Y-100509450D01*
X184402582Y-100590344D01*
X184385500Y-100676221D01*
X182576414Y-100676221D01*
X182587418Y-100649656D01*
X182604500Y-100563779D01*
X182604500Y-100476221D01*
X182587418Y-100390344D01*
X182553911Y-100309450D01*
X182505266Y-100236648D01*
X182459693Y-100191075D01*
X182483352Y-100175266D01*
X182545266Y-100113352D01*
X182593911Y-100040550D01*
X182627418Y-99959656D01*
X182644500Y-99873779D01*
X182644500Y-99786221D01*
X182627418Y-99700344D01*
X182593911Y-99619450D01*
X182545266Y-99546648D01*
X182483352Y-99484734D01*
X182410550Y-99436089D01*
X182329656Y-99402582D01*
X182243779Y-99385500D01*
X182156221Y-99385500D01*
X182070344Y-99402582D01*
X181989450Y-99436089D01*
X181916648Y-99484734D01*
X181854734Y-99546648D01*
X181806089Y-99619450D01*
X181772582Y-99700344D01*
X181755500Y-99786221D01*
X181755500Y-99873779D01*
X181772582Y-99959656D01*
X181806089Y-100040550D01*
X181854734Y-100113352D01*
X181900307Y-100158925D01*
X181876648Y-100174734D01*
X181814734Y-100236648D01*
X181766089Y-100309450D01*
X181732582Y-100390344D01*
X181715500Y-100476221D01*
X176215500Y-100476221D01*
X176215500Y-99276221D01*
X193125500Y-99276221D01*
X193125500Y-99363779D01*
X193142582Y-99449656D01*
X193176089Y-99530550D01*
X193224734Y-99603352D01*
X193286648Y-99665266D01*
X193359450Y-99713911D01*
X193440344Y-99747418D01*
X193526221Y-99764500D01*
X193613779Y-99764500D01*
X193699656Y-99747418D01*
X193780550Y-99713911D01*
X193853352Y-99665266D01*
X193915266Y-99603352D01*
X193963911Y-99530550D01*
X193997418Y-99449656D01*
X194014500Y-99363779D01*
X194014500Y-99276221D01*
X193997418Y-99190344D01*
X193963911Y-99109450D01*
X193915266Y-99036648D01*
X193853352Y-98974734D01*
X193799913Y-98939027D01*
X193860550Y-98913911D01*
X193933352Y-98865266D01*
X193995266Y-98803352D01*
X194043911Y-98730550D01*
X194077418Y-98649656D01*
X194094500Y-98563779D01*
X194094500Y-98476221D01*
X194077418Y-98390344D01*
X194043911Y-98309450D01*
X193995266Y-98236648D01*
X193933352Y-98174734D01*
X193860550Y-98126089D01*
X193779656Y-98092582D01*
X193693779Y-98075500D01*
X193606221Y-98075500D01*
X193520344Y-98092582D01*
X193439450Y-98126089D01*
X193366648Y-98174734D01*
X193304734Y-98236648D01*
X193256089Y-98309450D01*
X193222582Y-98390344D01*
X193205500Y-98476221D01*
X193205500Y-98563779D01*
X193222582Y-98649656D01*
X193256089Y-98730550D01*
X193304734Y-98803352D01*
X193366648Y-98865266D01*
X193420087Y-98900973D01*
X193359450Y-98926089D01*
X193286648Y-98974734D01*
X193224734Y-99036648D01*
X193176089Y-99109450D01*
X193142582Y-99190344D01*
X193125500Y-99276221D01*
X176215500Y-99276221D01*
X176215500Y-98076221D01*
X190145500Y-98076221D01*
X190145500Y-98163779D01*
X190162582Y-98249656D01*
X190196089Y-98330550D01*
X190244734Y-98403352D01*
X190306648Y-98465266D01*
X190379450Y-98513911D01*
X190460344Y-98547418D01*
X190546221Y-98564500D01*
X190633779Y-98564500D01*
X190719656Y-98547418D01*
X190800550Y-98513911D01*
X190873352Y-98465266D01*
X190935266Y-98403352D01*
X190983911Y-98330550D01*
X191017418Y-98249656D01*
X191034500Y-98163779D01*
X191034500Y-98076221D01*
X191017418Y-97990344D01*
X190983911Y-97909450D01*
X190935266Y-97836648D01*
X190873352Y-97774734D01*
X190800550Y-97726089D01*
X190719656Y-97692582D01*
X190633779Y-97675500D01*
X190546221Y-97675500D01*
X190460344Y-97692582D01*
X190379450Y-97726089D01*
X190306648Y-97774734D01*
X190244734Y-97836648D01*
X190196089Y-97909450D01*
X190162582Y-97990344D01*
X190145500Y-98076221D01*
X176215500Y-98076221D01*
X176215500Y-97286221D01*
X178315500Y-97286221D01*
X178315500Y-97373779D01*
X178332582Y-97459656D01*
X178366089Y-97540550D01*
X178414734Y-97613352D01*
X178476648Y-97675266D01*
X178549450Y-97723911D01*
X178630344Y-97757418D01*
X178716221Y-97774500D01*
X178803779Y-97774500D01*
X178889656Y-97757418D01*
X178970550Y-97723911D01*
X179043352Y-97675266D01*
X179105266Y-97613352D01*
X179153911Y-97540550D01*
X179187418Y-97459656D01*
X179204500Y-97373779D01*
X179204500Y-97326221D01*
X179315500Y-97326221D01*
X179315500Y-97413779D01*
X179332582Y-97499656D01*
X179366089Y-97580550D01*
X179414734Y-97653352D01*
X179476648Y-97715266D01*
X179549450Y-97763911D01*
X179630344Y-97797418D01*
X179716221Y-97814500D01*
X179803779Y-97814500D01*
X179889656Y-97797418D01*
X179970550Y-97763911D01*
X180043352Y-97715266D01*
X180105266Y-97653352D01*
X180153911Y-97580550D01*
X180187418Y-97499656D01*
X180204500Y-97413779D01*
X180204500Y-97326221D01*
X180187418Y-97240344D01*
X180153911Y-97159450D01*
X180105266Y-97086648D01*
X180084839Y-97066221D01*
X182625500Y-97066221D01*
X182625500Y-97153779D01*
X182642582Y-97239656D01*
X182676089Y-97320550D01*
X182724734Y-97393352D01*
X182786648Y-97455266D01*
X182859450Y-97503911D01*
X182940344Y-97537418D01*
X183026221Y-97554500D01*
X183113779Y-97554500D01*
X183199656Y-97537418D01*
X183280550Y-97503911D01*
X183353352Y-97455266D01*
X183415266Y-97393352D01*
X183463911Y-97320550D01*
X183497418Y-97239656D01*
X183514500Y-97153779D01*
X183514500Y-97066221D01*
X183497418Y-96980344D01*
X183463911Y-96899450D01*
X183415266Y-96826648D01*
X183353352Y-96764734D01*
X183280550Y-96716089D01*
X183199656Y-96682582D01*
X183113779Y-96665500D01*
X183026221Y-96665500D01*
X182940344Y-96682582D01*
X182859450Y-96716089D01*
X182786648Y-96764734D01*
X182724734Y-96826648D01*
X182676089Y-96899450D01*
X182642582Y-96980344D01*
X182625500Y-97066221D01*
X180084839Y-97066221D01*
X180043352Y-97024734D01*
X179970550Y-96976089D01*
X179889656Y-96942582D01*
X179803779Y-96925500D01*
X179716221Y-96925500D01*
X179630344Y-96942582D01*
X179549450Y-96976089D01*
X179476648Y-97024734D01*
X179414734Y-97086648D01*
X179366089Y-97159450D01*
X179332582Y-97240344D01*
X179315500Y-97326221D01*
X179204500Y-97326221D01*
X179204500Y-97286221D01*
X179187418Y-97200344D01*
X179153911Y-97119450D01*
X179105266Y-97046648D01*
X179043352Y-96984734D01*
X178970550Y-96936089D01*
X178889656Y-96902582D01*
X178803779Y-96885500D01*
X178716221Y-96885500D01*
X178630344Y-96902582D01*
X178549450Y-96936089D01*
X178476648Y-96984734D01*
X178414734Y-97046648D01*
X178366089Y-97119450D01*
X178332582Y-97200344D01*
X178315500Y-97286221D01*
X176215500Y-97286221D01*
X176215500Y-95538100D01*
X194271721Y-95538100D01*
X194268579Y-95570000D01*
G37*
%TD.AperFunction*%
%TD*%
M02*
