M48
; DRILL file {KiCad (5.1.8)-1} date 09/07/21 20:43:05
; FORMAT={-:-/ absolute / inch / decimal}
; #@! TF.CreationDate,2021-09-07T20:43:05-04:00
; #@! TF.GenerationSoftware,Kicad,Pcbnew,(5.1.8)-1
; #@! TF.FileFunction,Plated,1,4,PTH
FMAT,2
INCH
T1C0.0120
T2C0.0200
T3C0.0256
%
G90
G05
T1
X6.963Y-3.7748
X6.9697Y-4.3197
X6.9752Y-4.176
X6.9831Y-4.6965
X7.002Y-4.5504
X7.002Y-4.8618
X7.0067Y-3.7752
X7.0287Y-4.1157
X7.0339Y-4.0358
X7.0346Y-4.0764
X7.0378Y-3.8319
X7.0567Y-3.9748
X7.0772Y-3.8335
X7.0929Y-3.7744
X7.1024Y-4.176
X7.1217Y-4.3291
X7.1504Y-3.7803
X7.1681Y-4.2925
X7.1689Y-4.2594
X7.1689Y-4.3256
X7.1717Y-3.9575
X7.1732Y-3.9303
X7.1795Y-4.0382
X7.1898Y-4.7008
X7.2075Y-3.8232
X7.2181Y-4.2972
X7.2331Y-4.1728
X7.2406Y-4.1035
X7.2429Y-4.0134
X7.2476Y-3.8323
X7.2768Y-3.9654
X7.2783Y-4.8665
X7.2791Y-4.9063
X7.2815Y-4.5799
X7.3071Y-3.9787
X7.3146Y-4.1783
X7.322Y-3.8059
X7.3244Y-4.0642
X7.3251Y-4.3217
X7.3327Y-4.0358
X7.3374Y-5.0472
X7.3413Y-4.9409
X7.3531Y-3.9213
X7.3551Y-4.5602
X7.3803Y-4.4774
X7.3803Y-4.5496
X7.3803Y-4.9616
X7.3803Y-5.1053
X7.3909Y-4.0134
X7.3913Y-4.0638
X7.3933Y-4.7846
X7.4008Y-3.8051
X7.4055Y-4.1795
X7.4122Y-4.3079
X7.4142Y-4.2669
X7.4173Y-4.3528
X7.4185Y-4.037
X7.4303Y-4.5547
X7.4303Y-4.9616
X7.4303Y-5.1053
X7.4319Y-4.1744
X7.4433Y-3.9583
X7.4441Y-4.7748
X7.4555Y-4.5402
X7.4642Y-4.0417
X7.4646Y-4.3579
X7.4803Y-4.5583
X7.4803Y-4.9616
X7.4803Y-5.1053
X7.4811Y-3.8063
X7.4815Y-4.0693
X7.4949Y-4.787
X7.4972Y-3.9114
X7.5035Y-3.863
X7.5063Y-4.0402
X7.5102Y-4.3512
X7.5244Y-4.6866
X7.5303Y-4.3803
X7.5303Y-4.6171
X7.5303Y-4.9616
X7.5303Y-5.1053
X7.5382Y-4.0933
X7.5551Y-4.6748
X7.5803Y-4.3799
X7.5803Y-4.6171
X7.5803Y-4.9618
X7.5803Y-5.1053
X7.5882Y-4.1697
X7.5941Y-4.5469
X7.5965Y-4.8996
X7.6055Y-4.678
X7.6102Y-4.0567
X7.6209Y-3.9102
X7.6213Y-4.028
X7.624Y-3.8787
X7.6247Y-3.8475
X7.6378Y-3.9961
X7.6413Y-4.3736
X7.6528Y-5.0331
X7.6591Y-4.0299
X7.6646Y-5.1055
X7.6803Y-4.4862
X7.6874Y-4.9583
X7.6898Y-4.3335
X7.6921Y-4.9055
X7.6925Y-4.8055
X7.6929Y-4.8673
X7.6972Y-4.0807
X7.7201Y-4.5307
X7.7772Y-4.8807
X7.7803Y-4.1339
X7.8669Y-4.3323
X7.8673Y-4.9862
X7.8768Y-3.8028
X7.8878Y-3.8886
X7.8925Y-4.6354
X7.8965Y-4.1094
X7.9063Y-4.6654
X7.9335Y-4.6591
X7.9402Y-4.6283
X7.9512Y-3.8701
X7.952Y-3.8075
X7.9787Y-3.952
X7.9791Y-4.0843
X7.9898Y-4.3224
X7.9913Y-4.1705
X7.9933Y-4.8669
X7.9945Y-4.5669
T2
X7.1024Y-4.5661
X7.2713Y-4.6311
X7.2902Y-4.424
X7.4402Y-4.6902
X7.7091Y-4.715
X7.7992Y-3.7984
X7.8067Y-4.1697
T3
X7.2803Y-4.9854
X7.6756Y-3.7823
X7.7256Y-3.7823
X7.2803Y-5.0445
X7.0913Y-4.9264
X7.1543Y-4.9854
X7.2173Y-5.1035
X7.0283Y-4.9264
X7.1543Y-4.9264
X7.7256Y-4.6114
X7.7256Y-4.6614
X7.2173Y-4.9854
X7.1543Y-5.0445
X7.0913Y-4.9854
X7.2803Y-5.1035
X7.2173Y-5.0445
T0
M30
