%TF.GenerationSoftware,KiCad,Pcbnew,(5.1.8)-1*%
%TF.CreationDate,2021-09-07T20:43:03-04:00*%
%TF.ProjectId,mainboard_v1,6d61696e-626f-4617-9264-5f76312e6b69,rev?*%
%TF.SameCoordinates,Original*%
%TF.FileFunction,Legend,Top*%
%TF.FilePolarity,Positive*%
%FSLAX46Y46*%
G04 Gerber Fmt 4.6, Leading zero omitted, Abs format (unit mm)*
G04 Created by KiCad (PCBNEW (5.1.8)-1) date 2021-09-07 20:43:03*
%MOMM*%
%LPD*%
G01*
G04 APERTURE LIST*
%ADD10C,0.500000*%
%ADD11C,0.101600*%
%ADD12C,0.100000*%
%ADD13C,0.177800*%
%ADD14C,0.203200*%
%ADD15C,0.200000*%
%ADD16C,0.120000*%
%ADD17C,0.127000*%
G04 APERTURE END LIST*
D10*
X199500000Y-94250000D02*
X199500000Y-93000000D01*
X199500000Y-94250000D02*
X200750000Y-94250000D01*
X202000000Y-93000000D02*
X202000000Y-94250000D01*
X200750000Y-93000000D02*
X202000000Y-93000000D01*
X200750000Y-91750000D02*
X200750000Y-93000000D01*
X199500000Y-91750000D02*
X200750000Y-91750000D01*
D11*
X197170000Y-93140000D02*
X193710000Y-93140000D01*
X198350000Y-94370000D02*
X195770000Y-94370000D01*
X196280000Y-95160000D02*
X195780000Y-94380000D01*
X195000000Y-95060000D02*
X193710000Y-93150000D01*
D12*
X195365238Y-115727142D02*
X195974761Y-115727142D01*
X195670000Y-116031904D02*
X195670000Y-115422380D01*
X195714404Y-94117023D02*
X195805119Y-94147261D01*
X195956309Y-94147261D01*
X196016785Y-94117023D01*
X196047023Y-94086785D01*
X196077261Y-94026309D01*
X196077261Y-93965833D01*
X196047023Y-93905357D01*
X196016785Y-93875119D01*
X195956309Y-93844880D01*
X195835357Y-93814642D01*
X195774880Y-93784404D01*
X195744642Y-93754166D01*
X195714404Y-93693690D01*
X195714404Y-93633214D01*
X195744642Y-93572738D01*
X195774880Y-93542500D01*
X195835357Y-93512261D01*
X195986547Y-93512261D01*
X196077261Y-93542500D01*
X196288928Y-93512261D02*
X196440119Y-94147261D01*
X196561071Y-93693690D01*
X196682023Y-94147261D01*
X196833214Y-93512261D01*
X197075119Y-94147261D02*
X197075119Y-93512261D01*
X197226309Y-93512261D01*
X197317023Y-93542500D01*
X197377500Y-93602976D01*
X197407738Y-93663452D01*
X197437976Y-93784404D01*
X197437976Y-93875119D01*
X197407738Y-93996071D01*
X197377500Y-94056547D01*
X197317023Y-94117023D01*
X197226309Y-94147261D01*
X197075119Y-94147261D01*
X197710119Y-94147261D02*
X197710119Y-93512261D01*
X198133452Y-93512261D02*
X198254404Y-93512261D01*
X198314880Y-93542500D01*
X198375357Y-93602976D01*
X198405595Y-93723928D01*
X198405595Y-93935595D01*
X198375357Y-94056547D01*
X198314880Y-94117023D01*
X198254404Y-94147261D01*
X198133452Y-94147261D01*
X198072976Y-94117023D01*
X198012500Y-94056547D01*
X197982261Y-93935595D01*
X197982261Y-93723928D01*
X198012500Y-93602976D01*
X198072976Y-93542500D01*
X198133452Y-93512261D01*
X193616190Y-92837023D02*
X193706904Y-92867261D01*
X193858095Y-92867261D01*
X193918571Y-92837023D01*
X193948809Y-92806785D01*
X193979047Y-92746309D01*
X193979047Y-92685833D01*
X193948809Y-92625357D01*
X193918571Y-92595119D01*
X193858095Y-92564880D01*
X193737142Y-92534642D01*
X193676666Y-92504404D01*
X193646428Y-92474166D01*
X193616190Y-92413690D01*
X193616190Y-92353214D01*
X193646428Y-92292738D01*
X193676666Y-92262500D01*
X193737142Y-92232261D01*
X193888333Y-92232261D01*
X193979047Y-92262500D01*
X194190714Y-92232261D02*
X194341904Y-92867261D01*
X194462857Y-92413690D01*
X194583809Y-92867261D01*
X194735000Y-92232261D01*
X194976904Y-92867261D02*
X194976904Y-92232261D01*
X195128095Y-92232261D01*
X195218809Y-92262500D01*
X195279285Y-92322976D01*
X195309523Y-92383452D01*
X195339761Y-92504404D01*
X195339761Y-92595119D01*
X195309523Y-92716071D01*
X195279285Y-92776547D01*
X195218809Y-92837023D01*
X195128095Y-92867261D01*
X194976904Y-92867261D01*
X195974761Y-92806785D02*
X195944523Y-92837023D01*
X195853809Y-92867261D01*
X195793333Y-92867261D01*
X195702619Y-92837023D01*
X195642142Y-92776547D01*
X195611904Y-92716071D01*
X195581666Y-92595119D01*
X195581666Y-92504404D01*
X195611904Y-92383452D01*
X195642142Y-92322976D01*
X195702619Y-92262500D01*
X195793333Y-92232261D01*
X195853809Y-92232261D01*
X195944523Y-92262500D01*
X195974761Y-92292738D01*
X196549285Y-92867261D02*
X196246904Y-92867261D01*
X196246904Y-92232261D01*
X196760952Y-92867261D02*
X196760952Y-92232261D01*
X197123809Y-92867261D02*
X196851666Y-92504404D01*
X197123809Y-92232261D02*
X196760952Y-92595119D01*
D13*
X176727142Y-121842857D02*
X176955714Y-121842857D01*
X177070000Y-121900000D01*
X177184285Y-122014285D01*
X177241428Y-122242857D01*
X177241428Y-122642857D01*
X177184285Y-122871428D01*
X177070000Y-122985714D01*
X176955714Y-123042857D01*
X176727142Y-123042857D01*
X176612857Y-122985714D01*
X176498571Y-122871428D01*
X176441428Y-122642857D01*
X176441428Y-122242857D01*
X176498571Y-122014285D01*
X176612857Y-121900000D01*
X176727142Y-121842857D01*
X178155714Y-122414285D02*
X177755714Y-122414285D01*
X177755714Y-123042857D02*
X177755714Y-121842857D01*
X178327142Y-121842857D01*
X179184285Y-122414285D02*
X178784285Y-122414285D01*
X178784285Y-123042857D02*
X178784285Y-121842857D01*
X179355714Y-121842857D01*
X177157142Y-115702857D02*
X177385714Y-115702857D01*
X177500000Y-115760000D01*
X177614285Y-115874285D01*
X177671428Y-116102857D01*
X177671428Y-116502857D01*
X177614285Y-116731428D01*
X177500000Y-116845714D01*
X177385714Y-116902857D01*
X177157142Y-116902857D01*
X177042857Y-116845714D01*
X176928571Y-116731428D01*
X176871428Y-116502857D01*
X176871428Y-116102857D01*
X176928571Y-115874285D01*
X177042857Y-115760000D01*
X177157142Y-115702857D01*
X178185714Y-116902857D02*
X178185714Y-115702857D01*
X178871428Y-116902857D01*
X178871428Y-115702857D01*
D11*
X196380956Y-128563319D02*
X196332848Y-128560112D01*
X196259081Y-128582562D01*
X196207766Y-128633878D01*
X196178900Y-128714059D01*
X196175693Y-128768582D01*
X196194937Y-128851970D01*
X196239838Y-128909700D01*
X196310397Y-128941773D01*
X196358506Y-128944980D01*
X196432272Y-128922529D01*
X196483588Y-128871213D01*
X196512453Y-128791033D01*
X196515660Y-128736510D01*
X196336055Y-128505589D02*
X196515660Y-128736510D01*
X196563769Y-128739717D01*
X196589426Y-128714059D01*
X196618292Y-128633878D01*
X196599048Y-128550490D01*
X196486795Y-128406164D01*
X196368127Y-128370885D01*
X196246252Y-128390128D01*
X196121170Y-128463895D01*
X196040989Y-128595391D01*
X196008917Y-128730095D01*
X196024953Y-128868006D01*
X196089098Y-129009124D01*
X196204558Y-129098927D01*
X196323226Y-129134207D01*
X196445101Y-129114963D01*
X196570183Y-129041197D01*
X196650364Y-128909700D01*
X196682436Y-128774996D01*
X196964673Y-128492760D02*
X196493209Y-127886592D01*
X197009574Y-128139964D01*
X196852420Y-127527382D01*
X197323883Y-128133550D01*
X197580462Y-127876971D02*
X197108998Y-127270803D01*
X197288604Y-127091198D02*
X197596498Y-126783304D01*
X197914014Y-127543418D02*
X197442551Y-126937251D01*
X198658093Y-126799340D02*
X198186629Y-126193173D01*
X198702994Y-126446544D01*
X198545839Y-125833962D01*
X199017303Y-126440130D01*
X199456694Y-125949423D02*
X199427829Y-126029604D01*
X199325197Y-126132235D01*
X199251431Y-126154686D01*
X199180872Y-126122614D01*
X199001267Y-125891693D01*
X198982023Y-125808305D01*
X199010888Y-125728124D01*
X199113520Y-125625492D01*
X199187286Y-125603042D01*
X199257845Y-125635114D01*
X199302747Y-125692844D01*
X199091069Y-126007153D01*
X199966644Y-125490788D02*
X199495181Y-124884621D01*
X199944194Y-125461923D02*
X199915328Y-125542104D01*
X199812697Y-125644736D01*
X199738931Y-125667186D01*
X199690822Y-125663979D01*
X199620263Y-125631907D01*
X199485559Y-125458716D01*
X199466316Y-125375328D01*
X199469523Y-125320805D01*
X199498388Y-125240624D01*
X199601019Y-125137993D01*
X199674786Y-125115542D01*
X200223223Y-125234210D02*
X199908914Y-124830098D01*
X199751759Y-124628042D02*
X199748552Y-124682565D01*
X199796661Y-124685773D01*
X199799868Y-124631250D01*
X199751759Y-124628042D01*
X199796661Y-124685773D01*
X200710723Y-124746710D02*
X200463766Y-124429194D01*
X200393206Y-124397122D01*
X200319440Y-124419572D01*
X200216808Y-124522204D01*
X200187943Y-124602385D01*
X200688272Y-124717845D02*
X200659407Y-124798026D01*
X200531117Y-124926315D01*
X200457351Y-124948766D01*
X200386792Y-124916693D01*
X200341891Y-124858963D01*
X200322647Y-124775575D01*
X200351512Y-124695394D01*
X200479802Y-124567105D01*
X200508667Y-124486924D01*
X201634406Y-123823027D02*
X201377827Y-124079605D01*
X200906364Y-123473438D01*
X202044932Y-123412501D02*
X201797975Y-123094984D01*
X201727416Y-123062912D01*
X201653649Y-123085363D01*
X201551018Y-123187994D01*
X201522153Y-123268175D01*
X202022481Y-123383635D02*
X201993616Y-123463816D01*
X201865327Y-123592106D01*
X201791561Y-123614556D01*
X201721001Y-123582484D01*
X201676100Y-123524754D01*
X201656857Y-123441366D01*
X201685722Y-123361185D01*
X201814011Y-123232895D01*
X201842876Y-123152715D01*
X202301511Y-123155922D02*
X201830047Y-122549755D01*
X202009652Y-122780675D02*
X202038518Y-122700495D01*
X202141149Y-122597863D01*
X202214915Y-122575412D01*
X202263024Y-122578620D01*
X202333583Y-122610692D01*
X202468287Y-122783883D01*
X202487530Y-122867271D01*
X202484323Y-122921794D01*
X202455458Y-123001975D01*
X202352827Y-123104606D01*
X202279060Y-123127057D01*
X197103867Y-130062380D02*
X197203291Y-130014272D01*
X197331580Y-129885982D01*
X197360445Y-129805801D01*
X197363653Y-129751278D01*
X197344409Y-129667890D01*
X197299508Y-129610160D01*
X197228949Y-129578088D01*
X197180840Y-129574881D01*
X197107074Y-129597331D01*
X196981992Y-129671098D01*
X196908225Y-129693548D01*
X196860117Y-129690341D01*
X196789558Y-129658269D01*
X196744656Y-129600538D01*
X196725413Y-129517150D01*
X196728620Y-129462627D01*
X196757485Y-129382446D01*
X196885775Y-129254157D01*
X196985199Y-129206049D01*
X197418176Y-129234914D02*
X197597781Y-129055309D01*
X197921711Y-129295851D02*
X197665133Y-129552430D01*
X197193669Y-128946263D01*
X197450248Y-128689684D01*
X198152632Y-129064930D02*
X197681169Y-128458763D01*
D14*
X195345436Y-127843904D02*
X195773068Y-127416273D01*
X195484417Y-128218082D02*
X194997986Y-126908461D01*
X196083100Y-127619398D01*
X196302261Y-127314711D02*
X196425205Y-127277293D01*
X196596258Y-127106241D01*
X196644366Y-126972606D01*
X196612294Y-126833626D01*
X196574876Y-126785517D01*
X196457278Y-126732063D01*
X196334334Y-126769481D01*
X196206044Y-126897770D01*
X196083100Y-126935188D01*
X195965502Y-126881734D01*
X195928084Y-126833626D01*
X195896012Y-126694645D01*
X195944120Y-126561011D01*
X196072410Y-126432721D01*
X196195354Y-126395304D01*
X196457278Y-126047853D02*
X196799383Y-125705748D01*
X196323643Y-125582804D02*
X196997162Y-126448757D01*
X197114761Y-126502211D01*
X197237705Y-126464794D01*
X197323231Y-126379267D01*
X197622573Y-126079926D02*
X197098725Y-125406406D01*
X197248396Y-125598840D02*
X197216323Y-125459860D01*
X197221669Y-125368989D01*
X197269777Y-125235354D01*
X197355303Y-125149828D01*
X198306783Y-125395716D02*
X198183839Y-125433133D01*
X198103658Y-125427788D01*
X197986059Y-125374334D01*
X197761553Y-125085683D01*
X197729481Y-124946703D01*
X197734826Y-124855831D01*
X197782935Y-124722196D01*
X197911224Y-124593907D01*
X198034168Y-124556489D01*
X198114349Y-124561835D01*
X198231947Y-124615289D01*
X198456454Y-124903940D01*
X198488526Y-125042920D01*
X198483181Y-125133791D01*
X198435072Y-125267426D01*
X198306783Y-125395716D01*
X198723723Y-124465618D02*
X199151355Y-124037986D01*
X198862703Y-124839795D02*
X198376273Y-123530174D01*
X199461387Y-124241111D01*
X199236881Y-123268250D02*
X199760729Y-123941769D01*
X199311716Y-123364467D02*
X199317062Y-123273595D01*
X199365170Y-123139961D01*
X199493460Y-123011671D01*
X199616404Y-122974254D01*
X199734002Y-123027708D01*
X200145597Y-123556901D01*
X199921091Y-122584040D02*
X200263196Y-122241935D01*
X199787456Y-122118991D02*
X200460975Y-122984944D01*
X200578574Y-123038398D01*
X200701518Y-123000981D01*
X200787044Y-122915454D01*
D12*
%TO.C,S1*%
X177350000Y-95780000D02*
X177850000Y-95780000D01*
X177350000Y-96280000D02*
X176950000Y-96280000D01*
X177350000Y-95780000D02*
X177350000Y-96280000D01*
X180550000Y-95780000D02*
X180050000Y-95780000D01*
X180550000Y-95780000D02*
X180550000Y-96280000D01*
X180550000Y-98980000D02*
X180550000Y-98480000D01*
X180550000Y-98980000D02*
X180150000Y-98980000D01*
X177350000Y-98980000D02*
X177850000Y-98980000D01*
X177350000Y-98980000D02*
X177350000Y-98480000D01*
D15*
%TO.C,J6*%
X193810000Y-112200000D02*
X193810000Y-112200000D01*
X193810000Y-112100000D02*
X193810000Y-112100000D01*
X193810000Y-112200000D02*
X193810000Y-112200000D01*
X185325000Y-117000000D02*
X185325000Y-114000000D01*
X185325000Y-117000000D02*
X185325000Y-117000000D01*
X185325000Y-114000000D02*
X185325000Y-117000000D01*
X185325000Y-114000000D02*
X185325000Y-114000000D01*
X194675000Y-117000000D02*
X194675000Y-114000000D01*
X194675000Y-117000000D02*
X194675000Y-117000000D01*
X194675000Y-114000000D02*
X194675000Y-117000000D01*
X194675000Y-114000000D02*
X194675000Y-114000000D01*
X193810000Y-112100000D02*
G75*
G02*
X193810000Y-112200000I0J-50000D01*
G01*
X193810000Y-112200000D02*
G75*
G02*
X193810000Y-112100000I0J50000D01*
G01*
X193810000Y-112100000D02*
G75*
G02*
X193810000Y-112200000I0J-50000D01*
G01*
%TO.C,IC2*%
X203085000Y-121600000D02*
X201935000Y-121600000D01*
X201585000Y-118550000D02*
X201585000Y-121450000D01*
X200835000Y-118550000D02*
X201585000Y-118550000D01*
X200835000Y-121450000D02*
X200835000Y-118550000D01*
X201585000Y-121450000D02*
X200835000Y-121450000D01*
%TO.C,IC1*%
X176635000Y-101860000D02*
X177785000Y-101860000D01*
X178135000Y-104910000D02*
X178135000Y-102010000D01*
X178885000Y-104910000D02*
X178135000Y-104910000D01*
X178885000Y-102010000D02*
X178885000Y-104910000D01*
X178135000Y-102010000D02*
X178885000Y-102010000D01*
D12*
%TO.C,H1*%
X191600000Y-123000000D02*
G75*
G03*
X191600000Y-123000000I-1600000J0D01*
G01*
D16*
%TO.C,J4*%
X193830000Y-95310000D02*
X194960000Y-95310000D01*
X193830000Y-96070000D02*
X193830000Y-95310000D01*
X196537530Y-95375000D02*
X197360000Y-95375000D01*
X195720000Y-95375000D02*
X195922470Y-95375000D01*
X195720000Y-95506529D02*
X195720000Y-95375000D01*
X195720000Y-96776529D02*
X195720000Y-96633471D01*
X195523471Y-96830000D02*
X195666529Y-96830000D01*
X193830000Y-96830000D02*
X194396529Y-96830000D01*
X197360000Y-95375000D02*
X197360000Y-96765000D01*
X193830000Y-96830000D02*
X193830000Y-96765000D01*
X193830000Y-96830000D02*
X197360000Y-96830000D01*
D15*
%TO.C,C9*%
X180980000Y-116205000D02*
X180980000Y-118855000D01*
X182380000Y-118255000D02*
X182380000Y-116205000D01*
D16*
%TO.C,U7*%
X193770000Y-121880000D02*
X193770000Y-124330000D01*
X196990000Y-123680000D02*
X196990000Y-121880000D01*
%TO.C,C18*%
X192400000Y-122403733D02*
X192400000Y-122696267D01*
X193420000Y-122403733D02*
X193420000Y-122696267D01*
%TO.C,C17*%
X193423733Y-120270000D02*
X193716267Y-120270000D01*
X193423733Y-119250000D02*
X193716267Y-119250000D01*
D12*
%TO.C,XTAL1*%
X184210000Y-106580000D02*
X184410000Y-106580000D01*
X184210000Y-107780000D02*
X184410000Y-107780000D01*
D15*
X182710000Y-107080000D02*
X182710000Y-107080000D01*
X182710000Y-107280000D02*
X182710000Y-107280000D01*
X182710000Y-107080000D02*
G75*
G02*
X182710000Y-107280000I0J-100000D01*
G01*
X182710000Y-107280000D02*
G75*
G02*
X182710000Y-107080000I0J100000D01*
G01*
D16*
%TO.C,C16*%
X197523733Y-114200000D02*
X197816267Y-114200000D01*
X197523733Y-113180000D02*
X197816267Y-113180000D01*
%TO.C,C15*%
X197493733Y-107690000D02*
X197786267Y-107690000D01*
X197493733Y-106670000D02*
X197786267Y-106670000D01*
%TO.C,C14*%
X191470000Y-108236267D02*
X191470000Y-107943733D01*
X190450000Y-108236267D02*
X190450000Y-107943733D01*
D12*
%TO.C,H3*%
X203350000Y-108000000D02*
G75*
G03*
X203350000Y-108000000I-1600000J0D01*
G01*
%TO.C,H2*%
X179850000Y-108000000D02*
G75*
G03*
X179850000Y-108000000I-1600000J0D01*
G01*
D15*
%TO.C,J5*%
X192640000Y-131350000D02*
G75*
G03*
X192640000Y-131350000I-100000J0D01*
G01*
D17*
X193350000Y-126300000D02*
X193350000Y-129400000D01*
X186650000Y-129400000D02*
X186650000Y-126300000D01*
D16*
%TO.C,C12*%
X181820000Y-102453733D02*
X181820000Y-102746267D01*
X180800000Y-102453733D02*
X180800000Y-102746267D01*
%TO.C,C8*%
X198760000Y-118993733D02*
X198760000Y-119286267D01*
X197740000Y-118993733D02*
X197740000Y-119286267D01*
D15*
%TO.C,U5*%
X196780000Y-104500000D02*
G75*
G03*
X196780000Y-104500000I-100000J0D01*
G01*
D17*
X196691500Y-103500000D02*
X196430000Y-103500000D01*
X196430000Y-103500000D02*
X196430000Y-103238500D01*
X200430000Y-103238500D02*
X200430000Y-103500000D01*
X200430000Y-103500000D02*
X200168500Y-103500000D01*
X200168500Y-99500000D02*
X200430000Y-99500000D01*
X200430000Y-99500000D02*
X200430000Y-99761500D01*
X196430000Y-99761500D02*
X196430000Y-99500000D01*
X196430000Y-99500000D02*
X196691500Y-99500000D01*
D16*
%TO.C,C7*%
X195410000Y-99743733D02*
X195410000Y-100036267D01*
X194390000Y-99743733D02*
X194390000Y-100036267D01*
%TO.C,C4*%
X202490000Y-100233733D02*
X202490000Y-100526267D01*
X201470000Y-100233733D02*
X201470000Y-100526267D01*
%TO.C,C3*%
X201470000Y-103926267D02*
X201470000Y-103633733D01*
X202490000Y-103926267D02*
X202490000Y-103633733D01*
%TO.C,C1*%
X198663733Y-97310000D02*
X198956267Y-97310000D01*
X198663733Y-98330000D02*
X198956267Y-98330000D01*
%TO.C,U4*%
X186470000Y-123670000D02*
X186470000Y-121870000D01*
X183250000Y-121870000D02*
X183250000Y-124320000D01*
%TO.C,U3*%
X199190000Y-111360000D02*
X199190000Y-109560000D01*
X195970000Y-109560000D02*
X195970000Y-112010000D01*
D17*
%TO.C,U1*%
X182470000Y-93720000D02*
X182470000Y-90220000D01*
X182470000Y-90220000D02*
X192970000Y-90220000D01*
X192970000Y-90220000D02*
X192970000Y-93720000D01*
X182470000Y-102170000D02*
X182470000Y-104520000D01*
D15*
X182070000Y-94220000D02*
G75*
G03*
X182070000Y-94220000I-100000J0D01*
G01*
D16*
%TO.C,C2*%
X188930000Y-108236267D02*
X188930000Y-107943733D01*
X189950000Y-108236267D02*
X189950000Y-107943733D01*
%TO.C,C5*%
X181716267Y-107690000D02*
X181423733Y-107690000D01*
X181716267Y-106670000D02*
X181423733Y-106670000D01*
%TO.C,C6*%
X186823733Y-107690000D02*
X187116267Y-107690000D01*
X186823733Y-106670000D02*
X187116267Y-106670000D01*
%TO.C,C10*%
X184916267Y-120260000D02*
X184623733Y-120260000D01*
X184916267Y-119240000D02*
X184623733Y-119240000D01*
%TO.C,C11*%
X181860000Y-122393733D02*
X181860000Y-122686267D01*
X182880000Y-122393733D02*
X182880000Y-122686267D01*
%TO.C,D1*%
X176530000Y-111745000D02*
X178990000Y-111745000D01*
X176530000Y-110275000D02*
X176530000Y-111745000D01*
X178990000Y-110275000D02*
X176530000Y-110275000D01*
%TO.C,D2*%
X178990000Y-111925000D02*
X176530000Y-111925000D01*
X176530000Y-111925000D02*
X176530000Y-113395000D01*
X176530000Y-113395000D02*
X178990000Y-113395000D01*
%TO.C,D3*%
X176530000Y-115045000D02*
X178990000Y-115045000D01*
X176530000Y-113575000D02*
X176530000Y-115045000D01*
X178990000Y-113575000D02*
X176530000Y-113575000D01*
%TO.C,D4*%
X201605000Y-111410000D02*
X201605000Y-113870000D01*
X201605000Y-113870000D02*
X203075000Y-113870000D01*
X203075000Y-113870000D02*
X203075000Y-111410000D01*
%TO.C,J1*%
X195120000Y-116370000D02*
X196230000Y-116370000D01*
X195120000Y-117130000D02*
X195120000Y-116370000D01*
X196793471Y-117890000D02*
X197340000Y-117890000D01*
X195120000Y-117890000D02*
X195666529Y-117890000D01*
X197340000Y-117890000D02*
X197340000Y-119095000D01*
X195120000Y-117890000D02*
X195120000Y-119095000D01*
X196537530Y-119095000D02*
X197340000Y-119095000D01*
X195120000Y-119095000D02*
X195922470Y-119095000D01*
%TO.C,L1*%
X192990000Y-108261267D02*
X192990000Y-107918733D01*
X191970000Y-108261267D02*
X191970000Y-107918733D01*
%TO.C,R1*%
X185434724Y-110787500D02*
X184925276Y-110787500D01*
X185434724Y-111832500D02*
X184925276Y-111832500D01*
%TO.C,R2*%
X184925276Y-109247500D02*
X185434724Y-109247500D01*
X184925276Y-110292500D02*
X185434724Y-110292500D01*
%TO.C,R3*%
X181365276Y-111532500D02*
X181874724Y-111532500D01*
X181365276Y-110487500D02*
X181874724Y-110487500D01*
%TO.C,R4*%
X181365276Y-112137500D02*
X181874724Y-112137500D01*
X181365276Y-113182500D02*
X181874724Y-113182500D01*
%TO.C,R5*%
X181874724Y-114832500D02*
X181365276Y-114832500D01*
X181874724Y-113787500D02*
X181365276Y-113787500D01*
%TO.C,R6*%
X195362500Y-108354724D02*
X195362500Y-107845276D01*
X194317500Y-108354724D02*
X194317500Y-107845276D01*
%TO.C,R7*%
X200167500Y-112487224D02*
X200167500Y-111977776D01*
X201212500Y-112487224D02*
X201212500Y-111977776D01*
%TO.C,XTAL1*%
D11*
X183103476Y-108098352D02*
X183543742Y-108758752D01*
X183543742Y-108098352D02*
X183103476Y-108758752D01*
X183700980Y-108098352D02*
X184078352Y-108098352D01*
X183889666Y-108758752D02*
X183889666Y-108098352D01*
X184267038Y-108570066D02*
X184581514Y-108570066D01*
X184204142Y-108758752D02*
X184424276Y-108098352D01*
X184644409Y-108758752D01*
X185179019Y-108758752D02*
X184864542Y-108758752D01*
X184864542Y-108098352D01*
X185745076Y-108758752D02*
X185367704Y-108758752D01*
X185556390Y-108758752D02*
X185556390Y-108098352D01*
X185493495Y-108192695D01*
X185430600Y-108255590D01*
X185367704Y-108287038D01*
%TO.C,C16*%
X197225457Y-115315857D02*
X197194009Y-115347304D01*
X197099666Y-115378752D01*
X197036771Y-115378752D01*
X196942428Y-115347304D01*
X196879533Y-115284409D01*
X196848085Y-115221514D01*
X196816638Y-115095723D01*
X196816638Y-115001380D01*
X196848085Y-114875590D01*
X196879533Y-114812695D01*
X196942428Y-114749800D01*
X197036771Y-114718352D01*
X197099666Y-114718352D01*
X197194009Y-114749800D01*
X197225457Y-114781247D01*
X197854409Y-115378752D02*
X197477038Y-115378752D01*
X197665723Y-115378752D02*
X197665723Y-114718352D01*
X197602828Y-114812695D01*
X197539933Y-114875590D01*
X197477038Y-114907038D01*
X198420466Y-114718352D02*
X198294676Y-114718352D01*
X198231780Y-114749800D01*
X198200333Y-114781247D01*
X198137438Y-114875590D01*
X198105990Y-115001380D01*
X198105990Y-115252961D01*
X198137438Y-115315857D01*
X198168885Y-115347304D01*
X198231780Y-115378752D01*
X198357571Y-115378752D01*
X198420466Y-115347304D01*
X198451914Y-115315857D01*
X198483361Y-115252961D01*
X198483361Y-115095723D01*
X198451914Y-115032828D01*
X198420466Y-115001380D01*
X198357571Y-114969933D01*
X198231780Y-114969933D01*
X198168885Y-115001380D01*
X198137438Y-115032828D01*
X198105990Y-115095723D01*
%TO.C,C15*%
X197175457Y-105945857D02*
X197144009Y-105977304D01*
X197049666Y-106008752D01*
X196986771Y-106008752D01*
X196892428Y-105977304D01*
X196829533Y-105914409D01*
X196798085Y-105851514D01*
X196766638Y-105725723D01*
X196766638Y-105631380D01*
X196798085Y-105505590D01*
X196829533Y-105442695D01*
X196892428Y-105379800D01*
X196986771Y-105348352D01*
X197049666Y-105348352D01*
X197144009Y-105379800D01*
X197175457Y-105411247D01*
X197804409Y-106008752D02*
X197427038Y-106008752D01*
X197615723Y-106008752D02*
X197615723Y-105348352D01*
X197552828Y-105442695D01*
X197489933Y-105505590D01*
X197427038Y-105537038D01*
X198401914Y-105348352D02*
X198087438Y-105348352D01*
X198055990Y-105662828D01*
X198087438Y-105631380D01*
X198150333Y-105599933D01*
X198307571Y-105599933D01*
X198370466Y-105631380D01*
X198401914Y-105662828D01*
X198433361Y-105725723D01*
X198433361Y-105882961D01*
X198401914Y-105945857D01*
X198370466Y-105977304D01*
X198307571Y-106008752D01*
X198150333Y-106008752D01*
X198087438Y-105977304D01*
X198055990Y-105945857D01*
%TO.C,C14*%
X191155857Y-111344542D02*
X191187304Y-111375990D01*
X191218752Y-111470333D01*
X191218752Y-111533228D01*
X191187304Y-111627571D01*
X191124409Y-111690466D01*
X191061514Y-111721914D01*
X190935723Y-111753361D01*
X190841380Y-111753361D01*
X190715590Y-111721914D01*
X190652695Y-111690466D01*
X190589800Y-111627571D01*
X190558352Y-111533228D01*
X190558352Y-111470333D01*
X190589800Y-111375990D01*
X190621247Y-111344542D01*
X191218752Y-110715590D02*
X191218752Y-111092961D01*
X191218752Y-110904276D02*
X190558352Y-110904276D01*
X190652695Y-110967171D01*
X190715590Y-111030066D01*
X190747038Y-111092961D01*
X190778485Y-110149533D02*
X191218752Y-110149533D01*
X190526904Y-110306771D02*
X190998619Y-110464009D01*
X190998619Y-110055190D01*
%TO.C,U5*%
X194788352Y-103103161D02*
X195322961Y-103103161D01*
X195385857Y-103071714D01*
X195417304Y-103040266D01*
X195448752Y-102977371D01*
X195448752Y-102851580D01*
X195417304Y-102788685D01*
X195385857Y-102757238D01*
X195322961Y-102725790D01*
X194788352Y-102725790D01*
X194788352Y-102096838D02*
X194788352Y-102411314D01*
X195102828Y-102442761D01*
X195071380Y-102411314D01*
X195039933Y-102348419D01*
X195039933Y-102191180D01*
X195071380Y-102128285D01*
X195102828Y-102096838D01*
X195165723Y-102065390D01*
X195322961Y-102065390D01*
X195385857Y-102096838D01*
X195417304Y-102128285D01*
X195448752Y-102191180D01*
X195448752Y-102348419D01*
X195417304Y-102411314D01*
X195385857Y-102442761D01*
%TO.C,U3*%
X194848352Y-111523161D02*
X195382961Y-111523161D01*
X195445857Y-111491714D01*
X195477304Y-111460266D01*
X195508752Y-111397371D01*
X195508752Y-111271580D01*
X195477304Y-111208685D01*
X195445857Y-111177238D01*
X195382961Y-111145790D01*
X194848352Y-111145790D01*
X194848352Y-110894209D02*
X194848352Y-110485390D01*
X195099933Y-110705523D01*
X195099933Y-110611180D01*
X195131380Y-110548285D01*
X195162828Y-110516838D01*
X195225723Y-110485390D01*
X195382961Y-110485390D01*
X195445857Y-110516838D01*
X195477304Y-110548285D01*
X195508752Y-110611180D01*
X195508752Y-110799866D01*
X195477304Y-110862761D01*
X195445857Y-110894209D01*
%TO.C,C2*%
X189695857Y-110620066D02*
X189727304Y-110651514D01*
X189758752Y-110745857D01*
X189758752Y-110808752D01*
X189727304Y-110903095D01*
X189664409Y-110965990D01*
X189601514Y-110997438D01*
X189475723Y-111028885D01*
X189381380Y-111028885D01*
X189255590Y-110997438D01*
X189192695Y-110965990D01*
X189129800Y-110903095D01*
X189098352Y-110808752D01*
X189098352Y-110745857D01*
X189129800Y-110651514D01*
X189161247Y-110620066D01*
X189161247Y-110368485D02*
X189129800Y-110337038D01*
X189098352Y-110274142D01*
X189098352Y-110116904D01*
X189129800Y-110054009D01*
X189161247Y-110022561D01*
X189224142Y-109991114D01*
X189287038Y-109991114D01*
X189381380Y-110022561D01*
X189758752Y-110399933D01*
X189758752Y-109991114D01*
%TO.C,C5*%
X181439933Y-108595857D02*
X181408485Y-108627304D01*
X181314142Y-108658752D01*
X181251247Y-108658752D01*
X181156904Y-108627304D01*
X181094009Y-108564409D01*
X181062561Y-108501514D01*
X181031114Y-108375723D01*
X181031114Y-108281380D01*
X181062561Y-108155590D01*
X181094009Y-108092695D01*
X181156904Y-108029800D01*
X181251247Y-107998352D01*
X181314142Y-107998352D01*
X181408485Y-108029800D01*
X181439933Y-108061247D01*
X182037438Y-107998352D02*
X181722961Y-107998352D01*
X181691514Y-108312828D01*
X181722961Y-108281380D01*
X181785857Y-108249933D01*
X181943095Y-108249933D01*
X182005990Y-108281380D01*
X182037438Y-108312828D01*
X182068885Y-108375723D01*
X182068885Y-108532961D01*
X182037438Y-108595857D01*
X182005990Y-108627304D01*
X181943095Y-108658752D01*
X181785857Y-108658752D01*
X181722961Y-108627304D01*
X181691514Y-108595857D01*
%TO.C,C6*%
X186869933Y-108575857D02*
X186838485Y-108607304D01*
X186744142Y-108638752D01*
X186681247Y-108638752D01*
X186586904Y-108607304D01*
X186524009Y-108544409D01*
X186492561Y-108481514D01*
X186461114Y-108355723D01*
X186461114Y-108261380D01*
X186492561Y-108135590D01*
X186524009Y-108072695D01*
X186586904Y-108009800D01*
X186681247Y-107978352D01*
X186744142Y-107978352D01*
X186838485Y-108009800D01*
X186869933Y-108041247D01*
X187435990Y-107978352D02*
X187310200Y-107978352D01*
X187247304Y-108009800D01*
X187215857Y-108041247D01*
X187152961Y-108135590D01*
X187121514Y-108261380D01*
X187121514Y-108512961D01*
X187152961Y-108575857D01*
X187184409Y-108607304D01*
X187247304Y-108638752D01*
X187373095Y-108638752D01*
X187435990Y-108607304D01*
X187467438Y-108575857D01*
X187498885Y-108512961D01*
X187498885Y-108355723D01*
X187467438Y-108292828D01*
X187435990Y-108261380D01*
X187373095Y-108229933D01*
X187247304Y-108229933D01*
X187184409Y-108261380D01*
X187152961Y-108292828D01*
X187121514Y-108355723D01*
%TO.C,D4*%
X202618752Y-115217438D02*
X201958352Y-115217438D01*
X201958352Y-115060200D01*
X201989800Y-114965857D01*
X202052695Y-114902961D01*
X202115590Y-114871514D01*
X202241380Y-114840066D01*
X202335723Y-114840066D01*
X202461514Y-114871514D01*
X202524409Y-114902961D01*
X202587304Y-114965857D01*
X202618752Y-115060200D01*
X202618752Y-115217438D01*
X202178485Y-114274009D02*
X202618752Y-114274009D01*
X201926904Y-114431247D02*
X202398619Y-114588485D01*
X202398619Y-114179666D01*
%TO.C,L1*%
X192808752Y-110530066D02*
X192808752Y-110844542D01*
X192148352Y-110844542D01*
X192808752Y-109964009D02*
X192808752Y-110341380D01*
X192808752Y-110152695D02*
X192148352Y-110152695D01*
X192242695Y-110215590D01*
X192305590Y-110278485D01*
X192337038Y-110341380D01*
%TO.C,R6*%
X195168752Y-105760066D02*
X194854276Y-105980200D01*
X195168752Y-106137438D02*
X194508352Y-106137438D01*
X194508352Y-105885857D01*
X194539800Y-105822961D01*
X194571247Y-105791514D01*
X194634142Y-105760066D01*
X194728485Y-105760066D01*
X194791380Y-105791514D01*
X194822828Y-105822961D01*
X194854276Y-105885857D01*
X194854276Y-106137438D01*
X194508352Y-105194009D02*
X194508352Y-105319800D01*
X194539800Y-105382695D01*
X194571247Y-105414142D01*
X194665590Y-105477038D01*
X194791380Y-105508485D01*
X195042961Y-105508485D01*
X195105857Y-105477038D01*
X195137304Y-105445590D01*
X195168752Y-105382695D01*
X195168752Y-105256904D01*
X195137304Y-105194009D01*
X195105857Y-105162561D01*
X195042961Y-105131114D01*
X194885723Y-105131114D01*
X194822828Y-105162561D01*
X194791380Y-105194009D01*
X194759933Y-105256904D01*
X194759933Y-105382695D01*
X194791380Y-105445590D01*
X194822828Y-105477038D01*
X194885723Y-105508485D01*
%TO.C,R7*%
X200978752Y-114880066D02*
X200664276Y-115100200D01*
X200978752Y-115257438D02*
X200318352Y-115257438D01*
X200318352Y-115005857D01*
X200349800Y-114942961D01*
X200381247Y-114911514D01*
X200444142Y-114880066D01*
X200538485Y-114880066D01*
X200601380Y-114911514D01*
X200632828Y-114942961D01*
X200664276Y-115005857D01*
X200664276Y-115257438D01*
X200318352Y-114659933D02*
X200318352Y-114219666D01*
X200978752Y-114502695D01*
%TD*%
M02*
