  0
SECTION
  2
HEADER
  9
$ANGBASE
  50
0.0
  9
$ANGDIR
  70
1
  9
$MEASUREMENT
  70
0
  0
ENDSEC
  0
SECTION
  2
TABLES
  0
TABLE
  2
LTYPE
  70
4
  0
LTYPE
  5
40F
  2
CONTINUOUS
  70
0
  3
Solid line
  72
65
  73
0
  40
0.0
  0
LTYPE
  5
410
  2
DASHDOT
 70
0
  3
Dash Dot ____ _ ____ _
 72
65
 73
4
 40
2.0
 49
1.25
 49
-0.25
 49
0.25
 49
-0.25
  0
LTYPE
  5
411
  2
DASHED
 70
0
  3
Dashed __ __ __ __ __
 72
65
 73
2
 40
0.75
 49
0.5
 49
-0.25
  0
LTYPE
  5
43B
  2
DOTTED
 70
0
  3
Dotted .  .  .  .
 72
65
 73
2
 40
0.2
 49
0.0
 49
-0.2
  0
ENDTAB
  0
TABLE
  2
STYLE
  70
4
  0
STYLE
  2
KICAD
  70
0
  40
0
  41
1
  42
1
  50
0
  71
0
  3
isocp.shx
  0
STYLE
  2
KICADB
  70
0
  40
0
  41
1
  42
1
  50
0
  71
0
  3
isocp.shx
  0
STYLE
  2
KICADI
  70
0
  40
0
  41
1
  42
1
  50
15
  71
0
  3
isocp.shx
  0
STYLE
  2
KICADBI
  70
0
  40
0
  41
1
  42
1
  50
15
  71
0
  3
isocp.shx
  0
ENDTAB
  0
TABLE
  2
LAYER
  70
1
  0
LAYER
  2
BLACK
  70
0
  62
7
  6
CONTINUOUS
  0
ENDTAB
  0
ENDSEC
  0
SECTION
  2
ENTITIES
0
LINE
8
BLACK
6
CONTINUOUS
10
6.11988
20
-3.69488
11
6.12046
21
-3.69494
0
LINE
8
BLACK
6
CONTINUOUS
10
6.12046
20
-3.69494
11
6.1212
21
-3.69516
0
LINE
8
BLACK
6
CONTINUOUS
10
6.1212
20
-3.69516
11
6.12188
21
-3.69553
0
LINE
8
BLACK
6
CONTINUOUS
10
6.12188
20
-3.69553
11
6.12248
21
-3.69602
0
LINE
8
BLACK
6
CONTINUOUS
10
6.12248
20
-3.69602
11
6.12297
21
-3.69662
0
LINE
8
BLACK
6
CONTINUOUS
10
6.12297
20
-3.69662
11
6.12334
21
-3.6973
0
LINE
8
BLACK
6
CONTINUOUS
10
6.12334
20
-3.6973
11
6.12357
21
-3.69804
0
LINE
8
BLACK
6
CONTINUOUS
10
6.12357
20
-3.69804
11
6.12364
21
-3.69882
0
LINE
8
BLACK
6
CONTINUOUS
10
6.12364
20
-3.69882
11
6.12362
21
-3.69901
0
LINE
8
BLACK
6
CONTINUOUS
10
6.12362
20
-3.69901
11
6.12362
21
-3.84429
0
LINE
8
BLACK
6
CONTINUOUS
10
6.12362
20
-3.84429
11
6.12364
21
-3.84449
0
LINE
8
BLACK
6
CONTINUOUS
10
6.12364
20
-3.84449
11
6.12357
21
-3.84526
0
LINE
8
BLACK
6
CONTINUOUS
10
6.12357
20
-3.84526
11
6.12334
21
-3.846
0
LINE
8
BLACK
6
CONTINUOUS
10
6.12334
20
-3.846
11
6.12297
21
-3.84668
0
LINE
8
BLACK
6
CONTINUOUS
10
6.12297
20
-3.84668
11
6.12248
21
-3.84728
0
LINE
8
BLACK
6
CONTINUOUS
10
6.12248
20
-3.84728
11
6.12188
21
-3.84777
0
LINE
8
BLACK
6
CONTINUOUS
10
6.12188
20
-3.84777
11
6.1212
21
-3.84814
0
LINE
8
BLACK
6
CONTINUOUS
10
6.1212
20
-3.84814
11
6.12046
21
-3.84837
0
LINE
8
BLACK
6
CONTINUOUS
10
6.12046
20
-3.84837
11
6.11988
21
-3.84842
0
LINE
8
BLACK
6
CONTINUOUS
10
6.11988
20
-3.84842
11
6.11969
21
-3.84844
0
LINE
8
BLACK
6
CONTINUOUS
10
6.11969
20
-3.84844
11
6.11949
21
-3.84842
0
LINE
8
BLACK
6
CONTINUOUS
10
6.11949
20
-3.84842
11
5.84901
21
-3.84842
0
LINE
8
BLACK
6
CONTINUOUS
10
5.84901
20
-3.84842
11
5.84882
21
-3.84844
0
LINE
8
BLACK
6
CONTINUOUS
10
5.84882
20
-3.84844
11
5.84863
21
-3.84842
0
LINE
8
BLACK
6
CONTINUOUS
10
5.84863
20
-3.84842
11
5.84805
21
-3.84837
0
LINE
8
BLACK
6
CONTINUOUS
10
5.84805
20
-3.84837
11
5.8473
21
-3.84814
0
LINE
8
BLACK
6
CONTINUOUS
10
5.8473
20
-3.84814
11
5.84662
21
-3.84777
0
LINE
8
BLACK
6
CONTINUOUS
10
5.84662
20
-3.84777
11
5.84602
21
-3.84728
0
LINE
8
BLACK
6
CONTINUOUS
10
5.84602
20
-3.84728
11
5.84553
21
-3.84668
0
LINE
8
BLACK
6
CONTINUOUS
10
5.84553
20
-3.84668
11
5.84516
21
-3.846
0
LINE
8
BLACK
6
CONTINUOUS
10
5.84516
20
-3.846
11
5.84494
21
-3.84526
0
LINE
8
BLACK
6
CONTINUOUS
10
5.84494
20
-3.84526
11
5.84486
21
-3.84449
0
LINE
8
BLACK
6
CONTINUOUS
10
5.84486
20
-3.84449
11
5.84488
21
-3.84429
0
LINE
8
BLACK
6
CONTINUOUS
10
5.84488
20
-3.84429
11
5.84488
21
-3.79646
0
LINE
8
BLACK
6
CONTINUOUS
10
5.84488
20
-3.79646
11
5.84494
21
-3.79588
0
LINE
8
BLACK
6
CONTINUOUS
10
5.84494
20
-3.79588
11
5.84516
21
-3.79514
0
LINE
8
BLACK
6
CONTINUOUS
10
5.84516
20
-3.79514
11
5.84553
21
-3.79445
0
LINE
8
BLACK
6
CONTINUOUS
10
5.84553
20
-3.79445
11
5.84602
21
-3.79385
0
LINE
8
BLACK
6
CONTINUOUS
10
5.84602
20
-3.79385
11
5.84662
21
-3.79336
0
LINE
8
BLACK
6
CONTINUOUS
10
5.84662
20
-3.79336
11
5.8473
21
-3.793
0
LINE
8
BLACK
6
CONTINUOUS
10
5.8473
20
-3.793
11
5.84805
21
-3.79277
0
LINE
8
BLACK
6
CONTINUOUS
10
5.84805
20
-3.79277
11
5.84882
21
-3.79269
0
LINE
8
BLACK
6
CONTINUOUS
10
5.84882
20
-3.79269
11
5.84959
21
-3.79277
0
LINE
8
BLACK
6
CONTINUOUS
10
5.84959
20
-3.79277
11
5.85033
21
-3.793
0
LINE
8
BLACK
6
CONTINUOUS
10
5.85033
20
-3.793
11
5.85102
21
-3.79336
0
LINE
8
BLACK
6
CONTINUOUS
10
5.85102
20
-3.79336
11
5.85162
21
-3.79385
0
LINE
8
BLACK
6
CONTINUOUS
10
5.85162
20
-3.79385
11
5.85211
21
-3.79445
0
LINE
8
BLACK
6
CONTINUOUS
10
5.85211
20
-3.79445
11
5.85247
21
-3.79514
0
LINE
8
BLACK
6
CONTINUOUS
10
5.85247
20
-3.79514
11
5.8527
21
-3.79588
0
LINE
8
BLACK
6
CONTINUOUS
10
5.8527
20
-3.79588
11
5.85276
21
-3.79646
0
LINE
8
BLACK
6
CONTINUOUS
10
5.85276
20
-3.79646
11
5.85276
21
-3.84055
0
LINE
8
BLACK
6
CONTINUOUS
10
5.85276
20
-3.84055
11
6.11575
21
-3.84055
0
LINE
8
BLACK
6
CONTINUOUS
10
6.11575
20
-3.84055
11
6.11575
21
-3.70275
0
LINE
8
BLACK
6
CONTINUOUS
10
6.11575
20
-3.70275
11
5.88406
21
-3.70275
0
LINE
8
BLACK
6
CONTINUOUS
10
5.88406
20
-3.70275
11
5.88348
21
-3.7027
0
LINE
8
BLACK
6
CONTINUOUS
10
5.88348
20
-3.7027
11
5.88274
21
-3.70247
0
LINE
8
BLACK
6
CONTINUOUS
10
5.88274
20
-3.70247
11
5.88205
21
-3.70211
0
LINE
8
BLACK
6
CONTINUOUS
10
5.88205
20
-3.70211
11
5.88145
21
-3.70161
0
LINE
8
BLACK
6
CONTINUOUS
10
5.88145
20
-3.70161
11
5.88096
21
-3.70101
0
LINE
8
BLACK
6
CONTINUOUS
10
5.88096
20
-3.70101
11
5.8806
21
-3.70033
0
LINE
8
BLACK
6
CONTINUOUS
10
5.8806
20
-3.70033
11
5.88037
21
-3.69959
0
LINE
8
BLACK
6
CONTINUOUS
10
5.88037
20
-3.69959
11
5.8803
21
-3.69882
0
LINE
8
BLACK
6
CONTINUOUS
10
5.8803
20
-3.69882
11
5.88037
21
-3.69804
0
LINE
8
BLACK
6
CONTINUOUS
10
5.88037
20
-3.69804
11
5.8806
21
-3.6973
0
LINE
8
BLACK
6
CONTINUOUS
10
5.8806
20
-3.6973
11
5.88096
21
-3.69662
0
LINE
8
BLACK
6
CONTINUOUS
10
5.88096
20
-3.69662
11
5.88145
21
-3.69602
0
LINE
8
BLACK
6
CONTINUOUS
10
5.88145
20
-3.69602
11
5.88205
21
-3.69553
0
LINE
8
BLACK
6
CONTINUOUS
10
5.88205
20
-3.69553
11
5.88274
21
-3.69516
0
LINE
8
BLACK
6
CONTINUOUS
10
5.88274
20
-3.69516
11
5.88348
21
-3.69494
0
LINE
8
BLACK
6
CONTINUOUS
10
5.88348
20
-3.69494
11
5.88406
21
-3.69488
0
LINE
8
BLACK
6
CONTINUOUS
10
5.88406
20
-3.69488
11
6.11949
21
-3.69488
0
LINE
8
BLACK
6
CONTINUOUS
10
6.11949
20
-3.69488
11
6.11969
21
-3.69486
0
LINE
8
BLACK
6
CONTINUOUS
10
6.11969
20
-3.69486
11
6.11988
21
-3.69488
0
LINE
8
BLACK
6
CONTINUOUS
10
5.94057
20
-3.77583
11
5.94451
21
-3.77746
0
LINE
8
BLACK
6
CONTINUOUS
10
5.94451
20
-3.77746
11
5.94806
21
-3.77983
0
LINE
8
BLACK
6
CONTINUOUS
10
5.94806
20
-3.77983
11
5.95107
21
-3.78285
0
LINE
8
BLACK
6
CONTINUOUS
10
5.95107
20
-3.78285
11
5.95344
21
-3.78639
0
LINE
8
BLACK
6
CONTINUOUS
10
5.95344
20
-3.78639
11
5.95507
21
-3.79033
0
LINE
8
BLACK
6
CONTINUOUS
10
5.95507
20
-3.79033
11
5.95591
21
-3.79452
0
LINE
8
BLACK
6
CONTINUOUS
10
5.95591
20
-3.79452
11
5.95591
21
-3.79878
0
LINE
8
BLACK
6
CONTINUOUS
10
5.95591
20
-3.79878
11
5.95507
21
-3.80297
0
LINE
8
BLACK
6
CONTINUOUS
10
5.95507
20
-3.80297
11
5.95344
21
-3.80691
0
LINE
8
BLACK
6
CONTINUOUS
10
5.95344
20
-3.80691
11
5.95107
21
-3.81045
0
LINE
8
BLACK
6
CONTINUOUS
10
5.95107
20
-3.81045
11
5.94806
21
-3.81347
0
LINE
8
BLACK
6
CONTINUOUS
10
5.94806
20
-3.81347
11
5.94451
21
-3.81584
0
LINE
8
BLACK
6
CONTINUOUS
10
5.94451
20
-3.81584
11
5.94057
21
-3.81747
0
LINE
8
BLACK
6
CONTINUOUS
10
5.94057
20
-3.81747
11
5.93638
21
-3.8183
0
LINE
8
BLACK
6
CONTINUOUS
10
5.93638
20
-3.8183
11
5.93212
21
-3.8183
0
LINE
8
BLACK
6
CONTINUOUS
10
5.93212
20
-3.8183
11
5.92794
21
-3.81747
0
LINE
8
BLACK
6
CONTINUOUS
10
5.92794
20
-3.81747
11
5.924
21
-3.81584
0
LINE
8
BLACK
6
CONTINUOUS
10
5.924
20
-3.81584
11
5.92045
21
-3.81347
0
LINE
8
BLACK
6
CONTINUOUS
10
5.92045
20
-3.81347
11
5.91743
21
-3.81045
0
LINE
8
BLACK
6
CONTINUOUS
10
5.91743
20
-3.81045
11
5.91506
21
-3.80691
0
LINE
8
BLACK
6
CONTINUOUS
10
5.91506
20
-3.80691
11
5.91343
21
-3.80297
0
LINE
8
BLACK
6
CONTINUOUS
10
5.91343
20
-3.80297
11
5.9126
21
-3.79878
0
LINE
8
BLACK
6
CONTINUOUS
10
5.9126
20
-3.79878
11
5.9126
21
-3.79452
0
LINE
8
BLACK
6
CONTINUOUS
10
5.9126
20
-3.79452
11
5.91343
21
-3.79033
0
LINE
8
BLACK
6
CONTINUOUS
10
5.91343
20
-3.79033
11
5.91506
21
-3.78639
0
LINE
8
BLACK
6
CONTINUOUS
10
5.91506
20
-3.78639
11
5.91743
21
-3.78285
0
LINE
8
BLACK
6
CONTINUOUS
10
5.91743
20
-3.78285
11
5.92045
21
-3.77983
0
LINE
8
BLACK
6
CONTINUOUS
10
5.92045
20
-3.77983
11
5.924
21
-3.77746
0
LINE
8
BLACK
6
CONTINUOUS
10
5.924
20
-3.77746
11
5.92794
21
-3.77583
0
LINE
8
BLACK
6
CONTINUOUS
10
5.92794
20
-3.77583
11
5.93212
21
-3.775
0
LINE
8
BLACK
6
CONTINUOUS
10
5.93212
20
-3.775
11
5.93638
21
-3.775
0
LINE
8
BLACK
6
CONTINUOUS
10
5.93638
20
-3.775
11
5.94057
21
-3.77583
0
LINE
8
BLACK
6
CONTINUOUS
10
5.99057
20
-3.77583
11
5.99451
21
-3.77746
0
LINE
8
BLACK
6
CONTINUOUS
10
5.99451
20
-3.77746
11
5.99806
21
-3.77983
0
LINE
8
BLACK
6
CONTINUOUS
10
5.99806
20
-3.77983
11
6.00107
21
-3.78285
0
LINE
8
BLACK
6
CONTINUOUS
10
6.00107
20
-3.78285
11
6.00344
21
-3.78639
0
LINE
8
BLACK
6
CONTINUOUS
10
6.00344
20
-3.78639
11
6.00507
21
-3.79033
0
LINE
8
BLACK
6
CONTINUOUS
10
6.00507
20
-3.79033
11
6.00591
21
-3.79452
0
LINE
8
BLACK
6
CONTINUOUS
10
6.00591
20
-3.79452
11
6.00591
21
-3.79878
0
LINE
8
BLACK
6
CONTINUOUS
10
6.00591
20
-3.79878
11
6.00507
21
-3.80297
0
LINE
8
BLACK
6
CONTINUOUS
10
6.00507
20
-3.80297
11
6.00344
21
-3.80691
0
LINE
8
BLACK
6
CONTINUOUS
10
6.00344
20
-3.80691
11
6.00107
21
-3.81045
0
LINE
8
BLACK
6
CONTINUOUS
10
6.00107
20
-3.81045
11
5.99806
21
-3.81347
0
LINE
8
BLACK
6
CONTINUOUS
10
5.99806
20
-3.81347
11
5.99451
21
-3.81584
0
LINE
8
BLACK
6
CONTINUOUS
10
5.99451
20
-3.81584
11
5.99057
21
-3.81747
0
LINE
8
BLACK
6
CONTINUOUS
10
5.99057
20
-3.81747
11
5.98638
21
-3.8183
0
LINE
8
BLACK
6
CONTINUOUS
10
5.98638
20
-3.8183
11
5.98212
21
-3.8183
0
LINE
8
BLACK
6
CONTINUOUS
10
5.98212
20
-3.8183
11
5.97794
21
-3.81747
0
LINE
8
BLACK
6
CONTINUOUS
10
5.97794
20
-3.81747
11
5.974
21
-3.81584
0
LINE
8
BLACK
6
CONTINUOUS
10
5.974
20
-3.81584
11
5.97045
21
-3.81347
0
LINE
8
BLACK
6
CONTINUOUS
10
5.97045
20
-3.81347
11
5.96743
21
-3.81045
0
LINE
8
BLACK
6
CONTINUOUS
10
5.96743
20
-3.81045
11
5.96506
21
-3.80691
0
LINE
8
BLACK
6
CONTINUOUS
10
5.96506
20
-3.80691
11
5.96343
21
-3.80297
0
LINE
8
BLACK
6
CONTINUOUS
10
5.96343
20
-3.80297
11
5.9626
21
-3.79878
0
LINE
8
BLACK
6
CONTINUOUS
10
5.9626
20
-3.79878
11
5.9626
21
-3.79452
0
LINE
8
BLACK
6
CONTINUOUS
10
5.9626
20
-3.79452
11
5.96343
21
-3.79033
0
LINE
8
BLACK
6
CONTINUOUS
10
5.96343
20
-3.79033
11
5.96506
21
-3.78639
0
LINE
8
BLACK
6
CONTINUOUS
10
5.96506
20
-3.78639
11
5.96743
21
-3.78285
0
LINE
8
BLACK
6
CONTINUOUS
10
5.96743
20
-3.78285
11
5.97045
21
-3.77983
0
LINE
8
BLACK
6
CONTINUOUS
10
5.97045
20
-3.77983
11
5.974
21
-3.77746
0
LINE
8
BLACK
6
CONTINUOUS
10
5.974
20
-3.77746
11
5.97794
21
-3.77583
0
LINE
8
BLACK
6
CONTINUOUS
10
5.97794
20
-3.77583
11
5.98212
21
-3.775
0
LINE
8
BLACK
6
CONTINUOUS
10
5.98212
20
-3.775
11
5.98638
21
-3.775
0
LINE
8
BLACK
6
CONTINUOUS
10
5.98638
20
-3.775
11
5.99057
21
-3.77583
0
LINE
8
BLACK
6
CONTINUOUS
10
6.04057
20
-3.77583
11
6.04451
21
-3.77746
0
LINE
8
BLACK
6
CONTINUOUS
10
6.04451
20
-3.77746
11
6.04806
21
-3.77983
0
LINE
8
BLACK
6
CONTINUOUS
10
6.04806
20
-3.77983
11
6.05107
21
-3.78285
0
LINE
8
BLACK
6
CONTINUOUS
10
6.05107
20
-3.78285
11
6.05344
21
-3.78639
0
LINE
8
BLACK
6
CONTINUOUS
10
6.05344
20
-3.78639
11
6.05507
21
-3.79033
0
LINE
8
BLACK
6
CONTINUOUS
10
6.05507
20
-3.79033
11
6.05591
21
-3.79452
0
LINE
8
BLACK
6
CONTINUOUS
10
6.05591
20
-3.79452
11
6.05591
21
-3.79878
0
LINE
8
BLACK
6
CONTINUOUS
10
6.05591
20
-3.79878
11
6.05507
21
-3.80297
0
LINE
8
BLACK
6
CONTINUOUS
10
6.05507
20
-3.80297
11
6.05344
21
-3.80691
0
LINE
8
BLACK
6
CONTINUOUS
10
6.05344
20
-3.80691
11
6.05107
21
-3.81045
0
LINE
8
BLACK
6
CONTINUOUS
10
6.05107
20
-3.81045
11
6.04806
21
-3.81347
0
LINE
8
BLACK
6
CONTINUOUS
10
6.04806
20
-3.81347
11
6.04451
21
-3.81584
0
LINE
8
BLACK
6
CONTINUOUS
10
6.04451
20
-3.81584
11
6.04057
21
-3.81747
0
LINE
8
BLACK
6
CONTINUOUS
10
6.04057
20
-3.81747
11
6.03638
21
-3.8183
0
LINE
8
BLACK
6
CONTINUOUS
10
6.03638
20
-3.8183
11
6.03212
21
-3.8183
0
LINE
8
BLACK
6
CONTINUOUS
10
6.03212
20
-3.8183
11
6.02794
21
-3.81747
0
LINE
8
BLACK
6
CONTINUOUS
10
6.02794
20
-3.81747
11
6.024
21
-3.81584
0
LINE
8
BLACK
6
CONTINUOUS
10
6.024
20
-3.81584
11
6.02045
21
-3.81347
0
LINE
8
BLACK
6
CONTINUOUS
10
6.02045
20
-3.81347
11
6.01743
21
-3.81045
0
LINE
8
BLACK
6
CONTINUOUS
10
6.01743
20
-3.81045
11
6.01506
21
-3.80691
0
LINE
8
BLACK
6
CONTINUOUS
10
6.01506
20
-3.80691
11
6.01343
21
-3.80297
0
LINE
8
BLACK
6
CONTINUOUS
10
6.01343
20
-3.80297
11
6.0126
21
-3.79878
0
LINE
8
BLACK
6
CONTINUOUS
10
6.0126
20
-3.79878
11
6.0126
21
-3.79452
0
LINE
8
BLACK
6
CONTINUOUS
10
6.0126
20
-3.79452
11
6.01343
21
-3.79033
0
LINE
8
BLACK
6
CONTINUOUS
10
6.01343
20
-3.79033
11
6.01506
21
-3.78639
0
LINE
8
BLACK
6
CONTINUOUS
10
6.01506
20
-3.78639
11
6.01743
21
-3.78285
0
LINE
8
BLACK
6
CONTINUOUS
10
6.01743
20
-3.78285
11
6.02045
21
-3.77983
0
LINE
8
BLACK
6
CONTINUOUS
10
6.02045
20
-3.77983
11
6.024
21
-3.77746
0
LINE
8
BLACK
6
CONTINUOUS
10
6.024
20
-3.77746
11
6.02794
21
-3.77583
0
LINE
8
BLACK
6
CONTINUOUS
10
6.02794
20
-3.77583
11
6.03212
21
-3.775
0
LINE
8
BLACK
6
CONTINUOUS
10
6.03212
20
-3.775
11
6.03638
21
-3.775
0
LINE
8
BLACK
6
CONTINUOUS
10
6.03638
20
-3.775
11
6.04057
21
-3.77583
0
LINE
8
BLACK
6
CONTINUOUS
10
6.09057
20
-3.77583
11
6.09451
21
-3.77746
0
LINE
8
BLACK
6
CONTINUOUS
10
6.09451
20
-3.77746
11
6.09806
21
-3.77983
0
LINE
8
BLACK
6
CONTINUOUS
10
6.09806
20
-3.77983
11
6.10107
21
-3.78285
0
LINE
8
BLACK
6
CONTINUOUS
10
6.10107
20
-3.78285
11
6.10344
21
-3.78639
0
LINE
8
BLACK
6
CONTINUOUS
10
6.10344
20
-3.78639
11
6.10507
21
-3.79033
0
LINE
8
BLACK
6
CONTINUOUS
10
6.10507
20
-3.79033
11
6.10591
21
-3.79452
0
LINE
8
BLACK
6
CONTINUOUS
10
6.10591
20
-3.79452
11
6.10591
21
-3.79878
0
LINE
8
BLACK
6
CONTINUOUS
10
6.10591
20
-3.79878
11
6.10507
21
-3.80297
0
LINE
8
BLACK
6
CONTINUOUS
10
6.10507
20
-3.80297
11
6.10344
21
-3.80691
0
LINE
8
BLACK
6
CONTINUOUS
10
6.10344
20
-3.80691
11
6.10107
21
-3.81045
0
LINE
8
BLACK
6
CONTINUOUS
10
6.10107
20
-3.81045
11
6.09806
21
-3.81347
0
LINE
8
BLACK
6
CONTINUOUS
10
6.09806
20
-3.81347
11
6.09451
21
-3.81584
0
LINE
8
BLACK
6
CONTINUOUS
10
6.09451
20
-3.81584
11
6.09057
21
-3.81747
0
LINE
8
BLACK
6
CONTINUOUS
10
6.09057
20
-3.81747
11
6.08638
21
-3.8183
0
LINE
8
BLACK
6
CONTINUOUS
10
6.08638
20
-3.8183
11
6.08212
21
-3.8183
0
LINE
8
BLACK
6
CONTINUOUS
10
6.08212
20
-3.8183
11
6.07794
21
-3.81747
0
LINE
8
BLACK
6
CONTINUOUS
10
6.07794
20
-3.81747
11
6.074
21
-3.81584
0
LINE
8
BLACK
6
CONTINUOUS
10
6.074
20
-3.81584
11
6.07045
21
-3.81347
0
LINE
8
BLACK
6
CONTINUOUS
10
6.07045
20
-3.81347
11
6.06743
21
-3.81045
0
LINE
8
BLACK
6
CONTINUOUS
10
6.06743
20
-3.81045
11
6.06506
21
-3.80691
0
LINE
8
BLACK
6
CONTINUOUS
10
6.06506
20
-3.80691
11
6.06343
21
-3.80297
0
LINE
8
BLACK
6
CONTINUOUS
10
6.06343
20
-3.80297
11
6.0626
21
-3.79878
0
LINE
8
BLACK
6
CONTINUOUS
10
6.0626
20
-3.79878
11
6.0626
21
-3.79452
0
LINE
8
BLACK
6
CONTINUOUS
10
6.0626
20
-3.79452
11
6.06343
21
-3.79033
0
LINE
8
BLACK
6
CONTINUOUS
10
6.06343
20
-3.79033
11
6.06506
21
-3.78639
0
LINE
8
BLACK
6
CONTINUOUS
10
6.06506
20
-3.78639
11
6.06743
21
-3.78285
0
LINE
8
BLACK
6
CONTINUOUS
10
6.06743
20
-3.78285
11
6.07045
21
-3.77983
0
LINE
8
BLACK
6
CONTINUOUS
10
6.07045
20
-3.77983
11
6.074
21
-3.77746
0
LINE
8
BLACK
6
CONTINUOUS
10
6.074
20
-3.77746
11
6.07794
21
-3.77583
0
LINE
8
BLACK
6
CONTINUOUS
10
6.07794
20
-3.77583
11
6.08212
21
-3.775
0
LINE
8
BLACK
6
CONTINUOUS
10
6.08212
20
-3.775
11
6.08638
21
-3.775
0
LINE
8
BLACK
6
CONTINUOUS
10
6.08638
20
-3.775
11
6.09057
21
-3.77583
0
LINE
8
BLACK
6
CONTINUOUS
10
5.90591
20
-3.8183
11
5.8626
21
-3.8183
0
LINE
8
BLACK
6
CONTINUOUS
10
5.8626
20
-3.8183
11
5.8626
21
-3.775
0
LINE
8
BLACK
6
CONTINUOUS
10
5.8626
20
-3.775
11
5.90591
21
-3.775
0
LINE
8
BLACK
6
CONTINUOUS
10
5.90591
20
-3.775
11
5.90591
21
-3.8183
0
LINE
8
BLACK
6
CONTINUOUS
10
5.77276
20
-3.76381
11
5.7732
21
-3.76395
0
LINE
8
BLACK
6
CONTINUOUS
10
5.7732
20
-3.76395
11
5.77361
21
-3.76417
0
LINE
8
BLACK
6
CONTINUOUS
10
5.77361
20
-3.76417
11
5.77397
21
-3.76446
0
LINE
8
BLACK
6
CONTINUOUS
10
5.77397
20
-3.76446
11
5.77427
21
-3.76482
0
LINE
8
BLACK
6
CONTINUOUS
10
5.77427
20
-3.76482
11
5.77449
21
-3.76523
0
LINE
8
BLACK
6
CONTINUOUS
10
5.77449
20
-3.76523
11
5.77462
21
-3.76568
0
LINE
8
BLACK
6
CONTINUOUS
10
5.77462
20
-3.76568
11
5.77467
21
-3.76614
0
LINE
8
BLACK
6
CONTINUOUS
10
5.77467
20
-3.76614
11
5.77462
21
-3.7666
0
LINE
8
BLACK
6
CONTINUOUS
10
5.77462
20
-3.7666
11
5.77449
21
-3.76705
0
LINE
8
BLACK
6
CONTINUOUS
10
5.77449
20
-3.76705
11
5.77427
21
-3.76746
0
LINE
8
BLACK
6
CONTINUOUS
10
5.77427
20
-3.76746
11
5.77397
21
-3.76782
0
LINE
8
BLACK
6
CONTINUOUS
10
5.77397
20
-3.76782
11
5.77361
21
-3.76812
0
LINE
8
BLACK
6
CONTINUOUS
10
5.77361
20
-3.76812
11
5.7732
21
-3.76833
0
LINE
8
BLACK
6
CONTINUOUS
10
5.7732
20
-3.76833
11
5.77276
21
-3.76847
0
LINE
8
BLACK
6
CONTINUOUS
10
5.77276
20
-3.76847
11
5.77241
21
-3.7685
0
LINE
8
BLACK
6
CONTINUOUS
10
5.77241
20
-3.7685
11
5.76066
21
-3.7685
0
LINE
8
BLACK
6
CONTINUOUS
10
5.76066
20
-3.7685
11
5.76031
21
-3.76847
0
LINE
8
BLACK
6
CONTINUOUS
10
5.76031
20
-3.76847
11
5.75987
21
-3.76833
0
LINE
8
BLACK
6
CONTINUOUS
10
5.75987
20
-3.76833
11
5.75946
21
-3.76812
0
LINE
8
BLACK
6
CONTINUOUS
10
5.75946
20
-3.76812
11
5.7591
21
-3.76782
0
LINE
8
BLACK
6
CONTINUOUS
10
5.7591
20
-3.76782
11
5.7588
21
-3.76746
0
LINE
8
BLACK
6
CONTINUOUS
10
5.7588
20
-3.76746
11
5.75858
21
-3.76705
0
LINE
8
BLACK
6
CONTINUOUS
10
5.75858
20
-3.76705
11
5.75845
21
-3.7666
0
LINE
8
BLACK
6
CONTINUOUS
10
5.75845
20
-3.7666
11
5.7584
21
-3.76614
0
LINE
8
BLACK
6
CONTINUOUS
10
5.7584
20
-3.76614
11
5.75845
21
-3.76568
0
LINE
8
BLACK
6
CONTINUOUS
10
5.75845
20
-3.76568
11
5.75858
21
-3.76523
0
LINE
8
BLACK
6
CONTINUOUS
10
5.75858
20
-3.76523
11
5.7588
21
-3.76482
0
LINE
8
BLACK
6
CONTINUOUS
10
5.7588
20
-3.76482
11
5.7591
21
-3.76446
0
LINE
8
BLACK
6
CONTINUOUS
10
5.7591
20
-3.76446
11
5.75946
21
-3.76417
0
LINE
8
BLACK
6
CONTINUOUS
10
5.75946
20
-3.76417
11
5.75987
21
-3.76395
0
LINE
8
BLACK
6
CONTINUOUS
10
5.75987
20
-3.76395
11
5.76031
21
-3.76381
0
LINE
8
BLACK
6
CONTINUOUS
10
5.76031
20
-3.76381
11
5.76066
21
-3.76378
0
LINE
8
BLACK
6
CONTINUOUS
10
5.76066
20
-3.76378
11
5.77241
21
-3.76378
0
LINE
8
BLACK
6
CONTINUOUS
10
5.77241
20
-3.76378
11
5.77276
21
-3.76381
0
LINE
8
BLACK
6
CONTINUOUS
10
5.89057
20
-3.72583
11
5.89451
21
-3.72746
0
LINE
8
BLACK
6
CONTINUOUS
10
5.89451
20
-3.72746
11
5.89806
21
-3.72983
0
LINE
8
BLACK
6
CONTINUOUS
10
5.89806
20
-3.72983
11
5.90107
21
-3.73285
0
LINE
8
BLACK
6
CONTINUOUS
10
5.90107
20
-3.73285
11
5.90344
21
-3.73639
0
LINE
8
BLACK
6
CONTINUOUS
10
5.90344
20
-3.73639
11
5.90507
21
-3.74033
0
LINE
8
BLACK
6
CONTINUOUS
10
5.90507
20
-3.74033
11
5.90591
21
-3.74452
0
LINE
8
BLACK
6
CONTINUOUS
10
5.90591
20
-3.74452
11
5.90591
21
-3.74878
0
LINE
8
BLACK
6
CONTINUOUS
10
5.90591
20
-3.74878
11
5.90507
21
-3.75297
0
LINE
8
BLACK
6
CONTINUOUS
10
5.90507
20
-3.75297
11
5.90344
21
-3.75691
0
LINE
8
BLACK
6
CONTINUOUS
10
5.90344
20
-3.75691
11
5.90107
21
-3.76045
0
LINE
8
BLACK
6
CONTINUOUS
10
5.90107
20
-3.76045
11
5.89806
21
-3.76347
0
LINE
8
BLACK
6
CONTINUOUS
10
5.89806
20
-3.76347
11
5.89451
21
-3.76584
0
LINE
8
BLACK
6
CONTINUOUS
10
5.89451
20
-3.76584
11
5.89057
21
-3.76747
0
LINE
8
BLACK
6
CONTINUOUS
10
5.89057
20
-3.76747
11
5.88638
21
-3.7683
0
LINE
8
BLACK
6
CONTINUOUS
10
5.88638
20
-3.7683
11
5.88212
21
-3.7683
0
LINE
8
BLACK
6
CONTINUOUS
10
5.88212
20
-3.7683
11
5.87794
21
-3.76747
0
LINE
8
BLACK
6
CONTINUOUS
10
5.87794
20
-3.76747
11
5.874
21
-3.76584
0
LINE
8
BLACK
6
CONTINUOUS
10
5.874
20
-3.76584
11
5.87045
21
-3.76347
0
LINE
8
BLACK
6
CONTINUOUS
10
5.87045
20
-3.76347
11
5.86743
21
-3.76045
0
LINE
8
BLACK
6
CONTINUOUS
10
5.86743
20
-3.76045
11
5.86506
21
-3.75691
0
LINE
8
BLACK
6
CONTINUOUS
10
5.86506
20
-3.75691
11
5.86343
21
-3.75297
0
LINE
8
BLACK
6
CONTINUOUS
10
5.86343
20
-3.75297
11
5.8626
21
-3.74878
0
LINE
8
BLACK
6
CONTINUOUS
10
5.8626
20
-3.74878
11
5.8626
21
-3.74452
0
LINE
8
BLACK
6
CONTINUOUS
10
5.8626
20
-3.74452
11
5.86343
21
-3.74033
0
LINE
8
BLACK
6
CONTINUOUS
10
5.86343
20
-3.74033
11
5.86506
21
-3.73639
0
LINE
8
BLACK
6
CONTINUOUS
10
5.86506
20
-3.73639
11
5.86743
21
-3.73285
0
LINE
8
BLACK
6
CONTINUOUS
10
5.86743
20
-3.73285
11
5.87045
21
-3.72983
0
LINE
8
BLACK
6
CONTINUOUS
10
5.87045
20
-3.72983
11
5.874
21
-3.72746
0
LINE
8
BLACK
6
CONTINUOUS
10
5.874
20
-3.72746
11
5.87794
21
-3.72583
0
LINE
8
BLACK
6
CONTINUOUS
10
5.87794
20
-3.72583
11
5.88212
21
-3.725
0
LINE
8
BLACK
6
CONTINUOUS
10
5.88212
20
-3.725
11
5.88638
21
-3.725
0
LINE
8
BLACK
6
CONTINUOUS
10
5.88638
20
-3.725
11
5.89057
21
-3.72583
0
LINE
8
BLACK
6
CONTINUOUS
10
5.94057
20
-3.72583
11
5.94451
21
-3.72746
0
LINE
8
BLACK
6
CONTINUOUS
10
5.94451
20
-3.72746
11
5.94806
21
-3.72983
0
LINE
8
BLACK
6
CONTINUOUS
10
5.94806
20
-3.72983
11
5.95107
21
-3.73285
0
LINE
8
BLACK
6
CONTINUOUS
10
5.95107
20
-3.73285
11
5.95344
21
-3.73639
0
LINE
8
BLACK
6
CONTINUOUS
10
5.95344
20
-3.73639
11
5.95507
21
-3.74033
0
LINE
8
BLACK
6
CONTINUOUS
10
5.95507
20
-3.74033
11
5.95591
21
-3.74452
0
LINE
8
BLACK
6
CONTINUOUS
10
5.95591
20
-3.74452
11
5.95591
21
-3.74878
0
LINE
8
BLACK
6
CONTINUOUS
10
5.95591
20
-3.74878
11
5.95507
21
-3.75297
0
LINE
8
BLACK
6
CONTINUOUS
10
5.95507
20
-3.75297
11
5.95344
21
-3.75691
0
LINE
8
BLACK
6
CONTINUOUS
10
5.95344
20
-3.75691
11
5.95107
21
-3.76045
0
LINE
8
BLACK
6
CONTINUOUS
10
5.95107
20
-3.76045
11
5.94806
21
-3.76347
0
LINE
8
BLACK
6
CONTINUOUS
10
5.94806
20
-3.76347
11
5.94451
21
-3.76584
0
LINE
8
BLACK
6
CONTINUOUS
10
5.94451
20
-3.76584
11
5.94057
21
-3.76747
0
LINE
8
BLACK
6
CONTINUOUS
10
5.94057
20
-3.76747
11
5.93638
21
-3.7683
0
LINE
8
BLACK
6
CONTINUOUS
10
5.93638
20
-3.7683
11
5.93212
21
-3.7683
0
LINE
8
BLACK
6
CONTINUOUS
10
5.93212
20
-3.7683
11
5.92794
21
-3.76747
0
LINE
8
BLACK
6
CONTINUOUS
10
5.92794
20
-3.76747
11
5.924
21
-3.76584
0
LINE
8
BLACK
6
CONTINUOUS
10
5.924
20
-3.76584
11
5.92045
21
-3.76347
0
LINE
8
BLACK
6
CONTINUOUS
10
5.92045
20
-3.76347
11
5.91743
21
-3.76045
0
LINE
8
BLACK
6
CONTINUOUS
10
5.91743
20
-3.76045
11
5.91506
21
-3.75691
0
LINE
8
BLACK
6
CONTINUOUS
10
5.91506
20
-3.75691
11
5.91343
21
-3.75297
0
LINE
8
BLACK
6
CONTINUOUS
10
5.91343
20
-3.75297
11
5.9126
21
-3.74878
0
LINE
8
BLACK
6
CONTINUOUS
10
5.9126
20
-3.74878
11
5.9126
21
-3.74452
0
LINE
8
BLACK
6
CONTINUOUS
10
5.9126
20
-3.74452
11
5.91343
21
-3.74033
0
LINE
8
BLACK
6
CONTINUOUS
10
5.91343
20
-3.74033
11
5.91506
21
-3.73639
0
LINE
8
BLACK
6
CONTINUOUS
10
5.91506
20
-3.73639
11
5.91743
21
-3.73285
0
LINE
8
BLACK
6
CONTINUOUS
10
5.91743
20
-3.73285
11
5.92045
21
-3.72983
0
LINE
8
BLACK
6
CONTINUOUS
10
5.92045
20
-3.72983
11
5.924
21
-3.72746
0
LINE
8
BLACK
6
CONTINUOUS
10
5.924
20
-3.72746
11
5.92794
21
-3.72583
0
LINE
8
BLACK
6
CONTINUOUS
10
5.92794
20
-3.72583
11
5.93212
21
-3.725
0
LINE
8
BLACK
6
CONTINUOUS
10
5.93212
20
-3.725
11
5.93638
21
-3.725
0
LINE
8
BLACK
6
CONTINUOUS
10
5.93638
20
-3.725
11
5.94057
21
-3.72583
0
LINE
8
BLACK
6
CONTINUOUS
10
5.99057
20
-3.72583
11
5.99451
21
-3.72746
0
LINE
8
BLACK
6
CONTINUOUS
10
5.99451
20
-3.72746
11
5.99806
21
-3.72983
0
LINE
8
BLACK
6
CONTINUOUS
10
5.99806
20
-3.72983
11
6.00107
21
-3.73285
0
LINE
8
BLACK
6
CONTINUOUS
10
6.00107
20
-3.73285
11
6.00344
21
-3.73639
0
LINE
8
BLACK
6
CONTINUOUS
10
6.00344
20
-3.73639
11
6.00507
21
-3.74033
0
LINE
8
BLACK
6
CONTINUOUS
10
6.00507
20
-3.74033
11
6.00591
21
-3.74452
0
LINE
8
BLACK
6
CONTINUOUS
10
6.00591
20
-3.74452
11
6.00591
21
-3.74878
0
LINE
8
BLACK
6
CONTINUOUS
10
6.00591
20
-3.74878
11
6.00507
21
-3.75297
0
LINE
8
BLACK
6
CONTINUOUS
10
6.00507
20
-3.75297
11
6.00344
21
-3.75691
0
LINE
8
BLACK
6
CONTINUOUS
10
6.00344
20
-3.75691
11
6.00107
21
-3.76045
0
LINE
8
BLACK
6
CONTINUOUS
10
6.00107
20
-3.76045
11
5.99806
21
-3.76347
0
LINE
8
BLACK
6
CONTINUOUS
10
5.99806
20
-3.76347
11
5.99451
21
-3.76584
0
LINE
8
BLACK
6
CONTINUOUS
10
5.99451
20
-3.76584
11
5.99057
21
-3.76747
0
LINE
8
BLACK
6
CONTINUOUS
10
5.99057
20
-3.76747
11
5.98638
21
-3.7683
0
LINE
8
BLACK
6
CONTINUOUS
10
5.98638
20
-3.7683
11
5.98212
21
-3.7683
0
LINE
8
BLACK
6
CONTINUOUS
10
5.98212
20
-3.7683
11
5.97794
21
-3.76747
0
LINE
8
BLACK
6
CONTINUOUS
10
5.97794
20
-3.76747
11
5.974
21
-3.76584
0
LINE
8
BLACK
6
CONTINUOUS
10
5.974
20
-3.76584
11
5.97045
21
-3.76347
0
LINE
8
BLACK
6
CONTINUOUS
10
5.97045
20
-3.76347
11
5.96743
21
-3.76045
0
LINE
8
BLACK
6
CONTINUOUS
10
5.96743
20
-3.76045
11
5.96506
21
-3.75691
0
LINE
8
BLACK
6
CONTINUOUS
10
5.96506
20
-3.75691
11
5.96343
21
-3.75297
0
LINE
8
BLACK
6
CONTINUOUS
10
5.96343
20
-3.75297
11
5.9626
21
-3.74878
0
LINE
8
BLACK
6
CONTINUOUS
10
5.9626
20
-3.74878
11
5.9626
21
-3.74452
0
LINE
8
BLACK
6
CONTINUOUS
10
5.9626
20
-3.74452
11
5.96343
21
-3.74033
0
LINE
8
BLACK
6
CONTINUOUS
10
5.96343
20
-3.74033
11
5.96506
21
-3.73639
0
LINE
8
BLACK
6
CONTINUOUS
10
5.96506
20
-3.73639
11
5.96743
21
-3.73285
0
LINE
8
BLACK
6
CONTINUOUS
10
5.96743
20
-3.73285
11
5.97045
21
-3.72983
0
LINE
8
BLACK
6
CONTINUOUS
10
5.97045
20
-3.72983
11
5.974
21
-3.72746
0
LINE
8
BLACK
6
CONTINUOUS
10
5.974
20
-3.72746
11
5.97794
21
-3.72583
0
LINE
8
BLACK
6
CONTINUOUS
10
5.97794
20
-3.72583
11
5.98212
21
-3.725
0
LINE
8
BLACK
6
CONTINUOUS
10
5.98212
20
-3.725
11
5.98638
21
-3.725
0
LINE
8
BLACK
6
CONTINUOUS
10
5.98638
20
-3.725
11
5.99057
21
-3.72583
0
LINE
8
BLACK
6
CONTINUOUS
10
6.04057
20
-3.72583
11
6.04451
21
-3.72746
0
LINE
8
BLACK
6
CONTINUOUS
10
6.04451
20
-3.72746
11
6.04806
21
-3.72983
0
LINE
8
BLACK
6
CONTINUOUS
10
6.04806
20
-3.72983
11
6.05107
21
-3.73285
0
LINE
8
BLACK
6
CONTINUOUS
10
6.05107
20
-3.73285
11
6.05344
21
-3.73639
0
LINE
8
BLACK
6
CONTINUOUS
10
6.05344
20
-3.73639
11
6.05507
21
-3.74033
0
LINE
8
BLACK
6
CONTINUOUS
10
6.05507
20
-3.74033
11
6.05591
21
-3.74452
0
LINE
8
BLACK
6
CONTINUOUS
10
6.05591
20
-3.74452
11
6.05591
21
-3.74878
0
LINE
8
BLACK
6
CONTINUOUS
10
6.05591
20
-3.74878
11
6.05507
21
-3.75297
0
LINE
8
BLACK
6
CONTINUOUS
10
6.05507
20
-3.75297
11
6.05344
21
-3.75691
0
LINE
8
BLACK
6
CONTINUOUS
10
6.05344
20
-3.75691
11
6.05107
21
-3.76045
0
LINE
8
BLACK
6
CONTINUOUS
10
6.05107
20
-3.76045
11
6.04806
21
-3.76347
0
LINE
8
BLACK
6
CONTINUOUS
10
6.04806
20
-3.76347
11
6.04451
21
-3.76584
0
LINE
8
BLACK
6
CONTINUOUS
10
6.04451
20
-3.76584
11
6.04057
21
-3.76747
0
LINE
8
BLACK
6
CONTINUOUS
10
6.04057
20
-3.76747
11
6.03638
21
-3.7683
0
LINE
8
BLACK
6
CONTINUOUS
10
6.03638
20
-3.7683
11
6.03212
21
-3.7683
0
LINE
8
BLACK
6
CONTINUOUS
10
6.03212
20
-3.7683
11
6.02794
21
-3.76747
0
LINE
8
BLACK
6
CONTINUOUS
10
6.02794
20
-3.76747
11
6.024
21
-3.76584
0
LINE
8
BLACK
6
CONTINUOUS
10
6.024
20
-3.76584
11
6.02045
21
-3.76347
0
LINE
8
BLACK
6
CONTINUOUS
10
6.02045
20
-3.76347
11
6.01743
21
-3.76045
0
LINE
8
BLACK
6
CONTINUOUS
10
6.01743
20
-3.76045
11
6.01506
21
-3.75691
0
LINE
8
BLACK
6
CONTINUOUS
10
6.01506
20
-3.75691
11
6.01343
21
-3.75297
0
LINE
8
BLACK
6
CONTINUOUS
10
6.01343
20
-3.75297
11
6.0126
21
-3.74878
0
LINE
8
BLACK
6
CONTINUOUS
10
6.0126
20
-3.74878
11
6.0126
21
-3.74452
0
LINE
8
BLACK
6
CONTINUOUS
10
6.0126
20
-3.74452
11
6.01343
21
-3.74033
0
LINE
8
BLACK
6
CONTINUOUS
10
6.01343
20
-3.74033
11
6.01506
21
-3.73639
0
LINE
8
BLACK
6
CONTINUOUS
10
6.01506
20
-3.73639
11
6.01743
21
-3.73285
0
LINE
8
BLACK
6
CONTINUOUS
10
6.01743
20
-3.73285
11
6.02045
21
-3.72983
0
LINE
8
BLACK
6
CONTINUOUS
10
6.02045
20
-3.72983
11
6.024
21
-3.72746
0
LINE
8
BLACK
6
CONTINUOUS
10
6.024
20
-3.72746
11
6.02794
21
-3.72583
0
LINE
8
BLACK
6
CONTINUOUS
10
6.02794
20
-3.72583
11
6.03212
21
-3.725
0
LINE
8
BLACK
6
CONTINUOUS
10
6.03212
20
-3.725
11
6.03638
21
-3.725
0
LINE
8
BLACK
6
CONTINUOUS
10
6.03638
20
-3.725
11
6.04057
21
-3.72583
0
LINE
8
BLACK
6
CONTINUOUS
10
6.09057
20
-3.72583
11
6.09451
21
-3.72746
0
LINE
8
BLACK
6
CONTINUOUS
10
6.09451
20
-3.72746
11
6.09806
21
-3.72983
0
LINE
8
BLACK
6
CONTINUOUS
10
6.09806
20
-3.72983
11
6.10107
21
-3.73285
0
LINE
8
BLACK
6
CONTINUOUS
10
6.10107
20
-3.73285
11
6.10344
21
-3.73639
0
LINE
8
BLACK
6
CONTINUOUS
10
6.10344
20
-3.73639
11
6.10507
21
-3.74033
0
LINE
8
BLACK
6
CONTINUOUS
10
6.10507
20
-3.74033
11
6.10591
21
-3.74452
0
LINE
8
BLACK
6
CONTINUOUS
10
6.10591
20
-3.74452
11
6.10591
21
-3.74878
0
LINE
8
BLACK
6
CONTINUOUS
10
6.10591
20
-3.74878
11
6.10507
21
-3.75297
0
LINE
8
BLACK
6
CONTINUOUS
10
6.10507
20
-3.75297
11
6.10344
21
-3.75691
0
LINE
8
BLACK
6
CONTINUOUS
10
6.10344
20
-3.75691
11
6.10107
21
-3.76045
0
LINE
8
BLACK
6
CONTINUOUS
10
6.10107
20
-3.76045
11
6.09806
21
-3.76347
0
LINE
8
BLACK
6
CONTINUOUS
10
6.09806
20
-3.76347
11
6.09451
21
-3.76584
0
LINE
8
BLACK
6
CONTINUOUS
10
6.09451
20
-3.76584
11
6.09057
21
-3.76747
0
LINE
8
BLACK
6
CONTINUOUS
10
6.09057
20
-3.76747
11
6.08638
21
-3.7683
0
LINE
8
BLACK
6
CONTINUOUS
10
6.08638
20
-3.7683
11
6.08212
21
-3.7683
0
LINE
8
BLACK
6
CONTINUOUS
10
6.08212
20
-3.7683
11
6.07794
21
-3.76747
0
LINE
8
BLACK
6
CONTINUOUS
10
6.07794
20
-3.76747
11
6.074
21
-3.76584
0
LINE
8
BLACK
6
CONTINUOUS
10
6.074
20
-3.76584
11
6.07045
21
-3.76347
0
LINE
8
BLACK
6
CONTINUOUS
10
6.07045
20
-3.76347
11
6.06743
21
-3.76045
0
LINE
8
BLACK
6
CONTINUOUS
10
6.06743
20
-3.76045
11
6.06506
21
-3.75691
0
LINE
8
BLACK
6
CONTINUOUS
10
6.06506
20
-3.75691
11
6.06343
21
-3.75297
0
LINE
8
BLACK
6
CONTINUOUS
10
6.06343
20
-3.75297
11
6.0626
21
-3.74878
0
LINE
8
BLACK
6
CONTINUOUS
10
6.0626
20
-3.74878
11
6.0626
21
-3.74452
0
LINE
8
BLACK
6
CONTINUOUS
10
6.0626
20
-3.74452
11
6.06343
21
-3.74033
0
LINE
8
BLACK
6
CONTINUOUS
10
6.06343
20
-3.74033
11
6.06506
21
-3.73639
0
LINE
8
BLACK
6
CONTINUOUS
10
6.06506
20
-3.73639
11
6.06743
21
-3.73285
0
LINE
8
BLACK
6
CONTINUOUS
10
6.06743
20
-3.73285
11
6.07045
21
-3.72983
0
LINE
8
BLACK
6
CONTINUOUS
10
6.07045
20
-3.72983
11
6.074
21
-3.72746
0
LINE
8
BLACK
6
CONTINUOUS
10
6.074
20
-3.72746
11
6.07794
21
-3.72583
0
LINE
8
BLACK
6
CONTINUOUS
10
6.07794
20
-3.72583
11
6.08212
21
-3.725
0
LINE
8
BLACK
6
CONTINUOUS
10
6.08212
20
-3.725
11
6.08638
21
-3.725
0
LINE
8
BLACK
6
CONTINUOUS
10
6.08638
20
-3.725
11
6.09057
21
-3.72583
0
LINE
8
BLACK
6
CONTINUOUS
10
5.77276
20
-3.72366
11
5.7732
21
-3.72379
0
LINE
8
BLACK
6
CONTINUOUS
10
5.7732
20
-3.72379
11
5.77361
21
-3.72401
0
LINE
8
BLACK
6
CONTINUOUS
10
5.77361
20
-3.72401
11
5.77397
21
-3.72431
0
LINE
8
BLACK
6
CONTINUOUS
10
5.77397
20
-3.72431
11
5.77427
21
-3.72467
0
LINE
8
BLACK
6
CONTINUOUS
10
5.77427
20
-3.72467
11
5.77449
21
-3.72508
0
LINE
8
BLACK
6
CONTINUOUS
10
5.77449
20
-3.72508
11
5.77462
21
-3.72552
0
LINE
8
BLACK
6
CONTINUOUS
10
5.77462
20
-3.72552
11
5.77467
21
-3.72598
0
LINE
8
BLACK
6
CONTINUOUS
10
5.77467
20
-3.72598
11
5.77462
21
-3.72645
0
LINE
8
BLACK
6
CONTINUOUS
10
5.77462
20
-3.72645
11
5.77449
21
-3.72689
0
LINE
8
BLACK
6
CONTINUOUS
10
5.77449
20
-3.72689
11
5.77427
21
-3.7273
0
LINE
8
BLACK
6
CONTINUOUS
10
5.77427
20
-3.7273
11
5.77397
21
-3.72766
0
LINE
8
BLACK
6
CONTINUOUS
10
5.77397
20
-3.72766
11
5.77361
21
-3.72796
0
LINE
8
BLACK
6
CONTINUOUS
10
5.77361
20
-3.72796
11
5.7732
21
-3.72818
0
LINE
8
BLACK
6
CONTINUOUS
10
5.7732
20
-3.72818
11
5.77276
21
-3.72831
0
LINE
8
BLACK
6
CONTINUOUS
10
5.77276
20
-3.72831
11
5.77241
21
-3.72835
0
LINE
8
BLACK
6
CONTINUOUS
10
5.77241
20
-3.72835
11
5.76066
21
-3.72835
0
LINE
8
BLACK
6
CONTINUOUS
10
5.76066
20
-3.72835
11
5.76031
21
-3.72831
0
LINE
8
BLACK
6
CONTINUOUS
10
5.76031
20
-3.72831
11
5.75987
21
-3.72818
0
LINE
8
BLACK
6
CONTINUOUS
10
5.75987
20
-3.72818
11
5.75946
21
-3.72796
0
LINE
8
BLACK
6
CONTINUOUS
10
5.75946
20
-3.72796
11
5.7591
21
-3.72766
0
LINE
8
BLACK
6
CONTINUOUS
10
5.7591
20
-3.72766
11
5.7588
21
-3.7273
0
LINE
8
BLACK
6
CONTINUOUS
10
5.7588
20
-3.7273
11
5.75858
21
-3.72689
0
LINE
8
BLACK
6
CONTINUOUS
10
5.75858
20
-3.72689
11
5.75845
21
-3.72645
0
LINE
8
BLACK
6
CONTINUOUS
10
5.75845
20
-3.72645
11
5.7584
21
-3.72598
0
LINE
8
BLACK
6
CONTINUOUS
10
5.7584
20
-3.72598
11
5.75845
21
-3.72552
0
LINE
8
BLACK
6
CONTINUOUS
10
5.75845
20
-3.72552
11
5.75858
21
-3.72508
0
LINE
8
BLACK
6
CONTINUOUS
10
5.75858
20
-3.72508
11
5.7588
21
-3.72467
0
LINE
8
BLACK
6
CONTINUOUS
10
5.7588
20
-3.72467
11
5.7591
21
-3.72431
0
LINE
8
BLACK
6
CONTINUOUS
10
5.7591
20
-3.72431
11
5.75946
21
-3.72401
0
LINE
8
BLACK
6
CONTINUOUS
10
5.75946
20
-3.72401
11
5.75987
21
-3.72379
0
LINE
8
BLACK
6
CONTINUOUS
10
5.75987
20
-3.72379
11
5.76031
21
-3.72366
0
LINE
8
BLACK
6
CONTINUOUS
10
5.76031
20
-3.72366
11
5.76066
21
-3.72362
0
LINE
8
BLACK
6
CONTINUOUS
10
5.76066
20
-3.72362
11
5.77241
21
-3.72362
0
LINE
8
BLACK
6
CONTINUOUS
10
5.77241
20
-3.72362
11
5.77276
21
-3.72366
0
LINE
8
BLACK
6
CONTINUOUS
10
5.78624
20
-3.66328
11
5.78625
21
-3.66328
0
LINE
8
BLACK
6
CONTINUOUS
10
5.78625
20
-3.66328
11
5.78653
21
-3.66331
0
LINE
8
BLACK
6
CONTINUOUS
10
5.78653
20
-3.66331
11
5.78681
21
-3.66334
0
LINE
8
BLACK
6
CONTINUOUS
10
5.78681
20
-3.66334
11
5.78682
21
-3.66334
0
LINE
8
BLACK
6
CONTINUOUS
10
5.78682
20
-3.66334
11
5.78682
21
-3.66334
0
LINE
8
BLACK
6
CONTINUOUS
10
5.78682
20
-3.66334
11
5.78709
21
-3.66343
0
LINE
8
BLACK
6
CONTINUOUS
10
5.78709
20
-3.66343
11
5.78736
21
-3.66351
0
LINE
8
BLACK
6
CONTINUOUS
10
5.78736
20
-3.66351
11
5.78737
21
-3.66351
0
LINE
8
BLACK
6
CONTINUOUS
10
5.78737
20
-3.66351
11
5.78737
21
-3.66352
0
LINE
8
BLACK
6
CONTINUOUS
10
5.78737
20
-3.66352
11
5.78761
21
-3.66364
0
LINE
8
BLACK
6
CONTINUOUS
10
5.78761
20
-3.66364
11
5.78787
21
-3.66379
0
LINE
8
BLACK
6
CONTINUOUS
10
5.78787
20
-3.66379
11
5.78787
21
-3.66379
0
LINE
8
BLACK
6
CONTINUOUS
10
5.78787
20
-3.66379
11
5.78788
21
-3.66379
0
LINE
8
BLACK
6
CONTINUOUS
10
5.78788
20
-3.66379
11
5.78808
21
-3.66396
0
LINE
8
BLACK
6
CONTINUOUS
10
5.78808
20
-3.66396
11
5.78832
21
-3.66415
0
LINE
8
BLACK
6
CONTINUOUS
10
5.78832
20
-3.66415
11
5.78832
21
-3.66416
0
LINE
8
BLACK
6
CONTINUOUS
10
5.78832
20
-3.66416
11
5.78832
21
-3.66416
0
LINE
8
BLACK
6
CONTINUOUS
10
5.78832
20
-3.66416
11
5.7885
21
-3.66438
0
LINE
8
BLACK
6
CONTINUOUS
10
5.7885
20
-3.66438
11
5.78868
21
-3.6646
0
LINE
8
BLACK
6
CONTINUOUS
10
5.78868
20
-3.6646
11
5.78868
21
-3.6646
0
LINE
8
BLACK
6
CONTINUOUS
10
5.78868
20
-3.6646
11
5.78868
21
-3.66461
0
LINE
8
BLACK
6
CONTINUOUS
10
5.78868
20
-3.66461
11
5.78882
21
-3.66486
0
LINE
8
BLACK
6
CONTINUOUS
10
5.78882
20
-3.66486
11
5.78895
21
-3.66511
0
LINE
8
BLACK
6
CONTINUOUS
10
5.78895
20
-3.66511
11
5.78895
21
-3.66511
0
LINE
8
BLACK
6
CONTINUOUS
10
5.78895
20
-3.66511
11
5.78895
21
-3.66511
0
LINE
8
BLACK
6
CONTINUOUS
10
5.78895
20
-3.66511
11
5.78903
21
-3.66537
0
LINE
8
BLACK
6
CONTINUOUS
10
5.78903
20
-3.66537
11
5.78912
21
-3.66566
0
LINE
8
BLACK
6
CONTINUOUS
10
5.78912
20
-3.66566
11
5.78912
21
-3.66566
0
LINE
8
BLACK
6
CONTINUOUS
10
5.78912
20
-3.66566
11
5.78912
21
-3.66567
0
LINE
8
BLACK
6
CONTINUOUS
10
5.78912
20
-3.66567
11
5.78915
21
-3.66595
0
LINE
8
BLACK
6
CONTINUOUS
10
5.78915
20
-3.66595
11
5.78917
21
-3.66624
0
LINE
8
BLACK
6
CONTINUOUS
10
5.78917
20
-3.66624
11
5.78917
21
-3.70265
0
LINE
8
BLACK
6
CONTINUOUS
10
5.78917
20
-3.70265
11
5.79747
21
-3.70265
0
LINE
8
BLACK
6
CONTINUOUS
10
5.79747
20
-3.70265
11
5.79751
21
-3.70265
0
LINE
8
BLACK
6
CONTINUOUS
10
5.79751
20
-3.70265
11
5.79808
21
-3.70272
0
LINE
8
BLACK
6
CONTINUOUS
10
5.79808
20
-3.70272
11
5.79863
21
-3.70289
0
LINE
8
BLACK
6
CONTINUOUS
10
5.79863
20
-3.70289
11
5.79914
21
-3.70317
0
LINE
8
BLACK
6
CONTINUOUS
10
5.79914
20
-3.70317
11
5.79958
21
-3.70354
0
LINE
8
BLACK
6
CONTINUOUS
10
5.79958
20
-3.70354
11
5.79994
21
-3.70399
0
LINE
8
BLACK
6
CONTINUOUS
10
5.79994
20
-3.70399
11
5.80021
21
-3.7045
0
LINE
8
BLACK
6
CONTINUOUS
10
5.80021
20
-3.7045
11
5.80037
21
-3.70505
0
LINE
8
BLACK
6
CONTINUOUS
10
5.80037
20
-3.70505
11
5.80042
21
-3.70563
0
LINE
8
BLACK
6
CONTINUOUS
10
5.80042
20
-3.70563
11
5.80036
21
-3.7062
0
LINE
8
BLACK
6
CONTINUOUS
10
5.80036
20
-3.7062
11
5.80019
21
-3.70675
0
LINE
8
BLACK
6
CONTINUOUS
10
5.80019
20
-3.70675
11
5.79992
21
-3.70726
0
LINE
8
BLACK
6
CONTINUOUS
10
5.79992
20
-3.70726
11
5.79955
21
-3.7077
0
LINE
8
BLACK
6
CONTINUOUS
10
5.79955
20
-3.7077
11
5.7991
21
-3.70806
0
LINE
8
BLACK
6
CONTINUOUS
10
5.7991
20
-3.70806
11
5.79859
21
-3.70834
0
LINE
8
BLACK
6
CONTINUOUS
10
5.79859
20
-3.70834
11
5.79804
21
-3.7085
0
LINE
8
BLACK
6
CONTINUOUS
10
5.79804
20
-3.7085
11
5.79747
21
-3.70856
0
LINE
8
BLACK
6
CONTINUOUS
10
5.79747
20
-3.70856
11
5.77497
21
-3.70856
0
LINE
8
BLACK
6
CONTINUOUS
10
5.77497
20
-3.70856
11
5.77493
21
-3.70856
0
LINE
8
BLACK
6
CONTINUOUS
10
5.77493
20
-3.70856
11
5.77436
21
-3.70849
0
LINE
8
BLACK
6
CONTINUOUS
10
5.77436
20
-3.70849
11
5.77381
21
-3.70832
0
LINE
8
BLACK
6
CONTINUOUS
10
5.77381
20
-3.70832
11
5.7733
21
-3.70804
0
LINE
8
BLACK
6
CONTINUOUS
10
5.7733
20
-3.70804
11
5.77286
21
-3.70767
0
LINE
8
BLACK
6
CONTINUOUS
10
5.77286
20
-3.70767
11
5.7725
21
-3.70722
0
LINE
8
BLACK
6
CONTINUOUS
10
5.7725
20
-3.70722
11
5.77223
21
-3.70671
0
LINE
8
BLACK
6
CONTINUOUS
10
5.77223
20
-3.70671
11
5.77207
21
-3.70616
0
LINE
8
BLACK
6
CONTINUOUS
10
5.77207
20
-3.70616
11
5.77202
21
-3.70558
0
LINE
8
BLACK
6
CONTINUOUS
10
5.77202
20
-3.70558
11
5.77208
21
-3.70501
0
LINE
8
BLACK
6
CONTINUOUS
10
5.77208
20
-3.70501
11
5.77225
21
-3.70446
0
LINE
8
BLACK
6
CONTINUOUS
10
5.77225
20
-3.70446
11
5.77252
21
-3.70395
0
LINE
8
BLACK
6
CONTINUOUS
10
5.77252
20
-3.70395
11
5.77289
21
-3.70351
0
LINE
8
BLACK
6
CONTINUOUS
10
5.77289
20
-3.70351
11
5.77334
21
-3.70315
0
LINE
8
BLACK
6
CONTINUOUS
10
5.77334
20
-3.70315
11
5.77385
21
-3.70288
0
LINE
8
BLACK
6
CONTINUOUS
10
5.77385
20
-3.70288
11
5.7744
21
-3.70271
0
LINE
8
BLACK
6
CONTINUOUS
10
5.7744
20
-3.70271
11
5.77497
21
-3.70265
0
LINE
8
BLACK
6
CONTINUOUS
10
5.77497
20
-3.70265
11
5.78327
21
-3.70265
0
LINE
8
BLACK
6
CONTINUOUS
10
5.78327
20
-3.70265
11
5.78327
21
-3.67524
0
LINE
8
BLACK
6
CONTINUOUS
10
5.78327
20
-3.67524
11
5.78081
21
-3.6777
0
LINE
8
BLACK
6
CONTINUOUS
10
5.78081
20
-3.6777
11
5.78078
21
-3.67773
0
LINE
8
BLACK
6
CONTINUOUS
10
5.78078
20
-3.67773
11
5.78065
21
-3.67783
0
LINE
8
BLACK
6
CONTINUOUS
10
5.78065
20
-3.67783
11
5.78053
21
-3.67794
0
LINE
8
BLACK
6
CONTINUOUS
10
5.78053
20
-3.67794
11
5.78043
21
-3.67801
0
LINE
8
BLACK
6
CONTINUOUS
10
5.78043
20
-3.67801
11
5.78033
21
-3.67809
0
LINE
8
BLACK
6
CONTINUOUS
10
5.78033
20
-3.67809
11
5.78018
21
-3.67816
0
LINE
8
BLACK
6
CONTINUOUS
10
5.78018
20
-3.67816
11
5.78004
21
-3.67825
0
LINE
8
BLACK
6
CONTINUOUS
10
5.78004
20
-3.67825
11
5.77629
21
-3.68013
0
LINE
8
BLACK
6
CONTINUOUS
10
5.77629
20
-3.68013
11
5.77626
21
-3.68014
0
LINE
8
BLACK
6
CONTINUOUS
10
5.77626
20
-3.68014
11
5.77571
21
-3.68034
0
LINE
8
BLACK
6
CONTINUOUS
10
5.77571
20
-3.68034
11
5.77515
21
-3.68043
0
LINE
8
BLACK
6
CONTINUOUS
10
5.77515
20
-3.68043
11
5.77457
21
-3.68041
0
LINE
8
BLACK
6
CONTINUOUS
10
5.77457
20
-3.68041
11
5.77401
21
-3.68028
0
LINE
8
BLACK
6
CONTINUOUS
10
5.77401
20
-3.68028
11
5.77348
21
-3.68004
0
LINE
8
BLACK
6
CONTINUOUS
10
5.77348
20
-3.68004
11
5.77302
21
-3.6797
0
LINE
8
BLACK
6
CONTINUOUS
10
5.77302
20
-3.6797
11
5.77263
21
-3.67928
0
LINE
8
BLACK
6
CONTINUOUS
10
5.77263
20
-3.67928
11
5.77232
21
-3.67879
0
LINE
8
BLACK
6
CONTINUOUS
10
5.77232
20
-3.67879
11
5.77212
21
-3.67825
0
LINE
8
BLACK
6
CONTINUOUS
10
5.77212
20
-3.67825
11
5.77203
21
-3.67768
0
LINE
8
BLACK
6
CONTINUOUS
10
5.77203
20
-3.67768
11
5.77204
21
-3.6771
0
LINE
8
BLACK
6
CONTINUOUS
10
5.77204
20
-3.6771
11
5.77217
21
-3.67654
0
LINE
8
BLACK
6
CONTINUOUS
10
5.77217
20
-3.67654
11
5.77241
21
-3.67602
0
LINE
8
BLACK
6
CONTINUOUS
10
5.77241
20
-3.67602
11
5.77274
21
-3.67555
0
LINE
8
BLACK
6
CONTINUOUS
10
5.77274
20
-3.67555
11
5.77316
21
-3.67515
0
LINE
8
BLACK
6
CONTINUOUS
10
5.77316
20
-3.67515
11
5.77365
21
-3.67484
0
LINE
8
BLACK
6
CONTINUOUS
10
5.77365
20
-3.67484
11
5.77697
21
-3.67318
0
LINE
8
BLACK
6
CONTINUOUS
10
5.77697
20
-3.67318
11
5.78018
21
-3.66998
0
LINE
8
BLACK
6
CONTINUOUS
10
5.78018
20
-3.66998
11
5.78376
21
-3.6646
0
LINE
8
BLACK
6
CONTINUOUS
10
5.78376
20
-3.6646
11
5.78378
21
-3.66457
0
LINE
8
BLACK
6
CONTINUOUS
10
5.78378
20
-3.66457
11
5.78378
21
-3.66457
0
LINE
8
BLACK
6
CONTINUOUS
10
5.78378
20
-3.66457
11
5.78378
21
-3.66457
0
LINE
8
BLACK
6
CONTINUOUS
10
5.78378
20
-3.66457
11
5.78379
21
-3.66456
0
LINE
8
BLACK
6
CONTINUOUS
10
5.78379
20
-3.66456
11
5.78397
21
-3.66435
0
LINE
8
BLACK
6
CONTINUOUS
10
5.78397
20
-3.66435
11
5.78415
21
-3.66413
0
LINE
8
BLACK
6
CONTINUOUS
10
5.78415
20
-3.66413
11
5.78416
21
-3.66412
0
LINE
8
BLACK
6
CONTINUOUS
10
5.78416
20
-3.66412
11
5.78416
21
-3.66412
0
LINE
8
BLACK
6
CONTINUOUS
10
5.78416
20
-3.66412
11
5.78438
21
-3.66394
0
LINE
8
BLACK
6
CONTINUOUS
10
5.78438
20
-3.66394
11
5.7846
21
-3.66376
0
LINE
8
BLACK
6
CONTINUOUS
10
5.7846
20
-3.66376
11
5.78461
21
-3.66376
0
LINE
8
BLACK
6
CONTINUOUS
10
5.78461
20
-3.66376
11
5.78461
21
-3.66376
0
LINE
8
BLACK
6
CONTINUOUS
10
5.78461
20
-3.66376
11
5.78487
21
-3.66363
0
LINE
8
BLACK
6
CONTINUOUS
10
5.78487
20
-3.66363
11
5.78511
21
-3.6635
0
LINE
8
BLACK
6
CONTINUOUS
10
5.78511
20
-3.6635
11
5.78512
21
-3.6635
0
LINE
8
BLACK
6
CONTINUOUS
10
5.78512
20
-3.6635
11
5.78512
21
-3.6635
0
LINE
8
BLACK
6
CONTINUOUS
10
5.78512
20
-3.6635
11
5.78538
21
-3.66342
0
LINE
8
BLACK
6
CONTINUOUS
10
5.78538
20
-3.66342
11
5.78567
21
-3.66333
0
LINE
8
BLACK
6
CONTINUOUS
10
5.78567
20
-3.66333
11
5.78567
21
-3.66333
0
LINE
8
BLACK
6
CONTINUOUS
10
5.78567
20
-3.66333
11
5.78567
21
-3.66333
0
LINE
8
BLACK
6
CONTINUOUS
10
5.78567
20
-3.66333
11
5.78594
21
-3.66331
0
LINE
8
BLACK
6
CONTINUOUS
10
5.78594
20
-3.66331
11
5.78624
21
-3.66328
0
LINE
8
BLACK
6
CONTINUOUS
10
5.78624
20
-3.66328
11
5.78624
21
-3.66328
0
LINE
8
BLACK
6
CONTINUOUS
10
5.75252
20
-3.66328
11
5.75268
21
-3.6633
0
LINE
8
BLACK
6
CONTINUOUS
10
5.75268
20
-3.6633
11
5.75285
21
-3.66331
0
LINE
8
BLACK
6
CONTINUOUS
10
5.75285
20
-3.66331
11
5.75297
21
-3.66333
0
LINE
8
BLACK
6
CONTINUOUS
10
5.75297
20
-3.66333
11
5.75309
21
-3.66335
0
LINE
8
BLACK
6
CONTINUOUS
10
5.75309
20
-3.66335
11
5.75325
21
-3.6634
0
LINE
8
BLACK
6
CONTINUOUS
10
5.75325
20
-3.6634
11
5.75341
21
-3.66343
0
LINE
8
BLACK
6
CONTINUOUS
10
5.75341
20
-3.66343
11
5.75903
21
-3.66531
0
LINE
8
BLACK
6
CONTINUOUS
10
5.75903
20
-3.66531
11
5.75907
21
-3.66532
0
LINE
8
BLACK
6
CONTINUOUS
10
5.75907
20
-3.66532
11
5.75915
21
-3.66536
0
LINE
8
BLACK
6
CONTINUOUS
10
5.75915
20
-3.66536
11
5.75923
21
-3.66538
0
LINE
8
BLACK
6
CONTINUOUS
10
5.75923
20
-3.66538
11
5.75941
21
-3.66548
0
LINE
8
BLACK
6
CONTINUOUS
10
5.75941
20
-3.66548
11
5.75959
21
-3.66556
0
LINE
8
BLACK
6
CONTINUOUS
10
5.75959
20
-3.66556
11
5.75966
21
-3.66562
0
LINE
8
BLACK
6
CONTINUOUS
10
5.75966
20
-3.66562
11
5.75974
21
-3.66566
0
LINE
8
BLACK
6
CONTINUOUS
10
5.75974
20
-3.66566
11
5.7599
21
-3.66578
0
LINE
8
BLACK
6
CONTINUOUS
10
5.7599
20
-3.66578
11
5.76006
21
-3.6659
0
LINE
8
BLACK
6
CONTINUOUS
10
5.76006
20
-3.6659
11
5.76012
21
-3.66597
0
LINE
8
BLACK
6
CONTINUOUS
10
5.76012
20
-3.66597
11
5.76019
21
-3.66602
0
LINE
8
BLACK
6
CONTINUOUS
10
5.76019
20
-3.66602
11
5.76206
21
-3.6679
0
LINE
8
BLACK
6
CONTINUOUS
10
5.76206
20
-3.6679
11
5.76209
21
-3.66793
0
LINE
8
BLACK
6
CONTINUOUS
10
5.76209
20
-3.66793
11
5.76245
21
-3.66838
0
LINE
8
BLACK
6
CONTINUOUS
10
5.76245
20
-3.66838
11
5.76272
21
-3.66889
0
LINE
8
BLACK
6
CONTINUOUS
10
5.76272
20
-3.66889
11
5.76288
21
-3.66944
0
LINE
8
BLACK
6
CONTINUOUS
10
5.76288
20
-3.66944
11
5.76293
21
-3.67002
0
LINE
8
BLACK
6
CONTINUOUS
10
5.76293
20
-3.67002
11
5.76286
21
-3.67059
0
LINE
8
BLACK
6
CONTINUOUS
10
5.76286
20
-3.67059
11
5.76269
21
-3.67114
0
LINE
8
BLACK
6
CONTINUOUS
10
5.76269
20
-3.67114
11
5.76242
21
-3.67164
0
LINE
8
BLACK
6
CONTINUOUS
10
5.76242
20
-3.67164
11
5.76205
21
-3.67209
0
LINE
8
BLACK
6
CONTINUOUS
10
5.76205
20
-3.67209
11
5.7616
21
-3.67245
0
LINE
8
BLACK
6
CONTINUOUS
10
5.7616
20
-3.67245
11
5.76109
21
-3.67272
0
LINE
8
BLACK
6
CONTINUOUS
10
5.76109
20
-3.67272
11
5.76054
21
-3.67288
0
LINE
8
BLACK
6
CONTINUOUS
10
5.76054
20
-3.67288
11
5.75996
21
-3.67294
0
LINE
8
BLACK
6
CONTINUOUS
10
5.75996
20
-3.67294
11
5.75939
21
-3.67288
0
LINE
8
BLACK
6
CONTINUOUS
10
5.75939
20
-3.67288
11
5.75884
21
-3.67271
0
LINE
8
BLACK
6
CONTINUOUS
10
5.75884
20
-3.67271
11
5.75833
21
-3.67244
0
LINE
8
BLACK
6
CONTINUOUS
10
5.75833
20
-3.67244
11
5.75789
21
-3.67207
0
LINE
8
BLACK
6
CONTINUOUS
10
5.75789
20
-3.67207
11
5.7565
21
-3.67069
0
LINE
8
BLACK
6
CONTINUOUS
10
5.7565
20
-3.67069
11
5.752
21
-3.66919
0
LINE
8
BLACK
6
CONTINUOUS
10
5.752
20
-3.66919
11
5.7492
21
-3.66919
0
LINE
8
BLACK
6
CONTINUOUS
10
5.7492
20
-3.66919
11
5.7447
21
-3.67069
0
LINE
8
BLACK
6
CONTINUOUS
10
5.7447
20
-3.67069
11
5.74178
21
-3.67361
0
LINE
8
BLACK
6
CONTINUOUS
10
5.74178
20
-3.67361
11
5.74026
21
-3.67664
0
LINE
8
BLACK
6
CONTINUOUS
10
5.74026
20
-3.67664
11
5.73855
21
-3.68347
0
LINE
8
BLACK
6
CONTINUOUS
10
5.73855
20
-3.68347
11
5.73855
21
-3.68837
0
LINE
8
BLACK
6
CONTINUOUS
10
5.73855
20
-3.68837
11
5.74026
21
-3.6952
0
LINE
8
BLACK
6
CONTINUOUS
10
5.74026
20
-3.6952
11
5.74178
21
-3.69823
0
LINE
8
BLACK
6
CONTINUOUS
10
5.74178
20
-3.69823
11
5.7447
21
-3.70115
0
LINE
8
BLACK
6
CONTINUOUS
10
5.7447
20
-3.70115
11
5.7492
21
-3.70265
0
LINE
8
BLACK
6
CONTINUOUS
10
5.7492
20
-3.70265
11
5.752
21
-3.70265
0
LINE
8
BLACK
6
CONTINUOUS
10
5.752
20
-3.70265
11
5.7565
21
-3.70115
0
LINE
8
BLACK
6
CONTINUOUS
10
5.7565
20
-3.70115
11
5.75789
21
-3.69977
0
LINE
8
BLACK
6
CONTINUOUS
10
5.75789
20
-3.69977
11
5.75792
21
-3.69974
0
LINE
8
BLACK
6
CONTINUOUS
10
5.75792
20
-3.69974
11
5.75837
21
-3.69938
0
LINE
8
BLACK
6
CONTINUOUS
10
5.75837
20
-3.69938
11
5.75888
21
-3.69911
0
LINE
8
BLACK
6
CONTINUOUS
10
5.75888
20
-3.69911
11
5.75943
21
-3.69895
0
LINE
8
BLACK
6
CONTINUOUS
10
5.75943
20
-3.69895
11
5.76
21
-3.6989
0
LINE
8
BLACK
6
CONTINUOUS
10
5.76
20
-3.6989
11
5.76058
21
-3.69897
0
LINE
8
BLACK
6
CONTINUOUS
10
5.76058
20
-3.69897
11
5.76113
21
-3.69914
0
LINE
8
BLACK
6
CONTINUOUS
10
5.76113
20
-3.69914
11
5.76163
21
-3.69941
0
LINE
8
BLACK
6
CONTINUOUS
10
5.76163
20
-3.69941
11
5.76208
21
-3.69978
0
LINE
8
BLACK
6
CONTINUOUS
10
5.76208
20
-3.69978
11
5.76244
21
-3.70023
0
LINE
8
BLACK
6
CONTINUOUS
10
5.76244
20
-3.70023
11
5.76271
21
-3.70074
0
LINE
8
BLACK
6
CONTINUOUS
10
5.76271
20
-3.70074
11
5.76287
21
-3.70129
0
LINE
8
BLACK
6
CONTINUOUS
10
5.76287
20
-3.70129
11
5.76293
21
-3.70187
0
LINE
8
BLACK
6
CONTINUOUS
10
5.76293
20
-3.70187
11
5.76287
21
-3.70244
0
LINE
8
BLACK
6
CONTINUOUS
10
5.76287
20
-3.70244
11
5.7627
21
-3.70299
0
LINE
8
BLACK
6
CONTINUOUS
10
5.7627
20
-3.70299
11
5.76243
21
-3.7035
0
LINE
8
BLACK
6
CONTINUOUS
10
5.76243
20
-3.7035
11
5.76206
21
-3.70394
0
LINE
8
BLACK
6
CONTINUOUS
10
5.76206
20
-3.70394
11
5.76019
21
-3.70582
0
LINE
8
BLACK
6
CONTINUOUS
10
5.76019
20
-3.70582
11
5.76016
21
-3.70585
0
LINE
8
BLACK
6
CONTINUOUS
10
5.76016
20
-3.70585
11
5.76009
21
-3.7059
0
LINE
8
BLACK
6
CONTINUOUS
10
5.76009
20
-3.7059
11
5.76003
21
-3.70596
0
LINE
8
BLACK
6
CONTINUOUS
10
5.76003
20
-3.70596
11
5.75986
21
-3.70608
0
LINE
8
BLACK
6
CONTINUOUS
10
5.75986
20
-3.70608
11
5.75971
21
-3.70621
0
LINE
8
BLACK
6
CONTINUOUS
10
5.75971
20
-3.70621
11
5.75963
21
-3.70625
0
LINE
8
BLACK
6
CONTINUOUS
10
5.75963
20
-3.70625
11
5.75956
21
-3.7063
0
LINE
8
BLACK
6
CONTINUOUS
10
5.75956
20
-3.7063
11
5.75937
21
-3.70638
0
LINE
8
BLACK
6
CONTINUOUS
10
5.75937
20
-3.70638
11
5.7592
21
-3.70647
0
LINE
8
BLACK
6
CONTINUOUS
10
5.7592
20
-3.70647
11
5.75911
21
-3.7065
0
LINE
8
BLACK
6
CONTINUOUS
10
5.75911
20
-3.7065
11
5.75903
21
-3.70653
0
LINE
8
BLACK
6
CONTINUOUS
10
5.75903
20
-3.70653
11
5.75341
21
-3.70841
0
LINE
8
BLACK
6
CONTINUOUS
10
5.75341
20
-3.70841
11
5.75337
21
-3.70842
0
LINE
8
BLACK
6
CONTINUOUS
10
5.75337
20
-3.70842
11
5.75321
21
-3.70845
0
LINE
8
BLACK
6
CONTINUOUS
10
5.75321
20
-3.70845
11
5.75305
21
-3.7085
0
LINE
8
BLACK
6
CONTINUOUS
10
5.75305
20
-3.7085
11
5.75293
21
-3.70851
0
LINE
8
BLACK
6
CONTINUOUS
10
5.75293
20
-3.70851
11
5.75281
21
-3.70854
0
LINE
8
BLACK
6
CONTINUOUS
10
5.75281
20
-3.70854
11
5.75264
21
-3.70854
0
LINE
8
BLACK
6
CONTINUOUS
10
5.75264
20
-3.70854
11
5.75247
21
-3.70856
0
LINE
8
BLACK
6
CONTINUOUS
10
5.75247
20
-3.70856
11
5.74873
21
-3.70856
0
LINE
8
BLACK
6
CONTINUOUS
10
5.74873
20
-3.70856
11
5.74868
21
-3.70856
0
LINE
8
BLACK
6
CONTINUOUS
10
5.74868
20
-3.70856
11
5.74852
21
-3.70854
0
LINE
8
BLACK
6
CONTINUOUS
10
5.74852
20
-3.70854
11
5.74835
21
-3.70853
0
LINE
8
BLACK
6
CONTINUOUS
10
5.74835
20
-3.70853
11
5.74823
21
-3.70851
0
LINE
8
BLACK
6
CONTINUOUS
10
5.74823
20
-3.70851
11
5.74811
21
-3.70849
0
LINE
8
BLACK
6
CONTINUOUS
10
5.74811
20
-3.70849
11
5.74795
21
-3.70844
0
LINE
8
BLACK
6
CONTINUOUS
10
5.74795
20
-3.70844
11
5.74779
21
-3.70841
0
LINE
8
BLACK
6
CONTINUOUS
10
5.74779
20
-3.70841
11
5.74217
21
-3.70653
0
LINE
8
BLACK
6
CONTINUOUS
10
5.74217
20
-3.70653
11
5.74213
21
-3.70652
0
LINE
8
BLACK
6
CONTINUOUS
10
5.74213
20
-3.70652
11
5.74205
21
-3.70648
0
LINE
8
BLACK
6
CONTINUOUS
10
5.74205
20
-3.70648
11
5.74197
21
-3.70646
0
LINE
8
BLACK
6
CONTINUOUS
10
5.74197
20
-3.70646
11
5.74179
21
-3.70636
0
LINE
8
BLACK
6
CONTINUOUS
10
5.74179
20
-3.70636
11
5.74161
21
-3.70628
0
LINE
8
BLACK
6
CONTINUOUS
10
5.74161
20
-3.70628
11
5.74154
21
-3.70623
0
LINE
8
BLACK
6
CONTINUOUS
10
5.74154
20
-3.70623
11
5.74146
21
-3.70618
0
LINE
8
BLACK
6
CONTINUOUS
10
5.74146
20
-3.70618
11
5.7413
21
-3.70606
0
LINE
8
BLACK
6
CONTINUOUS
10
5.7413
20
-3.70606
11
5.74114
21
-3.70594
0
LINE
8
BLACK
6
CONTINUOUS
10
5.74114
20
-3.70594
11
5.74108
21
-3.70587
0
LINE
8
BLACK
6
CONTINUOUS
10
5.74108
20
-3.70587
11
5.74101
21
-3.70582
0
LINE
8
BLACK
6
CONTINUOUS
10
5.74101
20
-3.70582
11
5.73726
21
-3.70207
0
LINE
8
BLACK
6
CONTINUOUS
10
5.73726
20
-3.70207
11
5.73723
21
-3.70204
0
LINE
8
BLACK
6
CONTINUOUS
10
5.73723
20
-3.70204
11
5.73713
21
-3.70191
0
LINE
8
BLACK
6
CONTINUOUS
10
5.73713
20
-3.70191
11
5.73702
21
-3.70179
0
LINE
8
BLACK
6
CONTINUOUS
10
5.73702
20
-3.70179
11
5.73695
21
-3.70169
0
LINE
8
BLACK
6
CONTINUOUS
10
5.73695
20
-3.70169
11
5.73687
21
-3.70159
0
LINE
8
BLACK
6
CONTINUOUS
10
5.73687
20
-3.70159
11
5.7368
21
-3.70144
0
LINE
8
BLACK
6
CONTINUOUS
10
5.7368
20
-3.70144
11
5.73671
21
-3.7013
0
LINE
8
BLACK
6
CONTINUOUS
10
5.73671
20
-3.7013
11
5.73484
21
-3.69755
0
LINE
8
BLACK
6
CONTINUOUS
10
5.73484
20
-3.69755
11
5.73482
21
-3.69752
0
LINE
8
BLACK
6
CONTINUOUS
10
5.73482
20
-3.69752
11
5.73481
21
-3.6975
0
LINE
8
BLACK
6
CONTINUOUS
10
5.73481
20
-3.6975
11
5.73481
21
-3.69749
0
LINE
8
BLACK
6
CONTINUOUS
10
5.73481
20
-3.69749
11
5.73471
21
-3.69723
0
LINE
8
BLACK
6
CONTINUOUS
10
5.73471
20
-3.69723
11
5.73462
21
-3.69697
0
LINE
8
BLACK
6
CONTINUOUS
10
5.73462
20
-3.69697
11
5.73462
21
-3.69696
0
LINE
8
BLACK
6
CONTINUOUS
10
5.73462
20
-3.69696
11
5.73461
21
-3.69695
0
LINE
8
BLACK
6
CONTINUOUS
10
5.73461
20
-3.69695
11
5.73274
21
-3.68945
0
LINE
8
BLACK
6
CONTINUOUS
10
5.73274
20
-3.68945
11
5.73273
21
-3.68941
0
LINE
8
BLACK
6
CONTINUOUS
10
5.73273
20
-3.68941
11
5.73272
21
-3.68936
0
LINE
8
BLACK
6
CONTINUOUS
10
5.73272
20
-3.68936
11
5.73271
21
-3.68931
0
LINE
8
BLACK
6
CONTINUOUS
10
5.73271
20
-3.68931
11
5.73268
21
-3.68907
0
LINE
8
BLACK
6
CONTINUOUS
10
5.73268
20
-3.68907
11
5.73265
21
-3.68884
0
LINE
8
BLACK
6
CONTINUOUS
10
5.73265
20
-3.68884
11
5.73265
21
-3.68879
0
LINE
8
BLACK
6
CONTINUOUS
10
5.73265
20
-3.68879
11
5.73265
21
-3.68873
0
LINE
8
BLACK
6
CONTINUOUS
10
5.73265
20
-3.68873
11
5.73265
21
-3.68311
0
LINE
8
BLACK
6
CONTINUOUS
10
5.73265
20
-3.68311
11
5.73265
21
-3.68307
0
LINE
8
BLACK
6
CONTINUOUS
10
5.73265
20
-3.68307
11
5.73266
21
-3.68301
0
LINE
8
BLACK
6
CONTINUOUS
10
5.73266
20
-3.68301
11
5.73265
21
-3.68296
0
LINE
8
BLACK
6
CONTINUOUS
10
5.73265
20
-3.68296
11
5.73269
21
-3.68273
0
LINE
8
BLACK
6
CONTINUOUS
10
5.73269
20
-3.68273
11
5.73271
21
-3.68249
0
LINE
8
BLACK
6
CONTINUOUS
10
5.73271
20
-3.68249
11
5.73273
21
-3.68244
0
LINE
8
BLACK
6
CONTINUOUS
10
5.73273
20
-3.68244
11
5.73274
21
-3.68239
0
LINE
8
BLACK
6
CONTINUOUS
10
5.73274
20
-3.68239
11
5.73461
21
-3.67489
0
LINE
8
BLACK
6
CONTINUOUS
10
5.73461
20
-3.67489
11
5.73462
21
-3.67485
0
LINE
8
BLACK
6
CONTINUOUS
10
5.73462
20
-3.67485
11
5.73463
21
-3.67484
0
LINE
8
BLACK
6
CONTINUOUS
10
5.73463
20
-3.67484
11
5.73463
21
-3.67483
0
LINE
8
BLACK
6
CONTINUOUS
10
5.73463
20
-3.67483
11
5.73473
21
-3.67457
0
LINE
8
BLACK
6
CONTINUOUS
10
5.73473
20
-3.67457
11
5.73482
21
-3.67431
0
LINE
8
BLACK
6
CONTINUOUS
10
5.73482
20
-3.67431
11
5.73483
21
-3.6743
0
LINE
8
BLACK
6
CONTINUOUS
10
5.73483
20
-3.6743
11
5.73484
21
-3.67429
0
LINE
8
BLACK
6
CONTINUOUS
10
5.73484
20
-3.67429
11
5.73671
21
-3.67054
0
LINE
8
BLACK
6
CONTINUOUS
10
5.73671
20
-3.67054
11
5.73673
21
-3.6705
0
LINE
8
BLACK
6
CONTINUOUS
10
5.73673
20
-3.6705
11
5.73682
21
-3.67036
0
LINE
8
BLACK
6
CONTINUOUS
10
5.73682
20
-3.67036
11
5.7369
21
-3.67022
0
LINE
8
BLACK
6
CONTINUOUS
10
5.7369
20
-3.67022
11
5.73698
21
-3.67012
0
LINE
8
BLACK
6
CONTINUOUS
10
5.73698
20
-3.67012
11
5.73704
21
-3.67002
0
LINE
8
BLACK
6
CONTINUOUS
10
5.73704
20
-3.67002
11
5.73716
21
-3.6699
0
LINE
8
BLACK
6
CONTINUOUS
10
5.73716
20
-3.6699
11
5.73726
21
-3.66977
0
LINE
8
BLACK
6
CONTINUOUS
10
5.73726
20
-3.66977
11
5.74101
21
-3.66602
0
LINE
8
BLACK
6
CONTINUOUS
10
5.74101
20
-3.66602
11
5.74104
21
-3.66599
0
LINE
8
BLACK
6
CONTINUOUS
10
5.74104
20
-3.66599
11
5.74111
21
-3.66594
0
LINE
8
BLACK
6
CONTINUOUS
10
5.74111
20
-3.66594
11
5.74117
21
-3.66588
0
LINE
8
BLACK
6
CONTINUOUS
10
5.74117
20
-3.66588
11
5.74134
21
-3.66576
0
LINE
8
BLACK
6
CONTINUOUS
10
5.74134
20
-3.66576
11
5.74149
21
-3.66563
0
LINE
8
BLACK
6
CONTINUOUS
10
5.74149
20
-3.66563
11
5.74157
21
-3.66559
0
LINE
8
BLACK
6
CONTINUOUS
10
5.74157
20
-3.66559
11
5.74164
21
-3.66554
0
LINE
8
BLACK
6
CONTINUOUS
10
5.74164
20
-3.66554
11
5.74183
21
-3.66546
0
LINE
8
BLACK
6
CONTINUOUS
10
5.74183
20
-3.66546
11
5.742
21
-3.66537
0
LINE
8
BLACK
6
CONTINUOUS
10
5.742
20
-3.66537
11
5.74209
21
-3.66534
0
LINE
8
BLACK
6
CONTINUOUS
10
5.74209
20
-3.66534
11
5.74217
21
-3.66531
0
LINE
8
BLACK
6
CONTINUOUS
10
5.74217
20
-3.66531
11
5.74779
21
-3.66343
0
LINE
8
BLACK
6
CONTINUOUS
10
5.74779
20
-3.66343
11
5.74783
21
-3.66342
0
LINE
8
BLACK
6
CONTINUOUS
10
5.74783
20
-3.66342
11
5.74799
21
-3.66339
0
LINE
8
BLACK
6
CONTINUOUS
10
5.74799
20
-3.66339
11
5.74815
21
-3.66334
0
LINE
8
BLACK
6
CONTINUOUS
10
5.74815
20
-3.66334
11
5.74827
21
-3.66333
0
LINE
8
BLACK
6
CONTINUOUS
10
5.74827
20
-3.66333
11
5.74839
21
-3.6633
0
LINE
8
BLACK
6
CONTINUOUS
10
5.74839
20
-3.6633
11
5.74856
21
-3.6633
0
LINE
8
BLACK
6
CONTINUOUS
10
5.74856
20
-3.6633
11
5.74873
21
-3.66328
0
LINE
8
BLACK
6
CONTINUOUS
10
5.74873
20
-3.66328
11
5.75247
21
-3.66328
0
LINE
8
BLACK
6
CONTINUOUS
10
5.75247
20
-3.66328
11
5.75252
21
-3.66328
0
LINE
8
BLACK
6
CONTINUOUS
10
6.12731
20
-3.55524
11
6.12842
21
-3.55553
0
LINE
8
BLACK
6
CONTINUOUS
10
6.12842
20
-3.55553
11
6.12946
21
-3.55603
0
LINE
8
BLACK
6
CONTINUOUS
10
6.12946
20
-3.55603
11
6.13038
21
-3.55672
0
LINE
8
BLACK
6
CONTINUOUS
10
6.13038
20
-3.55672
11
6.13115
21
-3.55758
0
LINE
8
BLACK
6
CONTINUOUS
10
6.13115
20
-3.55758
11
6.13174
21
-3.55857
0
LINE
8
BLACK
6
CONTINUOUS
10
6.13174
20
-3.55857
11
6.13213
21
-3.55966
0
LINE
8
BLACK
6
CONTINUOUS
10
6.13213
20
-3.55966
11
6.1323
21
-3.5608
0
LINE
8
BLACK
6
CONTINUOUS
10
6.1323
20
-3.5608
11
6.13224
21
-3.56195
0
LINE
8
BLACK
6
CONTINUOUS
10
6.13224
20
-3.56195
11
6.13196
21
-3.56307
0
LINE
8
BLACK
6
CONTINUOUS
10
6.13196
20
-3.56307
11
6.11321
21
-3.61556
0
LINE
8
BLACK
6
CONTINUOUS
10
6.11321
20
-3.61556
11
6.11318
21
-3.61564
0
LINE
8
BLACK
6
CONTINUOUS
10
6.11318
20
-3.61564
11
6.11315
21
-3.6157
0
LINE
8
BLACK
6
CONTINUOUS
10
6.11315
20
-3.6157
11
6.11313
21
-3.61577
0
LINE
8
BLACK
6
CONTINUOUS
10
6.11313
20
-3.61577
11
6.10563
21
-3.63451
0
LINE
8
BLACK
6
CONTINUOUS
10
6.10563
20
-3.63451
11
6.1056
21
-3.63459
0
LINE
8
BLACK
6
CONTINUOUS
10
6.1056
20
-3.63459
11
6.1056
21
-3.63459
0
LINE
8
BLACK
6
CONTINUOUS
10
6.1056
20
-3.63459
11
6.1056
21
-3.63459
0
LINE
8
BLACK
6
CONTINUOUS
10
6.1056
20
-3.63459
11
6.10506
21
-3.63561
0
LINE
8
BLACK
6
CONTINUOUS
10
6.10506
20
-3.63561
11
6.10487
21
-3.63583
0
LINE
8
BLACK
6
CONTINUOUS
10
6.10487
20
-3.63583
11
6.10433
21
-3.6365
0
LINE
8
BLACK
6
CONTINUOUS
10
6.10433
20
-3.6365
11
6.10058
21
-3.64025
0
LINE
8
BLACK
6
CONTINUOUS
10
6.10058
20
-3.64025
11
6.10052
21
-3.6403
0
LINE
8
BLACK
6
CONTINUOUS
10
6.10052
20
-3.6403
11
6.10026
21
-3.64051
0
LINE
8
BLACK
6
CONTINUOUS
10
6.10026
20
-3.64051
11
6.10002
21
-3.64074
0
LINE
8
BLACK
6
CONTINUOUS
10
6.10002
20
-3.64074
11
6.09981
21
-3.64087
0
LINE
8
BLACK
6
CONTINUOUS
10
6.09981
20
-3.64087
11
6.09962
21
-3.64102
0
LINE
8
BLACK
6
CONTINUOUS
10
6.09962
20
-3.64102
11
6.09932
21
-3.64118
0
LINE
8
BLACK
6
CONTINUOUS
10
6.09932
20
-3.64118
11
6.09904
21
-3.64135
0
LINE
8
BLACK
6
CONTINUOUS
10
6.09904
20
-3.64135
11
6.09154
21
-3.6451
0
LINE
8
BLACK
6
CONTINUOUS
10
6.09154
20
-3.6451
11
6.09147
21
-3.64514
0
LINE
8
BLACK
6
CONTINUOUS
10
6.09147
20
-3.64514
11
6.09039
21
-3.64554
0
LINE
8
BLACK
6
CONTINUOUS
10
6.09039
20
-3.64554
11
6.08925
21
-3.64572
0
LINE
8
BLACK
6
CONTINUOUS
10
6.08925
20
-3.64572
11
6.0881
21
-3.64567
0
LINE
8
BLACK
6
CONTINUOUS
10
6.0881
20
-3.64567
11
6.08698
21
-3.6454
0
LINE
8
BLACK
6
CONTINUOUS
10
6.08698
20
-3.6454
11
6.08593
21
-3.64492
0
LINE
8
BLACK
6
CONTINUOUS
10
6.08593
20
-3.64492
11
6.08499
21
-3.64425
0
LINE
8
BLACK
6
CONTINUOUS
10
6.08499
20
-3.64425
11
6.08421
21
-3.6434
0
LINE
8
BLACK
6
CONTINUOUS
10
6.08421
20
-3.6434
11
6.0836
21
-3.64242
0
LINE
8
BLACK
6
CONTINUOUS
10
6.0836
20
-3.64242
11
6.0832
21
-3.64134
0
LINE
8
BLACK
6
CONTINUOUS
10
6.0832
20
-3.64134
11
6.08301
21
-3.64021
0
LINE
8
BLACK
6
CONTINUOUS
10
6.08301
20
-3.64021
11
6.08305
21
-3.63906
0
LINE
8
BLACK
6
CONTINUOUS
10
6.08305
20
-3.63906
11
6.08331
21
-3.63793
0
LINE
8
BLACK
6
CONTINUOUS
10
6.08331
20
-3.63793
11
6.08378
21
-3.63688
0
LINE
8
BLACK
6
CONTINUOUS
10
6.08378
20
-3.63688
11
6.08445
21
-3.63594
0
LINE
8
BLACK
6
CONTINUOUS
10
6.08445
20
-3.63594
11
6.08528
21
-3.63515
0
LINE
8
BLACK
6
CONTINUOUS
10
6.08528
20
-3.63515
11
6.08626
21
-3.63454
0
LINE
8
BLACK
6
CONTINUOUS
10
6.08626
20
-3.63454
11
6.0929
21
-3.63122
0
LINE
8
BLACK
6
CONTINUOUS
10
6.0929
20
-3.63122
11
6.09512
21
-3.629
0
LINE
8
BLACK
6
CONTINUOUS
10
6.09512
20
-3.629
11
6.10134
21
-3.61345
0
LINE
8
BLACK
6
CONTINUOUS
10
6.10134
20
-3.61345
11
6.08334
21
-3.56307
0
LINE
8
BLACK
6
CONTINUOUS
10
6.08334
20
-3.56307
11
6.08331
21
-3.56299
0
LINE
8
BLACK
6
CONTINUOUS
10
6.08331
20
-3.56299
11
6.08305
21
-3.56187
0
LINE
8
BLACK
6
CONTINUOUS
10
6.08305
20
-3.56187
11
6.08301
21
-3.56071
0
LINE
8
BLACK
6
CONTINUOUS
10
6.08301
20
-3.56071
11
6.08319
21
-3.55958
0
LINE
8
BLACK
6
CONTINUOUS
10
6.08319
20
-3.55958
11
6.08359
21
-3.5585
0
LINE
8
BLACK
6
CONTINUOUS
10
6.08359
20
-3.5585
11
6.08419
21
-3.55751
0
LINE
8
BLACK
6
CONTINUOUS
10
6.08419
20
-3.55751
11
6.08498
21
-3.55667
0
LINE
8
BLACK
6
CONTINUOUS
10
6.08498
20
-3.55667
11
6.08591
21
-3.55599
0
LINE
8
BLACK
6
CONTINUOUS
10
6.08591
20
-3.55599
11
6.08695
21
-3.5555
0
LINE
8
BLACK
6
CONTINUOUS
10
6.08695
20
-3.5555
11
6.08807
21
-3.55523
0
LINE
8
BLACK
6
CONTINUOUS
10
6.08807
20
-3.55523
11
6.08923
21
-3.55518
0
LINE
8
BLACK
6
CONTINUOUS
10
6.08923
20
-3.55518
11
6.09036
21
-3.55536
0
LINE
8
BLACK
6
CONTINUOUS
10
6.09036
20
-3.55536
11
6.09145
21
-3.55575
0
LINE
8
BLACK
6
CONTINUOUS
10
6.09145
20
-3.55575
11
6.09243
21
-3.55635
0
LINE
8
BLACK
6
CONTINUOUS
10
6.09243
20
-3.55635
11
6.09329
21
-3.55712
0
LINE
8
BLACK
6
CONTINUOUS
10
6.09329
20
-3.55712
11
6.09397
21
-3.55805
0
LINE
8
BLACK
6
CONTINUOUS
10
6.09397
20
-3.55805
11
6.09446
21
-3.55909
0
LINE
8
BLACK
6
CONTINUOUS
10
6.09446
20
-3.55909
11
6.10765
21
-3.59601
0
LINE
8
BLACK
6
CONTINUOUS
10
6.10765
20
-3.59601
11
6.12084
21
-3.55909
0
LINE
8
BLACK
6
CONTINUOUS
10
6.12084
20
-3.55909
11
6.12086
21
-3.55902
0
LINE
8
BLACK
6
CONTINUOUS
10
6.12086
20
-3.55902
11
6.12137
21
-3.55798
0
LINE
8
BLACK
6
CONTINUOUS
10
6.12137
20
-3.55798
11
6.12207
21
-3.55706
0
LINE
8
BLACK
6
CONTINUOUS
10
6.12207
20
-3.55706
11
6.12293
21
-3.5563
0
LINE
8
BLACK
6
CONTINUOUS
10
6.12293
20
-3.5563
11
6.12392
21
-3.55572
0
LINE
8
BLACK
6
CONTINUOUS
10
6.12392
20
-3.55572
11
6.12501
21
-3.55534
0
LINE
8
BLACK
6
CONTINUOUS
10
6.12501
20
-3.55534
11
6.12615
21
-3.55518
0
LINE
8
BLACK
6
CONTINUOUS
10
6.12615
20
-3.55518
11
6.12731
21
-3.55524
0
LINE
8
BLACK
6
CONTINUOUS
10
5.85651
20
-3.55517
11
5.85669
21
-3.55519
0
LINE
8
BLACK
6
CONTINUOUS
10
5.85669
20
-3.55519
11
5.85686
21
-3.55519
0
LINE
8
BLACK
6
CONTINUOUS
10
5.85686
20
-3.55519
11
5.85726
21
-3.55526
0
LINE
8
BLACK
6
CONTINUOUS
10
5.85726
20
-3.55526
11
5.85766
21
-3.5553
0
LINE
8
BLACK
6
CONTINUOUS
10
5.85766
20
-3.5553
11
5.85782
21
-3.55536
0
LINE
8
BLACK
6
CONTINUOUS
10
5.85782
20
-3.55536
11
5.858
21
-3.55539
0
LINE
8
BLACK
6
CONTINUOUS
10
5.858
20
-3.55539
11
5.85837
21
-3.55553
0
LINE
8
BLACK
6
CONTINUOUS
10
5.85837
20
-3.55553
11
5.85876
21
-3.55565
0
LINE
8
BLACK
6
CONTINUOUS
10
5.85876
20
-3.55565
11
5.85891
21
-3.55574
0
LINE
8
BLACK
6
CONTINUOUS
10
5.85891
20
-3.55574
11
5.85907
21
-3.5558
0
LINE
8
BLACK
6
CONTINUOUS
10
5.85907
20
-3.5558
11
5.86657
21
-3.55955
0
LINE
8
BLACK
6
CONTINUOUS
10
5.86657
20
-3.55955
11
5.86664
21
-3.55958
0
LINE
8
BLACK
6
CONTINUOUS
10
5.86664
20
-3.55958
11
5.86761
21
-3.56021
0
LINE
8
BLACK
6
CONTINUOUS
10
5.86761
20
-3.56021
11
5.86844
21
-3.56101
0
LINE
8
BLACK
6
CONTINUOUS
10
5.86844
20
-3.56101
11
5.86909
21
-3.56196
0
LINE
8
BLACK
6
CONTINUOUS
10
5.86909
20
-3.56196
11
5.86955
21
-3.56302
0
LINE
8
BLACK
6
CONTINUOUS
10
5.86955
20
-3.56302
11
5.8698
21
-3.56415
0
LINE
8
BLACK
6
CONTINUOUS
10
5.8698
20
-3.56415
11
5.86982
21
-3.5653
0
LINE
8
BLACK
6
CONTINUOUS
10
5.86982
20
-3.5653
11
5.86961
21
-3.56643
0
LINE
8
BLACK
6
CONTINUOUS
10
5.86961
20
-3.56643
11
5.86919
21
-3.56751
0
LINE
8
BLACK
6
CONTINUOUS
10
5.86919
20
-3.56751
11
5.86857
21
-3.56848
0
LINE
8
BLACK
6
CONTINUOUS
10
5.86857
20
-3.56848
11
5.86778
21
-3.56931
0
LINE
8
BLACK
6
CONTINUOUS
10
5.86778
20
-3.56931
11
5.86683
21
-3.56997
0
LINE
8
BLACK
6
CONTINUOUS
10
5.86683
20
-3.56997
11
5.86578
21
-3.57044
0
LINE
8
BLACK
6
CONTINUOUS
10
5.86578
20
-3.57044
11
5.86465
21
-3.57069
0
LINE
8
BLACK
6
CONTINUOUS
10
5.86465
20
-3.57069
11
5.8635
21
-3.57072
0
LINE
8
BLACK
6
CONTINUOUS
10
5.8635
20
-3.57072
11
5.86236
21
-3.57052
0
LINE
8
BLACK
6
CONTINUOUS
10
5.86236
20
-3.57052
11
5.86129
21
-3.57011
0
LINE
8
BLACK
6
CONTINUOUS
10
5.86129
20
-3.57011
11
5.85504
21
-3.56699
0
LINE
8
BLACK
6
CONTINUOUS
10
5.85504
20
-3.56699
11
5.84658
21
-3.56699
0
LINE
8
BLACK
6
CONTINUOUS
10
5.84658
20
-3.56699
11
5.84208
21
-3.56923
0
LINE
8
BLACK
6
CONTINUOUS
10
5.84208
20
-3.56923
11
5.83984
21
-3.57372
0
LINE
8
BLACK
6
CONTINUOUS
10
5.83984
20
-3.57372
11
5.83984
21
-3.57468
0
LINE
8
BLACK
6
CONTINUOUS
10
5.83984
20
-3.57468
11
5.84208
21
-3.57918
0
LINE
8
BLACK
6
CONTINUOUS
10
5.84208
20
-3.57918
11
5.84658
21
-3.58142
0
LINE
8
BLACK
6
CONTINUOUS
10
5.84658
20
-3.58142
11
5.85643
21
-3.58142
0
LINE
8
BLACK
6
CONTINUOUS
10
5.85643
20
-3.58142
11
5.85651
21
-3.58142
0
LINE
8
BLACK
6
CONTINUOUS
10
5.85651
20
-3.58142
11
5.85669
21
-3.58144
0
LINE
8
BLACK
6
CONTINUOUS
10
5.85669
20
-3.58144
11
5.85686
21
-3.58144
0
LINE
8
BLACK
6
CONTINUOUS
10
5.85686
20
-3.58144
11
5.85726
21
-3.58151
0
LINE
8
BLACK
6
CONTINUOUS
10
5.85726
20
-3.58151
11
5.85766
21
-3.58155
0
LINE
8
BLACK
6
CONTINUOUS
10
5.85766
20
-3.58155
11
5.85782
21
-3.5816
0
LINE
8
BLACK
6
CONTINUOUS
10
5.85782
20
-3.5816
11
5.858
21
-3.58163
0
LINE
8
BLACK
6
CONTINUOUS
10
5.858
20
-3.58163
11
5.85837
21
-3.58178
0
LINE
8
BLACK
6
CONTINUOUS
10
5.85837
20
-3.58178
11
5.85876
21
-3.5819
0
LINE
8
BLACK
6
CONTINUOUS
10
5.85876
20
-3.5819
11
5.85891
21
-3.58198
0
LINE
8
BLACK
6
CONTINUOUS
10
5.85891
20
-3.58198
11
5.85907
21
-3.58204
0
LINE
8
BLACK
6
CONTINUOUS
10
5.85907
20
-3.58204
11
5.86657
21
-3.58579
0
LINE
8
BLACK
6
CONTINUOUS
10
5.86657
20
-3.58579
11
5.86664
21
-3.58583
0
LINE
8
BLACK
6
CONTINUOUS
10
5.86664
20
-3.58583
11
5.86675
21
-3.5859
0
LINE
8
BLACK
6
CONTINUOUS
10
5.86675
20
-3.5859
11
5.86687
21
-3.58595
0
LINE
8
BLACK
6
CONTINUOUS
10
5.86687
20
-3.58595
11
5.86723
21
-3.58621
0
LINE
8
BLACK
6
CONTINUOUS
10
5.86723
20
-3.58621
11
5.86761
21
-3.58646
0
LINE
8
BLACK
6
CONTINUOUS
10
5.86761
20
-3.58646
11
5.8677
21
-3.58655
0
LINE
8
BLACK
6
CONTINUOUS
10
5.8677
20
-3.58655
11
5.86781
21
-3.58662
0
LINE
8
BLACK
6
CONTINUOUS
10
5.86781
20
-3.58662
11
5.86812
21
-3.58695
0
LINE
8
BLACK
6
CONTINUOUS
10
5.86812
20
-3.58695
11
5.86844
21
-3.58726
0
LINE
8
BLACK
6
CONTINUOUS
10
5.86844
20
-3.58726
11
5.86851
21
-3.58737
0
LINE
8
BLACK
6
CONTINUOUS
10
5.86851
20
-3.58737
11
5.8686
21
-3.58746
0
LINE
8
BLACK
6
CONTINUOUS
10
5.8686
20
-3.58746
11
5.86884
21
-3.58784
0
LINE
8
BLACK
6
CONTINUOUS
10
5.86884
20
-3.58784
11
5.86909
21
-3.58821
0
LINE
8
BLACK
6
CONTINUOUS
10
5.86909
20
-3.58821
11
5.86914
21
-3.58833
0
LINE
8
BLACK
6
CONTINUOUS
10
5.86914
20
-3.58833
11
5.86921
21
-3.58844
0
LINE
8
BLACK
6
CONTINUOUS
10
5.86921
20
-3.58844
11
5.87296
21
-3.59593
0
LINE
8
BLACK
6
CONTINUOUS
10
5.87296
20
-3.59593
11
5.873
21
-3.59601
0
LINE
8
BLACK
6
CONTINUOUS
10
5.873
20
-3.59601
11
5.87306
21
-3.59617
0
LINE
8
BLACK
6
CONTINUOUS
10
5.87306
20
-3.59617
11
5.87314
21
-3.59632
0
LINE
8
BLACK
6
CONTINUOUS
10
5.87314
20
-3.59632
11
5.87326
21
-3.59671
0
LINE
8
BLACK
6
CONTINUOUS
10
5.87326
20
-3.59671
11
5.87339
21
-3.59709
0
LINE
8
BLACK
6
CONTINUOUS
10
5.87339
20
-3.59709
11
5.87342
21
-3.59726
0
LINE
8
BLACK
6
CONTINUOUS
10
5.87342
20
-3.59726
11
5.87347
21
-3.59743
0
LINE
8
BLACK
6
CONTINUOUS
10
5.87347
20
-3.59743
11
5.87351
21
-3.59783
0
LINE
8
BLACK
6
CONTINUOUS
10
5.87351
20
-3.59783
11
5.87357
21
-3.59823
0
LINE
8
BLACK
6
CONTINUOUS
10
5.87357
20
-3.59823
11
5.87357
21
-3.5984
0
LINE
8
BLACK
6
CONTINUOUS
10
5.87357
20
-3.5984
11
5.87358
21
-3.59858
0
LINE
8
BLACK
6
CONTINUOUS
10
5.87358
20
-3.59858
11
5.87358
21
-3.60232
0
LINE
8
BLACK
6
CONTINUOUS
10
5.87358
20
-3.60232
11
5.87358
21
-3.60241
0
LINE
8
BLACK
6
CONTINUOUS
10
5.87358
20
-3.60241
11
5.87356
21
-3.60258
0
LINE
8
BLACK
6
CONTINUOUS
10
5.87356
20
-3.60258
11
5.87357
21
-3.60275
0
LINE
8
BLACK
6
CONTINUOUS
10
5.87357
20
-3.60275
11
5.8735
21
-3.60315
0
LINE
8
BLACK
6
CONTINUOUS
10
5.8735
20
-3.60315
11
5.87346
21
-3.60355
0
LINE
8
BLACK
6
CONTINUOUS
10
5.87346
20
-3.60355
11
5.8734
21
-3.60372
0
LINE
8
BLACK
6
CONTINUOUS
10
5.8734
20
-3.60372
11
5.87337
21
-3.60389
0
LINE
8
BLACK
6
CONTINUOUS
10
5.87337
20
-3.60389
11
5.87323
21
-3.60427
0
LINE
8
BLACK
6
CONTINUOUS
10
5.87323
20
-3.60427
11
5.87311
21
-3.60465
0
LINE
8
BLACK
6
CONTINUOUS
10
5.87311
20
-3.60465
11
5.87302
21
-3.6048
0
LINE
8
BLACK
6
CONTINUOUS
10
5.87302
20
-3.6048
11
5.87296
21
-3.60497
0
LINE
8
BLACK
6
CONTINUOUS
10
5.87296
20
-3.60497
11
5.86921
21
-3.61246
0
LINE
8
BLACK
6
CONTINUOUS
10
5.86921
20
-3.61246
11
5.86917
21
-3.61254
0
LINE
8
BLACK
6
CONTINUOUS
10
5.86917
20
-3.61254
11
5.8691
21
-3.61265
0
LINE
8
BLACK
6
CONTINUOUS
10
5.8691
20
-3.61265
11
5.86905
21
-3.61276
0
LINE
8
BLACK
6
CONTINUOUS
10
5.86905
20
-3.61276
11
5.86879
21
-3.61313
0
LINE
8
BLACK
6
CONTINUOUS
10
5.86879
20
-3.61313
11
5.86855
21
-3.61351
0
LINE
8
BLACK
6
CONTINUOUS
10
5.86855
20
-3.61351
11
5.86846
21
-3.6136
0
LINE
8
BLACK
6
CONTINUOUS
10
5.86846
20
-3.6136
11
5.86838
21
-3.6137
0
LINE
8
BLACK
6
CONTINUOUS
10
5.86838
20
-3.6137
11
5.86806
21
-3.61401
0
LINE
8
BLACK
6
CONTINUOUS
10
5.86806
20
-3.61401
11
5.86774
21
-3.61433
0
LINE
8
BLACK
6
CONTINUOUS
10
5.86774
20
-3.61433
11
5.86764
21
-3.6144
0
LINE
8
BLACK
6
CONTINUOUS
10
5.86764
20
-3.6144
11
5.86755
21
-3.61449
0
LINE
8
BLACK
6
CONTINUOUS
10
5.86755
20
-3.61449
11
5.86717
21
-3.61473
0
LINE
8
BLACK
6
CONTINUOUS
10
5.86717
20
-3.61473
11
5.8668
21
-3.61499
0
LINE
8
BLACK
6
CONTINUOUS
10
5.8668
20
-3.61499
11
5.86668
21
-3.61504
0
LINE
8
BLACK
6
CONTINUOUS
10
5.86668
20
-3.61504
11
5.86657
21
-3.61511
0
LINE
8
BLACK
6
CONTINUOUS
10
5.86657
20
-3.61511
11
5.85907
21
-3.61886
0
LINE
8
BLACK
6
CONTINUOUS
10
5.85907
20
-3.61886
11
5.859
21
-3.61889
0
LINE
8
BLACK
6
CONTINUOUS
10
5.859
20
-3.61889
11
5.85883
21
-3.61895
0
LINE
8
BLACK
6
CONTINUOUS
10
5.85883
20
-3.61895
11
5.85868
21
-3.61903
0
LINE
8
BLACK
6
CONTINUOUS
10
5.85868
20
-3.61903
11
5.85829
21
-3.61915
0
LINE
8
BLACK
6
CONTINUOUS
10
5.85829
20
-3.61915
11
5.85792
21
-3.61929
0
LINE
8
BLACK
6
CONTINUOUS
10
5.85792
20
-3.61929
11
5.85774
21
-3.61932
0
LINE
8
BLACK
6
CONTINUOUS
10
5.85774
20
-3.61932
11
5.85758
21
-3.61937
0
LINE
8
BLACK
6
CONTINUOUS
10
5.85758
20
-3.61937
11
5.85718
21
-3.61941
0
LINE
8
BLACK
6
CONTINUOUS
10
5.85718
20
-3.61941
11
5.85678
21
-3.61947
0
LINE
8
BLACK
6
CONTINUOUS
10
5.85678
20
-3.61947
11
5.8566
21
-3.61946
0
LINE
8
BLACK
6
CONTINUOUS
10
5.8566
20
-3.61946
11
5.85643
21
-3.61948
0
LINE
8
BLACK
6
CONTINUOUS
10
5.85643
20
-3.61948
11
5.84143
21
-3.61948
0
LINE
8
BLACK
6
CONTINUOUS
10
5.84143
20
-3.61948
11
5.84135
21
-3.61948
0
LINE
8
BLACK
6
CONTINUOUS
10
5.84135
20
-3.61948
11
5.84118
21
-3.61946
0
LINE
8
BLACK
6
CONTINUOUS
10
5.84118
20
-3.61946
11
5.841
21
-3.61946
0
LINE
8
BLACK
6
CONTINUOUS
10
5.841
20
-3.61946
11
5.84061
21
-3.61939
0
LINE
8
BLACK
6
CONTINUOUS
10
5.84061
20
-3.61939
11
5.8402
21
-3.61935
0
LINE
8
BLACK
6
CONTINUOUS
10
5.8402
20
-3.61935
11
5.84004
21
-3.6193
0
LINE
8
BLACK
6
CONTINUOUS
10
5.84004
20
-3.6193
11
5.83987
21
-3.61927
0
LINE
8
BLACK
6
CONTINUOUS
10
5.83987
20
-3.61927
11
5.83949
21
-3.61912
0
LINE
8
BLACK
6
CONTINUOUS
10
5.83949
20
-3.61912
11
5.83911
21
-3.619
0
LINE
8
BLACK
6
CONTINUOUS
10
5.83911
20
-3.619
11
5.83895
21
-3.61892
0
LINE
8
BLACK
6
CONTINUOUS
10
5.83895
20
-3.61892
11
5.83879
21
-3.61886
0
LINE
8
BLACK
6
CONTINUOUS
10
5.83879
20
-3.61886
11
5.83129
21
-3.61511
0
LINE
8
BLACK
6
CONTINUOUS
10
5.83129
20
-3.61511
11
5.83122
21
-3.61507
0
LINE
8
BLACK
6
CONTINUOUS
10
5.83122
20
-3.61507
11
5.83025
21
-3.61444
0
LINE
8
BLACK
6
CONTINUOUS
10
5.83025
20
-3.61444
11
5.82942
21
-3.61364
0
LINE
8
BLACK
6
CONTINUOUS
10
5.82942
20
-3.61364
11
5.82877
21
-3.61269
0
LINE
8
BLACK
6
CONTINUOUS
10
5.82877
20
-3.61269
11
5.82831
21
-3.61163
0
LINE
8
BLACK
6
CONTINUOUS
10
5.82831
20
-3.61163
11
5.82807
21
-3.61051
0
LINE
8
BLACK
6
CONTINUOUS
10
5.82807
20
-3.61051
11
5.82805
21
-3.60935
0
LINE
8
BLACK
6
CONTINUOUS
10
5.82805
20
-3.60935
11
5.82825
21
-3.60822
0
LINE
8
BLACK
6
CONTINUOUS
10
5.82825
20
-3.60822
11
5.82867
21
-3.60715
0
LINE
8
BLACK
6
CONTINUOUS
10
5.82867
20
-3.60715
11
5.82929
21
-3.60617
0
LINE
8
BLACK
6
CONTINUOUS
10
5.82929
20
-3.60617
11
5.83009
21
-3.60534
0
LINE
8
BLACK
6
CONTINUOUS
10
5.83009
20
-3.60534
11
5.83103
21
-3.60468
0
LINE
8
BLACK
6
CONTINUOUS
10
5.83103
20
-3.60468
11
5.83209
21
-3.60421
0
LINE
8
BLACK
6
CONTINUOUS
10
5.83209
20
-3.60421
11
5.83321
21
-3.60396
0
LINE
8
BLACK
6
CONTINUOUS
10
5.83321
20
-3.60396
11
5.83436
21
-3.60393
0
LINE
8
BLACK
6
CONTINUOUS
10
5.83436
20
-3.60393
11
5.8355
21
-3.60413
0
LINE
8
BLACK
6
CONTINUOUS
10
5.8355
20
-3.60413
11
5.83657
21
-3.60454
0
LINE
8
BLACK
6
CONTINUOUS
10
5.83657
20
-3.60454
11
5.84283
21
-3.60767
0
LINE
8
BLACK
6
CONTINUOUS
10
5.84283
20
-3.60767
11
5.85504
21
-3.60767
0
LINE
8
BLACK
6
CONTINUOUS
10
5.85504
20
-3.60767
11
5.85953
21
-3.60542
0
LINE
8
BLACK
6
CONTINUOUS
10
5.85953
20
-3.60542
11
5.86177
21
-3.60093
0
LINE
8
BLACK
6
CONTINUOUS
10
5.86177
20
-3.60093
11
5.86177
21
-3.59997
0
LINE
8
BLACK
6
CONTINUOUS
10
5.86177
20
-3.59997
11
5.85953
21
-3.59548
0
LINE
8
BLACK
6
CONTINUOUS
10
5.85953
20
-3.59548
11
5.85504
21
-3.59323
0
LINE
8
BLACK
6
CONTINUOUS
10
5.85504
20
-3.59323
11
5.84518
21
-3.59323
0
LINE
8
BLACK
6
CONTINUOUS
10
5.84518
20
-3.59323
11
5.8451
21
-3.59323
0
LINE
8
BLACK
6
CONTINUOUS
10
5.8451
20
-3.59323
11
5.84493
21
-3.59321
0
LINE
8
BLACK
6
CONTINUOUS
10
5.84493
20
-3.59321
11
5.84475
21
-3.59322
0
LINE
8
BLACK
6
CONTINUOUS
10
5.84475
20
-3.59322
11
5.84436
21
-3.59315
0
LINE
8
BLACK
6
CONTINUOUS
10
5.84436
20
-3.59315
11
5.84395
21
-3.5931
0
LINE
8
BLACK
6
CONTINUOUS
10
5.84395
20
-3.5931
11
5.84379
21
-3.59305
0
LINE
8
BLACK
6
CONTINUOUS
10
5.84379
20
-3.59305
11
5.84362
21
-3.59302
0
LINE
8
BLACK
6
CONTINUOUS
10
5.84362
20
-3.59302
11
5.84324
21
-3.59288
0
LINE
8
BLACK
6
CONTINUOUS
10
5.84324
20
-3.59288
11
5.84286
21
-3.59275
0
LINE
8
BLACK
6
CONTINUOUS
10
5.84286
20
-3.59275
11
5.8427
21
-3.59267
0
LINE
8
BLACK
6
CONTINUOUS
10
5.8427
20
-3.59267
11
5.84254
21
-3.59261
0
LINE
8
BLACK
6
CONTINUOUS
10
5.84254
20
-3.59261
11
5.83504
21
-3.58886
0
LINE
8
BLACK
6
CONTINUOUS
10
5.83504
20
-3.58886
11
5.83497
21
-3.58882
0
LINE
8
BLACK
6
CONTINUOUS
10
5.83497
20
-3.58882
11
5.83486
21
-3.58875
0
LINE
8
BLACK
6
CONTINUOUS
10
5.83486
20
-3.58875
11
5.83474
21
-3.5887
0
LINE
8
BLACK
6
CONTINUOUS
10
5.83474
20
-3.5887
11
5.83438
21
-3.58844
0
LINE
8
BLACK
6
CONTINUOUS
10
5.83438
20
-3.58844
11
5.834
21
-3.58819
0
LINE
8
BLACK
6
CONTINUOUS
10
5.834
20
-3.58819
11
5.83391
21
-3.58811
0
LINE
8
BLACK
6
CONTINUOUS
10
5.83391
20
-3.58811
11
5.83381
21
-3.58803
0
LINE
8
BLACK
6
CONTINUOUS
10
5.83381
20
-3.58803
11
5.8335
21
-3.5877
0
LINE
8
BLACK
6
CONTINUOUS
10
5.8335
20
-3.5877
11
5.83317
21
-3.58739
0
LINE
8
BLACK
6
CONTINUOUS
10
5.83317
20
-3.58739
11
5.8331
21
-3.58729
0
LINE
8
BLACK
6
CONTINUOUS
10
5.8331
20
-3.58729
11
5.83301
21
-3.58719
0
LINE
8
BLACK
6
CONTINUOUS
10
5.83301
20
-3.58719
11
5.83277
21
-3.58681
0
LINE
8
BLACK
6
CONTINUOUS
10
5.83277
20
-3.58681
11
5.83252
21
-3.58644
0
LINE
8
BLACK
6
CONTINUOUS
10
5.83252
20
-3.58644
11
5.83247
21
-3.58633
0
LINE
8
BLACK
6
CONTINUOUS
10
5.83247
20
-3.58633
11
5.8324
21
-3.58622
0
LINE
8
BLACK
6
CONTINUOUS
10
5.8324
20
-3.58622
11
5.82865
21
-3.57872
0
LINE
8
BLACK
6
CONTINUOUS
10
5.82865
20
-3.57872
11
5.82861
21
-3.57864
0
LINE
8
BLACK
6
CONTINUOUS
10
5.82861
20
-3.57864
11
5.82856
21
-3.57848
0
LINE
8
BLACK
6
CONTINUOUS
10
5.82856
20
-3.57848
11
5.82847
21
-3.57833
0
LINE
8
BLACK
6
CONTINUOUS
10
5.82847
20
-3.57833
11
5.82836
21
-3.57794
0
LINE
8
BLACK
6
CONTINUOUS
10
5.82836
20
-3.57794
11
5.82822
21
-3.57756
0
LINE
8
BLACK
6
CONTINUOUS
10
5.82822
20
-3.57756
11
5.82819
21
-3.57739
0
LINE
8
BLACK
6
CONTINUOUS
10
5.82819
20
-3.57739
11
5.82814
21
-3.57722
0
LINE
8
BLACK
6
CONTINUOUS
10
5.82814
20
-3.57722
11
5.8281
21
-3.57682
0
LINE
8
BLACK
6
CONTINUOUS
10
5.8281
20
-3.57682
11
5.82804
21
-3.57642
0
LINE
8
BLACK
6
CONTINUOUS
10
5.82804
20
-3.57642
11
5.82804
21
-3.57625
0
LINE
8
BLACK
6
CONTINUOUS
10
5.82804
20
-3.57625
11
5.82803
21
-3.57608
0
LINE
8
BLACK
6
CONTINUOUS
10
5.82803
20
-3.57608
11
5.82803
21
-3.57233
0
LINE
8
BLACK
6
CONTINUOUS
10
5.82803
20
-3.57233
11
5.82803
21
-3.57225
0
LINE
8
BLACK
6
CONTINUOUS
10
5.82803
20
-3.57225
11
5.82805
21
-3.57207
0
LINE
8
BLACK
6
CONTINUOUS
10
5.82805
20
-3.57207
11
5.82804
21
-3.5719
0
LINE
8
BLACK
6
CONTINUOUS
10
5.82804
20
-3.5719
11
5.82811
21
-3.5715
0
LINE
8
BLACK
6
CONTINUOUS
10
5.82811
20
-3.5715
11
5.82816
21
-3.5711
0
LINE
8
BLACK
6
CONTINUOUS
10
5.82816
20
-3.5711
11
5.82821
21
-3.57093
0
LINE
8
BLACK
6
CONTINUOUS
10
5.82821
20
-3.57093
11
5.82824
21
-3.57076
0
LINE
8
BLACK
6
CONTINUOUS
10
5.82824
20
-3.57076
11
5.82838
21
-3.57039
0
LINE
8
BLACK
6
CONTINUOUS
10
5.82838
20
-3.57039
11
5.82851
21
-3.57
0
LINE
8
BLACK
6
CONTINUOUS
10
5.82851
20
-3.57
11
5.82859
21
-3.56985
0
LINE
8
BLACK
6
CONTINUOUS
10
5.82859
20
-3.56985
11
5.82865
21
-3.56969
0
LINE
8
BLACK
6
CONTINUOUS
10
5.82865
20
-3.56969
11
5.8324
21
-3.56219
0
LINE
8
BLACK
6
CONTINUOUS
10
5.8324
20
-3.56219
11
5.83244
21
-3.56211
0
LINE
8
BLACK
6
CONTINUOUS
10
5.83244
20
-3.56211
11
5.83251
21
-3.56201
0
LINE
8
BLACK
6
CONTINUOUS
10
5.83251
20
-3.56201
11
5.83256
21
-3.56189
0
LINE
8
BLACK
6
CONTINUOUS
10
5.83256
20
-3.56189
11
5.83282
21
-3.56153
0
LINE
8
BLACK
6
CONTINUOUS
10
5.83282
20
-3.56153
11
5.83307
21
-3.56115
0
LINE
8
BLACK
6
CONTINUOUS
10
5.83307
20
-3.56115
11
5.83315
21
-3.56106
0
LINE
8
BLACK
6
CONTINUOUS
10
5.83315
20
-3.56106
11
5.83323
21
-3.56095
0
LINE
8
BLACK
6
CONTINUOUS
10
5.83323
20
-3.56095
11
5.83356
21
-3.56064
0
LINE
8
BLACK
6
CONTINUOUS
10
5.83356
20
-3.56064
11
5.83387
21
-3.56032
0
LINE
8
BLACK
6
CONTINUOUS
10
5.83387
20
-3.56032
11
5.83397
21
-3.56025
0
LINE
8
BLACK
6
CONTINUOUS
10
5.83397
20
-3.56025
11
5.83407
21
-3.56016
0
LINE
8
BLACK
6
CONTINUOUS
10
5.83407
20
-3.56016
11
5.83445
21
-3.55992
0
LINE
8
BLACK
6
CONTINUOUS
10
5.83445
20
-3.55992
11
5.83482
21
-3.55967
0
LINE
8
BLACK
6
CONTINUOUS
10
5.83482
20
-3.55967
11
5.83493
21
-3.55962
0
LINE
8
BLACK
6
CONTINUOUS
10
5.83493
20
-3.55962
11
5.83504
21
-3.55955
0
LINE
8
BLACK
6
CONTINUOUS
10
5.83504
20
-3.55955
11
5.84254
21
-3.5558
0
LINE
8
BLACK
6
CONTINUOUS
10
5.84254
20
-3.5558
11
5.84261
21
-3.55576
0
LINE
8
BLACK
6
CONTINUOUS
10
5.84261
20
-3.55576
11
5.84278
21
-3.5557
0
LINE
8
BLACK
6
CONTINUOUS
10
5.84278
20
-3.5557
11
5.84293
21
-3.55562
0
LINE
8
BLACK
6
CONTINUOUS
10
5.84293
20
-3.55562
11
5.84332
21
-3.5555
0
LINE
8
BLACK
6
CONTINUOUS
10
5.84332
20
-3.5555
11
5.8437
21
-3.55536
0
LINE
8
BLACK
6
CONTINUOUS
10
5.8437
20
-3.55536
11
5.84387
21
-3.55534
0
LINE
8
BLACK
6
CONTINUOUS
10
5.84387
20
-3.55534
11
5.84403
21
-3.55529
0
LINE
8
BLACK
6
CONTINUOUS
10
5.84403
20
-3.55529
11
5.84444
21
-3.55525
0
LINE
8
BLACK
6
CONTINUOUS
10
5.84444
20
-3.55525
11
5.84484
21
-3.55518
0
LINE
8
BLACK
6
CONTINUOUS
10
5.84484
20
-3.55518
11
5.84501
21
-3.55519
0
LINE
8
BLACK
6
CONTINUOUS
10
5.84501
20
-3.55519
11
5.84518
21
-3.55517
0
LINE
8
BLACK
6
CONTINUOUS
10
5.84518
20
-3.55517
11
5.85643
21
-3.55517
0
LINE
8
BLACK
6
CONTINUOUS
10
5.85643
20
-3.55517
11
5.85651
21
-3.55517
0
LINE
8
BLACK
6
CONTINUOUS
10
5.9915
20
-3.55517
11
5.99167
21
-3.55519
0
LINE
8
BLACK
6
CONTINUOUS
10
5.99167
20
-3.55519
11
5.99184
21
-3.55519
0
LINE
8
BLACK
6
CONTINUOUS
10
5.99184
20
-3.55519
11
5.99224
21
-3.55526
0
LINE
8
BLACK
6
CONTINUOUS
10
5.99224
20
-3.55526
11
5.99264
21
-3.5553
0
LINE
8
BLACK
6
CONTINUOUS
10
5.99264
20
-3.5553
11
5.99281
21
-3.55536
0
LINE
8
BLACK
6
CONTINUOUS
10
5.99281
20
-3.55536
11
5.99298
21
-3.55539
0
LINE
8
BLACK
6
CONTINUOUS
10
5.99298
20
-3.55539
11
5.99336
21
-3.55553
0
LINE
8
BLACK
6
CONTINUOUS
10
5.99336
20
-3.55553
11
5.99374
21
-3.55565
0
LINE
8
BLACK
6
CONTINUOUS
10
5.99374
20
-3.55565
11
5.99389
21
-3.55574
0
LINE
8
BLACK
6
CONTINUOUS
10
5.99389
20
-3.55574
11
5.99405
21
-3.5558
0
LINE
8
BLACK
6
CONTINUOUS
10
5.99405
20
-3.5558
11
6.00155
21
-3.55955
0
LINE
8
BLACK
6
CONTINUOUS
10
6.00155
20
-3.55955
11
6.00163
21
-3.55958
0
LINE
8
BLACK
6
CONTINUOUS
10
6.00163
20
-3.55958
11
6.00173
21
-3.55965
0
LINE
8
BLACK
6
CONTINUOUS
10
6.00173
20
-3.55965
11
6.00185
21
-3.55971
0
LINE
8
BLACK
6
CONTINUOUS
10
6.00185
20
-3.55971
11
6.00222
21
-3.55997
0
LINE
8
BLACK
6
CONTINUOUS
10
6.00222
20
-3.55997
11
6.00259
21
-3.56021
0
LINE
8
BLACK
6
CONTINUOUS
10
6.00259
20
-3.56021
11
6.00269
21
-3.5603
0
LINE
8
BLACK
6
CONTINUOUS
10
6.00269
20
-3.5603
11
6.00279
21
-3.56037
0
LINE
8
BLACK
6
CONTINUOUS
10
6.00279
20
-3.56037
11
6.0031
21
-3.5607
0
LINE
8
BLACK
6
CONTINUOUS
10
6.0031
20
-3.5607
11
6.00342
21
-3.56101
0
LINE
8
BLACK
6
CONTINUOUS
10
6.00342
20
-3.56101
11
6.00349
21
-3.56112
0
LINE
8
BLACK
6
CONTINUOUS
10
6.00349
20
-3.56112
11
6.00358
21
-3.56121
0
LINE
8
BLACK
6
CONTINUOUS
10
6.00358
20
-3.56121
11
6.00382
21
-3.56159
0
LINE
8
BLACK
6
CONTINUOUS
10
6.00382
20
-3.56159
11
6.00408
21
-3.56196
0
LINE
8
BLACK
6
CONTINUOUS
10
6.00408
20
-3.56196
11
6.00413
21
-3.56208
0
LINE
8
BLACK
6
CONTINUOUS
10
6.00413
20
-3.56208
11
6.00419
21
-3.56219
0
LINE
8
BLACK
6
CONTINUOUS
10
6.00419
20
-3.56219
11
6.00794
21
-3.56969
0
LINE
8
BLACK
6
CONTINUOUS
10
6.00794
20
-3.56969
11
6.00798
21
-3.56976
0
LINE
8
BLACK
6
CONTINUOUS
10
6.00798
20
-3.56976
11
6.00804
21
-3.56992
0
LINE
8
BLACK
6
CONTINUOUS
10
6.00804
20
-3.56992
11
6.00812
21
-3.57008
0
LINE
8
BLACK
6
CONTINUOUS
10
6.00812
20
-3.57008
11
6.00824
21
-3.57046
0
LINE
8
BLACK
6
CONTINUOUS
10
6.00824
20
-3.57046
11
6.00838
21
-3.57084
0
LINE
8
BLACK
6
CONTINUOUS
10
6.00838
20
-3.57084
11
6.0084
21
-3.57101
0
LINE
8
BLACK
6
CONTINUOUS
10
6.0084
20
-3.57101
11
6.00846
21
-3.57118
0
LINE
8
BLACK
6
CONTINUOUS
10
6.00846
20
-3.57118
11
6.00849
21
-3.57158
0
LINE
8
BLACK
6
CONTINUOUS
10
6.00849
20
-3.57158
11
6.00856
21
-3.57198
0
LINE
8
BLACK
6
CONTINUOUS
10
6.00856
20
-3.57198
11
6.00855
21
-3.57216
0
LINE
8
BLACK
6
CONTINUOUS
10
6.00855
20
-3.57216
11
6.00857
21
-3.57233
0
LINE
8
BLACK
6
CONTINUOUS
10
6.00857
20
-3.57233
11
6.00857
21
-3.57983
0
LINE
8
BLACK
6
CONTINUOUS
10
6.00857
20
-3.57983
11
6.00857
21
-3.57986
0
LINE
8
BLACK
6
CONTINUOUS
10
6.00857
20
-3.57986
11
6.00857
21
-3.57986
0
LINE
8
BLACK
6
CONTINUOUS
10
6.00857
20
-3.57986
11
6.00857
21
-3.57986
0
LINE
8
BLACK
6
CONTINUOUS
10
6.00857
20
-3.57986
11
6.00857
21
-3.57991
0
LINE
8
BLACK
6
CONTINUOUS
10
6.00857
20
-3.57991
11
6.00851
21
-3.58046
0
LINE
8
BLACK
6
CONTINUOUS
10
6.00851
20
-3.58046
11
6.00845
21
-3.581
0
LINE
8
BLACK
6
CONTINUOUS
10
6.00845
20
-3.581
11
6.00844
21
-3.58103
0
LINE
8
BLACK
6
CONTINUOUS
10
6.00844
20
-3.58103
11
6.00844
21
-3.58106
0
LINE
8
BLACK
6
CONTINUOUS
10
6.00844
20
-3.58106
11
6.00827
21
-3.58158
0
LINE
8
BLACK
6
CONTINUOUS
10
6.00827
20
-3.58158
11
6.00811
21
-3.58211
0
LINE
8
BLACK
6
CONTINUOUS
10
6.00811
20
-3.58211
11
6.0081
21
-3.58213
0
LINE
8
BLACK
6
CONTINUOUS
10
6.0081
20
-3.58213
11
6.00809
21
-3.58215
0
LINE
8
BLACK
6
CONTINUOUS
10
6.00809
20
-3.58215
11
6.00783
21
-3.58263
0
LINE
8
BLACK
6
CONTINUOUS
10
6.00783
20
-3.58263
11
6.00756
21
-3.58312
0
LINE
8
BLACK
6
CONTINUOUS
10
6.00756
20
-3.58312
11
6.00755
21
-3.58314
0
LINE
8
BLACK
6
CONTINUOUS
10
6.00755
20
-3.58314
11
6.00753
21
-3.58316
0
LINE
8
BLACK
6
CONTINUOUS
10
6.00753
20
-3.58316
11
6.00718
21
-3.58359
0
LINE
8
BLACK
6
CONTINUOUS
10
6.00718
20
-3.58359
11
6.00683
21
-3.58401
0
LINE
8
BLACK
6
CONTINUOUS
10
6.00683
20
-3.58401
11
6.00681
21
-3.58403
0
LINE
8
BLACK
6
CONTINUOUS
10
6.00681
20
-3.58403
11
6.00679
21
-3.58405
0
LINE
8
BLACK
6
CONTINUOUS
10
6.00679
20
-3.58405
11
6.00637
21
-3.58439
0
LINE
8
BLACK
6
CONTINUOUS
10
6.00637
20
-3.58439
11
6.00594
21
-3.58474
0
LINE
8
BLACK
6
CONTINUOUS
10
6.00594
20
-3.58474
11
6.00592
21
-3.58475
0
LINE
8
BLACK
6
CONTINUOUS
10
6.00592
20
-3.58475
11
6.0059
21
-3.58477
0
LINE
8
BLACK
6
CONTINUOUS
10
6.0059
20
-3.58477
11
6.00541
21
-3.58502
0
LINE
8
BLACK
6
CONTINUOUS
10
6.00541
20
-3.58502
11
6.00492
21
-3.58528
0
LINE
8
BLACK
6
CONTINUOUS
10
6.00492
20
-3.58528
11
6.0049
21
-3.58529
0
LINE
8
BLACK
6
CONTINUOUS
10
6.0049
20
-3.58529
11
6.00487
21
-3.5853
0
LINE
8
BLACK
6
CONTINUOUS
10
6.00487
20
-3.5853
11
6.00435
21
-3.58546
0
LINE
8
BLACK
6
CONTINUOUS
10
6.00435
20
-3.58546
11
6.00382
21
-3.58562
0
LINE
8
BLACK
6
CONTINUOUS
10
6.00382
20
-3.58562
11
5.97107
21
-3.59217
0
LINE
8
BLACK
6
CONTINUOUS
10
5.97107
20
-3.59217
11
5.97107
21
-3.60093
0
LINE
8
BLACK
6
CONTINUOUS
10
5.97107
20
-3.60093
11
5.97332
21
-3.60542
0
LINE
8
BLACK
6
CONTINUOUS
10
5.97332
20
-3.60542
11
5.97781
21
-3.60767
0
LINE
8
BLACK
6
CONTINUOUS
10
5.97781
20
-3.60767
11
5.99002
21
-3.60767
0
LINE
8
BLACK
6
CONTINUOUS
10
5.99002
20
-3.60767
11
5.99627
21
-3.60454
0
LINE
8
BLACK
6
CONTINUOUS
10
5.99627
20
-3.60454
11
5.99635
21
-3.60451
0
LINE
8
BLACK
6
CONTINUOUS
10
5.99635
20
-3.60451
11
5.99743
21
-3.60411
0
LINE
8
BLACK
6
CONTINUOUS
10
5.99743
20
-3.60411
11
5.99857
21
-3.60393
0
LINE
8
BLACK
6
CONTINUOUS
10
5.99857
20
-3.60393
11
5.99972
21
-3.60397
0
LINE
8
BLACK
6
CONTINUOUS
10
5.99972
20
-3.60397
11
6.00084
21
-3.60424
0
LINE
8
BLACK
6
CONTINUOUS
10
6.00084
20
-3.60424
11
6.00189
21
-3.60472
0
LINE
8
BLACK
6
CONTINUOUS
10
6.00189
20
-3.60472
11
6.00282
21
-3.6054
0
LINE
8
BLACK
6
CONTINUOUS
10
6.00282
20
-3.6054
11
6.00361
21
-3.60624
0
LINE
8
BLACK
6
CONTINUOUS
10
6.00361
20
-3.60624
11
6.00421
21
-3.60722
0
LINE
8
BLACK
6
CONTINUOUS
10
6.00421
20
-3.60722
11
6.00462
21
-3.6083
0
LINE
8
BLACK
6
CONTINUOUS
10
6.00462
20
-3.6083
11
6.00481
21
-3.60944
0
LINE
8
BLACK
6
CONTINUOUS
10
6.00481
20
-3.60944
11
6.00477
21
-3.61059
0
LINE
8
BLACK
6
CONTINUOUS
10
6.00477
20
-3.61059
11
6.00451
21
-3.61171
0
LINE
8
BLACK
6
CONTINUOUS
10
6.00451
20
-3.61171
11
6.00404
21
-3.61276
0
LINE
8
BLACK
6
CONTINUOUS
10
6.00404
20
-3.61276
11
6.00337
21
-3.6137
0
LINE
8
BLACK
6
CONTINUOUS
10
6.00337
20
-3.6137
11
6.00253
21
-3.61449
0
LINE
8
BLACK
6
CONTINUOUS
10
6.00253
20
-3.61449
11
6.00155
21
-3.61511
0
LINE
8
BLACK
6
CONTINUOUS
10
6.00155
20
-3.61511
11
5.99405
21
-3.61886
0
LINE
8
BLACK
6
CONTINUOUS
10
5.99405
20
-3.61886
11
5.99398
21
-3.61889
0
LINE
8
BLACK
6
CONTINUOUS
10
5.99398
20
-3.61889
11
5.99382
21
-3.61895
0
LINE
8
BLACK
6
CONTINUOUS
10
5.99382
20
-3.61895
11
5.99366
21
-3.61903
0
LINE
8
BLACK
6
CONTINUOUS
10
5.99366
20
-3.61903
11
5.99328
21
-3.61915
0
LINE
8
BLACK
6
CONTINUOUS
10
5.99328
20
-3.61915
11
5.9929
21
-3.61929
0
LINE
8
BLACK
6
CONTINUOUS
10
5.9929
20
-3.61929
11
5.99273
21
-3.61932
0
LINE
8
BLACK
6
CONTINUOUS
10
5.99273
20
-3.61932
11
5.99256
21
-3.61937
0
LINE
8
BLACK
6
CONTINUOUS
10
5.99256
20
-3.61937
11
5.99216
21
-3.61941
0
LINE
8
BLACK
6
CONTINUOUS
10
5.99216
20
-3.61941
11
5.99176
21
-3.61947
0
LINE
8
BLACK
6
CONTINUOUS
10
5.99176
20
-3.61947
11
5.99159
21
-3.61946
0
LINE
8
BLACK
6
CONTINUOUS
10
5.99159
20
-3.61946
11
5.99141
21
-3.61948
0
LINE
8
BLACK
6
CONTINUOUS
10
5.99141
20
-3.61948
11
5.97642
21
-3.61948
0
LINE
8
BLACK
6
CONTINUOUS
10
5.97642
20
-3.61948
11
5.97633
21
-3.61948
0
LINE
8
BLACK
6
CONTINUOUS
10
5.97633
20
-3.61948
11
5.97616
21
-3.61946
0
LINE
8
BLACK
6
CONTINUOUS
10
5.97616
20
-3.61946
11
5.97599
21
-3.61946
0
LINE
8
BLACK
6
CONTINUOUS
10
5.97599
20
-3.61946
11
5.97559
21
-3.61939
0
LINE
8
BLACK
6
CONTINUOUS
10
5.97559
20
-3.61939
11
5.97519
21
-3.61935
0
LINE
8
BLACK
6
CONTINUOUS
10
5.97519
20
-3.61935
11
5.97502
21
-3.6193
0
LINE
8
BLACK
6
CONTINUOUS
10
5.97502
20
-3.6193
11
5.97485
21
-3.61927
0
LINE
8
BLACK
6
CONTINUOUS
10
5.97485
20
-3.61927
11
5.97447
21
-3.61912
0
LINE
8
BLACK
6
CONTINUOUS
10
5.97447
20
-3.61912
11
5.97409
21
-3.619
0
LINE
8
BLACK
6
CONTINUOUS
10
5.97409
20
-3.619
11
5.97394
21
-3.61892
0
LINE
8
BLACK
6
CONTINUOUS
10
5.97394
20
-3.61892
11
5.97377
21
-3.61886
0
LINE
8
BLACK
6
CONTINUOUS
10
5.97377
20
-3.61886
11
5.96628
21
-3.61511
0
LINE
8
BLACK
6
CONTINUOUS
10
5.96628
20
-3.61511
11
5.9662
21
-3.61507
0
LINE
8
BLACK
6
CONTINUOUS
10
5.9662
20
-3.61507
11
5.9661
21
-3.615
0
LINE
8
BLACK
6
CONTINUOUS
10
5.9661
20
-3.615
11
5.96598
21
-3.61495
0
LINE
8
BLACK
6
CONTINUOUS
10
5.96598
20
-3.61495
11
5.96561
21
-3.61469
0
LINE
8
BLACK
6
CONTINUOUS
10
5.96561
20
-3.61469
11
5.96523
21
-3.61444
0
LINE
8
BLACK
6
CONTINUOUS
10
5.96523
20
-3.61444
11
5.96514
21
-3.61435
0
LINE
8
BLACK
6
CONTINUOUS
10
5.96514
20
-3.61435
11
5.96504
21
-3.61428
0
LINE
8
BLACK
6
CONTINUOUS
10
5.96504
20
-3.61428
11
5.96473
21
-3.61395
0
LINE
8
BLACK
6
CONTINUOUS
10
5.96473
20
-3.61395
11
5.96441
21
-3.61364
0
LINE
8
BLACK
6
CONTINUOUS
10
5.96441
20
-3.61364
11
5.96434
21
-3.61353
0
LINE
8
BLACK
6
CONTINUOUS
10
5.96434
20
-3.61353
11
5.96425
21
-3.61344
0
LINE
8
BLACK
6
CONTINUOUS
10
5.96425
20
-3.61344
11
5.96401
21
-3.61306
0
LINE
8
BLACK
6
CONTINUOUS
10
5.96401
20
-3.61306
11
5.96375
21
-3.61269
0
LINE
8
BLACK
6
CONTINUOUS
10
5.96375
20
-3.61269
11
5.9637
21
-3.61257
0
LINE
8
BLACK
6
CONTINUOUS
10
5.9637
20
-3.61257
11
5.96363
21
-3.61246
0
LINE
8
BLACK
6
CONTINUOUS
10
5.96363
20
-3.61246
11
5.95988
21
-3.60497
0
LINE
8
BLACK
6
CONTINUOUS
10
5.95988
20
-3.60497
11
5.95985
21
-3.60489
0
LINE
8
BLACK
6
CONTINUOUS
10
5.95985
20
-3.60489
11
5.95979
21
-3.60473
0
LINE
8
BLACK
6
CONTINUOUS
10
5.95979
20
-3.60473
11
5.95971
21
-3.60458
0
LINE
8
BLACK
6
CONTINUOUS
10
5.95971
20
-3.60458
11
5.95959
21
-3.60419
0
LINE
8
BLACK
6
CONTINUOUS
10
5.95959
20
-3.60419
11
5.95945
21
-3.60381
0
LINE
8
BLACK
6
CONTINUOUS
10
5.95945
20
-3.60381
11
5.95942
21
-3.60364
0
LINE
8
BLACK
6
CONTINUOUS
10
5.95942
20
-3.60364
11
5.95937
21
-3.60347
0
LINE
8
BLACK
6
CONTINUOUS
10
5.95937
20
-3.60347
11
5.95933
21
-3.60307
0
LINE
8
BLACK
6
CONTINUOUS
10
5.95933
20
-3.60307
11
5.95927
21
-3.60267
0
LINE
8
BLACK
6
CONTINUOUS
10
5.95927
20
-3.60267
11
5.95928
21
-3.6025
0
LINE
8
BLACK
6
CONTINUOUS
10
5.95928
20
-3.6025
11
5.95926
21
-3.60232
0
LINE
8
BLACK
6
CONTINUOUS
10
5.95926
20
-3.60232
11
5.95926
21
-3.57233
0
LINE
8
BLACK
6
CONTINUOUS
10
5.95926
20
-3.57233
11
5.95926
21
-3.57225
0
LINE
8
BLACK
6
CONTINUOUS
10
5.95926
20
-3.57225
11
5.95928
21
-3.57207
0
LINE
8
BLACK
6
CONTINUOUS
10
5.95928
20
-3.57207
11
5.95928
21
-3.5719
0
LINE
8
BLACK
6
CONTINUOUS
10
5.95928
20
-3.5719
11
5.95935
21
-3.5715
0
LINE
8
BLACK
6
CONTINUOUS
10
5.95935
20
-3.5715
11
5.95939
21
-3.5711
0
LINE
8
BLACK
6
CONTINUOUS
10
5.95939
20
-3.5711
11
5.95944
21
-3.57093
0
LINE
8
BLACK
6
CONTINUOUS
10
5.95944
20
-3.57093
11
5.95947
21
-3.57076
0
LINE
8
BLACK
6
CONTINUOUS
10
5.95947
20
-3.57076
11
5.95962
21
-3.57039
0
LINE
8
BLACK
6
CONTINUOUS
10
5.95962
20
-3.57039
11
5.95974
21
-3.57
0
LINE
8
BLACK
6
CONTINUOUS
10
5.95974
20
-3.57
11
5.95982
21
-3.56985
0
LINE
8
BLACK
6
CONTINUOUS
10
5.95982
20
-3.56985
11
5.95988
21
-3.56969
0
LINE
8
BLACK
6
CONTINUOUS
10
5.95988
20
-3.56969
11
5.96363
21
-3.56219
0
LINE
8
BLACK
6
CONTINUOUS
10
5.96363
20
-3.56219
11
5.96367
21
-3.56211
0
LINE
8
BLACK
6
CONTINUOUS
10
5.96367
20
-3.56211
11
5.96374
21
-3.56201
0
LINE
8
BLACK
6
CONTINUOUS
10
5.96374
20
-3.56201
11
5.96379
21
-3.56189
0
LINE
8
BLACK
6
CONTINUOUS
10
5.96379
20
-3.56189
11
5.96405
21
-3.56153
0
LINE
8
BLACK
6
CONTINUOUS
10
5.96405
20
-3.56153
11
5.9643
21
-3.56115
0
LINE
8
BLACK
6
CONTINUOUS
10
5.9643
20
-3.56115
11
5.96439
21
-3.56106
0
LINE
8
BLACK
6
CONTINUOUS
10
5.96439
20
-3.56106
11
5.96446
21
-3.56095
0
LINE
8
BLACK
6
CONTINUOUS
10
5.96446
20
-3.56095
11
5.96479
21
-3.56064
0
LINE
8
BLACK
6
CONTINUOUS
10
5.96479
20
-3.56064
11
5.9651
21
-3.56032
0
LINE
8
BLACK
6
CONTINUOUS
10
5.9651
20
-3.56032
11
5.96521
21
-3.56025
0
LINE
8
BLACK
6
CONTINUOUS
10
5.96521
20
-3.56025
11
5.9653
21
-3.56016
0
LINE
8
BLACK
6
CONTINUOUS
10
5.9653
20
-3.56016
11
5.96568
21
-3.55992
0
LINE
8
BLACK
6
CONTINUOUS
10
5.96568
20
-3.55992
11
5.96605
21
-3.55967
0
LINE
8
BLACK
6
CONTINUOUS
10
5.96605
20
-3.55967
11
5.96617
21
-3.55962
0
LINE
8
BLACK
6
CONTINUOUS
10
5.96617
20
-3.55962
11
5.96628
21
-3.55955
0
LINE
8
BLACK
6
CONTINUOUS
10
5.96628
20
-3.55955
11
5.97377
21
-3.5558
0
LINE
8
BLACK
6
CONTINUOUS
10
5.97377
20
-3.5558
11
5.97385
21
-3.55576
0
LINE
8
BLACK
6
CONTINUOUS
10
5.97385
20
-3.55576
11
5.97401
21
-3.5557
0
LINE
8
BLACK
6
CONTINUOUS
10
5.97401
20
-3.5557
11
5.97417
21
-3.55562
0
LINE
8
BLACK
6
CONTINUOUS
10
5.97417
20
-3.55562
11
5.97455
21
-3.5555
0
LINE
8
BLACK
6
CONTINUOUS
10
5.97455
20
-3.5555
11
5.97493
21
-3.55536
0
LINE
8
BLACK
6
CONTINUOUS
10
5.97493
20
-3.55536
11
5.9751
21
-3.55534
0
LINE
8
BLACK
6
CONTINUOUS
10
5.9751
20
-3.55534
11
5.97527
21
-3.55529
0
LINE
8
BLACK
6
CONTINUOUS
10
5.97527
20
-3.55529
11
5.97567
21
-3.55525
0
LINE
8
BLACK
6
CONTINUOUS
10
5.97567
20
-3.55525
11
5.97607
21
-3.55518
0
LINE
8
BLACK
6
CONTINUOUS
10
5.97607
20
-3.55518
11
5.97624
21
-3.55519
0
LINE
8
BLACK
6
CONTINUOUS
10
5.97624
20
-3.55519
11
5.97642
21
-3.55517
0
LINE
8
BLACK
6
CONTINUOUS
10
5.97642
20
-3.55517
11
5.99141
21
-3.55517
0
LINE
8
BLACK
6
CONTINUOUS
10
5.99141
20
-3.55517
11
5.9915
21
-3.55517
0
LINE
8
BLACK
6
CONTINUOUS
10
5.97781
20
-3.56699
11
5.97332
21
-3.56923
0
LINE
8
BLACK
6
CONTINUOUS
10
5.97332
20
-3.56923
11
5.97107
21
-3.57372
0
LINE
8
BLACK
6
CONTINUOUS
10
5.97107
20
-3.57372
11
5.97107
21
-3.58012
0
LINE
8
BLACK
6
CONTINUOUS
10
5.97107
20
-3.58012
11
5.99676
21
-3.57499
0
LINE
8
BLACK
6
CONTINUOUS
10
5.99676
20
-3.57499
11
5.99676
21
-3.57372
0
LINE
8
BLACK
6
CONTINUOUS
10
5.99676
20
-3.57372
11
5.99451
21
-3.56923
0
LINE
8
BLACK
6
CONTINUOUS
10
5.99451
20
-3.56923
11
5.99002
21
-3.56699
0
LINE
8
BLACK
6
CONTINUOUS
10
5.99002
20
-3.56699
11
5.97781
21
-3.56699
0
LINE
8
BLACK
6
CONTINUOUS
10
5.924
20
-3.55517
11
5.92418
21
-3.55519
0
LINE
8
BLACK
6
CONTINUOUS
10
5.92418
20
-3.55519
11
5.92435
21
-3.55519
0
LINE
8
BLACK
6
CONTINUOUS
10
5.92435
20
-3.55519
11
5.92475
21
-3.55526
0
LINE
8
BLACK
6
CONTINUOUS
10
5.92475
20
-3.55526
11
5.92515
21
-3.5553
0
LINE
8
BLACK
6
CONTINUOUS
10
5.92515
20
-3.5553
11
5.92532
21
-3.55536
0
LINE
8
BLACK
6
CONTINUOUS
10
5.92532
20
-3.55536
11
5.92549
21
-3.55539
0
LINE
8
BLACK
6
CONTINUOUS
10
5.92549
20
-3.55539
11
5.92586
21
-3.55553
0
LINE
8
BLACK
6
CONTINUOUS
10
5.92586
20
-3.55553
11
5.92625
21
-3.55565
0
LINE
8
BLACK
6
CONTINUOUS
10
5.92625
20
-3.55565
11
5.9264
21
-3.55574
0
LINE
8
BLACK
6
CONTINUOUS
10
5.9264
20
-3.55574
11
5.92656
21
-3.5558
0
LINE
8
BLACK
6
CONTINUOUS
10
5.92656
20
-3.5558
11
5.93406
21
-3.55955
0
LINE
8
BLACK
6
CONTINUOUS
10
5.93406
20
-3.55955
11
5.93414
21
-3.55958
0
LINE
8
BLACK
6
CONTINUOUS
10
5.93414
20
-3.55958
11
5.93424
21
-3.55965
0
LINE
8
BLACK
6
CONTINUOUS
10
5.93424
20
-3.55965
11
5.93436
21
-3.55971
0
LINE
8
BLACK
6
CONTINUOUS
10
5.93436
20
-3.55971
11
5.93473
21
-3.55997
0
LINE
8
BLACK
6
CONTINUOUS
10
5.93473
20
-3.55997
11
5.9351
21
-3.56021
0
LINE
8
BLACK
6
CONTINUOUS
10
5.9351
20
-3.56021
11
5.93519
21
-3.5603
0
LINE
8
BLACK
6
CONTINUOUS
10
5.93519
20
-3.5603
11
5.9353
21
-3.56037
0
LINE
8
BLACK
6
CONTINUOUS
10
5.9353
20
-3.56037
11
5.93561
21
-3.5607
0
LINE
8
BLACK
6
CONTINUOUS
10
5.93561
20
-3.5607
11
5.93593
21
-3.56101
0
LINE
8
BLACK
6
CONTINUOUS
10
5.93593
20
-3.56101
11
5.936
21
-3.56112
0
LINE
8
BLACK
6
CONTINUOUS
10
5.936
20
-3.56112
11
5.93609
21
-3.56121
0
LINE
8
BLACK
6
CONTINUOUS
10
5.93609
20
-3.56121
11
5.93633
21
-3.56159
0
LINE
8
BLACK
6
CONTINUOUS
10
5.93633
20
-3.56159
11
5.93658
21
-3.56196
0
LINE
8
BLACK
6
CONTINUOUS
10
5.93658
20
-3.56196
11
5.93664
21
-3.56208
0
LINE
8
BLACK
6
CONTINUOUS
10
5.93664
20
-3.56208
11
5.9367
21
-3.56219
0
LINE
8
BLACK
6
CONTINUOUS
10
5.9367
20
-3.56219
11
5.94045
21
-3.56969
0
LINE
8
BLACK
6
CONTINUOUS
10
5.94045
20
-3.56969
11
5.94049
21
-3.56976
0
LINE
8
BLACK
6
CONTINUOUS
10
5.94049
20
-3.56976
11
5.94055
21
-3.56992
0
LINE
8
BLACK
6
CONTINUOUS
10
5.94055
20
-3.56992
11
5.94063
21
-3.57008
0
LINE
8
BLACK
6
CONTINUOUS
10
5.94063
20
-3.57008
11
5.94075
21
-3.57046
0
LINE
8
BLACK
6
CONTINUOUS
10
5.94075
20
-3.57046
11
5.94089
21
-3.57084
0
LINE
8
BLACK
6
CONTINUOUS
10
5.94089
20
-3.57084
11
5.94091
21
-3.57102
0
LINE
8
BLACK
6
CONTINUOUS
10
5.94091
20
-3.57102
11
5.94096
21
-3.57118
0
LINE
8
BLACK
6
CONTINUOUS
10
5.94096
20
-3.57118
11
5.941
21
-3.57158
0
LINE
8
BLACK
6
CONTINUOUS
10
5.941
20
-3.57158
11
5.94107
21
-3.57198
0
LINE
8
BLACK
6
CONTINUOUS
10
5.94107
20
-3.57198
11
5.94106
21
-3.57216
0
LINE
8
BLACK
6
CONTINUOUS
10
5.94106
20
-3.57216
11
5.94108
21
-3.57233
0
LINE
8
BLACK
6
CONTINUOUS
10
5.94108
20
-3.57233
11
5.94108
21
-3.57983
0
LINE
8
BLACK
6
CONTINUOUS
10
5.94108
20
-3.57983
11
5.94108
21
-3.57986
0
LINE
8
BLACK
6
CONTINUOUS
10
5.94108
20
-3.57986
11
5.94108
21
-3.57986
0
LINE
8
BLACK
6
CONTINUOUS
10
5.94108
20
-3.57986
11
5.94108
21
-3.57986
0
LINE
8
BLACK
6
CONTINUOUS
10
5.94108
20
-3.57986
11
5.94108
21
-3.57991
0
LINE
8
BLACK
6
CONTINUOUS
10
5.94108
20
-3.57991
11
5.94101
21
-3.58046
0
LINE
8
BLACK
6
CONTINUOUS
10
5.94101
20
-3.58046
11
5.94096
21
-3.581
0
LINE
8
BLACK
6
CONTINUOUS
10
5.94096
20
-3.581
11
5.94095
21
-3.58103
0
LINE
8
BLACK
6
CONTINUOUS
10
5.94095
20
-3.58103
11
5.94095
21
-3.58106
0
LINE
8
BLACK
6
CONTINUOUS
10
5.94095
20
-3.58106
11
5.94078
21
-3.58158
0
LINE
8
BLACK
6
CONTINUOUS
10
5.94078
20
-3.58158
11
5.94062
21
-3.58211
0
LINE
8
BLACK
6
CONTINUOUS
10
5.94062
20
-3.58211
11
5.94061
21
-3.58213
0
LINE
8
BLACK
6
CONTINUOUS
10
5.94061
20
-3.58213
11
5.9406
21
-3.58215
0
LINE
8
BLACK
6
CONTINUOUS
10
5.9406
20
-3.58215
11
5.94033
21
-3.58263
0
LINE
8
BLACK
6
CONTINUOUS
10
5.94033
20
-3.58263
11
5.94007
21
-3.58312
0
LINE
8
BLACK
6
CONTINUOUS
10
5.94007
20
-3.58312
11
5.94006
21
-3.58314
0
LINE
8
BLACK
6
CONTINUOUS
10
5.94006
20
-3.58314
11
5.94004
21
-3.58316
0
LINE
8
BLACK
6
CONTINUOUS
10
5.94004
20
-3.58316
11
5.93969
21
-3.58359
0
LINE
8
BLACK
6
CONTINUOUS
10
5.93969
20
-3.58359
11
5.93934
21
-3.58401
0
LINE
8
BLACK
6
CONTINUOUS
10
5.93934
20
-3.58401
11
5.93932
21
-3.58403
0
LINE
8
BLACK
6
CONTINUOUS
10
5.93932
20
-3.58403
11
5.9393
21
-3.58405
0
LINE
8
BLACK
6
CONTINUOUS
10
5.9393
20
-3.58405
11
5.93887
21
-3.58439
0
LINE
8
BLACK
6
CONTINUOUS
10
5.93887
20
-3.58439
11
5.93845
21
-3.58474
0
LINE
8
BLACK
6
CONTINUOUS
10
5.93845
20
-3.58474
11
5.93842
21
-3.58475
0
LINE
8
BLACK
6
CONTINUOUS
10
5.93842
20
-3.58475
11
5.9384
21
-3.58477
0
LINE
8
BLACK
6
CONTINUOUS
10
5.9384
20
-3.58477
11
5.93792
21
-3.58502
0
LINE
8
BLACK
6
CONTINUOUS
10
5.93792
20
-3.58502
11
5.93743
21
-3.58528
0
LINE
8
BLACK
6
CONTINUOUS
10
5.93743
20
-3.58528
11
5.93741
21
-3.58529
0
LINE
8
BLACK
6
CONTINUOUS
10
5.93741
20
-3.58529
11
5.93738
21
-3.5853
0
LINE
8
BLACK
6
CONTINUOUS
10
5.93738
20
-3.5853
11
5.93685
21
-3.58546
0
LINE
8
BLACK
6
CONTINUOUS
10
5.93685
20
-3.58546
11
5.93633
21
-3.58562
0
LINE
8
BLACK
6
CONTINUOUS
10
5.93633
20
-3.58562
11
5.90358
21
-3.59217
0
LINE
8
BLACK
6
CONTINUOUS
10
5.90358
20
-3.59217
11
5.90358
21
-3.60093
0
LINE
8
BLACK
6
CONTINUOUS
10
5.90358
20
-3.60093
11
5.90583
21
-3.60542
0
LINE
8
BLACK
6
CONTINUOUS
10
5.90583
20
-3.60542
11
5.91032
21
-3.60767
0
LINE
8
BLACK
6
CONTINUOUS
10
5.91032
20
-3.60767
11
5.92253
21
-3.60767
0
LINE
8
BLACK
6
CONTINUOUS
10
5.92253
20
-3.60767
11
5.92878
21
-3.60454
0
LINE
8
BLACK
6
CONTINUOUS
10
5.92878
20
-3.60454
11
5.92885
21
-3.60451
0
LINE
8
BLACK
6
CONTINUOUS
10
5.92885
20
-3.60451
11
5.92994
21
-3.60411
0
LINE
8
BLACK
6
CONTINUOUS
10
5.92994
20
-3.60411
11
5.93107
21
-3.60393
0
LINE
8
BLACK
6
CONTINUOUS
10
5.93107
20
-3.60393
11
5.93223
21
-3.60397
0
LINE
8
BLACK
6
CONTINUOUS
10
5.93223
20
-3.60397
11
5.93335
21
-3.60424
0
LINE
8
BLACK
6
CONTINUOUS
10
5.93335
20
-3.60424
11
5.93439
21
-3.60472
0
LINE
8
BLACK
6
CONTINUOUS
10
5.93439
20
-3.60472
11
5.93533
21
-3.6054
0
LINE
8
BLACK
6
CONTINUOUS
10
5.93533
20
-3.6054
11
5.93611
21
-3.60624
0
LINE
8
BLACK
6
CONTINUOUS
10
5.93611
20
-3.60624
11
5.93672
21
-3.60722
0
LINE
8
BLACK
6
CONTINUOUS
10
5.93672
20
-3.60722
11
5.93713
21
-3.6083
0
LINE
8
BLACK
6
CONTINUOUS
10
5.93713
20
-3.6083
11
5.93731
21
-3.60944
0
LINE
8
BLACK
6
CONTINUOUS
10
5.93731
20
-3.60944
11
5.93728
21
-3.61059
0
LINE
8
BLACK
6
CONTINUOUS
10
5.93728
20
-3.61059
11
5.93702
21
-3.61171
0
LINE
8
BLACK
6
CONTINUOUS
10
5.93702
20
-3.61171
11
5.93654
21
-3.61276
0
LINE
8
BLACK
6
CONTINUOUS
10
5.93654
20
-3.61276
11
5.93588
21
-3.6137
0
LINE
8
BLACK
6
CONTINUOUS
10
5.93588
20
-3.6137
11
5.93504
21
-3.61449
0
LINE
8
BLACK
6
CONTINUOUS
10
5.93504
20
-3.61449
11
5.93406
21
-3.61511
0
LINE
8
BLACK
6
CONTINUOUS
10
5.93406
20
-3.61511
11
5.92656
21
-3.61886
0
LINE
8
BLACK
6
CONTINUOUS
10
5.92656
20
-3.61886
11
5.92649
21
-3.61889
0
LINE
8
BLACK
6
CONTINUOUS
10
5.92649
20
-3.61889
11
5.92633
21
-3.61895
0
LINE
8
BLACK
6
CONTINUOUS
10
5.92633
20
-3.61895
11
5.92617
21
-3.61903
0
LINE
8
BLACK
6
CONTINUOUS
10
5.92617
20
-3.61903
11
5.92579
21
-3.61915
0
LINE
8
BLACK
6
CONTINUOUS
10
5.92579
20
-3.61915
11
5.92541
21
-3.61929
0
LINE
8
BLACK
6
CONTINUOUS
10
5.92541
20
-3.61929
11
5.92524
21
-3.61932
0
LINE
8
BLACK
6
CONTINUOUS
10
5.92524
20
-3.61932
11
5.92507
21
-3.61937
0
LINE
8
BLACK
6
CONTINUOUS
10
5.92507
20
-3.61937
11
5.92467
21
-3.61941
0
LINE
8
BLACK
6
CONTINUOUS
10
5.92467
20
-3.61941
11
5.92427
21
-3.61947
0
LINE
8
BLACK
6
CONTINUOUS
10
5.92427
20
-3.61947
11
5.9241
21
-3.61946
0
LINE
8
BLACK
6
CONTINUOUS
10
5.9241
20
-3.61946
11
5.92392
21
-3.61948
0
LINE
8
BLACK
6
CONTINUOUS
10
5.92392
20
-3.61948
11
5.90892
21
-3.61948
0
LINE
8
BLACK
6
CONTINUOUS
10
5.90892
20
-3.61948
11
5.90884
21
-3.61948
0
LINE
8
BLACK
6
CONTINUOUS
10
5.90884
20
-3.61948
11
5.90867
21
-3.61946
0
LINE
8
BLACK
6
CONTINUOUS
10
5.90867
20
-3.61946
11
5.90849
21
-3.61946
0
LINE
8
BLACK
6
CONTINUOUS
10
5.90849
20
-3.61946
11
5.9081
21
-3.61939
0
LINE
8
BLACK
6
CONTINUOUS
10
5.9081
20
-3.61939
11
5.9077
21
-3.61935
0
LINE
8
BLACK
6
CONTINUOUS
10
5.9077
20
-3.61935
11
5.90753
21
-3.6193
0
LINE
8
BLACK
6
CONTINUOUS
10
5.90753
20
-3.6193
11
5.90736
21
-3.61927
0
LINE
8
BLACK
6
CONTINUOUS
10
5.90736
20
-3.61927
11
5.90698
21
-3.61912
0
LINE
8
BLACK
6
CONTINUOUS
10
5.90698
20
-3.61912
11
5.9066
21
-3.619
0
LINE
8
BLACK
6
CONTINUOUS
10
5.9066
20
-3.619
11
5.90645
21
-3.61892
0
LINE
8
BLACK
6
CONTINUOUS
10
5.90645
20
-3.61892
11
5.90628
21
-3.61886
0
LINE
8
BLACK
6
CONTINUOUS
10
5.90628
20
-3.61886
11
5.89878
21
-3.61511
0
LINE
8
BLACK
6
CONTINUOUS
10
5.89878
20
-3.61511
11
5.89871
21
-3.61507
0
LINE
8
BLACK
6
CONTINUOUS
10
5.89871
20
-3.61507
11
5.8986
21
-3.615
0
LINE
8
BLACK
6
CONTINUOUS
10
5.8986
20
-3.615
11
5.89849
21
-3.61495
0
LINE
8
BLACK
6
CONTINUOUS
10
5.89849
20
-3.61495
11
5.89812
21
-3.61469
0
LINE
8
BLACK
6
CONTINUOUS
10
5.89812
20
-3.61469
11
5.89774
21
-3.61444
0
LINE
8
BLACK
6
CONTINUOUS
10
5.89774
20
-3.61444
11
5.89765
21
-3.61435
0
LINE
8
BLACK
6
CONTINUOUS
10
5.89765
20
-3.61435
11
5.89755
21
-3.61428
0
LINE
8
BLACK
6
CONTINUOUS
10
5.89755
20
-3.61428
11
5.89724
21
-3.61395
0
LINE
8
BLACK
6
CONTINUOUS
10
5.89724
20
-3.61395
11
5.89692
21
-3.61364
0
LINE
8
BLACK
6
CONTINUOUS
10
5.89692
20
-3.61364
11
5.89684
21
-3.61353
0
LINE
8
BLACK
6
CONTINUOUS
10
5.89684
20
-3.61353
11
5.89676
21
-3.61344
0
LINE
8
BLACK
6
CONTINUOUS
10
5.89676
20
-3.61344
11
5.89652
21
-3.61306
0
LINE
8
BLACK
6
CONTINUOUS
10
5.89652
20
-3.61306
11
5.89626
21
-3.61269
0
LINE
8
BLACK
6
CONTINUOUS
10
5.89626
20
-3.61269
11
5.89621
21
-3.61257
0
LINE
8
BLACK
6
CONTINUOUS
10
5.89621
20
-3.61257
11
5.89614
21
-3.61246
0
LINE
8
BLACK
6
CONTINUOUS
10
5.89614
20
-3.61246
11
5.89239
21
-3.60497
0
LINE
8
BLACK
6
CONTINUOUS
10
5.89239
20
-3.60497
11
5.89236
21
-3.60489
0
LINE
8
BLACK
6
CONTINUOUS
10
5.89236
20
-3.60489
11
5.8923
21
-3.60473
0
LINE
8
BLACK
6
CONTINUOUS
10
5.8923
20
-3.60473
11
5.89222
21
-3.60458
0
LINE
8
BLACK
6
CONTINUOUS
10
5.89222
20
-3.60458
11
5.8921
21
-3.60419
0
LINE
8
BLACK
6
CONTINUOUS
10
5.8921
20
-3.60419
11
5.89196
21
-3.60381
0
LINE
8
BLACK
6
CONTINUOUS
10
5.89196
20
-3.60381
11
5.89193
21
-3.60364
0
LINE
8
BLACK
6
CONTINUOUS
10
5.89193
20
-3.60364
11
5.89188
21
-3.60347
0
LINE
8
BLACK
6
CONTINUOUS
10
5.89188
20
-3.60347
11
5.89184
21
-3.60307
0
LINE
8
BLACK
6
CONTINUOUS
10
5.89184
20
-3.60307
11
5.89178
21
-3.60267
0
LINE
8
BLACK
6
CONTINUOUS
10
5.89178
20
-3.60267
11
5.89179
21
-3.6025
0
LINE
8
BLACK
6
CONTINUOUS
10
5.89179
20
-3.6025
11
5.89177
21
-3.60232
0
LINE
8
BLACK
6
CONTINUOUS
10
5.89177
20
-3.60232
11
5.89177
21
-3.57233
0
LINE
8
BLACK
6
CONTINUOUS
10
5.89177
20
-3.57233
11
5.89177
21
-3.57225
0
LINE
8
BLACK
6
CONTINUOUS
10
5.89177
20
-3.57225
11
5.89179
21
-3.57207
0
LINE
8
BLACK
6
CONTINUOUS
10
5.89179
20
-3.57207
11
5.89179
21
-3.5719
0
LINE
8
BLACK
6
CONTINUOUS
10
5.89179
20
-3.5719
11
5.89185
21
-3.5715
0
LINE
8
BLACK
6
CONTINUOUS
10
5.89185
20
-3.5715
11
5.8919
21
-3.5711
0
LINE
8
BLACK
6
CONTINUOUS
10
5.8919
20
-3.5711
11
5.89195
21
-3.57093
0
LINE
8
BLACK
6
CONTINUOUS
10
5.89195
20
-3.57093
11
5.89198
21
-3.57076
0
LINE
8
BLACK
6
CONTINUOUS
10
5.89198
20
-3.57076
11
5.89213
21
-3.57039
0
LINE
8
BLACK
6
CONTINUOUS
10
5.89213
20
-3.57039
11
5.89225
21
-3.57
0
LINE
8
BLACK
6
CONTINUOUS
10
5.89225
20
-3.57
11
5.89233
21
-3.56985
0
LINE
8
BLACK
6
CONTINUOUS
10
5.89233
20
-3.56985
11
5.89239
21
-3.56969
0
LINE
8
BLACK
6
CONTINUOUS
10
5.89239
20
-3.56969
11
5.89614
21
-3.56219
0
LINE
8
BLACK
6
CONTINUOUS
10
5.89614
20
-3.56219
11
5.89618
21
-3.56211
0
LINE
8
BLACK
6
CONTINUOUS
10
5.89618
20
-3.56211
11
5.89625
21
-3.56201
0
LINE
8
BLACK
6
CONTINUOUS
10
5.89625
20
-3.56201
11
5.8963
21
-3.56189
0
LINE
8
BLACK
6
CONTINUOUS
10
5.8963
20
-3.56189
11
5.89656
21
-3.56153
0
LINE
8
BLACK
6
CONTINUOUS
10
5.89656
20
-3.56153
11
5.89681
21
-3.56115
0
LINE
8
BLACK
6
CONTINUOUS
10
5.89681
20
-3.56115
11
5.8969
21
-3.56106
0
LINE
8
BLACK
6
CONTINUOUS
10
5.8969
20
-3.56106
11
5.89697
21
-3.56095
0
LINE
8
BLACK
6
CONTINUOUS
10
5.89697
20
-3.56095
11
5.8973
21
-3.56064
0
LINE
8
BLACK
6
CONTINUOUS
10
5.8973
20
-3.56064
11
5.89761
21
-3.56032
0
LINE
8
BLACK
6
CONTINUOUS
10
5.89761
20
-3.56032
11
5.89772
21
-3.56025
0
LINE
8
BLACK
6
CONTINUOUS
10
5.89772
20
-3.56025
11
5.89781
21
-3.56016
0
LINE
8
BLACK
6
CONTINUOUS
10
5.89781
20
-3.56016
11
5.89819
21
-3.55992
0
LINE
8
BLACK
6
CONTINUOUS
10
5.89819
20
-3.55992
11
5.89856
21
-3.55967
0
LINE
8
BLACK
6
CONTINUOUS
10
5.89856
20
-3.55967
11
5.89868
21
-3.55962
0
LINE
8
BLACK
6
CONTINUOUS
10
5.89868
20
-3.55962
11
5.89878
21
-3.55955
0
LINE
8
BLACK
6
CONTINUOUS
10
5.89878
20
-3.55955
11
5.90628
21
-3.5558
0
LINE
8
BLACK
6
CONTINUOUS
10
5.90628
20
-3.5558
11
5.90636
21
-3.55576
0
LINE
8
BLACK
6
CONTINUOUS
10
5.90636
20
-3.55576
11
5.90652
21
-3.5557
0
LINE
8
BLACK
6
CONTINUOUS
10
5.90652
20
-3.5557
11
5.90667
21
-3.55562
0
LINE
8
BLACK
6
CONTINUOUS
10
5.90667
20
-3.55562
11
5.90706
21
-3.5555
0
LINE
8
BLACK
6
CONTINUOUS
10
5.90706
20
-3.5555
11
5.90744
21
-3.55536
0
LINE
8
BLACK
6
CONTINUOUS
10
5.90744
20
-3.55536
11
5.90761
21
-3.55534
0
LINE
8
BLACK
6
CONTINUOUS
10
5.90761
20
-3.55534
11
5.90778
21
-3.55529
0
LINE
8
BLACK
6
CONTINUOUS
10
5.90778
20
-3.55529
11
5.90818
21
-3.55525
0
LINE
8
BLACK
6
CONTINUOUS
10
5.90818
20
-3.55525
11
5.90858
21
-3.55518
0
LINE
8
BLACK
6
CONTINUOUS
10
5.90858
20
-3.55518
11
5.90875
21
-3.55519
0
LINE
8
BLACK
6
CONTINUOUS
10
5.90875
20
-3.55519
11
5.90892
21
-3.55517
0
LINE
8
BLACK
6
CONTINUOUS
10
5.90892
20
-3.55517
11
5.92392
21
-3.55517
0
LINE
8
BLACK
6
CONTINUOUS
10
5.92392
20
-3.55517
11
5.924
21
-3.55517
0
LINE
8
BLACK
6
CONTINUOUS
10
5.91032
20
-3.56699
11
5.90583
21
-3.56923
0
LINE
8
BLACK
6
CONTINUOUS
10
5.90583
20
-3.56923
11
5.90358
21
-3.57372
0
LINE
8
BLACK
6
CONTINUOUS
10
5.90358
20
-3.57372
11
5.90358
21
-3.58012
0
LINE
8
BLACK
6
CONTINUOUS
10
5.90358
20
-3.58012
11
5.92927
21
-3.57499
0
LINE
8
BLACK
6
CONTINUOUS
10
5.92927
20
-3.57499
11
5.92927
21
-3.57372
0
LINE
8
BLACK
6
CONTINUOUS
10
5.92927
20
-3.57372
11
5.92702
21
-3.56923
0
LINE
8
BLACK
6
CONTINUOUS
10
5.92702
20
-3.56923
11
5.92253
21
-3.56699
0
LINE
8
BLACK
6
CONTINUOUS
10
5.92253
20
-3.56699
11
5.91032
21
-3.56699
0
LINE
8
BLACK
6
CONTINUOUS
10
6.26257
20
-3.55529
11
6.26367
21
-3.55564
0
LINE
8
BLACK
6
CONTINUOUS
10
6.26367
20
-3.55564
11
6.26468
21
-3.55618
0
LINE
8
BLACK
6
CONTINUOUS
10
6.26468
20
-3.55618
11
6.26557
21
-3.55692
0
LINE
8
BLACK
6
CONTINUOUS
10
6.26557
20
-3.55692
11
6.2663
21
-3.55781
0
LINE
8
BLACK
6
CONTINUOUS
10
6.2663
20
-3.55781
11
6.26684
21
-3.55883
0
LINE
8
BLACK
6
CONTINUOUS
10
6.26684
20
-3.55883
11
6.26717
21
-3.55993
0
LINE
8
BLACK
6
CONTINUOUS
10
6.26717
20
-3.55993
11
6.26729
21
-3.56108
0
LINE
8
BLACK
6
CONTINUOUS
10
6.26729
20
-3.56108
11
6.26729
21
-3.61357
0
LINE
8
BLACK
6
CONTINUOUS
10
6.26729
20
-3.61357
11
6.26728
21
-3.61366
0
LINE
8
BLACK
6
CONTINUOUS
10
6.26728
20
-3.61366
11
6.26716
21
-3.6148
0
LINE
8
BLACK
6
CONTINUOUS
10
6.26716
20
-3.6148
11
6.26681
21
-3.6159
0
LINE
8
BLACK
6
CONTINUOUS
10
6.26681
20
-3.6159
11
6.26625
21
-3.61691
0
LINE
8
BLACK
6
CONTINUOUS
10
6.26625
20
-3.61691
11
6.26551
21
-3.61779
0
LINE
8
BLACK
6
CONTINUOUS
10
6.26551
20
-3.61779
11
6.26461
21
-3.61851
0
LINE
8
BLACK
6
CONTINUOUS
10
6.26461
20
-3.61851
11
6.26359
21
-3.61905
0
LINE
8
BLACK
6
CONTINUOUS
10
6.26359
20
-3.61905
11
6.26249
21
-3.61937
0
LINE
8
BLACK
6
CONTINUOUS
10
6.26249
20
-3.61937
11
6.26134
21
-3.61948
0
LINE
8
BLACK
6
CONTINUOUS
10
6.26134
20
-3.61948
11
6.26019
21
-3.61936
0
LINE
8
BLACK
6
CONTINUOUS
10
6.26019
20
-3.61936
11
6.25909
21
-3.61902
0
LINE
8
BLACK
6
CONTINUOUS
10
6.25909
20
-3.61902
11
6.25808
21
-3.61847
0
LINE
8
BLACK
6
CONTINUOUS
10
6.25808
20
-3.61847
11
6.25719
21
-3.61773
0
LINE
8
BLACK
6
CONTINUOUS
10
6.25719
20
-3.61773
11
6.25656
21
-3.61696
0
LINE
8
BLACK
6
CONTINUOUS
10
6.25656
20
-3.61696
11
6.25277
21
-3.61886
0
LINE
8
BLACK
6
CONTINUOUS
10
6.25277
20
-3.61886
11
6.2527
21
-3.61889
0
LINE
8
BLACK
6
CONTINUOUS
10
6.2527
20
-3.61889
11
6.25254
21
-3.61895
0
LINE
8
BLACK
6
CONTINUOUS
10
6.25254
20
-3.61895
11
6.25238
21
-3.61903
0
LINE
8
BLACK
6
CONTINUOUS
10
6.25238
20
-3.61903
11
6.25199
21
-3.61915
0
LINE
8
BLACK
6
CONTINUOUS
10
6.25199
20
-3.61915
11
6.25162
21
-3.61929
0
LINE
8
BLACK
6
CONTINUOUS
10
6.25162
20
-3.61929
11
6.25144
21
-3.61932
0
LINE
8
BLACK
6
CONTINUOUS
10
6.25144
20
-3.61932
11
6.25128
21
-3.61937
0
LINE
8
BLACK
6
CONTINUOUS
10
6.25128
20
-3.61937
11
6.25088
21
-3.61941
0
LINE
8
BLACK
6
CONTINUOUS
10
6.25088
20
-3.61941
11
6.25048
21
-3.61947
0
LINE
8
BLACK
6
CONTINUOUS
10
6.25048
20
-3.61947
11
6.2503
21
-3.61946
0
LINE
8
BLACK
6
CONTINUOUS
10
6.2503
20
-3.61946
11
6.25013
21
-3.61948
0
LINE
8
BLACK
6
CONTINUOUS
10
6.25013
20
-3.61948
11
6.23888
21
-3.61948
0
LINE
8
BLACK
6
CONTINUOUS
10
6.23888
20
-3.61948
11
6.2388
21
-3.61948
0
LINE
8
BLACK
6
CONTINUOUS
10
6.2388
20
-3.61948
11
6.23863
21
-3.61946
0
LINE
8
BLACK
6
CONTINUOUS
10
6.23863
20
-3.61946
11
6.23845
21
-3.61946
0
LINE
8
BLACK
6
CONTINUOUS
10
6.23845
20
-3.61946
11
6.23806
21
-3.61939
0
LINE
8
BLACK
6
CONTINUOUS
10
6.23806
20
-3.61939
11
6.23765
21
-3.61935
0
LINE
8
BLACK
6
CONTINUOUS
10
6.23765
20
-3.61935
11
6.23749
21
-3.6193
0
LINE
8
BLACK
6
CONTINUOUS
10
6.23749
20
-3.6193
11
6.23732
21
-3.61927
0
LINE
8
BLACK
6
CONTINUOUS
10
6.23732
20
-3.61927
11
6.23694
21
-3.61912
0
LINE
8
BLACK
6
CONTINUOUS
10
6.23694
20
-3.61912
11
6.23656
21
-3.619
0
LINE
8
BLACK
6
CONTINUOUS
10
6.23656
20
-3.619
11
6.2364
21
-3.61892
0
LINE
8
BLACK
6
CONTINUOUS
10
6.2364
20
-3.61892
11
6.23624
21
-3.61886
0
LINE
8
BLACK
6
CONTINUOUS
10
6.23624
20
-3.61886
11
6.22874
21
-3.61511
0
LINE
8
BLACK
6
CONTINUOUS
10
6.22874
20
-3.61511
11
6.22867
21
-3.61507
0
LINE
8
BLACK
6
CONTINUOUS
10
6.22867
20
-3.61507
11
6.22856
21
-3.615
0
LINE
8
BLACK
6
CONTINUOUS
10
6.22856
20
-3.615
11
6.22845
21
-3.61495
0
LINE
8
BLACK
6
CONTINUOUS
10
6.22845
20
-3.61495
11
6.22808
21
-3.61469
0
LINE
8
BLACK
6
CONTINUOUS
10
6.22808
20
-3.61469
11
6.2277
21
-3.61444
0
LINE
8
BLACK
6
CONTINUOUS
10
6.2277
20
-3.61444
11
6.22761
21
-3.61435
0
LINE
8
BLACK
6
CONTINUOUS
10
6.22761
20
-3.61435
11
6.22751
21
-3.61428
0
LINE
8
BLACK
6
CONTINUOUS
10
6.22751
20
-3.61428
11
6.2272
21
-3.61395
0
LINE
8
BLACK
6
CONTINUOUS
10
6.2272
20
-3.61395
11
6.22688
21
-3.61364
0
LINE
8
BLACK
6
CONTINUOUS
10
6.22688
20
-3.61364
11
6.2268
21
-3.61353
0
LINE
8
BLACK
6
CONTINUOUS
10
6.2268
20
-3.61353
11
6.22672
21
-3.61344
0
LINE
8
BLACK
6
CONTINUOUS
10
6.22672
20
-3.61344
11
6.22648
21
-3.61306
0
LINE
8
BLACK
6
CONTINUOUS
10
6.22648
20
-3.61306
11
6.22622
21
-3.61269
0
LINE
8
BLACK
6
CONTINUOUS
10
6.22622
20
-3.61269
11
6.22617
21
-3.61257
0
LINE
8
BLACK
6
CONTINUOUS
10
6.22617
20
-3.61257
11
6.2261
21
-3.61246
0
LINE
8
BLACK
6
CONTINUOUS
10
6.2261
20
-3.61246
11
6.22235
21
-3.60497
0
LINE
8
BLACK
6
CONTINUOUS
10
6.22235
20
-3.60497
11
6.22232
21
-3.60489
0
LINE
8
BLACK
6
CONTINUOUS
10
6.22232
20
-3.60489
11
6.22226
21
-3.60473
0
LINE
8
BLACK
6
CONTINUOUS
10
6.22226
20
-3.60473
11
6.22217
21
-3.60458
0
LINE
8
BLACK
6
CONTINUOUS
10
6.22217
20
-3.60458
11
6.22206
21
-3.60419
0
LINE
8
BLACK
6
CONTINUOUS
10
6.22206
20
-3.60419
11
6.22192
21
-3.60381
0
LINE
8
BLACK
6
CONTINUOUS
10
6.22192
20
-3.60381
11
6.22189
21
-3.60364
0
LINE
8
BLACK
6
CONTINUOUS
10
6.22189
20
-3.60364
11
6.22184
21
-3.60347
0
LINE
8
BLACK
6
CONTINUOUS
10
6.22184
20
-3.60347
11
6.2218
21
-3.60307
0
LINE
8
BLACK
6
CONTINUOUS
10
6.2218
20
-3.60307
11
6.22174
21
-3.60267
0
LINE
8
BLACK
6
CONTINUOUS
10
6.22174
20
-3.60267
11
6.22175
21
-3.6025
0
LINE
8
BLACK
6
CONTINUOUS
10
6.22175
20
-3.6025
11
6.22173
21
-3.60232
0
LINE
8
BLACK
6
CONTINUOUS
10
6.22173
20
-3.60232
11
6.22173
21
-3.56108
0
LINE
8
BLACK
6
CONTINUOUS
10
6.22173
20
-3.56108
11
6.22173
21
-3.561
0
LINE
8
BLACK
6
CONTINUOUS
10
6.22173
20
-3.561
11
6.22186
21
-3.55985
0
LINE
8
BLACK
6
CONTINUOUS
10
6.22186
20
-3.55985
11
6.22221
21
-3.55875
0
LINE
8
BLACK
6
CONTINUOUS
10
6.22221
20
-3.55875
11
6.22276
21
-3.55774
0
LINE
8
BLACK
6
CONTINUOUS
10
6.22276
20
-3.55774
11
6.2235
21
-3.55686
0
LINE
8
BLACK
6
CONTINUOUS
10
6.2235
20
-3.55686
11
6.2244
21
-3.55614
0
LINE
8
BLACK
6
CONTINUOUS
10
6.2244
20
-3.55614
11
6.22542
21
-3.5556
0
LINE
8
BLACK
6
CONTINUOUS
10
6.22542
20
-3.5556
11
6.22653
21
-3.55528
0
LINE
8
BLACK
6
CONTINUOUS
10
6.22653
20
-3.55528
11
6.22768
21
-3.55517
0
LINE
8
BLACK
6
CONTINUOUS
10
6.22768
20
-3.55517
11
6.22882
21
-3.55529
0
LINE
8
BLACK
6
CONTINUOUS
10
6.22882
20
-3.55529
11
6.22992
21
-3.55564
0
LINE
8
BLACK
6
CONTINUOUS
10
6.22992
20
-3.55564
11
6.23094
21
-3.55618
0
LINE
8
BLACK
6
CONTINUOUS
10
6.23094
20
-3.55618
11
6.23182
21
-3.55692
0
LINE
8
BLACK
6
CONTINUOUS
10
6.23182
20
-3.55692
11
6.23255
21
-3.55781
0
LINE
8
BLACK
6
CONTINUOUS
10
6.23255
20
-3.55781
11
6.23309
21
-3.55883
0
LINE
8
BLACK
6
CONTINUOUS
10
6.23309
20
-3.55883
11
6.23343
21
-3.55993
0
LINE
8
BLACK
6
CONTINUOUS
10
6.23343
20
-3.55993
11
6.23354
21
-3.56108
0
LINE
8
BLACK
6
CONTINUOUS
10
6.23354
20
-3.56108
11
6.23354
21
-3.60093
0
LINE
8
BLACK
6
CONTINUOUS
10
6.23354
20
-3.60093
11
6.23579
21
-3.60542
0
LINE
8
BLACK
6
CONTINUOUS
10
6.23579
20
-3.60542
11
6.24028
21
-3.60767
0
LINE
8
BLACK
6
CONTINUOUS
10
6.24028
20
-3.60767
11
6.24874
21
-3.60767
0
LINE
8
BLACK
6
CONTINUOUS
10
6.24874
20
-3.60767
11
6.25413
21
-3.60497
0
LINE
8
BLACK
6
CONTINUOUS
10
6.25413
20
-3.60497
11
6.25547
21
-3.60363
0
LINE
8
BLACK
6
CONTINUOUS
10
6.25547
20
-3.60363
11
6.25547
21
-3.56108
0
LINE
8
BLACK
6
CONTINUOUS
10
6.25547
20
-3.56108
11
6.25547
21
-3.561
0
LINE
8
BLACK
6
CONTINUOUS
10
6.25547
20
-3.561
11
6.2556
21
-3.55985
0
LINE
8
BLACK
6
CONTINUOUS
10
6.2556
20
-3.55985
11
6.25595
21
-3.55875
0
LINE
8
BLACK
6
CONTINUOUS
10
6.25595
20
-3.55875
11
6.25651
21
-3.55774
0
LINE
8
BLACK
6
CONTINUOUS
10
6.25651
20
-3.55774
11
6.25725
21
-3.55686
0
LINE
8
BLACK
6
CONTINUOUS
10
6.25725
20
-3.55686
11
6.25815
21
-3.55614
0
LINE
8
BLACK
6
CONTINUOUS
10
6.25815
20
-3.55614
11
6.25917
21
-3.5556
0
LINE
8
BLACK
6
CONTINUOUS
10
6.25917
20
-3.5556
11
6.26027
21
-3.55528
0
LINE
8
BLACK
6
CONTINUOUS
10
6.26027
20
-3.55528
11
6.26142
21
-3.55517
0
LINE
8
BLACK
6
CONTINUOUS
10
6.26142
20
-3.55517
11
6.26257
21
-3.55529
0
LINE
8
BLACK
6
CONTINUOUS
10
6.17897
20
-3.55517
11
6.17915
21
-3.55519
0
LINE
8
BLACK
6
CONTINUOUS
10
6.17915
20
-3.55519
11
6.17932
21
-3.55519
0
LINE
8
BLACK
6
CONTINUOUS
10
6.17932
20
-3.55519
11
6.17972
21
-3.55526
0
LINE
8
BLACK
6
CONTINUOUS
10
6.17972
20
-3.55526
11
6.18012
21
-3.5553
0
LINE
8
BLACK
6
CONTINUOUS
10
6.18012
20
-3.5553
11
6.18028
21
-3.55536
0
LINE
8
BLACK
6
CONTINUOUS
10
6.18028
20
-3.55536
11
6.18045
21
-3.55539
0
LINE
8
BLACK
6
CONTINUOUS
10
6.18045
20
-3.55539
11
6.18083
21
-3.55553
0
LINE
8
BLACK
6
CONTINUOUS
10
6.18083
20
-3.55553
11
6.18122
21
-3.55565
0
LINE
8
BLACK
6
CONTINUOUS
10
6.18122
20
-3.55565
11
6.18137
21
-3.55574
0
LINE
8
BLACK
6
CONTINUOUS
10
6.18137
20
-3.55574
11
6.18153
21
-3.5558
0
LINE
8
BLACK
6
CONTINUOUS
10
6.18153
20
-3.5558
11
6.18903
21
-3.55955
0
LINE
8
BLACK
6
CONTINUOUS
10
6.18903
20
-3.55955
11
6.1891
21
-3.55958
0
LINE
8
BLACK
6
CONTINUOUS
10
6.1891
20
-3.55958
11
6.18938
21
-3.55977
0
LINE
8
BLACK
6
CONTINUOUS
10
6.18938
20
-3.55977
11
6.18967
21
-3.55992
0
LINE
8
BLACK
6
CONTINUOUS
10
6.18967
20
-3.55992
11
6.18986
21
-3.56008
0
LINE
8
BLACK
6
CONTINUOUS
10
6.18986
20
-3.56008
11
6.19007
21
-3.56021
0
LINE
8
BLACK
6
CONTINUOUS
10
6.19007
20
-3.56021
11
6.19031
21
-3.56044
0
LINE
8
BLACK
6
CONTINUOUS
10
6.19031
20
-3.56044
11
6.19056
21
-3.56065
0
LINE
8
BLACK
6
CONTINUOUS
10
6.19056
20
-3.56065
11
6.19431
21
-3.5644
0
LINE
8
BLACK
6
CONTINUOUS
10
6.19431
20
-3.5644
11
6.19437
21
-3.56446
0
LINE
8
BLACK
6
CONTINUOUS
10
6.19437
20
-3.56446
11
6.19458
21
-3.56472
0
LINE
8
BLACK
6
CONTINUOUS
10
6.19458
20
-3.56472
11
6.19481
21
-3.56496
0
LINE
8
BLACK
6
CONTINUOUS
10
6.19481
20
-3.56496
11
6.19494
21
-3.56517
0
LINE
8
BLACK
6
CONTINUOUS
10
6.19494
20
-3.56517
11
6.19509
21
-3.56536
0
LINE
8
BLACK
6
CONTINUOUS
10
6.19509
20
-3.56536
11
6.19524
21
-3.56566
0
LINE
8
BLACK
6
CONTINUOUS
10
6.19524
20
-3.56566
11
6.19542
21
-3.56594
0
LINE
8
BLACK
6
CONTINUOUS
10
6.19542
20
-3.56594
11
6.19917
21
-3.57344
0
LINE
8
BLACK
6
CONTINUOUS
10
6.19917
20
-3.57344
11
6.19921
21
-3.57351
0
LINE
8
BLACK
6
CONTINUOUS
10
6.19921
20
-3.57351
11
6.19927
21
-3.57367
0
LINE
8
BLACK
6
CONTINUOUS
10
6.19927
20
-3.57367
11
6.19935
21
-3.57383
0
LINE
8
BLACK
6
CONTINUOUS
10
6.19935
20
-3.57383
11
6.19946
21
-3.57421
0
LINE
8
BLACK
6
CONTINUOUS
10
6.19946
20
-3.57421
11
6.1996
21
-3.57459
0
LINE
8
BLACK
6
CONTINUOUS
10
6.1996
20
-3.57459
11
6.19963
21
-3.57476
0
LINE
8
BLACK
6
CONTINUOUS
10
6.19963
20
-3.57476
11
6.19968
21
-3.57493
0
LINE
8
BLACK
6
CONTINUOUS
10
6.19968
20
-3.57493
11
6.19972
21
-3.57533
0
LINE
8
BLACK
6
CONTINUOUS
10
6.19972
20
-3.57533
11
6.19978
21
-3.57573
0
LINE
8
BLACK
6
CONTINUOUS
10
6.19978
20
-3.57573
11
6.19978
21
-3.5759
0
LINE
8
BLACK
6
CONTINUOUS
10
6.19978
20
-3.5759
11
6.19979
21
-3.57608
0
LINE
8
BLACK
6
CONTINUOUS
10
6.19979
20
-3.57608
11
6.19979
21
-3.59858
0
LINE
8
BLACK
6
CONTINUOUS
10
6.19979
20
-3.59858
11
6.19979
21
-3.59866
0
LINE
8
BLACK
6
CONTINUOUS
10
6.19979
20
-3.59866
11
6.19977
21
-3.59883
0
LINE
8
BLACK
6
CONTINUOUS
10
6.19977
20
-3.59883
11
6.19978
21
-3.599
0
LINE
8
BLACK
6
CONTINUOUS
10
6.19978
20
-3.599
11
6.19971
21
-3.5994
0
LINE
8
BLACK
6
CONTINUOUS
10
6.19971
20
-3.5994
11
6.19966
21
-3.5998
0
LINE
8
BLACK
6
CONTINUOUS
10
6.19966
20
-3.5998
11
6.19961
21
-3.59997
0
LINE
8
BLACK
6
CONTINUOUS
10
6.19961
20
-3.59997
11
6.19958
21
-3.60014
0
LINE
8
BLACK
6
CONTINUOUS
10
6.19958
20
-3.60014
11
6.19944
21
-3.60052
0
LINE
8
BLACK
6
CONTINUOUS
10
6.19944
20
-3.60052
11
6.19932
21
-3.6009
0
LINE
8
BLACK
6
CONTINUOUS
10
6.19932
20
-3.6009
11
6.19923
21
-3.60105
0
LINE
8
BLACK
6
CONTINUOUS
10
6.19923
20
-3.60105
11
6.19917
21
-3.60122
0
LINE
8
BLACK
6
CONTINUOUS
10
6.19917
20
-3.60122
11
6.19542
21
-3.60872
0
LINE
8
BLACK
6
CONTINUOUS
10
6.19542
20
-3.60872
11
6.19538
21
-3.60879
0
LINE
8
BLACK
6
CONTINUOUS
10
6.19538
20
-3.60879
11
6.1952
21
-3.60907
0
LINE
8
BLACK
6
CONTINUOUS
10
6.1952
20
-3.60907
11
6.19505
21
-3.60936
0
LINE
8
BLACK
6
CONTINUOUS
10
6.19505
20
-3.60936
11
6.19489
21
-3.60955
0
LINE
8
BLACK
6
CONTINUOUS
10
6.19489
20
-3.60955
11
6.19476
21
-3.60976
0
LINE
8
BLACK
6
CONTINUOUS
10
6.19476
20
-3.60976
11
6.19452
21
-3.60999
0
LINE
8
BLACK
6
CONTINUOUS
10
6.19452
20
-3.60999
11
6.19431
21
-3.61025
0
LINE
8
BLACK
6
CONTINUOUS
10
6.19431
20
-3.61025
11
6.19056
21
-3.614
0
LINE
8
BLACK
6
CONTINUOUS
10
6.19056
20
-3.614
11
6.19051
21
-3.61406
0
LINE
8
BLACK
6
CONTINUOUS
10
6.19051
20
-3.61406
11
6.19025
21
-3.61426
0
LINE
8
BLACK
6
CONTINUOUS
10
6.19025
20
-3.61426
11
6.19001
21
-3.61449
0
LINE
8
BLACK
6
CONTINUOUS
10
6.19001
20
-3.61449
11
6.1898
21
-3.61462
0
LINE
8
BLACK
6
CONTINUOUS
10
6.1898
20
-3.61462
11
6.18961
21
-3.61478
0
LINE
8
BLACK
6
CONTINUOUS
10
6.18961
20
-3.61478
11
6.18931
21
-3.61493
0
LINE
8
BLACK
6
CONTINUOUS
10
6.18931
20
-3.61493
11
6.18903
21
-3.61511
0
LINE
8
BLACK
6
CONTINUOUS
10
6.18903
20
-3.61511
11
6.18153
21
-3.61886
0
LINE
8
BLACK
6
CONTINUOUS
10
6.18153
20
-3.61886
11
6.18146
21
-3.61889
0
LINE
8
BLACK
6
CONTINUOUS
10
6.18146
20
-3.61889
11
6.18129
21
-3.61895
0
LINE
8
BLACK
6
CONTINUOUS
10
6.18129
20
-3.61895
11
6.18114
21
-3.61903
0
LINE
8
BLACK
6
CONTINUOUS
10
6.18114
20
-3.61903
11
6.18075
21
-3.61915
0
LINE
8
BLACK
6
CONTINUOUS
10
6.18075
20
-3.61915
11
6.18038
21
-3.61929
0
LINE
8
BLACK
6
CONTINUOUS
10
6.18038
20
-3.61929
11
6.1802
21
-3.61932
0
LINE
8
BLACK
6
CONTINUOUS
10
6.1802
20
-3.61932
11
6.18004
21
-3.61937
0
LINE
8
BLACK
6
CONTINUOUS
10
6.18004
20
-3.61937
11
6.17964
21
-3.61941
0
LINE
8
BLACK
6
CONTINUOUS
10
6.17964
20
-3.61941
11
6.17924
21
-3.61947
0
LINE
8
BLACK
6
CONTINUOUS
10
6.17924
20
-3.61947
11
6.17906
21
-3.61946
0
LINE
8
BLACK
6
CONTINUOUS
10
6.17906
20
-3.61946
11
6.17889
21
-3.61948
0
LINE
8
BLACK
6
CONTINUOUS
10
6.17889
20
-3.61948
11
6.16764
21
-3.61948
0
LINE
8
BLACK
6
CONTINUOUS
10
6.16764
20
-3.61948
11
6.16756
21
-3.61948
0
LINE
8
BLACK
6
CONTINUOUS
10
6.16756
20
-3.61948
11
6.16739
21
-3.61946
0
LINE
8
BLACK
6
CONTINUOUS
10
6.16739
20
-3.61946
11
6.16721
21
-3.61946
0
LINE
8
BLACK
6
CONTINUOUS
10
6.16721
20
-3.61946
11
6.16681
21
-3.61939
0
LINE
8
BLACK
6
CONTINUOUS
10
6.16681
20
-3.61939
11
6.16641
21
-3.61935
0
LINE
8
BLACK
6
CONTINUOUS
10
6.16641
20
-3.61935
11
6.16625
21
-3.6193
0
LINE
8
BLACK
6
CONTINUOUS
10
6.16625
20
-3.6193
11
6.16608
21
-3.61927
0
LINE
8
BLACK
6
CONTINUOUS
10
6.16608
20
-3.61927
11
6.1657
21
-3.61912
0
LINE
8
BLACK
6
CONTINUOUS
10
6.1657
20
-3.61912
11
6.16532
21
-3.619
0
LINE
8
BLACK
6
CONTINUOUS
10
6.16532
20
-3.619
11
6.16516
21
-3.61892
0
LINE
8
BLACK
6
CONTINUOUS
10
6.16516
20
-3.61892
11
6.165
21
-3.61886
0
LINE
8
BLACK
6
CONTINUOUS
10
6.165
20
-3.61886
11
6.1575
21
-3.61511
0
LINE
8
BLACK
6
CONTINUOUS
10
6.1575
20
-3.61511
11
6.15743
21
-3.61507
0
LINE
8
BLACK
6
CONTINUOUS
10
6.15743
20
-3.61507
11
6.15715
21
-3.61489
0
LINE
8
BLACK
6
CONTINUOUS
10
6.15715
20
-3.61489
11
6.15686
21
-3.61473
0
LINE
8
BLACK
6
CONTINUOUS
10
6.15686
20
-3.61473
11
6.15667
21
-3.61458
0
LINE
8
BLACK
6
CONTINUOUS
10
6.15667
20
-3.61458
11
6.15646
21
-3.61444
0
LINE
8
BLACK
6
CONTINUOUS
10
6.15646
20
-3.61444
11
6.15622
21
-3.61421
0
LINE
8
BLACK
6
CONTINUOUS
10
6.15622
20
-3.61421
11
6.15597
21
-3.614
0
LINE
8
BLACK
6
CONTINUOUS
10
6.15597
20
-3.614
11
6.15222
21
-3.61025
0
LINE
8
BLACK
6
CONTINUOUS
10
6.15222
20
-3.61025
11
6.15216
21
-3.61019
0
LINE
8
BLACK
6
CONTINUOUS
10
6.15216
20
-3.61019
11
6.15195
21
-3.60993
0
LINE
8
BLACK
6
CONTINUOUS
10
6.15195
20
-3.60993
11
6.15172
21
-3.60969
0
LINE
8
BLACK
6
CONTINUOUS
10
6.15172
20
-3.60969
11
6.15159
21
-3.60948
0
LINE
8
BLACK
6
CONTINUOUS
10
6.15159
20
-3.60948
11
6.15144
21
-3.60929
0
LINE
8
BLACK
6
CONTINUOUS
10
6.15144
20
-3.60929
11
6.15129
21
-3.609
0
LINE
8
BLACK
6
CONTINUOUS
10
6.15129
20
-3.609
11
6.15111
21
-3.60872
0
LINE
8
BLACK
6
CONTINUOUS
10
6.15111
20
-3.60872
11
6.14736
21
-3.60122
0
LINE
8
BLACK
6
CONTINUOUS
10
6.14736
20
-3.60122
11
6.14732
21
-3.60114
0
LINE
8
BLACK
6
CONTINUOUS
10
6.14732
20
-3.60114
11
6.14727
21
-3.60098
0
LINE
8
BLACK
6
CONTINUOUS
10
6.14727
20
-3.60098
11
6.14718
21
-3.60083
0
LINE
8
BLACK
6
CONTINUOUS
10
6.14718
20
-3.60083
11
6.14707
21
-3.60044
0
LINE
8
BLACK
6
CONTINUOUS
10
6.14707
20
-3.60044
11
6.14693
21
-3.60006
0
LINE
8
BLACK
6
CONTINUOUS
10
6.14693
20
-3.60006
11
6.1469
21
-3.59989
0
LINE
8
BLACK
6
CONTINUOUS
10
6.1469
20
-3.59989
11
6.14685
21
-3.59972
0
LINE
8
BLACK
6
CONTINUOUS
10
6.14685
20
-3.59972
11
6.14681
21
-3.59932
0
LINE
8
BLACK
6
CONTINUOUS
10
6.14681
20
-3.59932
11
6.14675
21
-3.59892
0
LINE
8
BLACK
6
CONTINUOUS
10
6.14675
20
-3.59892
11
6.14675
21
-3.59875
0
LINE
8
BLACK
6
CONTINUOUS
10
6.14675
20
-3.59875
11
6.14674
21
-3.59858
0
LINE
8
BLACK
6
CONTINUOUS
10
6.14674
20
-3.59858
11
6.14674
21
-3.57608
0
LINE
8
BLACK
6
CONTINUOUS
10
6.14674
20
-3.57608
11
6.14674
21
-3.576
0
LINE
8
BLACK
6
CONTINUOUS
10
6.14674
20
-3.576
11
6.14676
21
-3.57582
0
LINE
8
BLACK
6
CONTINUOUS
10
6.14676
20
-3.57582
11
6.14675
21
-3.57565
0
LINE
8
BLACK
6
CONTINUOUS
10
6.14675
20
-3.57565
11
6.14682
21
-3.57525
0
LINE
8
BLACK
6
CONTINUOUS
10
6.14682
20
-3.57525
11
6.14687
21
-3.57485
0
LINE
8
BLACK
6
CONTINUOUS
10
6.14687
20
-3.57485
11
6.14692
21
-3.57468
0
LINE
8
BLACK
6
CONTINUOUS
10
6.14692
20
-3.57468
11
6.14695
21
-3.57451
0
LINE
8
BLACK
6
CONTINUOUS
10
6.14695
20
-3.57451
11
6.14709
21
-3.57414
0
LINE
8
BLACK
6
CONTINUOUS
10
6.14709
20
-3.57414
11
6.14722
21
-3.57375
0
LINE
8
BLACK
6
CONTINUOUS
10
6.14722
20
-3.57375
11
6.1473
21
-3.5736
0
LINE
8
BLACK
6
CONTINUOUS
10
6.1473
20
-3.5736
11
6.14736
21
-3.57344
0
LINE
8
BLACK
6
CONTINUOUS
10
6.14736
20
-3.57344
11
6.15111
21
-3.56594
0
LINE
8
BLACK
6
CONTINUOUS
10
6.15111
20
-3.56594
11
6.15115
21
-3.56586
0
LINE
8
BLACK
6
CONTINUOUS
10
6.15115
20
-3.56586
11
6.15133
21
-3.56559
0
LINE
8
BLACK
6
CONTINUOUS
10
6.15133
20
-3.56559
11
6.15149
21
-3.56529
0
LINE
8
BLACK
6
CONTINUOUS
10
6.15149
20
-3.56529
11
6.15164
21
-3.5651
0
LINE
8
BLACK
6
CONTINUOUS
10
6.15164
20
-3.5651
11
6.15178
21
-3.5649
0
LINE
8
BLACK
6
CONTINUOUS
10
6.15178
20
-3.5649
11
6.15201
21
-3.56466
0
LINE
8
BLACK
6
CONTINUOUS
10
6.15201
20
-3.56466
11
6.15222
21
-3.5644
0
LINE
8
BLACK
6
CONTINUOUS
10
6.15222
20
-3.5644
11
6.15597
21
-3.56065
0
LINE
8
BLACK
6
CONTINUOUS
10
6.15597
20
-3.56065
11
6.15603
21
-3.5606
0
LINE
8
BLACK
6
CONTINUOUS
10
6.15603
20
-3.5606
11
6.15628
21
-3.56039
0
LINE
8
BLACK
6
CONTINUOUS
10
6.15628
20
-3.56039
11
6.15653
21
-3.56016
0
LINE
8
BLACK
6
CONTINUOUS
10
6.15653
20
-3.56016
11
6.15673
21
-3.56003
0
LINE
8
BLACK
6
CONTINUOUS
10
6.15673
20
-3.56003
11
6.15693
21
-3.55988
0
LINE
8
BLACK
6
CONTINUOUS
10
6.15693
20
-3.55988
11
6.15722
21
-3.55972
0
LINE
8
BLACK
6
CONTINUOUS
10
6.15722
20
-3.55972
11
6.1575
21
-3.55955
0
LINE
8
BLACK
6
CONTINUOUS
10
6.1575
20
-3.55955
11
6.165
21
-3.5558
0
LINE
8
BLACK
6
CONTINUOUS
10
6.165
20
-3.5558
11
6.16507
21
-3.55576
0
LINE
8
BLACK
6
CONTINUOUS
10
6.16507
20
-3.55576
11
6.16524
21
-3.5557
0
LINE
8
BLACK
6
CONTINUOUS
10
6.16524
20
-3.5557
11
6.16539
21
-3.55562
0
LINE
8
BLACK
6
CONTINUOUS
10
6.16539
20
-3.55562
11
6.16578
21
-3.5555
0
LINE
8
BLACK
6
CONTINUOUS
10
6.16578
20
-3.5555
11
6.16616
21
-3.55536
0
LINE
8
BLACK
6
CONTINUOUS
10
6.16616
20
-3.55536
11
6.16633
21
-3.55534
0
LINE
8
BLACK
6
CONTINUOUS
10
6.16633
20
-3.55534
11
6.16649
21
-3.55529
0
LINE
8
BLACK
6
CONTINUOUS
10
6.16649
20
-3.55529
11
6.1669
21
-3.55525
0
LINE
8
BLACK
6
CONTINUOUS
10
6.1669
20
-3.55525
11
6.16729
21
-3.55518
0
LINE
8
BLACK
6
CONTINUOUS
10
6.16729
20
-3.55518
11
6.16747
21
-3.55519
0
LINE
8
BLACK
6
CONTINUOUS
10
6.16747
20
-3.55519
11
6.16764
21
-3.55517
0
LINE
8
BLACK
6
CONTINUOUS
10
6.16764
20
-3.55517
11
6.17889
21
-3.55517
0
LINE
8
BLACK
6
CONTINUOUS
10
6.17889
20
-3.55517
11
6.17897
21
-3.55517
0
LINE
8
BLACK
6
CONTINUOUS
10
6.16904
20
-3.56699
11
6.16364
21
-3.56968
0
LINE
8
BLACK
6
CONTINUOUS
10
6.16364
20
-3.56968
11
6.16125
21
-3.57208
0
LINE
8
BLACK
6
CONTINUOUS
10
6.16125
20
-3.57208
11
6.15855
21
-3.57747
0
LINE
8
BLACK
6
CONTINUOUS
10
6.15855
20
-3.57747
11
6.15855
21
-3.59718
0
LINE
8
BLACK
6
CONTINUOUS
10
6.15855
20
-3.59718
11
6.16125
21
-3.60258
0
LINE
8
BLACK
6
CONTINUOUS
10
6.16125
20
-3.60258
11
6.16364
21
-3.60497
0
LINE
8
BLACK
6
CONTINUOUS
10
6.16364
20
-3.60497
11
6.16904
21
-3.60767
0
LINE
8
BLACK
6
CONTINUOUS
10
6.16904
20
-3.60767
11
6.1775
21
-3.60767
0
LINE
8
BLACK
6
CONTINUOUS
10
6.1775
20
-3.60767
11
6.18289
21
-3.60497
0
LINE
8
BLACK
6
CONTINUOUS
10
6.18289
20
-3.60497
11
6.18529
21
-3.60258
0
LINE
8
BLACK
6
CONTINUOUS
10
6.18529
20
-3.60258
11
6.18798
21
-3.59718
0
LINE
8
BLACK
6
CONTINUOUS
10
6.18798
20
-3.59718
11
6.18798
21
-3.57747
0
LINE
8
BLACK
6
CONTINUOUS
10
6.18798
20
-3.57747
11
6.18529
21
-3.57208
0
LINE
8
BLACK
6
CONTINUOUS
10
6.18529
20
-3.57208
11
6.18289
21
-3.56968
0
LINE
8
BLACK
6
CONTINUOUS
10
6.18289
20
-3.56968
11
6.1775
21
-3.56699
0
LINE
8
BLACK
6
CONTINUOUS
10
6.1775
20
-3.56699
11
6.16904
21
-3.56699
0
LINE
8
BLACK
6
CONTINUOUS
10
5.74138
20
-3.52905
11
5.74248
21
-3.52939
0
LINE
8
BLACK
6
CONTINUOUS
10
5.74248
20
-3.52939
11
5.7435
21
-3.52994
0
LINE
8
BLACK
6
CONTINUOUS
10
5.7435
20
-3.52994
11
5.74439
21
-3.53067
0
LINE
8
BLACK
6
CONTINUOUS
10
5.74439
20
-3.53067
11
5.74511
21
-3.53157
0
LINE
8
BLACK
6
CONTINUOUS
10
5.74511
20
-3.53157
11
5.74565
21
-3.53258
0
LINE
8
BLACK
6
CONTINUOUS
10
5.74565
20
-3.53258
11
5.74599
21
-3.53369
0
LINE
8
BLACK
6
CONTINUOUS
10
5.74599
20
-3.53369
11
5.7461
21
-3.53483
0
LINE
8
BLACK
6
CONTINUOUS
10
5.7461
20
-3.53483
11
5.7461
21
-3.61357
0
LINE
8
BLACK
6
CONTINUOUS
10
5.7461
20
-3.61357
11
5.7461
21
-3.61366
0
LINE
8
BLACK
6
CONTINUOUS
10
5.7461
20
-3.61366
11
5.74597
21
-3.6148
0
LINE
8
BLACK
6
CONTINUOUS
10
5.74597
20
-3.6148
11
5.74562
21
-3.6159
0
LINE
8
BLACK
6
CONTINUOUS
10
5.74562
20
-3.6159
11
5.74507
21
-3.61691
0
LINE
8
BLACK
6
CONTINUOUS
10
5.74507
20
-3.61691
11
5.74433
21
-3.61779
0
LINE
8
BLACK
6
CONTINUOUS
10
5.74433
20
-3.61779
11
5.74343
21
-3.61851
0
LINE
8
BLACK
6
CONTINUOUS
10
5.74343
20
-3.61851
11
5.74241
21
-3.61905
0
LINE
8
BLACK
6
CONTINUOUS
10
5.74241
20
-3.61905
11
5.7413
21
-3.61937
0
LINE
8
BLACK
6
CONTINUOUS
10
5.7413
20
-3.61937
11
5.74015
21
-3.61948
0
LINE
8
BLACK
6
CONTINUOUS
10
5.74015
20
-3.61948
11
5.73901
21
-3.61936
0
LINE
8
BLACK
6
CONTINUOUS
10
5.73901
20
-3.61936
11
5.73791
21
-3.61902
0
LINE
8
BLACK
6
CONTINUOUS
10
5.73791
20
-3.61902
11
5.73689
21
-3.61847
0
LINE
8
BLACK
6
CONTINUOUS
10
5.73689
20
-3.61847
11
5.736
21
-3.61773
0
LINE
8
BLACK
6
CONTINUOUS
10
5.736
20
-3.61773
11
5.73528
21
-3.61684
0
LINE
8
BLACK
6
CONTINUOUS
10
5.73528
20
-3.61684
11
5.73474
21
-3.61582
0
LINE
8
BLACK
6
CONTINUOUS
10
5.73474
20
-3.61582
11
5.7344
21
-3.61472
0
LINE
8
BLACK
6
CONTINUOUS
10
5.7344
20
-3.61472
11
5.73429
21
-3.61357
0
LINE
8
BLACK
6
CONTINUOUS
10
5.73429
20
-3.61357
11
5.73429
21
-3.53483
0
LINE
8
BLACK
6
CONTINUOUS
10
5.73429
20
-3.53483
11
5.73429
21
-3.53475
0
LINE
8
BLACK
6
CONTINUOUS
10
5.73429
20
-3.53475
11
5.73442
21
-3.53361
0
LINE
8
BLACK
6
CONTINUOUS
10
5.73442
20
-3.53361
11
5.73477
21
-3.53251
0
LINE
8
BLACK
6
CONTINUOUS
10
5.73477
20
-3.53251
11
5.73532
21
-3.5315
0
LINE
8
BLACK
6
CONTINUOUS
10
5.73532
20
-3.5315
11
5.73606
21
-3.53061
0
LINE
8
BLACK
6
CONTINUOUS
10
5.73606
20
-3.53061
11
5.73696
21
-3.52989
0
LINE
8
BLACK
6
CONTINUOUS
10
5.73696
20
-3.52989
11
5.73798
21
-3.52936
0
LINE
8
BLACK
6
CONTINUOUS
10
5.73798
20
-3.52936
11
5.73909
21
-3.52903
0
LINE
8
BLACK
6
CONTINUOUS
10
5.73909
20
-3.52903
11
5.74024
21
-3.52893
0
LINE
8
BLACK
6
CONTINUOUS
10
5.74024
20
-3.52893
11
5.74138
21
-3.52905
0
LINE
8
BLACK
6
CONTINUOUS
10
6.38732
20
-3.38071
11
6.38767
21
-3.38074
0
LINE
8
BLACK
6
CONTINUOUS
10
6.38767
20
-3.38074
11
6.38811
21
-3.38088
0
LINE
8
BLACK
6
CONTINUOUS
10
6.38811
20
-3.38088
11
6.38852
21
-3.3811
0
LINE
8
BLACK
6
CONTINUOUS
10
6.38852
20
-3.3811
11
6.38888
21
-3.38139
0
LINE
8
BLACK
6
CONTINUOUS
10
6.38888
20
-3.38139
11
6.38918
21
-3.38175
0
LINE
8
BLACK
6
CONTINUOUS
10
6.38918
20
-3.38175
11
6.3894
21
-3.38216
0
LINE
8
BLACK
6
CONTINUOUS
10
6.3894
20
-3.38216
11
6.38953
21
-3.38261
0
LINE
8
BLACK
6
CONTINUOUS
10
6.38953
20
-3.38261
11
6.38958
21
-3.38307
0
LINE
8
BLACK
6
CONTINUOUS
10
6.38958
20
-3.38307
11
6.38957
21
-3.38319
0
LINE
8
BLACK
6
CONTINUOUS
10
6.38957
20
-3.38319
11
6.38957
21
-3.48768
0
LINE
8
BLACK
6
CONTINUOUS
10
6.38957
20
-3.48768
11
6.38958
21
-3.4878
0
LINE
8
BLACK
6
CONTINUOUS
10
6.38958
20
-3.4878
11
6.38953
21
-3.48826
0
LINE
8
BLACK
6
CONTINUOUS
10
6.38953
20
-3.48826
11
6.3894
21
-3.4887
0
LINE
8
BLACK
6
CONTINUOUS
10
6.3894
20
-3.4887
11
6.38918
21
-3.48911
0
LINE
8
BLACK
6
CONTINUOUS
10
6.38918
20
-3.48911
11
6.38888
21
-3.48947
0
LINE
8
BLACK
6
CONTINUOUS
10
6.38888
20
-3.48947
11
6.38852
21
-3.48977
0
LINE
8
BLACK
6
CONTINUOUS
10
6.38852
20
-3.48977
11
6.38811
21
-3.48999
0
LINE
8
BLACK
6
CONTINUOUS
10
6.38811
20
-3.48999
11
6.38767
21
-3.49012
0
LINE
8
BLACK
6
CONTINUOUS
10
6.38767
20
-3.49012
11
6.38732
21
-3.49016
0
LINE
8
BLACK
6
CONTINUOUS
10
6.38732
20
-3.49016
11
6.38732
21
-3.49016
0
LINE
8
BLACK
6
CONTINUOUS
10
6.38732
20
-3.49016
11
6.3872
21
-3.49017
0
LINE
8
BLACK
6
CONTINUOUS
10
6.3872
20
-3.49017
11
6.38709
21
-3.49016
0
LINE
8
BLACK
6
CONTINUOUS
10
6.38709
20
-3.49016
11
5.68496
21
-3.49016
0
LINE
8
BLACK
6
CONTINUOUS
10
5.68496
20
-3.49016
11
5.68484
21
-3.49017
0
LINE
8
BLACK
6
CONTINUOUS
10
5.68484
20
-3.49017
11
5.68438
21
-3.49012
0
LINE
8
BLACK
6
CONTINUOUS
10
5.68438
20
-3.49012
11
5.68393
21
-3.48999
0
LINE
8
BLACK
6
CONTINUOUS
10
5.68393
20
-3.48999
11
5.68352
21
-3.48977
0
LINE
8
BLACK
6
CONTINUOUS
10
5.68352
20
-3.48977
11
5.68316
21
-3.48947
0
LINE
8
BLACK
6
CONTINUOUS
10
5.68316
20
-3.48947
11
5.68287
21
-3.48911
0
LINE
8
BLACK
6
CONTINUOUS
10
5.68287
20
-3.48911
11
5.68265
21
-3.4887
0
LINE
8
BLACK
6
CONTINUOUS
10
5.68265
20
-3.4887
11
5.68251
21
-3.48826
0
LINE
8
BLACK
6
CONTINUOUS
10
5.68251
20
-3.48826
11
5.68247
21
-3.4878
0
LINE
8
BLACK
6
CONTINUOUS
10
5.68247
20
-3.4878
11
5.68248
21
-3.48768
0
LINE
8
BLACK
6
CONTINUOUS
10
5.68248
20
-3.48768
11
5.68248
21
-3.38319
0
LINE
8
BLACK
6
CONTINUOUS
10
5.68248
20
-3.38319
11
5.68247
21
-3.38307
0
LINE
8
BLACK
6
CONTINUOUS
10
5.68247
20
-3.38307
11
5.68251
21
-3.38261
0
LINE
8
BLACK
6
CONTINUOUS
10
5.68251
20
-3.38261
11
5.68265
21
-3.38216
0
LINE
8
BLACK
6
CONTINUOUS
10
5.68265
20
-3.38216
11
5.68287
21
-3.38175
0
LINE
8
BLACK
6
CONTINUOUS
10
5.68287
20
-3.38175
11
5.68316
21
-3.38139
0
LINE
8
BLACK
6
CONTINUOUS
10
5.68316
20
-3.38139
11
5.68352
21
-3.3811
0
LINE
8
BLACK
6
CONTINUOUS
10
5.68352
20
-3.3811
11
5.68393
21
-3.38088
0
LINE
8
BLACK
6
CONTINUOUS
10
5.68393
20
-3.38088
11
5.68438
21
-3.38074
0
LINE
8
BLACK
6
CONTINUOUS
10
5.68438
20
-3.38074
11
5.68473
21
-3.38071
0
LINE
8
BLACK
6
CONTINUOUS
10
5.68473
20
-3.38071
11
5.68473
21
-3.38071
0
LINE
8
BLACK
6
CONTINUOUS
10
5.68473
20
-3.38071
11
5.68484
21
-3.3807
0
LINE
8
BLACK
6
CONTINUOUS
10
5.68484
20
-3.3807
11
5.68496
21
-3.38071
0
LINE
8
BLACK
6
CONTINUOUS
10
5.68496
20
-3.38071
11
6.38709
21
-3.38071
0
LINE
8
BLACK
6
CONTINUOUS
10
6.38709
20
-3.38071
11
6.3872
21
-3.3807
0
LINE
8
BLACK
6
CONTINUOUS
10
6.3872
20
-3.3807
11
6.38732
21
-3.38071
0
LINE
8
BLACK
6
CONTINUOUS
10
5.6872
20
-3.38543
11
5.6872
21
-3.48543
0
LINE
8
BLACK
6
CONTINUOUS
10
5.6872
20
-3.48543
11
6.38484
21
-3.48543
0
LINE
8
BLACK
6
CONTINUOUS
10
6.38484
20
-3.48543
11
6.38484
21
-3.38543
0
LINE
8
BLACK
6
CONTINUOUS
10
6.38484
20
-3.38543
11
5.6872
21
-3.38543
0
LINE
8
BLACK
6
CONTINUOUS
10
5.58294
20
-3.43311
11
5.58339
21
-3.43324
0
LINE
8
BLACK
6
CONTINUOUS
10
5.58339
20
-3.43324
11
5.5838
21
-3.43346
0
LINE
8
BLACK
6
CONTINUOUS
10
5.5838
20
-3.43346
11
5.58416
21
-3.43375
0
LINE
8
BLACK
6
CONTINUOUS
10
5.58416
20
-3.43375
11
5.58445
21
-3.43411
0
LINE
8
BLACK
6
CONTINUOUS
10
5.58445
20
-3.43411
11
5.58467
21
-3.43452
0
LINE
8
BLACK
6
CONTINUOUS
10
5.58467
20
-3.43452
11
5.58481
21
-3.43497
0
LINE
8
BLACK
6
CONTINUOUS
10
5.58481
20
-3.43497
11
5.58484
21
-3.43532
0
LINE
8
BLACK
6
CONTINUOUS
10
5.58484
20
-3.43532
11
5.58484
21
-3.48543
0
LINE
8
BLACK
6
CONTINUOUS
10
5.58484
20
-3.48543
11
5.63496
21
-3.48543
0
LINE
8
BLACK
6
CONTINUOUS
10
5.63496
20
-3.48543
11
5.63531
21
-3.48547
0
LINE
8
BLACK
6
CONTINUOUS
10
5.63531
20
-3.48547
11
5.63575
21
-3.4856
0
LINE
8
BLACK
6
CONTINUOUS
10
5.63575
20
-3.4856
11
5.63616
21
-3.48582
0
LINE
8
BLACK
6
CONTINUOUS
10
5.63616
20
-3.48582
11
5.63652
21
-3.48612
0
LINE
8
BLACK
6
CONTINUOUS
10
5.63652
20
-3.48612
11
5.63682
21
-3.48648
0
LINE
8
BLACK
6
CONTINUOUS
10
5.63682
20
-3.48648
11
5.63704
21
-3.48689
0
LINE
8
BLACK
6
CONTINUOUS
10
5.63704
20
-3.48689
11
5.63717
21
-3.48733
0
LINE
8
BLACK
6
CONTINUOUS
10
5.63717
20
-3.48733
11
5.63722
21
-3.4878
0
LINE
8
BLACK
6
CONTINUOUS
10
5.63722
20
-3.4878
11
5.63717
21
-3.48826
0
LINE
8
BLACK
6
CONTINUOUS
10
5.63717
20
-3.48826
11
5.63704
21
-3.4887
0
LINE
8
BLACK
6
CONTINUOUS
10
5.63704
20
-3.4887
11
5.63682
21
-3.48911
0
LINE
8
BLACK
6
CONTINUOUS
10
5.63682
20
-3.48911
11
5.63652
21
-3.48947
0
LINE
8
BLACK
6
CONTINUOUS
10
5.63652
20
-3.48947
11
5.63616
21
-3.48977
0
LINE
8
BLACK
6
CONTINUOUS
10
5.63616
20
-3.48977
11
5.63575
21
-3.48999
0
LINE
8
BLACK
6
CONTINUOUS
10
5.63575
20
-3.48999
11
5.63531
21
-3.49012
0
LINE
8
BLACK
6
CONTINUOUS
10
5.63531
20
-3.49012
11
5.63496
21
-3.49016
0
LINE
8
BLACK
6
CONTINUOUS
10
5.63496
20
-3.49016
11
5.5826
21
-3.49016
0
LINE
8
BLACK
6
CONTINUOUS
10
5.5826
20
-3.49016
11
5.58248
21
-3.49017
0
LINE
8
BLACK
6
CONTINUOUS
10
5.58248
20
-3.49017
11
5.58202
21
-3.49012
0
LINE
8
BLACK
6
CONTINUOUS
10
5.58202
20
-3.49012
11
5.58157
21
-3.48999
0
LINE
8
BLACK
6
CONTINUOUS
10
5.58157
20
-3.48999
11
5.58116
21
-3.48977
0
LINE
8
BLACK
6
CONTINUOUS
10
5.58116
20
-3.48977
11
5.5808
21
-3.48947
0
LINE
8
BLACK
6
CONTINUOUS
10
5.5808
20
-3.48947
11
5.58051
21
-3.48911
0
LINE
8
BLACK
6
CONTINUOUS
10
5.58051
20
-3.48911
11
5.58029
21
-3.4887
0
LINE
8
BLACK
6
CONTINUOUS
10
5.58029
20
-3.4887
11
5.58015
21
-3.48826
0
LINE
8
BLACK
6
CONTINUOUS
10
5.58015
20
-3.48826
11
5.58011
21
-3.4878
0
LINE
8
BLACK
6
CONTINUOUS
10
5.58011
20
-3.4878
11
5.58012
21
-3.48768
0
LINE
8
BLACK
6
CONTINUOUS
10
5.58012
20
-3.48768
11
5.58012
21
-3.43532
0
LINE
8
BLACK
6
CONTINUOUS
10
5.58012
20
-3.43532
11
5.58015
21
-3.43497
0
LINE
8
BLACK
6
CONTINUOUS
10
5.58015
20
-3.43497
11
5.58029
21
-3.43452
0
LINE
8
BLACK
6
CONTINUOUS
10
5.58029
20
-3.43452
11
5.58051
21
-3.43411
0
LINE
8
BLACK
6
CONTINUOUS
10
5.58051
20
-3.43411
11
5.5808
21
-3.43375
0
LINE
8
BLACK
6
CONTINUOUS
10
5.5808
20
-3.43375
11
5.58116
21
-3.43346
0
LINE
8
BLACK
6
CONTINUOUS
10
5.58116
20
-3.43346
11
5.58157
21
-3.43324
0
LINE
8
BLACK
6
CONTINUOUS
10
5.58157
20
-3.43324
11
5.58202
21
-3.43311
0
LINE
8
BLACK
6
CONTINUOUS
10
5.58202
20
-3.43311
11
5.58248
21
-3.43306
0
LINE
8
BLACK
6
CONTINUOUS
10
5.58248
20
-3.43306
11
5.58294
21
-3.43311
0
LINE
8
BLACK
6
CONTINUOUS
10
6.11988
20
-3.17323
11
6.12046
21
-3.17329
0
LINE
8
BLACK
6
CONTINUOUS
10
6.12046
20
-3.17329
11
6.1212
21
-3.17351
0
LINE
8
BLACK
6
CONTINUOUS
10
6.1212
20
-3.17351
11
6.12188
21
-3.17388
0
LINE
8
BLACK
6
CONTINUOUS
10
6.12188
20
-3.17388
11
6.12248
21
-3.17437
0
LINE
8
BLACK
6
CONTINUOUS
10
6.12248
20
-3.17437
11
6.12297
21
-3.17497
0
LINE
8
BLACK
6
CONTINUOUS
10
6.12297
20
-3.17497
11
6.12334
21
-3.17565
0
LINE
8
BLACK
6
CONTINUOUS
10
6.12334
20
-3.17565
11
6.12357
21
-3.17639
0
LINE
8
BLACK
6
CONTINUOUS
10
6.12357
20
-3.17639
11
6.12364
21
-3.17717
0
LINE
8
BLACK
6
CONTINUOUS
10
6.12364
20
-3.17717
11
6.12362
21
-3.17736
0
LINE
8
BLACK
6
CONTINUOUS
10
6.12362
20
-3.17736
11
6.12362
21
-3.32264
0
LINE
8
BLACK
6
CONTINUOUS
10
6.12362
20
-3.32264
11
6.12364
21
-3.32283
0
LINE
8
BLACK
6
CONTINUOUS
10
6.12364
20
-3.32283
11
6.12357
21
-3.32361
0
LINE
8
BLACK
6
CONTINUOUS
10
6.12357
20
-3.32361
11
6.12334
21
-3.32435
0
LINE
8
BLACK
6
CONTINUOUS
10
6.12334
20
-3.32435
11
6.12297
21
-3.32503
0
LINE
8
BLACK
6
CONTINUOUS
10
6.12297
20
-3.32503
11
6.12248
21
-3.32563
0
LINE
8
BLACK
6
CONTINUOUS
10
6.12248
20
-3.32563
11
6.12188
21
-3.32612
0
LINE
8
BLACK
6
CONTINUOUS
10
6.12188
20
-3.32612
11
6.1212
21
-3.32649
0
LINE
8
BLACK
6
CONTINUOUS
10
6.1212
20
-3.32649
11
6.12046
21
-3.32671
0
LINE
8
BLACK
6
CONTINUOUS
10
6.12046
20
-3.32671
11
6.11988
21
-3.32677
0
LINE
8
BLACK
6
CONTINUOUS
10
6.11988
20
-3.32677
11
6.11969
21
-3.32679
0
LINE
8
BLACK
6
CONTINUOUS
10
6.11969
20
-3.32679
11
6.11949
21
-3.32677
0
LINE
8
BLACK
6
CONTINUOUS
10
6.11949
20
-3.32677
11
5.84901
21
-3.32677
0
LINE
8
BLACK
6
CONTINUOUS
10
5.84901
20
-3.32677
11
5.84882
21
-3.32679
0
LINE
8
BLACK
6
CONTINUOUS
10
5.84882
20
-3.32679
11
5.84863
21
-3.32677
0
LINE
8
BLACK
6
CONTINUOUS
10
5.84863
20
-3.32677
11
5.84805
21
-3.32671
0
LINE
8
BLACK
6
CONTINUOUS
10
5.84805
20
-3.32671
11
5.8473
21
-3.32649
0
LINE
8
BLACK
6
CONTINUOUS
10
5.8473
20
-3.32649
11
5.84662
21
-3.32612
0
LINE
8
BLACK
6
CONTINUOUS
10
5.84662
20
-3.32612
11
5.84602
21
-3.32563
0
LINE
8
BLACK
6
CONTINUOUS
10
5.84602
20
-3.32563
11
5.84553
21
-3.32503
0
LINE
8
BLACK
6
CONTINUOUS
10
5.84553
20
-3.32503
11
5.84516
21
-3.32435
0
LINE
8
BLACK
6
CONTINUOUS
10
5.84516
20
-3.32435
11
5.84494
21
-3.32361
0
LINE
8
BLACK
6
CONTINUOUS
10
5.84494
20
-3.32361
11
5.84486
21
-3.32283
0
LINE
8
BLACK
6
CONTINUOUS
10
5.84486
20
-3.32283
11
5.84488
21
-3.32264
0
LINE
8
BLACK
6
CONTINUOUS
10
5.84488
20
-3.32264
11
5.84488
21
-3.27481
0
LINE
8
BLACK
6
CONTINUOUS
10
5.84488
20
-3.27481
11
5.84494
21
-3.27423
0
LINE
8
BLACK
6
CONTINUOUS
10
5.84494
20
-3.27423
11
5.84516
21
-3.27349
0
LINE
8
BLACK
6
CONTINUOUS
10
5.84516
20
-3.27349
11
5.84553
21
-3.2728
0
LINE
8
BLACK
6
CONTINUOUS
10
5.84553
20
-3.2728
11
5.84602
21
-3.2722
0
LINE
8
BLACK
6
CONTINUOUS
10
5.84602
20
-3.2722
11
5.84662
21
-3.27171
0
LINE
8
BLACK
6
CONTINUOUS
10
5.84662
20
-3.27171
11
5.8473
21
-3.27135
0
LINE
8
BLACK
6
CONTINUOUS
10
5.8473
20
-3.27135
11
5.84805
21
-3.27112
0
LINE
8
BLACK
6
CONTINUOUS
10
5.84805
20
-3.27112
11
5.84882
21
-3.27104
0
LINE
8
BLACK
6
CONTINUOUS
10
5.84882
20
-3.27104
11
5.84959
21
-3.27112
0
LINE
8
BLACK
6
CONTINUOUS
10
5.84959
20
-3.27112
11
5.85033
21
-3.27135
0
LINE
8
BLACK
6
CONTINUOUS
10
5.85033
20
-3.27135
11
5.85102
21
-3.27171
0
LINE
8
BLACK
6
CONTINUOUS
10
5.85102
20
-3.27171
11
5.85162
21
-3.2722
0
LINE
8
BLACK
6
CONTINUOUS
10
5.85162
20
-3.2722
11
5.85211
21
-3.2728
0
LINE
8
BLACK
6
CONTINUOUS
10
5.85211
20
-3.2728
11
5.85247
21
-3.27349
0
LINE
8
BLACK
6
CONTINUOUS
10
5.85247
20
-3.27349
11
5.8527
21
-3.27423
0
LINE
8
BLACK
6
CONTINUOUS
10
5.8527
20
-3.27423
11
5.85276
21
-3.27481
0
LINE
8
BLACK
6
CONTINUOUS
10
5.85276
20
-3.27481
11
5.85276
21
-3.3189
0
LINE
8
BLACK
6
CONTINUOUS
10
5.85276
20
-3.3189
11
6.11575
21
-3.3189
0
LINE
8
BLACK
6
CONTINUOUS
10
6.11575
20
-3.3189
11
6.11575
21
-3.1811
0
LINE
8
BLACK
6
CONTINUOUS
10
6.11575
20
-3.1811
11
5.88406
21
-3.1811
0
LINE
8
BLACK
6
CONTINUOUS
10
5.88406
20
-3.1811
11
5.88348
21
-3.18105
0
LINE
8
BLACK
6
CONTINUOUS
10
5.88348
20
-3.18105
11
5.88274
21
-3.18082
0
LINE
8
BLACK
6
CONTINUOUS
10
5.88274
20
-3.18082
11
5.88205
21
-3.18045
0
LINE
8
BLACK
6
CONTINUOUS
10
5.88205
20
-3.18045
11
5.88145
21
-3.17996
0
LINE
8
BLACK
6
CONTINUOUS
10
5.88145
20
-3.17996
11
5.88096
21
-3.17936
0
LINE
8
BLACK
6
CONTINUOUS
10
5.88096
20
-3.17936
11
5.8806
21
-3.17868
0
LINE
8
BLACK
6
CONTINUOUS
10
5.8806
20
-3.17868
11
5.88037
21
-3.17794
0
LINE
8
BLACK
6
CONTINUOUS
10
5.88037
20
-3.17794
11
5.8803
21
-3.17717
0
LINE
8
BLACK
6
CONTINUOUS
10
5.8803
20
-3.17717
11
5.88037
21
-3.17639
0
LINE
8
BLACK
6
CONTINUOUS
10
5.88037
20
-3.17639
11
5.8806
21
-3.17565
0
LINE
8
BLACK
6
CONTINUOUS
10
5.8806
20
-3.17565
11
5.88096
21
-3.17497
0
LINE
8
BLACK
6
CONTINUOUS
10
5.88096
20
-3.17497
11
5.88145
21
-3.17437
0
LINE
8
BLACK
6
CONTINUOUS
10
5.88145
20
-3.17437
11
5.88205
21
-3.17388
0
LINE
8
BLACK
6
CONTINUOUS
10
5.88205
20
-3.17388
11
5.88274
21
-3.17351
0
LINE
8
BLACK
6
CONTINUOUS
10
5.88274
20
-3.17351
11
5.88348
21
-3.17329
0
LINE
8
BLACK
6
CONTINUOUS
10
5.88348
20
-3.17329
11
5.88406
21
-3.17323
0
LINE
8
BLACK
6
CONTINUOUS
10
5.88406
20
-3.17323
11
6.11949
21
-3.17323
0
LINE
8
BLACK
6
CONTINUOUS
10
6.11949
20
-3.17323
11
6.11969
21
-3.17321
0
LINE
8
BLACK
6
CONTINUOUS
10
6.11969
20
-3.17321
11
6.11988
21
-3.17323
0
LINE
8
BLACK
6
CONTINUOUS
10
5.90591
20
-3.29665
11
5.8626
21
-3.29665
0
LINE
8
BLACK
6
CONTINUOUS
10
5.8626
20
-3.29665
11
5.8626
21
-3.25335
0
LINE
8
BLACK
6
CONTINUOUS
10
5.8626
20
-3.25335
11
5.90591
21
-3.25335
0
LINE
8
BLACK
6
CONTINUOUS
10
5.90591
20
-3.25335
11
5.90591
21
-3.29665
0
LINE
8
BLACK
6
CONTINUOUS
10
5.94057
20
-3.25418
11
5.94451
21
-3.25581
0
LINE
8
BLACK
6
CONTINUOUS
10
5.94451
20
-3.25581
11
5.94806
21
-3.25818
0
LINE
8
BLACK
6
CONTINUOUS
10
5.94806
20
-3.25818
11
5.95107
21
-3.2612
0
LINE
8
BLACK
6
CONTINUOUS
10
5.95107
20
-3.2612
11
5.95344
21
-3.26474
0
LINE
8
BLACK
6
CONTINUOUS
10
5.95344
20
-3.26474
11
5.95507
21
-3.26868
0
LINE
8
BLACK
6
CONTINUOUS
10
5.95507
20
-3.26868
11
5.95591
21
-3.27287
0
LINE
8
BLACK
6
CONTINUOUS
10
5.95591
20
-3.27287
11
5.95591
21
-3.27713
0
LINE
8
BLACK
6
CONTINUOUS
10
5.95591
20
-3.27713
11
5.95507
21
-3.28132
0
LINE
8
BLACK
6
CONTINUOUS
10
5.95507
20
-3.28132
11
5.95344
21
-3.28526
0
LINE
8
BLACK
6
CONTINUOUS
10
5.95344
20
-3.28526
11
5.95107
21
-3.2888
0
LINE
8
BLACK
6
CONTINUOUS
10
5.95107
20
-3.2888
11
5.94806
21
-3.29182
0
LINE
8
BLACK
6
CONTINUOUS
10
5.94806
20
-3.29182
11
5.94451
21
-3.29419
0
LINE
8
BLACK
6
CONTINUOUS
10
5.94451
20
-3.29419
11
5.94057
21
-3.29582
0
LINE
8
BLACK
6
CONTINUOUS
10
5.94057
20
-3.29582
11
5.93638
21
-3.29665
0
LINE
8
BLACK
6
CONTINUOUS
10
5.93638
20
-3.29665
11
5.93212
21
-3.29665
0
LINE
8
BLACK
6
CONTINUOUS
10
5.93212
20
-3.29665
11
5.92794
21
-3.29582
0
LINE
8
BLACK
6
CONTINUOUS
10
5.92794
20
-3.29582
11
5.924
21
-3.29419
0
LINE
8
BLACK
6
CONTINUOUS
10
5.924
20
-3.29419
11
5.92045
21
-3.29182
0
LINE
8
BLACK
6
CONTINUOUS
10
5.92045
20
-3.29182
11
5.91743
21
-3.2888
0
LINE
8
BLACK
6
CONTINUOUS
10
5.91743
20
-3.2888
11
5.91506
21
-3.28526
0
LINE
8
BLACK
6
CONTINUOUS
10
5.91506
20
-3.28526
11
5.91343
21
-3.28132
0
LINE
8
BLACK
6
CONTINUOUS
10
5.91343
20
-3.28132
11
5.9126
21
-3.27713
0
LINE
8
BLACK
6
CONTINUOUS
10
5.9126
20
-3.27713
11
5.9126
21
-3.27287
0
LINE
8
BLACK
6
CONTINUOUS
10
5.9126
20
-3.27287
11
5.91343
21
-3.26868
0
LINE
8
BLACK
6
CONTINUOUS
10
5.91343
20
-3.26868
11
5.91506
21
-3.26474
0
LINE
8
BLACK
6
CONTINUOUS
10
5.91506
20
-3.26474
11
5.91743
21
-3.2612
0
LINE
8
BLACK
6
CONTINUOUS
10
5.91743
20
-3.2612
11
5.92045
21
-3.25818
0
LINE
8
BLACK
6
CONTINUOUS
10
5.92045
20
-3.25818
11
5.924
21
-3.25581
0
LINE
8
BLACK
6
CONTINUOUS
10
5.924
20
-3.25581
11
5.92794
21
-3.25418
0
LINE
8
BLACK
6
CONTINUOUS
10
5.92794
20
-3.25418
11
5.93212
21
-3.25335
0
LINE
8
BLACK
6
CONTINUOUS
10
5.93212
20
-3.25335
11
5.93638
21
-3.25335
0
LINE
8
BLACK
6
CONTINUOUS
10
5.93638
20
-3.25335
11
5.94057
21
-3.25418
0
LINE
8
BLACK
6
CONTINUOUS
10
5.99057
20
-3.25418
11
5.99451
21
-3.25581
0
LINE
8
BLACK
6
CONTINUOUS
10
5.99451
20
-3.25581
11
5.99806
21
-3.25818
0
LINE
8
BLACK
6
CONTINUOUS
10
5.99806
20
-3.25818
11
6.00107
21
-3.2612
0
LINE
8
BLACK
6
CONTINUOUS
10
6.00107
20
-3.2612
11
6.00344
21
-3.26474
0
LINE
8
BLACK
6
CONTINUOUS
10
6.00344
20
-3.26474
11
6.00507
21
-3.26868
0
LINE
8
BLACK
6
CONTINUOUS
10
6.00507
20
-3.26868
11
6.00591
21
-3.27287
0
LINE
8
BLACK
6
CONTINUOUS
10
6.00591
20
-3.27287
11
6.00591
21
-3.27713
0
LINE
8
BLACK
6
CONTINUOUS
10
6.00591
20
-3.27713
11
6.00507
21
-3.28132
0
LINE
8
BLACK
6
CONTINUOUS
10
6.00507
20
-3.28132
11
6.00344
21
-3.28526
0
LINE
8
BLACK
6
CONTINUOUS
10
6.00344
20
-3.28526
11
6.00107
21
-3.2888
0
LINE
8
BLACK
6
CONTINUOUS
10
6.00107
20
-3.2888
11
5.99806
21
-3.29182
0
LINE
8
BLACK
6
CONTINUOUS
10
5.99806
20
-3.29182
11
5.99451
21
-3.29419
0
LINE
8
BLACK
6
CONTINUOUS
10
5.99451
20
-3.29419
11
5.99057
21
-3.29582
0
LINE
8
BLACK
6
CONTINUOUS
10
5.99057
20
-3.29582
11
5.98638
21
-3.29665
0
LINE
8
BLACK
6
CONTINUOUS
10
5.98638
20
-3.29665
11
5.98212
21
-3.29665
0
LINE
8
BLACK
6
CONTINUOUS
10
5.98212
20
-3.29665
11
5.97794
21
-3.29582
0
LINE
8
BLACK
6
CONTINUOUS
10
5.97794
20
-3.29582
11
5.974
21
-3.29419
0
LINE
8
BLACK
6
CONTINUOUS
10
5.974
20
-3.29419
11
5.97045
21
-3.29182
0
LINE
8
BLACK
6
CONTINUOUS
10
5.97045
20
-3.29182
11
5.96743
21
-3.2888
0
LINE
8
BLACK
6
CONTINUOUS
10
5.96743
20
-3.2888
11
5.96506
21
-3.28526
0
LINE
8
BLACK
6
CONTINUOUS
10
5.96506
20
-3.28526
11
5.96343
21
-3.28132
0
LINE
8
BLACK
6
CONTINUOUS
10
5.96343
20
-3.28132
11
5.9626
21
-3.27713
0
LINE
8
BLACK
6
CONTINUOUS
10
5.9626
20
-3.27713
11
5.9626
21
-3.27287
0
LINE
8
BLACK
6
CONTINUOUS
10
5.9626
20
-3.27287
11
5.96343
21
-3.26868
0
LINE
8
BLACK
6
CONTINUOUS
10
5.96343
20
-3.26868
11
5.96506
21
-3.26474
0
LINE
8
BLACK
6
CONTINUOUS
10
5.96506
20
-3.26474
11
5.96743
21
-3.2612
0
LINE
8
BLACK
6
CONTINUOUS
10
5.96743
20
-3.2612
11
5.97045
21
-3.25818
0
LINE
8
BLACK
6
CONTINUOUS
10
5.97045
20
-3.25818
11
5.974
21
-3.25581
0
LINE
8
BLACK
6
CONTINUOUS
10
5.974
20
-3.25581
11
5.97794
21
-3.25418
0
LINE
8
BLACK
6
CONTINUOUS
10
5.97794
20
-3.25418
11
5.98212
21
-3.25335
0
LINE
8
BLACK
6
CONTINUOUS
10
5.98212
20
-3.25335
11
5.98638
21
-3.25335
0
LINE
8
BLACK
6
CONTINUOUS
10
5.98638
20
-3.25335
11
5.99057
21
-3.25418
0
LINE
8
BLACK
6
CONTINUOUS
10
6.04057
20
-3.25418
11
6.04451
21
-3.25581
0
LINE
8
BLACK
6
CONTINUOUS
10
6.04451
20
-3.25581
11
6.04806
21
-3.25818
0
LINE
8
BLACK
6
CONTINUOUS
10
6.04806
20
-3.25818
11
6.05107
21
-3.2612
0
LINE
8
BLACK
6
CONTINUOUS
10
6.05107
20
-3.2612
11
6.05344
21
-3.26474
0
LINE
8
BLACK
6
CONTINUOUS
10
6.05344
20
-3.26474
11
6.05507
21
-3.26868
0
LINE
8
BLACK
6
CONTINUOUS
10
6.05507
20
-3.26868
11
6.05591
21
-3.27287
0
LINE
8
BLACK
6
CONTINUOUS
10
6.05591
20
-3.27287
11
6.05591
21
-3.27713
0
LINE
8
BLACK
6
CONTINUOUS
10
6.05591
20
-3.27713
11
6.05507
21
-3.28132
0
LINE
8
BLACK
6
CONTINUOUS
10
6.05507
20
-3.28132
11
6.05344
21
-3.28526
0
LINE
8
BLACK
6
CONTINUOUS
10
6.05344
20
-3.28526
11
6.05107
21
-3.2888
0
LINE
8
BLACK
6
CONTINUOUS
10
6.05107
20
-3.2888
11
6.04806
21
-3.29182
0
LINE
8
BLACK
6
CONTINUOUS
10
6.04806
20
-3.29182
11
6.04451
21
-3.29419
0
LINE
8
BLACK
6
CONTINUOUS
10
6.04451
20
-3.29419
11
6.04057
21
-3.29582
0
LINE
8
BLACK
6
CONTINUOUS
10
6.04057
20
-3.29582
11
6.03638
21
-3.29665
0
LINE
8
BLACK
6
CONTINUOUS
10
6.03638
20
-3.29665
11
6.03212
21
-3.29665
0
LINE
8
BLACK
6
CONTINUOUS
10
6.03212
20
-3.29665
11
6.02794
21
-3.29582
0
LINE
8
BLACK
6
CONTINUOUS
10
6.02794
20
-3.29582
11
6.024
21
-3.29419
0
LINE
8
BLACK
6
CONTINUOUS
10
6.024
20
-3.29419
11
6.02045
21
-3.29182
0
LINE
8
BLACK
6
CONTINUOUS
10
6.02045
20
-3.29182
11
6.01743
21
-3.2888
0
LINE
8
BLACK
6
CONTINUOUS
10
6.01743
20
-3.2888
11
6.01506
21
-3.28526
0
LINE
8
BLACK
6
CONTINUOUS
10
6.01506
20
-3.28526
11
6.01343
21
-3.28132
0
LINE
8
BLACK
6
CONTINUOUS
10
6.01343
20
-3.28132
11
6.0126
21
-3.27713
0
LINE
8
BLACK
6
CONTINUOUS
10
6.0126
20
-3.27713
11
6.0126
21
-3.27287
0
LINE
8
BLACK
6
CONTINUOUS
10
6.0126
20
-3.27287
11
6.01343
21
-3.26868
0
LINE
8
BLACK
6
CONTINUOUS
10
6.01343
20
-3.26868
11
6.01506
21
-3.26474
0
LINE
8
BLACK
6
CONTINUOUS
10
6.01506
20
-3.26474
11
6.01743
21
-3.2612
0
LINE
8
BLACK
6
CONTINUOUS
10
6.01743
20
-3.2612
11
6.02045
21
-3.25818
0
LINE
8
BLACK
6
CONTINUOUS
10
6.02045
20
-3.25818
11
6.024
21
-3.25581
0
LINE
8
BLACK
6
CONTINUOUS
10
6.024
20
-3.25581
11
6.02794
21
-3.25418
0
LINE
8
BLACK
6
CONTINUOUS
10
6.02794
20
-3.25418
11
6.03212
21
-3.25335
0
LINE
8
BLACK
6
CONTINUOUS
10
6.03212
20
-3.25335
11
6.03638
21
-3.25335
0
LINE
8
BLACK
6
CONTINUOUS
10
6.03638
20
-3.25335
11
6.04057
21
-3.25418
0
LINE
8
BLACK
6
CONTINUOUS
10
6.09057
20
-3.25418
11
6.09451
21
-3.25581
0
LINE
8
BLACK
6
CONTINUOUS
10
6.09451
20
-3.25581
11
6.09806
21
-3.25818
0
LINE
8
BLACK
6
CONTINUOUS
10
6.09806
20
-3.25818
11
6.10107
21
-3.2612
0
LINE
8
BLACK
6
CONTINUOUS
10
6.10107
20
-3.2612
11
6.10344
21
-3.26474
0
LINE
8
BLACK
6
CONTINUOUS
10
6.10344
20
-3.26474
11
6.10507
21
-3.26868
0
LINE
8
BLACK
6
CONTINUOUS
10
6.10507
20
-3.26868
11
6.10591
21
-3.27287
0
LINE
8
BLACK
6
CONTINUOUS
10
6.10591
20
-3.27287
11
6.10591
21
-3.27713
0
LINE
8
BLACK
6
CONTINUOUS
10
6.10591
20
-3.27713
11
6.10507
21
-3.28132
0
LINE
8
BLACK
6
CONTINUOUS
10
6.10507
20
-3.28132
11
6.10344
21
-3.28526
0
LINE
8
BLACK
6
CONTINUOUS
10
6.10344
20
-3.28526
11
6.10107
21
-3.2888
0
LINE
8
BLACK
6
CONTINUOUS
10
6.10107
20
-3.2888
11
6.09806
21
-3.29182
0
LINE
8
BLACK
6
CONTINUOUS
10
6.09806
20
-3.29182
11
6.09451
21
-3.29419
0
LINE
8
BLACK
6
CONTINUOUS
10
6.09451
20
-3.29419
11
6.09057
21
-3.29582
0
LINE
8
BLACK
6
CONTINUOUS
10
6.09057
20
-3.29582
11
6.08638
21
-3.29665
0
LINE
8
BLACK
6
CONTINUOUS
10
6.08638
20
-3.29665
11
6.08212
21
-3.29665
0
LINE
8
BLACK
6
CONTINUOUS
10
6.08212
20
-3.29665
11
6.07794
21
-3.29582
0
LINE
8
BLACK
6
CONTINUOUS
10
6.07794
20
-3.29582
11
6.074
21
-3.29419
0
LINE
8
BLACK
6
CONTINUOUS
10
6.074
20
-3.29419
11
6.07045
21
-3.29182
0
LINE
8
BLACK
6
CONTINUOUS
10
6.07045
20
-3.29182
11
6.06743
21
-3.2888
0
LINE
8
BLACK
6
CONTINUOUS
10
6.06743
20
-3.2888
11
6.06506
21
-3.28526
0
LINE
8
BLACK
6
CONTINUOUS
10
6.06506
20
-3.28526
11
6.06343
21
-3.28132
0
LINE
8
BLACK
6
CONTINUOUS
10
6.06343
20
-3.28132
11
6.0626
21
-3.27713
0
LINE
8
BLACK
6
CONTINUOUS
10
6.0626
20
-3.27713
11
6.0626
21
-3.27287
0
LINE
8
BLACK
6
CONTINUOUS
10
6.0626
20
-3.27287
11
6.06343
21
-3.26868
0
LINE
8
BLACK
6
CONTINUOUS
10
6.06343
20
-3.26868
11
6.06506
21
-3.26474
0
LINE
8
BLACK
6
CONTINUOUS
10
6.06506
20
-3.26474
11
6.06743
21
-3.2612
0
LINE
8
BLACK
6
CONTINUOUS
10
6.06743
20
-3.2612
11
6.07045
21
-3.25818
0
LINE
8
BLACK
6
CONTINUOUS
10
6.07045
20
-3.25818
11
6.074
21
-3.25581
0
LINE
8
BLACK
6
CONTINUOUS
10
6.074
20
-3.25581
11
6.07794
21
-3.25418
0
LINE
8
BLACK
6
CONTINUOUS
10
6.07794
20
-3.25418
11
6.08212
21
-3.25335
0
LINE
8
BLACK
6
CONTINUOUS
10
6.08212
20
-3.25335
11
6.08638
21
-3.25335
0
LINE
8
BLACK
6
CONTINUOUS
10
6.08638
20
-3.25335
11
6.09057
21
-3.25418
0
LINE
8
BLACK
6
CONTINUOUS
10
6.09057
20
-3.20418
11
6.09451
21
-3.20581
0
LINE
8
BLACK
6
CONTINUOUS
10
6.09451
20
-3.20581
11
6.09806
21
-3.20818
0
LINE
8
BLACK
6
CONTINUOUS
10
6.09806
20
-3.20818
11
6.10107
21
-3.2112
0
LINE
8
BLACK
6
CONTINUOUS
10
6.10107
20
-3.2112
11
6.10344
21
-3.21474
0
LINE
8
BLACK
6
CONTINUOUS
10
6.10344
20
-3.21474
11
6.10507
21
-3.21868
0
LINE
8
BLACK
6
CONTINUOUS
10
6.10507
20
-3.21868
11
6.10591
21
-3.22287
0
LINE
8
BLACK
6
CONTINUOUS
10
6.10591
20
-3.22287
11
6.10591
21
-3.22713
0
LINE
8
BLACK
6
CONTINUOUS
10
6.10591
20
-3.22713
11
6.10507
21
-3.23132
0
LINE
8
BLACK
6
CONTINUOUS
10
6.10507
20
-3.23132
11
6.10344
21
-3.23526
0
LINE
8
BLACK
6
CONTINUOUS
10
6.10344
20
-3.23526
11
6.10107
21
-3.2388
0
LINE
8
BLACK
6
CONTINUOUS
10
6.10107
20
-3.2388
11
6.09806
21
-3.24182
0
LINE
8
BLACK
6
CONTINUOUS
10
6.09806
20
-3.24182
11
6.09451
21
-3.24419
0
LINE
8
BLACK
6
CONTINUOUS
10
6.09451
20
-3.24419
11
6.09057
21
-3.24582
0
LINE
8
BLACK
6
CONTINUOUS
10
6.09057
20
-3.24582
11
6.08638
21
-3.24665
0
LINE
8
BLACK
6
CONTINUOUS
10
6.08638
20
-3.24665
11
6.08212
21
-3.24665
0
LINE
8
BLACK
6
CONTINUOUS
10
6.08212
20
-3.24665
11
6.07794
21
-3.24582
0
LINE
8
BLACK
6
CONTINUOUS
10
6.07794
20
-3.24582
11
6.074
21
-3.24419
0
LINE
8
BLACK
6
CONTINUOUS
10
6.074
20
-3.24419
11
6.07045
21
-3.24182
0
LINE
8
BLACK
6
CONTINUOUS
10
6.07045
20
-3.24182
11
6.06743
21
-3.2388
0
LINE
8
BLACK
6
CONTINUOUS
10
6.06743
20
-3.2388
11
6.06506
21
-3.23526
0
LINE
8
BLACK
6
CONTINUOUS
10
6.06506
20
-3.23526
11
6.06343
21
-3.23132
0
LINE
8
BLACK
6
CONTINUOUS
10
6.06343
20
-3.23132
11
6.0626
21
-3.22713
0
LINE
8
BLACK
6
CONTINUOUS
10
6.0626
20
-3.22713
11
6.0626
21
-3.22287
0
LINE
8
BLACK
6
CONTINUOUS
10
6.0626
20
-3.22287
11
6.06343
21
-3.21868
0
LINE
8
BLACK
6
CONTINUOUS
10
6.06343
20
-3.21868
11
6.06506
21
-3.21474
0
LINE
8
BLACK
6
CONTINUOUS
10
6.06506
20
-3.21474
11
6.06743
21
-3.2112
0
LINE
8
BLACK
6
CONTINUOUS
10
6.06743
20
-3.2112
11
6.07045
21
-3.20818
0
LINE
8
BLACK
6
CONTINUOUS
10
6.07045
20
-3.20818
11
6.074
21
-3.20581
0
LINE
8
BLACK
6
CONTINUOUS
10
6.074
20
-3.20581
11
6.07794
21
-3.20418
0
LINE
8
BLACK
6
CONTINUOUS
10
6.07794
20
-3.20418
11
6.08212
21
-3.20335
0
LINE
8
BLACK
6
CONTINUOUS
10
6.08212
20
-3.20335
11
6.08638
21
-3.20335
0
LINE
8
BLACK
6
CONTINUOUS
10
6.08638
20
-3.20335
11
6.09057
21
-3.20418
0
LINE
8
BLACK
6
CONTINUOUS
10
5.89057
20
-3.20418
11
5.89451
21
-3.20581
0
LINE
8
BLACK
6
CONTINUOUS
10
5.89451
20
-3.20581
11
5.89806
21
-3.20818
0
LINE
8
BLACK
6
CONTINUOUS
10
5.89806
20
-3.20818
11
5.90107
21
-3.2112
0
LINE
8
BLACK
6
CONTINUOUS
10
5.90107
20
-3.2112
11
5.90344
21
-3.21474
0
LINE
8
BLACK
6
CONTINUOUS
10
5.90344
20
-3.21474
11
5.90507
21
-3.21868
0
LINE
8
BLACK
6
CONTINUOUS
10
5.90507
20
-3.21868
11
5.90591
21
-3.22287
0
LINE
8
BLACK
6
CONTINUOUS
10
5.90591
20
-3.22287
11
5.90591
21
-3.22713
0
LINE
8
BLACK
6
CONTINUOUS
10
5.90591
20
-3.22713
11
5.90507
21
-3.23132
0
LINE
8
BLACK
6
CONTINUOUS
10
5.90507
20
-3.23132
11
5.90344
21
-3.23526
0
LINE
8
BLACK
6
CONTINUOUS
10
5.90344
20
-3.23526
11
5.90107
21
-3.2388
0
LINE
8
BLACK
6
CONTINUOUS
10
5.90107
20
-3.2388
11
5.89806
21
-3.24182
0
LINE
8
BLACK
6
CONTINUOUS
10
5.89806
20
-3.24182
11
5.89451
21
-3.24419
0
LINE
8
BLACK
6
CONTINUOUS
10
5.89451
20
-3.24419
11
5.89057
21
-3.24582
0
LINE
8
BLACK
6
CONTINUOUS
10
5.89057
20
-3.24582
11
5.88638
21
-3.24665
0
LINE
8
BLACK
6
CONTINUOUS
10
5.88638
20
-3.24665
11
5.88212
21
-3.24665
0
LINE
8
BLACK
6
CONTINUOUS
10
5.88212
20
-3.24665
11
5.87794
21
-3.24582
0
LINE
8
BLACK
6
CONTINUOUS
10
5.87794
20
-3.24582
11
5.874
21
-3.24419
0
LINE
8
BLACK
6
CONTINUOUS
10
5.874
20
-3.24419
11
5.87045
21
-3.24182
0
LINE
8
BLACK
6
CONTINUOUS
10
5.87045
20
-3.24182
11
5.86743
21
-3.2388
0
LINE
8
BLACK
6
CONTINUOUS
10
5.86743
20
-3.2388
11
5.86506
21
-3.23526
0
LINE
8
BLACK
6
CONTINUOUS
10
5.86506
20
-3.23526
11
5.86343
21
-3.23132
0
LINE
8
BLACK
6
CONTINUOUS
10
5.86343
20
-3.23132
11
5.8626
21
-3.22713
0
LINE
8
BLACK
6
CONTINUOUS
10
5.8626
20
-3.22713
11
5.8626
21
-3.22287
0
LINE
8
BLACK
6
CONTINUOUS
10
5.8626
20
-3.22287
11
5.86343
21
-3.21868
0
LINE
8
BLACK
6
CONTINUOUS
10
5.86343
20
-3.21868
11
5.86506
21
-3.21474
0
LINE
8
BLACK
6
CONTINUOUS
10
5.86506
20
-3.21474
11
5.86743
21
-3.2112
0
LINE
8
BLACK
6
CONTINUOUS
10
5.86743
20
-3.2112
11
5.87045
21
-3.20818
0
LINE
8
BLACK
6
CONTINUOUS
10
5.87045
20
-3.20818
11
5.874
21
-3.20581
0
LINE
8
BLACK
6
CONTINUOUS
10
5.874
20
-3.20581
11
5.87794
21
-3.20418
0
LINE
8
BLACK
6
CONTINUOUS
10
5.87794
20
-3.20418
11
5.88212
21
-3.20335
0
LINE
8
BLACK
6
CONTINUOUS
10
5.88212
20
-3.20335
11
5.88638
21
-3.20335
0
LINE
8
BLACK
6
CONTINUOUS
10
5.88638
20
-3.20335
11
5.89057
21
-3.20418
0
LINE
8
BLACK
6
CONTINUOUS
10
5.94057
20
-3.20418
11
5.94451
21
-3.20581
0
LINE
8
BLACK
6
CONTINUOUS
10
5.94451
20
-3.20581
11
5.94806
21
-3.20818
0
LINE
8
BLACK
6
CONTINUOUS
10
5.94806
20
-3.20818
11
5.95107
21
-3.2112
0
LINE
8
BLACK
6
CONTINUOUS
10
5.95107
20
-3.2112
11
5.95344
21
-3.21474
0
LINE
8
BLACK
6
CONTINUOUS
10
5.95344
20
-3.21474
11
5.95507
21
-3.21868
0
LINE
8
BLACK
6
CONTINUOUS
10
5.95507
20
-3.21868
11
5.95591
21
-3.22287
0
LINE
8
BLACK
6
CONTINUOUS
10
5.95591
20
-3.22287
11
5.95591
21
-3.22713
0
LINE
8
BLACK
6
CONTINUOUS
10
5.95591
20
-3.22713
11
5.95507
21
-3.23132
0
LINE
8
BLACK
6
CONTINUOUS
10
5.95507
20
-3.23132
11
5.95344
21
-3.23526
0
LINE
8
BLACK
6
CONTINUOUS
10
5.95344
20
-3.23526
11
5.95107
21
-3.2388
0
LINE
8
BLACK
6
CONTINUOUS
10
5.95107
20
-3.2388
11
5.94806
21
-3.24182
0
LINE
8
BLACK
6
CONTINUOUS
10
5.94806
20
-3.24182
11
5.94451
21
-3.24419
0
LINE
8
BLACK
6
CONTINUOUS
10
5.94451
20
-3.24419
11
5.94057
21
-3.24582
0
LINE
8
BLACK
6
CONTINUOUS
10
5.94057
20
-3.24582
11
5.93638
21
-3.24665
0
LINE
8
BLACK
6
CONTINUOUS
10
5.93638
20
-3.24665
11
5.93212
21
-3.24665
0
LINE
8
BLACK
6
CONTINUOUS
10
5.93212
20
-3.24665
11
5.92794
21
-3.24582
0
LINE
8
BLACK
6
CONTINUOUS
10
5.92794
20
-3.24582
11
5.924
21
-3.24419
0
LINE
8
BLACK
6
CONTINUOUS
10
5.924
20
-3.24419
11
5.92045
21
-3.24182
0
LINE
8
BLACK
6
CONTINUOUS
10
5.92045
20
-3.24182
11
5.91743
21
-3.2388
0
LINE
8
BLACK
6
CONTINUOUS
10
5.91743
20
-3.2388
11
5.91506
21
-3.23526
0
LINE
8
BLACK
6
CONTINUOUS
10
5.91506
20
-3.23526
11
5.91343
21
-3.23132
0
LINE
8
BLACK
6
CONTINUOUS
10
5.91343
20
-3.23132
11
5.9126
21
-3.22713
0
LINE
8
BLACK
6
CONTINUOUS
10
5.9126
20
-3.22713
11
5.9126
21
-3.22287
0
LINE
8
BLACK
6
CONTINUOUS
10
5.9126
20
-3.22287
11
5.91343
21
-3.21868
0
LINE
8
BLACK
6
CONTINUOUS
10
5.91343
20
-3.21868
11
5.91506
21
-3.21474
0
LINE
8
BLACK
6
CONTINUOUS
10
5.91506
20
-3.21474
11
5.91743
21
-3.2112
0
LINE
8
BLACK
6
CONTINUOUS
10
5.91743
20
-3.2112
11
5.92045
21
-3.20818
0
LINE
8
BLACK
6
CONTINUOUS
10
5.92045
20
-3.20818
11
5.924
21
-3.20581
0
LINE
8
BLACK
6
CONTINUOUS
10
5.924
20
-3.20581
11
5.92794
21
-3.20418
0
LINE
8
BLACK
6
CONTINUOUS
10
5.92794
20
-3.20418
11
5.93212
21
-3.20335
0
LINE
8
BLACK
6
CONTINUOUS
10
5.93212
20
-3.20335
11
5.93638
21
-3.20335
0
LINE
8
BLACK
6
CONTINUOUS
10
5.93638
20
-3.20335
11
5.94057
21
-3.20418
0
LINE
8
BLACK
6
CONTINUOUS
10
5.99057
20
-3.20418
11
5.99451
21
-3.20581
0
LINE
8
BLACK
6
CONTINUOUS
10
5.99451
20
-3.20581
11
5.99806
21
-3.20818
0
LINE
8
BLACK
6
CONTINUOUS
10
5.99806
20
-3.20818
11
6.00107
21
-3.2112
0
LINE
8
BLACK
6
CONTINUOUS
10
6.00107
20
-3.2112
11
6.00344
21
-3.21474
0
LINE
8
BLACK
6
CONTINUOUS
10
6.00344
20
-3.21474
11
6.00507
21
-3.21868
0
LINE
8
BLACK
6
CONTINUOUS
10
6.00507
20
-3.21868
11
6.00591
21
-3.22287
0
LINE
8
BLACK
6
CONTINUOUS
10
6.00591
20
-3.22287
11
6.00591
21
-3.22713
0
LINE
8
BLACK
6
CONTINUOUS
10
6.00591
20
-3.22713
11
6.00507
21
-3.23132
0
LINE
8
BLACK
6
CONTINUOUS
10
6.00507
20
-3.23132
11
6.00344
21
-3.23526
0
LINE
8
BLACK
6
CONTINUOUS
10
6.00344
20
-3.23526
11
6.00107
21
-3.2388
0
LINE
8
BLACK
6
CONTINUOUS
10
6.00107
20
-3.2388
11
5.99806
21
-3.24182
0
LINE
8
BLACK
6
CONTINUOUS
10
5.99806
20
-3.24182
11
5.99451
21
-3.24419
0
LINE
8
BLACK
6
CONTINUOUS
10
5.99451
20
-3.24419
11
5.99057
21
-3.24582
0
LINE
8
BLACK
6
CONTINUOUS
10
5.99057
20
-3.24582
11
5.98638
21
-3.24665
0
LINE
8
BLACK
6
CONTINUOUS
10
5.98638
20
-3.24665
11
5.98212
21
-3.24665
0
LINE
8
BLACK
6
CONTINUOUS
10
5.98212
20
-3.24665
11
5.97794
21
-3.24582
0
LINE
8
BLACK
6
CONTINUOUS
10
5.97794
20
-3.24582
11
5.974
21
-3.24419
0
LINE
8
BLACK
6
CONTINUOUS
10
5.974
20
-3.24419
11
5.97045
21
-3.24182
0
LINE
8
BLACK
6
CONTINUOUS
10
5.97045
20
-3.24182
11
5.96743
21
-3.2388
0
LINE
8
BLACK
6
CONTINUOUS
10
5.96743
20
-3.2388
11
5.96506
21
-3.23526
0
LINE
8
BLACK
6
CONTINUOUS
10
5.96506
20
-3.23526
11
5.96343
21
-3.23132
0
LINE
8
BLACK
6
CONTINUOUS
10
5.96343
20
-3.23132
11
5.9626
21
-3.22713
0
LINE
8
BLACK
6
CONTINUOUS
10
5.9626
20
-3.22713
11
5.9626
21
-3.22287
0
LINE
8
BLACK
6
CONTINUOUS
10
5.9626
20
-3.22287
11
5.96343
21
-3.21868
0
LINE
8
BLACK
6
CONTINUOUS
10
5.96343
20
-3.21868
11
5.96506
21
-3.21474
0
LINE
8
BLACK
6
CONTINUOUS
10
5.96506
20
-3.21474
11
5.96743
21
-3.2112
0
LINE
8
BLACK
6
CONTINUOUS
10
5.96743
20
-3.2112
11
5.97045
21
-3.20818
0
LINE
8
BLACK
6
CONTINUOUS
10
5.97045
20
-3.20818
11
5.974
21
-3.20581
0
LINE
8
BLACK
6
CONTINUOUS
10
5.974
20
-3.20581
11
5.97794
21
-3.20418
0
LINE
8
BLACK
6
CONTINUOUS
10
5.97794
20
-3.20418
11
5.98212
21
-3.20335
0
LINE
8
BLACK
6
CONTINUOUS
10
5.98212
20
-3.20335
11
5.98638
21
-3.20335
0
LINE
8
BLACK
6
CONTINUOUS
10
5.98638
20
-3.20335
11
5.99057
21
-3.20418
0
LINE
8
BLACK
6
CONTINUOUS
10
6.04057
20
-3.20418
11
6.04451
21
-3.20581
0
LINE
8
BLACK
6
CONTINUOUS
10
6.04451
20
-3.20581
11
6.04806
21
-3.20818
0
LINE
8
BLACK
6
CONTINUOUS
10
6.04806
20
-3.20818
11
6.05107
21
-3.2112
0
LINE
8
BLACK
6
CONTINUOUS
10
6.05107
20
-3.2112
11
6.05344
21
-3.21474
0
LINE
8
BLACK
6
CONTINUOUS
10
6.05344
20
-3.21474
11
6.05507
21
-3.21868
0
LINE
8
BLACK
6
CONTINUOUS
10
6.05507
20
-3.21868
11
6.05591
21
-3.22287
0
LINE
8
BLACK
6
CONTINUOUS
10
6.05591
20
-3.22287
11
6.05591
21
-3.22713
0
LINE
8
BLACK
6
CONTINUOUS
10
6.05591
20
-3.22713
11
6.05507
21
-3.23132
0
LINE
8
BLACK
6
CONTINUOUS
10
6.05507
20
-3.23132
11
6.05344
21
-3.23526
0
LINE
8
BLACK
6
CONTINUOUS
10
6.05344
20
-3.23526
11
6.05107
21
-3.2388
0
LINE
8
BLACK
6
CONTINUOUS
10
6.05107
20
-3.2388
11
6.04806
21
-3.24182
0
LINE
8
BLACK
6
CONTINUOUS
10
6.04806
20
-3.24182
11
6.04451
21
-3.24419
0
LINE
8
BLACK
6
CONTINUOUS
10
6.04451
20
-3.24419
11
6.04057
21
-3.24582
0
LINE
8
BLACK
6
CONTINUOUS
10
6.04057
20
-3.24582
11
6.03638
21
-3.24665
0
LINE
8
BLACK
6
CONTINUOUS
10
6.03638
20
-3.24665
11
6.03212
21
-3.24665
0
LINE
8
BLACK
6
CONTINUOUS
10
6.03212
20
-3.24665
11
6.02794
21
-3.24582
0
LINE
8
BLACK
6
CONTINUOUS
10
6.02794
20
-3.24582
11
6.024
21
-3.24419
0
LINE
8
BLACK
6
CONTINUOUS
10
6.024
20
-3.24419
11
6.02045
21
-3.24182
0
LINE
8
BLACK
6
CONTINUOUS
10
6.02045
20
-3.24182
11
6.01743
21
-3.2388
0
LINE
8
BLACK
6
CONTINUOUS
10
6.01743
20
-3.2388
11
6.01506
21
-3.23526
0
LINE
8
BLACK
6
CONTINUOUS
10
6.01506
20
-3.23526
11
6.01343
21
-3.23132
0
LINE
8
BLACK
6
CONTINUOUS
10
6.01343
20
-3.23132
11
6.0126
21
-3.22713
0
LINE
8
BLACK
6
CONTINUOUS
10
6.0126
20
-3.22713
11
6.0126
21
-3.22287
0
LINE
8
BLACK
6
CONTINUOUS
10
6.0126
20
-3.22287
11
6.01343
21
-3.21868
0
LINE
8
BLACK
6
CONTINUOUS
10
6.01343
20
-3.21868
11
6.01506
21
-3.21474
0
LINE
8
BLACK
6
CONTINUOUS
10
6.01506
20
-3.21474
11
6.01743
21
-3.2112
0
LINE
8
BLACK
6
CONTINUOUS
10
6.01743
20
-3.2112
11
6.02045
21
-3.20818
0
LINE
8
BLACK
6
CONTINUOUS
10
6.02045
20
-3.20818
11
6.024
21
-3.20581
0
LINE
8
BLACK
6
CONTINUOUS
10
6.024
20
-3.20581
11
6.02794
21
-3.20418
0
LINE
8
BLACK
6
CONTINUOUS
10
6.02794
20
-3.20418
11
6.03212
21
-3.20335
0
LINE
8
BLACK
6
CONTINUOUS
10
6.03212
20
-3.20335
11
6.03638
21
-3.20335
0
LINE
8
BLACK
6
CONTINUOUS
10
6.03638
20
-3.20335
11
6.04057
21
-3.20418
  0
ENDSEC
  0
EOF
