%TF.GenerationSoftware,KiCad,Pcbnew,(5.1.8)-1*%
%TF.CreationDate,2021-11-07T11:05:33-05:00*%
%TF.ProjectId,controller,636f6e74-726f-46c6-9c65-722e6b696361,rev?*%
%TF.SameCoordinates,Original*%
%TF.FileFunction,Legend,Top*%
%TF.FilePolarity,Positive*%
%FSLAX46Y46*%
G04 Gerber Fmt 4.6, Leading zero omitted, Abs format (unit mm)*
G04 Created by KiCad (PCBNEW (5.1.8)-1) date 2021-11-07 11:05:33*
%MOMM*%
%LPD*%
G01*
G04 APERTURE LIST*
%ADD10C,0.300000*%
%ADD11C,0.150000*%
%ADD12C,0.100000*%
%ADD13C,0.120000*%
G04 APERTURE END LIST*
D10*
X123083333Y-105391904D02*
X123083333Y-104439523D01*
X123654761Y-105582380D02*
X121654761Y-104915714D01*
X123654761Y-104249047D01*
X123559523Y-103677619D02*
X123654761Y-103487142D01*
X123654761Y-103106190D01*
X123559523Y-102915714D01*
X123369047Y-102820476D01*
X123273809Y-102820476D01*
X123083333Y-102915714D01*
X122988095Y-103106190D01*
X122988095Y-103391904D01*
X122892857Y-103582380D01*
X122702380Y-103677619D01*
X122607142Y-103677619D01*
X122416666Y-103582380D01*
X122321428Y-103391904D01*
X122321428Y-103106190D01*
X122416666Y-102915714D01*
X122321428Y-102249047D02*
X122321428Y-101487142D01*
X121654761Y-101963333D02*
X123369047Y-101963333D01*
X123559523Y-101868095D01*
X123654761Y-101677619D01*
X123654761Y-101487142D01*
X123654761Y-100820476D02*
X122321428Y-100820476D01*
X122702380Y-100820476D02*
X122511904Y-100725238D01*
X122416666Y-100629999D01*
X122321428Y-100439523D01*
X122321428Y-100249047D01*
X123654761Y-99296666D02*
X123559523Y-99487142D01*
X123464285Y-99582380D01*
X123273809Y-99677619D01*
X122702380Y-99677619D01*
X122511904Y-99582380D01*
X122416666Y-99487142D01*
X122321428Y-99296666D01*
X122321428Y-99010952D01*
X122416666Y-98820476D01*
X122511904Y-98725238D01*
X122702380Y-98630000D01*
X123273809Y-98630000D01*
X123464285Y-98725238D01*
X123559523Y-98820476D01*
X123654761Y-99010952D01*
X123654761Y-99296666D01*
X123083333Y-97868095D02*
X123083333Y-96915714D01*
X123654761Y-98058571D02*
X121654761Y-97391904D01*
X123654761Y-96725238D01*
X122321428Y-96058571D02*
X123654761Y-96058571D01*
X122511904Y-96058571D02*
X122416666Y-95963333D01*
X122321428Y-95772857D01*
X122321428Y-95487142D01*
X122416666Y-95296666D01*
X122607142Y-95201428D01*
X123654761Y-95201428D01*
X122321428Y-94534761D02*
X122321428Y-93772857D01*
X121654761Y-94249047D02*
X123369047Y-94249047D01*
X123559523Y-94153809D01*
X123654761Y-93963333D01*
X123654761Y-93772857D01*
X123464285Y-90439523D02*
X123559523Y-90534761D01*
X123654761Y-90820476D01*
X123654761Y-91010952D01*
X123559523Y-91296666D01*
X123369047Y-91487142D01*
X123178571Y-91582380D01*
X122797619Y-91677619D01*
X122511904Y-91677619D01*
X122130952Y-91582380D01*
X121940476Y-91487142D01*
X121750000Y-91296666D01*
X121654761Y-91010952D01*
X121654761Y-90820476D01*
X121750000Y-90534761D01*
X121845238Y-90439523D01*
X123559523Y-88820476D02*
X123654761Y-89010952D01*
X123654761Y-89391904D01*
X123559523Y-89582380D01*
X123369047Y-89677619D01*
X122607142Y-89677619D01*
X122416666Y-89582380D01*
X122321428Y-89391904D01*
X122321428Y-89010952D01*
X122416666Y-88820476D01*
X122607142Y-88725238D01*
X122797619Y-88725238D01*
X122988095Y-89677619D01*
X122321428Y-87868095D02*
X123654761Y-87868095D01*
X122511904Y-87868095D02*
X122416666Y-87772857D01*
X122321428Y-87582380D01*
X122321428Y-87296666D01*
X122416666Y-87106190D01*
X122607142Y-87010952D01*
X123654761Y-87010952D01*
X122321428Y-86344285D02*
X122321428Y-85582380D01*
X121654761Y-86058571D02*
X123369047Y-86058571D01*
X123559523Y-85963333D01*
X123654761Y-85772857D01*
X123654761Y-85582380D01*
X123654761Y-84915714D02*
X122321428Y-84915714D01*
X122702380Y-84915714D02*
X122511904Y-84820476D01*
X122416666Y-84725238D01*
X122321428Y-84534761D01*
X122321428Y-84344285D01*
X123654761Y-82820476D02*
X122607142Y-82820476D01*
X122416666Y-82915714D01*
X122321428Y-83106190D01*
X122321428Y-83487142D01*
X122416666Y-83677619D01*
X123559523Y-82820476D02*
X123654761Y-83010952D01*
X123654761Y-83487142D01*
X123559523Y-83677619D01*
X123369047Y-83772857D01*
X123178571Y-83772857D01*
X122988095Y-83677619D01*
X122892857Y-83487142D01*
X122892857Y-83010952D01*
X122797619Y-82820476D01*
X123654761Y-81582380D02*
X123559523Y-81772857D01*
X123369047Y-81868095D01*
X121654761Y-81868095D01*
X123559523Y-79391904D02*
X123654761Y-79201428D01*
X123654761Y-78820476D01*
X123559523Y-78630000D01*
X123369047Y-78534761D01*
X123273809Y-78534761D01*
X123083333Y-78630000D01*
X122988095Y-78820476D01*
X122988095Y-79106190D01*
X122892857Y-79296666D01*
X122702380Y-79391904D01*
X122607142Y-79391904D01*
X122416666Y-79296666D01*
X122321428Y-79106190D01*
X122321428Y-78820476D01*
X122416666Y-78630000D01*
X122321428Y-77963333D02*
X122321428Y-77201428D01*
X121654761Y-77677619D02*
X123369047Y-77677619D01*
X123559523Y-77582380D01*
X123654761Y-77391904D01*
X123654761Y-77201428D01*
X123654761Y-75677619D02*
X122607142Y-75677619D01*
X122416666Y-75772857D01*
X122321428Y-75963333D01*
X122321428Y-76344285D01*
X122416666Y-76534761D01*
X123559523Y-75677619D02*
X123654761Y-75868095D01*
X123654761Y-76344285D01*
X123559523Y-76534761D01*
X123369047Y-76630000D01*
X123178571Y-76630000D01*
X122988095Y-76534761D01*
X122892857Y-76344285D01*
X122892857Y-75868095D01*
X122797619Y-75677619D01*
X122321428Y-75010952D02*
X122321428Y-74249047D01*
X121654761Y-74725238D02*
X123369047Y-74725238D01*
X123559523Y-74630000D01*
X123654761Y-74439523D01*
X123654761Y-74249047D01*
X123654761Y-73582380D02*
X122321428Y-73582380D01*
X121654761Y-73582380D02*
X121750000Y-73677619D01*
X121845238Y-73582380D01*
X121750000Y-73487142D01*
X121654761Y-73582380D01*
X121845238Y-73582380D01*
X123654761Y-72344285D02*
X123559523Y-72534761D01*
X123464285Y-72630000D01*
X123273809Y-72725238D01*
X122702380Y-72725238D01*
X122511904Y-72630000D01*
X122416666Y-72534761D01*
X122321428Y-72344285D01*
X122321428Y-72058571D01*
X122416666Y-71868095D01*
X122511904Y-71772857D01*
X122702380Y-71677619D01*
X123273809Y-71677619D01*
X123464285Y-71772857D01*
X123559523Y-71868095D01*
X123654761Y-72058571D01*
X123654761Y-72344285D01*
X122321428Y-70820476D02*
X123654761Y-70820476D01*
X122511904Y-70820476D02*
X122416666Y-70725238D01*
X122321428Y-70534761D01*
X122321428Y-70249047D01*
X122416666Y-70058571D01*
X122607142Y-69963333D01*
X123654761Y-69963333D01*
D11*
X165390000Y-111681904D02*
X165342380Y-111777142D01*
X165342380Y-111920000D01*
X165390000Y-112062857D01*
X165485238Y-112158095D01*
X165580476Y-112205714D01*
X165770952Y-112253333D01*
X165913809Y-112253333D01*
X166104285Y-112205714D01*
X166199523Y-112158095D01*
X166294761Y-112062857D01*
X166342380Y-111920000D01*
X166342380Y-111824761D01*
X166294761Y-111681904D01*
X166247142Y-111634285D01*
X165913809Y-111634285D01*
X165913809Y-111824761D01*
X166342380Y-111205714D02*
X165342380Y-111205714D01*
X166342380Y-110634285D01*
X165342380Y-110634285D01*
X166342380Y-110158095D02*
X165342380Y-110158095D01*
X165342380Y-109920000D01*
X165390000Y-109777142D01*
X165485238Y-109681904D01*
X165580476Y-109634285D01*
X165770952Y-109586666D01*
X165913809Y-109586666D01*
X166104285Y-109634285D01*
X166199523Y-109681904D01*
X166294761Y-109777142D01*
X166342380Y-109920000D01*
X166342380Y-110158095D01*
X162792380Y-112300952D02*
X162792380Y-111681904D01*
X163173333Y-112015238D01*
X163173333Y-111872381D01*
X163220952Y-111777142D01*
X163268571Y-111729523D01*
X163363809Y-111681904D01*
X163601904Y-111681904D01*
X163697142Y-111729523D01*
X163744761Y-111777142D01*
X163792380Y-111872381D01*
X163792380Y-112158095D01*
X163744761Y-112253333D01*
X163697142Y-112300952D01*
X163697142Y-111253333D02*
X163744761Y-111205714D01*
X163792380Y-111253333D01*
X163744761Y-111300952D01*
X163697142Y-111253333D01*
X163792380Y-111253333D01*
X162792380Y-110872381D02*
X162792380Y-110253333D01*
X163173333Y-110586666D01*
X163173333Y-110443809D01*
X163220952Y-110348571D01*
X163268571Y-110300952D01*
X163363809Y-110253333D01*
X163601904Y-110253333D01*
X163697142Y-110300952D01*
X163744761Y-110348571D01*
X163792380Y-110443809D01*
X163792380Y-110729523D01*
X163744761Y-110824762D01*
X163697142Y-110872381D01*
X162792380Y-109967619D02*
X163792380Y-109634285D01*
X162792380Y-109300952D01*
X159965714Y-112216666D02*
X160441904Y-112216666D01*
X159870476Y-112502380D02*
X160203809Y-111502380D01*
X160537142Y-112502380D01*
X161060952Y-111502380D02*
X161156190Y-111502380D01*
X161251428Y-111550000D01*
X161299047Y-111597619D01*
X161346666Y-111692857D01*
X161394285Y-111883333D01*
X161394285Y-112121428D01*
X161346666Y-112311904D01*
X161299047Y-112407142D01*
X161251428Y-112454761D01*
X161156190Y-112502380D01*
X161060952Y-112502380D01*
X160965714Y-112454761D01*
X160918095Y-112407142D01*
X160870476Y-112311904D01*
X160822857Y-112121428D01*
X160822857Y-111883333D01*
X160870476Y-111692857D01*
X160918095Y-111597619D01*
X160965714Y-111550000D01*
X161060952Y-111502380D01*
X157595714Y-112216666D02*
X158071904Y-112216666D01*
X157500476Y-112502380D02*
X157833809Y-111502380D01*
X158167142Y-112502380D01*
X159024285Y-112502380D02*
X158452857Y-112502380D01*
X158738571Y-112502380D02*
X158738571Y-111502380D01*
X158643333Y-111645238D01*
X158548095Y-111740476D01*
X158452857Y-111788095D01*
X154995714Y-112216666D02*
X155471904Y-112216666D01*
X154900476Y-112502380D02*
X155233809Y-111502380D01*
X155567142Y-112502380D01*
X155852857Y-111597619D02*
X155900476Y-111550000D01*
X155995714Y-111502380D01*
X156233809Y-111502380D01*
X156329047Y-111550000D01*
X156376666Y-111597619D01*
X156424285Y-111692857D01*
X156424285Y-111788095D01*
X156376666Y-111930952D01*
X155805238Y-112502380D01*
X156424285Y-112502380D01*
X152415714Y-112216666D02*
X152891904Y-112216666D01*
X152320476Y-112502380D02*
X152653809Y-111502380D01*
X152987142Y-112502380D01*
X153225238Y-111502380D02*
X153844285Y-111502380D01*
X153510952Y-111883333D01*
X153653809Y-111883333D01*
X153749047Y-111930952D01*
X153796666Y-111978571D01*
X153844285Y-112073809D01*
X153844285Y-112311904D01*
X153796666Y-112407142D01*
X153749047Y-112454761D01*
X153653809Y-112502380D01*
X153368095Y-112502380D01*
X153272857Y-112454761D01*
X153225238Y-112407142D01*
X149835714Y-112216666D02*
X150311904Y-112216666D01*
X149740476Y-112502380D02*
X150073809Y-111502380D01*
X150407142Y-112502380D01*
X151169047Y-111835714D02*
X151169047Y-112502380D01*
X150930952Y-111454761D02*
X150692857Y-112169047D01*
X151311904Y-112169047D01*
X147275714Y-112216666D02*
X147751904Y-112216666D01*
X147180476Y-112502380D02*
X147513809Y-111502380D01*
X147847142Y-112502380D01*
X148656666Y-111502380D02*
X148180476Y-111502380D01*
X148132857Y-111978571D01*
X148180476Y-111930952D01*
X148275714Y-111883333D01*
X148513809Y-111883333D01*
X148609047Y-111930952D01*
X148656666Y-111978571D01*
X148704285Y-112073809D01*
X148704285Y-112311904D01*
X148656666Y-112407142D01*
X148609047Y-112454761D01*
X148513809Y-112502380D01*
X148275714Y-112502380D01*
X148180476Y-112454761D01*
X148132857Y-112407142D01*
X145144285Y-111597619D02*
X145191904Y-111550000D01*
X145287142Y-111502380D01*
X145525238Y-111502380D01*
X145620476Y-111550000D01*
X145668095Y-111597619D01*
X145715714Y-111692857D01*
X145715714Y-111788095D01*
X145668095Y-111930952D01*
X145096666Y-112502380D01*
X145715714Y-112502380D01*
X143238095Y-111502380D02*
X142761904Y-111502380D01*
X142714285Y-111978571D01*
X142761904Y-111930952D01*
X142857142Y-111883333D01*
X143095238Y-111883333D01*
X143190476Y-111930952D01*
X143238095Y-111978571D01*
X143285714Y-112073809D01*
X143285714Y-112311904D01*
X143238095Y-112407142D01*
X143190476Y-112454761D01*
X143095238Y-112502380D01*
X142857142Y-112502380D01*
X142761904Y-112454761D01*
X142714285Y-112407142D01*
X140640476Y-111502380D02*
X140450000Y-111502380D01*
X140354761Y-111550000D01*
X140307142Y-111597619D01*
X140211904Y-111740476D01*
X140164285Y-111930952D01*
X140164285Y-112311904D01*
X140211904Y-112407142D01*
X140259523Y-112454761D01*
X140354761Y-112502380D01*
X140545238Y-112502380D01*
X140640476Y-112454761D01*
X140688095Y-112407142D01*
X140735714Y-112311904D01*
X140735714Y-112073809D01*
X140688095Y-111978571D01*
X140640476Y-111930952D01*
X140545238Y-111883333D01*
X140354761Y-111883333D01*
X140259523Y-111930952D01*
X140211904Y-111978571D01*
X140164285Y-112073809D01*
X137789523Y-112502380D02*
X137980000Y-112502380D01*
X138075238Y-112454761D01*
X138122857Y-112407142D01*
X138218095Y-112264285D01*
X138265714Y-112073809D01*
X138265714Y-111692857D01*
X138218095Y-111597619D01*
X138170476Y-111550000D01*
X138075238Y-111502380D01*
X137884761Y-111502380D01*
X137789523Y-111550000D01*
X137741904Y-111597619D01*
X137694285Y-111692857D01*
X137694285Y-111930952D01*
X137741904Y-112026190D01*
X137789523Y-112073809D01*
X137884761Y-112121428D01*
X138075238Y-112121428D01*
X138170476Y-112073809D01*
X138218095Y-112026190D01*
X138265714Y-111930952D01*
X135179523Y-112502380D02*
X134608095Y-112502380D01*
X134893809Y-112502380D02*
X134893809Y-111502380D01*
X134798571Y-111645238D01*
X134703333Y-111740476D01*
X134608095Y-111788095D01*
X135798571Y-111502380D02*
X135893809Y-111502380D01*
X135989047Y-111550000D01*
X136036666Y-111597619D01*
X136084285Y-111692857D01*
X136131904Y-111883333D01*
X136131904Y-112121428D01*
X136084285Y-112311904D01*
X136036666Y-112407142D01*
X135989047Y-112454761D01*
X135893809Y-112502380D01*
X135798571Y-112502380D01*
X135703333Y-112454761D01*
X135655714Y-112407142D01*
X135608095Y-112311904D01*
X135560476Y-112121428D01*
X135560476Y-111883333D01*
X135608095Y-111692857D01*
X135655714Y-111597619D01*
X135703333Y-111550000D01*
X135798571Y-111502380D01*
X132589523Y-112502380D02*
X132018095Y-112502380D01*
X132303809Y-112502380D02*
X132303809Y-111502380D01*
X132208571Y-111645238D01*
X132113333Y-111740476D01*
X132018095Y-111788095D01*
X133541904Y-112502380D02*
X132970476Y-112502380D01*
X133256190Y-112502380D02*
X133256190Y-111502380D01*
X133160952Y-111645238D01*
X133065714Y-111740476D01*
X132970476Y-111788095D01*
X130069523Y-112502380D02*
X129498095Y-112502380D01*
X129783809Y-112502380D02*
X129783809Y-111502380D01*
X129688571Y-111645238D01*
X129593333Y-111740476D01*
X129498095Y-111788095D01*
X130450476Y-111597619D02*
X130498095Y-111550000D01*
X130593333Y-111502380D01*
X130831428Y-111502380D01*
X130926666Y-111550000D01*
X130974285Y-111597619D01*
X131021904Y-111692857D01*
X131021904Y-111788095D01*
X130974285Y-111930952D01*
X130402857Y-112502380D01*
X131021904Y-112502380D01*
X127499523Y-112502380D02*
X126928095Y-112502380D01*
X127213809Y-112502380D02*
X127213809Y-111502380D01*
X127118571Y-111645238D01*
X127023333Y-111740476D01*
X126928095Y-111788095D01*
X127832857Y-111502380D02*
X128451904Y-111502380D01*
X128118571Y-111883333D01*
X128261428Y-111883333D01*
X128356666Y-111930952D01*
X128404285Y-111978571D01*
X128451904Y-112073809D01*
X128451904Y-112311904D01*
X128404285Y-112407142D01*
X128356666Y-112454761D01*
X128261428Y-112502380D01*
X127975714Y-112502380D01*
X127880476Y-112454761D01*
X127832857Y-112407142D01*
D12*
%TO.C,U1*%
G36*
X154055000Y-74754999D02*
G01*
X140055000Y-74754999D01*
X140055000Y-55754999D01*
X154055000Y-55754999D01*
X154055000Y-74754999D01*
G37*
X154055000Y-74754999D02*
X140055000Y-74754999D01*
X140055000Y-55754999D01*
X154055000Y-55754999D01*
X154055000Y-74754999D01*
D13*
X135055000Y-106754999D02*
X135055000Y-55754999D01*
X159055000Y-106754999D02*
X135055000Y-106754999D01*
X159055000Y-55754999D02*
X159055000Y-106754999D01*
X135055000Y-55754999D02*
X159055000Y-55754999D01*
%TO.C,J3*%
X167110000Y-113520000D02*
X167110000Y-114790000D01*
X165840000Y-113520000D02*
X167110000Y-113520000D01*
X127360000Y-115832929D02*
X127360000Y-116230000D01*
X128120000Y-115832929D02*
X128120000Y-116230000D01*
X127360000Y-124890000D02*
X127360000Y-118890000D01*
X128120000Y-124890000D02*
X127360000Y-124890000D01*
X128120000Y-118890000D02*
X128120000Y-124890000D01*
X129010000Y-116230000D02*
X129010000Y-118890000D01*
X129900000Y-115832929D02*
X129900000Y-116230000D01*
X130660000Y-115832929D02*
X130660000Y-116230000D01*
X129900000Y-124890000D02*
X129900000Y-118890000D01*
X130660000Y-124890000D02*
X129900000Y-124890000D01*
X130660000Y-118890000D02*
X130660000Y-124890000D01*
X131550000Y-116230000D02*
X131550000Y-118890000D01*
X132440000Y-115832929D02*
X132440000Y-116230000D01*
X133200000Y-115832929D02*
X133200000Y-116230000D01*
X132440000Y-124890000D02*
X132440000Y-118890000D01*
X133200000Y-124890000D02*
X132440000Y-124890000D01*
X133200000Y-118890000D02*
X133200000Y-124890000D01*
X134090000Y-116230000D02*
X134090000Y-118890000D01*
X134980000Y-115832929D02*
X134980000Y-116230000D01*
X135740000Y-115832929D02*
X135740000Y-116230000D01*
X134980000Y-124890000D02*
X134980000Y-118890000D01*
X135740000Y-124890000D02*
X134980000Y-124890000D01*
X135740000Y-118890000D02*
X135740000Y-124890000D01*
X136630000Y-116230000D02*
X136630000Y-118890000D01*
X137520000Y-115832929D02*
X137520000Y-116230000D01*
X138280000Y-115832929D02*
X138280000Y-116230000D01*
X137520000Y-124890000D02*
X137520000Y-118890000D01*
X138280000Y-124890000D02*
X137520000Y-124890000D01*
X138280000Y-118890000D02*
X138280000Y-124890000D01*
X139170000Y-116230000D02*
X139170000Y-118890000D01*
X140060000Y-115832929D02*
X140060000Y-116230000D01*
X140820000Y-115832929D02*
X140820000Y-116230000D01*
X140060000Y-124890000D02*
X140060000Y-118890000D01*
X140820000Y-124890000D02*
X140060000Y-124890000D01*
X140820000Y-118890000D02*
X140820000Y-124890000D01*
X141710000Y-116230000D02*
X141710000Y-118890000D01*
X142600000Y-115832929D02*
X142600000Y-116230000D01*
X143360000Y-115832929D02*
X143360000Y-116230000D01*
X142600000Y-124890000D02*
X142600000Y-118890000D01*
X143360000Y-124890000D02*
X142600000Y-124890000D01*
X143360000Y-118890000D02*
X143360000Y-124890000D01*
X144250000Y-116230000D02*
X144250000Y-118890000D01*
X145140000Y-115832929D02*
X145140000Y-116230000D01*
X145900000Y-115832929D02*
X145900000Y-116230000D01*
X145140000Y-124890000D02*
X145140000Y-118890000D01*
X145900000Y-124890000D02*
X145140000Y-124890000D01*
X145900000Y-118890000D02*
X145900000Y-124890000D01*
X146790000Y-116230000D02*
X146790000Y-118890000D01*
X147680000Y-115832929D02*
X147680000Y-116230000D01*
X148440000Y-115832929D02*
X148440000Y-116230000D01*
X147680000Y-124890000D02*
X147680000Y-118890000D01*
X148440000Y-124890000D02*
X147680000Y-124890000D01*
X148440000Y-118890000D02*
X148440000Y-124890000D01*
X149330000Y-116230000D02*
X149330000Y-118890000D01*
X150220000Y-115832929D02*
X150220000Y-116230000D01*
X150980000Y-115832929D02*
X150980000Y-116230000D01*
X150220000Y-124890000D02*
X150220000Y-118890000D01*
X150980000Y-124890000D02*
X150220000Y-124890000D01*
X150980000Y-118890000D02*
X150980000Y-124890000D01*
X151870000Y-116230000D02*
X151870000Y-118890000D01*
X152760000Y-115832929D02*
X152760000Y-116230000D01*
X153520000Y-115832929D02*
X153520000Y-116230000D01*
X152760000Y-124890000D02*
X152760000Y-118890000D01*
X153520000Y-124890000D02*
X152760000Y-124890000D01*
X153520000Y-118890000D02*
X153520000Y-124890000D01*
X154410000Y-116230000D02*
X154410000Y-118890000D01*
X155300000Y-115832929D02*
X155300000Y-116230000D01*
X156060000Y-115832929D02*
X156060000Y-116230000D01*
X155300000Y-124890000D02*
X155300000Y-118890000D01*
X156060000Y-124890000D02*
X155300000Y-124890000D01*
X156060000Y-118890000D02*
X156060000Y-124890000D01*
X156950000Y-116230000D02*
X156950000Y-118890000D01*
X157840000Y-115832929D02*
X157840000Y-116230000D01*
X158600000Y-115832929D02*
X158600000Y-116230000D01*
X157840000Y-124890000D02*
X157840000Y-118890000D01*
X158600000Y-124890000D02*
X157840000Y-124890000D01*
X158600000Y-118890000D02*
X158600000Y-124890000D01*
X159490000Y-116230000D02*
X159490000Y-118890000D01*
X160380000Y-115832929D02*
X160380000Y-116230000D01*
X161140000Y-115832929D02*
X161140000Y-116230000D01*
X160380000Y-124890000D02*
X160380000Y-118890000D01*
X161140000Y-124890000D02*
X160380000Y-124890000D01*
X161140000Y-118890000D02*
X161140000Y-124890000D01*
X162030000Y-116230000D02*
X162030000Y-118890000D01*
X162920000Y-115832929D02*
X162920000Y-116230000D01*
X163680000Y-115832929D02*
X163680000Y-116230000D01*
X162920000Y-124890000D02*
X162920000Y-118890000D01*
X163680000Y-124890000D02*
X162920000Y-124890000D01*
X163680000Y-118890000D02*
X163680000Y-124890000D01*
X164570000Y-116230000D02*
X164570000Y-118890000D01*
X165460000Y-115900000D02*
X165460000Y-116230000D01*
X166220000Y-115900000D02*
X166220000Y-116230000D01*
X165560000Y-118890000D02*
X165560000Y-124890000D01*
X165680000Y-118890000D02*
X165680000Y-124890000D01*
X165800000Y-118890000D02*
X165800000Y-124890000D01*
X165920000Y-118890000D02*
X165920000Y-124890000D01*
X166040000Y-118890000D02*
X166040000Y-124890000D01*
X166160000Y-118890000D02*
X166160000Y-124890000D01*
X165460000Y-124890000D02*
X165460000Y-118890000D01*
X166220000Y-124890000D02*
X165460000Y-124890000D01*
X166220000Y-118890000D02*
X166220000Y-124890000D01*
X167170000Y-118890000D02*
X167170000Y-116230000D01*
X126410000Y-118890000D02*
X167170000Y-118890000D01*
X126410000Y-116230000D02*
X126410000Y-118890000D01*
X167170000Y-116230000D02*
X126410000Y-116230000D01*
%TO.C,J2*%
X166970000Y-98270000D02*
X165640000Y-98270000D01*
X166970000Y-96940000D02*
X166970000Y-98270000D01*
X166970000Y-95670000D02*
X164310000Y-95670000D01*
X164310000Y-95670000D02*
X164310000Y-57510000D01*
X166970000Y-95670000D02*
X166970000Y-57510000D01*
X166970000Y-57510000D02*
X164310000Y-57510000D01*
%TO.C,J1*%
X126690000Y-57510000D02*
X128020000Y-57510000D01*
X126690000Y-58840000D02*
X126690000Y-57510000D01*
X126690000Y-60110000D02*
X129350000Y-60110000D01*
X129350000Y-60110000D02*
X129350000Y-88110000D01*
X126690000Y-60110000D02*
X126690000Y-88110000D01*
X126690000Y-88110000D02*
X129350000Y-88110000D01*
%TD*%
M02*
