%TF.GenerationSoftware,KiCad,Pcbnew,(5.1.8)-1*%
%TF.CreationDate,2021-11-07T11:05:33-05:00*%
%TF.ProjectId,controller,636f6e74-726f-46c6-9c65-722e6b696361,rev?*%
%TF.SameCoordinates,Original*%
%TF.FileFunction,Copper,L2,Bot*%
%TF.FilePolarity,Positive*%
%FSLAX46Y46*%
G04 Gerber Fmt 4.6, Leading zero omitted, Abs format (unit mm)*
G04 Created by KiCad (PCBNEW (5.1.8)-1) date 2021-11-07 11:05:33*
%MOMM*%
%LPD*%
G01*
G04 APERTURE LIST*
%TA.AperFunction,ComponentPad*%
%ADD10C,1.800000*%
%TD*%
%TA.AperFunction,ComponentPad*%
%ADD11O,1.700000X1.700000*%
%TD*%
%TA.AperFunction,ComponentPad*%
%ADD12R,1.700000X1.700000*%
%TD*%
G04 APERTURE END LIST*
D10*
%TO.P,U1,28*%
%TO.N,/D2*%
X157215000Y-58834999D03*
%TO.P,U1,27*%
%TO.N,/TX*%
X157215000Y-61374999D03*
%TO.P,U1,26*%
%TO.N,/RX*%
X157215000Y-63914999D03*
%TO.P,U1,25*%
%TO.N,/MI*%
X157215000Y-66454999D03*
%TO.P,U1,24*%
%TO.N,/MO*%
X157215000Y-68994999D03*
%TO.P,U1,23*%
%TO.N,/SCK*%
X157215000Y-71534999D03*
%TO.P,U1,22*%
%TO.N,/A5*%
X157215000Y-74074999D03*
%TO.P,U1,21*%
%TO.N,/A4*%
X157215000Y-76614999D03*
%TO.P,U1,20*%
%TO.N,/A3*%
X157215000Y-79154999D03*
%TO.P,U1,19*%
%TO.N,/A2*%
X157215000Y-81694999D03*
%TO.P,U1,18*%
%TO.N,/A1*%
X157215000Y-84234999D03*
%TO.P,U1,17*%
%TO.N,/A0*%
X157215000Y-86774999D03*
%TO.P,U1,16*%
%TO.N,/GND*%
X157215000Y-89314999D03*
%TO.P,U1,15*%
%TO.N,/Aref*%
X157215000Y-91854999D03*
%TO.P,U1,14*%
%TO.N,/3V*%
X157215000Y-94394999D03*
%TO.P,U1,13*%
%TO.N,/Rst*%
X157215000Y-96934999D03*
%TO.P,U1,12*%
%TO.N,/Bat*%
X136895000Y-86774999D03*
%TO.P,U1,11*%
%TO.N,/En*%
X136895000Y-84234999D03*
%TO.P,U1,10*%
%TO.N,/USB*%
X136895000Y-81694999D03*
%TO.P,U1,9*%
%TO.N,/D13*%
X136895000Y-79154999D03*
%TO.P,U1,8*%
%TO.N,/D12*%
X136895000Y-76614999D03*
%TO.P,U1,7*%
%TO.N,/D11*%
X136895000Y-74074999D03*
%TO.P,U1,6*%
%TO.N,/D10*%
X136895000Y-71534999D03*
%TO.P,U1,5*%
%TO.N,/D9*%
X136895000Y-68994999D03*
%TO.P,U1,4*%
%TO.N,/D6*%
X136895000Y-66454999D03*
%TO.P,U1,3*%
%TO.N,/D5*%
X136895000Y-63914999D03*
%TO.P,U1,2*%
%TO.N,/SCL*%
X136895000Y-61374999D03*
%TO.P,U1,1*%
%TO.N,/SDA*%
X136895000Y-58834999D03*
%TD*%
D11*
%TO.P,J3,16*%
%TO.N,/D13*%
X127740000Y-114790000D03*
%TO.P,J3,15*%
%TO.N,/D12*%
X130280000Y-114790000D03*
%TO.P,J3,14*%
%TO.N,/D11*%
X132820000Y-114790000D03*
%TO.P,J3,13*%
%TO.N,/D10*%
X135360000Y-114790000D03*
%TO.P,J3,12*%
%TO.N,/D9*%
X137900000Y-114790000D03*
%TO.P,J3,11*%
%TO.N,/D6*%
X140440000Y-114790000D03*
%TO.P,J3,10*%
%TO.N,/D5*%
X142980000Y-114790000D03*
%TO.P,J3,9*%
%TO.N,/D2*%
X145520000Y-114790000D03*
%TO.P,J3,8*%
%TO.N,/A5*%
X148060000Y-114790000D03*
%TO.P,J3,7*%
%TO.N,/A4*%
X150600000Y-114790000D03*
%TO.P,J3,6*%
%TO.N,/A3*%
X153140000Y-114790000D03*
%TO.P,J3,5*%
%TO.N,/A2*%
X155680000Y-114790000D03*
%TO.P,J3,4*%
%TO.N,/A1*%
X158220000Y-114790000D03*
%TO.P,J3,3*%
%TO.N,/A0*%
X160760000Y-114790000D03*
%TO.P,J3,2*%
%TO.N,/3V*%
X163300000Y-114790000D03*
D12*
%TO.P,J3,1*%
%TO.N,/GND*%
X165840000Y-114790000D03*
%TD*%
D11*
%TO.P,J2,16*%
%TO.N,/D2*%
X165640000Y-58840000D03*
%TO.P,J2,15*%
%TO.N,/TX*%
X165640000Y-61380000D03*
%TO.P,J2,14*%
%TO.N,/RX*%
X165640000Y-63920000D03*
%TO.P,J2,13*%
%TO.N,/MI*%
X165640000Y-66460000D03*
%TO.P,J2,12*%
%TO.N,/MO*%
X165640000Y-69000000D03*
%TO.P,J2,11*%
%TO.N,/SCK*%
X165640000Y-71540000D03*
%TO.P,J2,10*%
%TO.N,/A5*%
X165640000Y-74080000D03*
%TO.P,J2,9*%
%TO.N,/A4*%
X165640000Y-76620000D03*
%TO.P,J2,8*%
%TO.N,/A3*%
X165640000Y-79160000D03*
%TO.P,J2,7*%
%TO.N,/A2*%
X165640000Y-81700000D03*
%TO.P,J2,6*%
%TO.N,/A1*%
X165640000Y-84240000D03*
%TO.P,J2,5*%
%TO.N,/A0*%
X165640000Y-86780000D03*
%TO.P,J2,4*%
%TO.N,/GND*%
X165640000Y-89320000D03*
%TO.P,J2,3*%
%TO.N,/Aref*%
X165640000Y-91860000D03*
%TO.P,J2,2*%
%TO.N,/3V*%
X165640000Y-94400000D03*
D12*
%TO.P,J2,1*%
%TO.N,/Rst*%
X165640000Y-96940000D03*
%TD*%
D11*
%TO.P,J1,12*%
%TO.N,/Bat*%
X128020000Y-86780000D03*
%TO.P,J1,11*%
%TO.N,/En*%
X128020000Y-84240000D03*
%TO.P,J1,10*%
%TO.N,/USB*%
X128020000Y-81700000D03*
%TO.P,J1,9*%
%TO.N,/D13*%
X128020000Y-79160000D03*
%TO.P,J1,8*%
%TO.N,/D12*%
X128020000Y-76620000D03*
%TO.P,J1,7*%
%TO.N,/D11*%
X128020000Y-74080000D03*
%TO.P,J1,6*%
%TO.N,/D10*%
X128020000Y-71540000D03*
%TO.P,J1,5*%
%TO.N,/D9*%
X128020000Y-69000000D03*
%TO.P,J1,4*%
%TO.N,/D6*%
X128020000Y-66460000D03*
%TO.P,J1,3*%
%TO.N,/D5*%
X128020000Y-63920000D03*
%TO.P,J1,2*%
%TO.N,/SCL*%
X128020000Y-61380000D03*
D12*
%TO.P,J1,1*%
%TO.N,/SDA*%
X128020000Y-58840000D03*
%TD*%
M02*
