M48
; DRILL file {KiCad (5.1.8)-1} date 11/07/21 11:05:35
; FORMAT={-:-/ absolute / inch / decimal}
; #@! TF.CreationDate,2021-11-07T11:05:35-05:00
; #@! TF.GenerationSoftware,Kicad,Pcbnew,(5.1.8)-1
; #@! TF.FileFunction,Plated,1,2,PTH
FMAT,2
INCH
T1C0.0394
%
G90
G05
T1
X5.3896Y-2.3163
X5.3896Y-2.4163
X5.3896Y-2.5163
X5.3896Y-2.6163
X5.3896Y-2.7163
X5.3896Y-2.8163
X5.3896Y-2.9163
X5.3896Y-3.0163
X5.3896Y-3.1163
X5.3896Y-3.2163
X5.3896Y-3.3163
X5.3896Y-3.4163
X6.1896Y-2.3163
X6.1896Y-2.4163
X6.1896Y-2.5163
X6.1896Y-2.6163
X6.1896Y-2.7163
X6.1896Y-2.8163
X6.1896Y-2.9163
X6.1896Y-3.0163
X6.1896Y-3.1163
X6.1896Y-3.2163
X6.1896Y-3.3163
X6.1896Y-3.4163
X6.1896Y-3.5163
X6.1896Y-3.6163
X6.1896Y-3.7163
X6.1896Y-3.8163
X6.5213Y-2.3165
X6.5213Y-2.4165
X6.5213Y-2.5165
X6.5213Y-2.6165
X6.5213Y-2.7165
X6.5213Y-2.8165
X6.5213Y-2.9165
X6.5213Y-3.0165
X6.5213Y-3.1165
X6.5213Y-3.2165
X6.5213Y-3.3165
X6.5213Y-3.4165
X6.5213Y-3.5165
X6.5213Y-3.6165
X6.5213Y-3.7165
X6.5213Y-3.8165
X5.0291Y-4.5193
X5.1291Y-4.5193
X5.2291Y-4.5193
X5.3291Y-4.5193
X5.4291Y-4.5193
X5.5291Y-4.5193
X5.6291Y-4.5193
X5.7291Y-4.5193
X5.8291Y-4.5193
X5.9291Y-4.5193
X6.0291Y-4.5193
X6.1291Y-4.5193
X6.2291Y-4.5193
X6.3291Y-4.5193
X6.4291Y-4.5193
X6.5291Y-4.5193
X5.0402Y-2.3165
X5.0402Y-2.4165
X5.0402Y-2.5165
X5.0402Y-2.6165
X5.0402Y-2.7165
X5.0402Y-2.8165
X5.0402Y-2.9165
X5.0402Y-3.0165
X5.0402Y-3.1165
X5.0402Y-3.2165
X5.0402Y-3.3165
X5.0402Y-3.4165
T0
M30
