%TF.GenerationSoftware,KiCad,Pcbnew,(5.1.8)-1*%
%TF.CreationDate,2021-11-11T19:50:17-05:00*%
%TF.ProjectId,CO2_sensor,434f325f-7365-46e7-936f-722e6b696361,rev?*%
%TF.SameCoordinates,Original*%
%TF.FileFunction,Copper,L2,Bot*%
%TF.FilePolarity,Positive*%
%FSLAX46Y46*%
G04 Gerber Fmt 4.6, Leading zero omitted, Abs format (unit mm)*
G04 Created by KiCad (PCBNEW (5.1.8)-1) date 2021-11-11 19:50:17*
%MOMM*%
%LPD*%
G01*
G04 APERTURE LIST*
%TA.AperFunction,SMDPad,CuDef*%
%ADD10R,0.760000X2.400000*%
%TD*%
%TA.AperFunction,ViaPad*%
%ADD11C,0.558800*%
%TD*%
%TA.AperFunction,ViaPad*%
%ADD12C,0.635000*%
%TD*%
%TA.AperFunction,Conductor*%
%ADD13C,0.508000*%
%TD*%
%TA.AperFunction,Conductor*%
%ADD14C,0.152400*%
%TD*%
%TA.AperFunction,Conductor*%
%ADD15C,0.100000*%
%TD*%
G04 APERTURE END LIST*
D10*
%TO.P,J2,10*%
%TO.N,N/C*%
X153540000Y-104200000D03*
%TO.P,J2,9*%
%TO.N,GND*%
X153540000Y-100300000D03*
%TO.P,J2,8*%
%TO.N,N/C*%
X152270000Y-104200000D03*
%TO.P,J2,7*%
X152270000Y-100300000D03*
%TO.P,J2,6*%
X151000000Y-104200000D03*
%TO.P,J2,5*%
X151000000Y-100300000D03*
%TO.P,J2,4*%
%TO.N,/SDA*%
X149730000Y-104200000D03*
%TO.P,J2,3*%
%TO.N,N/C*%
X149730000Y-100300000D03*
%TO.P,J2,2*%
%TO.N,/SCL*%
X148460000Y-104200000D03*
%TO.P,J2,1*%
%TO.N,+3V3*%
X148460000Y-100300000D03*
%TD*%
%TO.P,J1,10*%
%TO.N,N/C*%
X153540000Y-91900000D03*
%TO.P,J1,9*%
X153540000Y-88000000D03*
%TO.P,J1,8*%
X152270000Y-91900000D03*
%TO.P,J1,7*%
X152270000Y-88000000D03*
%TO.P,J1,6*%
X151000000Y-91900000D03*
%TO.P,J1,5*%
X151000000Y-88000000D03*
%TO.P,J1,4*%
X149730000Y-91900000D03*
%TO.P,J1,3*%
X149730000Y-88000000D03*
%TO.P,J1,2*%
X148460000Y-91900000D03*
%TO.P,J1,1*%
X148460000Y-88000000D03*
%TD*%
D11*
%TO.N,GND*%
X149310000Y-97400000D03*
X151035000Y-97400000D03*
X152760000Y-97400000D03*
X152760000Y-95695000D03*
X151035000Y-95695000D03*
X149310000Y-95695000D03*
X152760000Y-93990000D03*
X151035000Y-93990000D03*
X149310000Y-93990000D03*
X142360000Y-87520000D03*
X142390000Y-91440000D03*
X142410000Y-95580000D03*
X146120000Y-90780000D03*
X159800000Y-87310000D03*
X159870000Y-94970000D03*
X156870000Y-95040000D03*
X160350000Y-100640000D03*
X155350000Y-99920000D03*
X146470000Y-105150000D03*
X155640000Y-105300000D03*
X141730000Y-100660000D03*
X146180000Y-100440000D03*
D12*
%TO.N,+3V3*%
X145270000Y-97690000D03*
D11*
%TO.N,/SDA*%
X153480000Y-102147500D03*
%TO.N,/SCL*%
X151940000Y-102147500D03*
%TD*%
D13*
%TO.N,+3V3*%
X145270000Y-97690000D02*
X147650000Y-97690000D01*
X148460000Y-98500000D02*
X148460000Y-100300000D01*
X147650000Y-97690000D02*
X148460000Y-98500000D01*
D14*
%TO.N,/SDA*%
X149730000Y-104200000D02*
X149730000Y-102770000D01*
X149730000Y-102770000D02*
X150047690Y-102452310D01*
X151492968Y-102452310D02*
X151696159Y-102655501D01*
X150047690Y-102452310D02*
X151492968Y-102452310D01*
X152971999Y-102655501D02*
X153480000Y-102147500D01*
X151696159Y-102655501D02*
X152971999Y-102655501D01*
%TO.N,/SCL*%
X148460000Y-104200000D02*
X148460000Y-102640000D01*
X148952500Y-102147500D02*
X151940000Y-102147500D01*
X148460000Y-102640000D02*
X148952500Y-102147500D01*
%TD*%
%TO.N,GND*%
X160746400Y-100894955D02*
X155894956Y-105746400D01*
X146105045Y-105746400D01*
X143358645Y-103000000D01*
X147850294Y-103000000D01*
X147850294Y-105400000D01*
X147854708Y-105444813D01*
X147867779Y-105487905D01*
X147889006Y-105527618D01*
X147917573Y-105562427D01*
X147952382Y-105590994D01*
X147992095Y-105612221D01*
X148035187Y-105625292D01*
X148080000Y-105629706D01*
X148840000Y-105629706D01*
X148884813Y-105625292D01*
X148927905Y-105612221D01*
X148967618Y-105590994D01*
X149002427Y-105562427D01*
X149030994Y-105527618D01*
X149052221Y-105487905D01*
X149065292Y-105444813D01*
X149069706Y-105400000D01*
X149069706Y-103000000D01*
X149065292Y-102955187D01*
X149052221Y-102912095D01*
X149030994Y-102872382D01*
X149002427Y-102837573D01*
X148967618Y-102809006D01*
X148927905Y-102787779D01*
X148884813Y-102774708D01*
X148840000Y-102770294D01*
X148764800Y-102770294D01*
X148764800Y-102766251D01*
X149078752Y-102452300D01*
X149616648Y-102452300D01*
X149525056Y-102543893D01*
X149513433Y-102553432D01*
X149503893Y-102565056D01*
X149503892Y-102565057D01*
X149500233Y-102569516D01*
X149475343Y-102599843D01*
X149463251Y-102622466D01*
X149447040Y-102652795D01*
X149429611Y-102710249D01*
X149423727Y-102770000D01*
X149423756Y-102770294D01*
X149350000Y-102770294D01*
X149305187Y-102774708D01*
X149262095Y-102787779D01*
X149222382Y-102809006D01*
X149187573Y-102837573D01*
X149159006Y-102872382D01*
X149137779Y-102912095D01*
X149124708Y-102955187D01*
X149120294Y-103000000D01*
X149120294Y-105400000D01*
X149124708Y-105444813D01*
X149137779Y-105487905D01*
X149159006Y-105527618D01*
X149187573Y-105562427D01*
X149222382Y-105590994D01*
X149262095Y-105612221D01*
X149305187Y-105625292D01*
X149350000Y-105629706D01*
X150110000Y-105629706D01*
X150154813Y-105625292D01*
X150197905Y-105612221D01*
X150237618Y-105590994D01*
X150272427Y-105562427D01*
X150300994Y-105527618D01*
X150322221Y-105487905D01*
X150335292Y-105444813D01*
X150339706Y-105400000D01*
X150339706Y-103000000D01*
X150335292Y-102955187D01*
X150322221Y-102912095D01*
X150300994Y-102872382D01*
X150272427Y-102837573D01*
X150237618Y-102809006D01*
X150197905Y-102787779D01*
X150155988Y-102775064D01*
X150173942Y-102757110D01*
X151366717Y-102757110D01*
X151379901Y-102770294D01*
X150620000Y-102770294D01*
X150575187Y-102774708D01*
X150532095Y-102787779D01*
X150492382Y-102809006D01*
X150457573Y-102837573D01*
X150429006Y-102872382D01*
X150407779Y-102912095D01*
X150394708Y-102955187D01*
X150390294Y-103000000D01*
X150390294Y-105400000D01*
X150394708Y-105444813D01*
X150407779Y-105487905D01*
X150429006Y-105527618D01*
X150457573Y-105562427D01*
X150492382Y-105590994D01*
X150532095Y-105612221D01*
X150575187Y-105625292D01*
X150620000Y-105629706D01*
X151380000Y-105629706D01*
X151424813Y-105625292D01*
X151467905Y-105612221D01*
X151507618Y-105590994D01*
X151542427Y-105562427D01*
X151570994Y-105527618D01*
X151592221Y-105487905D01*
X151605292Y-105444813D01*
X151609706Y-105400000D01*
X151609706Y-103000000D01*
X151605292Y-102955187D01*
X151602374Y-102945566D01*
X151618978Y-102950603D01*
X151636407Y-102955890D01*
X151642048Y-102956446D01*
X151664368Y-102958644D01*
X151660294Y-103000000D01*
X151660294Y-105400000D01*
X151664708Y-105444813D01*
X151677779Y-105487905D01*
X151699006Y-105527618D01*
X151727573Y-105562427D01*
X151762382Y-105590994D01*
X151802095Y-105612221D01*
X151845187Y-105625292D01*
X151890000Y-105629706D01*
X152650000Y-105629706D01*
X152694813Y-105625292D01*
X152737905Y-105612221D01*
X152777618Y-105590994D01*
X152812427Y-105562427D01*
X152840994Y-105527618D01*
X152862221Y-105487905D01*
X152875292Y-105444813D01*
X152879706Y-105400000D01*
X152879706Y-103000000D01*
X152875796Y-102960301D01*
X152934204Y-102960301D01*
X152930294Y-103000000D01*
X152930294Y-105400000D01*
X152934708Y-105444813D01*
X152947779Y-105487905D01*
X152969006Y-105527618D01*
X152997573Y-105562427D01*
X153032382Y-105590994D01*
X153072095Y-105612221D01*
X153115187Y-105625292D01*
X153160000Y-105629706D01*
X153920000Y-105629706D01*
X153964813Y-105625292D01*
X154007905Y-105612221D01*
X154047618Y-105590994D01*
X154082427Y-105562427D01*
X154110994Y-105527618D01*
X154132221Y-105487905D01*
X154145292Y-105444813D01*
X154149706Y-105400000D01*
X154149706Y-103000000D01*
X154145292Y-102955187D01*
X154132221Y-102912095D01*
X154110994Y-102872382D01*
X154082427Y-102837573D01*
X154047618Y-102809006D01*
X154007905Y-102787779D01*
X153964813Y-102774708D01*
X153920000Y-102770294D01*
X153288257Y-102770294D01*
X153407517Y-102651035D01*
X153429966Y-102655500D01*
X153530034Y-102655500D01*
X153628178Y-102635978D01*
X153720628Y-102597684D01*
X153803831Y-102542089D01*
X153874589Y-102471331D01*
X153930184Y-102388128D01*
X153968478Y-102295678D01*
X153988000Y-102197534D01*
X153988000Y-102097466D01*
X153968478Y-101999322D01*
X153930184Y-101906872D01*
X153874589Y-101823669D01*
X153803831Y-101752911D01*
X153768179Y-101729089D01*
X153920000Y-101729706D01*
X153964813Y-101725292D01*
X154007905Y-101712221D01*
X154047618Y-101690994D01*
X154082427Y-101662427D01*
X154110994Y-101627618D01*
X154132221Y-101587905D01*
X154145292Y-101544813D01*
X154149706Y-101500000D01*
X154148600Y-100407950D01*
X154091450Y-100350800D01*
X153590800Y-100350800D01*
X153590800Y-100370800D01*
X153489200Y-100370800D01*
X153489200Y-100350800D01*
X152988550Y-100350800D01*
X152931400Y-100407950D01*
X152930294Y-101500000D01*
X152934708Y-101544813D01*
X152947779Y-101587905D01*
X152969006Y-101627618D01*
X152997573Y-101662427D01*
X153032382Y-101690994D01*
X153072095Y-101712221D01*
X153115187Y-101725292D01*
X153160000Y-101729706D01*
X153191087Y-101729580D01*
X153156169Y-101752911D01*
X153085411Y-101823669D01*
X153029816Y-101906872D01*
X152991522Y-101999322D01*
X152972000Y-102097466D01*
X152972000Y-102197534D01*
X152976465Y-102219983D01*
X152845748Y-102350701D01*
X152405687Y-102350701D01*
X152428478Y-102295678D01*
X152448000Y-102197534D01*
X152448000Y-102097466D01*
X152428478Y-101999322D01*
X152390184Y-101906872D01*
X152334589Y-101823669D01*
X152263831Y-101752911D01*
X152229103Y-101729706D01*
X152650000Y-101729706D01*
X152694813Y-101725292D01*
X152737905Y-101712221D01*
X152777618Y-101690994D01*
X152812427Y-101662427D01*
X152840994Y-101627618D01*
X152862221Y-101587905D01*
X152875292Y-101544813D01*
X152879706Y-101500000D01*
X152879706Y-99100000D01*
X152930294Y-99100000D01*
X152931400Y-100192050D01*
X152988550Y-100249200D01*
X153489200Y-100249200D01*
X153489200Y-98928550D01*
X153590800Y-98928550D01*
X153590800Y-100249200D01*
X154091450Y-100249200D01*
X154148600Y-100192050D01*
X154149706Y-99100000D01*
X154145292Y-99055187D01*
X154132221Y-99012095D01*
X154110994Y-98972382D01*
X154082427Y-98937573D01*
X154047618Y-98909006D01*
X154007905Y-98887779D01*
X153964813Y-98874708D01*
X153920000Y-98870294D01*
X153647950Y-98871400D01*
X153590800Y-98928550D01*
X153489200Y-98928550D01*
X153432050Y-98871400D01*
X153160000Y-98870294D01*
X153115187Y-98874708D01*
X153072095Y-98887779D01*
X153032382Y-98909006D01*
X152997573Y-98937573D01*
X152969006Y-98972382D01*
X152947779Y-99012095D01*
X152934708Y-99055187D01*
X152930294Y-99100000D01*
X152879706Y-99100000D01*
X152875292Y-99055187D01*
X152862221Y-99012095D01*
X152840994Y-98972382D01*
X152812427Y-98937573D01*
X152777618Y-98909006D01*
X152737905Y-98887779D01*
X152694813Y-98874708D01*
X152650000Y-98870294D01*
X151890000Y-98870294D01*
X151845187Y-98874708D01*
X151802095Y-98887779D01*
X151762382Y-98909006D01*
X151727573Y-98937573D01*
X151699006Y-98972382D01*
X151677779Y-99012095D01*
X151664708Y-99055187D01*
X151660294Y-99100000D01*
X151660294Y-101500000D01*
X151664708Y-101544813D01*
X151677779Y-101587905D01*
X151699006Y-101627618D01*
X151727573Y-101662427D01*
X151746366Y-101677850D01*
X151699372Y-101697316D01*
X151616169Y-101752911D01*
X151545411Y-101823669D01*
X151532695Y-101842700D01*
X148967457Y-101842700D01*
X148952499Y-101841227D01*
X148937541Y-101842700D01*
X148937534Y-101842700D01*
X148898389Y-101846555D01*
X148892748Y-101847111D01*
X148879376Y-101851168D01*
X148835294Y-101864540D01*
X148782343Y-101892842D01*
X148735932Y-101930932D01*
X148726392Y-101942556D01*
X148255056Y-102413893D01*
X148243433Y-102423432D01*
X148205343Y-102469843D01*
X148190215Y-102498146D01*
X148177040Y-102522795D01*
X148159611Y-102580249D01*
X148153727Y-102640000D01*
X148155201Y-102654968D01*
X148155201Y-102770294D01*
X148080000Y-102770294D01*
X148035187Y-102774708D01*
X147992095Y-102787779D01*
X147952382Y-102809006D01*
X147917573Y-102837573D01*
X147889006Y-102872382D01*
X147867779Y-102912095D01*
X147854708Y-102955187D01*
X147850294Y-103000000D01*
X143358645Y-103000000D01*
X141253600Y-100894956D01*
X141253600Y-97636214D01*
X144723900Y-97636214D01*
X144723900Y-97743786D01*
X144744887Y-97849291D01*
X144786053Y-97948675D01*
X144845817Y-98038118D01*
X144921882Y-98114183D01*
X145011325Y-98173947D01*
X145110709Y-98215113D01*
X145216214Y-98236100D01*
X145323786Y-98236100D01*
X145429291Y-98215113D01*
X145528675Y-98173947D01*
X145530691Y-98172600D01*
X147450101Y-98172600D01*
X147977400Y-98699900D01*
X147977400Y-98895634D01*
X147952382Y-98909006D01*
X147917573Y-98937573D01*
X147889006Y-98972382D01*
X147867779Y-99012095D01*
X147854708Y-99055187D01*
X147850294Y-99100000D01*
X147850294Y-101500000D01*
X147854708Y-101544813D01*
X147867779Y-101587905D01*
X147889006Y-101627618D01*
X147917573Y-101662427D01*
X147952382Y-101690994D01*
X147992095Y-101712221D01*
X148035187Y-101725292D01*
X148080000Y-101729706D01*
X148840000Y-101729706D01*
X148884813Y-101725292D01*
X148927905Y-101712221D01*
X148967618Y-101690994D01*
X149002427Y-101662427D01*
X149030994Y-101627618D01*
X149052221Y-101587905D01*
X149065292Y-101544813D01*
X149069706Y-101500000D01*
X149069706Y-99100000D01*
X149120294Y-99100000D01*
X149120294Y-101500000D01*
X149124708Y-101544813D01*
X149137779Y-101587905D01*
X149159006Y-101627618D01*
X149187573Y-101662427D01*
X149222382Y-101690994D01*
X149262095Y-101712221D01*
X149305187Y-101725292D01*
X149350000Y-101729706D01*
X150110000Y-101729706D01*
X150154813Y-101725292D01*
X150197905Y-101712221D01*
X150237618Y-101690994D01*
X150272427Y-101662427D01*
X150300994Y-101627618D01*
X150322221Y-101587905D01*
X150335292Y-101544813D01*
X150339706Y-101500000D01*
X150339706Y-99100000D01*
X150390294Y-99100000D01*
X150390294Y-101500000D01*
X150394708Y-101544813D01*
X150407779Y-101587905D01*
X150429006Y-101627618D01*
X150457573Y-101662427D01*
X150492382Y-101690994D01*
X150532095Y-101712221D01*
X150575187Y-101725292D01*
X150620000Y-101729706D01*
X151380000Y-101729706D01*
X151424813Y-101725292D01*
X151467905Y-101712221D01*
X151507618Y-101690994D01*
X151542427Y-101662427D01*
X151570994Y-101627618D01*
X151592221Y-101587905D01*
X151605292Y-101544813D01*
X151609706Y-101500000D01*
X151609706Y-99100000D01*
X151605292Y-99055187D01*
X151592221Y-99012095D01*
X151570994Y-98972382D01*
X151542427Y-98937573D01*
X151507618Y-98909006D01*
X151467905Y-98887779D01*
X151424813Y-98874708D01*
X151380000Y-98870294D01*
X150620000Y-98870294D01*
X150575187Y-98874708D01*
X150532095Y-98887779D01*
X150492382Y-98909006D01*
X150457573Y-98937573D01*
X150429006Y-98972382D01*
X150407779Y-99012095D01*
X150394708Y-99055187D01*
X150390294Y-99100000D01*
X150339706Y-99100000D01*
X150335292Y-99055187D01*
X150322221Y-99012095D01*
X150300994Y-98972382D01*
X150272427Y-98937573D01*
X150237618Y-98909006D01*
X150197905Y-98887779D01*
X150154813Y-98874708D01*
X150110000Y-98870294D01*
X149350000Y-98870294D01*
X149305187Y-98874708D01*
X149262095Y-98887779D01*
X149222382Y-98909006D01*
X149187573Y-98937573D01*
X149159006Y-98972382D01*
X149137779Y-99012095D01*
X149124708Y-99055187D01*
X149120294Y-99100000D01*
X149069706Y-99100000D01*
X149065292Y-99055187D01*
X149052221Y-99012095D01*
X149030994Y-98972382D01*
X149002427Y-98937573D01*
X148967618Y-98909006D01*
X148942600Y-98895634D01*
X148942600Y-98523707D01*
X148944935Y-98500000D01*
X148935617Y-98405393D01*
X148908022Y-98314423D01*
X148863209Y-98230585D01*
X148802901Y-98157099D01*
X148784487Y-98141987D01*
X148008017Y-97365518D01*
X147992901Y-97347099D01*
X147919415Y-97286791D01*
X147835577Y-97241978D01*
X147744606Y-97214383D01*
X147673707Y-97207400D01*
X147673705Y-97207400D01*
X147650000Y-97205065D01*
X147626295Y-97207400D01*
X145530691Y-97207400D01*
X145528675Y-97206053D01*
X145429291Y-97164887D01*
X145323786Y-97143900D01*
X145216214Y-97143900D01*
X145110709Y-97164887D01*
X145011325Y-97206053D01*
X144921882Y-97265817D01*
X144845817Y-97341882D01*
X144786053Y-97431325D01*
X144744887Y-97530709D01*
X144723900Y-97636214D01*
X141253600Y-97636214D01*
X141253600Y-90700000D01*
X147850294Y-90700000D01*
X147850294Y-93100000D01*
X147854708Y-93144813D01*
X147867779Y-93187905D01*
X147889006Y-93227618D01*
X147917573Y-93262427D01*
X147952382Y-93290994D01*
X147992095Y-93312221D01*
X148035187Y-93325292D01*
X148080000Y-93329706D01*
X148840000Y-93329706D01*
X148884813Y-93325292D01*
X148927905Y-93312221D01*
X148967618Y-93290994D01*
X149002427Y-93262427D01*
X149030994Y-93227618D01*
X149052221Y-93187905D01*
X149065292Y-93144813D01*
X149069706Y-93100000D01*
X149069706Y-90700000D01*
X149120294Y-90700000D01*
X149120294Y-93100000D01*
X149124708Y-93144813D01*
X149137779Y-93187905D01*
X149159006Y-93227618D01*
X149187573Y-93262427D01*
X149222382Y-93290994D01*
X149262095Y-93312221D01*
X149305187Y-93325292D01*
X149350000Y-93329706D01*
X150110000Y-93329706D01*
X150154813Y-93325292D01*
X150197905Y-93312221D01*
X150237618Y-93290994D01*
X150272427Y-93262427D01*
X150300994Y-93227618D01*
X150322221Y-93187905D01*
X150335292Y-93144813D01*
X150339706Y-93100000D01*
X150339706Y-90700000D01*
X150390294Y-90700000D01*
X150390294Y-93100000D01*
X150394708Y-93144813D01*
X150407779Y-93187905D01*
X150429006Y-93227618D01*
X150457573Y-93262427D01*
X150492382Y-93290994D01*
X150532095Y-93312221D01*
X150575187Y-93325292D01*
X150620000Y-93329706D01*
X151380000Y-93329706D01*
X151424813Y-93325292D01*
X151467905Y-93312221D01*
X151507618Y-93290994D01*
X151542427Y-93262427D01*
X151570994Y-93227618D01*
X151592221Y-93187905D01*
X151605292Y-93144813D01*
X151609706Y-93100000D01*
X151609706Y-90700000D01*
X151660294Y-90700000D01*
X151660294Y-93100000D01*
X151664708Y-93144813D01*
X151677779Y-93187905D01*
X151699006Y-93227618D01*
X151727573Y-93262427D01*
X151762382Y-93290994D01*
X151802095Y-93312221D01*
X151845187Y-93325292D01*
X151890000Y-93329706D01*
X152650000Y-93329706D01*
X152694813Y-93325292D01*
X152737905Y-93312221D01*
X152777618Y-93290994D01*
X152812427Y-93262427D01*
X152840994Y-93227618D01*
X152862221Y-93187905D01*
X152875292Y-93144813D01*
X152879706Y-93100000D01*
X152879706Y-90700000D01*
X152930294Y-90700000D01*
X152930294Y-93100000D01*
X152934708Y-93144813D01*
X152947779Y-93187905D01*
X152969006Y-93227618D01*
X152997573Y-93262427D01*
X153032382Y-93290994D01*
X153072095Y-93312221D01*
X153115187Y-93325292D01*
X153160000Y-93329706D01*
X153920000Y-93329706D01*
X153964813Y-93325292D01*
X154007905Y-93312221D01*
X154047618Y-93290994D01*
X154082427Y-93262427D01*
X154110994Y-93227618D01*
X154132221Y-93187905D01*
X154145292Y-93144813D01*
X154149706Y-93100000D01*
X154149706Y-90700000D01*
X154145292Y-90655187D01*
X154132221Y-90612095D01*
X154110994Y-90572382D01*
X154082427Y-90537573D01*
X154047618Y-90509006D01*
X154007905Y-90487779D01*
X153964813Y-90474708D01*
X153920000Y-90470294D01*
X153160000Y-90470294D01*
X153115187Y-90474708D01*
X153072095Y-90487779D01*
X153032382Y-90509006D01*
X152997573Y-90537573D01*
X152969006Y-90572382D01*
X152947779Y-90612095D01*
X152934708Y-90655187D01*
X152930294Y-90700000D01*
X152879706Y-90700000D01*
X152875292Y-90655187D01*
X152862221Y-90612095D01*
X152840994Y-90572382D01*
X152812427Y-90537573D01*
X152777618Y-90509006D01*
X152737905Y-90487779D01*
X152694813Y-90474708D01*
X152650000Y-90470294D01*
X151890000Y-90470294D01*
X151845187Y-90474708D01*
X151802095Y-90487779D01*
X151762382Y-90509006D01*
X151727573Y-90537573D01*
X151699006Y-90572382D01*
X151677779Y-90612095D01*
X151664708Y-90655187D01*
X151660294Y-90700000D01*
X151609706Y-90700000D01*
X151605292Y-90655187D01*
X151592221Y-90612095D01*
X151570994Y-90572382D01*
X151542427Y-90537573D01*
X151507618Y-90509006D01*
X151467905Y-90487779D01*
X151424813Y-90474708D01*
X151380000Y-90470294D01*
X150620000Y-90470294D01*
X150575187Y-90474708D01*
X150532095Y-90487779D01*
X150492382Y-90509006D01*
X150457573Y-90537573D01*
X150429006Y-90572382D01*
X150407779Y-90612095D01*
X150394708Y-90655187D01*
X150390294Y-90700000D01*
X150339706Y-90700000D01*
X150335292Y-90655187D01*
X150322221Y-90612095D01*
X150300994Y-90572382D01*
X150272427Y-90537573D01*
X150237618Y-90509006D01*
X150197905Y-90487779D01*
X150154813Y-90474708D01*
X150110000Y-90470294D01*
X149350000Y-90470294D01*
X149305187Y-90474708D01*
X149262095Y-90487779D01*
X149222382Y-90509006D01*
X149187573Y-90537573D01*
X149159006Y-90572382D01*
X149137779Y-90612095D01*
X149124708Y-90655187D01*
X149120294Y-90700000D01*
X149069706Y-90700000D01*
X149065292Y-90655187D01*
X149052221Y-90612095D01*
X149030994Y-90572382D01*
X149002427Y-90537573D01*
X148967618Y-90509006D01*
X148927905Y-90487779D01*
X148884813Y-90474708D01*
X148840000Y-90470294D01*
X148080000Y-90470294D01*
X148035187Y-90474708D01*
X147992095Y-90487779D01*
X147952382Y-90509006D01*
X147917573Y-90537573D01*
X147889006Y-90572382D01*
X147867779Y-90612095D01*
X147854708Y-90655187D01*
X147850294Y-90700000D01*
X141253600Y-90700000D01*
X141253600Y-86800000D01*
X147850294Y-86800000D01*
X147850294Y-89200000D01*
X147854708Y-89244813D01*
X147867779Y-89287905D01*
X147889006Y-89327618D01*
X147917573Y-89362427D01*
X147952382Y-89390994D01*
X147992095Y-89412221D01*
X148035187Y-89425292D01*
X148080000Y-89429706D01*
X148840000Y-89429706D01*
X148884813Y-89425292D01*
X148927905Y-89412221D01*
X148967618Y-89390994D01*
X149002427Y-89362427D01*
X149030994Y-89327618D01*
X149052221Y-89287905D01*
X149065292Y-89244813D01*
X149069706Y-89200000D01*
X149069706Y-86800000D01*
X149120294Y-86800000D01*
X149120294Y-89200000D01*
X149124708Y-89244813D01*
X149137779Y-89287905D01*
X149159006Y-89327618D01*
X149187573Y-89362427D01*
X149222382Y-89390994D01*
X149262095Y-89412221D01*
X149305187Y-89425292D01*
X149350000Y-89429706D01*
X150110000Y-89429706D01*
X150154813Y-89425292D01*
X150197905Y-89412221D01*
X150237618Y-89390994D01*
X150272427Y-89362427D01*
X150300994Y-89327618D01*
X150322221Y-89287905D01*
X150335292Y-89244813D01*
X150339706Y-89200000D01*
X150339706Y-86800000D01*
X150390294Y-86800000D01*
X150390294Y-89200000D01*
X150394708Y-89244813D01*
X150407779Y-89287905D01*
X150429006Y-89327618D01*
X150457573Y-89362427D01*
X150492382Y-89390994D01*
X150532095Y-89412221D01*
X150575187Y-89425292D01*
X150620000Y-89429706D01*
X151380000Y-89429706D01*
X151424813Y-89425292D01*
X151467905Y-89412221D01*
X151507618Y-89390994D01*
X151542427Y-89362427D01*
X151570994Y-89327618D01*
X151592221Y-89287905D01*
X151605292Y-89244813D01*
X151609706Y-89200000D01*
X151609706Y-86800000D01*
X151660294Y-86800000D01*
X151660294Y-89200000D01*
X151664708Y-89244813D01*
X151677779Y-89287905D01*
X151699006Y-89327618D01*
X151727573Y-89362427D01*
X151762382Y-89390994D01*
X151802095Y-89412221D01*
X151845187Y-89425292D01*
X151890000Y-89429706D01*
X152650000Y-89429706D01*
X152694813Y-89425292D01*
X152737905Y-89412221D01*
X152777618Y-89390994D01*
X152812427Y-89362427D01*
X152840994Y-89327618D01*
X152862221Y-89287905D01*
X152875292Y-89244813D01*
X152879706Y-89200000D01*
X152879706Y-86800000D01*
X152930294Y-86800000D01*
X152930294Y-89200000D01*
X152934708Y-89244813D01*
X152947779Y-89287905D01*
X152969006Y-89327618D01*
X152997573Y-89362427D01*
X153032382Y-89390994D01*
X153072095Y-89412221D01*
X153115187Y-89425292D01*
X153160000Y-89429706D01*
X153920000Y-89429706D01*
X153964813Y-89425292D01*
X154007905Y-89412221D01*
X154047618Y-89390994D01*
X154082427Y-89362427D01*
X154110994Y-89327618D01*
X154132221Y-89287905D01*
X154145292Y-89244813D01*
X154149706Y-89200000D01*
X154149706Y-86800000D01*
X154145292Y-86755187D01*
X154132221Y-86712095D01*
X154110994Y-86672382D01*
X154082427Y-86637573D01*
X154047618Y-86609006D01*
X154007905Y-86587779D01*
X153964813Y-86574708D01*
X153920000Y-86570294D01*
X153160000Y-86570294D01*
X153115187Y-86574708D01*
X153072095Y-86587779D01*
X153032382Y-86609006D01*
X152997573Y-86637573D01*
X152969006Y-86672382D01*
X152947779Y-86712095D01*
X152934708Y-86755187D01*
X152930294Y-86800000D01*
X152879706Y-86800000D01*
X152875292Y-86755187D01*
X152862221Y-86712095D01*
X152840994Y-86672382D01*
X152812427Y-86637573D01*
X152777618Y-86609006D01*
X152737905Y-86587779D01*
X152694813Y-86574708D01*
X152650000Y-86570294D01*
X151890000Y-86570294D01*
X151845187Y-86574708D01*
X151802095Y-86587779D01*
X151762382Y-86609006D01*
X151727573Y-86637573D01*
X151699006Y-86672382D01*
X151677779Y-86712095D01*
X151664708Y-86755187D01*
X151660294Y-86800000D01*
X151609706Y-86800000D01*
X151605292Y-86755187D01*
X151592221Y-86712095D01*
X151570994Y-86672382D01*
X151542427Y-86637573D01*
X151507618Y-86609006D01*
X151467905Y-86587779D01*
X151424813Y-86574708D01*
X151380000Y-86570294D01*
X150620000Y-86570294D01*
X150575187Y-86574708D01*
X150532095Y-86587779D01*
X150492382Y-86609006D01*
X150457573Y-86637573D01*
X150429006Y-86672382D01*
X150407779Y-86712095D01*
X150394708Y-86755187D01*
X150390294Y-86800000D01*
X150339706Y-86800000D01*
X150335292Y-86755187D01*
X150322221Y-86712095D01*
X150300994Y-86672382D01*
X150272427Y-86637573D01*
X150237618Y-86609006D01*
X150197905Y-86587779D01*
X150154813Y-86574708D01*
X150110000Y-86570294D01*
X149350000Y-86570294D01*
X149305187Y-86574708D01*
X149262095Y-86587779D01*
X149222382Y-86609006D01*
X149187573Y-86637573D01*
X149159006Y-86672382D01*
X149137779Y-86712095D01*
X149124708Y-86755187D01*
X149120294Y-86800000D01*
X149069706Y-86800000D01*
X149065292Y-86755187D01*
X149052221Y-86712095D01*
X149030994Y-86672382D01*
X149002427Y-86637573D01*
X148967618Y-86609006D01*
X148927905Y-86587779D01*
X148884813Y-86574708D01*
X148840000Y-86570294D01*
X148080000Y-86570294D01*
X148035187Y-86574708D01*
X147992095Y-86587779D01*
X147952382Y-86609006D01*
X147917573Y-86637573D01*
X147889006Y-86672382D01*
X147867779Y-86712095D01*
X147854708Y-86755187D01*
X147850294Y-86800000D01*
X141253600Y-86800000D01*
X141253600Y-86503600D01*
X160746401Y-86503600D01*
X160746400Y-100894955D01*
%TA.AperFunction,Conductor*%
D15*
G36*
X160746400Y-100894955D02*
G01*
X155894956Y-105746400D01*
X146105045Y-105746400D01*
X143358645Y-103000000D01*
X147850294Y-103000000D01*
X147850294Y-105400000D01*
X147854708Y-105444813D01*
X147867779Y-105487905D01*
X147889006Y-105527618D01*
X147917573Y-105562427D01*
X147952382Y-105590994D01*
X147992095Y-105612221D01*
X148035187Y-105625292D01*
X148080000Y-105629706D01*
X148840000Y-105629706D01*
X148884813Y-105625292D01*
X148927905Y-105612221D01*
X148967618Y-105590994D01*
X149002427Y-105562427D01*
X149030994Y-105527618D01*
X149052221Y-105487905D01*
X149065292Y-105444813D01*
X149069706Y-105400000D01*
X149069706Y-103000000D01*
X149065292Y-102955187D01*
X149052221Y-102912095D01*
X149030994Y-102872382D01*
X149002427Y-102837573D01*
X148967618Y-102809006D01*
X148927905Y-102787779D01*
X148884813Y-102774708D01*
X148840000Y-102770294D01*
X148764800Y-102770294D01*
X148764800Y-102766251D01*
X149078752Y-102452300D01*
X149616648Y-102452300D01*
X149525056Y-102543893D01*
X149513433Y-102553432D01*
X149503893Y-102565056D01*
X149503892Y-102565057D01*
X149500233Y-102569516D01*
X149475343Y-102599843D01*
X149463251Y-102622466D01*
X149447040Y-102652795D01*
X149429611Y-102710249D01*
X149423727Y-102770000D01*
X149423756Y-102770294D01*
X149350000Y-102770294D01*
X149305187Y-102774708D01*
X149262095Y-102787779D01*
X149222382Y-102809006D01*
X149187573Y-102837573D01*
X149159006Y-102872382D01*
X149137779Y-102912095D01*
X149124708Y-102955187D01*
X149120294Y-103000000D01*
X149120294Y-105400000D01*
X149124708Y-105444813D01*
X149137779Y-105487905D01*
X149159006Y-105527618D01*
X149187573Y-105562427D01*
X149222382Y-105590994D01*
X149262095Y-105612221D01*
X149305187Y-105625292D01*
X149350000Y-105629706D01*
X150110000Y-105629706D01*
X150154813Y-105625292D01*
X150197905Y-105612221D01*
X150237618Y-105590994D01*
X150272427Y-105562427D01*
X150300994Y-105527618D01*
X150322221Y-105487905D01*
X150335292Y-105444813D01*
X150339706Y-105400000D01*
X150339706Y-103000000D01*
X150335292Y-102955187D01*
X150322221Y-102912095D01*
X150300994Y-102872382D01*
X150272427Y-102837573D01*
X150237618Y-102809006D01*
X150197905Y-102787779D01*
X150155988Y-102775064D01*
X150173942Y-102757110D01*
X151366717Y-102757110D01*
X151379901Y-102770294D01*
X150620000Y-102770294D01*
X150575187Y-102774708D01*
X150532095Y-102787779D01*
X150492382Y-102809006D01*
X150457573Y-102837573D01*
X150429006Y-102872382D01*
X150407779Y-102912095D01*
X150394708Y-102955187D01*
X150390294Y-103000000D01*
X150390294Y-105400000D01*
X150394708Y-105444813D01*
X150407779Y-105487905D01*
X150429006Y-105527618D01*
X150457573Y-105562427D01*
X150492382Y-105590994D01*
X150532095Y-105612221D01*
X150575187Y-105625292D01*
X150620000Y-105629706D01*
X151380000Y-105629706D01*
X151424813Y-105625292D01*
X151467905Y-105612221D01*
X151507618Y-105590994D01*
X151542427Y-105562427D01*
X151570994Y-105527618D01*
X151592221Y-105487905D01*
X151605292Y-105444813D01*
X151609706Y-105400000D01*
X151609706Y-103000000D01*
X151605292Y-102955187D01*
X151602374Y-102945566D01*
X151618978Y-102950603D01*
X151636407Y-102955890D01*
X151642048Y-102956446D01*
X151664368Y-102958644D01*
X151660294Y-103000000D01*
X151660294Y-105400000D01*
X151664708Y-105444813D01*
X151677779Y-105487905D01*
X151699006Y-105527618D01*
X151727573Y-105562427D01*
X151762382Y-105590994D01*
X151802095Y-105612221D01*
X151845187Y-105625292D01*
X151890000Y-105629706D01*
X152650000Y-105629706D01*
X152694813Y-105625292D01*
X152737905Y-105612221D01*
X152777618Y-105590994D01*
X152812427Y-105562427D01*
X152840994Y-105527618D01*
X152862221Y-105487905D01*
X152875292Y-105444813D01*
X152879706Y-105400000D01*
X152879706Y-103000000D01*
X152875796Y-102960301D01*
X152934204Y-102960301D01*
X152930294Y-103000000D01*
X152930294Y-105400000D01*
X152934708Y-105444813D01*
X152947779Y-105487905D01*
X152969006Y-105527618D01*
X152997573Y-105562427D01*
X153032382Y-105590994D01*
X153072095Y-105612221D01*
X153115187Y-105625292D01*
X153160000Y-105629706D01*
X153920000Y-105629706D01*
X153964813Y-105625292D01*
X154007905Y-105612221D01*
X154047618Y-105590994D01*
X154082427Y-105562427D01*
X154110994Y-105527618D01*
X154132221Y-105487905D01*
X154145292Y-105444813D01*
X154149706Y-105400000D01*
X154149706Y-103000000D01*
X154145292Y-102955187D01*
X154132221Y-102912095D01*
X154110994Y-102872382D01*
X154082427Y-102837573D01*
X154047618Y-102809006D01*
X154007905Y-102787779D01*
X153964813Y-102774708D01*
X153920000Y-102770294D01*
X153288257Y-102770294D01*
X153407517Y-102651035D01*
X153429966Y-102655500D01*
X153530034Y-102655500D01*
X153628178Y-102635978D01*
X153720628Y-102597684D01*
X153803831Y-102542089D01*
X153874589Y-102471331D01*
X153930184Y-102388128D01*
X153968478Y-102295678D01*
X153988000Y-102197534D01*
X153988000Y-102097466D01*
X153968478Y-101999322D01*
X153930184Y-101906872D01*
X153874589Y-101823669D01*
X153803831Y-101752911D01*
X153768179Y-101729089D01*
X153920000Y-101729706D01*
X153964813Y-101725292D01*
X154007905Y-101712221D01*
X154047618Y-101690994D01*
X154082427Y-101662427D01*
X154110994Y-101627618D01*
X154132221Y-101587905D01*
X154145292Y-101544813D01*
X154149706Y-101500000D01*
X154148600Y-100407950D01*
X154091450Y-100350800D01*
X153590800Y-100350800D01*
X153590800Y-100370800D01*
X153489200Y-100370800D01*
X153489200Y-100350800D01*
X152988550Y-100350800D01*
X152931400Y-100407950D01*
X152930294Y-101500000D01*
X152934708Y-101544813D01*
X152947779Y-101587905D01*
X152969006Y-101627618D01*
X152997573Y-101662427D01*
X153032382Y-101690994D01*
X153072095Y-101712221D01*
X153115187Y-101725292D01*
X153160000Y-101729706D01*
X153191087Y-101729580D01*
X153156169Y-101752911D01*
X153085411Y-101823669D01*
X153029816Y-101906872D01*
X152991522Y-101999322D01*
X152972000Y-102097466D01*
X152972000Y-102197534D01*
X152976465Y-102219983D01*
X152845748Y-102350701D01*
X152405687Y-102350701D01*
X152428478Y-102295678D01*
X152448000Y-102197534D01*
X152448000Y-102097466D01*
X152428478Y-101999322D01*
X152390184Y-101906872D01*
X152334589Y-101823669D01*
X152263831Y-101752911D01*
X152229103Y-101729706D01*
X152650000Y-101729706D01*
X152694813Y-101725292D01*
X152737905Y-101712221D01*
X152777618Y-101690994D01*
X152812427Y-101662427D01*
X152840994Y-101627618D01*
X152862221Y-101587905D01*
X152875292Y-101544813D01*
X152879706Y-101500000D01*
X152879706Y-99100000D01*
X152930294Y-99100000D01*
X152931400Y-100192050D01*
X152988550Y-100249200D01*
X153489200Y-100249200D01*
X153489200Y-98928550D01*
X153590800Y-98928550D01*
X153590800Y-100249200D01*
X154091450Y-100249200D01*
X154148600Y-100192050D01*
X154149706Y-99100000D01*
X154145292Y-99055187D01*
X154132221Y-99012095D01*
X154110994Y-98972382D01*
X154082427Y-98937573D01*
X154047618Y-98909006D01*
X154007905Y-98887779D01*
X153964813Y-98874708D01*
X153920000Y-98870294D01*
X153647950Y-98871400D01*
X153590800Y-98928550D01*
X153489200Y-98928550D01*
X153432050Y-98871400D01*
X153160000Y-98870294D01*
X153115187Y-98874708D01*
X153072095Y-98887779D01*
X153032382Y-98909006D01*
X152997573Y-98937573D01*
X152969006Y-98972382D01*
X152947779Y-99012095D01*
X152934708Y-99055187D01*
X152930294Y-99100000D01*
X152879706Y-99100000D01*
X152875292Y-99055187D01*
X152862221Y-99012095D01*
X152840994Y-98972382D01*
X152812427Y-98937573D01*
X152777618Y-98909006D01*
X152737905Y-98887779D01*
X152694813Y-98874708D01*
X152650000Y-98870294D01*
X151890000Y-98870294D01*
X151845187Y-98874708D01*
X151802095Y-98887779D01*
X151762382Y-98909006D01*
X151727573Y-98937573D01*
X151699006Y-98972382D01*
X151677779Y-99012095D01*
X151664708Y-99055187D01*
X151660294Y-99100000D01*
X151660294Y-101500000D01*
X151664708Y-101544813D01*
X151677779Y-101587905D01*
X151699006Y-101627618D01*
X151727573Y-101662427D01*
X151746366Y-101677850D01*
X151699372Y-101697316D01*
X151616169Y-101752911D01*
X151545411Y-101823669D01*
X151532695Y-101842700D01*
X148967457Y-101842700D01*
X148952499Y-101841227D01*
X148937541Y-101842700D01*
X148937534Y-101842700D01*
X148898389Y-101846555D01*
X148892748Y-101847111D01*
X148879376Y-101851168D01*
X148835294Y-101864540D01*
X148782343Y-101892842D01*
X148735932Y-101930932D01*
X148726392Y-101942556D01*
X148255056Y-102413893D01*
X148243433Y-102423432D01*
X148205343Y-102469843D01*
X148190215Y-102498146D01*
X148177040Y-102522795D01*
X148159611Y-102580249D01*
X148153727Y-102640000D01*
X148155201Y-102654968D01*
X148155201Y-102770294D01*
X148080000Y-102770294D01*
X148035187Y-102774708D01*
X147992095Y-102787779D01*
X147952382Y-102809006D01*
X147917573Y-102837573D01*
X147889006Y-102872382D01*
X147867779Y-102912095D01*
X147854708Y-102955187D01*
X147850294Y-103000000D01*
X143358645Y-103000000D01*
X141253600Y-100894956D01*
X141253600Y-97636214D01*
X144723900Y-97636214D01*
X144723900Y-97743786D01*
X144744887Y-97849291D01*
X144786053Y-97948675D01*
X144845817Y-98038118D01*
X144921882Y-98114183D01*
X145011325Y-98173947D01*
X145110709Y-98215113D01*
X145216214Y-98236100D01*
X145323786Y-98236100D01*
X145429291Y-98215113D01*
X145528675Y-98173947D01*
X145530691Y-98172600D01*
X147450101Y-98172600D01*
X147977400Y-98699900D01*
X147977400Y-98895634D01*
X147952382Y-98909006D01*
X147917573Y-98937573D01*
X147889006Y-98972382D01*
X147867779Y-99012095D01*
X147854708Y-99055187D01*
X147850294Y-99100000D01*
X147850294Y-101500000D01*
X147854708Y-101544813D01*
X147867779Y-101587905D01*
X147889006Y-101627618D01*
X147917573Y-101662427D01*
X147952382Y-101690994D01*
X147992095Y-101712221D01*
X148035187Y-101725292D01*
X148080000Y-101729706D01*
X148840000Y-101729706D01*
X148884813Y-101725292D01*
X148927905Y-101712221D01*
X148967618Y-101690994D01*
X149002427Y-101662427D01*
X149030994Y-101627618D01*
X149052221Y-101587905D01*
X149065292Y-101544813D01*
X149069706Y-101500000D01*
X149069706Y-99100000D01*
X149120294Y-99100000D01*
X149120294Y-101500000D01*
X149124708Y-101544813D01*
X149137779Y-101587905D01*
X149159006Y-101627618D01*
X149187573Y-101662427D01*
X149222382Y-101690994D01*
X149262095Y-101712221D01*
X149305187Y-101725292D01*
X149350000Y-101729706D01*
X150110000Y-101729706D01*
X150154813Y-101725292D01*
X150197905Y-101712221D01*
X150237618Y-101690994D01*
X150272427Y-101662427D01*
X150300994Y-101627618D01*
X150322221Y-101587905D01*
X150335292Y-101544813D01*
X150339706Y-101500000D01*
X150339706Y-99100000D01*
X150390294Y-99100000D01*
X150390294Y-101500000D01*
X150394708Y-101544813D01*
X150407779Y-101587905D01*
X150429006Y-101627618D01*
X150457573Y-101662427D01*
X150492382Y-101690994D01*
X150532095Y-101712221D01*
X150575187Y-101725292D01*
X150620000Y-101729706D01*
X151380000Y-101729706D01*
X151424813Y-101725292D01*
X151467905Y-101712221D01*
X151507618Y-101690994D01*
X151542427Y-101662427D01*
X151570994Y-101627618D01*
X151592221Y-101587905D01*
X151605292Y-101544813D01*
X151609706Y-101500000D01*
X151609706Y-99100000D01*
X151605292Y-99055187D01*
X151592221Y-99012095D01*
X151570994Y-98972382D01*
X151542427Y-98937573D01*
X151507618Y-98909006D01*
X151467905Y-98887779D01*
X151424813Y-98874708D01*
X151380000Y-98870294D01*
X150620000Y-98870294D01*
X150575187Y-98874708D01*
X150532095Y-98887779D01*
X150492382Y-98909006D01*
X150457573Y-98937573D01*
X150429006Y-98972382D01*
X150407779Y-99012095D01*
X150394708Y-99055187D01*
X150390294Y-99100000D01*
X150339706Y-99100000D01*
X150335292Y-99055187D01*
X150322221Y-99012095D01*
X150300994Y-98972382D01*
X150272427Y-98937573D01*
X150237618Y-98909006D01*
X150197905Y-98887779D01*
X150154813Y-98874708D01*
X150110000Y-98870294D01*
X149350000Y-98870294D01*
X149305187Y-98874708D01*
X149262095Y-98887779D01*
X149222382Y-98909006D01*
X149187573Y-98937573D01*
X149159006Y-98972382D01*
X149137779Y-99012095D01*
X149124708Y-99055187D01*
X149120294Y-99100000D01*
X149069706Y-99100000D01*
X149065292Y-99055187D01*
X149052221Y-99012095D01*
X149030994Y-98972382D01*
X149002427Y-98937573D01*
X148967618Y-98909006D01*
X148942600Y-98895634D01*
X148942600Y-98523707D01*
X148944935Y-98500000D01*
X148935617Y-98405393D01*
X148908022Y-98314423D01*
X148863209Y-98230585D01*
X148802901Y-98157099D01*
X148784487Y-98141987D01*
X148008017Y-97365518D01*
X147992901Y-97347099D01*
X147919415Y-97286791D01*
X147835577Y-97241978D01*
X147744606Y-97214383D01*
X147673707Y-97207400D01*
X147673705Y-97207400D01*
X147650000Y-97205065D01*
X147626295Y-97207400D01*
X145530691Y-97207400D01*
X145528675Y-97206053D01*
X145429291Y-97164887D01*
X145323786Y-97143900D01*
X145216214Y-97143900D01*
X145110709Y-97164887D01*
X145011325Y-97206053D01*
X144921882Y-97265817D01*
X144845817Y-97341882D01*
X144786053Y-97431325D01*
X144744887Y-97530709D01*
X144723900Y-97636214D01*
X141253600Y-97636214D01*
X141253600Y-90700000D01*
X147850294Y-90700000D01*
X147850294Y-93100000D01*
X147854708Y-93144813D01*
X147867779Y-93187905D01*
X147889006Y-93227618D01*
X147917573Y-93262427D01*
X147952382Y-93290994D01*
X147992095Y-93312221D01*
X148035187Y-93325292D01*
X148080000Y-93329706D01*
X148840000Y-93329706D01*
X148884813Y-93325292D01*
X148927905Y-93312221D01*
X148967618Y-93290994D01*
X149002427Y-93262427D01*
X149030994Y-93227618D01*
X149052221Y-93187905D01*
X149065292Y-93144813D01*
X149069706Y-93100000D01*
X149069706Y-90700000D01*
X149120294Y-90700000D01*
X149120294Y-93100000D01*
X149124708Y-93144813D01*
X149137779Y-93187905D01*
X149159006Y-93227618D01*
X149187573Y-93262427D01*
X149222382Y-93290994D01*
X149262095Y-93312221D01*
X149305187Y-93325292D01*
X149350000Y-93329706D01*
X150110000Y-93329706D01*
X150154813Y-93325292D01*
X150197905Y-93312221D01*
X150237618Y-93290994D01*
X150272427Y-93262427D01*
X150300994Y-93227618D01*
X150322221Y-93187905D01*
X150335292Y-93144813D01*
X150339706Y-93100000D01*
X150339706Y-90700000D01*
X150390294Y-90700000D01*
X150390294Y-93100000D01*
X150394708Y-93144813D01*
X150407779Y-93187905D01*
X150429006Y-93227618D01*
X150457573Y-93262427D01*
X150492382Y-93290994D01*
X150532095Y-93312221D01*
X150575187Y-93325292D01*
X150620000Y-93329706D01*
X151380000Y-93329706D01*
X151424813Y-93325292D01*
X151467905Y-93312221D01*
X151507618Y-93290994D01*
X151542427Y-93262427D01*
X151570994Y-93227618D01*
X151592221Y-93187905D01*
X151605292Y-93144813D01*
X151609706Y-93100000D01*
X151609706Y-90700000D01*
X151660294Y-90700000D01*
X151660294Y-93100000D01*
X151664708Y-93144813D01*
X151677779Y-93187905D01*
X151699006Y-93227618D01*
X151727573Y-93262427D01*
X151762382Y-93290994D01*
X151802095Y-93312221D01*
X151845187Y-93325292D01*
X151890000Y-93329706D01*
X152650000Y-93329706D01*
X152694813Y-93325292D01*
X152737905Y-93312221D01*
X152777618Y-93290994D01*
X152812427Y-93262427D01*
X152840994Y-93227618D01*
X152862221Y-93187905D01*
X152875292Y-93144813D01*
X152879706Y-93100000D01*
X152879706Y-90700000D01*
X152930294Y-90700000D01*
X152930294Y-93100000D01*
X152934708Y-93144813D01*
X152947779Y-93187905D01*
X152969006Y-93227618D01*
X152997573Y-93262427D01*
X153032382Y-93290994D01*
X153072095Y-93312221D01*
X153115187Y-93325292D01*
X153160000Y-93329706D01*
X153920000Y-93329706D01*
X153964813Y-93325292D01*
X154007905Y-93312221D01*
X154047618Y-93290994D01*
X154082427Y-93262427D01*
X154110994Y-93227618D01*
X154132221Y-93187905D01*
X154145292Y-93144813D01*
X154149706Y-93100000D01*
X154149706Y-90700000D01*
X154145292Y-90655187D01*
X154132221Y-90612095D01*
X154110994Y-90572382D01*
X154082427Y-90537573D01*
X154047618Y-90509006D01*
X154007905Y-90487779D01*
X153964813Y-90474708D01*
X153920000Y-90470294D01*
X153160000Y-90470294D01*
X153115187Y-90474708D01*
X153072095Y-90487779D01*
X153032382Y-90509006D01*
X152997573Y-90537573D01*
X152969006Y-90572382D01*
X152947779Y-90612095D01*
X152934708Y-90655187D01*
X152930294Y-90700000D01*
X152879706Y-90700000D01*
X152875292Y-90655187D01*
X152862221Y-90612095D01*
X152840994Y-90572382D01*
X152812427Y-90537573D01*
X152777618Y-90509006D01*
X152737905Y-90487779D01*
X152694813Y-90474708D01*
X152650000Y-90470294D01*
X151890000Y-90470294D01*
X151845187Y-90474708D01*
X151802095Y-90487779D01*
X151762382Y-90509006D01*
X151727573Y-90537573D01*
X151699006Y-90572382D01*
X151677779Y-90612095D01*
X151664708Y-90655187D01*
X151660294Y-90700000D01*
X151609706Y-90700000D01*
X151605292Y-90655187D01*
X151592221Y-90612095D01*
X151570994Y-90572382D01*
X151542427Y-90537573D01*
X151507618Y-90509006D01*
X151467905Y-90487779D01*
X151424813Y-90474708D01*
X151380000Y-90470294D01*
X150620000Y-90470294D01*
X150575187Y-90474708D01*
X150532095Y-90487779D01*
X150492382Y-90509006D01*
X150457573Y-90537573D01*
X150429006Y-90572382D01*
X150407779Y-90612095D01*
X150394708Y-90655187D01*
X150390294Y-90700000D01*
X150339706Y-90700000D01*
X150335292Y-90655187D01*
X150322221Y-90612095D01*
X150300994Y-90572382D01*
X150272427Y-90537573D01*
X150237618Y-90509006D01*
X150197905Y-90487779D01*
X150154813Y-90474708D01*
X150110000Y-90470294D01*
X149350000Y-90470294D01*
X149305187Y-90474708D01*
X149262095Y-90487779D01*
X149222382Y-90509006D01*
X149187573Y-90537573D01*
X149159006Y-90572382D01*
X149137779Y-90612095D01*
X149124708Y-90655187D01*
X149120294Y-90700000D01*
X149069706Y-90700000D01*
X149065292Y-90655187D01*
X149052221Y-90612095D01*
X149030994Y-90572382D01*
X149002427Y-90537573D01*
X148967618Y-90509006D01*
X148927905Y-90487779D01*
X148884813Y-90474708D01*
X148840000Y-90470294D01*
X148080000Y-90470294D01*
X148035187Y-90474708D01*
X147992095Y-90487779D01*
X147952382Y-90509006D01*
X147917573Y-90537573D01*
X147889006Y-90572382D01*
X147867779Y-90612095D01*
X147854708Y-90655187D01*
X147850294Y-90700000D01*
X141253600Y-90700000D01*
X141253600Y-86800000D01*
X147850294Y-86800000D01*
X147850294Y-89200000D01*
X147854708Y-89244813D01*
X147867779Y-89287905D01*
X147889006Y-89327618D01*
X147917573Y-89362427D01*
X147952382Y-89390994D01*
X147992095Y-89412221D01*
X148035187Y-89425292D01*
X148080000Y-89429706D01*
X148840000Y-89429706D01*
X148884813Y-89425292D01*
X148927905Y-89412221D01*
X148967618Y-89390994D01*
X149002427Y-89362427D01*
X149030994Y-89327618D01*
X149052221Y-89287905D01*
X149065292Y-89244813D01*
X149069706Y-89200000D01*
X149069706Y-86800000D01*
X149120294Y-86800000D01*
X149120294Y-89200000D01*
X149124708Y-89244813D01*
X149137779Y-89287905D01*
X149159006Y-89327618D01*
X149187573Y-89362427D01*
X149222382Y-89390994D01*
X149262095Y-89412221D01*
X149305187Y-89425292D01*
X149350000Y-89429706D01*
X150110000Y-89429706D01*
X150154813Y-89425292D01*
X150197905Y-89412221D01*
X150237618Y-89390994D01*
X150272427Y-89362427D01*
X150300994Y-89327618D01*
X150322221Y-89287905D01*
X150335292Y-89244813D01*
X150339706Y-89200000D01*
X150339706Y-86800000D01*
X150390294Y-86800000D01*
X150390294Y-89200000D01*
X150394708Y-89244813D01*
X150407779Y-89287905D01*
X150429006Y-89327618D01*
X150457573Y-89362427D01*
X150492382Y-89390994D01*
X150532095Y-89412221D01*
X150575187Y-89425292D01*
X150620000Y-89429706D01*
X151380000Y-89429706D01*
X151424813Y-89425292D01*
X151467905Y-89412221D01*
X151507618Y-89390994D01*
X151542427Y-89362427D01*
X151570994Y-89327618D01*
X151592221Y-89287905D01*
X151605292Y-89244813D01*
X151609706Y-89200000D01*
X151609706Y-86800000D01*
X151660294Y-86800000D01*
X151660294Y-89200000D01*
X151664708Y-89244813D01*
X151677779Y-89287905D01*
X151699006Y-89327618D01*
X151727573Y-89362427D01*
X151762382Y-89390994D01*
X151802095Y-89412221D01*
X151845187Y-89425292D01*
X151890000Y-89429706D01*
X152650000Y-89429706D01*
X152694813Y-89425292D01*
X152737905Y-89412221D01*
X152777618Y-89390994D01*
X152812427Y-89362427D01*
X152840994Y-89327618D01*
X152862221Y-89287905D01*
X152875292Y-89244813D01*
X152879706Y-89200000D01*
X152879706Y-86800000D01*
X152930294Y-86800000D01*
X152930294Y-89200000D01*
X152934708Y-89244813D01*
X152947779Y-89287905D01*
X152969006Y-89327618D01*
X152997573Y-89362427D01*
X153032382Y-89390994D01*
X153072095Y-89412221D01*
X153115187Y-89425292D01*
X153160000Y-89429706D01*
X153920000Y-89429706D01*
X153964813Y-89425292D01*
X154007905Y-89412221D01*
X154047618Y-89390994D01*
X154082427Y-89362427D01*
X154110994Y-89327618D01*
X154132221Y-89287905D01*
X154145292Y-89244813D01*
X154149706Y-89200000D01*
X154149706Y-86800000D01*
X154145292Y-86755187D01*
X154132221Y-86712095D01*
X154110994Y-86672382D01*
X154082427Y-86637573D01*
X154047618Y-86609006D01*
X154007905Y-86587779D01*
X153964813Y-86574708D01*
X153920000Y-86570294D01*
X153160000Y-86570294D01*
X153115187Y-86574708D01*
X153072095Y-86587779D01*
X153032382Y-86609006D01*
X152997573Y-86637573D01*
X152969006Y-86672382D01*
X152947779Y-86712095D01*
X152934708Y-86755187D01*
X152930294Y-86800000D01*
X152879706Y-86800000D01*
X152875292Y-86755187D01*
X152862221Y-86712095D01*
X152840994Y-86672382D01*
X152812427Y-86637573D01*
X152777618Y-86609006D01*
X152737905Y-86587779D01*
X152694813Y-86574708D01*
X152650000Y-86570294D01*
X151890000Y-86570294D01*
X151845187Y-86574708D01*
X151802095Y-86587779D01*
X151762382Y-86609006D01*
X151727573Y-86637573D01*
X151699006Y-86672382D01*
X151677779Y-86712095D01*
X151664708Y-86755187D01*
X151660294Y-86800000D01*
X151609706Y-86800000D01*
X151605292Y-86755187D01*
X151592221Y-86712095D01*
X151570994Y-86672382D01*
X151542427Y-86637573D01*
X151507618Y-86609006D01*
X151467905Y-86587779D01*
X151424813Y-86574708D01*
X151380000Y-86570294D01*
X150620000Y-86570294D01*
X150575187Y-86574708D01*
X150532095Y-86587779D01*
X150492382Y-86609006D01*
X150457573Y-86637573D01*
X150429006Y-86672382D01*
X150407779Y-86712095D01*
X150394708Y-86755187D01*
X150390294Y-86800000D01*
X150339706Y-86800000D01*
X150335292Y-86755187D01*
X150322221Y-86712095D01*
X150300994Y-86672382D01*
X150272427Y-86637573D01*
X150237618Y-86609006D01*
X150197905Y-86587779D01*
X150154813Y-86574708D01*
X150110000Y-86570294D01*
X149350000Y-86570294D01*
X149305187Y-86574708D01*
X149262095Y-86587779D01*
X149222382Y-86609006D01*
X149187573Y-86637573D01*
X149159006Y-86672382D01*
X149137779Y-86712095D01*
X149124708Y-86755187D01*
X149120294Y-86800000D01*
X149069706Y-86800000D01*
X149065292Y-86755187D01*
X149052221Y-86712095D01*
X149030994Y-86672382D01*
X149002427Y-86637573D01*
X148967618Y-86609006D01*
X148927905Y-86587779D01*
X148884813Y-86574708D01*
X148840000Y-86570294D01*
X148080000Y-86570294D01*
X148035187Y-86574708D01*
X147992095Y-86587779D01*
X147952382Y-86609006D01*
X147917573Y-86637573D01*
X147889006Y-86672382D01*
X147867779Y-86712095D01*
X147854708Y-86755187D01*
X147850294Y-86800000D01*
X141253600Y-86800000D01*
X141253600Y-86503600D01*
X160746401Y-86503600D01*
X160746400Y-100894955D01*
G37*
%TD.AperFunction*%
%TD*%
M02*
