%TF.GenerationSoftware,KiCad,Pcbnew,(5.1.8)-1*%
%TF.CreationDate,2021-11-11T19:50:17-05:00*%
%TF.ProjectId,CO2_sensor,434f325f-7365-46e7-936f-722e6b696361,rev?*%
%TF.SameCoordinates,Original*%
%TF.FileFunction,Paste,Top*%
%TF.FilePolarity,Positive*%
%FSLAX46Y46*%
G04 Gerber Fmt 4.6, Leading zero omitted, Abs format (unit mm)*
G04 Created by KiCad (PCBNEW (5.1.8)-1) date 2021-11-11 19:50:17*
%MOMM*%
%LPD*%
G01*
G04 APERTURE LIST*
%ADD10R,4.800000X4.800000*%
%ADD11R,0.800000X1.500000*%
%ADD12R,1.500000X0.800000*%
G04 APERTURE END LIST*
%TO.C,C3*%
G36*
G01*
X149512500Y-103385000D02*
X149987500Y-103385000D01*
G75*
G02*
X150225000Y-103622500I0J-237500D01*
G01*
X150225000Y-104222500D01*
G75*
G02*
X149987500Y-104460000I-237500J0D01*
G01*
X149512500Y-104460000D01*
G75*
G02*
X149275000Y-104222500I0J237500D01*
G01*
X149275000Y-103622500D01*
G75*
G02*
X149512500Y-103385000I237500J0D01*
G01*
G37*
G36*
G01*
X149512500Y-101660000D02*
X149987500Y-101660000D01*
G75*
G02*
X150225000Y-101897500I0J-237500D01*
G01*
X150225000Y-102497500D01*
G75*
G02*
X149987500Y-102735000I-237500J0D01*
G01*
X149512500Y-102735000D01*
G75*
G02*
X149275000Y-102497500I0J237500D01*
G01*
X149275000Y-101897500D01*
G75*
G02*
X149512500Y-101660000I237500J0D01*
G01*
G37*
%TD*%
%TO.C,D1*%
G36*
G01*
X155380000Y-88622500D02*
X155380000Y-89097500D01*
G75*
G02*
X155142500Y-89335000I-237500J0D01*
G01*
X154567500Y-89335000D01*
G75*
G02*
X154330000Y-89097500I0J237500D01*
G01*
X154330000Y-88622500D01*
G75*
G02*
X154567500Y-88385000I237500J0D01*
G01*
X155142500Y-88385000D01*
G75*
G02*
X155380000Y-88622500I0J-237500D01*
G01*
G37*
G36*
G01*
X157130000Y-88622500D02*
X157130000Y-89097500D01*
G75*
G02*
X156892500Y-89335000I-237500J0D01*
G01*
X156317500Y-89335000D01*
G75*
G02*
X156080000Y-89097500I0J237500D01*
G01*
X156080000Y-88622500D01*
G75*
G02*
X156317500Y-88385000I237500J0D01*
G01*
X156892500Y-88385000D01*
G75*
G02*
X157130000Y-88622500I0J-237500D01*
G01*
G37*
%TD*%
%TO.C,R3*%
G36*
G01*
X153717500Y-102635000D02*
X153242500Y-102635000D01*
G75*
G02*
X153005000Y-102397500I0J237500D01*
G01*
X153005000Y-101897500D01*
G75*
G02*
X153242500Y-101660000I237500J0D01*
G01*
X153717500Y-101660000D01*
G75*
G02*
X153955000Y-101897500I0J-237500D01*
G01*
X153955000Y-102397500D01*
G75*
G02*
X153717500Y-102635000I-237500J0D01*
G01*
G37*
G36*
G01*
X153717500Y-104460000D02*
X153242500Y-104460000D01*
G75*
G02*
X153005000Y-104222500I0J237500D01*
G01*
X153005000Y-103722500D01*
G75*
G02*
X153242500Y-103485000I237500J0D01*
G01*
X153717500Y-103485000D01*
G75*
G02*
X153955000Y-103722500I0J-237500D01*
G01*
X153955000Y-104222500D01*
G75*
G02*
X153717500Y-104460000I-237500J0D01*
G01*
G37*
%TD*%
%TO.C,R2*%
G36*
G01*
X152177500Y-102635000D02*
X151702500Y-102635000D01*
G75*
G02*
X151465000Y-102397500I0J237500D01*
G01*
X151465000Y-101897500D01*
G75*
G02*
X151702500Y-101660000I237500J0D01*
G01*
X152177500Y-101660000D01*
G75*
G02*
X152415000Y-101897500I0J-237500D01*
G01*
X152415000Y-102397500D01*
G75*
G02*
X152177500Y-102635000I-237500J0D01*
G01*
G37*
G36*
G01*
X152177500Y-104460000D02*
X151702500Y-104460000D01*
G75*
G02*
X151465000Y-104222500I0J237500D01*
G01*
X151465000Y-103722500D01*
G75*
G02*
X151702500Y-103485000I237500J0D01*
G01*
X152177500Y-103485000D01*
G75*
G02*
X152415000Y-103722500I0J-237500D01*
G01*
X152415000Y-104222500D01*
G75*
G02*
X152177500Y-104460000I-237500J0D01*
G01*
G37*
%TD*%
%TO.C,R1*%
G36*
G01*
X151955000Y-88622500D02*
X151955000Y-89097500D01*
G75*
G02*
X151717500Y-89335000I-237500J0D01*
G01*
X151217500Y-89335000D01*
G75*
G02*
X150980000Y-89097500I0J237500D01*
G01*
X150980000Y-88622500D01*
G75*
G02*
X151217500Y-88385000I237500J0D01*
G01*
X151717500Y-88385000D01*
G75*
G02*
X151955000Y-88622500I0J-237500D01*
G01*
G37*
G36*
G01*
X153780000Y-88622500D02*
X153780000Y-89097500D01*
G75*
G02*
X153542500Y-89335000I-237500J0D01*
G01*
X153042500Y-89335000D01*
G75*
G02*
X152805000Y-89097500I0J237500D01*
G01*
X152805000Y-88622500D01*
G75*
G02*
X153042500Y-88385000I237500J0D01*
G01*
X153542500Y-88385000D01*
G75*
G02*
X153780000Y-88622500I0J-237500D01*
G01*
G37*
%TD*%
D10*
%TO.C,IC1*%
X151000000Y-95710000D03*
D11*
X148500000Y-91710000D03*
X149750000Y-91710000D03*
X151000000Y-91710000D03*
X152250000Y-91710000D03*
X153500000Y-91710000D03*
D12*
X155000000Y-93210000D03*
X155000000Y-94460000D03*
X155000000Y-95710000D03*
X155000000Y-96960000D03*
X155000000Y-98210000D03*
D11*
X153500000Y-99710000D03*
X152250000Y-99710000D03*
X151000000Y-99710000D03*
X149750000Y-99710000D03*
X148500000Y-99710000D03*
D12*
X147000000Y-98210000D03*
X147000000Y-96960000D03*
X147000000Y-95710000D03*
X147000000Y-94460000D03*
X147000000Y-93210000D03*
%TD*%
%TO.C,C2*%
G36*
G01*
X148615000Y-88622500D02*
X148615000Y-89097500D01*
G75*
G02*
X148377500Y-89335000I-237500J0D01*
G01*
X147777500Y-89335000D01*
G75*
G02*
X147540000Y-89097500I0J237500D01*
G01*
X147540000Y-88622500D01*
G75*
G02*
X147777500Y-88385000I237500J0D01*
G01*
X148377500Y-88385000D01*
G75*
G02*
X148615000Y-88622500I0J-237500D01*
G01*
G37*
G36*
G01*
X150340000Y-88622500D02*
X150340000Y-89097500D01*
G75*
G02*
X150102500Y-89335000I-237500J0D01*
G01*
X149502500Y-89335000D01*
G75*
G02*
X149265000Y-89097500I0J237500D01*
G01*
X149265000Y-88622500D01*
G75*
G02*
X149502500Y-88385000I237500J0D01*
G01*
X150102500Y-88385000D01*
G75*
G02*
X150340000Y-88622500I0J-237500D01*
G01*
G37*
%TD*%
%TO.C,C1*%
G36*
G01*
X142895000Y-97452500D02*
X142895000Y-97927500D01*
G75*
G02*
X142657500Y-98165000I-237500J0D01*
G01*
X142057500Y-98165000D01*
G75*
G02*
X141820000Y-97927500I0J237500D01*
G01*
X141820000Y-97452500D01*
G75*
G02*
X142057500Y-97215000I237500J0D01*
G01*
X142657500Y-97215000D01*
G75*
G02*
X142895000Y-97452500I0J-237500D01*
G01*
G37*
G36*
G01*
X144620000Y-97452500D02*
X144620000Y-97927500D01*
G75*
G02*
X144382500Y-98165000I-237500J0D01*
G01*
X143782500Y-98165000D01*
G75*
G02*
X143545000Y-97927500I0J237500D01*
G01*
X143545000Y-97452500D01*
G75*
G02*
X143782500Y-97215000I237500J0D01*
G01*
X144382500Y-97215000D01*
G75*
G02*
X144620000Y-97452500I0J-237500D01*
G01*
G37*
%TD*%
M02*
