M48
; DRILL file {KiCad (5.1.8)-1} date 11/11/21 19:50:19
; FORMAT={-:-/ absolute / inch / decimal}
; #@! TF.CreationDate,2021-11-11T19:50:19-05:00
; #@! TF.GenerationSoftware,Kicad,Pcbnew,(5.1.8)-1
; #@! TF.FileFunction,Plated,1,2,PTH
FMAT,2
INCH
T1C0.0110
T2C0.0130
%
G90
G05
T1
X5.5799Y-3.963
X5.6047Y-3.4457
X5.6059Y-3.6
X5.6067Y-3.763
X5.7528Y-3.574
X5.7551Y-3.9543
X5.7665Y-4.1398
X5.8783Y-3.7004
X5.8783Y-3.7675
X5.8783Y-3.8346
X5.9463Y-3.7004
X5.9463Y-3.7675
X5.9463Y-3.8346
X5.9819Y-4.0216
X6.0142Y-3.7004
X6.0142Y-3.7675
X6.0142Y-3.8346
X6.0425Y-4.0216
X6.1161Y-3.9339
X6.1276Y-4.1457
X6.176Y-3.7417
X6.2913Y-3.4374
X6.2941Y-3.739
X6.313Y-3.9622
T2
X5.7193Y-3.8461
T0
M30
