%TF.GenerationSoftware,KiCad,Pcbnew,(5.1.8)-1*%
%TF.CreationDate,2021-11-11T19:50:17-05:00*%
%TF.ProjectId,CO2_sensor,434f325f-7365-46e7-936f-722e6b696361,rev?*%
%TF.SameCoordinates,Original*%
%TF.FileFunction,Legend,Top*%
%TF.FilePolarity,Positive*%
%FSLAX46Y46*%
G04 Gerber Fmt 4.6, Leading zero omitted, Abs format (unit mm)*
G04 Created by KiCad (PCBNEW (5.1.8)-1) date 2021-11-11 19:50:17*
%MOMM*%
%LPD*%
G01*
G04 APERTURE LIST*
%ADD10C,0.254000*%
%ADD11C,0.120000*%
%ADD12C,0.200000*%
G04 APERTURE END LIST*
D10*
X143850000Y-89150000D02*
X145500000Y-89150000D01*
X143800000Y-90000000D02*
X145500000Y-90000000D01*
X143800000Y-88300000D02*
X143800000Y-90000000D01*
X145500000Y-88300000D02*
X143800000Y-88300000D01*
X143100000Y-87600000D02*
X143100000Y-90000000D01*
X145500000Y-87600000D02*
X143100000Y-87600000D01*
X159384285Y-99206583D02*
X159456857Y-99288226D01*
X159529428Y-99515012D01*
X159529428Y-99660155D01*
X159456857Y-99868798D01*
X159311714Y-99995798D01*
X159166571Y-100050226D01*
X158876285Y-100086512D01*
X158658571Y-100059298D01*
X158368285Y-99950441D01*
X158223142Y-99859726D01*
X158078000Y-99696441D01*
X158005428Y-99469655D01*
X158005428Y-99324512D01*
X158078000Y-99115869D01*
X158150571Y-99052369D01*
X158005428Y-98090798D02*
X158005428Y-97800512D01*
X158078000Y-97664441D01*
X158223142Y-97537441D01*
X158513428Y-97501155D01*
X159021428Y-97564655D01*
X159311714Y-97673512D01*
X159456857Y-97836798D01*
X159529428Y-97991012D01*
X159529428Y-98281298D01*
X159456857Y-98417369D01*
X159311714Y-98544369D01*
X159021428Y-98580655D01*
X158513428Y-98517155D01*
X158223142Y-98408298D01*
X158078000Y-98245012D01*
X158005428Y-98090798D01*
X158150571Y-96875226D02*
X158078000Y-96793583D01*
X158005428Y-96639369D01*
X158005428Y-96276512D01*
X158078000Y-96140441D01*
X158150571Y-96076941D01*
X158295714Y-96022512D01*
X158440857Y-96040655D01*
X158658571Y-96140441D01*
X159529428Y-97120155D01*
X159529428Y-96176726D01*
X159456857Y-94425941D02*
X159529428Y-94289869D01*
X159529428Y-93999583D01*
X159456857Y-93845369D01*
X159311714Y-93754655D01*
X159239142Y-93745583D01*
X159094000Y-93800012D01*
X159021428Y-93936083D01*
X159021428Y-94153798D01*
X158948857Y-94289869D01*
X158803714Y-94344298D01*
X158731142Y-94335226D01*
X158586000Y-94244512D01*
X158513428Y-94090298D01*
X158513428Y-93872583D01*
X158586000Y-93736512D01*
X159456857Y-92539083D02*
X159529428Y-92693298D01*
X159529428Y-92983583D01*
X159456857Y-93119655D01*
X159311714Y-93174083D01*
X158731142Y-93101512D01*
X158586000Y-93010798D01*
X158513428Y-92856583D01*
X158513428Y-92566298D01*
X158586000Y-92430226D01*
X158731142Y-92375798D01*
X158876285Y-92393941D01*
X159021428Y-93137798D01*
X158513428Y-91695441D02*
X159529428Y-91822441D01*
X158658571Y-91713583D02*
X158586000Y-91631941D01*
X158513428Y-91477726D01*
X158513428Y-91260012D01*
X158586000Y-91123941D01*
X158731142Y-91069512D01*
X159529428Y-91169298D01*
X159456857Y-90507083D02*
X159529428Y-90371012D01*
X159529428Y-90080726D01*
X159456857Y-89926512D01*
X159311714Y-89835798D01*
X159239142Y-89826726D01*
X159094000Y-89881155D01*
X159021428Y-90017226D01*
X159021428Y-90234941D01*
X158948857Y-90371012D01*
X158803714Y-90425441D01*
X158731142Y-90416369D01*
X158586000Y-90325655D01*
X158513428Y-90171441D01*
X158513428Y-89953726D01*
X158586000Y-89817655D01*
X159529428Y-88992155D02*
X159456857Y-89128226D01*
X159384285Y-89191726D01*
X159239142Y-89246155D01*
X158803714Y-89191726D01*
X158658571Y-89101012D01*
X158586000Y-89019369D01*
X158513428Y-88865155D01*
X158513428Y-88647441D01*
X158586000Y-88511369D01*
X158658571Y-88447869D01*
X158803714Y-88393441D01*
X159239142Y-88447869D01*
X159384285Y-88538583D01*
X159456857Y-88620226D01*
X159529428Y-88774441D01*
X159529428Y-88992155D01*
X159529428Y-87831012D02*
X158513428Y-87704012D01*
X158803714Y-87740298D02*
X158658571Y-87649583D01*
X158586000Y-87567941D01*
X158513428Y-87413726D01*
X158513428Y-87268583D01*
D11*
%TO.C,C3*%
X150260000Y-102913733D02*
X150260000Y-103206267D01*
X149240000Y-102913733D02*
X149240000Y-103206267D01*
%TO.C,D1*%
X154930000Y-89595000D02*
X157390000Y-89595000D01*
X157390000Y-89595000D02*
X157390000Y-88125000D01*
X157390000Y-88125000D02*
X154930000Y-88125000D01*
%TO.C,R3*%
X152957500Y-103314724D02*
X152957500Y-102805276D01*
X154002500Y-103314724D02*
X154002500Y-102805276D01*
%TO.C,R2*%
X151417500Y-103314724D02*
X151417500Y-102805276D01*
X152462500Y-103314724D02*
X152462500Y-102805276D01*
%TO.C,R1*%
X152634724Y-89382500D02*
X152125276Y-89382500D01*
X152634724Y-88337500D02*
X152125276Y-88337500D01*
D12*
%TO.C,IC1*%
X145500000Y-93210000D02*
G75*
G02*
X145400000Y-93210000I-50000J0D01*
G01*
X145400000Y-93210000D02*
G75*
G02*
X145500000Y-93210000I50000J0D01*
G01*
X145500000Y-93210000D02*
G75*
G02*
X145400000Y-93210000I-50000J0D01*
G01*
X145400000Y-93210000D02*
X145400000Y-93210000D01*
X145500000Y-93210000D02*
X145500000Y-93210000D01*
X145400000Y-93210000D02*
X145400000Y-93210000D01*
X154750000Y-100760000D02*
X154750000Y-100760000D01*
X156050000Y-100760000D02*
X154750000Y-100760000D01*
X156050000Y-100760000D02*
X156050000Y-100760000D01*
X154750000Y-100760000D02*
X156050000Y-100760000D01*
X156050000Y-100760000D02*
X156050000Y-99210000D01*
X156050000Y-100760000D02*
X156050000Y-100760000D01*
X156050000Y-99210000D02*
X156050000Y-100760000D01*
X156050000Y-99210000D02*
X156050000Y-99210000D01*
X156050000Y-91960000D02*
X156050000Y-90660000D01*
X156050000Y-91960000D02*
X156050000Y-91960000D01*
X156050000Y-90660000D02*
X156050000Y-91960000D01*
X156050000Y-90660000D02*
X156050000Y-90660000D01*
X154500000Y-90660000D02*
X154500000Y-90660000D01*
X156050000Y-90660000D02*
X154500000Y-90660000D01*
X156050000Y-90660000D02*
X156050000Y-90660000D01*
X154500000Y-90660000D02*
X156050000Y-90660000D01*
X145950000Y-90660000D02*
X145950000Y-90660000D01*
X147500000Y-90660000D02*
X145950000Y-90660000D01*
X147500000Y-90660000D02*
X147500000Y-90660000D01*
X145950000Y-90660000D02*
X147500000Y-90660000D01*
X145950000Y-90660000D02*
X145950000Y-92210000D01*
X145950000Y-90660000D02*
X145950000Y-90660000D01*
X145950000Y-92210000D02*
X145950000Y-90660000D01*
X145950000Y-92210000D02*
X145950000Y-92210000D01*
X145950000Y-99210000D02*
X145950000Y-100760000D01*
X145950000Y-99210000D02*
X145950000Y-99210000D01*
X145950000Y-100760000D02*
X145950000Y-99210000D01*
X145950000Y-100760000D02*
X145950000Y-100760000D01*
X147500000Y-100760000D02*
X147500000Y-100760000D01*
X145950000Y-100760000D02*
X147500000Y-100760000D01*
X145950000Y-100760000D02*
X145950000Y-100760000D01*
X147500000Y-100760000D02*
X145950000Y-100760000D01*
D11*
%TO.C,C2*%
X149086267Y-89370000D02*
X148793733Y-89370000D01*
X149086267Y-88350000D02*
X148793733Y-88350000D01*
%TO.C,C1*%
X143366267Y-98200000D02*
X143073733Y-98200000D01*
X143366267Y-97180000D02*
X143073733Y-97180000D01*
%TD*%
M02*
